<?xml version="1.0" encoding="UTF-8" standalone="no"?>
<!DOCTYPE svg PUBLIC "-//W3C//DTD SVG 1.1//EN"
 "http://www.w3.org/Graphics/SVG/1.1/DTD/svg11.dtd">
<!-- Generated by graphviz version 12.1.2 (20240928.0832)
 -->
<!-- Title: Character Pages: 1 -->
<svg width="313pt" height="259pt"
 viewBox="0.00 0.00 312.72 259.20" xmlns="http://www.w3.org/2000/svg" xmlns:xlink="http://www.w3.org/1999/xlink">
<g id="graph0" class="graph" transform="scale(1 1) rotate(0) translate(4 255.2)">
<title>Character</title>
<polygon fill="white" stroke="none" points="-4,4 -4,-255.2 308.72,-255.2 308.72,4 -4,4"/>
<!-- Character -->
<g id="node1" class="node">
<title>Character</title>
<polygon fill="#efefef" stroke="none" points="46.2,-169.4 46.2,-205 258.52,-205 258.52,-169.4 46.2,-169.4"/>
<polygon fill="none" stroke="black" points="46.2,-169.4 46.2,-205 258.52,-205 258.52,-169.4 46.2,-169.4"/>
<text text-anchor="start" x="53.2" y="-182.8" font-family="Arial Bold" font-size="18.00">Character</text>
<text text-anchor="start" x="123.15" y="-182.8" font-family="Arial" font-size="14.00">    </text>
<text text-anchor="start" x="154.27" y="-182.8" font-family="Arial" font-size="14.00" fill="#666666">[TailorDB.Type]</text>
<polygon fill="none" stroke="black" points="46.2,-138.6 46.2,-169.4 258.52,-169.4 258.52,-138.6 46.2,-138.6"/>
<text text-anchor="start" x="53.2" y="-150.8" font-family="Arial" font-size="14.00">id </text>
<text text-anchor="start" x="67.99" y="-150.8" font-family="Arial" font-size="14.00" fill="#666666">[uuid]</text>
<polygon fill="none" stroke="black" points="46.2,-107.8 46.2,-138.6 258.52,-138.6 258.52,-107.8 46.2,-107.8"/>
<text text-anchor="start" x="53.2" y="-120" font-family="Arial" font-size="14.00">createdAt </text>
<text text-anchor="start" x="117.01" y="-120" font-family="Arial" font-size="14.00" fill="#666666">[datetime]</text>
<polygon fill="none" stroke="black" points="46.2,-77 46.2,-107.8 258.52,-107.8 258.52,-77 46.2,-77"/>
<text text-anchor="start" x="53.2" y="-89.2" font-family="Arial" font-size="14.00">email </text>
<text text-anchor="start" x="90.54" y="-89.2" font-family="Arial" font-size="14.00" fill="#666666">[string]</text>
<polygon fill="none" stroke="black" points="46.2,-46.2 46.2,-77 258.52,-77 258.52,-46.2 46.2,-46.2"/>
<text text-anchor="start" x="53.2" y="-58.4" font-family="Arial" font-size="14.00">name </text>
<text text-anchor="start" x="92.11" y="-58.4" font-family="Arial" font-size="14.00" fill="#666666">[string]</text>
<polygon fill="none" stroke="black" stroke-width="3" points="44.7,-44.7 44.7,-206.5 260.02,-206.5 260.02,-44.7 44.7,-44.7"/>
</g>
</g>
</svg>
