<?xml version="1.0" encoding="UTF-8" standalone="no"?>
<!DOCTYPE svg PUBLIC "-//W3C//DTD SVG 1.1//EN"
 "http://www.w3.org/Graphics/SVG/1.1/DTD/svg11.dtd">
<!-- Generated by graphviz version 12.1.2 (20240928.0832)
 -->
<!-- Title: Product Pages: 1 -->
<svg width="299pt" height="228pt"
 viewBox="0.00 0.00 298.76 228.40" xmlns="http://www.w3.org/2000/svg" xmlns:xlink="http://www.w3.org/1999/xlink">
<g id="graph0" class="graph" transform="scale(1 1) rotate(0) translate(4 224.4)">
<title>Product</title>
<polygon fill="white" stroke="none" points="-4,4 -4,-224.4 294.76,-224.4 294.76,4 -4,4"/>
<!-- Product -->
<g id="node1" class="node">
<title>Product</title>
<polygon fill="#efefef" stroke="none" points="46.2,-138.6 46.2,-174.2 244.56,-174.2 244.56,-138.6 46.2,-138.6"/>
<polygon fill="none" stroke="black" points="46.2,-138.6 46.2,-174.2 244.56,-174.2 244.56,-138.6 46.2,-138.6"/>
<text text-anchor="start" x="53.2" y="-152" font-family="Arial Bold" font-size="18.00">Product</text>
<text text-anchor="start" x="109.2" y="-152" font-family="Arial" font-size="14.00">    </text>
<text text-anchor="start" x="140.31" y="-152" font-family="Arial" font-size="14.00" fill="#666666">[TailorDB.Type]</text>
<polygon fill="none" stroke="black" points="46.2,-107.8 46.2,-138.6 244.56,-138.6 244.56,-107.8 46.2,-107.8"/>
<text text-anchor="start" x="53.2" y="-120" font-family="Arial" font-size="14.00">id </text>
<text text-anchor="start" x="67.99" y="-120" font-family="Arial" font-size="14.00" fill="#666666">[uuid]</text>
<polygon fill="none" stroke="black" points="46.2,-77 46.2,-107.8 244.56,-107.8 244.56,-77 46.2,-77"/>
<text text-anchor="start" x="53.2" y="-89.2" font-family="Arial" font-size="14.00">description </text>
<text text-anchor="start" x="124.79" y="-89.2" font-family="Arial" font-size="14.00" fill="#666666">[string]</text>
<polygon fill="none" stroke="black" points="46.2,-46.2 46.2,-77 244.56,-77 244.56,-46.2 46.2,-46.2"/>
<text text-anchor="start" x="53.2" y="-58.4" font-family="Arial" font-size="14.00">title </text>
<text text-anchor="start" x="78.88" y="-58.4" font-family="Arial" font-size="14.00" fill="#666666">[string]</text>
<polygon fill="none" stroke="black" stroke-width="3" points="44.7,-44.7 44.7,-175.7 246.06,-175.7 246.06,-44.7 44.7,-44.7"/>
</g>
</g>
</svg>
