<?xml version="1.0" encoding="UTF-8" standalone="no"?>
<!DOCTYPE svg PUBLIC "-//W3C//DTD SVG 1.1//EN"
 "http://www.w3.org/Graphics/SVG/1.1/DTD/svg11.dtd">
<!-- Generated by graphviz version 12.1.2 (20240928.0832)
 -->
<!-- Pages: 1 -->
<svg width="610pt" height="253pt"
 viewBox="0.00 0.00 609.74 253.20" xmlns="http://www.w3.org/2000/svg" xmlns:xlink="http://www.w3.org/1999/xlink">
<g id="graph0" class="graph" transform="scale(1 1) rotate(0) translate(4 249.2)">
<polygon fill="white" stroke="none" points="-4,4 -4,-249.2 605.74,-249.2 605.74,4 -4,4"/>
<!-- Character -->
<g id="node1" class="node">
<title>Character</title>
<polygon fill="#efefef" stroke="none" points="43.2,-166.4 43.2,-202 255.52,-202 255.52,-166.4 43.2,-166.4"/>
<polygon fill="none" stroke="black" points="43.2,-166.4 43.2,-202 255.52,-202 255.52,-166.4 43.2,-166.4"/>
<text text-anchor="start" x="50.2" y="-179.8" font-family="Arial Bold" font-size="18.00">Character</text>
<text text-anchor="start" x="120.15" y="-179.8" font-family="Arial" font-size="14.00">    </text>
<text text-anchor="start" x="151.27" y="-179.8" font-family="Arial" font-size="14.00" fill="#666666">[TailorDB.Type]</text>
<polygon fill="none" stroke="black" points="43.2,-135.6 43.2,-166.4 255.52,-166.4 255.52,-135.6 43.2,-135.6"/>
<text text-anchor="start" x="50.2" y="-147.8" font-family="Arial" font-size="14.00">id </text>
<text text-anchor="start" x="64.99" y="-147.8" font-family="Arial" font-size="14.00" fill="#666666">[uuid]</text>
<polygon fill="none" stroke="black" points="43.2,-104.8 43.2,-135.6 255.52,-135.6 255.52,-104.8 43.2,-104.8"/>
<text text-anchor="start" x="50.2" y="-117" font-family="Arial" font-size="14.00">createdAt </text>
<text text-anchor="start" x="114.01" y="-117" font-family="Arial" font-size="14.00" fill="#666666">[datetime]</text>
<polygon fill="none" stroke="black" points="43.2,-74 43.2,-104.8 255.52,-104.8 255.52,-74 43.2,-74"/>
<text text-anchor="start" x="50.2" y="-86.2" font-family="Arial" font-size="14.00">email </text>
<text text-anchor="start" x="87.54" y="-86.2" font-family="Arial" font-size="14.00" fill="#666666">[string]</text>
<polygon fill="none" stroke="black" points="43.2,-43.2 43.2,-74 255.52,-74 255.52,-43.2 43.2,-43.2"/>
<text text-anchor="start" x="50.2" y="-55.4" font-family="Arial" font-size="14.00">name </text>
<text text-anchor="start" x="89.11" y="-55.4" font-family="Arial" font-size="14.00" fill="#666666">[string]</text>
</g>
<!-- Product -->
<g id="node2" class="node">
<title>Product</title>
<polygon fill="#efefef" stroke="none" points="360.18,-151 360.18,-186.6 558.54,-186.6 558.54,-151 360.18,-151"/>
<polygon fill="none" stroke="black" points="360.18,-151 360.18,-186.6 558.54,-186.6 558.54,-151 360.18,-151"/>
<text text-anchor="start" x="367.18" y="-164.4" font-family="Arial Bold" font-size="18.00">Product</text>
<text text-anchor="start" x="423.17" y="-164.4" font-family="Arial" font-size="14.00">    </text>
<text text-anchor="start" x="454.29" y="-164.4" font-family="Arial" font-size="14.00" fill="#666666">[TailorDB.Type]</text>
<polygon fill="none" stroke="black" points="360.18,-120.2 360.18,-151 558.54,-151 558.54,-120.2 360.18,-120.2"/>
<text text-anchor="start" x="367.18" y="-132.4" font-family="Arial" font-size="14.00">id </text>
<text text-anchor="start" x="381.96" y="-132.4" font-family="Arial" font-size="14.00" fill="#666666">[uuid]</text>
<polygon fill="none" stroke="black" points="360.18,-89.4 360.18,-120.2 558.54,-120.2 558.54,-89.4 360.18,-89.4"/>
<text text-anchor="start" x="367.18" y="-101.6" font-family="Arial" font-size="14.00">description </text>
<text text-anchor="start" x="438.77" y="-101.6" font-family="Arial" font-size="14.00" fill="#666666">[string]</text>
<polygon fill="none" stroke="black" points="360.18,-58.6 360.18,-89.4 558.54,-89.4 558.54,-58.6 360.18,-58.6"/>
<text text-anchor="start" x="367.18" y="-70.8" font-family="Arial" font-size="14.00">title </text>
<text text-anchor="start" x="392.85" y="-70.8" font-family="Arial" font-size="14.00" fill="#666666">[string]</text>
</g>
</g>
</svg>
