<?xml version="1.0" encoding="UTF-8" standalone="no"?>
<!DOCTYPE svg PUBLIC "-//W3C//DTD SVG 1.1//EN"
 "http://www.w3.org/Graphics/SVG/1.1/DTD/svg11.dtd">
<!-- Generated by graphviz version 12.1.2 (20240928.0832)
 -->
<!-- Title: Company Pages: 1 -->
<svg width="981pt" height="1002pt"
 viewBox="0.00 0.00 980.74 1002.40" xmlns="http://www.w3.org/2000/svg" xmlns:xlink="http://www.w3.org/1999/xlink">
<g id="graph0" class="graph" transform="scale(1 1) rotate(0) translate(4 998.4)">
<title>Company</title>
<polygon fill="white" stroke="none" points="-4,4 -4,-998.4 976.74,-998.4 976.74,4 -4,4"/>
<!-- Company -->
<g id="node1" class="node">
<title>Company</title>
<polygon fill="#efefef" stroke="none" points="328.2,-292.6 328.2,-328.2 540.56,-328.2 540.56,-292.6 328.2,-292.6"/>
<polygon fill="none" stroke="black" points="328.2,-292.6 328.2,-328.2 540.56,-328.2 540.56,-292.6 328.2,-292.6"/>
<text text-anchor="start" x="335.2" y="-306" font-family="Arial Bold" font-size="18.00">Company</text>
<text text-anchor="start" x="405.19" y="-306" font-family="Arial" font-size="14.00">    </text>
<text text-anchor="start" x="436.31" y="-306" font-family="Arial" font-size="14.00" fill="#666666">[TailorDB.Type]</text>
<polygon fill="none" stroke="black" points="328.2,-261.8 328.2,-292.6 540.56,-292.6 540.56,-261.8 328.2,-261.8"/>
<text text-anchor="start" x="335.2" y="-274" font-family="Arial" font-size="14.00">id </text>
<text text-anchor="start" x="349.98" y="-274" font-family="Arial" font-size="14.00" fill="#666666">[uuid]</text>
<polygon fill="none" stroke="black" points="328.2,-231 328.2,-261.8 540.56,-261.8 540.56,-231 328.2,-231"/>
<text text-anchor="start" x="335.2" y="-243.2" font-family="Arial" font-size="14.00">name </text>
<text text-anchor="start" x="374.11" y="-243.2" font-family="Arial" font-size="14.00" fill="#666666">[string]</text>
<polygon fill="none" stroke="black" points="328.2,-200.2 328.2,-231 540.56,-231 540.56,-200.2 328.2,-200.2"/>
<text text-anchor="start" x="335.2" y="-212.4" font-family="Arial" font-size="14.00">isDeleted </text>
<text text-anchor="start" x="397.45" y="-212.4" font-family="Arial" font-size="14.00" fill="#666666">[boolean]</text>
<polygon fill="none" stroke="black" points="328.2,-169.4 328.2,-200.2 540.56,-200.2 540.56,-169.4 328.2,-169.4"/>
<text text-anchor="start" x="335.2" y="-181.6" font-family="Arial" font-size="14.00">url </text>
<text text-anchor="start" x="354.64" y="-181.6" font-family="Arial" font-size="14.00" fill="#666666">[string]</text>
<polygon fill="none" stroke="black" points="328.2,-138.6 328.2,-169.4 540.56,-169.4 540.56,-138.6 328.2,-138.6"/>
<text text-anchor="start" x="335.2" y="-150.8" font-family="Arial" font-size="14.00">linkedInUrl </text>
<text text-anchor="start" x="405.22" y="-150.8" font-family="Arial" font-size="14.00" fill="#666666">[string]</text>
<polygon fill="none" stroke="black" points="328.2,-107.8 328.2,-138.6 540.56,-138.6 540.56,-107.8 328.2,-107.8"/>
<text text-anchor="start" x="335.2" y="-120" font-family="Arial" font-size="14.00">logoUrl </text>
<text text-anchor="start" x="383.44" y="-120" font-family="Arial" font-size="14.00" fill="#666666">[string]</text>
<polygon fill="none" stroke="black" points="328.2,-77 328.2,-107.8 540.56,-107.8 540.56,-77 328.2,-77"/>
<text text-anchor="start" x="335.2" y="-89.2" font-family="Arial" font-size="14.00">createdAt </text>
<text text-anchor="start" x="399.01" y="-89.2" font-family="Arial" font-size="14.00" fill="#666666">[datetime]</text>
<polygon fill="none" stroke="black" points="328.2,-46.2 328.2,-77 540.56,-77 540.56,-46.2 328.2,-46.2"/>
<text text-anchor="start" x="335.2" y="-58.4" font-family="Arial" font-size="14.00">updatedAt </text>
<text text-anchor="start" x="402.92" y="-58.4" font-family="Arial" font-size="14.00" fill="#666666">[datetime]</text>
<polygon fill="none" stroke="black" stroke-width="3" points="326.7,-44.7 326.7,-329.7 542.06,-329.7 542.06,-44.7 326.7,-44.7"/>
</g>
<!-- Contact -->
<g id="node2" class="node">
<title>Contact</title>
<polygon fill="#efefef" stroke="none" points="43.2,-854 43.2,-889.6 241.55,-889.6 241.55,-854 43.2,-854"/>
<polygon fill="none" stroke="black" points="43.2,-854 43.2,-889.6 241.55,-889.6 241.55,-854 43.2,-854"/>
<text text-anchor="start" x="50.2" y="-867.4" font-family="Arial Bold" font-size="18.00">Contact</text>
<text text-anchor="start" x="106.19" y="-867.4" font-family="Arial" font-size="14.00">    </text>
<text text-anchor="start" x="137.3" y="-867.4" font-family="Arial" font-size="14.00" fill="#666666">[TailorDB.Type]</text>
<polygon fill="none" stroke="black" points="43.2,-823.2 43.2,-854 241.55,-854 241.55,-823.2 43.2,-823.2"/>
<text text-anchor="start" x="50.2" y="-835.4" font-family="Arial" font-size="14.00">id </text>
<text text-anchor="start" x="64.99" y="-835.4" font-family="Arial" font-size="14.00" fill="#666666">[uuid]</text>
<polygon fill="none" stroke="black" points="43.2,-792.4 43.2,-823.2 241.55,-823.2 241.55,-792.4 43.2,-792.4"/>
<text text-anchor="start" x="50.2" y="-804.6" font-family="Arial" font-size="14.00">isDeleted </text>
<text text-anchor="start" x="112.45" y="-804.6" font-family="Arial" font-size="14.00" fill="#666666">[boolean]</text>
<polygon fill="none" stroke="black" points="43.2,-761.6 43.2,-792.4 241.55,-792.4 241.55,-761.6 43.2,-761.6"/>
<text text-anchor="start" x="50.2" y="-773.8" font-family="Arial" font-size="14.00">firstName </text>
<text text-anchor="start" x="113.99" y="-773.8" font-family="Arial" font-size="14.00" fill="#666666">[string]</text>
<polygon fill="none" stroke="black" points="43.2,-730.8 43.2,-761.6 241.55,-761.6 241.55,-730.8 43.2,-730.8"/>
<text text-anchor="start" x="50.2" y="-743" font-family="Arial" font-size="14.00">lastName </text>
<text text-anchor="start" x="113.22" y="-743" font-family="Arial" font-size="14.00" fill="#666666">[string]</text>
<polygon fill="none" stroke="black" points="43.2,-700 43.2,-730.8 241.55,-730.8 241.55,-700 43.2,-700"/>
<text text-anchor="start" x="50.2" y="-712.2" font-family="Arial" font-size="14.00">email </text>
<text text-anchor="start" x="87.54" y="-712.2" font-family="Arial" font-size="14.00" fill="#666666">[string]</text>
<polygon fill="none" stroke="black" points="43.2,-669.2 43.2,-700 241.55,-700 241.55,-669.2 43.2,-669.2"/>
<text text-anchor="start" x="50.2" y="-681.4" font-family="Arial" font-size="14.00">phonePrimary </text>
<text text-anchor="start" x="141.24" y="-681.4" font-family="Arial" font-size="14.00" fill="#666666">[string]</text>
<polygon fill="none" stroke="black" points="43.2,-638.4 43.2,-669.2 241.55,-669.2 241.55,-638.4 43.2,-638.4"/>
<text text-anchor="start" x="50.2" y="-650.6" font-family="Arial" font-size="14.00">linkedInUrl </text>
<text text-anchor="start" x="120.23" y="-650.6" font-family="Arial" font-size="14.00" fill="#666666">[string]</text>
<polygon fill="none" stroke="black" points="43.2,-607.6 43.2,-638.4 241.55,-638.4 241.55,-607.6 43.2,-607.6"/>
<text text-anchor="start" x="50.2" y="-619.8" font-family="Arial" font-size="14.00">companyId </text>
<text text-anchor="start" x="122.57" y="-619.8" font-family="Arial" font-size="14.00" fill="#666666">[uuid]</text>
<polygon fill="none" stroke="black" points="43.2,-576.8 43.2,-607.6 241.55,-607.6 241.55,-576.8 43.2,-576.8"/>
<text text-anchor="start" x="50.2" y="-589" font-family="Arial" font-size="14.00">company </text>
<text text-anchor="start" x="110.9" y="-589" font-family="Arial" font-size="14.00" fill="#666666">[Company]</text>
<polygon fill="none" stroke="black" points="43.2,-546 43.2,-576.8 241.55,-576.8 241.55,-546 43.2,-546"/>
<text text-anchor="start" x="50.2" y="-558.2" font-family="Arial" font-size="14.00">createdAt </text>
<text text-anchor="start" x="114.01" y="-558.2" font-family="Arial" font-size="14.00" fill="#666666">[datetime]</text>
<polygon fill="none" stroke="black" points="43.2,-515.2 43.2,-546 241.55,-546 241.55,-515.2 43.2,-515.2"/>
<text text-anchor="start" x="50.2" y="-527.4" font-family="Arial" font-size="14.00">updatedAt </text>
<text text-anchor="start" x="117.92" y="-527.4" font-family="Arial" font-size="14.00" fill="#666666">[datetime]</text>
</g>
<!-- Contact&#45;&gt;Company -->
<g id="edge1" class="edge">
<title>Contact:companyId&#45;&gt;Company:id</title>
<path fill="none" stroke="black" d="M252.7,-620.79C315.1,-591.34 251.79,-277.2 327.2,-277.2"/>
<polygon fill="black" stroke="black" points="252.65,-620.8 241.92,-618.53 247.44,-621.94 243.21,-622.86 243.21,-622.86 243.21,-622.86 247.44,-621.94 243.84,-627.33 252.65,-620.8"/>
<text text-anchor="start" x="249.55" y="-633" font-family="Arial" font-size="10.00">ForeignKeyType: Company</text>
</g>
<!-- Deal -->
<g id="node3" class="node">
<title>Deal</title>
<polygon fill="#efefef" stroke="none" points="346.2,-915.6 346.2,-951.2 522.55,-951.2 522.55,-915.6 346.2,-915.6"/>
<polygon fill="none" stroke="black" points="346.2,-915.6 346.2,-951.2 522.55,-951.2 522.55,-915.6 346.2,-915.6"/>
<text text-anchor="start" x="353.2" y="-929" font-family="Arial Bold" font-size="18.00">Deal</text>
<text text-anchor="start" x="387.18" y="-929" font-family="Arial" font-size="14.00">    </text>
<text text-anchor="start" x="418.3" y="-929" font-family="Arial" font-size="14.00" fill="#666666">[TailorDB.Type]</text>
<polygon fill="none" stroke="black" points="346.2,-884.8 346.2,-915.6 522.55,-915.6 522.55,-884.8 346.2,-884.8"/>
<text text-anchor="start" x="353.2" y="-897" font-family="Arial" font-size="14.00">id </text>
<text text-anchor="start" x="367.99" y="-897" font-family="Arial" font-size="14.00" fill="#666666">[uuid]</text>
<polygon fill="none" stroke="black" points="346.2,-854 346.2,-884.8 522.55,-884.8 522.55,-854 346.2,-854"/>
<text text-anchor="start" x="353.2" y="-866.2" font-family="Arial" font-size="14.00">amount </text>
<text text-anchor="start" x="403.79" y="-866.2" font-family="Arial" font-size="14.00" fill="#666666">[float]</text>
<polygon fill="none" stroke="black" points="346.2,-823.2 346.2,-854 522.55,-854 522.55,-823.2 346.2,-823.2"/>
<text text-anchor="start" x="353.2" y="-835.4" font-family="Arial" font-size="14.00">probability </text>
<text text-anchor="start" x="420.91" y="-835.4" font-family="Arial" font-size="14.00" fill="#666666">[float]</text>
<polygon fill="none" stroke="black" points="346.2,-792.4 346.2,-823.2 522.55,-823.2 522.55,-792.4 346.2,-792.4"/>
<text text-anchor="start" x="353.2" y="-804.6" font-family="Arial" font-size="14.00">value </text>
<text text-anchor="start" x="390.56" y="-804.6" font-family="Arial" font-size="14.00" fill="#666666">[float]</text>
<polygon fill="none" stroke="black" points="346.2,-761.6 346.2,-792.4 522.55,-792.4 522.55,-761.6 346.2,-761.6"/>
<text text-anchor="start" x="353.2" y="-773.8" font-family="Arial" font-size="14.00">isDeleted </text>
<text text-anchor="start" x="415.46" y="-773.8" font-family="Arial" font-size="14.00" fill="#666666">[boolean]</text>
<polygon fill="none" stroke="black" points="346.2,-730.8 346.2,-761.6 522.55,-761.6 522.55,-730.8 346.2,-730.8"/>
<text text-anchor="start" x="353.2" y="-743" font-family="Arial" font-size="14.00">dealStageId </text>
<text text-anchor="start" x="431.82" y="-743" font-family="Arial" font-size="14.00" fill="#666666">[uuid]</text>
<polygon fill="none" stroke="black" points="346.2,-700 346.2,-730.8 522.55,-730.8 522.55,-700 346.2,-700"/>
<text text-anchor="start" x="353.2" y="-712.2" font-family="Arial" font-size="14.00">dealStage </text>
<text text-anchor="start" x="420.15" y="-712.2" font-family="Arial" font-size="14.00" fill="#666666">[DealStage]</text>
<polygon fill="none" stroke="black" points="346.2,-669.2 346.2,-700 522.55,-700 522.55,-669.2 346.2,-669.2"/>
<text text-anchor="start" x="353.2" y="-681.4" font-family="Arial" font-size="14.00">userId </text>
<text text-anchor="start" x="396" y="-681.4" font-family="Arial" font-size="14.00" fill="#666666">[uuid]</text>
<polygon fill="none" stroke="black" points="346.2,-638.4 346.2,-669.2 522.55,-669.2 522.55,-638.4 346.2,-638.4"/>
<text text-anchor="start" x="353.2" y="-650.6" font-family="Arial" font-size="14.00">user </text>
<text text-anchor="start" x="384.33" y="-650.6" font-family="Arial" font-size="14.00" fill="#666666">[User]</text>
<polygon fill="none" stroke="black" points="346.2,-607.6 346.2,-638.4 522.55,-638.4 522.55,-607.6 346.2,-607.6"/>
<text text-anchor="start" x="353.2" y="-619.8" font-family="Arial" font-size="14.00">companyId </text>
<text text-anchor="start" x="425.58" y="-619.8" font-family="Arial" font-size="14.00" fill="#666666">[uuid]</text>
<polygon fill="none" stroke="black" points="346.2,-576.8 346.2,-607.6 522.55,-607.6 522.55,-576.8 346.2,-576.8"/>
<text text-anchor="start" x="353.2" y="-589" font-family="Arial" font-size="14.00">company </text>
<text text-anchor="start" x="413.9" y="-589" font-family="Arial" font-size="14.00" fill="#666666">[Company]</text>
<polygon fill="none" stroke="black" points="346.2,-546 346.2,-576.8 522.55,-576.8 522.55,-546 346.2,-546"/>
<text text-anchor="start" x="353.2" y="-558.2" font-family="Arial" font-size="14.00">contactId </text>
<text text-anchor="start" x="413.91" y="-558.2" font-family="Arial" font-size="14.00" fill="#666666">[uuid]</text>
<polygon fill="none" stroke="black" points="346.2,-515.2 346.2,-546 522.55,-546 522.55,-515.2 346.2,-515.2"/>
<text text-anchor="start" x="353.2" y="-527.4" font-family="Arial" font-size="14.00">contact </text>
<text text-anchor="start" x="402.23" y="-527.4" font-family="Arial" font-size="14.00" fill="#666666">[Contact]</text>
<polygon fill="none" stroke="black" points="346.2,-484.4 346.2,-515.2 522.55,-515.2 522.55,-484.4 346.2,-484.4"/>
<text text-anchor="start" x="353.2" y="-496.6" font-family="Arial" font-size="14.00">createdAt </text>
<text text-anchor="start" x="417.02" y="-496.6" font-family="Arial" font-size="14.00" fill="#666666">[datetime]</text>
<polygon fill="none" stroke="black" points="346.2,-453.6 346.2,-484.4 522.55,-484.4 522.55,-453.6 346.2,-453.6"/>
<text text-anchor="start" x="353.2" y="-465.8" font-family="Arial" font-size="14.00">updatedAt </text>
<text text-anchor="start" x="420.93" y="-465.8" font-family="Arial" font-size="14.00" fill="#666666">[datetime]</text>
</g>
<!-- Deal&#45;&gt;Company -->
<g id="edge2" class="edge">
<title>Deal:companyId&#45;&gt;Company:id</title>
<path fill="none" stroke="black" d="M531.97,-617.29C564.44,-572.33 577.1,-277.2 541.56,-277.2"/>
<polygon fill="black" stroke="black" points="532.1,-617.2 521.3,-619.09 527.69,-620.19 524.1,-622.62 524.1,-622.62 524.1,-622.62 527.69,-620.19 526.35,-626.54 532.1,-617.2"/>
<text text-anchor="start" x="496.62" y="-607" font-family="Arial" font-size="10.00">ForeignKeyType: Company</text>
</g>
<!-- EngagementCompany -->
<g id="node4" class="node">
<title>EngagementCompany</title>
<polygon fill="#efefef" stroke="none" points="627.21,-792.4 627.21,-828 929.54,-828 929.54,-792.4 627.21,-792.4"/>
<polygon fill="none" stroke="black" points="627.21,-792.4 627.21,-828 929.54,-828 929.54,-792.4 627.21,-792.4"/>
<text text-anchor="start" x="634.21" y="-805.8" font-family="Arial Bold" font-size="18.00">EngagementCompany</text>
<text text-anchor="start" x="794.17" y="-805.8" font-family="Arial" font-size="14.00">    </text>
<text text-anchor="start" x="825.29" y="-805.8" font-family="Arial" font-size="14.00" fill="#666666">[TailorDB.Type]</text>
<polygon fill="none" stroke="black" points="627.21,-761.6 627.21,-792.4 929.54,-792.4 929.54,-761.6 627.21,-761.6"/>
<text text-anchor="start" x="634.21" y="-773.8" font-family="Arial" font-size="14.00">id </text>
<text text-anchor="start" x="649" y="-773.8" font-family="Arial" font-size="14.00" fill="#666666">[uuid]</text>
<polygon fill="none" stroke="black" points="627.21,-730.8 627.21,-761.6 929.54,-761.6 929.54,-730.8 627.21,-730.8"/>
<text text-anchor="start" x="634.21" y="-743" font-family="Arial" font-size="14.00">companyId </text>
<text text-anchor="start" x="706.58" y="-743" font-family="Arial" font-size="14.00" fill="#666666">[uuid]</text>
<polygon fill="none" stroke="black" points="627.21,-700 627.21,-730.8 929.54,-730.8 929.54,-700 627.21,-700"/>
<text text-anchor="start" x="634.21" y="-712.2" font-family="Arial" font-size="14.00">company </text>
<text text-anchor="start" x="694.91" y="-712.2" font-family="Arial" font-size="14.00" fill="#666666">[Company]</text>
<polygon fill="none" stroke="black" points="627.21,-669.2 627.21,-700 929.54,-700 929.54,-669.2 627.21,-669.2"/>
<text text-anchor="start" x="634.21" y="-681.4" font-family="Arial" font-size="14.00">engagementId </text>
<text text-anchor="start" x="727.62" y="-681.4" font-family="Arial" font-size="14.00" fill="#666666">[uuid]</text>
<polygon fill="none" stroke="black" points="627.21,-638.4 627.21,-669.2 929.54,-669.2 929.54,-638.4 627.21,-638.4"/>
<text text-anchor="start" x="634.21" y="-650.6" font-family="Arial" font-size="14.00">engagement </text>
<text text-anchor="start" x="715.94" y="-650.6" font-family="Arial" font-size="14.00" fill="#666666">[Engagement]</text>
<polygon fill="none" stroke="black" points="627.21,-607.6 627.21,-638.4 929.54,-638.4 929.54,-607.6 627.21,-607.6"/>
<text text-anchor="start" x="634.21" y="-619.8" font-family="Arial" font-size="14.00">createdAt </text>
<text text-anchor="start" x="698.03" y="-619.8" font-family="Arial" font-size="14.00" fill="#666666">[datetime]</text>
<polygon fill="none" stroke="black" points="627.21,-576.8 627.21,-607.6 929.54,-607.6 929.54,-576.8 627.21,-576.8"/>
<text text-anchor="start" x="634.21" y="-589" font-family="Arial" font-size="14.00">updatedAt </text>
<text text-anchor="start" x="701.94" y="-589" font-family="Arial" font-size="14.00" fill="#666666">[datetime]</text>
</g>
<!-- EngagementCompany&#45;&gt;Company -->
<g id="edge3" class="edge">
<title>EngagementCompany:companyId&#45;&gt;Company:id</title>
<path fill="none" stroke="black" d="M616.15,-744.59C528.73,-714.69 643.84,-277.2 541.56,-277.2"/>
<polygon fill="black" stroke="black" points="616.01,-744.57 625.17,-750.59 621.28,-745.41 625.55,-746.09 625.55,-746.09 625.55,-746.09 621.28,-745.41 626.59,-741.7 616.01,-744.57"/>
<text text-anchor="start" x="497.49" y="-756.2" font-family="Arial" font-size="10.00">ForeignKeyType: Company</text>
</g>
</g>
</svg>
