<?xml version="1.0" encoding="UTF-8" standalone="no"?>
<!DOCTYPE svg PUBLIC "-//W3C//DTD SVG 1.1//EN"
 "http://www.w3.org/Graphics/SVG/1.1/DTD/svg11.dtd">
<!-- Generated by graphviz version 12.1.2 (20240928.0832)
 -->
<!-- Title: Contact Pages: 1 -->
<svg width="1055pt" height="1499pt"
 viewBox="0.00 0.00 1055.24 1499.20" xmlns="http://www.w3.org/2000/svg" xmlns:xlink="http://www.w3.org/1999/xlink">
<g id="graph0" class="graph" transform="scale(1 1) rotate(0) translate(4 1495.2)">
<title>Contact</title>
<polygon fill="white" stroke="none" points="-4,4 -4,-1495.2 1051.24,-1495.2 1051.24,4 -4,4"/>
<!-- Contact -->
<g id="node1" class="node">
<title>Contact</title>
<polygon fill="#efefef" stroke="none" points="369.2,-789.4 369.2,-825 567.55,-825 567.55,-789.4 369.2,-789.4"/>
<polygon fill="none" stroke="black" points="369.2,-789.4 369.2,-825 567.55,-825 567.55,-789.4 369.2,-789.4"/>
<text text-anchor="start" x="376.2" y="-802.8" font-family="Arial Bold" font-size="18.00">Contact</text>
<text text-anchor="start" x="432.18" y="-802.8" font-family="Arial" font-size="14.00">    </text>
<text text-anchor="start" x="463.3" y="-802.8" font-family="Arial" font-size="14.00" fill="#666666">[TailorDB.Type]</text>
<polygon fill="none" stroke="black" points="369.2,-758.6 369.2,-789.4 567.55,-789.4 567.55,-758.6 369.2,-758.6"/>
<text text-anchor="start" x="376.2" y="-770.8" font-family="Arial" font-size="14.00">id </text>
<text text-anchor="start" x="390.98" y="-770.8" font-family="Arial" font-size="14.00" fill="#666666">[uuid]</text>
<polygon fill="none" stroke="black" points="369.2,-727.8 369.2,-758.6 567.55,-758.6 567.55,-727.8 369.2,-727.8"/>
<text text-anchor="start" x="376.2" y="-740" font-family="Arial" font-size="14.00">isDeleted </text>
<text text-anchor="start" x="438.45" y="-740" font-family="Arial" font-size="14.00" fill="#666666">[boolean]</text>
<polygon fill="none" stroke="black" points="369.2,-697 369.2,-727.8 567.55,-727.8 567.55,-697 369.2,-697"/>
<text text-anchor="start" x="376.2" y="-709.2" font-family="Arial" font-size="14.00">firstName </text>
<text text-anchor="start" x="439.98" y="-709.2" font-family="Arial" font-size="14.00" fill="#666666">[string]</text>
<polygon fill="none" stroke="black" points="369.2,-666.2 369.2,-697 567.55,-697 567.55,-666.2 369.2,-666.2"/>
<text text-anchor="start" x="376.2" y="-678.4" font-family="Arial" font-size="14.00">lastName </text>
<text text-anchor="start" x="439.22" y="-678.4" font-family="Arial" font-size="14.00" fill="#666666">[string]</text>
<polygon fill="none" stroke="black" points="369.2,-635.4 369.2,-666.2 567.55,-666.2 567.55,-635.4 369.2,-635.4"/>
<text text-anchor="start" x="376.2" y="-647.6" font-family="Arial" font-size="14.00">email </text>
<text text-anchor="start" x="413.54" y="-647.6" font-family="Arial" font-size="14.00" fill="#666666">[string]</text>
<polygon fill="none" stroke="black" points="369.2,-604.6 369.2,-635.4 567.55,-635.4 567.55,-604.6 369.2,-604.6"/>
<text text-anchor="start" x="376.2" y="-616.8" font-family="Arial" font-size="14.00">phonePrimary </text>
<text text-anchor="start" x="467.24" y="-616.8" font-family="Arial" font-size="14.00" fill="#666666">[string]</text>
<polygon fill="none" stroke="black" points="369.2,-573.8 369.2,-604.6 567.55,-604.6 567.55,-573.8 369.2,-573.8"/>
<text text-anchor="start" x="376.2" y="-586" font-family="Arial" font-size="14.00">linkedInUrl </text>
<text text-anchor="start" x="446.22" y="-586" font-family="Arial" font-size="14.00" fill="#666666">[string]</text>
<polygon fill="none" stroke="black" points="369.2,-543 369.2,-573.8 567.55,-573.8 567.55,-543 369.2,-543"/>
<text text-anchor="start" x="376.2" y="-555.2" font-family="Arial" font-size="14.00">companyId </text>
<text text-anchor="start" x="448.57" y="-555.2" font-family="Arial" font-size="14.00" fill="#666666">[uuid]</text>
<polygon fill="none" stroke="black" points="369.2,-512.2 369.2,-543 567.55,-543 567.55,-512.2 369.2,-512.2"/>
<text text-anchor="start" x="376.2" y="-524.4" font-family="Arial" font-size="14.00">company </text>
<text text-anchor="start" x="436.89" y="-524.4" font-family="Arial" font-size="14.00" fill="#666666">[Company]</text>
<polygon fill="none" stroke="black" points="369.2,-481.4 369.2,-512.2 567.55,-512.2 567.55,-481.4 369.2,-481.4"/>
<text text-anchor="start" x="376.2" y="-493.6" font-family="Arial" font-size="14.00">createdAt </text>
<text text-anchor="start" x="440.01" y="-493.6" font-family="Arial" font-size="14.00" fill="#666666">[datetime]</text>
<polygon fill="none" stroke="black" points="369.2,-450.6 369.2,-481.4 567.55,-481.4 567.55,-450.6 369.2,-450.6"/>
<text text-anchor="start" x="376.2" y="-462.8" font-family="Arial" font-size="14.00">updatedAt </text>
<text text-anchor="start" x="443.92" y="-462.8" font-family="Arial" font-size="14.00" fill="#666666">[datetime]</text>
<polygon fill="none" stroke="black" stroke-width="3" points="367.7,-449.1 367.7,-826.5 569.05,-826.5 569.05,-449.1 367.7,-449.1"/>
</g>
<!-- Company -->
<g id="node5" class="node">
<title>Company</title>
<polygon fill="#efefef" stroke="none" points="362.19,-289.6 362.19,-325.2 574.55,-325.2 574.55,-289.6 362.19,-289.6"/>
<polygon fill="none" stroke="black" points="362.19,-289.6 362.19,-325.2 574.55,-325.2 574.55,-289.6 362.19,-289.6"/>
<text text-anchor="start" x="369.19" y="-303" font-family="Arial Bold" font-size="18.00">Company</text>
<text text-anchor="start" x="439.19" y="-303" font-family="Arial" font-size="14.00">    </text>
<text text-anchor="start" x="470.3" y="-303" font-family="Arial" font-size="14.00" fill="#666666">[TailorDB.Type]</text>
<polygon fill="none" stroke="black" points="362.19,-258.8 362.19,-289.6 574.55,-289.6 574.55,-258.8 362.19,-258.8"/>
<text text-anchor="start" x="369.19" y="-271" font-family="Arial" font-size="14.00">id </text>
<text text-anchor="start" x="383.98" y="-271" font-family="Arial" font-size="14.00" fill="#666666">[uuid]</text>
<polygon fill="none" stroke="black" points="362.19,-228 362.19,-258.8 574.55,-258.8 574.55,-228 362.19,-228"/>
<text text-anchor="start" x="369.19" y="-240.2" font-family="Arial" font-size="14.00">name </text>
<text text-anchor="start" x="408.1" y="-240.2" font-family="Arial" font-size="14.00" fill="#666666">[string]</text>
<polygon fill="none" stroke="black" points="362.19,-197.2 362.19,-228 574.55,-228 574.55,-197.2 362.19,-197.2"/>
<text text-anchor="start" x="369.19" y="-209.4" font-family="Arial" font-size="14.00">isDeleted </text>
<text text-anchor="start" x="431.45" y="-209.4" font-family="Arial" font-size="14.00" fill="#666666">[boolean]</text>
<polygon fill="none" stroke="black" points="362.19,-166.4 362.19,-197.2 574.55,-197.2 574.55,-166.4 362.19,-166.4"/>
<text text-anchor="start" x="369.19" y="-178.6" font-family="Arial" font-size="14.00">url </text>
<text text-anchor="start" x="388.64" y="-178.6" font-family="Arial" font-size="14.00" fill="#666666">[string]</text>
<polygon fill="none" stroke="black" points="362.19,-135.6 362.19,-166.4 574.55,-166.4 574.55,-135.6 362.19,-135.6"/>
<text text-anchor="start" x="369.19" y="-147.8" font-family="Arial" font-size="14.00">linkedInUrl </text>
<text text-anchor="start" x="439.22" y="-147.8" font-family="Arial" font-size="14.00" fill="#666666">[string]</text>
<polygon fill="none" stroke="black" points="362.19,-104.8 362.19,-135.6 574.55,-135.6 574.55,-104.8 362.19,-104.8"/>
<text text-anchor="start" x="369.19" y="-117" font-family="Arial" font-size="14.00">logoUrl </text>
<text text-anchor="start" x="417.43" y="-117" font-family="Arial" font-size="14.00" fill="#666666">[string]</text>
<polygon fill="none" stroke="black" points="362.19,-74 362.19,-104.8 574.55,-104.8 574.55,-74 362.19,-74"/>
<text text-anchor="start" x="369.19" y="-86.2" font-family="Arial" font-size="14.00">createdAt </text>
<text text-anchor="start" x="433" y="-86.2" font-family="Arial" font-size="14.00" fill="#666666">[datetime]</text>
<polygon fill="none" stroke="black" points="362.19,-43.2 362.19,-74 574.55,-74 574.55,-43.2 362.19,-43.2"/>
<text text-anchor="start" x="369.19" y="-55.4" font-family="Arial" font-size="14.00">updatedAt </text>
<text text-anchor="start" x="436.91" y="-55.4" font-family="Arial" font-size="14.00" fill="#666666">[datetime]</text>
</g>
<!-- Contact&#45;&gt;Company -->
<g id="edge4" class="edge">
<title>Contact:companyId&#45;&gt;Company:id</title>
<path fill="none" stroke="black" d="M578.64,-557.77C695.18,-543.07 698.45,-274.2 575.55,-274.2"/>
<polygon fill="black" stroke="black" points="578.86,-557.76 568.6,-553.89 573.54,-558.09 569.22,-558.36 569.22,-558.36 569.22,-558.36 573.54,-558.09 569.16,-562.87 578.86,-557.76"/>
<text text-anchor="start" x="575.55" y="-568.4" font-family="Arial" font-size="10.00">ForeignKeyType: Company</text>
</g>
<!-- Deal -->
<g id="node2" class="node">
<title>Deal</title>
<polygon fill="#efefef" stroke="none" points="43.2,-1412.4 43.2,-1448 219.54,-1448 219.54,-1412.4 43.2,-1412.4"/>
<polygon fill="none" stroke="black" points="43.2,-1412.4 43.2,-1448 219.54,-1448 219.54,-1412.4 43.2,-1412.4"/>
<text text-anchor="start" x="50.2" y="-1425.8" font-family="Arial Bold" font-size="18.00">Deal</text>
<text text-anchor="start" x="84.18" y="-1425.8" font-family="Arial" font-size="14.00">    </text>
<text text-anchor="start" x="115.3" y="-1425.8" font-family="Arial" font-size="14.00" fill="#666666">[TailorDB.Type]</text>
<polygon fill="none" stroke="black" points="43.2,-1381.6 43.2,-1412.4 219.54,-1412.4 219.54,-1381.6 43.2,-1381.6"/>
<text text-anchor="start" x="50.2" y="-1393.8" font-family="Arial" font-size="14.00">id </text>
<text text-anchor="start" x="64.99" y="-1393.8" font-family="Arial" font-size="14.00" fill="#666666">[uuid]</text>
<polygon fill="none" stroke="black" points="43.2,-1350.8 43.2,-1381.6 219.54,-1381.6 219.54,-1350.8 43.2,-1350.8"/>
<text text-anchor="start" x="50.2" y="-1363" font-family="Arial" font-size="14.00">amount </text>
<text text-anchor="start" x="100.79" y="-1363" font-family="Arial" font-size="14.00" fill="#666666">[float]</text>
<polygon fill="none" stroke="black" points="43.2,-1320 43.2,-1350.8 219.54,-1350.8 219.54,-1320 43.2,-1320"/>
<text text-anchor="start" x="50.2" y="-1332.2" font-family="Arial" font-size="14.00">probability </text>
<text text-anchor="start" x="117.9" y="-1332.2" font-family="Arial" font-size="14.00" fill="#666666">[float]</text>
<polygon fill="none" stroke="black" points="43.2,-1289.2 43.2,-1320 219.54,-1320 219.54,-1289.2 43.2,-1289.2"/>
<text text-anchor="start" x="50.2" y="-1301.4" font-family="Arial" font-size="14.00">value </text>
<text text-anchor="start" x="87.56" y="-1301.4" font-family="Arial" font-size="14.00" fill="#666666">[float]</text>
<polygon fill="none" stroke="black" points="43.2,-1258.4 43.2,-1289.2 219.54,-1289.2 219.54,-1258.4 43.2,-1258.4"/>
<text text-anchor="start" x="50.2" y="-1270.6" font-family="Arial" font-size="14.00">isDeleted </text>
<text text-anchor="start" x="112.45" y="-1270.6" font-family="Arial" font-size="14.00" fill="#666666">[boolean]</text>
<polygon fill="none" stroke="black" points="43.2,-1227.6 43.2,-1258.4 219.54,-1258.4 219.54,-1227.6 43.2,-1227.6"/>
<text text-anchor="start" x="50.2" y="-1239.8" font-family="Arial" font-size="14.00">dealStageId </text>
<text text-anchor="start" x="128.82" y="-1239.8" font-family="Arial" font-size="14.00" fill="#666666">[uuid]</text>
<polygon fill="none" stroke="black" points="43.2,-1196.8 43.2,-1227.6 219.54,-1227.6 219.54,-1196.8 43.2,-1196.8"/>
<text text-anchor="start" x="50.2" y="-1209" font-family="Arial" font-size="14.00">dealStage </text>
<text text-anchor="start" x="117.14" y="-1209" font-family="Arial" font-size="14.00" fill="#666666">[DealStage]</text>
<polygon fill="none" stroke="black" points="43.2,-1166 43.2,-1196.8 219.54,-1196.8 219.54,-1166 43.2,-1166"/>
<text text-anchor="start" x="50.2" y="-1178.2" font-family="Arial" font-size="14.00">userId </text>
<text text-anchor="start" x="93" y="-1178.2" font-family="Arial" font-size="14.00" fill="#666666">[uuid]</text>
<polygon fill="none" stroke="black" points="43.2,-1135.2 43.2,-1166 219.54,-1166 219.54,-1135.2 43.2,-1135.2"/>
<text text-anchor="start" x="50.2" y="-1147.4" font-family="Arial" font-size="14.00">user </text>
<text text-anchor="start" x="81.32" y="-1147.4" font-family="Arial" font-size="14.00" fill="#666666">[User]</text>
<polygon fill="none" stroke="black" points="43.2,-1104.4 43.2,-1135.2 219.54,-1135.2 219.54,-1104.4 43.2,-1104.4"/>
<text text-anchor="start" x="50.2" y="-1116.6" font-family="Arial" font-size="14.00">companyId </text>
<text text-anchor="start" x="122.57" y="-1116.6" font-family="Arial" font-size="14.00" fill="#666666">[uuid]</text>
<polygon fill="none" stroke="black" points="43.2,-1073.6 43.2,-1104.4 219.54,-1104.4 219.54,-1073.6 43.2,-1073.6"/>
<text text-anchor="start" x="50.2" y="-1085.8" font-family="Arial" font-size="14.00">company </text>
<text text-anchor="start" x="110.9" y="-1085.8" font-family="Arial" font-size="14.00" fill="#666666">[Company]</text>
<polygon fill="none" stroke="black" points="43.2,-1042.8 43.2,-1073.6 219.54,-1073.6 219.54,-1042.8 43.2,-1042.8"/>
<text text-anchor="start" x="50.2" y="-1055" font-family="Arial" font-size="14.00">contactId </text>
<text text-anchor="start" x="110.9" y="-1055" font-family="Arial" font-size="14.00" fill="#666666">[uuid]</text>
<polygon fill="none" stroke="black" points="43.2,-1012 43.2,-1042.8 219.54,-1042.8 219.54,-1012 43.2,-1012"/>
<text text-anchor="start" x="50.2" y="-1024.2" font-family="Arial" font-size="14.00">contact </text>
<text text-anchor="start" x="99.23" y="-1024.2" font-family="Arial" font-size="14.00" fill="#666666">[Contact]</text>
<polygon fill="none" stroke="black" points="43.2,-981.2 43.2,-1012 219.54,-1012 219.54,-981.2 43.2,-981.2"/>
<text text-anchor="start" x="50.2" y="-993.4" font-family="Arial" font-size="14.00">createdAt </text>
<text text-anchor="start" x="114.01" y="-993.4" font-family="Arial" font-size="14.00" fill="#666666">[datetime]</text>
<polygon fill="none" stroke="black" points="43.2,-950.4 43.2,-981.2 219.54,-981.2 219.54,-950.4 43.2,-950.4"/>
<text text-anchor="start" x="50.2" y="-962.6" font-family="Arial" font-size="14.00">updatedAt </text>
<text text-anchor="start" x="117.92" y="-962.6" font-family="Arial" font-size="14.00" fill="#666666">[datetime]</text>
</g>
<!-- Deal&#45;&gt;Contact -->
<g id="edge1" class="edge">
<title>Deal:contactId&#45;&gt;Contact:id</title>
<path fill="none" stroke="black" d="M230.78,-1057.48C286.28,-1048.99 241.51,-966.91 272.37,-907.2 305.86,-842.42 295.27,-774 368.2,-774"/>
<polygon fill="black" stroke="black" points="230.85,-1057.48 220.56,-1053.69 225.53,-1057.85 221.21,-1058.15 221.21,-1058.15 221.21,-1058.15 225.53,-1057.85 221.19,-1062.67 230.85,-1057.48"/>
<text text-anchor="start" x="227.54" y="-1068.2" font-family="Arial" font-size="10.00">ForeignKeyType: Contact</text>
</g>
<!-- EngagementContact -->
<g id="node3" class="node">
<title>EngagementContact</title>
<polygon fill="#efefef" stroke="none" points="324.21,-1289.2 324.21,-1324.8 612.53,-1324.8 612.53,-1289.2 324.21,-1289.2"/>
<polygon fill="none" stroke="black" points="324.21,-1289.2 324.21,-1324.8 612.53,-1324.8 612.53,-1289.2 324.21,-1289.2"/>
<text text-anchor="start" x="331.21" y="-1302.6" font-family="Arial Bold" font-size="18.00">EngagementContact</text>
<text text-anchor="start" x="477.16" y="-1302.6" font-family="Arial" font-size="14.00">    </text>
<text text-anchor="start" x="508.28" y="-1302.6" font-family="Arial" font-size="14.00" fill="#666666">[TailorDB.Type]</text>
<polygon fill="none" stroke="black" points="324.21,-1258.4 324.21,-1289.2 612.53,-1289.2 612.53,-1258.4 324.21,-1258.4"/>
<text text-anchor="start" x="331.21" y="-1270.6" font-family="Arial" font-size="14.00">id </text>
<text text-anchor="start" x="346" y="-1270.6" font-family="Arial" font-size="14.00" fill="#666666">[uuid]</text>
<polygon fill="none" stroke="black" points="324.21,-1227.6 324.21,-1258.4 612.53,-1258.4 612.53,-1227.6 324.21,-1227.6"/>
<text text-anchor="start" x="331.21" y="-1239.8" font-family="Arial" font-size="14.00">contactId </text>
<text text-anchor="start" x="391.92" y="-1239.8" font-family="Arial" font-size="14.00" fill="#666666">[uuid]</text>
<polygon fill="none" stroke="black" points="324.21,-1196.8 324.21,-1227.6 612.53,-1227.6 612.53,-1196.8 324.21,-1196.8"/>
<text text-anchor="start" x="331.21" y="-1209" font-family="Arial" font-size="14.00">contact </text>
<text text-anchor="start" x="380.24" y="-1209" font-family="Arial" font-size="14.00" fill="#666666">[Contact]</text>
<polygon fill="none" stroke="black" points="324.21,-1166 324.21,-1196.8 612.53,-1196.8 612.53,-1166 324.21,-1166"/>
<text text-anchor="start" x="331.21" y="-1178.2" font-family="Arial" font-size="14.00">engagementId </text>
<text text-anchor="start" x="424.62" y="-1178.2" font-family="Arial" font-size="14.00" fill="#666666">[uuid]</text>
<polygon fill="none" stroke="black" points="324.21,-1135.2 324.21,-1166 612.53,-1166 612.53,-1135.2 324.21,-1135.2"/>
<text text-anchor="start" x="331.21" y="-1147.4" font-family="Arial" font-size="14.00">engagement </text>
<text text-anchor="start" x="412.94" y="-1147.4" font-family="Arial" font-size="14.00" fill="#666666">[Engagement]</text>
<polygon fill="none" stroke="black" points="324.21,-1104.4 324.21,-1135.2 612.53,-1135.2 612.53,-1104.4 324.21,-1104.4"/>
<text text-anchor="start" x="331.21" y="-1116.6" font-family="Arial" font-size="14.00">createdAt </text>
<text text-anchor="start" x="395.03" y="-1116.6" font-family="Arial" font-size="14.00" fill="#666666">[datetime]</text>
<polygon fill="none" stroke="black" points="324.21,-1073.6 324.21,-1104.4 612.53,-1104.4 612.53,-1073.6 324.21,-1073.6"/>
<text text-anchor="start" x="331.21" y="-1085.8" font-family="Arial" font-size="14.00">updatedAt </text>
<text text-anchor="start" x="398.94" y="-1085.8" font-family="Arial" font-size="14.00" fill="#666666">[datetime]</text>
</g>
<!-- EngagementContact&#45;&gt;Contact -->
<g id="edge2" class="edge">
<title>EngagementContact:contactId&#45;&gt;Contact:id</title>
<path fill="none" stroke="black" d="M622.23,-1237.73C660.23,-1186.21 617.63,-774 568.55,-774"/>
<polygon fill="black" stroke="black" points="622.37,-1237.65 611.49,-1238.98 617.81,-1240.41 614.1,-1242.65 614.1,-1242.65 614.1,-1242.65 617.81,-1240.41 616.15,-1246.68 622.37,-1237.65"/>
<text text-anchor="start" x="588.68" y="-1227" font-family="Arial" font-size="10.00">ForeignKeyType: Contact</text>
</g>
<!-- ContactListMember -->
<g id="node4" class="node">
<title>ContactListMember</title>
<polygon fill="#efefef" stroke="none" points="716.71,-1304.6 716.71,-1340.2 1004.04,-1340.2 1004.04,-1304.6 716.71,-1304.6"/>
<polygon fill="none" stroke="black" points="716.71,-1304.6 716.71,-1340.2 1004.04,-1340.2 1004.04,-1304.6 716.71,-1304.6"/>
<text text-anchor="start" x="723.71" y="-1318" font-family="Arial Bold" font-size="18.00">ContactListMember</text>
<text text-anchor="start" x="868.67" y="-1318" font-family="Arial" font-size="14.00">    </text>
<text text-anchor="start" x="899.79" y="-1318" font-family="Arial" font-size="14.00" fill="#666666">[TailorDB.Type]</text>
<polygon fill="none" stroke="black" points="716.71,-1273.8 716.71,-1304.6 1004.04,-1304.6 1004.04,-1273.8 716.71,-1273.8"/>
<text text-anchor="start" x="723.71" y="-1286" font-family="Arial" font-size="14.00">id </text>
<text text-anchor="start" x="738.49" y="-1286" font-family="Arial" font-size="14.00" fill="#666666">[uuid]</text>
<polygon fill="none" stroke="black" points="716.71,-1243 716.71,-1273.8 1004.04,-1273.8 1004.04,-1243 716.71,-1243"/>
<text text-anchor="start" x="723.71" y="-1255.2" font-family="Arial" font-size="14.00">contactId </text>
<text text-anchor="start" x="784.41" y="-1255.2" font-family="Arial" font-size="14.00" fill="#666666">[uuid]</text>
<polygon fill="none" stroke="black" points="716.71,-1212.2 716.71,-1243 1004.04,-1243 1004.04,-1212.2 716.71,-1212.2"/>
<text text-anchor="start" x="723.71" y="-1224.4" font-family="Arial" font-size="14.00">contact </text>
<text text-anchor="start" x="772.73" y="-1224.4" font-family="Arial" font-size="14.00" fill="#666666">[Contact]</text>
<polygon fill="none" stroke="black" points="716.71,-1181.4 716.71,-1212.2 1004.04,-1212.2 1004.04,-1181.4 716.71,-1181.4"/>
<text text-anchor="start" x="723.71" y="-1193.6" font-family="Arial" font-size="14.00">contactListId </text>
<text text-anchor="start" x="806.2" y="-1193.6" font-family="Arial" font-size="14.00" fill="#666666">[uuid]</text>
<polygon fill="none" stroke="black" points="716.71,-1150.6 716.71,-1181.4 1004.04,-1181.4 1004.04,-1150.6 716.71,-1150.6"/>
<text text-anchor="start" x="723.71" y="-1162.8" font-family="Arial" font-size="14.00">contactList </text>
<text text-anchor="start" x="794.52" y="-1162.8" font-family="Arial" font-size="14.00" fill="#666666">[ContactList]</text>
<polygon fill="none" stroke="black" points="716.71,-1119.8 716.71,-1150.6 1004.04,-1150.6 1004.04,-1119.8 716.71,-1119.8"/>
<text text-anchor="start" x="723.71" y="-1132" font-family="Arial" font-size="14.00">addedAt </text>
<text text-anchor="start" x="779.75" y="-1132" font-family="Arial" font-size="14.00" fill="#666666">[string]</text>
<polygon fill="none" stroke="black" points="716.71,-1089 716.71,-1119.8 1004.04,-1119.8 1004.04,-1089 716.71,-1089"/>
<text text-anchor="start" x="723.71" y="-1101.2" font-family="Arial" font-size="14.00">createdAt </text>
<text text-anchor="start" x="787.52" y="-1101.2" font-family="Arial" font-size="14.00" fill="#666666">[datetime]</text>
<polygon fill="none" stroke="black" points="716.71,-1058.2 716.71,-1089 1004.04,-1089 1004.04,-1058.2 716.71,-1058.2"/>
<text text-anchor="start" x="723.71" y="-1070.4" font-family="Arial" font-size="14.00">updatedAt </text>
<text text-anchor="start" x="791.43" y="-1070.4" font-family="Arial" font-size="14.00" fill="#666666">[datetime]</text>
</g>
<!-- ContactListMember&#45;&gt;Contact -->
<g id="edge3" class="edge">
<title>ContactListMember:contactId&#45;&gt;Contact:id</title>
<path fill="none" stroke="black" d="M705.49,-1256.62C642,-1232.78 692.56,-976.89 664.37,-907.2 637.02,-839.59 641.48,-774 568.55,-774"/>
<polygon fill="black" stroke="black" points="705.53,-1256.62 714.6,-1262.78 710.78,-1257.54 715.05,-1258.28 715.05,-1258.28 715.05,-1258.28 710.78,-1257.54 716.15,-1253.91 705.53,-1256.62"/>
<text text-anchor="start" x="637" y="-1268.4" font-family="Arial" font-size="10.00">Source: Contact</text>
</g>
</g>
</svg>
