<?xml version="1.0" encoding="UTF-8" standalone="no"?>
<!DOCTYPE svg PUBLIC "-//W3C//DTD SVG 1.1//EN"
 "http://www.w3.org/Graphics/SVG/1.1/DTD/svg11.dtd">
<!-- Generated by graphviz version 12.1.2 (20240928.0832)
 -->
<!-- Title: EngagementCompany Pages: 1 -->
<svg width="644pt" height="756pt"
 viewBox="0.00 0.00 643.75 756.00" xmlns="http://www.w3.org/2000/svg" xmlns:xlink="http://www.w3.org/1999/xlink">
<g id="graph0" class="graph" transform="scale(1 1) rotate(0) translate(4 752)">
<title>EngagementCompany</title>
<polygon fill="white" stroke="none" points="-4,4 -4,-752 639.75,-752 639.75,4 -4,4"/>
<!-- EngagementCompany -->
<g id="node1" class="node">
<title>EngagementCompany</title>
<polygon fill="#efefef" stroke="none" points="161.22,-666.2 161.22,-701.8 463.54,-701.8 463.54,-666.2 161.22,-666.2"/>
<polygon fill="none" stroke="black" points="161.22,-666.2 161.22,-701.8 463.54,-701.8 463.54,-666.2 161.22,-666.2"/>
<text text-anchor="start" x="168.22" y="-679.6" font-family="Arial Bold" font-size="18.00">EngagementCompany</text>
<text text-anchor="start" x="328.18" y="-679.6" font-family="Arial" font-size="14.00">    </text>
<text text-anchor="start" x="359.3" y="-679.6" font-family="Arial" font-size="14.00" fill="#666666">[TailorDB.Type]</text>
<polygon fill="none" stroke="black" points="161.22,-635.4 161.22,-666.2 463.54,-666.2 463.54,-635.4 161.22,-635.4"/>
<text text-anchor="start" x="168.22" y="-647.6" font-family="Arial" font-size="14.00">id </text>
<text text-anchor="start" x="183" y="-647.6" font-family="Arial" font-size="14.00" fill="#666666">[uuid]</text>
<polygon fill="none" stroke="black" points="161.22,-604.6 161.22,-635.4 463.54,-635.4 463.54,-604.6 161.22,-604.6"/>
<text text-anchor="start" x="168.22" y="-616.8" font-family="Arial" font-size="14.00">companyId </text>
<text text-anchor="start" x="240.59" y="-616.8" font-family="Arial" font-size="14.00" fill="#666666">[uuid]</text>
<polygon fill="none" stroke="black" points="161.22,-573.8 161.22,-604.6 463.54,-604.6 463.54,-573.8 161.22,-573.8"/>
<text text-anchor="start" x="168.22" y="-586" font-family="Arial" font-size="14.00">company </text>
<text text-anchor="start" x="228.91" y="-586" font-family="Arial" font-size="14.00" fill="#666666">[Company]</text>
<polygon fill="none" stroke="black" points="161.22,-543 161.22,-573.8 463.54,-573.8 463.54,-543 161.22,-543"/>
<text text-anchor="start" x="168.22" y="-555.2" font-family="Arial" font-size="14.00">engagementId </text>
<text text-anchor="start" x="261.62" y="-555.2" font-family="Arial" font-size="14.00" fill="#666666">[uuid]</text>
<polygon fill="none" stroke="black" points="161.22,-512.2 161.22,-543 463.54,-543 463.54,-512.2 161.22,-512.2"/>
<text text-anchor="start" x="168.22" y="-524.4" font-family="Arial" font-size="14.00">engagement </text>
<text text-anchor="start" x="249.95" y="-524.4" font-family="Arial" font-size="14.00" fill="#666666">[Engagement]</text>
<polygon fill="none" stroke="black" points="161.22,-481.4 161.22,-512.2 463.54,-512.2 463.54,-481.4 161.22,-481.4"/>
<text text-anchor="start" x="168.22" y="-493.6" font-family="Arial" font-size="14.00">createdAt </text>
<text text-anchor="start" x="232.03" y="-493.6" font-family="Arial" font-size="14.00" fill="#666666">[datetime]</text>
<polygon fill="none" stroke="black" points="161.22,-450.6 161.22,-481.4 463.54,-481.4 463.54,-450.6 161.22,-450.6"/>
<text text-anchor="start" x="168.22" y="-462.8" font-family="Arial" font-size="14.00">updatedAt </text>
<text text-anchor="start" x="235.94" y="-462.8" font-family="Arial" font-size="14.00" fill="#666666">[datetime]</text>
<polygon fill="none" stroke="black" stroke-width="3" points="159.72,-449.1 159.72,-703.3 465.04,-703.3 465.04,-449.1 159.72,-449.1"/>
</g>
<!-- Company -->
<g id="node2" class="node">
<title>Company</title>
<polygon fill="#efefef" stroke="none" points="43.2,-289.6 43.2,-325.2 255.56,-325.2 255.56,-289.6 43.2,-289.6"/>
<polygon fill="none" stroke="black" points="43.2,-289.6 43.2,-325.2 255.56,-325.2 255.56,-289.6 43.2,-289.6"/>
<text text-anchor="start" x="50.2" y="-303" font-family="Arial Bold" font-size="18.00">Company</text>
<text text-anchor="start" x="120.2" y="-303" font-family="Arial" font-size="14.00">    </text>
<text text-anchor="start" x="151.31" y="-303" font-family="Arial" font-size="14.00" fill="#666666">[TailorDB.Type]</text>
<polygon fill="none" stroke="black" points="43.2,-258.8 43.2,-289.6 255.56,-289.6 255.56,-258.8 43.2,-258.8"/>
<text text-anchor="start" x="50.2" y="-271" font-family="Arial" font-size="14.00">id </text>
<text text-anchor="start" x="64.99" y="-271" font-family="Arial" font-size="14.00" fill="#666666">[uuid]</text>
<polygon fill="none" stroke="black" points="43.2,-228 43.2,-258.8 255.56,-258.8 255.56,-228 43.2,-228"/>
<text text-anchor="start" x="50.2" y="-240.2" font-family="Arial" font-size="14.00">name </text>
<text text-anchor="start" x="89.11" y="-240.2" font-family="Arial" font-size="14.00" fill="#666666">[string]</text>
<polygon fill="none" stroke="black" points="43.2,-197.2 43.2,-228 255.56,-228 255.56,-197.2 43.2,-197.2"/>
<text text-anchor="start" x="50.2" y="-209.4" font-family="Arial" font-size="14.00">isDeleted </text>
<text text-anchor="start" x="112.45" y="-209.4" font-family="Arial" font-size="14.00" fill="#666666">[boolean]</text>
<polygon fill="none" stroke="black" points="43.2,-166.4 43.2,-197.2 255.56,-197.2 255.56,-166.4 43.2,-166.4"/>
<text text-anchor="start" x="50.2" y="-178.6" font-family="Arial" font-size="14.00">url </text>
<text text-anchor="start" x="69.65" y="-178.6" font-family="Arial" font-size="14.00" fill="#666666">[string]</text>
<polygon fill="none" stroke="black" points="43.2,-135.6 43.2,-166.4 255.56,-166.4 255.56,-135.6 43.2,-135.6"/>
<text text-anchor="start" x="50.2" y="-147.8" font-family="Arial" font-size="14.00">linkedInUrl </text>
<text text-anchor="start" x="120.23" y="-147.8" font-family="Arial" font-size="14.00" fill="#666666">[string]</text>
<polygon fill="none" stroke="black" points="43.2,-104.8 43.2,-135.6 255.56,-135.6 255.56,-104.8 43.2,-104.8"/>
<text text-anchor="start" x="50.2" y="-117" font-family="Arial" font-size="14.00">logoUrl </text>
<text text-anchor="start" x="98.44" y="-117" font-family="Arial" font-size="14.00" fill="#666666">[string]</text>
<polygon fill="none" stroke="black" points="43.2,-74 43.2,-104.8 255.56,-104.8 255.56,-74 43.2,-74"/>
<text text-anchor="start" x="50.2" y="-86.2" font-family="Arial" font-size="14.00">createdAt </text>
<text text-anchor="start" x="114.01" y="-86.2" font-family="Arial" font-size="14.00" fill="#666666">[datetime]</text>
<polygon fill="none" stroke="black" points="43.2,-43.2 43.2,-74 255.56,-74 255.56,-43.2 43.2,-43.2"/>
<text text-anchor="start" x="50.2" y="-55.4" font-family="Arial" font-size="14.00">updatedAt </text>
<text text-anchor="start" x="117.92" y="-55.4" font-family="Arial" font-size="14.00" fill="#666666">[datetime]</text>
</g>
<!-- EngagementCompany&#45;&gt;Company -->
<g id="edge1" class="edge">
<title>EngagementCompany:companyId&#45;&gt;Company:id</title>
<path fill="none" stroke="black" d="M149.86,-619.42C67.63,-609.66 108.76,-480.19 161.22,-404.4 186.76,-367.5 229.91,-405.23 255.56,-368.4 279.49,-334.04 298.43,-274.2 256.56,-274.2"/>
<polygon fill="black" stroke="black" points="149.9,-619.42 159.63,-624.47 155.23,-619.72 159.55,-619.96 159.55,-619.96 159.55,-619.96 155.23,-619.72 160.14,-615.49 149.9,-619.42"/>
<text text-anchor="start" x="31.49" y="-630" font-family="Arial" font-size="10.00">ForeignKeyType: Company</text>
</g>
<!-- Engagement -->
<g id="node3" class="node">
<title>Engagement</title>
<polygon fill="#efefef" stroke="none" points="360.22,-274.2 360.22,-309.8 592.55,-309.8 592.55,-274.2 360.22,-274.2"/>
<polygon fill="none" stroke="black" points="360.22,-274.2 360.22,-309.8 592.55,-309.8 592.55,-274.2 360.22,-274.2"/>
<text text-anchor="start" x="367.22" y="-287.6" font-family="Arial Bold" font-size="18.00">Engagement</text>
<text text-anchor="start" x="457.18" y="-287.6" font-family="Arial" font-size="14.00">    </text>
<text text-anchor="start" x="488.3" y="-287.6" font-family="Arial" font-size="14.00" fill="#666666">[TailorDB.Type]</text>
<polygon fill="none" stroke="black" points="360.22,-243.4 360.22,-274.2 592.55,-274.2 592.55,-243.4 360.22,-243.4"/>
<text text-anchor="start" x="367.22" y="-255.6" font-family="Arial" font-size="14.00">id </text>
<text text-anchor="start" x="382" y="-255.6" font-family="Arial" font-size="14.00" fill="#666666">[uuid]</text>
<polygon fill="none" stroke="black" points="360.22,-212.6 360.22,-243.4 592.55,-243.4 592.55,-212.6 360.22,-212.6"/>
<text text-anchor="start" x="367.22" y="-224.8" font-family="Arial" font-size="14.00">active </text>
<text text-anchor="start" x="407.68" y="-224.8" font-family="Arial" font-size="14.00" fill="#666666">[boolean]</text>
<polygon fill="none" stroke="black" points="360.22,-181.8 360.22,-212.6 592.55,-212.6 592.55,-181.8 360.22,-181.8"/>
<text text-anchor="start" x="367.22" y="-194" font-family="Arial" font-size="14.00">activityType </text>
<text text-anchor="start" x="445.02" y="-194" font-family="Arial" font-size="14.00" fill="#666666">[string]</text>
<polygon fill="none" stroke="black" points="360.22,-151 360.22,-181.8 592.55,-181.8 592.55,-151 360.22,-151"/>
<text text-anchor="start" x="367.22" y="-163.2" font-family="Arial" font-size="14.00">userId </text>
<text text-anchor="start" x="410.02" y="-163.2" font-family="Arial" font-size="14.00" fill="#666666">[uuid]</text>
<polygon fill="none" stroke="black" points="360.22,-120.2 360.22,-151 592.55,-151 592.55,-120.2 360.22,-120.2"/>
<text text-anchor="start" x="367.22" y="-132.4" font-family="Arial" font-size="14.00">type </text>
<text text-anchor="start" x="397.57" y="-132.4" font-family="Arial" font-size="14.00" fill="#666666">[string]</text>
<polygon fill="none" stroke="black" points="360.22,-89.4 360.22,-120.2 592.55,-120.2 592.55,-89.4 360.22,-89.4"/>
<text text-anchor="start" x="367.22" y="-101.6" font-family="Arial" font-size="14.00">createdAt </text>
<text text-anchor="start" x="431.03" y="-101.6" font-family="Arial" font-size="14.00" fill="#666666">[datetime]</text>
<polygon fill="none" stroke="black" points="360.22,-58.6 360.22,-89.4 592.55,-89.4 592.55,-58.6 360.22,-58.6"/>
<text text-anchor="start" x="367.22" y="-70.8" font-family="Arial" font-size="14.00">updatedAt </text>
<text text-anchor="start" x="434.94" y="-70.8" font-family="Arial" font-size="14.00" fill="#666666">[datetime]</text>
</g>
<!-- EngagementCompany&#45;&gt;Engagement -->
<g id="edge2" class="edge">
<title>EngagementCompany:engagementId&#45;&gt;Engagement:id</title>
<path fill="none" stroke="black" d="M474.88,-557.56C529.35,-548.02 497.79,-459.29 463.54,-404.4 436.39,-360.88 387.46,-396.46 360.22,-353 337.98,-317.52 317.35,-258.8 359.22,-258.8"/>
<polygon fill="black" stroke="black" points="474.84,-557.56 464.51,-553.89 469.53,-558 465.21,-558.35 465.21,-558.35 465.21,-558.35 469.53,-558 465.24,-562.86 474.84,-557.56"/>
<text text-anchor="start" x="471.54" y="-568.4" font-family="Arial" font-size="10.00">ForeignKeyType: Engagement</text>
</g>
</g>
</svg>
