<?xml version="1.0" encoding="UTF-8" standalone="no"?>
<!DOCTYPE svg PUBLIC "-//W3C//DTD SVG 1.1//EN"
 "http://www.w3.org/Graphics/SVG/1.1/DTD/svg11.dtd">
<!-- Generated by graphviz version 12.1.2 (20240928.0832)
 -->
<!-- Title: EngagementDeal Pages: 1 -->
<svg width="608pt" height="972pt"
 viewBox="0.00 0.00 607.74 971.60" xmlns="http://www.w3.org/2000/svg" xmlns:xlink="http://www.w3.org/1999/xlink">
<g id="graph0" class="graph" transform="scale(1 1) rotate(0) translate(4 967.6)">
<title>EngagementDeal</title>
<polygon fill="white" stroke="none" points="-4,4 -4,-967.6 603.74,-967.6 603.74,4 -4,4"/>
<!-- EngagementDeal -->
<g id="node1" class="node">
<title>EngagementDeal</title>
<polygon fill="#efefef" stroke="none" points="152.22,-881.8 152.22,-917.4 418.53,-917.4 418.53,-881.8 152.22,-881.8"/>
<polygon fill="none" stroke="black" points="152.22,-881.8 152.22,-917.4 418.53,-917.4 418.53,-881.8 152.22,-881.8"/>
<text text-anchor="start" x="159.22" y="-895.2" font-family="Arial Bold" font-size="18.00">EngagementDeal</text>
<text text-anchor="start" x="283.16" y="-895.2" font-family="Arial" font-size="14.00">    </text>
<text text-anchor="start" x="314.28" y="-895.2" font-family="Arial" font-size="14.00" fill="#666666">[TailorDB.Type]</text>
<polygon fill="none" stroke="black" points="152.22,-851 152.22,-881.8 418.53,-881.8 418.53,-851 152.22,-851"/>
<text text-anchor="start" x="159.22" y="-863.2" font-family="Arial" font-size="14.00">id </text>
<text text-anchor="start" x="174" y="-863.2" font-family="Arial" font-size="14.00" fill="#666666">[uuid]</text>
<polygon fill="none" stroke="black" points="152.22,-820.2 152.22,-851 418.53,-851 418.53,-820.2 152.22,-820.2"/>
<text text-anchor="start" x="159.22" y="-832.4" font-family="Arial" font-size="14.00">dealId </text>
<text text-anchor="start" x="201.25" y="-832.4" font-family="Arial" font-size="14.00" fill="#666666">[uuid]</text>
<polygon fill="none" stroke="black" points="152.22,-789.4 152.22,-820.2 418.53,-820.2 418.53,-789.4 152.22,-789.4"/>
<text text-anchor="start" x="159.22" y="-801.6" font-family="Arial" font-size="14.00">deal </text>
<text text-anchor="start" x="189.58" y="-801.6" font-family="Arial" font-size="14.00" fill="#666666">[Deal]</text>
<polygon fill="none" stroke="black" points="152.22,-758.6 152.22,-789.4 418.53,-789.4 418.53,-758.6 152.22,-758.6"/>
<text text-anchor="start" x="159.22" y="-770.8" font-family="Arial" font-size="14.00">engagementId </text>
<text text-anchor="start" x="252.62" y="-770.8" font-family="Arial" font-size="14.00" fill="#666666">[uuid]</text>
<polygon fill="none" stroke="black" points="152.22,-727.8 152.22,-758.6 418.53,-758.6 418.53,-727.8 152.22,-727.8"/>
<text text-anchor="start" x="159.22" y="-740" font-family="Arial" font-size="14.00">engagement </text>
<text text-anchor="start" x="240.95" y="-740" font-family="Arial" font-size="14.00" fill="#666666">[Engagement]</text>
<polygon fill="none" stroke="black" points="152.22,-697 152.22,-727.8 418.53,-727.8 418.53,-697 152.22,-697"/>
<text text-anchor="start" x="159.22" y="-709.2" font-family="Arial" font-size="14.00">createdAt </text>
<text text-anchor="start" x="223.03" y="-709.2" font-family="Arial" font-size="14.00" fill="#666666">[datetime]</text>
<polygon fill="none" stroke="black" points="152.22,-666.2 152.22,-697 418.53,-697 418.53,-666.2 152.22,-666.2"/>
<text text-anchor="start" x="159.22" y="-678.4" font-family="Arial" font-size="14.00">updatedAt </text>
<text text-anchor="start" x="226.94" y="-678.4" font-family="Arial" font-size="14.00" fill="#666666">[datetime]</text>
<polygon fill="none" stroke="black" stroke-width="3" points="150.72,-664.7 150.72,-918.9 420.03,-918.9 420.03,-664.7 150.72,-664.7"/>
</g>
<!-- Deal -->
<g id="node2" class="node">
<title>Deal</title>
<polygon fill="#efefef" stroke="none" points="43.2,-505.2 43.2,-540.8 219.54,-540.8 219.54,-505.2 43.2,-505.2"/>
<polygon fill="none" stroke="black" points="43.2,-505.2 43.2,-540.8 219.54,-540.8 219.54,-505.2 43.2,-505.2"/>
<text text-anchor="start" x="50.2" y="-518.6" font-family="Arial Bold" font-size="18.00">Deal</text>
<text text-anchor="start" x="84.18" y="-518.6" font-family="Arial" font-size="14.00">    </text>
<text text-anchor="start" x="115.3" y="-518.6" font-family="Arial" font-size="14.00" fill="#666666">[TailorDB.Type]</text>
<polygon fill="none" stroke="black" points="43.2,-474.4 43.2,-505.2 219.54,-505.2 219.54,-474.4 43.2,-474.4"/>
<text text-anchor="start" x="50.2" y="-486.6" font-family="Arial" font-size="14.00">id </text>
<text text-anchor="start" x="64.99" y="-486.6" font-family="Arial" font-size="14.00" fill="#666666">[uuid]</text>
<polygon fill="none" stroke="black" points="43.2,-443.6 43.2,-474.4 219.54,-474.4 219.54,-443.6 43.2,-443.6"/>
<text text-anchor="start" x="50.2" y="-455.8" font-family="Arial" font-size="14.00">amount </text>
<text text-anchor="start" x="100.79" y="-455.8" font-family="Arial" font-size="14.00" fill="#666666">[float]</text>
<polygon fill="none" stroke="black" points="43.2,-412.8 43.2,-443.6 219.54,-443.6 219.54,-412.8 43.2,-412.8"/>
<text text-anchor="start" x="50.2" y="-425" font-family="Arial" font-size="14.00">probability </text>
<text text-anchor="start" x="117.9" y="-425" font-family="Arial" font-size="14.00" fill="#666666">[float]</text>
<polygon fill="none" stroke="black" points="43.2,-382 43.2,-412.8 219.54,-412.8 219.54,-382 43.2,-382"/>
<text text-anchor="start" x="50.2" y="-394.2" font-family="Arial" font-size="14.00">value </text>
<text text-anchor="start" x="87.56" y="-394.2" font-family="Arial" font-size="14.00" fill="#666666">[float]</text>
<polygon fill="none" stroke="black" points="43.2,-351.2 43.2,-382 219.54,-382 219.54,-351.2 43.2,-351.2"/>
<text text-anchor="start" x="50.2" y="-363.4" font-family="Arial" font-size="14.00">isDeleted </text>
<text text-anchor="start" x="112.45" y="-363.4" font-family="Arial" font-size="14.00" fill="#666666">[boolean]</text>
<polygon fill="none" stroke="black" points="43.2,-320.4 43.2,-351.2 219.54,-351.2 219.54,-320.4 43.2,-320.4"/>
<text text-anchor="start" x="50.2" y="-332.6" font-family="Arial" font-size="14.00">dealStageId </text>
<text text-anchor="start" x="128.82" y="-332.6" font-family="Arial" font-size="14.00" fill="#666666">[uuid]</text>
<polygon fill="none" stroke="black" points="43.2,-289.6 43.2,-320.4 219.54,-320.4 219.54,-289.6 43.2,-289.6"/>
<text text-anchor="start" x="50.2" y="-301.8" font-family="Arial" font-size="14.00">dealStage </text>
<text text-anchor="start" x="117.14" y="-301.8" font-family="Arial" font-size="14.00" fill="#666666">[DealStage]</text>
<polygon fill="none" stroke="black" points="43.2,-258.8 43.2,-289.6 219.54,-289.6 219.54,-258.8 43.2,-258.8"/>
<text text-anchor="start" x="50.2" y="-271" font-family="Arial" font-size="14.00">userId </text>
<text text-anchor="start" x="93" y="-271" font-family="Arial" font-size="14.00" fill="#666666">[uuid]</text>
<polygon fill="none" stroke="black" points="43.2,-228 43.2,-258.8 219.54,-258.8 219.54,-228 43.2,-228"/>
<text text-anchor="start" x="50.2" y="-240.2" font-family="Arial" font-size="14.00">user </text>
<text text-anchor="start" x="81.32" y="-240.2" font-family="Arial" font-size="14.00" fill="#666666">[User]</text>
<polygon fill="none" stroke="black" points="43.2,-197.2 43.2,-228 219.54,-228 219.54,-197.2 43.2,-197.2"/>
<text text-anchor="start" x="50.2" y="-209.4" font-family="Arial" font-size="14.00">companyId </text>
<text text-anchor="start" x="122.57" y="-209.4" font-family="Arial" font-size="14.00" fill="#666666">[uuid]</text>
<polygon fill="none" stroke="black" points="43.2,-166.4 43.2,-197.2 219.54,-197.2 219.54,-166.4 43.2,-166.4"/>
<text text-anchor="start" x="50.2" y="-178.6" font-family="Arial" font-size="14.00">company </text>
<text text-anchor="start" x="110.9" y="-178.6" font-family="Arial" font-size="14.00" fill="#666666">[Company]</text>
<polygon fill="none" stroke="black" points="43.2,-135.6 43.2,-166.4 219.54,-166.4 219.54,-135.6 43.2,-135.6"/>
<text text-anchor="start" x="50.2" y="-147.8" font-family="Arial" font-size="14.00">contactId </text>
<text text-anchor="start" x="110.9" y="-147.8" font-family="Arial" font-size="14.00" fill="#666666">[uuid]</text>
<polygon fill="none" stroke="black" points="43.2,-104.8 43.2,-135.6 219.54,-135.6 219.54,-104.8 43.2,-104.8"/>
<text text-anchor="start" x="50.2" y="-117" font-family="Arial" font-size="14.00">contact </text>
<text text-anchor="start" x="99.23" y="-117" font-family="Arial" font-size="14.00" fill="#666666">[Contact]</text>
<polygon fill="none" stroke="black" points="43.2,-74 43.2,-104.8 219.54,-104.8 219.54,-74 43.2,-74"/>
<text text-anchor="start" x="50.2" y="-86.2" font-family="Arial" font-size="14.00">createdAt </text>
<text text-anchor="start" x="114.01" y="-86.2" font-family="Arial" font-size="14.00" fill="#666666">[datetime]</text>
<polygon fill="none" stroke="black" points="43.2,-43.2 43.2,-74 219.54,-74 219.54,-43.2 43.2,-43.2"/>
<text text-anchor="start" x="50.2" y="-55.4" font-family="Arial" font-size="14.00">updatedAt </text>
<text text-anchor="start" x="117.92" y="-55.4" font-family="Arial" font-size="14.00" fill="#666666">[datetime]</text>
</g>
<!-- EngagementDeal&#45;&gt;Deal -->
<g id="edge1" class="edge">
<title>EngagementDeal:dealId&#45;&gt;Deal:id</title>
<path fill="none" stroke="black" d="M140.88,-835.03C59.01,-825.5 104.65,-698.95 152.22,-620 169.73,-590.93 201.95,-613.01 219.54,-584 241.26,-548.2 262.41,-489.8 220.54,-489.8"/>
<polygon fill="black" stroke="black" points="140.9,-835.03 150.64,-840.07 146.23,-835.32 150.55,-835.56 150.55,-835.56 150.55,-835.56 146.23,-835.32 151.13,-831.09 140.9,-835.03"/>
<text text-anchor="start" x="44.73" y="-845.6" font-family="Arial" font-size="10.00">ForeignKeyType: Deal</text>
</g>
<!-- Engagement -->
<g id="node3" class="node">
<title>Engagement</title>
<polygon fill="#efefef" stroke="none" points="324.21,-382 324.21,-417.6 556.54,-417.6 556.54,-382 324.21,-382"/>
<polygon fill="none" stroke="black" points="324.21,-382 324.21,-417.6 556.54,-417.6 556.54,-382 324.21,-382"/>
<text text-anchor="start" x="331.21" y="-395.4" font-family="Arial Bold" font-size="18.00">Engagement</text>
<text text-anchor="start" x="421.17" y="-395.4" font-family="Arial" font-size="14.00">    </text>
<text text-anchor="start" x="452.29" y="-395.4" font-family="Arial" font-size="14.00" fill="#666666">[TailorDB.Type]</text>
<polygon fill="none" stroke="black" points="324.21,-351.2 324.21,-382 556.54,-382 556.54,-351.2 324.21,-351.2"/>
<text text-anchor="start" x="331.21" y="-363.4" font-family="Arial" font-size="14.00">id </text>
<text text-anchor="start" x="345.99" y="-363.4" font-family="Arial" font-size="14.00" fill="#666666">[uuid]</text>
<polygon fill="none" stroke="black" points="324.21,-320.4 324.21,-351.2 556.54,-351.2 556.54,-320.4 324.21,-320.4"/>
<text text-anchor="start" x="331.21" y="-332.6" font-family="Arial" font-size="14.00">active </text>
<text text-anchor="start" x="371.67" y="-332.6" font-family="Arial" font-size="14.00" fill="#666666">[boolean]</text>
<polygon fill="none" stroke="black" points="324.21,-289.6 324.21,-320.4 556.54,-320.4 556.54,-289.6 324.21,-289.6"/>
<text text-anchor="start" x="331.21" y="-301.8" font-family="Arial" font-size="14.00">activityType </text>
<text text-anchor="start" x="409.01" y="-301.8" font-family="Arial" font-size="14.00" fill="#666666">[string]</text>
<polygon fill="none" stroke="black" points="324.21,-258.8 324.21,-289.6 556.54,-289.6 556.54,-258.8 324.21,-258.8"/>
<text text-anchor="start" x="331.21" y="-271" font-family="Arial" font-size="14.00">userId </text>
<text text-anchor="start" x="374.01" y="-271" font-family="Arial" font-size="14.00" fill="#666666">[uuid]</text>
<polygon fill="none" stroke="black" points="324.21,-228 324.21,-258.8 556.54,-258.8 556.54,-228 324.21,-228"/>
<text text-anchor="start" x="331.21" y="-240.2" font-family="Arial" font-size="14.00">type </text>
<text text-anchor="start" x="361.56" y="-240.2" font-family="Arial" font-size="14.00" fill="#666666">[string]</text>
<polygon fill="none" stroke="black" points="324.21,-197.2 324.21,-228 556.54,-228 556.54,-197.2 324.21,-197.2"/>
<text text-anchor="start" x="331.21" y="-209.4" font-family="Arial" font-size="14.00">createdAt </text>
<text text-anchor="start" x="395.02" y="-209.4" font-family="Arial" font-size="14.00" fill="#666666">[datetime]</text>
<polygon fill="none" stroke="black" points="324.21,-166.4 324.21,-197.2 556.54,-197.2 556.54,-166.4 324.21,-166.4"/>
<text text-anchor="start" x="331.21" y="-178.6" font-family="Arial" font-size="14.00">updatedAt </text>
<text text-anchor="start" x="398.93" y="-178.6" font-family="Arial" font-size="14.00" fill="#666666">[datetime]</text>
</g>
<!-- EngagementDeal&#45;&gt;Engagement -->
<g id="edge2" class="edge">
<title>EngagementDeal:engagementId&#45;&gt;Engagement:id</title>
<path fill="none" stroke="black" d="M429.79,-773.58C557.87,-762.44 344.5,-533.36 324.21,-460.8 312.93,-420.48 281.34,-366.6 323.21,-366.6"/>
<polygon fill="black" stroke="black" points="429.85,-773.58 419.68,-769.49 424.52,-773.79 420.19,-773.97 420.19,-773.97 420.19,-773.97 424.52,-773.79 420.04,-778.48 429.85,-773.58"/>
<text text-anchor="start" x="426.53" y="-784" font-family="Arial" font-size="10.00">ForeignKeyType: Engagement</text>
</g>
</g>
</svg>
