<?xml version="1.0" encoding="UTF-8" standalone="no"?>
<!DOCTYPE svg PUBLIC "-//W3C//DTD SVG 1.1//EN"
 "http://www.w3.org/Graphics/SVG/1.1/DTD/svg11.dtd">
<!-- Generated by graphviz version 12.1.2 (20240928.0832)
 -->
<!-- Title: Team Pages: 1 -->
<svg width="388pt" height="694pt"
 viewBox="0.00 0.00 388.01 694.40" xmlns="http://www.w3.org/2000/svg" xmlns:xlink="http://www.w3.org/1999/xlink">
<g id="graph0" class="graph" transform="scale(1 1) rotate(0) translate(4 690.4)">
<title>Team</title>
<polygon fill="white" stroke="none" points="-4,4 -4,-690.4 384.01,-690.4 384.01,4 -4,4"/>
<!-- Team -->
<g id="node1" class="node">
<title>Team</title>
<polygon fill="#efefef" stroke="none" points="60.19,-200.2 60.19,-235.8 243.53,-235.8 243.53,-200.2 60.19,-200.2"/>
<polygon fill="none" stroke="black" points="60.19,-200.2 60.19,-235.8 243.53,-235.8 243.53,-200.2 60.19,-200.2"/>
<text text-anchor="start" x="67.19" y="-213.6" font-family="Arial Bold" font-size="18.00">Team</text>
<text text-anchor="start" x="108.17" y="-213.6" font-family="Arial" font-size="14.00">    </text>
<text text-anchor="start" x="139.29" y="-213.6" font-family="Arial" font-size="14.00" fill="#666666">[TailorDB.Type]</text>
<polygon fill="none" stroke="black" points="60.19,-169.4 60.19,-200.2 243.53,-200.2 243.53,-169.4 60.19,-169.4"/>
<text text-anchor="start" x="67.19" y="-181.6" font-family="Arial" font-size="14.00">id </text>
<text text-anchor="start" x="81.98" y="-181.6" font-family="Arial" font-size="14.00" fill="#666666">[uuid]</text>
<polygon fill="none" stroke="black" points="60.19,-138.6 60.19,-169.4 243.53,-169.4 243.53,-138.6 60.19,-138.6"/>
<text text-anchor="start" x="67.19" y="-150.8" font-family="Arial" font-size="14.00">name </text>
<text text-anchor="start" x="106.1" y="-150.8" font-family="Arial" font-size="14.00" fill="#666666">[string]</text>
<polygon fill="none" stroke="black" points="60.19,-107.8 60.19,-138.6 243.53,-138.6 243.53,-107.8 60.19,-107.8"/>
<text text-anchor="start" x="67.19" y="-120" font-family="Arial" font-size="14.00">isDeleted </text>
<text text-anchor="start" x="129.45" y="-120" font-family="Arial" font-size="14.00" fill="#666666">[boolean]</text>
<polygon fill="none" stroke="black" points="60.19,-77 60.19,-107.8 243.53,-107.8 243.53,-77 60.19,-77"/>
<text text-anchor="start" x="67.19" y="-89.2" font-family="Arial" font-size="14.00">createdAt </text>
<text text-anchor="start" x="131.01" y="-89.2" font-family="Arial" font-size="14.00" fill="#666666">[datetime]</text>
<polygon fill="none" stroke="black" points="60.19,-46.2 60.19,-77 243.53,-77 243.53,-46.2 60.19,-46.2"/>
<text text-anchor="start" x="67.19" y="-58.4" font-family="Arial" font-size="14.00">updatedAt </text>
<text text-anchor="start" x="134.92" y="-58.4" font-family="Arial" font-size="14.00" fill="#666666">[datetime]</text>
<polygon fill="none" stroke="black" stroke-width="3" points="58.69,-44.7 58.69,-237.3 245.03,-237.3 245.03,-44.7 58.69,-44.7"/>
</g>
<!-- TeamUser -->
<g id="node2" class="node">
<title>TeamUser</title>
<polygon fill="#efefef" stroke="none" points="43.2,-607.6 43.2,-643.2 260.53,-643.2 260.53,-607.6 43.2,-607.6"/>
<polygon fill="none" stroke="black" points="43.2,-607.6 43.2,-643.2 260.53,-643.2 260.53,-607.6 43.2,-607.6"/>
<text text-anchor="start" x="50.2" y="-621" font-family="Arial Bold" font-size="18.00">TeamUser</text>
<text text-anchor="start" x="125.16" y="-621" font-family="Arial" font-size="14.00">    </text>
<text text-anchor="start" x="156.28" y="-621" font-family="Arial" font-size="14.00" fill="#666666">[TailorDB.Type]</text>
<polygon fill="none" stroke="black" points="43.2,-576.8 43.2,-607.6 260.53,-607.6 260.53,-576.8 43.2,-576.8"/>
<text text-anchor="start" x="50.2" y="-589" font-family="Arial" font-size="14.00">id </text>
<text text-anchor="start" x="64.99" y="-589" font-family="Arial" font-size="14.00" fill="#666666">[uuid]</text>
<polygon fill="none" stroke="black" points="43.2,-546 43.2,-576.8 260.53,-576.8 260.53,-546 43.2,-546"/>
<text text-anchor="start" x="50.2" y="-558.2" font-family="Arial" font-size="14.00">teamId </text>
<text text-anchor="start" x="96.89" y="-558.2" font-family="Arial" font-size="14.00" fill="#666666">[uuid]</text>
<polygon fill="none" stroke="black" points="43.2,-515.2 43.2,-546 260.53,-546 260.53,-515.2 43.2,-515.2"/>
<text text-anchor="start" x="50.2" y="-527.4" font-family="Arial" font-size="14.00">team </text>
<text text-anchor="start" x="85.21" y="-527.4" font-family="Arial" font-size="14.00" fill="#666666">[Team]</text>
<polygon fill="none" stroke="black" points="43.2,-484.4 43.2,-515.2 260.53,-515.2 260.53,-484.4 43.2,-484.4"/>
<text text-anchor="start" x="50.2" y="-496.6" font-family="Arial" font-size="14.00">userId </text>
<text text-anchor="start" x="93" y="-496.6" font-family="Arial" font-size="14.00" fill="#666666">[uuid]</text>
<polygon fill="none" stroke="black" points="43.2,-453.6 43.2,-484.4 260.53,-484.4 260.53,-453.6 43.2,-453.6"/>
<text text-anchor="start" x="50.2" y="-465.8" font-family="Arial" font-size="14.00">user </text>
<text text-anchor="start" x="81.32" y="-465.8" font-family="Arial" font-size="14.00" fill="#666666">[User]</text>
<polygon fill="none" stroke="black" points="43.2,-422.8 43.2,-453.6 260.53,-453.6 260.53,-422.8 43.2,-422.8"/>
<text text-anchor="start" x="50.2" y="-435" font-family="Arial" font-size="14.00">isSecondaryUser </text>
<text text-anchor="start" x="160.69" y="-435" font-family="Arial" font-size="14.00" fill="#666666">[boolean]</text>
<polygon fill="none" stroke="black" points="43.2,-392 43.2,-422.8 260.53,-422.8 260.53,-392 43.2,-392"/>
<text text-anchor="start" x="50.2" y="-404.2" font-family="Arial" font-size="14.00">createdAt </text>
<text text-anchor="start" x="114.01" y="-404.2" font-family="Arial" font-size="14.00" fill="#666666">[datetime]</text>
<polygon fill="none" stroke="black" points="43.2,-361.2 43.2,-392 260.53,-392 260.53,-361.2 43.2,-361.2"/>
<text text-anchor="start" x="50.2" y="-373.4" font-family="Arial" font-size="14.00">updatedAt </text>
<text text-anchor="start" x="117.92" y="-373.4" font-family="Arial" font-size="14.00" fill="#666666">[datetime]</text>
</g>
<!-- TeamUser&#45;&gt;Team -->
<g id="edge1" class="edge">
<title>TeamUser:teamId&#45;&gt;Team:id</title>
<path fill="none" stroke="black" d="M271.33,-559.55C343.79,-531.14 324.87,-184.8 244.53,-184.8"/>
<polygon fill="black" stroke="black" points="271.68,-559.48 261.02,-556.92 266.44,-560.47 262.18,-561.28 262.18,-561.28 262.18,-561.28 266.44,-560.47 262.69,-565.76 271.68,-559.48"/>
<text text-anchor="start" x="268.53" y="-571.4" font-family="Arial" font-size="10.00">ForeignKeyType: Team</text>
</g>
</g>
</svg>
