<?xml version="1.0" encoding="UTF-8" standalone="no"?>
<!DOCTYPE svg PUBLIC "-//W3C//DTD SVG 1.1//EN"
 "http://www.w3.org/Graphics/SVG/1.1/DTD/svg11.dtd">
<!-- Generated by graphviz version 12.1.2 (20240928.0832)
 -->
<!-- Title: CostPool Pages: 1 -->
<svg width="736pt" height="1126pt"
 viewBox="0.00 0.00 736.24 1125.60" xmlns="http://www.w3.org/2000/svg" xmlns:xlink="http://www.w3.org/1999/xlink">
<g id="graph0" class="graph" transform="scale(1 1) rotate(0) translate(4 1121.6)">
<title>CostPool</title>
<polygon fill="white" stroke="none" points="-4,4 -4,-1121.6 732.24,-1121.6 732.24,4 -4,4"/>
<!-- CostPool -->
<g id="node1" class="node">
<title>CostPool</title>
<polygon fill="#efefef" stroke="none" points="262.19,-261.8 262.19,-297.4 470.57,-297.4 470.57,-261.8 262.19,-261.8"/>
<polygon fill="none" stroke="black" points="262.19,-261.8 262.19,-297.4 470.57,-297.4 470.57,-261.8 262.19,-261.8"/>
<text text-anchor="start" x="269.19" y="-275.2" font-family="Arial Bold" font-size="18.00">CostPool</text>
<text text-anchor="start" x="335.21" y="-275.2" font-family="Arial" font-size="14.00">    </text>
<text text-anchor="start" x="366.33" y="-275.2" font-family="Arial" font-size="14.00" fill="#666666">[TailorDB.Type]</text>
<polygon fill="none" stroke="black" points="262.19,-231 262.19,-261.8 470.57,-261.8 470.57,-231 262.19,-231"/>
<text text-anchor="start" x="269.19" y="-243.2" font-family="Arial" font-size="14.00">id </text>
<text text-anchor="start" x="283.97" y="-243.2" font-family="Arial" font-size="14.00" fill="#666666">[uuid]</text>
<polygon fill="none" stroke="black" points="262.19,-200.2 262.19,-231 470.57,-231 470.57,-200.2 262.19,-200.2"/>
<text text-anchor="start" x="269.19" y="-212.4" font-family="Arial" font-size="14.00">active </text>
<text text-anchor="start" x="309.65" y="-212.4" font-family="Arial" font-size="14.00" fill="#666666">[boolean]</text>
<polygon fill="none" stroke="black" points="262.19,-169.4 262.19,-200.2 470.57,-200.2 470.57,-169.4 262.19,-169.4"/>
<text text-anchor="start" x="269.19" y="-181.6" font-family="Arial" font-size="14.00">createdAt </text>
<text text-anchor="start" x="333" y="-181.6" font-family="Arial" font-size="14.00" fill="#666666">[datetime]</text>
<polygon fill="none" stroke="black" points="262.19,-138.6 262.19,-169.4 470.57,-169.4 470.57,-138.6 262.19,-138.6"/>
<text text-anchor="start" x="269.19" y="-150.8" font-family="Arial" font-size="14.00">name </text>
<text text-anchor="start" x="308.1" y="-150.8" font-family="Arial" font-size="14.00" fill="#666666">[string]</text>
<polygon fill="none" stroke="black" points="262.19,-107.8 262.19,-138.6 470.57,-138.6 470.57,-107.8 262.19,-107.8"/>
<text text-anchor="start" x="269.19" y="-120" font-family="Arial" font-size="14.00">isClosed </text>
<text text-anchor="start" x="326.76" y="-120" font-family="Arial" font-size="14.00" fill="#666666">[boolean]</text>
<polygon fill="none" stroke="black" points="262.19,-77 262.19,-107.8 470.57,-107.8 470.57,-77 262.19,-77"/>
<text text-anchor="start" x="269.19" y="-89.2" font-family="Arial" font-size="14.00">closedAt </text>
<text text-anchor="start" x="326.77" y="-89.2" font-family="Arial" font-size="14.00" fill="#666666">[datetime]</text>
<polygon fill="none" stroke="black" points="262.19,-46.2 262.19,-77 470.57,-77 470.57,-46.2 262.19,-46.2"/>
<text text-anchor="start" x="269.19" y="-58.4" font-family="Arial" font-size="14.00">updatedAt </text>
<text text-anchor="start" x="336.91" y="-58.4" font-family="Arial" font-size="14.00" fill="#666666">[datetime]</text>
<polygon fill="none" stroke="black" stroke-width="3" points="260.69,-44.7 260.69,-298.9 472.07,-298.9 472.07,-44.7 260.69,-44.7"/>
</g>
<!-- CostPoolLineItem -->
<g id="node2" class="node">
<title>CostPoolLineItem</title>
<polygon fill="#efefef" stroke="none" points="43.2,-869.4 43.2,-905 317.56,-905 317.56,-869.4 43.2,-869.4"/>
<polygon fill="none" stroke="black" points="43.2,-869.4 43.2,-905 317.56,-905 317.56,-869.4 43.2,-869.4"/>
<text text-anchor="start" x="50.2" y="-882.8" font-family="Arial Bold" font-size="18.00">CostPoolLineItem</text>
<text text-anchor="start" x="182.19" y="-882.8" font-family="Arial" font-size="14.00">    </text>
<text text-anchor="start" x="213.31" y="-882.8" font-family="Arial" font-size="14.00" fill="#666666">[TailorDB.Type]</text>
<polygon fill="none" stroke="black" points="43.2,-838.6 43.2,-869.4 317.56,-869.4 317.56,-838.6 43.2,-838.6"/>
<text text-anchor="start" x="50.2" y="-850.8" font-family="Arial" font-size="14.00">id </text>
<text text-anchor="start" x="64.99" y="-850.8" font-family="Arial" font-size="14.00" fill="#666666">[uuid]</text>
<polygon fill="none" stroke="black" points="43.2,-807.8 43.2,-838.6 317.56,-838.6 317.56,-807.8 43.2,-807.8"/>
<text text-anchor="start" x="50.2" y="-820" font-family="Arial" font-size="14.00">active </text>
<text text-anchor="start" x="90.66" y="-820" font-family="Arial" font-size="14.00" fill="#666666">[boolean]</text>
<polygon fill="none" stroke="black" points="43.2,-777 43.2,-807.8 317.56,-807.8 317.56,-777 43.2,-777"/>
<text text-anchor="start" x="50.2" y="-789.2" font-family="Arial" font-size="14.00">costPoolID </text>
<text text-anchor="start" x="121.79" y="-789.2" font-family="Arial" font-size="14.00" fill="#666666">[uuid]</text>
<polygon fill="none" stroke="black" points="43.2,-746.2 43.2,-777 317.56,-777 317.56,-746.2 43.2,-746.2"/>
<text text-anchor="start" x="50.2" y="-758.4" font-family="Arial" font-size="14.00">costPool </text>
<text text-anchor="start" x="107.79" y="-758.4" font-family="Arial" font-size="14.00" fill="#666666">[CostPool]</text>
<polygon fill="none" stroke="black" points="43.2,-715.4 43.2,-746.2 317.56,-746.2 317.56,-715.4 43.2,-715.4"/>
<text text-anchor="start" x="50.2" y="-727.6" font-family="Arial" font-size="14.00">createdAt </text>
<text text-anchor="start" x="114.01" y="-727.6" font-family="Arial" font-size="14.00" fill="#666666">[datetime]</text>
<polygon fill="none" stroke="black" points="43.2,-684.6 43.2,-715.4 317.56,-715.4 317.56,-684.6 43.2,-684.6"/>
<text text-anchor="start" x="50.2" y="-696.8" font-family="Arial" font-size="14.00">name </text>
<text text-anchor="start" x="89.11" y="-696.8" font-family="Arial" font-size="14.00" fill="#666666">[string]</text>
<polygon fill="none" stroke="black" points="43.2,-653.8 43.2,-684.6 317.56,-684.6 317.56,-653.8 43.2,-653.8"/>
<text text-anchor="start" x="50.2" y="-666" font-family="Arial" font-size="14.00">amount </text>
<text text-anchor="start" x="100.79" y="-666" font-family="Arial" font-size="14.00" fill="#666666">[float]</text>
<polygon fill="none" stroke="black" points="43.2,-623 43.2,-653.8 317.56,-653.8 317.56,-623 43.2,-623"/>
<text text-anchor="start" x="50.2" y="-635.2" font-family="Arial" font-size="14.00">allocationBase </text>
<text text-anchor="start" x="145.15" y="-635.2" font-family="Arial" font-size="14.00" fill="#666666">[enum]</text>
<polygon fill="none" stroke="black" points="43.2,-592.2 43.2,-623 317.56,-623 317.56,-592.2 43.2,-592.2"/>
<text text-anchor="start" x="50.2" y="-604.4" font-family="Arial" font-size="14.00">updatedAt </text>
<text text-anchor="start" x="117.92" y="-604.4" font-family="Arial" font-size="14.00" fill="#666666">[datetime]</text>
</g>
<!-- CostPoolLineItem&#45;&gt;CostPool -->
<g id="edge1" class="edge">
<title>CostPoolLineItem:costPoolID&#45;&gt;CostPool:id</title>
<path fill="none" stroke="black" d="M328.76,-790.99C408.63,-766.82 275.39,-439.48 262.19,-343.6 256.29,-300.8 217.98,-246.4 261.19,-246.4"/>
<polygon fill="black" stroke="black" points="328.8,-790.98 318.27,-787.9 323.51,-791.71 319.22,-792.31 319.22,-792.31 319.22,-792.31 323.51,-791.71 319.51,-796.81 328.8,-790.98"/>
<text text-anchor="start" x="325.56" y="-802.4" font-family="Arial" font-size="10.00">Source: CostPool</text>
</g>
<!-- ReceiptLineItem -->
<g id="node3" class="node">
<title>ReceiptLineItem</title>
<polygon fill="#efefef" stroke="none" points="421.72,-1038.8 421.72,-1074.4 685.04,-1074.4 685.04,-1038.8 421.72,-1038.8"/>
<polygon fill="none" stroke="black" points="421.72,-1038.8 421.72,-1074.4 685.04,-1074.4 685.04,-1038.8 421.72,-1038.8"/>
<text text-anchor="start" x="428.72" y="-1052.2" font-family="Arial Bold" font-size="18.00">ReceiptLineItem</text>
<text text-anchor="start" x="549.67" y="-1052.2" font-family="Arial" font-size="14.00">    </text>
<text text-anchor="start" x="580.79" y="-1052.2" font-family="Arial" font-size="14.00" fill="#666666">[TailorDB.Type]</text>
<polygon fill="none" stroke="black" points="421.72,-1008 421.72,-1038.8 685.04,-1038.8 685.04,-1008 421.72,-1008"/>
<text text-anchor="start" x="428.72" y="-1020.2" font-family="Arial" font-size="14.00">id </text>
<text text-anchor="start" x="443.51" y="-1020.2" font-family="Arial" font-size="14.00" fill="#666666">[uuid]</text>
<polygon fill="none" stroke="black" points="421.72,-977.2 421.72,-1008 685.04,-1008 685.04,-977.2 421.72,-977.2"/>
<text text-anchor="start" x="428.72" y="-989.4" font-family="Arial" font-size="14.00">active </text>
<text text-anchor="start" x="469.19" y="-989.4" font-family="Arial" font-size="14.00" fill="#666666">[boolean]</text>
<polygon fill="none" stroke="black" points="421.72,-946.4 421.72,-977.2 685.04,-977.2 685.04,-946.4 421.72,-946.4"/>
<text text-anchor="start" x="428.72" y="-958.6" font-family="Arial" font-size="14.00">createdAt </text>
<text text-anchor="start" x="492.54" y="-958.6" font-family="Arial" font-size="14.00" fill="#666666">[datetime]</text>
<polygon fill="none" stroke="black" points="421.72,-915.6 421.72,-946.4 685.04,-946.4 685.04,-915.6 421.72,-915.6"/>
<text text-anchor="start" x="428.72" y="-927.8" font-family="Arial" font-size="14.00">receiptID </text>
<text text-anchor="start" x="488.63" y="-927.8" font-family="Arial" font-size="14.00" fill="#666666">[uuid]</text>
<polygon fill="none" stroke="black" points="421.72,-884.8 421.72,-915.6 685.04,-915.6 685.04,-884.8 421.72,-884.8"/>
<text text-anchor="start" x="428.72" y="-897" font-family="Arial" font-size="14.00">receipt </text>
<text text-anchor="start" x="474.63" y="-897" font-family="Arial" font-size="14.00" fill="#666666">[Receipt]</text>
<polygon fill="none" stroke="black" points="421.72,-854 421.72,-884.8 685.04,-884.8 685.04,-854 421.72,-854"/>
<text text-anchor="start" x="428.72" y="-866.2" font-family="Arial" font-size="14.00">updatedAt </text>
<text text-anchor="start" x="496.45" y="-866.2" font-family="Arial" font-size="14.00" fill="#666666">[datetime]</text>
<polygon fill="none" stroke="black" points="421.72,-823.2 421.72,-854 685.04,-854 685.04,-823.2 421.72,-823.2"/>
<text text-anchor="start" x="428.72" y="-835.4" font-family="Arial" font-size="14.00">variantID </text>
<text text-anchor="start" x="488.63" y="-835.4" font-family="Arial" font-size="14.00" fill="#666666">[uuid]</text>
<polygon fill="none" stroke="black" points="421.72,-792.4 421.72,-823.2 685.04,-823.2 685.04,-792.4 421.72,-792.4"/>
<text text-anchor="start" x="428.72" y="-804.6" font-family="Arial" font-size="14.00">variant </text>
<text text-anchor="start" x="474.63" y="-804.6" font-family="Arial" font-size="14.00" fill="#666666">[ProductVariant]</text>
<polygon fill="none" stroke="black" points="421.72,-761.6 421.72,-792.4 685.04,-792.4 685.04,-761.6 421.72,-761.6"/>
<text text-anchor="start" x="428.72" y="-773.8" font-family="Arial" font-size="14.00">quantity </text>
<text text-anchor="start" x="481.65" y="-773.8" font-family="Arial" font-size="14.00" fill="#666666">[float]</text>
<polygon fill="none" stroke="black" points="421.72,-730.8 421.72,-761.6 685.04,-761.6 685.04,-730.8 421.72,-730.8"/>
<text text-anchor="start" x="428.72" y="-743" font-family="Arial" font-size="14.00">subtotalUnitCost </text>
<text text-anchor="start" x="535.33" y="-743" font-family="Arial" font-size="14.00" fill="#666666">[float]</text>
<polygon fill="none" stroke="black" points="421.72,-700 421.72,-730.8 685.04,-730.8 685.04,-700 421.72,-700"/>
<text text-anchor="start" x="428.72" y="-712.2" font-family="Arial" font-size="14.00">subtotalCost </text>
<text text-anchor="start" x="510.43" y="-712.2" font-family="Arial" font-size="14.00" fill="#666666">[float]</text>
<polygon fill="none" stroke="black" points="421.72,-669.2 421.72,-700 685.04,-700 685.04,-669.2 421.72,-669.2"/>
<text text-anchor="start" x="428.72" y="-681.4" font-family="Arial" font-size="14.00">cubicMeters </text>
<text text-anchor="start" x="508.08" y="-681.4" font-family="Arial" font-size="14.00" fill="#666666">[float]</text>
<polygon fill="none" stroke="black" points="421.72,-638.4 421.72,-669.2 685.04,-669.2 685.04,-638.4 421.72,-638.4"/>
<text text-anchor="start" x="428.72" y="-650.6" font-family="Arial" font-size="14.00">costPools </text>
<text text-anchor="start" x="493.31" y="-650.6" font-family="Arial" font-size="14.00" fill="#666666">[Array\&lt;nested\&gt;]</text>
<polygon fill="none" stroke="black" points="421.72,-607.6 421.72,-638.4 685.04,-638.4 685.04,-607.6 421.72,-607.6"/>
<text text-anchor="start" x="428.72" y="-619.8" font-family="Arial" font-size="14.00">costPools.costPoolID </text>
<text text-anchor="start" x="564.9" y="-619.8" font-family="Arial" font-size="14.00" fill="#666666">[uuid]</text>
<polygon fill="none" stroke="black" points="421.72,-576.8 421.72,-607.6 685.04,-607.6 685.04,-576.8 421.72,-576.8"/>
<text text-anchor="start" x="428.72" y="-589" font-family="Arial" font-size="14.00">costPools.costPool </text>
<text text-anchor="start" x="550.9" y="-589" font-family="Arial" font-size="14.00" fill="#666666">[CostPool]</text>
<polygon fill="none" stroke="black" points="421.72,-546 421.72,-576.8 685.04,-576.8 685.04,-546 421.72,-546"/>
<text text-anchor="start" x="428.72" y="-558.2" font-family="Arial" font-size="14.00">totalCostPoolAllocation </text>
<text text-anchor="start" x="576.59" y="-558.2" font-family="Arial" font-size="14.00" fill="#666666">[float]</text>
<polygon fill="none" stroke="black" points="421.72,-515.2 421.72,-546 685.04,-546 685.04,-515.2 421.72,-515.2"/>
<text text-anchor="start" x="428.72" y="-527.4" font-family="Arial" font-size="14.00">unitCostPoolAllocation </text>
<text text-anchor="start" x="572.7" y="-527.4" font-family="Arial" font-size="14.00" fill="#666666">[float]</text>
<polygon fill="none" stroke="black" points="421.72,-484.4 421.72,-515.2 685.04,-515.2 685.04,-484.4 421.72,-484.4"/>
<text text-anchor="start" x="428.72" y="-496.6" font-family="Arial" font-size="14.00">totalUnitCost </text>
<text text-anchor="start" x="512.76" y="-496.6" font-family="Arial" font-size="14.00" fill="#666666">[float]</text>
<polygon fill="none" stroke="black" points="421.72,-453.6 421.72,-484.4 685.04,-484.4 685.04,-453.6 421.72,-453.6"/>
<text text-anchor="start" x="428.72" y="-465.8" font-family="Arial" font-size="14.00">receiptStatus </text>
<text text-anchor="start" x="514.32" y="-465.8" font-family="Arial" font-size="14.00" fill="#666666">[enum]</text>
<polygon fill="none" stroke="black" points="421.72,-422.8 421.72,-453.6 685.04,-453.6 685.04,-422.8 421.72,-422.8"/>
<text text-anchor="start" x="428.72" y="-435" font-family="Arial" font-size="14.00">receivedAt </text>
<text text-anchor="start" x="498.76" y="-435" font-family="Arial" font-size="14.00" fill="#666666">[datetime]</text>
</g>
<!-- ReceiptLineItem&#45;&gt;CostPool -->
<g id="edge2" class="edge">
<title>ReceiptLineItem:costPools.costPoolID&#45;&gt;CostPool:id</title>
<path fill="none" stroke="black" d="M410.79,-620.37C370.79,-597 398.91,-424.53 421.72,-379.6 433.94,-355.55 458.29,-367.61 470.57,-343.6 490.25,-305.14 514.78,-246.4 471.57,-246.4"/>
<polygon fill="black" stroke="black" points="410.73,-620.36 419.25,-627.26 415.89,-621.72 420.08,-622.83 420.08,-622.83 420.08,-622.83 415.89,-621.72 421.55,-618.56 410.73,-620.36"/>
<text text-anchor="start" x="335.91" y="-633" font-family="Arial" font-size="10.00">Source: CostPool</text>
</g>
</g>
</svg>
