<?xml version="1.0" encoding="UTF-8" standalone="no"?>
<!DOCTYPE svg PUBLIC "-//W3C//DTD SVG 1.1//EN"
 "http://www.w3.org/Graphics/SVG/1.1/DTD/svg11.dtd">
<!-- Generated by graphviz version 12.1.2 (20240928.0832)
 -->
<!-- Title: FinancialStockEvent Pages: 1 -->
<svg width="1511pt" height="1618pt"
 viewBox="0.00 0.00 1510.72 1618.40" xmlns="http://www.w3.org/2000/svg" xmlns:xlink="http://www.w3.org/1999/xlink">
<g id="graph0" class="graph" transform="scale(1 1) rotate(0) translate(4 1614.4)">
<title>FinancialStockEvent</title>
<polygon fill="white" stroke="none" points="-4,4 -4,-1614.4 1506.72,-1614.4 1506.72,4 -4,4"/>
<!-- FinancialStockEvent -->
<g id="node1" class="node">
<title>FinancialStockEvent</title>
<polygon fill="#efefef" stroke="none" points="563.89,-1528.6 563.89,-1564.2 872.84,-1564.2 872.84,-1528.6 563.89,-1528.6"/>
<polygon fill="none" stroke="black" points="563.89,-1528.6 563.89,-1564.2 872.84,-1564.2 872.84,-1528.6 563.89,-1528.6"/>
<text text-anchor="start" x="579.2" y="-1542" font-family="Arial Bold" font-size="18.00">FinancialStockEvent</text>
<text text-anchor="start" x="729.17" y="-1542" font-family="Arial" font-size="14.00">    </text>
<text text-anchor="start" x="760.29" y="-1542" font-family="Arial" font-size="14.00" fill="#666666">[TailorDB.Type]</text>
<polygon fill="none" stroke="black" points="563.89,-1497.8 563.89,-1528.6 872.84,-1528.6 872.84,-1497.8 563.89,-1497.8"/>
<text text-anchor="start" x="570.89" y="-1510" font-family="Arial" font-size="14.00">id </text>
<text text-anchor="start" x="585.68" y="-1510" font-family="Arial" font-size="14.00" fill="#666666">[uuid]</text>
<polygon fill="none" stroke="black" points="563.89,-1467 563.89,-1497.8 872.84,-1497.8 872.84,-1467 563.89,-1467"/>
<text text-anchor="start" x="570.89" y="-1479.2" font-family="Arial" font-size="14.00">active </text>
<text text-anchor="start" x="611.35" y="-1479.2" font-family="Arial" font-size="14.00" fill="#666666">[boolean]</text>
<polygon fill="none" stroke="black" points="563.89,-1436.2 563.89,-1467 872.84,-1467 872.84,-1436.2 563.89,-1436.2"/>
<text text-anchor="start" x="570.89" y="-1448.4" font-family="Arial" font-size="14.00">createdAt </text>
<text text-anchor="start" x="634.71" y="-1448.4" font-family="Arial" font-size="14.00" fill="#666666">[datetime]</text>
<polygon fill="none" stroke="black" points="563.89,-1405.4 563.89,-1436.2 872.84,-1436.2 872.84,-1405.4 563.89,-1405.4"/>
<text text-anchor="start" x="570.89" y="-1417.6" font-family="Arial" font-size="14.00">updatedAt </text>
<text text-anchor="start" x="638.62" y="-1417.6" font-family="Arial" font-size="14.00" fill="#666666">[datetime]</text>
<polygon fill="none" stroke="black" points="563.89,-1374.6 563.89,-1405.4 872.84,-1405.4 872.84,-1374.6 563.89,-1374.6"/>
<text text-anchor="start" x="570.89" y="-1386.8" font-family="Arial" font-size="14.00">variantID </text>
<text text-anchor="start" x="630.8" y="-1386.8" font-family="Arial" font-size="14.00" fill="#666666">[uuid]</text>
<polygon fill="none" stroke="black" points="563.89,-1343.8 563.89,-1374.6 872.84,-1374.6 872.84,-1343.8 563.89,-1343.8"/>
<text text-anchor="start" x="570.89" y="-1356" font-family="Arial" font-size="14.00">variant </text>
<text text-anchor="start" x="616.8" y="-1356" font-family="Arial" font-size="14.00" fill="#666666">[ProductVariant]</text>
<polygon fill="none" stroke="black" points="563.89,-1313 563.89,-1343.8 872.84,-1343.8 872.84,-1313 563.89,-1313"/>
<text text-anchor="start" x="570.89" y="-1325.2" font-family="Arial" font-size="14.00">incrementalQuantity </text>
<text text-anchor="start" x="699.28" y="-1325.2" font-family="Arial" font-size="14.00" fill="#666666">[float]</text>
<polygon fill="none" stroke="black" points="563.89,-1282.2 563.89,-1313 872.84,-1313 872.84,-1282.2 563.89,-1282.2"/>
<text text-anchor="start" x="570.89" y="-1294.4" font-family="Arial" font-size="14.00">unitCost </text>
<text text-anchor="start" x="626.14" y="-1294.4" font-family="Arial" font-size="14.00" fill="#666666">[float]</text>
<polygon fill="none" stroke="black" points="563.89,-1251.4 563.89,-1282.2 872.84,-1282.2 872.84,-1251.4 563.89,-1251.4"/>
<text text-anchor="start" x="570.89" y="-1263.6" font-family="Arial" font-size="14.00">transactionTotalCost </text>
<text text-anchor="start" x="703.17" y="-1263.6" font-family="Arial" font-size="14.00" fill="#666666">[float]</text>
<polygon fill="none" stroke="black" points="563.89,-1220.6 563.89,-1251.4 872.84,-1251.4 872.84,-1220.6 563.89,-1220.6"/>
<text text-anchor="start" x="570.89" y="-1232.8" font-family="Arial" font-size="14.00">isOnHold </text>
<text text-anchor="start" x="632.36" y="-1232.8" font-family="Arial" font-size="14.00" fill="#666666">[boolean]</text>
<polygon fill="none" stroke="black" points="563.89,-1189.8 563.89,-1220.6 872.84,-1220.6 872.84,-1189.8 563.89,-1189.8"/>
<text text-anchor="start" x="570.89" y="-1202" font-family="Arial" font-size="14.00">onHoldQuantity </text>
<text text-anchor="start" x="671.28" y="-1202" font-family="Arial" font-size="14.00" fill="#666666">[float]</text>
<polygon fill="none" stroke="black" points="563.89,-1159 563.89,-1189.8 872.84,-1189.8 872.84,-1159 563.89,-1159"/>
<text text-anchor="start" x="570.89" y="-1171.2" font-family="Arial" font-size="14.00">availableQuantity </text>
<text text-anchor="start" x="682.18" y="-1171.2" font-family="Arial" font-size="14.00" fill="#666666">[float]</text>
<polygon fill="none" stroke="black" points="563.89,-1128.2 563.89,-1159 872.84,-1159 872.84,-1128.2 563.89,-1128.2"/>
<text text-anchor="start" x="570.89" y="-1140.4" font-family="Arial" font-size="14.00">inStockQuantity </text>
<text text-anchor="start" x="672.83" y="-1140.4" font-family="Arial" font-size="14.00" fill="#666666">[float]</text>
<polygon fill="none" stroke="black" points="563.89,-1097.4 563.89,-1128.2 872.84,-1128.2 872.84,-1097.4 563.89,-1097.4"/>
<text text-anchor="start" x="570.89" y="-1109.6" font-family="Arial" font-size="14.00">totalCost </text>
<text text-anchor="start" x="630.03" y="-1109.6" font-family="Arial" font-size="14.00" fill="#666666">[float]</text>
<polygon fill="none" stroke="black" points="563.89,-1066.6 563.89,-1097.4 872.84,-1097.4 872.84,-1066.6 563.89,-1066.6"/>
<text text-anchor="start" x="570.89" y="-1078.8" font-family="Arial" font-size="14.00">averageCost </text>
<text text-anchor="start" x="654.16" y="-1078.8" font-family="Arial" font-size="14.00" fill="#666666">[float]</text>
<polygon fill="none" stroke="black" points="563.89,-1035.8 563.89,-1066.6 872.84,-1066.6 872.84,-1035.8 563.89,-1035.8"/>
<text text-anchor="start" x="570.89" y="-1048" font-family="Arial" font-size="14.00">receiptLineItemID </text>
<text text-anchor="start" x="684.5" y="-1048" font-family="Arial" font-size="14.00" fill="#666666">[uuid]</text>
<polygon fill="none" stroke="black" points="563.89,-1005 563.89,-1035.8 872.84,-1035.8 872.84,-1005 563.89,-1005"/>
<text text-anchor="start" x="570.89" y="-1017.2" font-family="Arial" font-size="14.00">receiptLineItem </text>
<text text-anchor="start" x="670.5" y="-1017.2" font-family="Arial" font-size="14.00" fill="#666666">[ReceiptLineItem]</text>
<polygon fill="none" stroke="black" points="563.89,-974.2 563.89,-1005 872.84,-1005 872.84,-974.2 563.89,-974.2"/>
<text text-anchor="start" x="570.89" y="-986.4" font-family="Arial" font-size="14.00">shipmentLineItemID </text>
<text text-anchor="start" x="699.28" y="-986.4" font-family="Arial" font-size="14.00" fill="#666666">[uuid]</text>
<polygon fill="none" stroke="black" points="563.89,-943.4 563.89,-974.2 872.84,-974.2 872.84,-943.4 563.89,-943.4"/>
<text text-anchor="start" x="570.89" y="-955.6" font-family="Arial" font-size="14.00">shipmentLineItem </text>
<text text-anchor="start" x="685.28" y="-955.6" font-family="Arial" font-size="14.00" fill="#666666">[ShipmentLineItem]</text>
<polygon fill="none" stroke="black" points="563.89,-912.6 563.89,-943.4 872.84,-943.4 872.84,-912.6 563.89,-912.6"/>
<text text-anchor="start" x="570.89" y="-924.8" font-family="Arial" font-size="14.00">operationalStockEventID </text>
<text text-anchor="start" x="728.87" y="-924.8" font-family="Arial" font-size="14.00" fill="#666666">[uuid]</text>
<polygon fill="none" stroke="black" points="563.89,-881.8 563.89,-912.6 872.84,-912.6 872.84,-881.8 563.89,-881.8"/>
<text text-anchor="start" x="570.89" y="-894" font-family="Arial" font-size="14.00">operationalStockEvent </text>
<text text-anchor="start" x="714.87" y="-894" font-family="Arial" font-size="14.00" fill="#666666">[OperationalStockEvent]</text>
<polygon fill="none" stroke="black" stroke-width="3" points="562.39,-880.3 562.39,-1565.7 874.34,-1565.7 874.34,-880.3 562.39,-880.3"/>
</g>
<!-- ProductVariant -->
<g id="node2" class="node">
<title>ProductVariant</title>
<polygon fill="#efefef" stroke="none" points="43.2,-720.8 43.2,-756.4 295.53,-756.4 295.53,-720.8 43.2,-720.8"/>
<polygon fill="none" stroke="black" points="43.2,-720.8 43.2,-756.4 295.53,-756.4 295.53,-720.8 43.2,-720.8"/>
<text text-anchor="start" x="50.2" y="-734.2" font-family="Arial Bold" font-size="18.00">ProductVariant</text>
<text text-anchor="start" x="160.17" y="-734.2" font-family="Arial" font-size="14.00">    </text>
<text text-anchor="start" x="191.29" y="-734.2" font-family="Arial" font-size="14.00" fill="#666666">[TailorDB.Type]</text>
<polygon fill="none" stroke="black" points="43.2,-690 43.2,-720.8 295.53,-720.8 295.53,-690 43.2,-690"/>
<text text-anchor="start" x="50.2" y="-702.2" font-family="Arial" font-size="14.00">id </text>
<text text-anchor="start" x="64.99" y="-702.2" font-family="Arial" font-size="14.00" fill="#666666">[uuid]</text>
<polygon fill="none" stroke="black" points="43.2,-659.2 43.2,-690 295.53,-690 295.53,-659.2 43.2,-659.2"/>
<text text-anchor="start" x="50.2" y="-671.4" font-family="Arial" font-size="14.00">active </text>
<text text-anchor="start" x="90.66" y="-671.4" font-family="Arial" font-size="14.00" fill="#666666">[boolean]</text>
<polygon fill="none" stroke="black" points="43.2,-628.4 43.2,-659.2 295.53,-659.2 295.53,-628.4 43.2,-628.4"/>
<text text-anchor="start" x="50.2" y="-640.6" font-family="Arial" font-size="14.00">createdAt </text>
<text text-anchor="start" x="114.01" y="-640.6" font-family="Arial" font-size="14.00" fill="#666666">[datetime]</text>
<polygon fill="none" stroke="black" points="43.2,-597.6 43.2,-628.4 295.53,-628.4 295.53,-597.6 43.2,-597.6"/>
<text text-anchor="start" x="50.2" y="-609.8" font-family="Arial" font-size="14.00">shopifyID </text>
<text text-anchor="start" x="112.45" y="-609.8" font-family="Arial" font-size="14.00" fill="#666666">[string]</text>
<polygon fill="none" stroke="black" points="43.2,-566.8 43.2,-597.6 295.53,-597.6 295.53,-566.8 43.2,-566.8"/>
<text text-anchor="start" x="50.2" y="-579" font-family="Arial" font-size="14.00">availableForSale </text>
<text text-anchor="start" x="158.37" y="-579" font-family="Arial" font-size="14.00" fill="#666666">[boolean]</text>
<polygon fill="none" stroke="black" points="43.2,-536 43.2,-566.8 295.53,-566.8 295.53,-536 43.2,-536"/>
<text text-anchor="start" x="50.2" y="-548.2" font-family="Arial" font-size="14.00">barcode </text>
<text text-anchor="start" x="104.68" y="-548.2" font-family="Arial" font-size="14.00" fill="#666666">[string]</text>
<polygon fill="none" stroke="black" points="43.2,-505.2 43.2,-536 295.53,-536 295.53,-505.2 43.2,-505.2"/>
<text text-anchor="start" x="50.2" y="-517.4" font-family="Arial" font-size="14.00">sku </text>
<text text-anchor="start" x="75.88" y="-517.4" font-family="Arial" font-size="14.00" fill="#666666">[string]</text>
<polygon fill="none" stroke="black" points="43.2,-474.4 43.2,-505.2 295.53,-505.2 295.53,-474.4 43.2,-474.4"/>
<text text-anchor="start" x="50.2" y="-486.6" font-family="Arial" font-size="14.00">displayName </text>
<text text-anchor="start" x="135.01" y="-486.6" font-family="Arial" font-size="14.00" fill="#666666">[string]</text>
<polygon fill="none" stroke="black" points="43.2,-443.6 43.2,-474.4 295.53,-474.4 295.53,-443.6 43.2,-443.6"/>
<text text-anchor="start" x="50.2" y="-455.8" font-family="Arial" font-size="14.00">imageID </text>
<text text-anchor="start" x="106.22" y="-455.8" font-family="Arial" font-size="14.00" fill="#666666">[uuid]</text>
<polygon fill="none" stroke="black" points="43.2,-412.8 43.2,-443.6 295.53,-443.6 295.53,-412.8 43.2,-412.8"/>
<text text-anchor="start" x="50.2" y="-425" font-family="Arial" font-size="14.00">image </text>
<text text-anchor="start" x="92.22" y="-425" font-family="Arial" font-size="14.00" fill="#666666">[ProductImage]</text>
<polygon fill="none" stroke="black" points="43.2,-382 43.2,-412.8 295.53,-412.8 295.53,-382 43.2,-382"/>
<text text-anchor="start" x="50.2" y="-394.2" font-family="Arial" font-size="14.00">inventoryQuantity </text>
<text text-anchor="start" x="163.03" y="-394.2" font-family="Arial" font-size="14.00" fill="#666666">[integer]</text>
<polygon fill="none" stroke="black" points="43.2,-351.2 43.2,-382 295.53,-382 295.53,-351.2 43.2,-351.2"/>
<text text-anchor="start" x="50.2" y="-363.4" font-family="Arial" font-size="14.00">price </text>
<text text-anchor="start" x="84.43" y="-363.4" font-family="Arial" font-size="14.00" fill="#666666">[float]</text>
<polygon fill="none" stroke="black" points="43.2,-320.4 43.2,-351.2 295.53,-351.2 295.53,-320.4 43.2,-320.4"/>
<text text-anchor="start" x="50.2" y="-332.6" font-family="Arial" font-size="14.00">inventoryItemID </text>
<text text-anchor="start" x="152.12" y="-332.6" font-family="Arial" font-size="14.00" fill="#666666">[uuid]</text>
<polygon fill="none" stroke="black" points="43.2,-289.6 43.2,-320.4 295.53,-320.4 295.53,-289.6 43.2,-289.6"/>
<text text-anchor="start" x="50.2" y="-301.8" font-family="Arial" font-size="14.00">inventoryItem </text>
<text text-anchor="start" x="138.12" y="-301.8" font-family="Arial" font-size="14.00" fill="#666666">[InventoryItem]</text>
<polygon fill="none" stroke="black" points="43.2,-258.8 43.2,-289.6 295.53,-289.6 295.53,-258.8 43.2,-258.8"/>
<text text-anchor="start" x="50.2" y="-271" font-family="Arial" font-size="14.00">productID </text>
<text text-anchor="start" x="114.79" y="-271" font-family="Arial" font-size="14.00" fill="#666666">[uuid]</text>
<polygon fill="none" stroke="black" points="43.2,-228 43.2,-258.8 295.53,-258.8 295.53,-228 43.2,-228"/>
<text text-anchor="start" x="50.2" y="-240.2" font-family="Arial" font-size="14.00">product </text>
<text text-anchor="start" x="100.79" y="-240.2" font-family="Arial" font-size="14.00" fill="#666666">[Product]</text>
<polygon fill="none" stroke="black" points="43.2,-197.2 43.2,-228 295.53,-228 295.53,-197.2 43.2,-197.2"/>
<text text-anchor="start" x="50.2" y="-209.4" font-family="Arial" font-size="14.00">taxable </text>
<text text-anchor="start" x="99.23" y="-209.4" font-family="Arial" font-size="14.00" fill="#666666">[boolean]</text>
<polygon fill="none" stroke="black" points="43.2,-166.4 43.2,-197.2 295.53,-197.2 295.53,-166.4 43.2,-166.4"/>
<text text-anchor="start" x="50.2" y="-178.6" font-family="Arial" font-size="14.00">inventoryType </text>
<text text-anchor="start" x="142.02" y="-178.6" font-family="Arial" font-size="14.00" fill="#666666">[enum]</text>
<polygon fill="none" stroke="black" points="43.2,-135.6 43.2,-166.4 295.53,-166.4 295.53,-135.6 43.2,-135.6"/>
<text text-anchor="start" x="50.2" y="-147.8" font-family="Arial" font-size="14.00">quickbookItemId </text>
<text text-anchor="start" x="156.03" y="-147.8" font-family="Arial" font-size="14.00" fill="#666666">[string]</text>
<polygon fill="none" stroke="black" points="43.2,-104.8 43.2,-135.6 295.53,-135.6 295.53,-104.8 43.2,-104.8"/>
<text text-anchor="start" x="50.2" y="-117" font-family="Arial" font-size="14.00">quickbookSyncToken </text>
<text text-anchor="start" x="187.16" y="-117" font-family="Arial" font-size="14.00" fill="#666666">[string]</text>
<polygon fill="none" stroke="black" points="43.2,-74 43.2,-104.8 295.53,-104.8 295.53,-74 43.2,-74"/>
<text text-anchor="start" x="50.2" y="-86.2" font-family="Arial" font-size="14.00">quickbookItemName </text>
<text text-anchor="start" x="181.7" y="-86.2" font-family="Arial" font-size="14.00" fill="#666666">[string]</text>
<polygon fill="none" stroke="black" points="43.2,-43.2 43.2,-74 295.53,-74 295.53,-43.2 43.2,-43.2"/>
<text text-anchor="start" x="50.2" y="-55.4" font-family="Arial" font-size="14.00">updatedAt </text>
<text text-anchor="start" x="117.92" y="-55.4" font-family="Arial" font-size="14.00" fill="#666666">[datetime]</text>
</g>
<!-- FinancialStockEvent&#45;&gt;ProductVariant -->
<g id="edge1" class="edge">
<title>FinancialStockEvent:variantID&#45;&gt;ProductVariant:id</title>
<path fill="none" stroke="black" d="M554.62,-1383.66C501.62,-1314.64 335.03,-705.4 296.53,-705.4"/>
<polygon fill="black" stroke="black" points="554.69,-1383.71 559.89,-1393.37 558.92,-1386.96 562.36,-1389.59 562.36,-1389.59 562.36,-1389.59 558.92,-1386.96 565.36,-1386.23 554.69,-1383.71"/>
<text text-anchor="start" x="452.5" y="-1400" font-family="Arial" font-size="10.00">Source: ProductVariant</text>
</g>
<!-- ReceiptLineItem -->
<g id="node3" class="node">
<title>ReceiptLineItem</title>
<polygon fill="#efefef" stroke="none" points="399.71,-690 399.71,-725.6 663.02,-725.6 663.02,-690 399.71,-690"/>
<polygon fill="none" stroke="black" points="399.71,-690 399.71,-725.6 663.02,-725.6 663.02,-690 399.71,-690"/>
<text text-anchor="start" x="406.71" y="-703.4" font-family="Arial Bold" font-size="18.00">ReceiptLineItem</text>
<text text-anchor="start" x="527.66" y="-703.4" font-family="Arial" font-size="14.00">    </text>
<text text-anchor="start" x="558.77" y="-703.4" font-family="Arial" font-size="14.00" fill="#666666">[TailorDB.Type]</text>
<polygon fill="none" stroke="black" points="399.71,-659.2 399.71,-690 663.02,-690 663.02,-659.2 399.71,-659.2"/>
<text text-anchor="start" x="406.71" y="-671.4" font-family="Arial" font-size="14.00">id </text>
<text text-anchor="start" x="421.5" y="-671.4" font-family="Arial" font-size="14.00" fill="#666666">[uuid]</text>
<polygon fill="none" stroke="black" points="399.71,-628.4 399.71,-659.2 663.02,-659.2 663.02,-628.4 399.71,-628.4"/>
<text text-anchor="start" x="406.71" y="-640.6" font-family="Arial" font-size="14.00">active </text>
<text text-anchor="start" x="447.17" y="-640.6" font-family="Arial" font-size="14.00" fill="#666666">[boolean]</text>
<polygon fill="none" stroke="black" points="399.71,-597.6 399.71,-628.4 663.02,-628.4 663.02,-597.6 399.71,-597.6"/>
<text text-anchor="start" x="406.71" y="-609.8" font-family="Arial" font-size="14.00">createdAt </text>
<text text-anchor="start" x="470.52" y="-609.8" font-family="Arial" font-size="14.00" fill="#666666">[datetime]</text>
<polygon fill="none" stroke="black" points="399.71,-566.8 399.71,-597.6 663.02,-597.6 663.02,-566.8 399.71,-566.8"/>
<text text-anchor="start" x="406.71" y="-579" font-family="Arial" font-size="14.00">receiptID </text>
<text text-anchor="start" x="466.62" y="-579" font-family="Arial" font-size="14.00" fill="#666666">[uuid]</text>
<polygon fill="none" stroke="black" points="399.71,-536 399.71,-566.8 663.02,-566.8 663.02,-536 399.71,-536"/>
<text text-anchor="start" x="406.71" y="-548.2" font-family="Arial" font-size="14.00">receipt </text>
<text text-anchor="start" x="452.62" y="-548.2" font-family="Arial" font-size="14.00" fill="#666666">[Receipt]</text>
<polygon fill="none" stroke="black" points="399.71,-505.2 399.71,-536 663.02,-536 663.02,-505.2 399.71,-505.2"/>
<text text-anchor="start" x="406.71" y="-517.4" font-family="Arial" font-size="14.00">updatedAt </text>
<text text-anchor="start" x="474.43" y="-517.4" font-family="Arial" font-size="14.00" fill="#666666">[datetime]</text>
<polygon fill="none" stroke="black" points="399.71,-474.4 399.71,-505.2 663.02,-505.2 663.02,-474.4 399.71,-474.4"/>
<text text-anchor="start" x="406.71" y="-486.6" font-family="Arial" font-size="14.00">variantID </text>
<text text-anchor="start" x="466.62" y="-486.6" font-family="Arial" font-size="14.00" fill="#666666">[uuid]</text>
<polygon fill="none" stroke="black" points="399.71,-443.6 399.71,-474.4 663.02,-474.4 663.02,-443.6 399.71,-443.6"/>
<text text-anchor="start" x="406.71" y="-455.8" font-family="Arial" font-size="14.00">variant </text>
<text text-anchor="start" x="452.62" y="-455.8" font-family="Arial" font-size="14.00" fill="#666666">[ProductVariant]</text>
<polygon fill="none" stroke="black" points="399.71,-412.8 399.71,-443.6 663.02,-443.6 663.02,-412.8 399.71,-412.8"/>
<text text-anchor="start" x="406.71" y="-425" font-family="Arial" font-size="14.00">quantity </text>
<text text-anchor="start" x="459.64" y="-425" font-family="Arial" font-size="14.00" fill="#666666">[float]</text>
<polygon fill="none" stroke="black" points="399.71,-382 399.71,-412.8 663.02,-412.8 663.02,-382 399.71,-382"/>
<text text-anchor="start" x="406.71" y="-394.2" font-family="Arial" font-size="14.00">subtotalUnitCost </text>
<text text-anchor="start" x="513.32" y="-394.2" font-family="Arial" font-size="14.00" fill="#666666">[float]</text>
<polygon fill="none" stroke="black" points="399.71,-351.2 399.71,-382 663.02,-382 663.02,-351.2 399.71,-351.2"/>
<text text-anchor="start" x="406.71" y="-363.4" font-family="Arial" font-size="14.00">subtotalCost </text>
<text text-anchor="start" x="488.42" y="-363.4" font-family="Arial" font-size="14.00" fill="#666666">[float]</text>
<polygon fill="none" stroke="black" points="399.71,-320.4 399.71,-351.2 663.02,-351.2 663.02,-320.4 399.71,-320.4"/>
<text text-anchor="start" x="406.71" y="-332.6" font-family="Arial" font-size="14.00">cubicMeters </text>
<text text-anchor="start" x="486.07" y="-332.6" font-family="Arial" font-size="14.00" fill="#666666">[float]</text>
<polygon fill="none" stroke="black" points="399.71,-289.6 399.71,-320.4 663.02,-320.4 663.02,-289.6 399.71,-289.6"/>
<text text-anchor="start" x="406.71" y="-301.8" font-family="Arial" font-size="14.00">costPools </text>
<text text-anchor="start" x="471.3" y="-301.8" font-family="Arial" font-size="14.00" fill="#666666">[Array\&lt;nested\&gt;]</text>
<polygon fill="none" stroke="black" points="399.71,-258.8 399.71,-289.6 663.02,-289.6 663.02,-258.8 399.71,-258.8"/>
<text text-anchor="start" x="406.71" y="-271" font-family="Arial" font-size="14.00">costPools.costPoolID </text>
<text text-anchor="start" x="542.88" y="-271" font-family="Arial" font-size="14.00" fill="#666666">[uuid]</text>
<polygon fill="none" stroke="black" points="399.71,-228 399.71,-258.8 663.02,-258.8 663.02,-228 399.71,-228"/>
<text text-anchor="start" x="406.71" y="-240.2" font-family="Arial" font-size="14.00">costPools.costPool </text>
<text text-anchor="start" x="528.88" y="-240.2" font-family="Arial" font-size="14.00" fill="#666666">[CostPool]</text>
<polygon fill="none" stroke="black" points="399.71,-197.2 399.71,-228 663.02,-228 663.02,-197.2 399.71,-197.2"/>
<text text-anchor="start" x="406.71" y="-209.4" font-family="Arial" font-size="14.00">totalCostPoolAllocation </text>
<text text-anchor="start" x="554.57" y="-209.4" font-family="Arial" font-size="14.00" fill="#666666">[float]</text>
<polygon fill="none" stroke="black" points="399.71,-166.4 399.71,-197.2 663.02,-197.2 663.02,-166.4 399.71,-166.4"/>
<text text-anchor="start" x="406.71" y="-178.6" font-family="Arial" font-size="14.00">unitCostPoolAllocation </text>
<text text-anchor="start" x="550.68" y="-178.6" font-family="Arial" font-size="14.00" fill="#666666">[float]</text>
<polygon fill="none" stroke="black" points="399.71,-135.6 399.71,-166.4 663.02,-166.4 663.02,-135.6 399.71,-135.6"/>
<text text-anchor="start" x="406.71" y="-147.8" font-family="Arial" font-size="14.00">totalUnitCost </text>
<text text-anchor="start" x="490.75" y="-147.8" font-family="Arial" font-size="14.00" fill="#666666">[float]</text>
<polygon fill="none" stroke="black" points="399.71,-104.8 399.71,-135.6 663.02,-135.6 663.02,-104.8 399.71,-104.8"/>
<text text-anchor="start" x="406.71" y="-117" font-family="Arial" font-size="14.00">receiptStatus </text>
<text text-anchor="start" x="492.31" y="-117" font-family="Arial" font-size="14.00" fill="#666666">[enum]</text>
<polygon fill="none" stroke="black" points="399.71,-74 399.71,-104.8 663.02,-104.8 663.02,-74 399.71,-74"/>
<text text-anchor="start" x="406.71" y="-86.2" font-family="Arial" font-size="14.00">receivedAt </text>
<text text-anchor="start" x="476.75" y="-86.2" font-family="Arial" font-size="14.00" fill="#666666">[datetime]</text>
</g>
<!-- FinancialStockEvent&#45;&gt;ReceiptLineItem -->
<g id="edge2" class="edge">
<title>FinancialStockEvent:receiptLineItemID&#45;&gt;ReceiptLineItem:id</title>
<path fill="none" stroke="black" d="M552.58,-1050.64C470.99,-1041.28 520.41,-916.87 563.89,-835.6 588.95,-788.75 637.82,-815.57 663.02,-768.8 682.88,-731.94 705.89,-674.6 664.02,-674.6"/>
<polygon fill="black" stroke="black" points="552.57,-1050.64 562.31,-1055.68 557.9,-1050.93 562.22,-1051.16 562.22,-1051.16 562.22,-1051.16 557.9,-1050.93 562.8,-1046.69 552.57,-1050.64"/>
<text text-anchor="start" x="404.71" y="-1061.2" font-family="Arial" font-size="10.00">ForeignKeyType: ReceiptLineItem</text>
</g>
<!-- ShipmentLineItem -->
<g id="node4" class="node">
<title>ShipmentLineItem</title>
<polygon fill="#efefef" stroke="none" points="767.7,-597.6 767.7,-633.2 1045.04,-633.2 1045.04,-597.6 767.7,-597.6"/>
<polygon fill="none" stroke="black" points="767.7,-597.6 767.7,-633.2 1045.04,-633.2 1045.04,-597.6 767.7,-597.6"/>
<text text-anchor="start" x="774.7" y="-611" font-family="Arial Bold" font-size="18.00">ShipmentLineItem</text>
<text text-anchor="start" x="909.67" y="-611" font-family="Arial" font-size="14.00">    </text>
<text text-anchor="start" x="940.79" y="-611" font-family="Arial" font-size="14.00" fill="#666666">[TailorDB.Type]</text>
<polygon fill="none" stroke="black" points="767.7,-566.8 767.7,-597.6 1045.04,-597.6 1045.04,-566.8 767.7,-566.8"/>
<text text-anchor="start" x="774.7" y="-579" font-family="Arial" font-size="14.00">id </text>
<text text-anchor="start" x="789.48" y="-579" font-family="Arial" font-size="14.00" fill="#666666">[uuid]</text>
<polygon fill="none" stroke="black" points="767.7,-536 767.7,-566.8 1045.04,-566.8 1045.04,-536 767.7,-536"/>
<text text-anchor="start" x="774.7" y="-548.2" font-family="Arial" font-size="14.00">active </text>
<text text-anchor="start" x="815.16" y="-548.2" font-family="Arial" font-size="14.00" fill="#666666">[boolean]</text>
<polygon fill="none" stroke="black" points="767.7,-505.2 767.7,-536 1045.04,-536 1045.04,-505.2 767.7,-505.2"/>
<text text-anchor="start" x="774.7" y="-517.4" font-family="Arial" font-size="14.00">createdAt </text>
<text text-anchor="start" x="838.51" y="-517.4" font-family="Arial" font-size="14.00" fill="#666666">[datetime]</text>
<polygon fill="none" stroke="black" points="767.7,-474.4 767.7,-505.2 1045.04,-505.2 1045.04,-474.4 767.7,-474.4"/>
<text text-anchor="start" x="774.7" y="-486.6" font-family="Arial" font-size="14.00">shipmentID </text>
<text text-anchor="start" x="849.39" y="-486.6" font-family="Arial" font-size="14.00" fill="#666666">[uuid]</text>
<polygon fill="none" stroke="black" points="767.7,-443.6 767.7,-474.4 1045.04,-474.4 1045.04,-443.6 767.7,-443.6"/>
<text text-anchor="start" x="774.7" y="-455.8" font-family="Arial" font-size="14.00">shipment </text>
<text text-anchor="start" x="835.39" y="-455.8" font-family="Arial" font-size="14.00" fill="#666666">[Shipment]</text>
<polygon fill="none" stroke="black" points="767.7,-412.8 767.7,-443.6 1045.04,-443.6 1045.04,-412.8 767.7,-412.8"/>
<text text-anchor="start" x="774.7" y="-425" font-family="Arial" font-size="14.00">unitCost </text>
<text text-anchor="start" x="829.95" y="-425" font-family="Arial" font-size="14.00" fill="#666666">[float]</text>
<polygon fill="none" stroke="black" points="767.7,-382 767.7,-412.8 1045.04,-412.8 1045.04,-382 767.7,-382"/>
<text text-anchor="start" x="774.7" y="-394.2" font-family="Arial" font-size="14.00">unitPrice </text>
<text text-anchor="start" x="833.06" y="-394.2" font-family="Arial" font-size="14.00" fill="#666666">[float]</text>
<polygon fill="none" stroke="black" points="767.7,-351.2 767.7,-382 1045.04,-382 1045.04,-351.2 767.7,-351.2"/>
<text text-anchor="start" x="774.7" y="-363.4" font-family="Arial" font-size="14.00">updatedAt </text>
<text text-anchor="start" x="842.42" y="-363.4" font-family="Arial" font-size="14.00" fill="#666666">[datetime]</text>
<polygon fill="none" stroke="black" points="767.7,-320.4 767.7,-351.2 1045.04,-351.2 1045.04,-320.4 767.7,-320.4"/>
<text text-anchor="start" x="774.7" y="-332.6" font-family="Arial" font-size="14.00">variantID </text>
<text text-anchor="start" x="834.61" y="-332.6" font-family="Arial" font-size="14.00" fill="#666666">[uuid]</text>
<polygon fill="none" stroke="black" points="767.7,-289.6 767.7,-320.4 1045.04,-320.4 1045.04,-289.6 767.7,-289.6"/>
<text text-anchor="start" x="774.7" y="-301.8" font-family="Arial" font-size="14.00">variant </text>
<text text-anchor="start" x="820.61" y="-301.8" font-family="Arial" font-size="14.00" fill="#666666">[ProductVariant]</text>
<polygon fill="none" stroke="black" points="767.7,-258.8 767.7,-289.6 1045.04,-289.6 1045.04,-258.8 767.7,-258.8"/>
<text text-anchor="start" x="774.7" y="-271" font-family="Arial" font-size="14.00">quantity </text>
<text text-anchor="start" x="827.62" y="-271" font-family="Arial" font-size="14.00" fill="#666666">[float]</text>
<polygon fill="none" stroke="black" points="767.7,-228 767.7,-258.8 1045.04,-258.8 1045.04,-228 767.7,-228"/>
<text text-anchor="start" x="774.7" y="-240.2" font-family="Arial" font-size="14.00">taxable </text>
<text text-anchor="start" x="823.73" y="-240.2" font-family="Arial" font-size="14.00" fill="#666666">[boolean]</text>
<polygon fill="none" stroke="black" points="767.7,-197.2 767.7,-228 1045.04,-228 1045.04,-197.2 767.7,-197.2"/>
<text text-anchor="start" x="774.7" y="-209.4" font-family="Arial" font-size="14.00">shipmentStatus </text>
<text text-anchor="start" x="875.08" y="-209.4" font-family="Arial" font-size="14.00" fill="#666666">[enum]</text>
<polygon fill="none" stroke="black" points="767.7,-166.4 767.7,-197.2 1045.04,-197.2 1045.04,-166.4 767.7,-166.4"/>
<text text-anchor="start" x="774.7" y="-178.6" font-family="Arial" font-size="14.00">shippedAt </text>
<text text-anchor="start" x="840.86" y="-178.6" font-family="Arial" font-size="14.00" fill="#666666">[datetime]</text>
</g>
<!-- FinancialStockEvent&#45;&gt;ShipmentLineItem -->
<g id="edge3" class="edge">
<title>FinancialStockEvent:shipmentLineItemID&#45;&gt;ShipmentLineItem:id</title>
<path fill="none" stroke="black" d="M884.04,-988.82C936.96,-979.99 891.66,-897.51 872.84,-835.6 848.18,-754.47 792.53,-757.48 767.7,-676.4 755.44,-636.37 724.83,-582.2 766.7,-582.2"/>
<polygon fill="black" stroke="black" points="884.15,-988.82 873.83,-985.09 878.83,-989.22 874.51,-989.55 874.51,-989.55 874.51,-989.55 878.83,-989.22 874.52,-994.06 884.15,-988.82"/>
<text text-anchor="start" x="880.84" y="-999.6" font-family="Arial" font-size="10.00">ForeignKeyType: ShipmentLineItem</text>
</g>
<!-- OperationalStockEvent -->
<g id="node5" class="node">
<title>OperationalStockEvent</title>
<polygon fill="#efefef" stroke="none" points="1149.21,-705.4 1149.21,-741 1459.52,-741 1459.52,-705.4 1149.21,-705.4"/>
<polygon fill="none" stroke="black" points="1149.21,-705.4 1149.21,-741 1459.52,-741 1459.52,-705.4 1149.21,-705.4"/>
<text text-anchor="start" x="1156.21" y="-718.8" font-family="Arial Bold" font-size="18.00">OperationalStockEvent</text>
<text text-anchor="start" x="1324.16" y="-718.8" font-family="Arial" font-size="14.00">    </text>
<text text-anchor="start" x="1355.28" y="-718.8" font-family="Arial" font-size="14.00" fill="#666666">[TailorDB.Type]</text>
<polygon fill="none" stroke="black" points="1149.21,-674.6 1149.21,-705.4 1459.52,-705.4 1459.52,-674.6 1149.21,-674.6"/>
<text text-anchor="start" x="1156.21" y="-686.8" font-family="Arial" font-size="14.00">id </text>
<text text-anchor="start" x="1171" y="-686.8" font-family="Arial" font-size="14.00" fill="#666666">[uuid]</text>
<polygon fill="none" stroke="black" points="1149.21,-643.8 1149.21,-674.6 1459.52,-674.6 1459.52,-643.8 1149.21,-643.8"/>
<text text-anchor="start" x="1156.21" y="-656" font-family="Arial" font-size="14.00">active </text>
<text text-anchor="start" x="1196.67" y="-656" font-family="Arial" font-size="14.00" fill="#666666">[boolean]</text>
<polygon fill="none" stroke="black" points="1149.21,-613 1149.21,-643.8 1459.52,-643.8 1459.52,-613 1149.21,-613"/>
<text text-anchor="start" x="1156.21" y="-625.2" font-family="Arial" font-size="14.00">createdAt </text>
<text text-anchor="start" x="1220.02" y="-625.2" font-family="Arial" font-size="14.00" fill="#666666">[datetime]</text>
<polygon fill="none" stroke="black" points="1149.21,-582.2 1149.21,-613 1459.52,-613 1459.52,-582.2 1149.21,-582.2"/>
<text text-anchor="start" x="1156.21" y="-594.4" font-family="Arial" font-size="14.00">updatedAt </text>
<text text-anchor="start" x="1223.93" y="-594.4" font-family="Arial" font-size="14.00" fill="#666666">[datetime]</text>
<polygon fill="none" stroke="black" points="1149.21,-551.4 1149.21,-582.2 1459.52,-582.2 1459.52,-551.4 1149.21,-551.4"/>
<text text-anchor="start" x="1156.21" y="-563.6" font-family="Arial" font-size="14.00">variantID </text>
<text text-anchor="start" x="1216.12" y="-563.6" font-family="Arial" font-size="14.00" fill="#666666">[uuid]</text>
<polygon fill="none" stroke="black" points="1149.21,-520.6 1149.21,-551.4 1459.52,-551.4 1459.52,-520.6 1149.21,-520.6"/>
<text text-anchor="start" x="1156.21" y="-532.8" font-family="Arial" font-size="14.00">variant </text>
<text text-anchor="start" x="1202.12" y="-532.8" font-family="Arial" font-size="14.00" fill="#666666">[ProductVariant]</text>
<polygon fill="none" stroke="black" points="1149.21,-489.8 1149.21,-520.6 1459.52,-520.6 1459.52,-489.8 1149.21,-489.8"/>
<text text-anchor="start" x="1156.21" y="-502" font-family="Arial" font-size="14.00">incrementalQuantity </text>
<text text-anchor="start" x="1284.6" y="-502" font-family="Arial" font-size="14.00" fill="#666666">[float]</text>
<polygon fill="none" stroke="black" points="1149.21,-459 1149.21,-489.8 1459.52,-489.8 1459.52,-459 1149.21,-459"/>
<text text-anchor="start" x="1156.21" y="-471.2" font-family="Arial" font-size="14.00">unitCost </text>
<text text-anchor="start" x="1211.46" y="-471.2" font-family="Arial" font-size="14.00" fill="#666666">[float]</text>
<polygon fill="none" stroke="black" points="1149.21,-428.2 1149.21,-459 1459.52,-459 1459.52,-428.2 1149.21,-428.2"/>
<text text-anchor="start" x="1156.21" y="-440.4" font-family="Arial" font-size="14.00">transactionTotalCost </text>
<text text-anchor="start" x="1288.49" y="-440.4" font-family="Arial" font-size="14.00" fill="#666666">[float]</text>
<polygon fill="none" stroke="black" points="1149.21,-397.4 1149.21,-428.2 1459.52,-428.2 1459.52,-397.4 1149.21,-397.4"/>
<text text-anchor="start" x="1156.21" y="-409.6" font-family="Arial" font-size="14.00">isOnHold </text>
<text text-anchor="start" x="1217.68" y="-409.6" font-family="Arial" font-size="14.00" fill="#666666">[boolean]</text>
<polygon fill="none" stroke="black" points="1149.21,-366.6 1149.21,-397.4 1459.52,-397.4 1459.52,-366.6 1149.21,-366.6"/>
<text text-anchor="start" x="1156.21" y="-378.8" font-family="Arial" font-size="14.00">onHoldQuantity </text>
<text text-anchor="start" x="1256.6" y="-378.8" font-family="Arial" font-size="14.00" fill="#666666">[float]</text>
<polygon fill="none" stroke="black" points="1149.21,-335.8 1149.21,-366.6 1459.52,-366.6 1459.52,-335.8 1149.21,-335.8"/>
<text text-anchor="start" x="1156.21" y="-348" font-family="Arial" font-size="14.00">availableQuantity </text>
<text text-anchor="start" x="1267.5" y="-348" font-family="Arial" font-size="14.00" fill="#666666">[float]</text>
<polygon fill="none" stroke="black" points="1149.21,-305 1149.21,-335.8 1459.52,-335.8 1459.52,-305 1149.21,-305"/>
<text text-anchor="start" x="1156.21" y="-317.2" font-family="Arial" font-size="14.00">inStockQuantity </text>
<text text-anchor="start" x="1258.15" y="-317.2" font-family="Arial" font-size="14.00" fill="#666666">[float]</text>
<polygon fill="none" stroke="black" points="1149.21,-274.2 1149.21,-305 1459.52,-305 1459.52,-274.2 1149.21,-274.2"/>
<text text-anchor="start" x="1156.21" y="-286.4" font-family="Arial" font-size="14.00">totalCost </text>
<text text-anchor="start" x="1215.35" y="-286.4" font-family="Arial" font-size="14.00" fill="#666666">[float]</text>
<polygon fill="none" stroke="black" points="1149.21,-243.4 1149.21,-274.2 1459.52,-274.2 1459.52,-243.4 1149.21,-243.4"/>
<text text-anchor="start" x="1156.21" y="-255.6" font-family="Arial" font-size="14.00">averageCost </text>
<text text-anchor="start" x="1239.48" y="-255.6" font-family="Arial" font-size="14.00" fill="#666666">[float]</text>
<polygon fill="none" stroke="black" points="1149.21,-212.6 1149.21,-243.4 1459.52,-243.4 1459.52,-212.6 1149.21,-212.6"/>
<text text-anchor="start" x="1156.21" y="-224.8" font-family="Arial" font-size="14.00">receiptLineItemID </text>
<text text-anchor="start" x="1269.82" y="-224.8" font-family="Arial" font-size="14.00" fill="#666666">[uuid]</text>
<polygon fill="none" stroke="black" points="1149.21,-181.8 1149.21,-212.6 1459.52,-212.6 1459.52,-181.8 1149.21,-181.8"/>
<text text-anchor="start" x="1156.21" y="-194" font-family="Arial" font-size="14.00">receiptLineItem </text>
<text text-anchor="start" x="1255.82" y="-194" font-family="Arial" font-size="14.00" fill="#666666">[ReceiptLineItem]</text>
<polygon fill="none" stroke="black" points="1149.21,-151 1149.21,-181.8 1459.52,-181.8 1459.52,-151 1149.21,-151"/>
<text text-anchor="start" x="1156.21" y="-163.2" font-family="Arial" font-size="14.00">shipmentLineItemID </text>
<text text-anchor="start" x="1284.6" y="-163.2" font-family="Arial" font-size="14.00" fill="#666666">[uuid]</text>
<polygon fill="none" stroke="black" points="1149.21,-120.2 1149.21,-151 1459.52,-151 1459.52,-120.2 1149.21,-120.2"/>
<text text-anchor="start" x="1156.21" y="-132.4" font-family="Arial" font-size="14.00">shipmentLineItem </text>
<text text-anchor="start" x="1270.6" y="-132.4" font-family="Arial" font-size="14.00" fill="#666666">[ShipmentLineItem]</text>
<polygon fill="none" stroke="black" points="1149.21,-89.4 1149.21,-120.2 1459.52,-120.2 1459.52,-89.4 1149.21,-89.4"/>
<text text-anchor="start" x="1156.21" y="-101.6" font-family="Arial" font-size="14.00">sequence </text>
<text text-anchor="start" x="1220.82" y="-101.6" font-family="Arial" font-size="14.00" fill="#666666">[integer]</text>
<polygon fill="none" stroke="black" points="1149.21,-58.6 1149.21,-89.4 1459.52,-89.4 1459.52,-58.6 1149.21,-58.6"/>
<text text-anchor="start" x="1156.21" y="-70.8" font-family="Arial" font-size="14.00">copiedToFinancialLedger </text>
<text text-anchor="start" x="1317.31" y="-70.8" font-family="Arial" font-size="14.00" fill="#666666">[boolean]</text>
</g>
<!-- FinancialStockEvent&#45;&gt;OperationalStockEvent -->
<g id="edge4" class="edge">
<title>FinancialStockEvent:operationalStockEventID&#45;&gt;OperationalStockEvent:id</title>
<path fill="none" stroke="black" d="M884.02,-927.88C990.36,-925.3 1022.3,-881.5 1097.37,-799.6 1133.65,-760.01 1094.51,-690 1148.21,-690"/>
<polygon fill="black" stroke="black" points="884.18,-927.88 874.12,-923.5 878.84,-927.94 874.51,-927.99 874.51,-927.99 874.51,-927.99 878.84,-927.94 874.23,-932.5 884.18,-927.88"/>
<text text-anchor="start" x="880.84" y="-938" font-family="Arial" font-size="10.00">ForeignKeyType: OperationalStockEvent</text>
</g>
</g>
</svg>
