<?xml version="1.0" encoding="UTF-8" standalone="no"?>
<!DOCTYPE svg PUBLIC "-//W3C//DTD SVG 1.1//EN"
 "http://www.w3.org/Graphics/SVG/1.1/DTD/svg11.dtd">
<!-- Generated by graphviz version 12.1.2 (20240928.0832)
 -->
<!-- Title: InventoryLevel Pages: 1 -->
<svg width="650pt" height="1002pt"
 viewBox="0.00 0.00 650.23 1002.40" xmlns="http://www.w3.org/2000/svg" xmlns:xlink="http://www.w3.org/1999/xlink">
<g id="graph0" class="graph" transform="scale(1 1) rotate(0) translate(4 998.4)">
<title>InventoryLevel</title>
<polygon fill="white" stroke="none" points="-4,4 -4,-998.4 646.23,-998.4 646.23,4 -4,4"/>
<!-- InventoryLevel -->
<g id="node1" class="node">
<title>InventoryLevel</title>
<polygon fill="#efefef" stroke="none" points="184.71,-912.6 184.71,-948.2 438.03,-948.2 438.03,-912.6 184.71,-912.6"/>
<polygon fill="none" stroke="black" points="184.71,-912.6 184.71,-948.2 438.03,-948.2 438.03,-912.6 184.71,-912.6"/>
<text text-anchor="start" x="191.71" y="-926" font-family="Arial Bold" font-size="18.00">InventoryLevel</text>
<text text-anchor="start" x="302.66" y="-926" font-family="Arial" font-size="14.00">    </text>
<text text-anchor="start" x="333.78" y="-926" font-family="Arial" font-size="14.00" fill="#666666">[TailorDB.Type]</text>
<polygon fill="none" stroke="black" points="184.71,-881.8 184.71,-912.6 438.03,-912.6 438.03,-881.8 184.71,-881.8"/>
<text text-anchor="start" x="191.71" y="-894" font-family="Arial" font-size="14.00">id </text>
<text text-anchor="start" x="206.5" y="-894" font-family="Arial" font-size="14.00" fill="#666666">[uuid]</text>
<polygon fill="none" stroke="black" points="184.71,-851 184.71,-881.8 438.03,-881.8 438.03,-851 184.71,-851"/>
<text text-anchor="start" x="191.71" y="-863.2" font-family="Arial" font-size="14.00">active </text>
<text text-anchor="start" x="232.17" y="-863.2" font-family="Arial" font-size="14.00" fill="#666666">[boolean]</text>
<polygon fill="none" stroke="black" points="184.71,-820.2 184.71,-851 438.03,-851 438.03,-820.2 184.71,-820.2"/>
<text text-anchor="start" x="191.71" y="-832.4" font-family="Arial" font-size="14.00">createdAt </text>
<text text-anchor="start" x="255.52" y="-832.4" font-family="Arial" font-size="14.00" fill="#666666">[datetime]</text>
<polygon fill="none" stroke="black" points="184.71,-789.4 184.71,-820.2 438.03,-820.2 438.03,-789.4 184.71,-789.4"/>
<text text-anchor="start" x="191.71" y="-801.6" font-family="Arial" font-size="14.00">locationID </text>
<text text-anchor="start" x="257.86" y="-801.6" font-family="Arial" font-size="14.00" fill="#666666">[uuid]</text>
<polygon fill="none" stroke="black" points="184.71,-758.6 184.71,-789.4 438.03,-789.4 438.03,-758.6 184.71,-758.6"/>
<text text-anchor="start" x="191.71" y="-770.8" font-family="Arial" font-size="14.00">location </text>
<text text-anchor="start" x="243.86" y="-770.8" font-family="Arial" font-size="14.00" fill="#666666">[Location]</text>
<polygon fill="none" stroke="black" points="184.71,-727.8 184.71,-758.6 438.03,-758.6 438.03,-727.8 184.71,-727.8"/>
<text text-anchor="start" x="191.71" y="-740" font-family="Arial" font-size="14.00">inventoryItemID </text>
<text text-anchor="start" x="293.64" y="-740" font-family="Arial" font-size="14.00" fill="#666666">[uuid]</text>
<polygon fill="none" stroke="black" points="184.71,-697 184.71,-727.8 438.03,-727.8 438.03,-697 184.71,-697"/>
<text text-anchor="start" x="191.71" y="-709.2" font-family="Arial" font-size="14.00">inventoryItem </text>
<text text-anchor="start" x="279.64" y="-709.2" font-family="Arial" font-size="14.00" fill="#666666">[InventoryItem]</text>
<polygon fill="none" stroke="black" points="184.71,-666.2 184.71,-697 438.03,-697 438.03,-666.2 184.71,-666.2"/>
<text text-anchor="start" x="191.71" y="-678.4" font-family="Arial" font-size="14.00">available </text>
<text text-anchor="start" x="250.86" y="-678.4" font-family="Arial" font-size="14.00" fill="#666666">[integer]</text>
<polygon fill="none" stroke="black" points="184.71,-635.4 184.71,-666.2 438.03,-666.2 438.03,-635.4 184.71,-635.4"/>
<text text-anchor="start" x="191.71" y="-647.6" font-family="Arial" font-size="14.00">committed </text>
<text text-anchor="start" x="260.17" y="-647.6" font-family="Arial" font-size="14.00" fill="#666666">[integer]</text>
<polygon fill="none" stroke="black" points="184.71,-604.6 184.71,-635.4 438.03,-635.4 438.03,-604.6 184.71,-604.6"/>
<text text-anchor="start" x="191.71" y="-616.8" font-family="Arial" font-size="14.00">reserved </text>
<text text-anchor="start" x="250.07" y="-616.8" font-family="Arial" font-size="14.00" fill="#666666">[integer]</text>
<polygon fill="none" stroke="black" points="184.71,-573.8 184.71,-604.6 438.03,-604.6 438.03,-573.8 184.71,-573.8"/>
<text text-anchor="start" x="191.71" y="-586" font-family="Arial" font-size="14.00">damaged </text>
<text text-anchor="start" x="253.98" y="-586" font-family="Arial" font-size="14.00" fill="#666666">[integer]</text>
<polygon fill="none" stroke="black" points="184.71,-543 184.71,-573.8 438.03,-573.8 438.03,-543 184.71,-543"/>
<text text-anchor="start" x="191.71" y="-555.2" font-family="Arial" font-size="14.00">safetyStock </text>
<text text-anchor="start" x="267.97" y="-555.2" font-family="Arial" font-size="14.00" fill="#666666">[integer]</text>
<polygon fill="none" stroke="black" points="184.71,-512.2 184.71,-543 438.03,-543 438.03,-512.2 184.71,-512.2"/>
<text text-anchor="start" x="191.71" y="-524.4" font-family="Arial" font-size="14.00">qualityControl </text>
<text text-anchor="start" x="281.2" y="-524.4" font-family="Arial" font-size="14.00" fill="#666666">[integer]</text>
<polygon fill="none" stroke="black" points="184.71,-481.4 184.71,-512.2 438.03,-512.2 438.03,-481.4 184.71,-481.4"/>
<text text-anchor="start" x="191.71" y="-493.6" font-family="Arial" font-size="14.00">onHand </text>
<text text-anchor="start" x="244.64" y="-493.6" font-family="Arial" font-size="14.00" fill="#666666">[integer]</text>
<polygon fill="none" stroke="black" points="184.71,-450.6 184.71,-481.4 438.03,-481.4 438.03,-450.6 184.71,-450.6"/>
<text text-anchor="start" x="191.71" y="-462.8" font-family="Arial" font-size="14.00">incoming </text>
<text text-anchor="start" x="251.63" y="-462.8" font-family="Arial" font-size="14.00" fill="#666666">[integer]</text>
<polygon fill="none" stroke="black" points="184.71,-419.8 184.71,-450.6 438.03,-450.6 438.03,-419.8 184.71,-419.8"/>
<text text-anchor="start" x="191.71" y="-432" font-family="Arial" font-size="14.00">updatedAt </text>
<text text-anchor="start" x="259.43" y="-432" font-family="Arial" font-size="14.00" fill="#666666">[datetime]</text>
<polygon fill="none" stroke="black" stroke-width="3" points="183.21,-418.3 183.21,-949.7 439.53,-949.7 439.53,-418.3 183.21,-418.3"/>
</g>
<!-- Location -->
<g id="node2" class="node">
<title>Location</title>
<polygon fill="#efefef" stroke="none" points="43.2,-243.4 43.2,-279 249.54,-279 249.54,-243.4 43.2,-243.4"/>
<polygon fill="none" stroke="black" points="43.2,-243.4 43.2,-279 249.54,-279 249.54,-243.4 43.2,-243.4"/>
<text text-anchor="start" x="50.2" y="-256.8" font-family="Arial Bold" font-size="18.00">Location</text>
<text text-anchor="start" x="114.18" y="-256.8" font-family="Arial" font-size="14.00">    </text>
<text text-anchor="start" x="145.29" y="-256.8" font-family="Arial" font-size="14.00" fill="#666666">[TailorDB.Type]</text>
<polygon fill="none" stroke="black" points="43.2,-212.6 43.2,-243.4 249.54,-243.4 249.54,-212.6 43.2,-212.6"/>
<text text-anchor="start" x="50.2" y="-224.8" font-family="Arial" font-size="14.00">id </text>
<text text-anchor="start" x="64.99" y="-224.8" font-family="Arial" font-size="14.00" fill="#666666">[uuid]</text>
<polygon fill="none" stroke="black" points="43.2,-181.8 43.2,-212.6 249.54,-212.6 249.54,-181.8 43.2,-181.8"/>
<text text-anchor="start" x="50.2" y="-194" font-family="Arial" font-size="14.00">active </text>
<text text-anchor="start" x="90.66" y="-194" font-family="Arial" font-size="14.00" fill="#666666">[boolean]</text>
<polygon fill="none" stroke="black" points="43.2,-151 43.2,-181.8 249.54,-181.8 249.54,-151 43.2,-151"/>
<text text-anchor="start" x="50.2" y="-163.2" font-family="Arial" font-size="14.00">createdAt </text>
<text text-anchor="start" x="114.01" y="-163.2" font-family="Arial" font-size="14.00" fill="#666666">[datetime]</text>
<polygon fill="none" stroke="black" points="43.2,-120.2 43.2,-151 249.54,-151 249.54,-120.2 43.2,-120.2"/>
<text text-anchor="start" x="50.2" y="-132.4" font-family="Arial" font-size="14.00">name </text>
<text text-anchor="start" x="89.11" y="-132.4" font-family="Arial" font-size="14.00" fill="#666666">[string]</text>
<polygon fill="none" stroke="black" points="43.2,-89.4 43.2,-120.2 249.54,-120.2 249.54,-89.4 43.2,-89.4"/>
<text text-anchor="start" x="50.2" y="-101.6" font-family="Arial" font-size="14.00">shopifyID </text>
<text text-anchor="start" x="112.45" y="-101.6" font-family="Arial" font-size="14.00" fill="#666666">[string]</text>
<polygon fill="none" stroke="black" points="43.2,-58.6 43.2,-89.4 249.54,-89.4 249.54,-58.6 43.2,-58.6"/>
<text text-anchor="start" x="50.2" y="-70.8" font-family="Arial" font-size="14.00">updatedAt </text>
<text text-anchor="start" x="117.92" y="-70.8" font-family="Arial" font-size="14.00" fill="#666666">[datetime]</text>
</g>
<!-- InventoryLevel&#45;&gt;Location -->
<g id="edge1" class="edge">
<title>InventoryLevel:locationID&#45;&gt;Location:id</title>
<path fill="none" stroke="black" d="M173.35,-804.53C-3.9,-795.23 102.67,-542.85 184.71,-373.6 200.75,-340.51 233.36,-355.22 249.54,-322.2 267.96,-284.6 292.41,-228 250.54,-228"/>
<polygon fill="black" stroke="black" points="173.38,-804.54 183.26,-809.29 178.71,-804.67 183.04,-804.78 183.04,-804.78 183.04,-804.78 178.71,-804.67 183.49,-800.29 173.38,-804.54"/>
<text text-anchor="start" x="101.66" y="-814.8" font-family="Arial" font-size="10.00">Source: Location</text>
</g>
<!-- InventoryItem -->
<g id="node3" class="node">
<title>InventoryItem</title>
<polygon fill="#efefef" stroke="none" points="353.71,-258.8 353.71,-294.4 599.03,-294.4 599.03,-258.8 353.71,-258.8"/>
<polygon fill="none" stroke="black" points="353.71,-258.8 353.71,-294.4 599.03,-294.4 599.03,-258.8 353.71,-258.8"/>
<text text-anchor="start" x="360.71" y="-272.2" font-family="Arial Bold" font-size="18.00">InventoryItem</text>
<text text-anchor="start" x="463.67" y="-272.2" font-family="Arial" font-size="14.00">    </text>
<text text-anchor="start" x="494.79" y="-272.2" font-family="Arial" font-size="14.00" fill="#666666">[TailorDB.Type]</text>
<polygon fill="none" stroke="black" points="353.71,-228 353.71,-258.8 599.03,-258.8 599.03,-228 353.71,-228"/>
<text text-anchor="start" x="360.71" y="-240.2" font-family="Arial" font-size="14.00">id </text>
<text text-anchor="start" x="375.49" y="-240.2" font-family="Arial" font-size="14.00" fill="#666666">[uuid]</text>
<polygon fill="none" stroke="black" points="353.71,-197.2 353.71,-228 599.03,-228 599.03,-197.2 353.71,-197.2"/>
<text text-anchor="start" x="360.71" y="-209.4" font-family="Arial" font-size="14.00">active </text>
<text text-anchor="start" x="401.17" y="-209.4" font-family="Arial" font-size="14.00" fill="#666666">[boolean]</text>
<polygon fill="none" stroke="black" points="353.71,-166.4 353.71,-197.2 599.03,-197.2 599.03,-166.4 353.71,-166.4"/>
<text text-anchor="start" x="360.71" y="-178.6" font-family="Arial" font-size="14.00">createdAt </text>
<text text-anchor="start" x="424.52" y="-178.6" font-family="Arial" font-size="14.00" fill="#666666">[datetime]</text>
<polygon fill="none" stroke="black" points="353.71,-135.6 353.71,-166.4 599.03,-166.4 599.03,-135.6 353.71,-135.6"/>
<text text-anchor="start" x="360.71" y="-147.8" font-family="Arial" font-size="14.00">shopifyID </text>
<text text-anchor="start" x="422.95" y="-147.8" font-family="Arial" font-size="14.00" fill="#666666">[string]</text>
<polygon fill="none" stroke="black" points="353.71,-104.8 353.71,-135.6 599.03,-135.6 599.03,-104.8 353.71,-104.8"/>
<text text-anchor="start" x="360.71" y="-117" font-family="Arial" font-size="14.00">productVariantID </text>
<text text-anchor="start" x="469.65" y="-117" font-family="Arial" font-size="14.00" fill="#666666">[uuid]</text>
<polygon fill="none" stroke="black" points="353.71,-74 353.71,-104.8 599.03,-104.8 599.03,-74 353.71,-74"/>
<text text-anchor="start" x="360.71" y="-86.2" font-family="Arial" font-size="14.00">productVariant </text>
<text text-anchor="start" x="455.65" y="-86.2" font-family="Arial" font-size="14.00" fill="#666666">[ProductVariant]</text>
<polygon fill="none" stroke="black" points="353.71,-43.2 353.71,-74 599.03,-74 599.03,-43.2 353.71,-43.2"/>
<text text-anchor="start" x="360.71" y="-55.4" font-family="Arial" font-size="14.00">updatedAt </text>
<text text-anchor="start" x="428.43" y="-55.4" font-family="Arial" font-size="14.00" fill="#666666">[datetime]</text>
</g>
<!-- InventoryLevel&#45;&gt;InventoryItem -->
<g id="edge2" class="edge">
<title>InventoryLevel:inventoryItemID&#45;&gt;InventoryItem:id</title>
<path fill="none" stroke="black" d="M449.29,-742.88C600.09,-733.25 526.79,-507.61 438.03,-373.6 415.53,-339.63 376.34,-371.48 353.71,-337.6 330.45,-302.79 310.84,-243.4 352.71,-243.4"/>
<polygon fill="black" stroke="black" points="449.36,-742.88 439.22,-738.69 444.03,-743.04 439.7,-743.18 439.7,-743.18 439.7,-743.18 444.03,-743.04 439.5,-747.69 449.36,-742.88"/>
<text text-anchor="start" x="446.03" y="-753.2" font-family="Arial" font-size="10.00">Source: InventoryItem</text>
</g>
</g>
</svg>
