<?xml version="1.0" encoding="UTF-8" standalone="no"?>
<!DOCTYPE svg PUBLIC "-//W3C//DTD SVG 1.1//EN"
 "http://www.w3.org/Graphics/SVG/1.1/DTD/svg11.dtd">
<!-- Generated by graphviz version 12.1.2 (20240928.0832)
 -->
<!-- Title: OperationalStockEvent Pages: 1 -->
<svg width="1096pt" height="2423pt"
 viewBox="0.00 0.00 1096.24 2423.20" xmlns="http://www.w3.org/2000/svg" xmlns:xlink="http://www.w3.org/1999/xlink">
<g id="graph0" class="graph" transform="scale(1 1) rotate(0) translate(4 2419.2)">
<title>OperationalStockEvent</title>
<polygon fill="white" stroke="none" points="-4,4 -4,-2419.2 1092.24,-2419.2 1092.24,4 -4,4"/>
<!-- OperationalStockEvent -->
<g id="node1" class="node">
<title>OperationalStockEvent</title>
<polygon fill="#efefef" stroke="none" points="376.21,-1528.6 376.21,-1564.2 686.52,-1564.2 686.52,-1528.6 376.21,-1528.6"/>
<polygon fill="none" stroke="black" points="376.21,-1528.6 376.21,-1564.2 686.52,-1564.2 686.52,-1528.6 376.21,-1528.6"/>
<text text-anchor="start" x="383.21" y="-1542" font-family="Arial Bold" font-size="18.00">OperationalStockEvent</text>
<text text-anchor="start" x="551.16" y="-1542" font-family="Arial" font-size="14.00">    </text>
<text text-anchor="start" x="582.28" y="-1542" font-family="Arial" font-size="14.00" fill="#666666">[TailorDB.Type]</text>
<polygon fill="none" stroke="black" points="376.21,-1497.8 376.21,-1528.6 686.52,-1528.6 686.52,-1497.8 376.21,-1497.8"/>
<text text-anchor="start" x="383.21" y="-1510" font-family="Arial" font-size="14.00">id </text>
<text text-anchor="start" x="398" y="-1510" font-family="Arial" font-size="14.00" fill="#666666">[uuid]</text>
<polygon fill="none" stroke="black" points="376.21,-1467 376.21,-1497.8 686.52,-1497.8 686.52,-1467 376.21,-1467"/>
<text text-anchor="start" x="383.21" y="-1479.2" font-family="Arial" font-size="14.00">active </text>
<text text-anchor="start" x="423.67" y="-1479.2" font-family="Arial" font-size="14.00" fill="#666666">[boolean]</text>
<polygon fill="none" stroke="black" points="376.21,-1436.2 376.21,-1467 686.52,-1467 686.52,-1436.2 376.21,-1436.2"/>
<text text-anchor="start" x="383.21" y="-1448.4" font-family="Arial" font-size="14.00">createdAt </text>
<text text-anchor="start" x="447.02" y="-1448.4" font-family="Arial" font-size="14.00" fill="#666666">[datetime]</text>
<polygon fill="none" stroke="black" points="376.21,-1405.4 376.21,-1436.2 686.52,-1436.2 686.52,-1405.4 376.21,-1405.4"/>
<text text-anchor="start" x="383.21" y="-1417.6" font-family="Arial" font-size="14.00">updatedAt </text>
<text text-anchor="start" x="450.93" y="-1417.6" font-family="Arial" font-size="14.00" fill="#666666">[datetime]</text>
<polygon fill="none" stroke="black" points="376.21,-1374.6 376.21,-1405.4 686.52,-1405.4 686.52,-1374.6 376.21,-1374.6"/>
<text text-anchor="start" x="383.21" y="-1386.8" font-family="Arial" font-size="14.00">variantID </text>
<text text-anchor="start" x="443.12" y="-1386.8" font-family="Arial" font-size="14.00" fill="#666666">[uuid]</text>
<polygon fill="none" stroke="black" points="376.21,-1343.8 376.21,-1374.6 686.52,-1374.6 686.52,-1343.8 376.21,-1343.8"/>
<text text-anchor="start" x="383.21" y="-1356" font-family="Arial" font-size="14.00">variant </text>
<text text-anchor="start" x="429.12" y="-1356" font-family="Arial" font-size="14.00" fill="#666666">[ProductVariant]</text>
<polygon fill="none" stroke="black" points="376.21,-1313 376.21,-1343.8 686.52,-1343.8 686.52,-1313 376.21,-1313"/>
<text text-anchor="start" x="383.21" y="-1325.2" font-family="Arial" font-size="14.00">incrementalQuantity </text>
<text text-anchor="start" x="511.6" y="-1325.2" font-family="Arial" font-size="14.00" fill="#666666">[float]</text>
<polygon fill="none" stroke="black" points="376.21,-1282.2 376.21,-1313 686.52,-1313 686.52,-1282.2 376.21,-1282.2"/>
<text text-anchor="start" x="383.21" y="-1294.4" font-family="Arial" font-size="14.00">unitCost </text>
<text text-anchor="start" x="438.46" y="-1294.4" font-family="Arial" font-size="14.00" fill="#666666">[float]</text>
<polygon fill="none" stroke="black" points="376.21,-1251.4 376.21,-1282.2 686.52,-1282.2 686.52,-1251.4 376.21,-1251.4"/>
<text text-anchor="start" x="383.21" y="-1263.6" font-family="Arial" font-size="14.00">transactionTotalCost </text>
<text text-anchor="start" x="515.49" y="-1263.6" font-family="Arial" font-size="14.00" fill="#666666">[float]</text>
<polygon fill="none" stroke="black" points="376.21,-1220.6 376.21,-1251.4 686.52,-1251.4 686.52,-1220.6 376.21,-1220.6"/>
<text text-anchor="start" x="383.21" y="-1232.8" font-family="Arial" font-size="14.00">isOnHold </text>
<text text-anchor="start" x="444.68" y="-1232.8" font-family="Arial" font-size="14.00" fill="#666666">[boolean]</text>
<polygon fill="none" stroke="black" points="376.21,-1189.8 376.21,-1220.6 686.52,-1220.6 686.52,-1189.8 376.21,-1189.8"/>
<text text-anchor="start" x="383.21" y="-1202" font-family="Arial" font-size="14.00">onHoldQuantity </text>
<text text-anchor="start" x="483.6" y="-1202" font-family="Arial" font-size="14.00" fill="#666666">[float]</text>
<polygon fill="none" stroke="black" points="376.21,-1159 376.21,-1189.8 686.52,-1189.8 686.52,-1159 376.21,-1159"/>
<text text-anchor="start" x="383.21" y="-1171.2" font-family="Arial" font-size="14.00">availableQuantity </text>
<text text-anchor="start" x="494.5" y="-1171.2" font-family="Arial" font-size="14.00" fill="#666666">[float]</text>
<polygon fill="none" stroke="black" points="376.21,-1128.2 376.21,-1159 686.52,-1159 686.52,-1128.2 376.21,-1128.2"/>
<text text-anchor="start" x="383.21" y="-1140.4" font-family="Arial" font-size="14.00">inStockQuantity </text>
<text text-anchor="start" x="485.15" y="-1140.4" font-family="Arial" font-size="14.00" fill="#666666">[float]</text>
<polygon fill="none" stroke="black" points="376.21,-1097.4 376.21,-1128.2 686.52,-1128.2 686.52,-1097.4 376.21,-1097.4"/>
<text text-anchor="start" x="383.21" y="-1109.6" font-family="Arial" font-size="14.00">totalCost </text>
<text text-anchor="start" x="442.35" y="-1109.6" font-family="Arial" font-size="14.00" fill="#666666">[float]</text>
<polygon fill="none" stroke="black" points="376.21,-1066.6 376.21,-1097.4 686.52,-1097.4 686.52,-1066.6 376.21,-1066.6"/>
<text text-anchor="start" x="383.21" y="-1078.8" font-family="Arial" font-size="14.00">averageCost </text>
<text text-anchor="start" x="466.48" y="-1078.8" font-family="Arial" font-size="14.00" fill="#666666">[float]</text>
<polygon fill="none" stroke="black" points="376.21,-1035.8 376.21,-1066.6 686.52,-1066.6 686.52,-1035.8 376.21,-1035.8"/>
<text text-anchor="start" x="383.21" y="-1048" font-family="Arial" font-size="14.00">receiptLineItemID </text>
<text text-anchor="start" x="496.82" y="-1048" font-family="Arial" font-size="14.00" fill="#666666">[uuid]</text>
<polygon fill="none" stroke="black" points="376.21,-1005 376.21,-1035.8 686.52,-1035.8 686.52,-1005 376.21,-1005"/>
<text text-anchor="start" x="383.21" y="-1017.2" font-family="Arial" font-size="14.00">receiptLineItem </text>
<text text-anchor="start" x="482.82" y="-1017.2" font-family="Arial" font-size="14.00" fill="#666666">[ReceiptLineItem]</text>
<polygon fill="none" stroke="black" points="376.21,-974.2 376.21,-1005 686.52,-1005 686.52,-974.2 376.21,-974.2"/>
<text text-anchor="start" x="383.21" y="-986.4" font-family="Arial" font-size="14.00">shipmentLineItemID </text>
<text text-anchor="start" x="511.6" y="-986.4" font-family="Arial" font-size="14.00" fill="#666666">[uuid]</text>
<polygon fill="none" stroke="black" points="376.21,-943.4 376.21,-974.2 686.52,-974.2 686.52,-943.4 376.21,-943.4"/>
<text text-anchor="start" x="383.21" y="-955.6" font-family="Arial" font-size="14.00">shipmentLineItem </text>
<text text-anchor="start" x="497.6" y="-955.6" font-family="Arial" font-size="14.00" fill="#666666">[ShipmentLineItem]</text>
<polygon fill="none" stroke="black" points="376.21,-912.6 376.21,-943.4 686.52,-943.4 686.52,-912.6 376.21,-912.6"/>
<text text-anchor="start" x="383.21" y="-924.8" font-family="Arial" font-size="14.00">sequence </text>
<text text-anchor="start" x="447.82" y="-924.8" font-family="Arial" font-size="14.00" fill="#666666">[integer]</text>
<polygon fill="none" stroke="black" points="376.21,-881.8 376.21,-912.6 686.52,-912.6 686.52,-881.8 376.21,-881.8"/>
<text text-anchor="start" x="383.21" y="-894" font-family="Arial" font-size="14.00">copiedToFinancialLedger </text>
<text text-anchor="start" x="544.31" y="-894" font-family="Arial" font-size="14.00" fill="#666666">[boolean]</text>
<polygon fill="none" stroke="black" stroke-width="3" points="374.71,-880.3 374.71,-1565.7 688.02,-1565.7 688.02,-880.3 374.71,-880.3"/>
</g>
<!-- ProductVariant -->
<g id="node3" class="node">
<title>ProductVariant</title>
<polygon fill="#efefef" stroke="none" points="43.2,-720.8 43.2,-756.4 295.53,-756.4 295.53,-720.8 43.2,-720.8"/>
<polygon fill="none" stroke="black" points="43.2,-720.8 43.2,-756.4 295.53,-756.4 295.53,-720.8 43.2,-720.8"/>
<text text-anchor="start" x="50.2" y="-734.2" font-family="Arial Bold" font-size="18.00">ProductVariant</text>
<text text-anchor="start" x="160.17" y="-734.2" font-family="Arial" font-size="14.00">    </text>
<text text-anchor="start" x="191.29" y="-734.2" font-family="Arial" font-size="14.00" fill="#666666">[TailorDB.Type]</text>
<polygon fill="none" stroke="black" points="43.2,-690 43.2,-720.8 295.53,-720.8 295.53,-690 43.2,-690"/>
<text text-anchor="start" x="50.2" y="-702.2" font-family="Arial" font-size="14.00">id </text>
<text text-anchor="start" x="64.99" y="-702.2" font-family="Arial" font-size="14.00" fill="#666666">[uuid]</text>
<polygon fill="none" stroke="black" points="43.2,-659.2 43.2,-690 295.53,-690 295.53,-659.2 43.2,-659.2"/>
<text text-anchor="start" x="50.2" y="-671.4" font-family="Arial" font-size="14.00">active </text>
<text text-anchor="start" x="90.66" y="-671.4" font-family="Arial" font-size="14.00" fill="#666666">[boolean]</text>
<polygon fill="none" stroke="black" points="43.2,-628.4 43.2,-659.2 295.53,-659.2 295.53,-628.4 43.2,-628.4"/>
<text text-anchor="start" x="50.2" y="-640.6" font-family="Arial" font-size="14.00">createdAt </text>
<text text-anchor="start" x="114.01" y="-640.6" font-family="Arial" font-size="14.00" fill="#666666">[datetime]</text>
<polygon fill="none" stroke="black" points="43.2,-597.6 43.2,-628.4 295.53,-628.4 295.53,-597.6 43.2,-597.6"/>
<text text-anchor="start" x="50.2" y="-609.8" font-family="Arial" font-size="14.00">shopifyID </text>
<text text-anchor="start" x="112.45" y="-609.8" font-family="Arial" font-size="14.00" fill="#666666">[string]</text>
<polygon fill="none" stroke="black" points="43.2,-566.8 43.2,-597.6 295.53,-597.6 295.53,-566.8 43.2,-566.8"/>
<text text-anchor="start" x="50.2" y="-579" font-family="Arial" font-size="14.00">availableForSale </text>
<text text-anchor="start" x="158.37" y="-579" font-family="Arial" font-size="14.00" fill="#666666">[boolean]</text>
<polygon fill="none" stroke="black" points="43.2,-536 43.2,-566.8 295.53,-566.8 295.53,-536 43.2,-536"/>
<text text-anchor="start" x="50.2" y="-548.2" font-family="Arial" font-size="14.00">barcode </text>
<text text-anchor="start" x="104.68" y="-548.2" font-family="Arial" font-size="14.00" fill="#666666">[string]</text>
<polygon fill="none" stroke="black" points="43.2,-505.2 43.2,-536 295.53,-536 295.53,-505.2 43.2,-505.2"/>
<text text-anchor="start" x="50.2" y="-517.4" font-family="Arial" font-size="14.00">sku </text>
<text text-anchor="start" x="75.88" y="-517.4" font-family="Arial" font-size="14.00" fill="#666666">[string]</text>
<polygon fill="none" stroke="black" points="43.2,-474.4 43.2,-505.2 295.53,-505.2 295.53,-474.4 43.2,-474.4"/>
<text text-anchor="start" x="50.2" y="-486.6" font-family="Arial" font-size="14.00">displayName </text>
<text text-anchor="start" x="135.01" y="-486.6" font-family="Arial" font-size="14.00" fill="#666666">[string]</text>
<polygon fill="none" stroke="black" points="43.2,-443.6 43.2,-474.4 295.53,-474.4 295.53,-443.6 43.2,-443.6"/>
<text text-anchor="start" x="50.2" y="-455.8" font-family="Arial" font-size="14.00">imageID </text>
<text text-anchor="start" x="106.22" y="-455.8" font-family="Arial" font-size="14.00" fill="#666666">[uuid]</text>
<polygon fill="none" stroke="black" points="43.2,-412.8 43.2,-443.6 295.53,-443.6 295.53,-412.8 43.2,-412.8"/>
<text text-anchor="start" x="50.2" y="-425" font-family="Arial" font-size="14.00">image </text>
<text text-anchor="start" x="92.22" y="-425" font-family="Arial" font-size="14.00" fill="#666666">[ProductImage]</text>
<polygon fill="none" stroke="black" points="43.2,-382 43.2,-412.8 295.53,-412.8 295.53,-382 43.2,-382"/>
<text text-anchor="start" x="50.2" y="-394.2" font-family="Arial" font-size="14.00">inventoryQuantity </text>
<text text-anchor="start" x="163.03" y="-394.2" font-family="Arial" font-size="14.00" fill="#666666">[integer]</text>
<polygon fill="none" stroke="black" points="43.2,-351.2 43.2,-382 295.53,-382 295.53,-351.2 43.2,-351.2"/>
<text text-anchor="start" x="50.2" y="-363.4" font-family="Arial" font-size="14.00">price </text>
<text text-anchor="start" x="84.43" y="-363.4" font-family="Arial" font-size="14.00" fill="#666666">[float]</text>
<polygon fill="none" stroke="black" points="43.2,-320.4 43.2,-351.2 295.53,-351.2 295.53,-320.4 43.2,-320.4"/>
<text text-anchor="start" x="50.2" y="-332.6" font-family="Arial" font-size="14.00">inventoryItemID </text>
<text text-anchor="start" x="152.12" y="-332.6" font-family="Arial" font-size="14.00" fill="#666666">[uuid]</text>
<polygon fill="none" stroke="black" points="43.2,-289.6 43.2,-320.4 295.53,-320.4 295.53,-289.6 43.2,-289.6"/>
<text text-anchor="start" x="50.2" y="-301.8" font-family="Arial" font-size="14.00">inventoryItem </text>
<text text-anchor="start" x="138.12" y="-301.8" font-family="Arial" font-size="14.00" fill="#666666">[InventoryItem]</text>
<polygon fill="none" stroke="black" points="43.2,-258.8 43.2,-289.6 295.53,-289.6 295.53,-258.8 43.2,-258.8"/>
<text text-anchor="start" x="50.2" y="-271" font-family="Arial" font-size="14.00">productID </text>
<text text-anchor="start" x="114.79" y="-271" font-family="Arial" font-size="14.00" fill="#666666">[uuid]</text>
<polygon fill="none" stroke="black" points="43.2,-228 43.2,-258.8 295.53,-258.8 295.53,-228 43.2,-228"/>
<text text-anchor="start" x="50.2" y="-240.2" font-family="Arial" font-size="14.00">product </text>
<text text-anchor="start" x="100.79" y="-240.2" font-family="Arial" font-size="14.00" fill="#666666">[Product]</text>
<polygon fill="none" stroke="black" points="43.2,-197.2 43.2,-228 295.53,-228 295.53,-197.2 43.2,-197.2"/>
<text text-anchor="start" x="50.2" y="-209.4" font-family="Arial" font-size="14.00">taxable </text>
<text text-anchor="start" x="99.23" y="-209.4" font-family="Arial" font-size="14.00" fill="#666666">[boolean]</text>
<polygon fill="none" stroke="black" points="43.2,-166.4 43.2,-197.2 295.53,-197.2 295.53,-166.4 43.2,-166.4"/>
<text text-anchor="start" x="50.2" y="-178.6" font-family="Arial" font-size="14.00">inventoryType </text>
<text text-anchor="start" x="142.02" y="-178.6" font-family="Arial" font-size="14.00" fill="#666666">[enum]</text>
<polygon fill="none" stroke="black" points="43.2,-135.6 43.2,-166.4 295.53,-166.4 295.53,-135.6 43.2,-135.6"/>
<text text-anchor="start" x="50.2" y="-147.8" font-family="Arial" font-size="14.00">quickbookItemId </text>
<text text-anchor="start" x="156.03" y="-147.8" font-family="Arial" font-size="14.00" fill="#666666">[string]</text>
<polygon fill="none" stroke="black" points="43.2,-104.8 43.2,-135.6 295.53,-135.6 295.53,-104.8 43.2,-104.8"/>
<text text-anchor="start" x="50.2" y="-117" font-family="Arial" font-size="14.00">quickbookSyncToken </text>
<text text-anchor="start" x="187.16" y="-117" font-family="Arial" font-size="14.00" fill="#666666">[string]</text>
<polygon fill="none" stroke="black" points="43.2,-74 43.2,-104.8 295.53,-104.8 295.53,-74 43.2,-74"/>
<text text-anchor="start" x="50.2" y="-86.2" font-family="Arial" font-size="14.00">quickbookItemName </text>
<text text-anchor="start" x="181.7" y="-86.2" font-family="Arial" font-size="14.00" fill="#666666">[string]</text>
<polygon fill="none" stroke="black" points="43.2,-43.2 43.2,-74 295.53,-74 295.53,-43.2 43.2,-43.2"/>
<text text-anchor="start" x="50.2" y="-55.4" font-family="Arial" font-size="14.00">updatedAt </text>
<text text-anchor="start" x="117.92" y="-55.4" font-family="Arial" font-size="14.00" fill="#666666">[datetime]</text>
</g>
<!-- OperationalStockEvent&#45;&gt;ProductVariant -->
<g id="edge2" class="edge">
<title>OperationalStockEvent:variantID&#45;&gt;ProductVariant:id</title>
<path fill="none" stroke="black" d="M365.78,-1385.98C305.03,-1329.87 369.66,-705.4 296.53,-705.4"/>
<polygon fill="black" stroke="black" points="365.7,-1385.95 373.14,-1394.01 370.61,-1388.04 374.59,-1389.74 374.59,-1389.74 374.59,-1389.74 370.61,-1388.04 376.67,-1385.73 365.7,-1385.95"/>
<text text-anchor="start" x="264.82" y="-1400" font-family="Arial" font-size="10.00">Source: ProductVariant</text>
</g>
<!-- ReceiptLineItem -->
<g id="node4" class="node">
<title>ReceiptLineItem</title>
<polygon fill="#efefef" stroke="none" points="399.71,-690 399.71,-725.6 663.02,-725.6 663.02,-690 399.71,-690"/>
<polygon fill="none" stroke="black" points="399.71,-690 399.71,-725.6 663.02,-725.6 663.02,-690 399.71,-690"/>
<text text-anchor="start" x="406.71" y="-703.4" font-family="Arial Bold" font-size="18.00">ReceiptLineItem</text>
<text text-anchor="start" x="527.66" y="-703.4" font-family="Arial" font-size="14.00">    </text>
<text text-anchor="start" x="558.77" y="-703.4" font-family="Arial" font-size="14.00" fill="#666666">[TailorDB.Type]</text>
<polygon fill="none" stroke="black" points="399.71,-659.2 399.71,-690 663.02,-690 663.02,-659.2 399.71,-659.2"/>
<text text-anchor="start" x="406.71" y="-671.4" font-family="Arial" font-size="14.00">id </text>
<text text-anchor="start" x="421.5" y="-671.4" font-family="Arial" font-size="14.00" fill="#666666">[uuid]</text>
<polygon fill="none" stroke="black" points="399.71,-628.4 399.71,-659.2 663.02,-659.2 663.02,-628.4 399.71,-628.4"/>
<text text-anchor="start" x="406.71" y="-640.6" font-family="Arial" font-size="14.00">active </text>
<text text-anchor="start" x="447.17" y="-640.6" font-family="Arial" font-size="14.00" fill="#666666">[boolean]</text>
<polygon fill="none" stroke="black" points="399.71,-597.6 399.71,-628.4 663.02,-628.4 663.02,-597.6 399.71,-597.6"/>
<text text-anchor="start" x="406.71" y="-609.8" font-family="Arial" font-size="14.00">createdAt </text>
<text text-anchor="start" x="470.52" y="-609.8" font-family="Arial" font-size="14.00" fill="#666666">[datetime]</text>
<polygon fill="none" stroke="black" points="399.71,-566.8 399.71,-597.6 663.02,-597.6 663.02,-566.8 399.71,-566.8"/>
<text text-anchor="start" x="406.71" y="-579" font-family="Arial" font-size="14.00">receiptID </text>
<text text-anchor="start" x="466.62" y="-579" font-family="Arial" font-size="14.00" fill="#666666">[uuid]</text>
<polygon fill="none" stroke="black" points="399.71,-536 399.71,-566.8 663.02,-566.8 663.02,-536 399.71,-536"/>
<text text-anchor="start" x="406.71" y="-548.2" font-family="Arial" font-size="14.00">receipt </text>
<text text-anchor="start" x="452.62" y="-548.2" font-family="Arial" font-size="14.00" fill="#666666">[Receipt]</text>
<polygon fill="none" stroke="black" points="399.71,-505.2 399.71,-536 663.02,-536 663.02,-505.2 399.71,-505.2"/>
<text text-anchor="start" x="406.71" y="-517.4" font-family="Arial" font-size="14.00">updatedAt </text>
<text text-anchor="start" x="474.43" y="-517.4" font-family="Arial" font-size="14.00" fill="#666666">[datetime]</text>
<polygon fill="none" stroke="black" points="399.71,-474.4 399.71,-505.2 663.02,-505.2 663.02,-474.4 399.71,-474.4"/>
<text text-anchor="start" x="406.71" y="-486.6" font-family="Arial" font-size="14.00">variantID </text>
<text text-anchor="start" x="466.62" y="-486.6" font-family="Arial" font-size="14.00" fill="#666666">[uuid]</text>
<polygon fill="none" stroke="black" points="399.71,-443.6 399.71,-474.4 663.02,-474.4 663.02,-443.6 399.71,-443.6"/>
<text text-anchor="start" x="406.71" y="-455.8" font-family="Arial" font-size="14.00">variant </text>
<text text-anchor="start" x="452.62" y="-455.8" font-family="Arial" font-size="14.00" fill="#666666">[ProductVariant]</text>
<polygon fill="none" stroke="black" points="399.71,-412.8 399.71,-443.6 663.02,-443.6 663.02,-412.8 399.71,-412.8"/>
<text text-anchor="start" x="406.71" y="-425" font-family="Arial" font-size="14.00">quantity </text>
<text text-anchor="start" x="459.64" y="-425" font-family="Arial" font-size="14.00" fill="#666666">[float]</text>
<polygon fill="none" stroke="black" points="399.71,-382 399.71,-412.8 663.02,-412.8 663.02,-382 399.71,-382"/>
<text text-anchor="start" x="406.71" y="-394.2" font-family="Arial" font-size="14.00">subtotalUnitCost </text>
<text text-anchor="start" x="513.32" y="-394.2" font-family="Arial" font-size="14.00" fill="#666666">[float]</text>
<polygon fill="none" stroke="black" points="399.71,-351.2 399.71,-382 663.02,-382 663.02,-351.2 399.71,-351.2"/>
<text text-anchor="start" x="406.71" y="-363.4" font-family="Arial" font-size="14.00">subtotalCost </text>
<text text-anchor="start" x="488.42" y="-363.4" font-family="Arial" font-size="14.00" fill="#666666">[float]</text>
<polygon fill="none" stroke="black" points="399.71,-320.4 399.71,-351.2 663.02,-351.2 663.02,-320.4 399.71,-320.4"/>
<text text-anchor="start" x="406.71" y="-332.6" font-family="Arial" font-size="14.00">cubicMeters </text>
<text text-anchor="start" x="486.07" y="-332.6" font-family="Arial" font-size="14.00" fill="#666666">[float]</text>
<polygon fill="none" stroke="black" points="399.71,-289.6 399.71,-320.4 663.02,-320.4 663.02,-289.6 399.71,-289.6"/>
<text text-anchor="start" x="406.71" y="-301.8" font-family="Arial" font-size="14.00">costPools </text>
<text text-anchor="start" x="471.3" y="-301.8" font-family="Arial" font-size="14.00" fill="#666666">[Array\&lt;nested\&gt;]</text>
<polygon fill="none" stroke="black" points="399.71,-258.8 399.71,-289.6 663.02,-289.6 663.02,-258.8 399.71,-258.8"/>
<text text-anchor="start" x="406.71" y="-271" font-family="Arial" font-size="14.00">costPools.costPoolID </text>
<text text-anchor="start" x="542.88" y="-271" font-family="Arial" font-size="14.00" fill="#666666">[uuid]</text>
<polygon fill="none" stroke="black" points="399.71,-228 399.71,-258.8 663.02,-258.8 663.02,-228 399.71,-228"/>
<text text-anchor="start" x="406.71" y="-240.2" font-family="Arial" font-size="14.00">costPools.costPool </text>
<text text-anchor="start" x="528.88" y="-240.2" font-family="Arial" font-size="14.00" fill="#666666">[CostPool]</text>
<polygon fill="none" stroke="black" points="399.71,-197.2 399.71,-228 663.02,-228 663.02,-197.2 399.71,-197.2"/>
<text text-anchor="start" x="406.71" y="-209.4" font-family="Arial" font-size="14.00">totalCostPoolAllocation </text>
<text text-anchor="start" x="554.57" y="-209.4" font-family="Arial" font-size="14.00" fill="#666666">[float]</text>
<polygon fill="none" stroke="black" points="399.71,-166.4 399.71,-197.2 663.02,-197.2 663.02,-166.4 399.71,-166.4"/>
<text text-anchor="start" x="406.71" y="-178.6" font-family="Arial" font-size="14.00">unitCostPoolAllocation </text>
<text text-anchor="start" x="550.68" y="-178.6" font-family="Arial" font-size="14.00" fill="#666666">[float]</text>
<polygon fill="none" stroke="black" points="399.71,-135.6 399.71,-166.4 663.02,-166.4 663.02,-135.6 399.71,-135.6"/>
<text text-anchor="start" x="406.71" y="-147.8" font-family="Arial" font-size="14.00">totalUnitCost </text>
<text text-anchor="start" x="490.75" y="-147.8" font-family="Arial" font-size="14.00" fill="#666666">[float]</text>
<polygon fill="none" stroke="black" points="399.71,-104.8 399.71,-135.6 663.02,-135.6 663.02,-104.8 399.71,-104.8"/>
<text text-anchor="start" x="406.71" y="-117" font-family="Arial" font-size="14.00">receiptStatus </text>
<text text-anchor="start" x="492.31" y="-117" font-family="Arial" font-size="14.00" fill="#666666">[enum]</text>
<polygon fill="none" stroke="black" points="399.71,-74 399.71,-104.8 663.02,-104.8 663.02,-74 399.71,-74"/>
<text text-anchor="start" x="406.71" y="-86.2" font-family="Arial" font-size="14.00">receivedAt </text>
<text text-anchor="start" x="476.75" y="-86.2" font-family="Arial" font-size="14.00" fill="#666666">[datetime]</text>
</g>
<!-- OperationalStockEvent&#45;&gt;ReceiptLineItem -->
<g id="edge3" class="edge">
<title>OperationalStockEvent:receiptLineItemID&#45;&gt;ReceiptLineItem:id</title>
<path fill="none" stroke="black" d="M695.8,-1045.28C725.86,-997.37 702.84,-674.6 664.02,-674.6"/>
<polygon fill="black" stroke="black" points="695.93,-1045.19 685.18,-1047.34 691.59,-1048.29 688.07,-1050.81 688.07,-1050.81 688.07,-1050.81 691.59,-1048.29 690.41,-1054.67 695.93,-1045.19"/>
<text text-anchor="start" x="694.52" y="-1061.2" font-family="Arial" font-size="10.00">ForeignKeyType: ReceiptLineItem</text>
</g>
<!-- ShipmentLineItem -->
<g id="node5" class="node">
<title>ShipmentLineItem</title>
<polygon fill="#efefef" stroke="none" points="767.7,-597.6 767.7,-633.2 1045.04,-633.2 1045.04,-597.6 767.7,-597.6"/>
<polygon fill="none" stroke="black" points="767.7,-597.6 767.7,-633.2 1045.04,-633.2 1045.04,-597.6 767.7,-597.6"/>
<text text-anchor="start" x="774.7" y="-611" font-family="Arial Bold" font-size="18.00">ShipmentLineItem</text>
<text text-anchor="start" x="909.67" y="-611" font-family="Arial" font-size="14.00">    </text>
<text text-anchor="start" x="940.79" y="-611" font-family="Arial" font-size="14.00" fill="#666666">[TailorDB.Type]</text>
<polygon fill="none" stroke="black" points="767.7,-566.8 767.7,-597.6 1045.04,-597.6 1045.04,-566.8 767.7,-566.8"/>
<text text-anchor="start" x="774.7" y="-579" font-family="Arial" font-size="14.00">id </text>
<text text-anchor="start" x="789.48" y="-579" font-family="Arial" font-size="14.00" fill="#666666">[uuid]</text>
<polygon fill="none" stroke="black" points="767.7,-536 767.7,-566.8 1045.04,-566.8 1045.04,-536 767.7,-536"/>
<text text-anchor="start" x="774.7" y="-548.2" font-family="Arial" font-size="14.00">active </text>
<text text-anchor="start" x="815.16" y="-548.2" font-family="Arial" font-size="14.00" fill="#666666">[boolean]</text>
<polygon fill="none" stroke="black" points="767.7,-505.2 767.7,-536 1045.04,-536 1045.04,-505.2 767.7,-505.2"/>
<text text-anchor="start" x="774.7" y="-517.4" font-family="Arial" font-size="14.00">createdAt </text>
<text text-anchor="start" x="838.51" y="-517.4" font-family="Arial" font-size="14.00" fill="#666666">[datetime]</text>
<polygon fill="none" stroke="black" points="767.7,-474.4 767.7,-505.2 1045.04,-505.2 1045.04,-474.4 767.7,-474.4"/>
<text text-anchor="start" x="774.7" y="-486.6" font-family="Arial" font-size="14.00">shipmentID </text>
<text text-anchor="start" x="849.39" y="-486.6" font-family="Arial" font-size="14.00" fill="#666666">[uuid]</text>
<polygon fill="none" stroke="black" points="767.7,-443.6 767.7,-474.4 1045.04,-474.4 1045.04,-443.6 767.7,-443.6"/>
<text text-anchor="start" x="774.7" y="-455.8" font-family="Arial" font-size="14.00">shipment </text>
<text text-anchor="start" x="835.39" y="-455.8" font-family="Arial" font-size="14.00" fill="#666666">[Shipment]</text>
<polygon fill="none" stroke="black" points="767.7,-412.8 767.7,-443.6 1045.04,-443.6 1045.04,-412.8 767.7,-412.8"/>
<text text-anchor="start" x="774.7" y="-425" font-family="Arial" font-size="14.00">unitCost </text>
<text text-anchor="start" x="829.95" y="-425" font-family="Arial" font-size="14.00" fill="#666666">[float]</text>
<polygon fill="none" stroke="black" points="767.7,-382 767.7,-412.8 1045.04,-412.8 1045.04,-382 767.7,-382"/>
<text text-anchor="start" x="774.7" y="-394.2" font-family="Arial" font-size="14.00">unitPrice </text>
<text text-anchor="start" x="833.06" y="-394.2" font-family="Arial" font-size="14.00" fill="#666666">[float]</text>
<polygon fill="none" stroke="black" points="767.7,-351.2 767.7,-382 1045.04,-382 1045.04,-351.2 767.7,-351.2"/>
<text text-anchor="start" x="774.7" y="-363.4" font-family="Arial" font-size="14.00">updatedAt </text>
<text text-anchor="start" x="842.42" y="-363.4" font-family="Arial" font-size="14.00" fill="#666666">[datetime]</text>
<polygon fill="none" stroke="black" points="767.7,-320.4 767.7,-351.2 1045.04,-351.2 1045.04,-320.4 767.7,-320.4"/>
<text text-anchor="start" x="774.7" y="-332.6" font-family="Arial" font-size="14.00">variantID </text>
<text text-anchor="start" x="834.61" y="-332.6" font-family="Arial" font-size="14.00" fill="#666666">[uuid]</text>
<polygon fill="none" stroke="black" points="767.7,-289.6 767.7,-320.4 1045.04,-320.4 1045.04,-289.6 767.7,-289.6"/>
<text text-anchor="start" x="774.7" y="-301.8" font-family="Arial" font-size="14.00">variant </text>
<text text-anchor="start" x="820.61" y="-301.8" font-family="Arial" font-size="14.00" fill="#666666">[ProductVariant]</text>
<polygon fill="none" stroke="black" points="767.7,-258.8 767.7,-289.6 1045.04,-289.6 1045.04,-258.8 767.7,-258.8"/>
<text text-anchor="start" x="774.7" y="-271" font-family="Arial" font-size="14.00">quantity </text>
<text text-anchor="start" x="827.62" y="-271" font-family="Arial" font-size="14.00" fill="#666666">[float]</text>
<polygon fill="none" stroke="black" points="767.7,-228 767.7,-258.8 1045.04,-258.8 1045.04,-228 767.7,-228"/>
<text text-anchor="start" x="774.7" y="-240.2" font-family="Arial" font-size="14.00">taxable </text>
<text text-anchor="start" x="823.73" y="-240.2" font-family="Arial" font-size="14.00" fill="#666666">[boolean]</text>
<polygon fill="none" stroke="black" points="767.7,-197.2 767.7,-228 1045.04,-228 1045.04,-197.2 767.7,-197.2"/>
<text text-anchor="start" x="774.7" y="-209.4" font-family="Arial" font-size="14.00">shipmentStatus </text>
<text text-anchor="start" x="875.08" y="-209.4" font-family="Arial" font-size="14.00" fill="#666666">[enum]</text>
<polygon fill="none" stroke="black" points="767.7,-166.4 767.7,-197.2 1045.04,-197.2 1045.04,-166.4 767.7,-166.4"/>
<text text-anchor="start" x="774.7" y="-178.6" font-family="Arial" font-size="14.00">shippedAt </text>
<text text-anchor="start" x="840.86" y="-178.6" font-family="Arial" font-size="14.00" fill="#666666">[datetime]</text>
</g>
<!-- OperationalStockEvent&#45;&gt;ShipmentLineItem -->
<g id="edge4" class="edge">
<title>OperationalStockEvent:shipmentLineItemID&#45;&gt;ShipmentLineItem:id</title>
<path fill="none" stroke="black" d="M697.45,-987.78C771.83,-958.39 678.07,-582.2 766.7,-582.2"/>
<polygon fill="black" stroke="black" points="697.69,-987.74 687.04,-985.11 692.44,-988.7 688.18,-989.48 688.18,-989.48 688.18,-989.48 692.44,-988.7 688.66,-993.97 697.69,-987.74"/>
<text text-anchor="start" x="694.52" y="-999.6" font-family="Arial" font-size="10.00">ForeignKeyType: ShipmentLineItem</text>
</g>
<!-- FinancialStockEvent -->
<g id="node2" class="node">
<title>FinancialStockEvent</title>
<polygon fill="#efefef" stroke="none" points="376.89,-2336.4 376.89,-2372 685.84,-2372 685.84,-2336.4 376.89,-2336.4"/>
<polygon fill="none" stroke="black" points="376.89,-2336.4 376.89,-2372 685.84,-2372 685.84,-2336.4 376.89,-2336.4"/>
<text text-anchor="start" x="392.2" y="-2349.8" font-family="Arial Bold" font-size="18.00">FinancialStockEvent</text>
<text text-anchor="start" x="542.17" y="-2349.8" font-family="Arial" font-size="14.00">    </text>
<text text-anchor="start" x="573.29" y="-2349.8" font-family="Arial" font-size="14.00" fill="#666666">[TailorDB.Type]</text>
<polygon fill="none" stroke="black" points="376.89,-2305.6 376.89,-2336.4 685.84,-2336.4 685.84,-2305.6 376.89,-2305.6"/>
<text text-anchor="start" x="383.89" y="-2317.8" font-family="Arial" font-size="14.00">id </text>
<text text-anchor="start" x="398.68" y="-2317.8" font-family="Arial" font-size="14.00" fill="#666666">[uuid]</text>
<polygon fill="none" stroke="black" points="376.89,-2274.8 376.89,-2305.6 685.84,-2305.6 685.84,-2274.8 376.89,-2274.8"/>
<text text-anchor="start" x="383.89" y="-2287" font-family="Arial" font-size="14.00">active </text>
<text text-anchor="start" x="424.35" y="-2287" font-family="Arial" font-size="14.00" fill="#666666">[boolean]</text>
<polygon fill="none" stroke="black" points="376.89,-2244 376.89,-2274.8 685.84,-2274.8 685.84,-2244 376.89,-2244"/>
<text text-anchor="start" x="383.89" y="-2256.2" font-family="Arial" font-size="14.00">createdAt </text>
<text text-anchor="start" x="447.71" y="-2256.2" font-family="Arial" font-size="14.00" fill="#666666">[datetime]</text>
<polygon fill="none" stroke="black" points="376.89,-2213.2 376.89,-2244 685.84,-2244 685.84,-2213.2 376.89,-2213.2"/>
<text text-anchor="start" x="383.89" y="-2225.4" font-family="Arial" font-size="14.00">updatedAt </text>
<text text-anchor="start" x="451.62" y="-2225.4" font-family="Arial" font-size="14.00" fill="#666666">[datetime]</text>
<polygon fill="none" stroke="black" points="376.89,-2182.4 376.89,-2213.2 685.84,-2213.2 685.84,-2182.4 376.89,-2182.4"/>
<text text-anchor="start" x="383.89" y="-2194.6" font-family="Arial" font-size="14.00">variantID </text>
<text text-anchor="start" x="443.8" y="-2194.6" font-family="Arial" font-size="14.00" fill="#666666">[uuid]</text>
<polygon fill="none" stroke="black" points="376.89,-2151.6 376.89,-2182.4 685.84,-2182.4 685.84,-2151.6 376.89,-2151.6"/>
<text text-anchor="start" x="383.89" y="-2163.8" font-family="Arial" font-size="14.00">variant </text>
<text text-anchor="start" x="429.8" y="-2163.8" font-family="Arial" font-size="14.00" fill="#666666">[ProductVariant]</text>
<polygon fill="none" stroke="black" points="376.89,-2120.8 376.89,-2151.6 685.84,-2151.6 685.84,-2120.8 376.89,-2120.8"/>
<text text-anchor="start" x="383.89" y="-2133" font-family="Arial" font-size="14.00">incrementalQuantity </text>
<text text-anchor="start" x="512.28" y="-2133" font-family="Arial" font-size="14.00" fill="#666666">[float]</text>
<polygon fill="none" stroke="black" points="376.89,-2090 376.89,-2120.8 685.84,-2120.8 685.84,-2090 376.89,-2090"/>
<text text-anchor="start" x="383.89" y="-2102.2" font-family="Arial" font-size="14.00">unitCost </text>
<text text-anchor="start" x="439.14" y="-2102.2" font-family="Arial" font-size="14.00" fill="#666666">[float]</text>
<polygon fill="none" stroke="black" points="376.89,-2059.2 376.89,-2090 685.84,-2090 685.84,-2059.2 376.89,-2059.2"/>
<text text-anchor="start" x="383.89" y="-2071.4" font-family="Arial" font-size="14.00">transactionTotalCost </text>
<text text-anchor="start" x="516.17" y="-2071.4" font-family="Arial" font-size="14.00" fill="#666666">[float]</text>
<polygon fill="none" stroke="black" points="376.89,-2028.4 376.89,-2059.2 685.84,-2059.2 685.84,-2028.4 376.89,-2028.4"/>
<text text-anchor="start" x="383.89" y="-2040.6" font-family="Arial" font-size="14.00">isOnHold </text>
<text text-anchor="start" x="445.36" y="-2040.6" font-family="Arial" font-size="14.00" fill="#666666">[boolean]</text>
<polygon fill="none" stroke="black" points="376.89,-1997.6 376.89,-2028.4 685.84,-2028.4 685.84,-1997.6 376.89,-1997.6"/>
<text text-anchor="start" x="383.89" y="-2009.8" font-family="Arial" font-size="14.00">onHoldQuantity </text>
<text text-anchor="start" x="484.28" y="-2009.8" font-family="Arial" font-size="14.00" fill="#666666">[float]</text>
<polygon fill="none" stroke="black" points="376.89,-1966.8 376.89,-1997.6 685.84,-1997.6 685.84,-1966.8 376.89,-1966.8"/>
<text text-anchor="start" x="383.89" y="-1979" font-family="Arial" font-size="14.00">availableQuantity </text>
<text text-anchor="start" x="495.18" y="-1979" font-family="Arial" font-size="14.00" fill="#666666">[float]</text>
<polygon fill="none" stroke="black" points="376.89,-1936 376.89,-1966.8 685.84,-1966.8 685.84,-1936 376.89,-1936"/>
<text text-anchor="start" x="383.89" y="-1948.2" font-family="Arial" font-size="14.00">inStockQuantity </text>
<text text-anchor="start" x="485.83" y="-1948.2" font-family="Arial" font-size="14.00" fill="#666666">[float]</text>
<polygon fill="none" stroke="black" points="376.89,-1905.2 376.89,-1936 685.84,-1936 685.84,-1905.2 376.89,-1905.2"/>
<text text-anchor="start" x="383.89" y="-1917.4" font-family="Arial" font-size="14.00">totalCost </text>
<text text-anchor="start" x="443.03" y="-1917.4" font-family="Arial" font-size="14.00" fill="#666666">[float]</text>
<polygon fill="none" stroke="black" points="376.89,-1874.4 376.89,-1905.2 685.84,-1905.2 685.84,-1874.4 376.89,-1874.4"/>
<text text-anchor="start" x="383.89" y="-1886.6" font-family="Arial" font-size="14.00">averageCost </text>
<text text-anchor="start" x="467.16" y="-1886.6" font-family="Arial" font-size="14.00" fill="#666666">[float]</text>
<polygon fill="none" stroke="black" points="376.89,-1843.6 376.89,-1874.4 685.84,-1874.4 685.84,-1843.6 376.89,-1843.6"/>
<text text-anchor="start" x="383.89" y="-1855.8" font-family="Arial" font-size="14.00">receiptLineItemID </text>
<text text-anchor="start" x="497.5" y="-1855.8" font-family="Arial" font-size="14.00" fill="#666666">[uuid]</text>
<polygon fill="none" stroke="black" points="376.89,-1812.8 376.89,-1843.6 685.84,-1843.6 685.84,-1812.8 376.89,-1812.8"/>
<text text-anchor="start" x="383.89" y="-1825" font-family="Arial" font-size="14.00">receiptLineItem </text>
<text text-anchor="start" x="483.5" y="-1825" font-family="Arial" font-size="14.00" fill="#666666">[ReceiptLineItem]</text>
<polygon fill="none" stroke="black" points="376.89,-1782 376.89,-1812.8 685.84,-1812.8 685.84,-1782 376.89,-1782"/>
<text text-anchor="start" x="383.89" y="-1794.2" font-family="Arial" font-size="14.00">shipmentLineItemID </text>
<text text-anchor="start" x="512.28" y="-1794.2" font-family="Arial" font-size="14.00" fill="#666666">[uuid]</text>
<polygon fill="none" stroke="black" points="376.89,-1751.2 376.89,-1782 685.84,-1782 685.84,-1751.2 376.89,-1751.2"/>
<text text-anchor="start" x="383.89" y="-1763.4" font-family="Arial" font-size="14.00">shipmentLineItem </text>
<text text-anchor="start" x="498.28" y="-1763.4" font-family="Arial" font-size="14.00" fill="#666666">[ShipmentLineItem]</text>
<polygon fill="none" stroke="black" points="376.89,-1720.4 376.89,-1751.2 685.84,-1751.2 685.84,-1720.4 376.89,-1720.4"/>
<text text-anchor="start" x="383.89" y="-1732.6" font-family="Arial" font-size="14.00">operationalStockEventID </text>
<text text-anchor="start" x="541.87" y="-1732.6" font-family="Arial" font-size="14.00" fill="#666666">[uuid]</text>
<polygon fill="none" stroke="black" points="376.89,-1689.6 376.89,-1720.4 685.84,-1720.4 685.84,-1689.6 376.89,-1689.6"/>
<text text-anchor="start" x="383.89" y="-1701.8" font-family="Arial" font-size="14.00">operationalStockEvent </text>
<text text-anchor="start" x="527.87" y="-1701.8" font-family="Arial" font-size="14.00" fill="#666666">[OperationalStockEvent]</text>
</g>
<!-- FinancialStockEvent&#45;&gt;OperationalStockEvent -->
<g id="edge1" class="edge">
<title>FinancialStockEvent:operationalStockEventID&#45;&gt;OperationalStockEvent:id</title>
<path fill="none" stroke="black" d="M697.18,-1734.95C785.7,-1720 782.88,-1513.2 687.52,-1513.2"/>
<polygon fill="black" stroke="black" points="697.14,-1734.95 686.81,-1731.29 691.83,-1735.39 687.51,-1735.75 687.51,-1735.75 687.51,-1735.75 691.83,-1735.39 687.54,-1740.26 697.14,-1734.95"/>
<text text-anchor="start" x="693.84" y="-1745.8" font-family="Arial" font-size="10.00">ForeignKeyType: OperationalStockEvent</text>
</g>
</g>
</svg>
