<?xml version="1.0" encoding="UTF-8" standalone="no"?>
<!DOCTYPE svg PUBLIC "-//W3C//DTD SVG 1.1//EN"
 "http://www.w3.org/Graphics/SVG/1.1/DTD/svg11.dtd">
<!-- Generated by graphviz version 12.1.2 (20240928.0832)
 -->
<!-- Title: ReceiptLineItem Pages: 1 -->
<svg width="979pt" height="2392pt"
 viewBox="0.00 0.00 978.58 2392.40" xmlns="http://www.w3.org/2000/svg" xmlns:xlink="http://www.w3.org/1999/xlink">
<g id="graph0" class="graph" transform="scale(1 1) rotate(0) translate(4 2388.4)">
<title>ReceiptLineItem</title>
<polygon fill="white" stroke="none" points="-4,4 -4,-2388.4 974.58,-2388.4 974.58,4 -4,4"/>
<!-- ReceiptLineItem -->
<g id="node1" class="node">
<title>ReceiptLineItem</title>
<polygon fill="#efefef" stroke="none" points="356.53,-1497.8 356.53,-1533.4 619.85,-1533.4 619.85,-1497.8 356.53,-1497.8"/>
<polygon fill="none" stroke="black" points="356.53,-1497.8 356.53,-1533.4 619.85,-1533.4 619.85,-1497.8 356.53,-1497.8"/>
<text text-anchor="start" x="363.53" y="-1511.2" font-family="Arial Bold" font-size="18.00">ReceiptLineItem</text>
<text text-anchor="start" x="484.48" y="-1511.2" font-family="Arial" font-size="14.00">    </text>
<text text-anchor="start" x="515.6" y="-1511.2" font-family="Arial" font-size="14.00" fill="#666666">[TailorDB.Type]</text>
<polygon fill="none" stroke="black" points="356.53,-1467 356.53,-1497.8 619.85,-1497.8 619.85,-1467 356.53,-1467"/>
<text text-anchor="start" x="363.53" y="-1479.2" font-family="Arial" font-size="14.00">id </text>
<text text-anchor="start" x="378.32" y="-1479.2" font-family="Arial" font-size="14.00" fill="#666666">[uuid]</text>
<polygon fill="none" stroke="black" points="356.53,-1436.2 356.53,-1467 619.85,-1467 619.85,-1436.2 356.53,-1436.2"/>
<text text-anchor="start" x="363.53" y="-1448.4" font-family="Arial" font-size="14.00">active </text>
<text text-anchor="start" x="404" y="-1448.4" font-family="Arial" font-size="14.00" fill="#666666">[boolean]</text>
<polygon fill="none" stroke="black" points="356.53,-1405.4 356.53,-1436.2 619.85,-1436.2 619.85,-1405.4 356.53,-1405.4"/>
<text text-anchor="start" x="363.53" y="-1417.6" font-family="Arial" font-size="14.00">createdAt </text>
<text text-anchor="start" x="427.35" y="-1417.6" font-family="Arial" font-size="14.00" fill="#666666">[datetime]</text>
<polygon fill="none" stroke="black" points="356.53,-1374.6 356.53,-1405.4 619.85,-1405.4 619.85,-1374.6 356.53,-1374.6"/>
<text text-anchor="start" x="363.53" y="-1386.8" font-family="Arial" font-size="14.00">receiptID </text>
<text text-anchor="start" x="423.44" y="-1386.8" font-family="Arial" font-size="14.00" fill="#666666">[uuid]</text>
<polygon fill="none" stroke="black" points="356.53,-1343.8 356.53,-1374.6 619.85,-1374.6 619.85,-1343.8 356.53,-1343.8"/>
<text text-anchor="start" x="363.53" y="-1356" font-family="Arial" font-size="14.00">receipt </text>
<text text-anchor="start" x="409.44" y="-1356" font-family="Arial" font-size="14.00" fill="#666666">[Receipt]</text>
<polygon fill="none" stroke="black" points="356.53,-1313 356.53,-1343.8 619.85,-1343.8 619.85,-1313 356.53,-1313"/>
<text text-anchor="start" x="363.53" y="-1325.2" font-family="Arial" font-size="14.00">updatedAt </text>
<text text-anchor="start" x="431.26" y="-1325.2" font-family="Arial" font-size="14.00" fill="#666666">[datetime]</text>
<polygon fill="none" stroke="black" points="356.53,-1282.2 356.53,-1313 619.85,-1313 619.85,-1282.2 356.53,-1282.2"/>
<text text-anchor="start" x="363.53" y="-1294.4" font-family="Arial" font-size="14.00">variantID </text>
<text text-anchor="start" x="423.44" y="-1294.4" font-family="Arial" font-size="14.00" fill="#666666">[uuid]</text>
<polygon fill="none" stroke="black" points="356.53,-1251.4 356.53,-1282.2 619.85,-1282.2 619.85,-1251.4 356.53,-1251.4"/>
<text text-anchor="start" x="363.53" y="-1263.6" font-family="Arial" font-size="14.00">variant </text>
<text text-anchor="start" x="409.44" y="-1263.6" font-family="Arial" font-size="14.00" fill="#666666">[ProductVariant]</text>
<polygon fill="none" stroke="black" points="356.53,-1220.6 356.53,-1251.4 619.85,-1251.4 619.85,-1220.6 356.53,-1220.6"/>
<text text-anchor="start" x="363.53" y="-1232.8" font-family="Arial" font-size="14.00">quantity </text>
<text text-anchor="start" x="416.46" y="-1232.8" font-family="Arial" font-size="14.00" fill="#666666">[float]</text>
<polygon fill="none" stroke="black" points="356.53,-1189.8 356.53,-1220.6 619.85,-1220.6 619.85,-1189.8 356.53,-1189.8"/>
<text text-anchor="start" x="363.53" y="-1202" font-family="Arial" font-size="14.00">subtotalUnitCost </text>
<text text-anchor="start" x="470.14" y="-1202" font-family="Arial" font-size="14.00" fill="#666666">[float]</text>
<polygon fill="none" stroke="black" points="356.53,-1159 356.53,-1189.8 619.85,-1189.8 619.85,-1159 356.53,-1159"/>
<text text-anchor="start" x="363.53" y="-1171.2" font-family="Arial" font-size="14.00">subtotalCost </text>
<text text-anchor="start" x="445.24" y="-1171.2" font-family="Arial" font-size="14.00" fill="#666666">[float]</text>
<polygon fill="none" stroke="black" points="356.53,-1128.2 356.53,-1159 619.85,-1159 619.85,-1128.2 356.53,-1128.2"/>
<text text-anchor="start" x="363.53" y="-1140.4" font-family="Arial" font-size="14.00">cubicMeters </text>
<text text-anchor="start" x="442.89" y="-1140.4" font-family="Arial" font-size="14.00" fill="#666666">[float]</text>
<polygon fill="none" stroke="black" points="356.53,-1097.4 356.53,-1128.2 619.85,-1128.2 619.85,-1097.4 356.53,-1097.4"/>
<text text-anchor="start" x="363.53" y="-1109.6" font-family="Arial" font-size="14.00">costPools </text>
<text text-anchor="start" x="428.12" y="-1109.6" font-family="Arial" font-size="14.00" fill="#666666">[Array\&lt;nested\&gt;]</text>
<polygon fill="none" stroke="black" points="356.53,-1066.6 356.53,-1097.4 619.85,-1097.4 619.85,-1066.6 356.53,-1066.6"/>
<text text-anchor="start" x="363.53" y="-1078.8" font-family="Arial" font-size="14.00">costPools.costPoolID </text>
<text text-anchor="start" x="499.71" y="-1078.8" font-family="Arial" font-size="14.00" fill="#666666">[uuid]</text>
<polygon fill="none" stroke="black" points="356.53,-1035.8 356.53,-1066.6 619.85,-1066.6 619.85,-1035.8 356.53,-1035.8"/>
<text text-anchor="start" x="363.53" y="-1048" font-family="Arial" font-size="14.00">costPools.costPool </text>
<text text-anchor="start" x="485.71" y="-1048" font-family="Arial" font-size="14.00" fill="#666666">[CostPool]</text>
<polygon fill="none" stroke="black" points="356.53,-1005 356.53,-1035.8 619.85,-1035.8 619.85,-1005 356.53,-1005"/>
<text text-anchor="start" x="363.53" y="-1017.2" font-family="Arial" font-size="14.00">totalCostPoolAllocation </text>
<text text-anchor="start" x="511.39" y="-1017.2" font-family="Arial" font-size="14.00" fill="#666666">[float]</text>
<polygon fill="none" stroke="black" points="356.53,-974.2 356.53,-1005 619.85,-1005 619.85,-974.2 356.53,-974.2"/>
<text text-anchor="start" x="363.53" y="-986.4" font-family="Arial" font-size="14.00">unitCostPoolAllocation </text>
<text text-anchor="start" x="507.51" y="-986.4" font-family="Arial" font-size="14.00" fill="#666666">[float]</text>
<polygon fill="none" stroke="black" points="356.53,-943.4 356.53,-974.2 619.85,-974.2 619.85,-943.4 356.53,-943.4"/>
<text text-anchor="start" x="363.53" y="-955.6" font-family="Arial" font-size="14.00">totalUnitCost </text>
<text text-anchor="start" x="447.57" y="-955.6" font-family="Arial" font-size="14.00" fill="#666666">[float]</text>
<polygon fill="none" stroke="black" points="356.53,-912.6 356.53,-943.4 619.85,-943.4 619.85,-912.6 356.53,-912.6"/>
<text text-anchor="start" x="363.53" y="-924.8" font-family="Arial" font-size="14.00">receiptStatus </text>
<text text-anchor="start" x="449.13" y="-924.8" font-family="Arial" font-size="14.00" fill="#666666">[enum]</text>
<polygon fill="none" stroke="black" points="356.53,-881.8 356.53,-912.6 619.85,-912.6 619.85,-881.8 356.53,-881.8"/>
<text text-anchor="start" x="363.53" y="-894" font-family="Arial" font-size="14.00">receivedAt </text>
<text text-anchor="start" x="433.57" y="-894" font-family="Arial" font-size="14.00" fill="#666666">[datetime]</text>
<polygon fill="none" stroke="black" stroke-width="3" points="355.03,-880.3 355.03,-1534.9 621.35,-1534.9 621.35,-880.3 355.03,-880.3"/>
</g>
<!-- Receipt -->
<g id="node4" class="node">
<title>Receipt</title>
<polygon fill="#efefef" stroke="none" points="43.2,-551.4 43.2,-587 257.18,-587 257.18,-551.4 43.2,-551.4"/>
<polygon fill="none" stroke="black" points="43.2,-551.4 43.2,-587 257.18,-587 257.18,-551.4 43.2,-551.4"/>
<text text-anchor="start" x="58.52" y="-564.8" font-family="Arial Bold" font-size="18.00">Receipt</text>
<text text-anchor="start" x="113.49" y="-564.8" font-family="Arial" font-size="14.00">    </text>
<text text-anchor="start" x="144.61" y="-564.8" font-family="Arial" font-size="14.00" fill="#666666">[TailorDB.Type]</text>
<polygon fill="none" stroke="black" points="43.2,-520.6 43.2,-551.4 257.18,-551.4 257.18,-520.6 43.2,-520.6"/>
<text text-anchor="start" x="50.2" y="-532.8" font-family="Arial" font-size="14.00">id </text>
<text text-anchor="start" x="64.99" y="-532.8" font-family="Arial" font-size="14.00" fill="#666666">[uuid]</text>
<polygon fill="none" stroke="black" points="43.2,-489.8 43.2,-520.6 257.18,-520.6 257.18,-489.8 43.2,-489.8"/>
<text text-anchor="start" x="50.2" y="-502" font-family="Arial" font-size="14.00">active </text>
<text text-anchor="start" x="90.66" y="-502" font-family="Arial" font-size="14.00" fill="#666666">[boolean]</text>
<polygon fill="none" stroke="black" points="43.2,-459 43.2,-489.8 257.18,-489.8 257.18,-459 43.2,-459"/>
<text text-anchor="start" x="50.2" y="-471.2" font-family="Arial" font-size="14.00">createdAt </text>
<text text-anchor="start" x="114.01" y="-471.2" font-family="Arial" font-size="14.00" fill="#666666">[datetime]</text>
<polygon fill="none" stroke="black" points="43.2,-428.2 43.2,-459 257.18,-459 257.18,-428.2 43.2,-428.2"/>
<text text-anchor="start" x="50.2" y="-440.4" font-family="Arial" font-size="14.00">receiptNumber </text>
<text text-anchor="start" x="145.9" y="-440.4" font-family="Arial" font-size="14.00" fill="#666666">[string]</text>
<polygon fill="none" stroke="black" points="43.2,-397.4 43.2,-428.2 257.18,-428.2 257.18,-397.4 43.2,-397.4"/>
<text text-anchor="start" x="50.2" y="-409.6" font-family="Arial" font-size="14.00">supplierID </text>
<text text-anchor="start" x="117.12" y="-409.6" font-family="Arial" font-size="14.00" fill="#666666">[uuid]</text>
<polygon fill="none" stroke="black" points="43.2,-366.6 43.2,-397.4 257.18,-397.4 257.18,-366.6 43.2,-366.6"/>
<text text-anchor="start" x="50.2" y="-378.8" font-family="Arial" font-size="14.00">supplier </text>
<text text-anchor="start" x="103.12" y="-378.8" font-family="Arial" font-size="14.00" fill="#666666">[Contact]</text>
<polygon fill="none" stroke="black" points="43.2,-335.8 43.2,-366.6 257.18,-366.6 257.18,-335.8 43.2,-335.8"/>
<text text-anchor="start" x="50.2" y="-348" font-family="Arial" font-size="14.00">purchaseOrderID </text>
<text text-anchor="start" x="161.47" y="-348" font-family="Arial" font-size="14.00" fill="#666666">[uuid]</text>
<polygon fill="none" stroke="black" points="43.2,-305 43.2,-335.8 257.18,-335.8 257.18,-305 43.2,-305"/>
<text text-anchor="start" x="50.2" y="-317.2" font-family="Arial" font-size="14.00">purchaseOrder </text>
<text text-anchor="start" x="147.47" y="-317.2" font-family="Arial" font-size="14.00" fill="#666666">[PurchaseOrder]</text>
<polygon fill="none" stroke="black" points="43.2,-274.2 43.2,-305 257.18,-305 257.18,-274.2 43.2,-274.2"/>
<text text-anchor="start" x="50.2" y="-286.4" font-family="Arial" font-size="14.00">date </text>
<text text-anchor="start" x="81.34" y="-286.4" font-family="Arial" font-size="14.00" fill="#666666">[datetime]</text>
<polygon fill="none" stroke="black" points="43.2,-243.4 43.2,-274.2 257.18,-274.2 257.18,-243.4 43.2,-243.4"/>
<text text-anchor="start" x="50.2" y="-255.6" font-family="Arial" font-size="14.00">receiptStatus </text>
<text text-anchor="start" x="135.8" y="-255.6" font-family="Arial" font-size="14.00" fill="#666666">[enum]</text>
<polygon fill="none" stroke="black" points="43.2,-212.6 43.2,-243.4 257.18,-243.4 257.18,-212.6 43.2,-212.6"/>
<text text-anchor="start" x="50.2" y="-224.8" font-family="Arial" font-size="14.00">updatedAt </text>
<text text-anchor="start" x="117.92" y="-224.8" font-family="Arial" font-size="14.00" fill="#666666">[datetime]</text>
</g>
<!-- ReceiptLineItem&#45;&gt;Receipt -->
<g id="edge3" class="edge">
<title>ReceiptLineItem:receiptID&#45;&gt;Receipt:id</title>
<path fill="none" stroke="black" d="M346.15,-1386.91C266.38,-1331.01 350.32,-536 258.18,-536"/>
<polygon fill="black" stroke="black" points="345.72,-1386.77 353.81,-1394.17 350.78,-1388.44 354.9,-1389.79 354.9,-1389.79 354.9,-1389.79 350.78,-1388.44 356.62,-1385.62 345.72,-1386.77"/>
<text text-anchor="start" x="277.39" y="-1400" font-family="Arial" font-size="10.00">Source: Receipt</text>
</g>
<!-- ProductVariant -->
<g id="node5" class="node">
<title>ProductVariant</title>
<polygon fill="#efefef" stroke="none" points="362.02,-720.8 362.02,-756.4 614.36,-756.4 614.36,-720.8 362.02,-720.8"/>
<polygon fill="none" stroke="black" points="362.02,-720.8 362.02,-756.4 614.36,-756.4 614.36,-720.8 362.02,-720.8"/>
<text text-anchor="start" x="369.02" y="-734.2" font-family="Arial Bold" font-size="18.00">ProductVariant</text>
<text text-anchor="start" x="478.99" y="-734.2" font-family="Arial" font-size="14.00">    </text>
<text text-anchor="start" x="510.11" y="-734.2" font-family="Arial" font-size="14.00" fill="#666666">[TailorDB.Type]</text>
<polygon fill="none" stroke="black" points="362.02,-690 362.02,-720.8 614.36,-720.8 614.36,-690 362.02,-690"/>
<text text-anchor="start" x="369.02" y="-702.2" font-family="Arial" font-size="14.00">id </text>
<text text-anchor="start" x="383.81" y="-702.2" font-family="Arial" font-size="14.00" fill="#666666">[uuid]</text>
<polygon fill="none" stroke="black" points="362.02,-659.2 362.02,-690 614.36,-690 614.36,-659.2 362.02,-659.2"/>
<text text-anchor="start" x="369.02" y="-671.4" font-family="Arial" font-size="14.00">active </text>
<text text-anchor="start" x="409.48" y="-671.4" font-family="Arial" font-size="14.00" fill="#666666">[boolean]</text>
<polygon fill="none" stroke="black" points="362.02,-628.4 362.02,-659.2 614.36,-659.2 614.36,-628.4 362.02,-628.4"/>
<text text-anchor="start" x="369.02" y="-640.6" font-family="Arial" font-size="14.00">createdAt </text>
<text text-anchor="start" x="432.84" y="-640.6" font-family="Arial" font-size="14.00" fill="#666666">[datetime]</text>
<polygon fill="none" stroke="black" points="362.02,-597.6 362.02,-628.4 614.36,-628.4 614.36,-597.6 362.02,-597.6"/>
<text text-anchor="start" x="369.02" y="-609.8" font-family="Arial" font-size="14.00">shopifyID </text>
<text text-anchor="start" x="431.27" y="-609.8" font-family="Arial" font-size="14.00" fill="#666666">[string]</text>
<polygon fill="none" stroke="black" points="362.02,-566.8 362.02,-597.6 614.36,-597.6 614.36,-566.8 362.02,-566.8"/>
<text text-anchor="start" x="369.02" y="-579" font-family="Arial" font-size="14.00">availableForSale </text>
<text text-anchor="start" x="477.19" y="-579" font-family="Arial" font-size="14.00" fill="#666666">[boolean]</text>
<polygon fill="none" stroke="black" points="362.02,-536 362.02,-566.8 614.36,-566.8 614.36,-536 362.02,-536"/>
<text text-anchor="start" x="369.02" y="-548.2" font-family="Arial" font-size="14.00">barcode </text>
<text text-anchor="start" x="423.5" y="-548.2" font-family="Arial" font-size="14.00" fill="#666666">[string]</text>
<polygon fill="none" stroke="black" points="362.02,-505.2 362.02,-536 614.36,-536 614.36,-505.2 362.02,-505.2"/>
<text text-anchor="start" x="369.02" y="-517.4" font-family="Arial" font-size="14.00">sku </text>
<text text-anchor="start" x="394.7" y="-517.4" font-family="Arial" font-size="14.00" fill="#666666">[string]</text>
<polygon fill="none" stroke="black" points="362.02,-474.4 362.02,-505.2 614.36,-505.2 614.36,-474.4 362.02,-474.4"/>
<text text-anchor="start" x="369.02" y="-486.6" font-family="Arial" font-size="14.00">displayName </text>
<text text-anchor="start" x="453.84" y="-486.6" font-family="Arial" font-size="14.00" fill="#666666">[string]</text>
<polygon fill="none" stroke="black" points="362.02,-443.6 362.02,-474.4 614.36,-474.4 614.36,-443.6 362.02,-443.6"/>
<text text-anchor="start" x="369.02" y="-455.8" font-family="Arial" font-size="14.00">imageID </text>
<text text-anchor="start" x="425.04" y="-455.8" font-family="Arial" font-size="14.00" fill="#666666">[uuid]</text>
<polygon fill="none" stroke="black" points="362.02,-412.8 362.02,-443.6 614.36,-443.6 614.36,-412.8 362.02,-412.8"/>
<text text-anchor="start" x="369.02" y="-425" font-family="Arial" font-size="14.00">image </text>
<text text-anchor="start" x="411.04" y="-425" font-family="Arial" font-size="14.00" fill="#666666">[ProductImage]</text>
<polygon fill="none" stroke="black" points="362.02,-382 362.02,-412.8 614.36,-412.8 614.36,-382 362.02,-382"/>
<text text-anchor="start" x="369.02" y="-394.2" font-family="Arial" font-size="14.00">inventoryQuantity </text>
<text text-anchor="start" x="481.86" y="-394.2" font-family="Arial" font-size="14.00" fill="#666666">[integer]</text>
<polygon fill="none" stroke="black" points="362.02,-351.2 362.02,-382 614.36,-382 614.36,-351.2 362.02,-351.2"/>
<text text-anchor="start" x="369.02" y="-363.4" font-family="Arial" font-size="14.00">price </text>
<text text-anchor="start" x="403.26" y="-363.4" font-family="Arial" font-size="14.00" fill="#666666">[float]</text>
<polygon fill="none" stroke="black" points="362.02,-320.4 362.02,-351.2 614.36,-351.2 614.36,-320.4 362.02,-320.4"/>
<text text-anchor="start" x="369.02" y="-332.6" font-family="Arial" font-size="14.00">inventoryItemID </text>
<text text-anchor="start" x="470.95" y="-332.6" font-family="Arial" font-size="14.00" fill="#666666">[uuid]</text>
<polygon fill="none" stroke="black" points="362.02,-289.6 362.02,-320.4 614.36,-320.4 614.36,-289.6 362.02,-289.6"/>
<text text-anchor="start" x="369.02" y="-301.8" font-family="Arial" font-size="14.00">inventoryItem </text>
<text text-anchor="start" x="456.95" y="-301.8" font-family="Arial" font-size="14.00" fill="#666666">[InventoryItem]</text>
<polygon fill="none" stroke="black" points="362.02,-258.8 362.02,-289.6 614.36,-289.6 614.36,-258.8 362.02,-258.8"/>
<text text-anchor="start" x="369.02" y="-271" font-family="Arial" font-size="14.00">productID </text>
<text text-anchor="start" x="433.61" y="-271" font-family="Arial" font-size="14.00" fill="#666666">[uuid]</text>
<polygon fill="none" stroke="black" points="362.02,-228 362.02,-258.8 614.36,-258.8 614.36,-228 362.02,-228"/>
<text text-anchor="start" x="369.02" y="-240.2" font-family="Arial" font-size="14.00">product </text>
<text text-anchor="start" x="419.61" y="-240.2" font-family="Arial" font-size="14.00" fill="#666666">[Product]</text>
<polygon fill="none" stroke="black" points="362.02,-197.2 362.02,-228 614.36,-228 614.36,-197.2 362.02,-197.2"/>
<text text-anchor="start" x="369.02" y="-209.4" font-family="Arial" font-size="14.00">taxable </text>
<text text-anchor="start" x="418.06" y="-209.4" font-family="Arial" font-size="14.00" fill="#666666">[boolean]</text>
<polygon fill="none" stroke="black" points="362.02,-166.4 362.02,-197.2 614.36,-197.2 614.36,-166.4 362.02,-166.4"/>
<text text-anchor="start" x="369.02" y="-178.6" font-family="Arial" font-size="14.00">inventoryType </text>
<text text-anchor="start" x="460.84" y="-178.6" font-family="Arial" font-size="14.00" fill="#666666">[enum]</text>
<polygon fill="none" stroke="black" points="362.02,-135.6 362.02,-166.4 614.36,-166.4 614.36,-135.6 362.02,-135.6"/>
<text text-anchor="start" x="369.02" y="-147.8" font-family="Arial" font-size="14.00">quickbookItemId </text>
<text text-anchor="start" x="474.86" y="-147.8" font-family="Arial" font-size="14.00" fill="#666666">[string]</text>
<polygon fill="none" stroke="black" points="362.02,-104.8 362.02,-135.6 614.36,-135.6 614.36,-104.8 362.02,-104.8"/>
<text text-anchor="start" x="369.02" y="-117" font-family="Arial" font-size="14.00">quickbookSyncToken </text>
<text text-anchor="start" x="505.99" y="-117" font-family="Arial" font-size="14.00" fill="#666666">[string]</text>
<polygon fill="none" stroke="black" points="362.02,-74 362.02,-104.8 614.36,-104.8 614.36,-74 362.02,-74"/>
<text text-anchor="start" x="369.02" y="-86.2" font-family="Arial" font-size="14.00">quickbookItemName </text>
<text text-anchor="start" x="500.53" y="-86.2" font-family="Arial" font-size="14.00" fill="#666666">[string]</text>
<polygon fill="none" stroke="black" points="362.02,-43.2 362.02,-74 614.36,-74 614.36,-43.2 362.02,-43.2"/>
<text text-anchor="start" x="369.02" y="-55.4" font-family="Arial" font-size="14.00">updatedAt </text>
<text text-anchor="start" x="436.75" y="-55.4" font-family="Arial" font-size="14.00" fill="#666666">[datetime]</text>
</g>
<!-- ReceiptLineItem&#45;&gt;ProductVariant -->
<g id="edge4" class="edge">
<title>ReceiptLineItem:variantID&#45;&gt;ProductVariant:id</title>
<path fill="none" stroke="black" d="M629.98,-1293.5C685.97,-1241.18 677.95,-705.4 615.36,-705.4"/>
<polygon fill="black" stroke="black" points="630.27,-1293.37 619.31,-1293.36 625.41,-1295.55 621.46,-1297.33 621.46,-1297.33 621.46,-1297.33 625.41,-1295.55 622.99,-1301.57 630.27,-1293.37"/>
<text text-anchor="start" x="627.85" y="-1307.6" font-family="Arial" font-size="10.00">Source: ProductVariant</text>
</g>
<!-- CostPool -->
<g id="node6" class="node">
<title>CostPool</title>
<polygon fill="#efefef" stroke="none" points="718.99,-489.8 718.99,-525.4 927.38,-525.4 927.38,-489.8 718.99,-489.8"/>
<polygon fill="none" stroke="black" points="718.99,-489.8 718.99,-525.4 927.38,-525.4 927.38,-489.8 718.99,-489.8"/>
<text text-anchor="start" x="725.99" y="-503.2" font-family="Arial Bold" font-size="18.00">CostPool</text>
<text text-anchor="start" x="792.02" y="-503.2" font-family="Arial" font-size="14.00">    </text>
<text text-anchor="start" x="823.14" y="-503.2" font-family="Arial" font-size="14.00" fill="#666666">[TailorDB.Type]</text>
<polygon fill="none" stroke="black" points="718.99,-459 718.99,-489.8 927.38,-489.8 927.38,-459 718.99,-459"/>
<text text-anchor="start" x="725.99" y="-471.2" font-family="Arial" font-size="14.00">id </text>
<text text-anchor="start" x="740.78" y="-471.2" font-family="Arial" font-size="14.00" fill="#666666">[uuid]</text>
<polygon fill="none" stroke="black" points="718.99,-428.2 718.99,-459 927.38,-459 927.38,-428.2 718.99,-428.2"/>
<text text-anchor="start" x="725.99" y="-440.4" font-family="Arial" font-size="14.00">active </text>
<text text-anchor="start" x="766.46" y="-440.4" font-family="Arial" font-size="14.00" fill="#666666">[boolean]</text>
<polygon fill="none" stroke="black" points="718.99,-397.4 718.99,-428.2 927.38,-428.2 927.38,-397.4 718.99,-397.4"/>
<text text-anchor="start" x="725.99" y="-409.6" font-family="Arial" font-size="14.00">createdAt </text>
<text text-anchor="start" x="789.81" y="-409.6" font-family="Arial" font-size="14.00" fill="#666666">[datetime]</text>
<polygon fill="none" stroke="black" points="718.99,-366.6 718.99,-397.4 927.38,-397.4 927.38,-366.6 718.99,-366.6"/>
<text text-anchor="start" x="725.99" y="-378.8" font-family="Arial" font-size="14.00">name </text>
<text text-anchor="start" x="764.91" y="-378.8" font-family="Arial" font-size="14.00" fill="#666666">[string]</text>
<polygon fill="none" stroke="black" points="718.99,-335.8 718.99,-366.6 927.38,-366.6 927.38,-335.8 718.99,-335.8"/>
<text text-anchor="start" x="725.99" y="-348" font-family="Arial" font-size="14.00">isClosed </text>
<text text-anchor="start" x="783.57" y="-348" font-family="Arial" font-size="14.00" fill="#666666">[boolean]</text>
<polygon fill="none" stroke="black" points="718.99,-305 718.99,-335.8 927.38,-335.8 927.38,-305 718.99,-305"/>
<text text-anchor="start" x="725.99" y="-317.2" font-family="Arial" font-size="14.00">closedAt </text>
<text text-anchor="start" x="783.58" y="-317.2" font-family="Arial" font-size="14.00" fill="#666666">[datetime]</text>
<polygon fill="none" stroke="black" points="718.99,-274.2 718.99,-305 927.38,-305 927.38,-274.2 718.99,-274.2"/>
<text text-anchor="start" x="725.99" y="-286.4" font-family="Arial" font-size="14.00">updatedAt </text>
<text text-anchor="start" x="793.72" y="-286.4" font-family="Arial" font-size="14.00" fill="#666666">[datetime]</text>
</g>
<!-- ReceiptLineItem&#45;&gt;CostPool -->
<g id="edge5" class="edge">
<title>ReceiptLineItem:costPools.costPoolID&#45;&gt;CostPool:id</title>
<path fill="none" stroke="black" d="M630.11,-1077.8C685.61,-1024.11 652.96,-474.4 717.99,-474.4"/>
<polygon fill="black" stroke="black" points="630.26,-1077.73 619.29,-1077.76 625.4,-1079.93 621.45,-1081.72 621.45,-1081.72 621.45,-1081.72 625.4,-1079.93 623.01,-1085.96 630.26,-1077.73"/>
<text text-anchor="start" x="627.85" y="-1092" font-family="Arial" font-size="10.00">Source: CostPool</text>
</g>
<!-- FinancialStockEvent -->
<g id="node2" class="node">
<title>FinancialStockEvent</title>
<polygon fill="#efefef" stroke="none" points="126.71,-2305.6 126.71,-2341.2 435.66,-2341.2 435.66,-2305.6 126.71,-2305.6"/>
<polygon fill="none" stroke="black" points="126.71,-2305.6 126.71,-2341.2 435.66,-2341.2 435.66,-2305.6 126.71,-2305.6"/>
<text text-anchor="start" x="142.02" y="-2319" font-family="Arial Bold" font-size="18.00">FinancialStockEvent</text>
<text text-anchor="start" x="291.99" y="-2319" font-family="Arial" font-size="14.00">    </text>
<text text-anchor="start" x="323.11" y="-2319" font-family="Arial" font-size="14.00" fill="#666666">[TailorDB.Type]</text>
<polygon fill="none" stroke="black" points="126.71,-2274.8 126.71,-2305.6 435.66,-2305.6 435.66,-2274.8 126.71,-2274.8"/>
<text text-anchor="start" x="133.71" y="-2287" font-family="Arial" font-size="14.00">id </text>
<text text-anchor="start" x="148.5" y="-2287" font-family="Arial" font-size="14.00" fill="#666666">[uuid]</text>
<polygon fill="none" stroke="black" points="126.71,-2244 126.71,-2274.8 435.66,-2274.8 435.66,-2244 126.71,-2244"/>
<text text-anchor="start" x="133.71" y="-2256.2" font-family="Arial" font-size="14.00">active </text>
<text text-anchor="start" x="174.18" y="-2256.2" font-family="Arial" font-size="14.00" fill="#666666">[boolean]</text>
<polygon fill="none" stroke="black" points="126.71,-2213.2 126.71,-2244 435.66,-2244 435.66,-2213.2 126.71,-2213.2"/>
<text text-anchor="start" x="133.71" y="-2225.4" font-family="Arial" font-size="14.00">createdAt </text>
<text text-anchor="start" x="197.53" y="-2225.4" font-family="Arial" font-size="14.00" fill="#666666">[datetime]</text>
<polygon fill="none" stroke="black" points="126.71,-2182.4 126.71,-2213.2 435.66,-2213.2 435.66,-2182.4 126.71,-2182.4"/>
<text text-anchor="start" x="133.71" y="-2194.6" font-family="Arial" font-size="14.00">updatedAt </text>
<text text-anchor="start" x="201.44" y="-2194.6" font-family="Arial" font-size="14.00" fill="#666666">[datetime]</text>
<polygon fill="none" stroke="black" points="126.71,-2151.6 126.71,-2182.4 435.66,-2182.4 435.66,-2151.6 126.71,-2151.6"/>
<text text-anchor="start" x="133.71" y="-2163.8" font-family="Arial" font-size="14.00">variantID </text>
<text text-anchor="start" x="193.62" y="-2163.8" font-family="Arial" font-size="14.00" fill="#666666">[uuid]</text>
<polygon fill="none" stroke="black" points="126.71,-2120.8 126.71,-2151.6 435.66,-2151.6 435.66,-2120.8 126.71,-2120.8"/>
<text text-anchor="start" x="133.71" y="-2133" font-family="Arial" font-size="14.00">variant </text>
<text text-anchor="start" x="179.62" y="-2133" font-family="Arial" font-size="14.00" fill="#666666">[ProductVariant]</text>
<polygon fill="none" stroke="black" points="126.71,-2090 126.71,-2120.8 435.66,-2120.8 435.66,-2090 126.71,-2090"/>
<text text-anchor="start" x="133.71" y="-2102.2" font-family="Arial" font-size="14.00">incrementalQuantity </text>
<text text-anchor="start" x="262.11" y="-2102.2" font-family="Arial" font-size="14.00" fill="#666666">[float]</text>
<polygon fill="none" stroke="black" points="126.71,-2059.2 126.71,-2090 435.66,-2090 435.66,-2059.2 126.71,-2059.2"/>
<text text-anchor="start" x="133.71" y="-2071.4" font-family="Arial" font-size="14.00">unitCost </text>
<text text-anchor="start" x="188.96" y="-2071.4" font-family="Arial" font-size="14.00" fill="#666666">[float]</text>
<polygon fill="none" stroke="black" points="126.71,-2028.4 126.71,-2059.2 435.66,-2059.2 435.66,-2028.4 126.71,-2028.4"/>
<text text-anchor="start" x="133.71" y="-2040.6" font-family="Arial" font-size="14.00">transactionTotalCost </text>
<text text-anchor="start" x="266" y="-2040.6" font-family="Arial" font-size="14.00" fill="#666666">[float]</text>
<polygon fill="none" stroke="black" points="126.71,-1997.6 126.71,-2028.4 435.66,-2028.4 435.66,-1997.6 126.71,-1997.6"/>
<text text-anchor="start" x="133.71" y="-2009.8" font-family="Arial" font-size="14.00">isOnHold </text>
<text text-anchor="start" x="195.18" y="-2009.8" font-family="Arial" font-size="14.00" fill="#666666">[boolean]</text>
<polygon fill="none" stroke="black" points="126.71,-1966.8 126.71,-1997.6 435.66,-1997.6 435.66,-1966.8 126.71,-1966.8"/>
<text text-anchor="start" x="133.71" y="-1979" font-family="Arial" font-size="14.00">onHoldQuantity </text>
<text text-anchor="start" x="234.11" y="-1979" font-family="Arial" font-size="14.00" fill="#666666">[float]</text>
<polygon fill="none" stroke="black" points="126.71,-1936 126.71,-1966.8 435.66,-1966.8 435.66,-1936 126.71,-1936"/>
<text text-anchor="start" x="133.71" y="-1948.2" font-family="Arial" font-size="14.00">availableQuantity </text>
<text text-anchor="start" x="245" y="-1948.2" font-family="Arial" font-size="14.00" fill="#666666">[float]</text>
<polygon fill="none" stroke="black" points="126.71,-1905.2 126.71,-1936 435.66,-1936 435.66,-1905.2 126.71,-1905.2"/>
<text text-anchor="start" x="133.71" y="-1917.4" font-family="Arial" font-size="14.00">inStockQuantity </text>
<text text-anchor="start" x="235.65" y="-1917.4" font-family="Arial" font-size="14.00" fill="#666666">[float]</text>
<polygon fill="none" stroke="black" points="126.71,-1874.4 126.71,-1905.2 435.66,-1905.2 435.66,-1874.4 126.71,-1874.4"/>
<text text-anchor="start" x="133.71" y="-1886.6" font-family="Arial" font-size="14.00">totalCost </text>
<text text-anchor="start" x="192.85" y="-1886.6" font-family="Arial" font-size="14.00" fill="#666666">[float]</text>
<polygon fill="none" stroke="black" points="126.71,-1843.6 126.71,-1874.4 435.66,-1874.4 435.66,-1843.6 126.71,-1843.6"/>
<text text-anchor="start" x="133.71" y="-1855.8" font-family="Arial" font-size="14.00">averageCost </text>
<text text-anchor="start" x="216.98" y="-1855.8" font-family="Arial" font-size="14.00" fill="#666666">[float]</text>
<polygon fill="none" stroke="black" points="126.71,-1812.8 126.71,-1843.6 435.66,-1843.6 435.66,-1812.8 126.71,-1812.8"/>
<text text-anchor="start" x="133.71" y="-1825" font-family="Arial" font-size="14.00">receiptLineItemID </text>
<text text-anchor="start" x="247.32" y="-1825" font-family="Arial" font-size="14.00" fill="#666666">[uuid]</text>
<polygon fill="none" stroke="black" points="126.71,-1782 126.71,-1812.8 435.66,-1812.8 435.66,-1782 126.71,-1782"/>
<text text-anchor="start" x="133.71" y="-1794.2" font-family="Arial" font-size="14.00">receiptLineItem </text>
<text text-anchor="start" x="233.32" y="-1794.2" font-family="Arial" font-size="14.00" fill="#666666">[ReceiptLineItem]</text>
<polygon fill="none" stroke="black" points="126.71,-1751.2 126.71,-1782 435.66,-1782 435.66,-1751.2 126.71,-1751.2"/>
<text text-anchor="start" x="133.71" y="-1763.4" font-family="Arial" font-size="14.00">shipmentLineItemID </text>
<text text-anchor="start" x="262.11" y="-1763.4" font-family="Arial" font-size="14.00" fill="#666666">[uuid]</text>
<polygon fill="none" stroke="black" points="126.71,-1720.4 126.71,-1751.2 435.66,-1751.2 435.66,-1720.4 126.71,-1720.4"/>
<text text-anchor="start" x="133.71" y="-1732.6" font-family="Arial" font-size="14.00">shipmentLineItem </text>
<text text-anchor="start" x="248.11" y="-1732.6" font-family="Arial" font-size="14.00" fill="#666666">[ShipmentLineItem]</text>
<polygon fill="none" stroke="black" points="126.71,-1689.6 126.71,-1720.4 435.66,-1720.4 435.66,-1689.6 126.71,-1689.6"/>
<text text-anchor="start" x="133.71" y="-1701.8" font-family="Arial" font-size="14.00">operationalStockEventID </text>
<text text-anchor="start" x="291.69" y="-1701.8" font-family="Arial" font-size="14.00" fill="#666666">[uuid]</text>
<polygon fill="none" stroke="black" points="126.71,-1658.8 126.71,-1689.6 435.66,-1689.6 435.66,-1658.8 126.71,-1658.8"/>
<text text-anchor="start" x="133.71" y="-1671" font-family="Arial" font-size="14.00">operationalStockEvent </text>
<text text-anchor="start" x="277.69" y="-1671" font-family="Arial" font-size="14.00" fill="#666666">[OperationalStockEvent]</text>
</g>
<!-- FinancialStockEvent&#45;&gt;ReceiptLineItem -->
<g id="edge1" class="edge">
<title>FinancialStockEvent:receiptLineItemID&#45;&gt;ReceiptLineItem:id</title>
<path fill="none" stroke="black" d="M446.49,-1825.18C480.36,-1801.99 459.32,-1652.17 435.66,-1615.6 414.68,-1583.16 377.61,-1611.98 356.53,-1579.6 332.96,-1543.39 312.33,-1482.4 355.53,-1482.4"/>
<polygon fill="black" stroke="black" points="446.54,-1825.16 435.66,-1823.8 441.44,-1826.73 437.3,-1828 437.3,-1828 437.3,-1828 441.44,-1826.73 438.31,-1832.4 446.54,-1825.16"/>
<text text-anchor="start" x="443.66" y="-1838.2" font-family="Arial" font-size="10.00">ForeignKeyType: ReceiptLineItem</text>
</g>
<!-- OperationalStockEvent -->
<g id="node3" class="node">
<title>OperationalStockEvent</title>
<polygon fill="#efefef" stroke="none" points="540.03,-2305.6 540.03,-2341.2 850.35,-2341.2 850.35,-2305.6 540.03,-2305.6"/>
<polygon fill="none" stroke="black" points="540.03,-2305.6 540.03,-2341.2 850.35,-2341.2 850.35,-2305.6 540.03,-2305.6"/>
<text text-anchor="start" x="547.03" y="-2319" font-family="Arial Bold" font-size="18.00">OperationalStockEvent</text>
<text text-anchor="start" x="714.98" y="-2319" font-family="Arial" font-size="14.00">    </text>
<text text-anchor="start" x="746.1" y="-2319" font-family="Arial" font-size="14.00" fill="#666666">[TailorDB.Type]</text>
<polygon fill="none" stroke="black" points="540.03,-2274.8 540.03,-2305.6 850.35,-2305.6 850.35,-2274.8 540.03,-2274.8"/>
<text text-anchor="start" x="547.03" y="-2287" font-family="Arial" font-size="14.00">id </text>
<text text-anchor="start" x="561.82" y="-2287" font-family="Arial" font-size="14.00" fill="#666666">[uuid]</text>
<polygon fill="none" stroke="black" points="540.03,-2244 540.03,-2274.8 850.35,-2274.8 850.35,-2244 540.03,-2244"/>
<text text-anchor="start" x="547.03" y="-2256.2" font-family="Arial" font-size="14.00">active </text>
<text text-anchor="start" x="587.49" y="-2256.2" font-family="Arial" font-size="14.00" fill="#666666">[boolean]</text>
<polygon fill="none" stroke="black" points="540.03,-2213.2 540.03,-2244 850.35,-2244 850.35,-2213.2 540.03,-2213.2"/>
<text text-anchor="start" x="547.03" y="-2225.4" font-family="Arial" font-size="14.00">createdAt </text>
<text text-anchor="start" x="610.85" y="-2225.4" font-family="Arial" font-size="14.00" fill="#666666">[datetime]</text>
<polygon fill="none" stroke="black" points="540.03,-2182.4 540.03,-2213.2 850.35,-2213.2 850.35,-2182.4 540.03,-2182.4"/>
<text text-anchor="start" x="547.03" y="-2194.6" font-family="Arial" font-size="14.00">updatedAt </text>
<text text-anchor="start" x="614.76" y="-2194.6" font-family="Arial" font-size="14.00" fill="#666666">[datetime]</text>
<polygon fill="none" stroke="black" points="540.03,-2151.6 540.03,-2182.4 850.35,-2182.4 850.35,-2151.6 540.03,-2151.6"/>
<text text-anchor="start" x="547.03" y="-2163.8" font-family="Arial" font-size="14.00">variantID </text>
<text text-anchor="start" x="606.94" y="-2163.8" font-family="Arial" font-size="14.00" fill="#666666">[uuid]</text>
<polygon fill="none" stroke="black" points="540.03,-2120.8 540.03,-2151.6 850.35,-2151.6 850.35,-2120.8 540.03,-2120.8"/>
<text text-anchor="start" x="547.03" y="-2133" font-family="Arial" font-size="14.00">variant </text>
<text text-anchor="start" x="592.94" y="-2133" font-family="Arial" font-size="14.00" fill="#666666">[ProductVariant]</text>
<polygon fill="none" stroke="black" points="540.03,-2090 540.03,-2120.8 850.35,-2120.8 850.35,-2090 540.03,-2090"/>
<text text-anchor="start" x="547.03" y="-2102.2" font-family="Arial" font-size="14.00">incrementalQuantity </text>
<text text-anchor="start" x="675.42" y="-2102.2" font-family="Arial" font-size="14.00" fill="#666666">[float]</text>
<polygon fill="none" stroke="black" points="540.03,-2059.2 540.03,-2090 850.35,-2090 850.35,-2059.2 540.03,-2059.2"/>
<text text-anchor="start" x="547.03" y="-2071.4" font-family="Arial" font-size="14.00">unitCost </text>
<text text-anchor="start" x="602.28" y="-2071.4" font-family="Arial" font-size="14.00" fill="#666666">[float]</text>
<polygon fill="none" stroke="black" points="540.03,-2028.4 540.03,-2059.2 850.35,-2059.2 850.35,-2028.4 540.03,-2028.4"/>
<text text-anchor="start" x="547.03" y="-2040.6" font-family="Arial" font-size="14.00">transactionTotalCost </text>
<text text-anchor="start" x="679.31" y="-2040.6" font-family="Arial" font-size="14.00" fill="#666666">[float]</text>
<polygon fill="none" stroke="black" points="540.03,-1997.6 540.03,-2028.4 850.35,-2028.4 850.35,-1997.6 540.03,-1997.6"/>
<text text-anchor="start" x="547.03" y="-2009.8" font-family="Arial" font-size="14.00">isOnHold </text>
<text text-anchor="start" x="608.5" y="-2009.8" font-family="Arial" font-size="14.00" fill="#666666">[boolean]</text>
<polygon fill="none" stroke="black" points="540.03,-1966.8 540.03,-1997.6 850.35,-1997.6 850.35,-1966.8 540.03,-1966.8"/>
<text text-anchor="start" x="547.03" y="-1979" font-family="Arial" font-size="14.00">onHoldQuantity </text>
<text text-anchor="start" x="647.42" y="-1979" font-family="Arial" font-size="14.00" fill="#666666">[float]</text>
<polygon fill="none" stroke="black" points="540.03,-1936 540.03,-1966.8 850.35,-1966.8 850.35,-1936 540.03,-1936"/>
<text text-anchor="start" x="547.03" y="-1948.2" font-family="Arial" font-size="14.00">availableQuantity </text>
<text text-anchor="start" x="658.32" y="-1948.2" font-family="Arial" font-size="14.00" fill="#666666">[float]</text>
<polygon fill="none" stroke="black" points="540.03,-1905.2 540.03,-1936 850.35,-1936 850.35,-1905.2 540.03,-1905.2"/>
<text text-anchor="start" x="547.03" y="-1917.4" font-family="Arial" font-size="14.00">inStockQuantity </text>
<text text-anchor="start" x="648.97" y="-1917.4" font-family="Arial" font-size="14.00" fill="#666666">[float]</text>
<polygon fill="none" stroke="black" points="540.03,-1874.4 540.03,-1905.2 850.35,-1905.2 850.35,-1874.4 540.03,-1874.4"/>
<text text-anchor="start" x="547.03" y="-1886.6" font-family="Arial" font-size="14.00">totalCost </text>
<text text-anchor="start" x="606.17" y="-1886.6" font-family="Arial" font-size="14.00" fill="#666666">[float]</text>
<polygon fill="none" stroke="black" points="540.03,-1843.6 540.03,-1874.4 850.35,-1874.4 850.35,-1843.6 540.03,-1843.6"/>
<text text-anchor="start" x="547.03" y="-1855.8" font-family="Arial" font-size="14.00">averageCost </text>
<text text-anchor="start" x="630.3" y="-1855.8" font-family="Arial" font-size="14.00" fill="#666666">[float]</text>
<polygon fill="none" stroke="black" points="540.03,-1812.8 540.03,-1843.6 850.35,-1843.6 850.35,-1812.8 540.03,-1812.8"/>
<text text-anchor="start" x="547.03" y="-1825" font-family="Arial" font-size="14.00">receiptLineItemID </text>
<text text-anchor="start" x="660.64" y="-1825" font-family="Arial" font-size="14.00" fill="#666666">[uuid]</text>
<polygon fill="none" stroke="black" points="540.03,-1782 540.03,-1812.8 850.35,-1812.8 850.35,-1782 540.03,-1782"/>
<text text-anchor="start" x="547.03" y="-1794.2" font-family="Arial" font-size="14.00">receiptLineItem </text>
<text text-anchor="start" x="646.64" y="-1794.2" font-family="Arial" font-size="14.00" fill="#666666">[ReceiptLineItem]</text>
<polygon fill="none" stroke="black" points="540.03,-1751.2 540.03,-1782 850.35,-1782 850.35,-1751.2 540.03,-1751.2"/>
<text text-anchor="start" x="547.03" y="-1763.4" font-family="Arial" font-size="14.00">shipmentLineItemID </text>
<text text-anchor="start" x="675.42" y="-1763.4" font-family="Arial" font-size="14.00" fill="#666666">[uuid]</text>
<polygon fill="none" stroke="black" points="540.03,-1720.4 540.03,-1751.2 850.35,-1751.2 850.35,-1720.4 540.03,-1720.4"/>
<text text-anchor="start" x="547.03" y="-1732.6" font-family="Arial" font-size="14.00">shipmentLineItem </text>
<text text-anchor="start" x="661.42" y="-1732.6" font-family="Arial" font-size="14.00" fill="#666666">[ShipmentLineItem]</text>
<polygon fill="none" stroke="black" points="540.03,-1689.6 540.03,-1720.4 850.35,-1720.4 850.35,-1689.6 540.03,-1689.6"/>
<text text-anchor="start" x="547.03" y="-1701.8" font-family="Arial" font-size="14.00">sequence </text>
<text text-anchor="start" x="611.64" y="-1701.8" font-family="Arial" font-size="14.00" fill="#666666">[integer]</text>
<polygon fill="none" stroke="black" points="540.03,-1658.8 540.03,-1689.6 850.35,-1689.6 850.35,-1658.8 540.03,-1658.8"/>
<text text-anchor="start" x="547.03" y="-1671" font-family="Arial" font-size="14.00">copiedToFinancialLedger </text>
<text text-anchor="start" x="708.13" y="-1671" font-family="Arial" font-size="14.00" fill="#666666">[boolean]</text>
</g>
<!-- OperationalStockEvent&#45;&gt;ReceiptLineItem -->
<g id="edge2" class="edge">
<title>OperationalStockEvent:receiptLineItemID&#45;&gt;ReceiptLineItem:id</title>
<path fill="none" stroke="black" d="M529.2,-1825.18C495.32,-1801.99 516.31,-1652.13 540.03,-1615.6 561.22,-1582.96 598.56,-1612.18 619.85,-1579.6 643.47,-1543.43 664.05,-1482.4 620.85,-1482.4"/>
<polygon fill="black" stroke="black" points="529.15,-1825.16 537.39,-1832.4 534.25,-1826.73 538.39,-1828 538.39,-1828 538.39,-1828 534.25,-1826.73 540.03,-1823.8 529.15,-1825.16"/>
<text text-anchor="start" x="504.73" y="-1812.2" font-family="Arial" font-size="10.00">ForeignKeyType: ReceiptLineItem</text>
</g>
</g>
</svg>
