<?xml version="1.0" encoding="UTF-8" standalone="no"?>
<!DOCTYPE svg PUBLIC "-//W3C//DTD SVG 1.1//EN"
 "http://www.w3.org/Graphics/SVG/1.1/DTD/svg11.dtd">
<!-- Generated by graphviz version 12.1.2 (20240928.0832)
 -->
<!-- Title: Company Pages: 1 -->
<svg width="924pt" height="1002pt"
 viewBox="0.00 0.00 924.09 1002.40" xmlns="http://www.w3.org/2000/svg" xmlns:xlink="http://www.w3.org/1999/xlink">
<g id="graph0" class="graph" transform="scale(1 1) rotate(0) translate(4 998.4)">
<title>Company</title>
<polygon fill="white" stroke="none" points="-4,4 -4,-998.4 920.09,-998.4 920.09,4 -4,4"/>
<!-- Company -->
<g id="node1" class="node">
<title>Company</title>
<polygon fill="#efefef" stroke="none" points="309.2,-292.6 309.2,-328.2 502.91,-328.2 502.91,-292.6 309.2,-292.6"/>
<polygon fill="none" stroke="black" points="309.2,-292.6 309.2,-328.2 502.91,-328.2 502.91,-292.6 309.2,-292.6"/>
<text text-anchor="start" x="316.2" y="-306" font-family="Arial Bold" font-size="18.00">Company</text>
<text text-anchor="start" x="386.19" y="-306" font-family="Arial" font-size="14.00">    </text>
<text text-anchor="start" x="417.31" y="-306" font-family="Arial" font-size="14.00" fill="#666666">[Base Table]</text>
<polygon fill="none" stroke="black" points="309.2,-261.8 309.2,-292.6 502.91,-292.6 502.91,-261.8 309.2,-261.8"/>
<text text-anchor="start" x="316.2" y="-274" font-family="Arial" font-size="14.00">id </text>
<text text-anchor="start" x="330.98" y="-274" font-family="Arial" font-size="14.00" fill="#666666">[uuid]</text>
<polygon fill="none" stroke="black" points="309.2,-231 309.2,-261.8 502.91,-261.8 502.91,-231 309.2,-231"/>
<text text-anchor="start" x="316.2" y="-243.2" font-family="Arial" font-size="14.00">name </text>
<text text-anchor="start" x="355.11" y="-243.2" font-family="Arial" font-size="14.00" fill="#666666">[string]</text>
<polygon fill="none" stroke="black" points="309.2,-200.2 309.2,-231 502.91,-231 502.91,-200.2 309.2,-200.2"/>
<text text-anchor="start" x="316.2" y="-212.4" font-family="Arial" font-size="14.00">isDeleted </text>
<text text-anchor="start" x="378.45" y="-212.4" font-family="Arial" font-size="14.00" fill="#666666">[boolean]</text>
<polygon fill="none" stroke="black" points="309.2,-169.4 309.2,-200.2 502.91,-200.2 502.91,-169.4 309.2,-169.4"/>
<text text-anchor="start" x="316.2" y="-181.6" font-family="Arial" font-size="14.00">url </text>
<text text-anchor="start" x="335.64" y="-181.6" font-family="Arial" font-size="14.00" fill="#666666">[string]</text>
<polygon fill="none" stroke="black" points="309.2,-138.6 309.2,-169.4 502.91,-169.4 502.91,-138.6 309.2,-138.6"/>
<text text-anchor="start" x="316.2" y="-150.8" font-family="Arial" font-size="14.00">linkedInUrl </text>
<text text-anchor="start" x="386.22" y="-150.8" font-family="Arial" font-size="14.00" fill="#666666">[string]</text>
<polygon fill="none" stroke="black" points="309.2,-107.8 309.2,-138.6 502.91,-138.6 502.91,-107.8 309.2,-107.8"/>
<text text-anchor="start" x="316.2" y="-120" font-family="Arial" font-size="14.00">logoUrl </text>
<text text-anchor="start" x="364.44" y="-120" font-family="Arial" font-size="14.00" fill="#666666">[string]</text>
<polygon fill="none" stroke="black" points="309.2,-77 309.2,-107.8 502.91,-107.8 502.91,-77 309.2,-77"/>
<text text-anchor="start" x="316.2" y="-89.2" font-family="Arial" font-size="14.00">createdAt </text>
<text text-anchor="start" x="380.01" y="-89.2" font-family="Arial" font-size="14.00" fill="#666666">[datetime]</text>
<polygon fill="none" stroke="black" points="309.2,-46.2 309.2,-77 502.91,-77 502.91,-46.2 309.2,-46.2"/>
<text text-anchor="start" x="316.2" y="-58.4" font-family="Arial" font-size="14.00">updatedAt </text>
<text text-anchor="start" x="383.92" y="-58.4" font-family="Arial" font-size="14.00" fill="#666666">[datetime]</text>
<polygon fill="none" stroke="black" stroke-width="3" points="307.7,-44.7 307.7,-329.7 504.41,-329.7 504.41,-44.7 307.7,-44.7"/>
</g>
<!-- Contact -->
<g id="node2" class="node">
<title>Contact</title>
<polygon fill="#efefef" stroke="none" points="43.2,-854 43.2,-889.6 222.9,-889.6 222.9,-854 43.2,-854"/>
<polygon fill="none" stroke="black" points="43.2,-854 43.2,-889.6 222.9,-889.6 222.9,-854 43.2,-854"/>
<text text-anchor="start" x="50.2" y="-867.4" font-family="Arial Bold" font-size="18.00">Contact</text>
<text text-anchor="start" x="106.19" y="-867.4" font-family="Arial" font-size="14.00">    </text>
<text text-anchor="start" x="137.3" y="-867.4" font-family="Arial" font-size="14.00" fill="#666666">[Base Table]</text>
<polygon fill="none" stroke="black" points="43.2,-823.2 43.2,-854 222.9,-854 222.9,-823.2 43.2,-823.2"/>
<text text-anchor="start" x="50.2" y="-835.4" font-family="Arial" font-size="14.00">id </text>
<text text-anchor="start" x="64.99" y="-835.4" font-family="Arial" font-size="14.00" fill="#666666">[uuid]</text>
<polygon fill="none" stroke="black" points="43.2,-792.4 43.2,-823.2 222.9,-823.2 222.9,-792.4 43.2,-792.4"/>
<text text-anchor="start" x="50.2" y="-804.6" font-family="Arial" font-size="14.00">isDeleted </text>
<text text-anchor="start" x="112.45" y="-804.6" font-family="Arial" font-size="14.00" fill="#666666">[boolean]</text>
<polygon fill="none" stroke="black" points="43.2,-761.6 43.2,-792.4 222.9,-792.4 222.9,-761.6 43.2,-761.6"/>
<text text-anchor="start" x="50.2" y="-773.8" font-family="Arial" font-size="14.00">lastName </text>
<text text-anchor="start" x="113.22" y="-773.8" font-family="Arial" font-size="14.00" fill="#666666">[string]</text>
<polygon fill="none" stroke="black" points="43.2,-730.8 43.2,-761.6 222.9,-761.6 222.9,-730.8 43.2,-730.8"/>
<text text-anchor="start" x="50.2" y="-743" font-family="Arial" font-size="14.00">email </text>
<text text-anchor="start" x="87.54" y="-743" font-family="Arial" font-size="14.00" fill="#666666">[string]</text>
<polygon fill="none" stroke="black" points="43.2,-700 43.2,-730.8 222.9,-730.8 222.9,-700 43.2,-700"/>
<text text-anchor="start" x="50.2" y="-712.2" font-family="Arial" font-size="14.00">phonePrimary </text>
<text text-anchor="start" x="141.24" y="-712.2" font-family="Arial" font-size="14.00" fill="#666666">[string]</text>
<polygon fill="none" stroke="black" points="43.2,-669.2 43.2,-700 222.9,-700 222.9,-669.2 43.2,-669.2"/>
<text text-anchor="start" x="50.2" y="-681.4" font-family="Arial" font-size="14.00">linkedInUrl </text>
<text text-anchor="start" x="120.23" y="-681.4" font-family="Arial" font-size="14.00" fill="#666666">[string]</text>
<polygon fill="none" stroke="black" points="43.2,-638.4 43.2,-669.2 222.9,-669.2 222.9,-638.4 43.2,-638.4"/>
<text text-anchor="start" x="50.2" y="-650.6" font-family="Arial" font-size="14.00">companyId </text>
<text text-anchor="start" x="122.57" y="-650.6" font-family="Arial" font-size="14.00" fill="#666666">[uuid]</text>
<polygon fill="none" stroke="black" points="43.2,-607.6 43.2,-638.4 222.9,-638.4 222.9,-607.6 43.2,-607.6"/>
<text text-anchor="start" x="50.2" y="-619.8" font-family="Arial" font-size="14.00">company </text>
<text text-anchor="start" x="110.9" y="-619.8" font-family="Arial" font-size="14.00" fill="#666666">[Company]</text>
<polygon fill="none" stroke="black" points="43.2,-576.8 43.2,-607.6 222.9,-607.6 222.9,-576.8 43.2,-576.8"/>
<text text-anchor="start" x="50.2" y="-589" font-family="Arial" font-size="14.00">createdAt </text>
<text text-anchor="start" x="114.01" y="-589" font-family="Arial" font-size="14.00" fill="#666666">[datetime]</text>
<polygon fill="none" stroke="black" points="43.2,-546 43.2,-576.8 222.9,-576.8 222.9,-546 43.2,-546"/>
<text text-anchor="start" x="50.2" y="-558.2" font-family="Arial" font-size="14.00">updatedAt </text>
<text text-anchor="start" x="117.92" y="-558.2" font-family="Arial" font-size="14.00" fill="#666666">[datetime]</text>
<polygon fill="none" stroke="black" points="43.2,-515.2 43.2,-546 222.9,-546 222.9,-515.2 43.2,-515.2"/>
<text text-anchor="start" x="50.2" y="-527.4" font-family="Arial" font-size="14.00">firstName </text>
<text text-anchor="start" x="113.99" y="-527.4" font-family="Arial" font-size="14.00" fill="#666666">[string]</text>
</g>
<!-- Contact&#45;&gt;Company -->
<g id="edge1" class="edge">
<title>Contact:companyId&#45;&gt;Company:id</title>
<path fill="none" stroke="black" d="M234.03,-651.77C302.49,-622.13 226.12,-277.2 308.2,-277.2"/>
<polygon fill="black" stroke="black" points="234.04,-651.77 223.35,-649.32 228.81,-652.82 224.56,-653.67 224.56,-653.67 224.56,-653.67 228.81,-652.82 225.11,-658.15 234.04,-651.77"/>
<text text-anchor="start" x="214.62" y="-637.8" font-family="Arial" font-size="10.00">ForeignKey</text>
</g>
<!-- Deal -->
<g id="node3" class="node">
<title>Deal</title>
<polygon fill="#efefef" stroke="none" points="327.2,-915.6 327.2,-951.2 484.9,-951.2 484.9,-915.6 327.2,-915.6"/>
<polygon fill="none" stroke="black" points="327.2,-915.6 327.2,-951.2 484.9,-951.2 484.9,-915.6 327.2,-915.6"/>
<text text-anchor="start" x="334.2" y="-929" font-family="Arial Bold" font-size="18.00">Deal</text>
<text text-anchor="start" x="368.18" y="-929" font-family="Arial" font-size="14.00">    </text>
<text text-anchor="start" x="399.3" y="-929" font-family="Arial" font-size="14.00" fill="#666666">[Base Table]</text>
<polygon fill="none" stroke="black" points="327.2,-884.8 327.2,-915.6 484.9,-915.6 484.9,-884.8 327.2,-884.8"/>
<text text-anchor="start" x="334.2" y="-897" font-family="Arial" font-size="14.00">id </text>
<text text-anchor="start" x="348.99" y="-897" font-family="Arial" font-size="14.00" fill="#666666">[uuid]</text>
<polygon fill="none" stroke="black" points="327.2,-854 327.2,-884.8 484.9,-884.8 484.9,-854 327.2,-854"/>
<text text-anchor="start" x="334.2" y="-866.2" font-family="Arial" font-size="14.00">updatedAt </text>
<text text-anchor="start" x="401.93" y="-866.2" font-family="Arial" font-size="14.00" fill="#666666">[datetime]</text>
<polygon fill="none" stroke="black" points="327.2,-823.2 327.2,-854 484.9,-854 484.9,-823.2 327.2,-823.2"/>
<text text-anchor="start" x="334.2" y="-835.4" font-family="Arial" font-size="14.00">amount </text>
<text text-anchor="start" x="384.79" y="-835.4" font-family="Arial" font-size="14.00" fill="#666666">[float]</text>
<polygon fill="none" stroke="black" points="327.2,-792.4 327.2,-823.2 484.9,-823.2 484.9,-792.4 327.2,-792.4"/>
<text text-anchor="start" x="334.2" y="-804.6" font-family="Arial" font-size="14.00">value </text>
<text text-anchor="start" x="371.56" y="-804.6" font-family="Arial" font-size="14.00" fill="#666666">[float]</text>
<polygon fill="none" stroke="black" points="327.2,-761.6 327.2,-792.4 484.9,-792.4 484.9,-761.6 327.2,-761.6"/>
<text text-anchor="start" x="334.2" y="-773.8" font-family="Arial" font-size="14.00">userId </text>
<text text-anchor="start" x="377" y="-773.8" font-family="Arial" font-size="14.00" fill="#666666">[uuid]</text>
<polygon fill="none" stroke="black" points="327.2,-730.8 327.2,-761.6 484.9,-761.6 484.9,-730.8 327.2,-730.8"/>
<text text-anchor="start" x="334.2" y="-743" font-family="Arial" font-size="14.00">contactId </text>
<text text-anchor="start" x="394.91" y="-743" font-family="Arial" font-size="14.00" fill="#666666">[uuid]</text>
<polygon fill="none" stroke="black" points="327.2,-700 327.2,-730.8 484.9,-730.8 484.9,-700 327.2,-700"/>
<text text-anchor="start" x="334.2" y="-712.2" font-family="Arial" font-size="14.00">isDeleted </text>
<text text-anchor="start" x="396.46" y="-712.2" font-family="Arial" font-size="14.00" fill="#666666">[boolean]</text>
<polygon fill="none" stroke="black" points="327.2,-669.2 327.2,-700 484.9,-700 484.9,-669.2 327.2,-669.2"/>
<text text-anchor="start" x="334.2" y="-681.4" font-family="Arial" font-size="14.00">company </text>
<text text-anchor="start" x="394.9" y="-681.4" font-family="Arial" font-size="14.00" fill="#666666">[Company]</text>
<polygon fill="none" stroke="black" points="327.2,-638.4 327.2,-669.2 484.9,-669.2 484.9,-638.4 327.2,-638.4"/>
<text text-anchor="start" x="334.2" y="-650.6" font-family="Arial" font-size="14.00">probability </text>
<text text-anchor="start" x="401.91" y="-650.6" font-family="Arial" font-size="14.00" fill="#666666">[float]</text>
<polygon fill="none" stroke="black" points="327.2,-607.6 327.2,-638.4 484.9,-638.4 484.9,-607.6 327.2,-607.6"/>
<text text-anchor="start" x="334.2" y="-619.8" font-family="Arial" font-size="14.00">dealStageId </text>
<text text-anchor="start" x="412.82" y="-619.8" font-family="Arial" font-size="14.00" fill="#666666">[uuid]</text>
<polygon fill="none" stroke="black" points="327.2,-576.8 327.2,-607.6 484.9,-607.6 484.9,-576.8 327.2,-576.8"/>
<text text-anchor="start" x="334.2" y="-589" font-family="Arial" font-size="14.00">dealStage </text>
<text text-anchor="start" x="401.15" y="-589" font-family="Arial" font-size="14.00" fill="#666666">[DealStage]</text>
<polygon fill="none" stroke="black" points="327.2,-546 327.2,-576.8 484.9,-576.8 484.9,-546 327.2,-546"/>
<text text-anchor="start" x="334.2" y="-558.2" font-family="Arial" font-size="14.00">createdAt </text>
<text text-anchor="start" x="398.02" y="-558.2" font-family="Arial" font-size="14.00" fill="#666666">[datetime]</text>
<polygon fill="none" stroke="black" points="327.2,-515.2 327.2,-546 484.9,-546 484.9,-515.2 327.2,-515.2"/>
<text text-anchor="start" x="334.2" y="-527.4" font-family="Arial" font-size="14.00">user </text>
<text text-anchor="start" x="365.33" y="-527.4" font-family="Arial" font-size="14.00" fill="#666666">[User]</text>
<polygon fill="none" stroke="black" points="327.2,-484.4 327.2,-515.2 484.9,-515.2 484.9,-484.4 327.2,-484.4"/>
<text text-anchor="start" x="334.2" y="-496.6" font-family="Arial" font-size="14.00">companyId </text>
<text text-anchor="start" x="406.58" y="-496.6" font-family="Arial" font-size="14.00" fill="#666666">[uuid]</text>
<polygon fill="none" stroke="black" points="327.2,-453.6 327.2,-484.4 484.9,-484.4 484.9,-453.6 327.2,-453.6"/>
<text text-anchor="start" x="334.2" y="-465.8" font-family="Arial" font-size="14.00">contact </text>
<text text-anchor="start" x="383.23" y="-465.8" font-family="Arial" font-size="14.00" fill="#666666">[Contact]</text>
</g>
<!-- Deal&#45;&gt;Company -->
<g id="edge2" class="edge">
<title>Deal:companyId&#45;&gt;Company:id</title>
<path fill="none" stroke="black" d="M495.62,-496.82C537.67,-470.41 550.14,-277.2 503.91,-277.2"/>
<polygon fill="black" stroke="black" points="495.78,-496.77 484.9,-495.4 490.68,-498.34 486.54,-499.6 486.54,-499.6 486.54,-499.6 490.68,-498.34 487.54,-504 495.78,-496.77"/>
<text text-anchor="start" x="492.9" y="-509.8" font-family="Arial" font-size="10.00">ForeignKey</text>
</g>
<!-- EngagementCompany -->
<g id="node4" class="node">
<title>EngagementCompany</title>
<polygon fill="#efefef" stroke="none" points="589.21,-792.4 589.21,-828 872.89,-828 872.89,-792.4 589.21,-792.4"/>
<polygon fill="none" stroke="black" points="589.21,-792.4 589.21,-828 872.89,-828 872.89,-792.4 589.21,-792.4"/>
<text text-anchor="start" x="596.21" y="-805.8" font-family="Arial Bold" font-size="18.00">EngagementCompany</text>
<text text-anchor="start" x="756.17" y="-805.8" font-family="Arial" font-size="14.00">    </text>
<text text-anchor="start" x="787.29" y="-805.8" font-family="Arial" font-size="14.00" fill="#666666">[Base Table]</text>
<polygon fill="none" stroke="black" points="589.21,-761.6 589.21,-792.4 872.89,-792.4 872.89,-761.6 589.21,-761.6"/>
<text text-anchor="start" x="596.21" y="-773.8" font-family="Arial" font-size="14.00">id </text>
<text text-anchor="start" x="611" y="-773.8" font-family="Arial" font-size="14.00" fill="#666666">[uuid]</text>
<polygon fill="none" stroke="black" points="589.21,-730.8 589.21,-761.6 872.89,-761.6 872.89,-730.8 589.21,-730.8"/>
<text text-anchor="start" x="596.21" y="-743" font-family="Arial" font-size="14.00">engagement </text>
<text text-anchor="start" x="677.94" y="-743" font-family="Arial" font-size="14.00" fill="#666666">[Engagement]</text>
<polygon fill="none" stroke="black" points="589.21,-700 589.21,-730.8 872.89,-730.8 872.89,-700 589.21,-700"/>
<text text-anchor="start" x="596.21" y="-712.2" font-family="Arial" font-size="14.00">createdAt </text>
<text text-anchor="start" x="660.03" y="-712.2" font-family="Arial" font-size="14.00" fill="#666666">[datetime]</text>
<polygon fill="none" stroke="black" points="589.21,-669.2 589.21,-700 872.89,-700 872.89,-669.2 589.21,-669.2"/>
<text text-anchor="start" x="596.21" y="-681.4" font-family="Arial" font-size="14.00">updatedAt </text>
<text text-anchor="start" x="663.94" y="-681.4" font-family="Arial" font-size="14.00" fill="#666666">[datetime]</text>
<polygon fill="none" stroke="black" points="589.21,-638.4 589.21,-669.2 872.89,-669.2 872.89,-638.4 589.21,-638.4"/>
<text text-anchor="start" x="596.21" y="-650.6" font-family="Arial" font-size="14.00">companyId </text>
<text text-anchor="start" x="668.58" y="-650.6" font-family="Arial" font-size="14.00" fill="#666666">[uuid]</text>
<polygon fill="none" stroke="black" points="589.21,-607.6 589.21,-638.4 872.89,-638.4 872.89,-607.6 589.21,-607.6"/>
<text text-anchor="start" x="596.21" y="-619.8" font-family="Arial" font-size="14.00">company </text>
<text text-anchor="start" x="656.91" y="-619.8" font-family="Arial" font-size="14.00" fill="#666666">[Company]</text>
<polygon fill="none" stroke="black" points="589.21,-576.8 589.21,-607.6 872.89,-607.6 872.89,-576.8 589.21,-576.8"/>
<text text-anchor="start" x="596.21" y="-589" font-family="Arial" font-size="14.00">engagementId </text>
<text text-anchor="start" x="689.62" y="-589" font-family="Arial" font-size="14.00" fill="#666666">[uuid]</text>
</g>
<!-- EngagementCompany&#45;&gt;Company -->
<g id="edge3" class="edge">
<title>EngagementCompany:companyId&#45;&gt;Company:id</title>
<path fill="none" stroke="black" d="M578.09,-651.77C509.63,-622.13 585.98,-277.2 503.91,-277.2"/>
<polygon fill="black" stroke="black" points="578.08,-651.77 587,-658.15 583.31,-652.82 587.56,-653.67 587.56,-653.67 587.56,-653.67 583.31,-652.82 588.77,-649.32 578.08,-651.77"/>
<text text-anchor="start" x="546.36" y="-637.8" font-family="Arial" font-size="10.00">ForeignKey</text>
</g>
</g>
</svg>
