<?xml version="1.0" encoding="UTF-8" standalone="no"?>
<!DOCTYPE svg PUBLIC "-//W3C//DTD SVG 1.1//EN"
 "http://www.w3.org/Graphics/SVG/1.1/DTD/svg11.dtd">
<!-- Generated by graphviz version 12.1.2 (20240928.0832)
 -->
<!-- Title: ContactListMember Pages: 1 -->
<svg width="389pt" height="694pt"
 viewBox="0.00 0.00 389.02 694.40" xmlns="http://www.w3.org/2000/svg" xmlns:xlink="http://www.w3.org/1999/xlink">
<g id="graph0" class="graph" transform="scale(1 1) rotate(0) translate(4 690.4)">
<title>ContactListMember</title>
<polygon fill="white" stroke="none" points="-4,4 -4,-690.4 385.02,-690.4 385.02,4 -4,4"/>
<!-- ContactListMember -->
<g id="node1" class="node">
<title>ContactListMember</title>
<polygon fill="#efefef" stroke="none" points="46.2,-604.6 46.2,-640.2 314.88,-640.2 314.88,-604.6 46.2,-604.6"/>
<polygon fill="none" stroke="black" points="46.2,-604.6 46.2,-640.2 314.88,-640.2 314.88,-604.6 46.2,-604.6"/>
<text text-anchor="start" x="53.2" y="-618" font-family="Arial Bold" font-size="18.00">ContactListMember</text>
<text text-anchor="start" x="198.17" y="-618" font-family="Arial" font-size="14.00">    </text>
<text text-anchor="start" x="229.28" y="-618" font-family="Arial" font-size="14.00" fill="#666666">[Base Table]</text>
<polygon fill="none" stroke="black" points="46.2,-573.8 46.2,-604.6 314.88,-604.6 314.88,-573.8 46.2,-573.8"/>
<text text-anchor="start" x="53.2" y="-586" font-family="Arial" font-size="14.00">id </text>
<text text-anchor="start" x="67.99" y="-586" font-family="Arial" font-size="14.00" fill="#666666">[uuid]</text>
<polygon fill="none" stroke="black" points="46.2,-543 46.2,-573.8 314.88,-573.8 314.88,-543 46.2,-543"/>
<text text-anchor="start" x="53.2" y="-555.2" font-family="Arial" font-size="14.00">contact </text>
<text text-anchor="start" x="102.23" y="-555.2" font-family="Arial" font-size="14.00" fill="#666666">[Contact]</text>
<polygon fill="none" stroke="black" points="46.2,-512.2 46.2,-543 314.88,-543 314.88,-512.2 46.2,-512.2"/>
<text text-anchor="start" x="53.2" y="-524.4" font-family="Arial" font-size="14.00">contactListId </text>
<text text-anchor="start" x="135.69" y="-524.4" font-family="Arial" font-size="14.00" fill="#666666">[uuid]</text>
<polygon fill="none" stroke="black" points="46.2,-481.4 46.2,-512.2 314.88,-512.2 314.88,-481.4 46.2,-481.4"/>
<text text-anchor="start" x="53.2" y="-493.6" font-family="Arial" font-size="14.00">contactList </text>
<text text-anchor="start" x="124.01" y="-493.6" font-family="Arial" font-size="14.00" fill="#666666">[ContactList]</text>
<polygon fill="none" stroke="black" points="46.2,-450.6 46.2,-481.4 314.88,-481.4 314.88,-450.6 46.2,-450.6"/>
<text text-anchor="start" x="53.2" y="-462.8" font-family="Arial" font-size="14.00">addedAt </text>
<text text-anchor="start" x="109.25" y="-462.8" font-family="Arial" font-size="14.00" fill="#666666">[string]</text>
<polygon fill="none" stroke="black" points="46.2,-419.8 46.2,-450.6 314.88,-450.6 314.88,-419.8 46.2,-419.8"/>
<text text-anchor="start" x="53.2" y="-432" font-family="Arial" font-size="14.00">createdAt </text>
<text text-anchor="start" x="117.01" y="-432" font-family="Arial" font-size="14.00" fill="#666666">[datetime]</text>
<polygon fill="none" stroke="black" points="46.2,-389 46.2,-419.8 314.88,-419.8 314.88,-389 46.2,-389"/>
<text text-anchor="start" x="53.2" y="-401.2" font-family="Arial" font-size="14.00">updatedAt </text>
<text text-anchor="start" x="120.92" y="-401.2" font-family="Arial" font-size="14.00" fill="#666666">[datetime]</text>
<polygon fill="none" stroke="black" points="46.2,-358.2 46.2,-389 314.88,-389 314.88,-358.2 46.2,-358.2"/>
<text text-anchor="start" x="53.2" y="-370.4" font-family="Arial" font-size="14.00">contactId </text>
<text text-anchor="start" x="113.9" y="-370.4" font-family="Arial" font-size="14.00" fill="#666666">[uuid]</text>
<polygon fill="none" stroke="black" stroke-width="3" points="44.7,-356.7 44.7,-641.7 316.38,-641.7 316.38,-356.7 44.7,-356.7"/>
</g>
<!-- ContactList -->
<g id="node2" class="node">
<title>ContactList</title>
<polygon fill="#efefef" stroke="none" points="76.69,-197.2 76.69,-232.8 284.39,-232.8 284.39,-197.2 76.69,-197.2"/>
<polygon fill="none" stroke="black" points="76.69,-197.2 76.69,-232.8 284.39,-232.8 284.39,-197.2 76.69,-197.2"/>
<text text-anchor="start" x="83.69" y="-210.6" font-family="Arial Bold" font-size="18.00">ContactList</text>
<text text-anchor="start" x="167.68" y="-210.6" font-family="Arial" font-size="14.00">    </text>
<text text-anchor="start" x="198.79" y="-210.6" font-family="Arial" font-size="14.00" fill="#666666">[Base Table]</text>
<polygon fill="none" stroke="black" points="76.69,-166.4 76.69,-197.2 284.39,-197.2 284.39,-166.4 76.69,-166.4"/>
<text text-anchor="start" x="83.69" y="-178.6" font-family="Arial" font-size="14.00">id </text>
<text text-anchor="start" x="98.48" y="-178.6" font-family="Arial" font-size="14.00" fill="#666666">[uuid]</text>
<polygon fill="none" stroke="black" points="76.69,-135.6 76.69,-166.4 284.39,-166.4 284.39,-135.6 76.69,-135.6"/>
<text text-anchor="start" x="83.69" y="-147.8" font-family="Arial" font-size="14.00">name </text>
<text text-anchor="start" x="122.6" y="-147.8" font-family="Arial" font-size="14.00" fill="#666666">[string]</text>
<polygon fill="none" stroke="black" points="76.69,-104.8 76.69,-135.6 284.39,-135.6 284.39,-104.8 76.69,-104.8"/>
<text text-anchor="start" x="83.69" y="-117" font-family="Arial" font-size="14.00">createdAt </text>
<text text-anchor="start" x="147.5" y="-117" font-family="Arial" font-size="14.00" fill="#666666">[datetime]</text>
<polygon fill="none" stroke="black" points="76.69,-74 76.69,-104.8 284.39,-104.8 284.39,-74 76.69,-74"/>
<text text-anchor="start" x="83.69" y="-86.2" font-family="Arial" font-size="14.00">updatedAt </text>
<text text-anchor="start" x="151.41" y="-86.2" font-family="Arial" font-size="14.00" fill="#666666">[datetime]</text>
<polygon fill="none" stroke="black" points="76.69,-43.2 76.69,-74 284.39,-74 284.39,-43.2 76.69,-43.2"/>
<text text-anchor="start" x="83.69" y="-55.4" font-family="Arial" font-size="14.00">isDeleted </text>
<text text-anchor="start" x="145.94" y="-55.4" font-family="Arial" font-size="14.00" fill="#666666">[boolean]</text>
</g>
<!-- ContactListMember&#45;&gt;ContactList -->
<g id="edge1" class="edge">
<title>ContactListMember:contactListId&#45;&gt;ContactList:id</title>
<path fill="none" stroke="black" d="M326.03,-525.39C390.07,-495.94 358.92,-181.8 285.39,-181.8"/>
<polygon fill="black" stroke="black" points="325.98,-525.4 315.25,-523.13 320.77,-526.54 316.54,-527.46 316.54,-527.46 316.54,-527.46 320.77,-526.54 317.17,-531.93 325.98,-525.4"/>
<text text-anchor="start" x="322.88" y="-537.6" font-family="Arial" font-size="10.00">ForeignKey</text>
</g>
</g>
</svg>
