<?xml version="1.0" encoding="UTF-8" standalone="no"?>
<!DOCTYPE svg PUBLIC "-//W3C//DTD SVG 1.1//EN"
 "http://www.w3.org/Graphics/SVG/1.1/DTD/svg11.dtd">
<!-- Generated by graphviz version 12.1.2 (20240928.0832)
 -->
<!-- Title: ContactList Pages: 1 -->
<svg width="382pt" height="694pt"
 viewBox="0.00 0.00 381.73 694.40" xmlns="http://www.w3.org/2000/svg" xmlns:xlink="http://www.w3.org/1999/xlink">
<g id="graph0" class="graph" transform="scale(1 1) rotate(0) translate(4 690.4)">
<title>ContactList</title>
<polygon fill="white" stroke="none" points="-4,4 -4,-690.4 377.73,-690.4 377.73,4 -4,4"/>
<!-- ContactList -->
<g id="node1" class="node">
<title>ContactList</title>
<polygon fill="#efefef" stroke="none" points="73.69,-200.2 73.69,-235.8 300.04,-235.8 300.04,-200.2 73.69,-200.2"/>
<polygon fill="none" stroke="black" points="73.69,-200.2 73.69,-235.8 300.04,-235.8 300.04,-200.2 73.69,-200.2"/>
<text text-anchor="start" x="80.69" y="-213.6" font-family="Arial Bold" font-size="18.00">ContactList</text>
<text text-anchor="start" x="164.68" y="-213.6" font-family="Arial" font-size="14.00">    </text>
<text text-anchor="start" x="195.79" y="-213.6" font-family="Arial" font-size="14.00" fill="#666666">[TailorDB.Type]</text>
<polygon fill="none" stroke="black" points="73.69,-169.4 73.69,-200.2 300.04,-200.2 300.04,-169.4 73.69,-169.4"/>
<text text-anchor="start" x="80.69" y="-181.6" font-family="Arial" font-size="14.00">id </text>
<text text-anchor="start" x="95.48" y="-181.6" font-family="Arial" font-size="14.00" fill="#666666">[uuid]</text>
<polygon fill="none" stroke="black" points="73.69,-138.6 73.69,-169.4 300.04,-169.4 300.04,-138.6 73.69,-138.6"/>
<text text-anchor="start" x="80.69" y="-150.8" font-family="Arial" font-size="14.00">isDeleted </text>
<text text-anchor="start" x="142.94" y="-150.8" font-family="Arial" font-size="14.00" fill="#666666">[boolean]</text>
<polygon fill="none" stroke="black" points="73.69,-107.8 73.69,-138.6 300.04,-138.6 300.04,-107.8 73.69,-107.8"/>
<text text-anchor="start" x="80.69" y="-120" font-family="Arial" font-size="14.00">name </text>
<text text-anchor="start" x="119.6" y="-120" font-family="Arial" font-size="14.00" fill="#666666">[string]</text>
<polygon fill="none" stroke="black" points="73.69,-77 73.69,-107.8 300.04,-107.8 300.04,-77 73.69,-77"/>
<text text-anchor="start" x="80.69" y="-89.2" font-family="Arial" font-size="14.00">createdAt </text>
<text text-anchor="start" x="144.5" y="-89.2" font-family="Arial" font-size="14.00" fill="#666666">[datetime]</text>
<polygon fill="none" stroke="black" points="73.69,-46.2 73.69,-77 300.04,-77 300.04,-46.2 73.69,-46.2"/>
<text text-anchor="start" x="80.69" y="-58.4" font-family="Arial" font-size="14.00">updatedAt </text>
<text text-anchor="start" x="148.41" y="-58.4" font-family="Arial" font-size="14.00" fill="#666666">[datetime]</text>
<polygon fill="none" stroke="black" stroke-width="3" points="72.19,-44.7 72.19,-237.3 301.54,-237.3 301.54,-44.7 72.19,-44.7"/>
</g>
<!-- ContactListMember -->
<g id="node2" class="node">
<title>ContactListMember</title>
<polygon fill="#efefef" stroke="none" points="43.2,-607.6 43.2,-643.2 330.53,-643.2 330.53,-607.6 43.2,-607.6"/>
<polygon fill="none" stroke="black" points="43.2,-607.6 43.2,-643.2 330.53,-643.2 330.53,-607.6 43.2,-607.6"/>
<text text-anchor="start" x="50.2" y="-621" font-family="Arial Bold" font-size="18.00">ContactListMember</text>
<text text-anchor="start" x="195.17" y="-621" font-family="Arial" font-size="14.00">    </text>
<text text-anchor="start" x="226.28" y="-621" font-family="Arial" font-size="14.00" fill="#666666">[TailorDB.Type]</text>
<polygon fill="none" stroke="black" points="43.2,-576.8 43.2,-607.6 330.53,-607.6 330.53,-576.8 43.2,-576.8"/>
<text text-anchor="start" x="50.2" y="-589" font-family="Arial" font-size="14.00">id </text>
<text text-anchor="start" x="64.99" y="-589" font-family="Arial" font-size="14.00" fill="#666666">[uuid]</text>
<polygon fill="none" stroke="black" points="43.2,-546 43.2,-576.8 330.53,-576.8 330.53,-546 43.2,-546"/>
<text text-anchor="start" x="50.2" y="-558.2" font-family="Arial" font-size="14.00">contactList </text>
<text text-anchor="start" x="121.01" y="-558.2" font-family="Arial" font-size="14.00" fill="#666666">[ContactList]</text>
<polygon fill="none" stroke="black" points="43.2,-515.2 43.2,-546 330.53,-546 330.53,-515.2 43.2,-515.2"/>
<text text-anchor="start" x="50.2" y="-527.4" font-family="Arial" font-size="14.00">addedAt </text>
<text text-anchor="start" x="106.25" y="-527.4" font-family="Arial" font-size="14.00" fill="#666666">[string]</text>
<polygon fill="none" stroke="black" points="43.2,-484.4 43.2,-515.2 330.53,-515.2 330.53,-484.4 43.2,-484.4"/>
<text text-anchor="start" x="50.2" y="-496.6" font-family="Arial" font-size="14.00">createdAt </text>
<text text-anchor="start" x="114.01" y="-496.6" font-family="Arial" font-size="14.00" fill="#666666">[datetime]</text>
<polygon fill="none" stroke="black" points="43.2,-453.6 43.2,-484.4 330.53,-484.4 330.53,-453.6 43.2,-453.6"/>
<text text-anchor="start" x="50.2" y="-465.8" font-family="Arial" font-size="14.00">updatedAt </text>
<text text-anchor="start" x="117.92" y="-465.8" font-family="Arial" font-size="14.00" fill="#666666">[datetime]</text>
<polygon fill="none" stroke="black" points="43.2,-422.8 43.2,-453.6 330.53,-453.6 330.53,-422.8 43.2,-422.8"/>
<text text-anchor="start" x="50.2" y="-435" font-family="Arial" font-size="14.00">contactId </text>
<text text-anchor="start" x="110.9" y="-435" font-family="Arial" font-size="14.00" fill="#666666">[uuid]</text>
<polygon fill="none" stroke="black" points="43.2,-392 43.2,-422.8 330.53,-422.8 330.53,-392 43.2,-392"/>
<text text-anchor="start" x="50.2" y="-404.2" font-family="Arial" font-size="14.00">contact </text>
<text text-anchor="start" x="99.23" y="-404.2" font-family="Arial" font-size="14.00" fill="#666666">[Contact]</text>
<polygon fill="none" stroke="black" points="43.2,-361.2 43.2,-392 330.53,-392 330.53,-361.2 43.2,-361.2"/>
<text text-anchor="start" x="50.2" y="-373.4" font-family="Arial" font-size="14.00">contactListId </text>
<text text-anchor="start" x="132.69" y="-373.4" font-family="Arial" font-size="14.00" fill="#666666">[uuid]</text>
</g>
<!-- ContactListMember&#45;&gt;ContactList -->
<g id="edge1" class="edge">
<title>ContactListMember:contactListId&#45;&gt;ContactList:id</title>
<path fill="none" stroke="black" d="M187.82,-349.84C197.21,-303.32 273.16,-332.62 300.04,-282 320.31,-243.85 344.25,-184.8 301.04,-184.8"/>
<polygon fill="black" stroke="black" points="187.82,-349.91 182.42,-359.45 187.33,-355.22 186.93,-359.53 186.93,-359.53 186.93,-359.53 187.33,-355.22 191.38,-360.28 187.82,-349.91"/>
<text text-anchor="start" x="50.92" y="-370.2" font-family="Arial" font-size="10.00">ForeignKeyType: ContactList</text>
</g>
</g>
</svg>
