<?xml version="1.0" encoding="UTF-8" standalone="no"?>
<!DOCTYPE svg PUBLIC "-//W3C//DTD SVG 1.1//EN"
 "http://www.w3.org/Graphics/SVG/1.1/DTD/svg11.dtd">
<!-- Generated by graphviz version 12.1.2 (20240928.0832)
 -->
<!-- Title: ContactListMember Pages: 1 -->
<svg width="624pt" height="879pt"
 viewBox="0.00 0.00 623.75 879.20" xmlns="http://www.w3.org/2000/svg" xmlns:xlink="http://www.w3.org/1999/xlink">
<g id="graph0" class="graph" transform="scale(1 1) rotate(0) translate(4 875.2)">
<title>ContactListMember</title>
<polygon fill="white" stroke="none" points="-4,4 -4,-875.2 619.75,-875.2 619.75,4 -4,4"/>
<!-- ContactListMember -->
<g id="node1" class="node">
<title>ContactListMember</title>
<polygon fill="#efefef" stroke="none" points="170.71,-789.4 170.71,-825 458.04,-825 458.04,-789.4 170.71,-789.4"/>
<polygon fill="none" stroke="black" points="170.71,-789.4 170.71,-825 458.04,-825 458.04,-789.4 170.71,-789.4"/>
<text text-anchor="start" x="177.71" y="-802.8" font-family="Arial Bold" font-size="18.00">ContactListMember</text>
<text text-anchor="start" x="322.68" y="-802.8" font-family="Arial" font-size="14.00">    </text>
<text text-anchor="start" x="353.79" y="-802.8" font-family="Arial" font-size="14.00" fill="#666666">[TailorDB.Type]</text>
<polygon fill="none" stroke="black" points="170.71,-758.6 170.71,-789.4 458.04,-789.4 458.04,-758.6 170.71,-758.6"/>
<text text-anchor="start" x="177.71" y="-770.8" font-family="Arial" font-size="14.00">id </text>
<text text-anchor="start" x="192.5" y="-770.8" font-family="Arial" font-size="14.00" fill="#666666">[uuid]</text>
<polygon fill="none" stroke="black" points="170.71,-727.8 170.71,-758.6 458.04,-758.6 458.04,-727.8 170.71,-727.8"/>
<text text-anchor="start" x="177.71" y="-740" font-family="Arial" font-size="14.00">contactList </text>
<text text-anchor="start" x="248.52" y="-740" font-family="Arial" font-size="14.00" fill="#666666">[ContactList]</text>
<polygon fill="none" stroke="black" points="170.71,-697 170.71,-727.8 458.04,-727.8 458.04,-697 170.71,-697"/>
<text text-anchor="start" x="177.71" y="-709.2" font-family="Arial" font-size="14.00">addedAt </text>
<text text-anchor="start" x="233.76" y="-709.2" font-family="Arial" font-size="14.00" fill="#666666">[string]</text>
<polygon fill="none" stroke="black" points="170.71,-666.2 170.71,-697 458.04,-697 458.04,-666.2 170.71,-666.2"/>
<text text-anchor="start" x="177.71" y="-678.4" font-family="Arial" font-size="14.00">createdAt </text>
<text text-anchor="start" x="241.52" y="-678.4" font-family="Arial" font-size="14.00" fill="#666666">[datetime]</text>
<polygon fill="none" stroke="black" points="170.71,-635.4 170.71,-666.2 458.04,-666.2 458.04,-635.4 170.71,-635.4"/>
<text text-anchor="start" x="177.71" y="-647.6" font-family="Arial" font-size="14.00">updatedAt </text>
<text text-anchor="start" x="245.43" y="-647.6" font-family="Arial" font-size="14.00" fill="#666666">[datetime]</text>
<polygon fill="none" stroke="black" points="170.71,-604.6 170.71,-635.4 458.04,-635.4 458.04,-604.6 170.71,-604.6"/>
<text text-anchor="start" x="177.71" y="-616.8" font-family="Arial" font-size="14.00">contactId </text>
<text text-anchor="start" x="238.41" y="-616.8" font-family="Arial" font-size="14.00" fill="#666666">[uuid]</text>
<polygon fill="none" stroke="black" points="170.71,-573.8 170.71,-604.6 458.04,-604.6 458.04,-573.8 170.71,-573.8"/>
<text text-anchor="start" x="177.71" y="-586" font-family="Arial" font-size="14.00">contact </text>
<text text-anchor="start" x="226.74" y="-586" font-family="Arial" font-size="14.00" fill="#666666">[Contact]</text>
<polygon fill="none" stroke="black" points="170.71,-543 170.71,-573.8 458.04,-573.8 458.04,-543 170.71,-543"/>
<text text-anchor="start" x="177.71" y="-555.2" font-family="Arial" font-size="14.00">contactListId </text>
<text text-anchor="start" x="260.2" y="-555.2" font-family="Arial" font-size="14.00" fill="#666666">[uuid]</text>
<polygon fill="none" stroke="black" stroke-width="3" points="169.21,-541.5 169.21,-826.5 459.54,-826.5 459.54,-541.5 169.21,-541.5"/>
</g>
<!-- ContactList -->
<g id="node2" class="node">
<title>ContactList</title>
<polygon fill="#efefef" stroke="none" points="43.2,-289.6 43.2,-325.2 269.55,-325.2 269.55,-289.6 43.2,-289.6"/>
<polygon fill="none" stroke="black" points="43.2,-289.6 43.2,-325.2 269.55,-325.2 269.55,-289.6 43.2,-289.6"/>
<text text-anchor="start" x="50.2" y="-303" font-family="Arial Bold" font-size="18.00">ContactList</text>
<text text-anchor="start" x="134.19" y="-303" font-family="Arial" font-size="14.00">    </text>
<text text-anchor="start" x="165.31" y="-303" font-family="Arial" font-size="14.00" fill="#666666">[TailorDB.Type]</text>
<polygon fill="none" stroke="black" points="43.2,-258.8 43.2,-289.6 269.55,-289.6 269.55,-258.8 43.2,-258.8"/>
<text text-anchor="start" x="50.2" y="-271" font-family="Arial" font-size="14.00">id </text>
<text text-anchor="start" x="64.99" y="-271" font-family="Arial" font-size="14.00" fill="#666666">[uuid]</text>
<polygon fill="none" stroke="black" points="43.2,-228 43.2,-258.8 269.55,-258.8 269.55,-228 43.2,-228"/>
<text text-anchor="start" x="50.2" y="-240.2" font-family="Arial" font-size="14.00">isDeleted </text>
<text text-anchor="start" x="112.45" y="-240.2" font-family="Arial" font-size="14.00" fill="#666666">[boolean]</text>
<polygon fill="none" stroke="black" points="43.2,-197.2 43.2,-228 269.55,-228 269.55,-197.2 43.2,-197.2"/>
<text text-anchor="start" x="50.2" y="-209.4" font-family="Arial" font-size="14.00">name </text>
<text text-anchor="start" x="89.11" y="-209.4" font-family="Arial" font-size="14.00" fill="#666666">[string]</text>
<polygon fill="none" stroke="black" points="43.2,-166.4 43.2,-197.2 269.55,-197.2 269.55,-166.4 43.2,-166.4"/>
<text text-anchor="start" x="50.2" y="-178.6" font-family="Arial" font-size="14.00">createdAt </text>
<text text-anchor="start" x="114.01" y="-178.6" font-family="Arial" font-size="14.00" fill="#666666">[datetime]</text>
<polygon fill="none" stroke="black" points="43.2,-135.6 43.2,-166.4 269.55,-166.4 269.55,-135.6 43.2,-135.6"/>
<text text-anchor="start" x="50.2" y="-147.8" font-family="Arial" font-size="14.00">updatedAt </text>
<text text-anchor="start" x="117.92" y="-147.8" font-family="Arial" font-size="14.00" fill="#666666">[datetime]</text>
</g>
<!-- ContactListMember&#45;&gt;ContactList -->
<g id="edge1" class="edge">
<title>ContactListMember:contactListId&#45;&gt;ContactList:id</title>
<path fill="none" stroke="black" d="M159.76,-555.71C148.4,-546.94 163.16,-518.41 170.71,-496.8 194.47,-428.81 245.99,-436.45 269.55,-368.4 283.25,-328.84 312.42,-274.2 270.55,-274.2"/>
<polygon fill="black" stroke="black" points="159.73,-555.71 168.22,-562.66 164.88,-557.1 169.06,-558.23 169.06,-558.23 169.06,-558.23 164.88,-557.1 170.56,-553.97 159.73,-555.71"/>
<text text-anchor="start" x="33.76" y="-568.4" font-family="Arial" font-size="10.00">ForeignKeyType: ContactList</text>
</g>
<!-- Contact -->
<g id="node3" class="node">
<title>Contact</title>
<polygon fill="#efefef" stroke="none" points="374.2,-382 374.2,-417.6 572.55,-417.6 572.55,-382 374.2,-382"/>
<polygon fill="none" stroke="black" points="374.2,-382 374.2,-417.6 572.55,-417.6 572.55,-382 374.2,-382"/>
<text text-anchor="start" x="381.2" y="-395.4" font-family="Arial Bold" font-size="18.00">Contact</text>
<text text-anchor="start" x="437.19" y="-395.4" font-family="Arial" font-size="14.00">    </text>
<text text-anchor="start" x="468.3" y="-395.4" font-family="Arial" font-size="14.00" fill="#666666">[TailorDB.Type]</text>
<polygon fill="none" stroke="black" points="374.2,-351.2 374.2,-382 572.55,-382 572.55,-351.2 374.2,-351.2"/>
<text text-anchor="start" x="381.2" y="-363.4" font-family="Arial" font-size="14.00">id </text>
<text text-anchor="start" x="395.99" y="-363.4" font-family="Arial" font-size="14.00" fill="#666666">[uuid]</text>
<polygon fill="none" stroke="black" points="374.2,-320.4 374.2,-351.2 572.55,-351.2 572.55,-320.4 374.2,-320.4"/>
<text text-anchor="start" x="381.2" y="-332.6" font-family="Arial" font-size="14.00">linkedInUrl </text>
<text text-anchor="start" x="451.23" y="-332.6" font-family="Arial" font-size="14.00" fill="#666666">[string]</text>
<polygon fill="none" stroke="black" points="374.2,-289.6 374.2,-320.4 572.55,-320.4 572.55,-289.6 374.2,-289.6"/>
<text text-anchor="start" x="381.2" y="-301.8" font-family="Arial" font-size="14.00">createdAt </text>
<text text-anchor="start" x="445.01" y="-301.8" font-family="Arial" font-size="14.00" fill="#666666">[datetime]</text>
<polygon fill="none" stroke="black" points="374.2,-258.8 374.2,-289.6 572.55,-289.6 572.55,-258.8 374.2,-258.8"/>
<text text-anchor="start" x="381.2" y="-271" font-family="Arial" font-size="14.00">updatedAt </text>
<text text-anchor="start" x="448.92" y="-271" font-family="Arial" font-size="14.00" fill="#666666">[datetime]</text>
<polygon fill="none" stroke="black" points="374.2,-228 374.2,-258.8 572.55,-258.8 572.55,-228 374.2,-228"/>
<text text-anchor="start" x="381.2" y="-240.2" font-family="Arial" font-size="14.00">isDeleted </text>
<text text-anchor="start" x="443.46" y="-240.2" font-family="Arial" font-size="14.00" fill="#666666">[boolean]</text>
<polygon fill="none" stroke="black" points="374.2,-197.2 374.2,-228 572.55,-228 572.55,-197.2 374.2,-197.2"/>
<text text-anchor="start" x="381.2" y="-209.4" font-family="Arial" font-size="14.00">firstName </text>
<text text-anchor="start" x="444.99" y="-209.4" font-family="Arial" font-size="14.00" fill="#666666">[string]</text>
<polygon fill="none" stroke="black" points="374.2,-166.4 374.2,-197.2 572.55,-197.2 572.55,-166.4 374.2,-166.4"/>
<text text-anchor="start" x="381.2" y="-178.6" font-family="Arial" font-size="14.00">lastName </text>
<text text-anchor="start" x="444.22" y="-178.6" font-family="Arial" font-size="14.00" fill="#666666">[string]</text>
<polygon fill="none" stroke="black" points="374.2,-135.6 374.2,-166.4 572.55,-166.4 572.55,-135.6 374.2,-135.6"/>
<text text-anchor="start" x="381.2" y="-147.8" font-family="Arial" font-size="14.00">email </text>
<text text-anchor="start" x="418.55" y="-147.8" font-family="Arial" font-size="14.00" fill="#666666">[string]</text>
<polygon fill="none" stroke="black" points="374.2,-104.8 374.2,-135.6 572.55,-135.6 572.55,-104.8 374.2,-104.8"/>
<text text-anchor="start" x="381.2" y="-117" font-family="Arial" font-size="14.00">phonePrimary </text>
<text text-anchor="start" x="472.24" y="-117" font-family="Arial" font-size="14.00" fill="#666666">[string]</text>
<polygon fill="none" stroke="black" points="374.2,-74 374.2,-104.8 572.55,-104.8 572.55,-74 374.2,-74"/>
<text text-anchor="start" x="381.2" y="-86.2" font-family="Arial" font-size="14.00">companyId </text>
<text text-anchor="start" x="453.57" y="-86.2" font-family="Arial" font-size="14.00" fill="#666666">[uuid]</text>
<polygon fill="none" stroke="black" points="374.2,-43.2 374.2,-74 572.55,-74 572.55,-43.2 374.2,-43.2"/>
<text text-anchor="start" x="381.2" y="-55.4" font-family="Arial" font-size="14.00">company </text>
<text text-anchor="start" x="441.9" y="-55.4" font-family="Arial" font-size="14.00" fill="#666666">[Company]</text>
</g>
<!-- ContactListMember&#45;&gt;Contact -->
<g id="edge2" class="edge">
<title>ContactListMember:contactId&#45;&gt;Contact:id</title>
<path fill="none" stroke="black" d="M469.17,-618.95C510.3,-609.54 486.28,-539.28 458.04,-496.8 435.59,-463.03 396.69,-494.54 374.2,-460.8 350.98,-425.96 331.33,-366.6 373.2,-366.6"/>
<polygon fill="black" stroke="black" points="469.32,-618.93 458.91,-615.49 464.02,-619.48 459.71,-619.93 459.71,-619.93 459.71,-619.93 464.02,-619.48 459.84,-624.44 469.32,-618.93"/>
<text text-anchor="start" x="466.04" y="-630" font-family="Arial" font-size="10.00">Source: Contact</text>
</g>
</g>
</svg>
