<?xml version="1.0" encoding="UTF-8" standalone="no"?>
<!DOCTYPE svg PUBLIC "-//W3C//DTD SVG 1.1//EN"
 "http://www.w3.org/Graphics/SVG/1.1/DTD/svg11.dtd">
<!-- Generated by graphviz version 12.1.2 (20240928.0832)
 -->
<!-- Title: ContactList Pages: 1 -->
<svg width="386pt" height="694pt"
 viewBox="0.00 0.00 386.02 694.40" xmlns="http://www.w3.org/2000/svg" xmlns:xlink="http://www.w3.org/1999/xlink">
<g id="graph0" class="graph" transform="scale(1 1) rotate(0) translate(4 690.4)">
<title>ContactList</title>
<polygon fill="white" stroke="none" points="-4,4 -4,-690.4 382.02,-690.4 382.02,4 -4,4"/>
<!-- ContactList -->
<g id="node1" class="node">
<title>ContactList</title>
<polygon fill="#efefef" stroke="none" points="73.69,-200.2 73.69,-235.8 281.39,-235.8 281.39,-200.2 73.69,-200.2"/>
<polygon fill="none" stroke="black" points="73.69,-200.2 73.69,-235.8 281.39,-235.8 281.39,-200.2 73.69,-200.2"/>
<text text-anchor="start" x="80.69" y="-213.6" font-family="Arial Bold" font-size="18.00">ContactList</text>
<text text-anchor="start" x="164.68" y="-213.6" font-family="Arial" font-size="14.00">    </text>
<text text-anchor="start" x="195.79" y="-213.6" font-family="Arial" font-size="14.00" fill="#666666">[Base Table]</text>
<polygon fill="none" stroke="black" points="73.69,-169.4 73.69,-200.2 281.39,-200.2 281.39,-169.4 73.69,-169.4"/>
<text text-anchor="start" x="80.69" y="-181.6" font-family="Arial" font-size="14.00">id </text>
<text text-anchor="start" x="95.48" y="-181.6" font-family="Arial" font-size="14.00" fill="#666666">[uuid]</text>
<polygon fill="none" stroke="black" points="73.69,-138.6 73.69,-169.4 281.39,-169.4 281.39,-138.6 73.69,-138.6"/>
<text text-anchor="start" x="80.69" y="-150.8" font-family="Arial" font-size="14.00">name </text>
<text text-anchor="start" x="119.6" y="-150.8" font-family="Arial" font-size="14.00" fill="#666666">[string]</text>
<polygon fill="none" stroke="black" points="73.69,-107.8 73.69,-138.6 281.39,-138.6 281.39,-107.8 73.69,-107.8"/>
<text text-anchor="start" x="80.69" y="-120" font-family="Arial" font-size="14.00">createdAt </text>
<text text-anchor="start" x="144.5" y="-120" font-family="Arial" font-size="14.00" fill="#666666">[datetime]</text>
<polygon fill="none" stroke="black" points="73.69,-77 73.69,-107.8 281.39,-107.8 281.39,-77 73.69,-77"/>
<text text-anchor="start" x="80.69" y="-89.2" font-family="Arial" font-size="14.00">updatedAt </text>
<text text-anchor="start" x="148.41" y="-89.2" font-family="Arial" font-size="14.00" fill="#666666">[datetime]</text>
<polygon fill="none" stroke="black" points="73.69,-46.2 73.69,-77 281.39,-77 281.39,-46.2 73.69,-46.2"/>
<text text-anchor="start" x="80.69" y="-58.4" font-family="Arial" font-size="14.00">isDeleted </text>
<text text-anchor="start" x="142.94" y="-58.4" font-family="Arial" font-size="14.00" fill="#666666">[boolean]</text>
<polygon fill="none" stroke="black" stroke-width="3" points="72.19,-44.7 72.19,-237.3 282.89,-237.3 282.89,-44.7 72.19,-44.7"/>
</g>
<!-- ContactListMember -->
<g id="node2" class="node">
<title>ContactListMember</title>
<polygon fill="#efefef" stroke="none" points="43.2,-607.6 43.2,-643.2 311.88,-643.2 311.88,-607.6 43.2,-607.6"/>
<polygon fill="none" stroke="black" points="43.2,-607.6 43.2,-643.2 311.88,-643.2 311.88,-607.6 43.2,-607.6"/>
<text text-anchor="start" x="50.2" y="-621" font-family="Arial Bold" font-size="18.00">ContactListMember</text>
<text text-anchor="start" x="195.17" y="-621" font-family="Arial" font-size="14.00">    </text>
<text text-anchor="start" x="226.28" y="-621" font-family="Arial" font-size="14.00" fill="#666666">[Base Table]</text>
<polygon fill="none" stroke="black" points="43.2,-576.8 43.2,-607.6 311.88,-607.6 311.88,-576.8 43.2,-576.8"/>
<text text-anchor="start" x="50.2" y="-589" font-family="Arial" font-size="14.00">id </text>
<text text-anchor="start" x="64.99" y="-589" font-family="Arial" font-size="14.00" fill="#666666">[uuid]</text>
<polygon fill="none" stroke="black" points="43.2,-546 43.2,-576.8 311.88,-576.8 311.88,-546 43.2,-546"/>
<text text-anchor="start" x="50.2" y="-558.2" font-family="Arial" font-size="14.00">contact </text>
<text text-anchor="start" x="99.23" y="-558.2" font-family="Arial" font-size="14.00" fill="#666666">[Contact]</text>
<polygon fill="none" stroke="black" points="43.2,-515.2 43.2,-546 311.88,-546 311.88,-515.2 43.2,-515.2"/>
<text text-anchor="start" x="50.2" y="-527.4" font-family="Arial" font-size="14.00">contactListId </text>
<text text-anchor="start" x="132.69" y="-527.4" font-family="Arial" font-size="14.00" fill="#666666">[uuid]</text>
<polygon fill="none" stroke="black" points="43.2,-484.4 43.2,-515.2 311.88,-515.2 311.88,-484.4 43.2,-484.4"/>
<text text-anchor="start" x="50.2" y="-496.6" font-family="Arial" font-size="14.00">contactList </text>
<text text-anchor="start" x="121.01" y="-496.6" font-family="Arial" font-size="14.00" fill="#666666">[ContactList]</text>
<polygon fill="none" stroke="black" points="43.2,-453.6 43.2,-484.4 311.88,-484.4 311.88,-453.6 43.2,-453.6"/>
<text text-anchor="start" x="50.2" y="-465.8" font-family="Arial" font-size="14.00">addedAt </text>
<text text-anchor="start" x="106.25" y="-465.8" font-family="Arial" font-size="14.00" fill="#666666">[string]</text>
<polygon fill="none" stroke="black" points="43.2,-422.8 43.2,-453.6 311.88,-453.6 311.88,-422.8 43.2,-422.8"/>
<text text-anchor="start" x="50.2" y="-435" font-family="Arial" font-size="14.00">createdAt </text>
<text text-anchor="start" x="114.01" y="-435" font-family="Arial" font-size="14.00" fill="#666666">[datetime]</text>
<polygon fill="none" stroke="black" points="43.2,-392 43.2,-422.8 311.88,-422.8 311.88,-392 43.2,-392"/>
<text text-anchor="start" x="50.2" y="-404.2" font-family="Arial" font-size="14.00">updatedAt </text>
<text text-anchor="start" x="117.92" y="-404.2" font-family="Arial" font-size="14.00" fill="#666666">[datetime]</text>
<polygon fill="none" stroke="black" points="43.2,-361.2 43.2,-392 311.88,-392 311.88,-361.2 43.2,-361.2"/>
<text text-anchor="start" x="50.2" y="-373.4" font-family="Arial" font-size="14.00">contactId </text>
<text text-anchor="start" x="110.9" y="-373.4" font-family="Arial" font-size="14.00" fill="#666666">[uuid]</text>
</g>
<!-- ContactListMember&#45;&gt;ContactList -->
<g id="edge1" class="edge">
<title>ContactListMember:contactListId&#45;&gt;ContactList:id</title>
<path fill="none" stroke="black" d="M323.03,-528.39C387.07,-498.94 355.92,-184.8 282.39,-184.8"/>
<polygon fill="black" stroke="black" points="322.98,-528.4 312.25,-526.13 317.77,-529.54 313.54,-530.46 313.54,-530.46 313.54,-530.46 317.77,-529.54 314.17,-534.93 322.98,-528.4"/>
<text text-anchor="start" x="319.88" y="-540.6" font-family="Arial" font-size="10.00">ForeignKey</text>
</g>
</g>
</svg>
