<?xml version="1.0" encoding="UTF-8" standalone="no"?>
<!DOCTYPE svg PUBLIC "-//W3C//DTD SVG 1.1//EN"
 "http://www.w3.org/Graphics/SVG/1.1/DTD/svg11.dtd">
<!-- Generated by graphviz version 12.1.2 (20240928.0832)
 -->
<!-- Title: Contact Pages: 1 -->
<svg width="664pt" height="1499pt"
 viewBox="0.00 0.00 663.73 1499.20" xmlns="http://www.w3.org/2000/svg" xmlns:xlink="http://www.w3.org/1999/xlink">
<g id="graph0" class="graph" transform="scale(1 1) rotate(0) translate(4 1495.2)">
<title>Contact</title>
<polygon fill="white" stroke="none" points="-4,4 -4,-1495.2 659.73,-1495.2 659.73,4 -4,4"/>
<!-- Contact -->
<g id="node1" class="node">
<title>Contact</title>
<polygon fill="#efefef" stroke="none" points="200.2,-789.4 200.2,-825 398.55,-825 398.55,-789.4 200.2,-789.4"/>
<polygon fill="none" stroke="black" points="200.2,-789.4 200.2,-825 398.55,-825 398.55,-789.4 200.2,-789.4"/>
<text text-anchor="start" x="207.2" y="-802.8" font-family="Arial Bold" font-size="18.00">Contact</text>
<text text-anchor="start" x="263.18" y="-802.8" font-family="Arial" font-size="14.00">    </text>
<text text-anchor="start" x="294.3" y="-802.8" font-family="Arial" font-size="14.00" fill="#666666">[TailorDB.Type]</text>
<polygon fill="none" stroke="black" points="200.2,-758.6 200.2,-789.4 398.55,-789.4 398.55,-758.6 200.2,-758.6"/>
<text text-anchor="start" x="207.2" y="-770.8" font-family="Arial" font-size="14.00">id </text>
<text text-anchor="start" x="221.98" y="-770.8" font-family="Arial" font-size="14.00" fill="#666666">[uuid]</text>
<polygon fill="none" stroke="black" points="200.2,-727.8 200.2,-758.6 398.55,-758.6 398.55,-727.8 200.2,-727.8"/>
<text text-anchor="start" x="207.2" y="-740" font-family="Arial" font-size="14.00">createdAt </text>
<text text-anchor="start" x="271.01" y="-740" font-family="Arial" font-size="14.00" fill="#666666">[datetime]</text>
<polygon fill="none" stroke="black" points="200.2,-697 200.2,-727.8 398.55,-727.8 398.55,-697 200.2,-697"/>
<text text-anchor="start" x="207.2" y="-709.2" font-family="Arial" font-size="14.00">updatedAt </text>
<text text-anchor="start" x="274.92" y="-709.2" font-family="Arial" font-size="14.00" fill="#666666">[datetime]</text>
<polygon fill="none" stroke="black" points="200.2,-666.2 200.2,-697 398.55,-697 398.55,-666.2 200.2,-666.2"/>
<text text-anchor="start" x="207.2" y="-678.4" font-family="Arial" font-size="14.00">isDeleted </text>
<text text-anchor="start" x="269.45" y="-678.4" font-family="Arial" font-size="14.00" fill="#666666">[boolean]</text>
<polygon fill="none" stroke="black" points="200.2,-635.4 200.2,-666.2 398.55,-666.2 398.55,-635.4 200.2,-635.4"/>
<text text-anchor="start" x="207.2" y="-647.6" font-family="Arial" font-size="14.00">lastName </text>
<text text-anchor="start" x="270.22" y="-647.6" font-family="Arial" font-size="14.00" fill="#666666">[string]</text>
<polygon fill="none" stroke="black" points="200.2,-604.6 200.2,-635.4 398.55,-635.4 398.55,-604.6 200.2,-604.6"/>
<text text-anchor="start" x="207.2" y="-616.8" font-family="Arial" font-size="14.00">phonePrimary </text>
<text text-anchor="start" x="298.24" y="-616.8" font-family="Arial" font-size="14.00" fill="#666666">[string]</text>
<polygon fill="none" stroke="black" points="200.2,-573.8 200.2,-604.6 398.55,-604.6 398.55,-573.8 200.2,-573.8"/>
<text text-anchor="start" x="207.2" y="-586" font-family="Arial" font-size="14.00">linkedInUrl </text>
<text text-anchor="start" x="277.22" y="-586" font-family="Arial" font-size="14.00" fill="#666666">[string]</text>
<polygon fill="none" stroke="black" points="200.2,-543 200.2,-573.8 398.55,-573.8 398.55,-543 200.2,-543"/>
<text text-anchor="start" x="207.2" y="-555.2" font-family="Arial" font-size="14.00">company </text>
<text text-anchor="start" x="267.89" y="-555.2" font-family="Arial" font-size="14.00" fill="#666666">[Company]</text>
<polygon fill="none" stroke="black" points="200.2,-512.2 200.2,-543 398.55,-543 398.55,-512.2 200.2,-512.2"/>
<text text-anchor="start" x="207.2" y="-524.4" font-family="Arial" font-size="14.00">firstName </text>
<text text-anchor="start" x="270.98" y="-524.4" font-family="Arial" font-size="14.00" fill="#666666">[string]</text>
<polygon fill="none" stroke="black" points="200.2,-481.4 200.2,-512.2 398.55,-512.2 398.55,-481.4 200.2,-481.4"/>
<text text-anchor="start" x="207.2" y="-493.6" font-family="Arial" font-size="14.00">email </text>
<text text-anchor="start" x="244.54" y="-493.6" font-family="Arial" font-size="14.00" fill="#666666">[string]</text>
<polygon fill="none" stroke="black" points="200.2,-450.6 200.2,-481.4 398.55,-481.4 398.55,-450.6 200.2,-450.6"/>
<text text-anchor="start" x="207.2" y="-462.8" font-family="Arial" font-size="14.00">companyId </text>
<text text-anchor="start" x="279.57" y="-462.8" font-family="Arial" font-size="14.00" fill="#666666">[uuid]</text>
<polygon fill="none" stroke="black" stroke-width="3" points="198.7,-449.1 198.7,-826.5 400.05,-826.5 400.05,-449.1 198.7,-449.1"/>
</g>
<!-- Company -->
<g id="node4" class="node">
<title>Company</title>
<polygon fill="#efefef" stroke="none" points="193.19,-289.6 193.19,-325.2 405.55,-325.2 405.55,-289.6 193.19,-289.6"/>
<polygon fill="none" stroke="black" points="193.19,-289.6 193.19,-325.2 405.55,-325.2 405.55,-289.6 193.19,-289.6"/>
<text text-anchor="start" x="200.19" y="-303" font-family="Arial Bold" font-size="18.00">Company</text>
<text text-anchor="start" x="270.19" y="-303" font-family="Arial" font-size="14.00">    </text>
<text text-anchor="start" x="301.3" y="-303" font-family="Arial" font-size="14.00" fill="#666666">[TailorDB.Type]</text>
<polygon fill="none" stroke="black" points="193.19,-258.8 193.19,-289.6 405.55,-289.6 405.55,-258.8 193.19,-258.8"/>
<text text-anchor="start" x="200.19" y="-271" font-family="Arial" font-size="14.00">id </text>
<text text-anchor="start" x="214.98" y="-271" font-family="Arial" font-size="14.00" fill="#666666">[uuid]</text>
<polygon fill="none" stroke="black" points="193.19,-228 193.19,-258.8 405.55,-258.8 405.55,-228 193.19,-228"/>
<text text-anchor="start" x="200.19" y="-240.2" font-family="Arial" font-size="14.00">name </text>
<text text-anchor="start" x="239.1" y="-240.2" font-family="Arial" font-size="14.00" fill="#666666">[string]</text>
<polygon fill="none" stroke="black" points="193.19,-197.2 193.19,-228 405.55,-228 405.55,-197.2 193.19,-197.2"/>
<text text-anchor="start" x="200.19" y="-209.4" font-family="Arial" font-size="14.00">isDeleted </text>
<text text-anchor="start" x="262.45" y="-209.4" font-family="Arial" font-size="14.00" fill="#666666">[boolean]</text>
<polygon fill="none" stroke="black" points="193.19,-166.4 193.19,-197.2 405.55,-197.2 405.55,-166.4 193.19,-166.4"/>
<text text-anchor="start" x="200.19" y="-178.6" font-family="Arial" font-size="14.00">url </text>
<text text-anchor="start" x="219.64" y="-178.6" font-family="Arial" font-size="14.00" fill="#666666">[string]</text>
<polygon fill="none" stroke="black" points="193.19,-135.6 193.19,-166.4 405.55,-166.4 405.55,-135.6 193.19,-135.6"/>
<text text-anchor="start" x="200.19" y="-147.8" font-family="Arial" font-size="14.00">linkedInUrl </text>
<text text-anchor="start" x="270.22" y="-147.8" font-family="Arial" font-size="14.00" fill="#666666">[string]</text>
<polygon fill="none" stroke="black" points="193.19,-104.8 193.19,-135.6 405.55,-135.6 405.55,-104.8 193.19,-104.8"/>
<text text-anchor="start" x="200.19" y="-117" font-family="Arial" font-size="14.00">logoUrl </text>
<text text-anchor="start" x="248.43" y="-117" font-family="Arial" font-size="14.00" fill="#666666">[string]</text>
<polygon fill="none" stroke="black" points="193.19,-74 193.19,-104.8 405.55,-104.8 405.55,-74 193.19,-74"/>
<text text-anchor="start" x="200.19" y="-86.2" font-family="Arial" font-size="14.00">createdAt </text>
<text text-anchor="start" x="264" y="-86.2" font-family="Arial" font-size="14.00" fill="#666666">[datetime]</text>
<polygon fill="none" stroke="black" points="193.19,-43.2 193.19,-74 405.55,-74 405.55,-43.2 193.19,-43.2"/>
<text text-anchor="start" x="200.19" y="-55.4" font-family="Arial" font-size="14.00">updatedAt </text>
<text text-anchor="start" x="267.91" y="-55.4" font-family="Arial" font-size="14.00" fill="#666666">[datetime]</text>
</g>
<!-- Contact&#45;&gt;Company -->
<g id="edge3" class="edge">
<title>Contact:companyId&#45;&gt;Company:id</title>
<path fill="none" stroke="black" d="M300.27,-439.48C309.11,-393.78 380.61,-418.2 405.55,-368.4 424.3,-330.96 448.42,-274.2 406.55,-274.2"/>
<polygon fill="black" stroke="black" points="300.29,-439.31 294.92,-448.87 299.81,-444.62 299.43,-448.93 299.43,-448.93 299.43,-448.93 299.81,-444.62 303.88,-449.67 300.29,-439.31"/>
<text text-anchor="start" x="272.44" y="-433.6" font-family="Arial" font-size="10.00">ForeignKeyType: Company</text>
</g>
<!-- Deal -->
<g id="node2" class="node">
<title>Deal</title>
<polygon fill="#efefef" stroke="none" points="43.2,-1412.4 43.2,-1448 219.54,-1448 219.54,-1412.4 43.2,-1412.4"/>
<polygon fill="none" stroke="black" points="43.2,-1412.4 43.2,-1448 219.54,-1448 219.54,-1412.4 43.2,-1412.4"/>
<text text-anchor="start" x="50.2" y="-1425.8" font-family="Arial Bold" font-size="18.00">Deal</text>
<text text-anchor="start" x="84.18" y="-1425.8" font-family="Arial" font-size="14.00">    </text>
<text text-anchor="start" x="115.3" y="-1425.8" font-family="Arial" font-size="14.00" fill="#666666">[TailorDB.Type]</text>
<polygon fill="none" stroke="black" points="43.2,-1381.6 43.2,-1412.4 219.54,-1412.4 219.54,-1381.6 43.2,-1381.6"/>
<text text-anchor="start" x="50.2" y="-1393.8" font-family="Arial" font-size="14.00">id </text>
<text text-anchor="start" x="64.99" y="-1393.8" font-family="Arial" font-size="14.00" fill="#666666">[uuid]</text>
<polygon fill="none" stroke="black" points="43.2,-1350.8 43.2,-1381.6 219.54,-1381.6 219.54,-1350.8 43.2,-1350.8"/>
<text text-anchor="start" x="50.2" y="-1363" font-family="Arial" font-size="14.00">value </text>
<text text-anchor="start" x="87.56" y="-1363" font-family="Arial" font-size="14.00" fill="#666666">[float]</text>
<polygon fill="none" stroke="black" points="43.2,-1320 43.2,-1350.8 219.54,-1350.8 219.54,-1320 43.2,-1320"/>
<text text-anchor="start" x="50.2" y="-1332.2" font-family="Arial" font-size="14.00">dealStageId </text>
<text text-anchor="start" x="128.82" y="-1332.2" font-family="Arial" font-size="14.00" fill="#666666">[uuid]</text>
<polygon fill="none" stroke="black" points="43.2,-1289.2 43.2,-1320 219.54,-1320 219.54,-1289.2 43.2,-1289.2"/>
<text text-anchor="start" x="50.2" y="-1301.4" font-family="Arial" font-size="14.00">companyId </text>
<text text-anchor="start" x="122.57" y="-1301.4" font-family="Arial" font-size="14.00" fill="#666666">[uuid]</text>
<polygon fill="none" stroke="black" points="43.2,-1258.4 43.2,-1289.2 219.54,-1289.2 219.54,-1258.4 43.2,-1258.4"/>
<text text-anchor="start" x="50.2" y="-1270.6" font-family="Arial" font-size="14.00">contactId </text>
<text text-anchor="start" x="110.9" y="-1270.6" font-family="Arial" font-size="14.00" fill="#666666">[uuid]</text>
<polygon fill="none" stroke="black" points="43.2,-1227.6 43.2,-1258.4 219.54,-1258.4 219.54,-1227.6 43.2,-1227.6"/>
<text text-anchor="start" x="50.2" y="-1239.8" font-family="Arial" font-size="14.00">contact </text>
<text text-anchor="start" x="99.23" y="-1239.8" font-family="Arial" font-size="14.00" fill="#666666">[Contact]</text>
<polygon fill="none" stroke="black" points="43.2,-1196.8 43.2,-1227.6 219.54,-1227.6 219.54,-1196.8 43.2,-1196.8"/>
<text text-anchor="start" x="50.2" y="-1209" font-family="Arial" font-size="14.00">probability </text>
<text text-anchor="start" x="117.9" y="-1209" font-family="Arial" font-size="14.00" fill="#666666">[float]</text>
<polygon fill="none" stroke="black" points="43.2,-1166 43.2,-1196.8 219.54,-1196.8 219.54,-1166 43.2,-1166"/>
<text text-anchor="start" x="50.2" y="-1178.2" font-family="Arial" font-size="14.00">isDeleted </text>
<text text-anchor="start" x="112.45" y="-1178.2" font-family="Arial" font-size="14.00" fill="#666666">[boolean]</text>
<polygon fill="none" stroke="black" points="43.2,-1135.2 43.2,-1166 219.54,-1166 219.54,-1135.2 43.2,-1135.2"/>
<text text-anchor="start" x="50.2" y="-1147.4" font-family="Arial" font-size="14.00">dealStage </text>
<text text-anchor="start" x="117.14" y="-1147.4" font-family="Arial" font-size="14.00" fill="#666666">[DealStage]</text>
<polygon fill="none" stroke="black" points="43.2,-1104.4 43.2,-1135.2 219.54,-1135.2 219.54,-1104.4 43.2,-1104.4"/>
<text text-anchor="start" x="50.2" y="-1116.6" font-family="Arial" font-size="14.00">userId </text>
<text text-anchor="start" x="93" y="-1116.6" font-family="Arial" font-size="14.00" fill="#666666">[uuid]</text>
<polygon fill="none" stroke="black" points="43.2,-1073.6 43.2,-1104.4 219.54,-1104.4 219.54,-1073.6 43.2,-1073.6"/>
<text text-anchor="start" x="50.2" y="-1085.8" font-family="Arial" font-size="14.00">user </text>
<text text-anchor="start" x="81.32" y="-1085.8" font-family="Arial" font-size="14.00" fill="#666666">[User]</text>
<polygon fill="none" stroke="black" points="43.2,-1042.8 43.2,-1073.6 219.54,-1073.6 219.54,-1042.8 43.2,-1042.8"/>
<text text-anchor="start" x="50.2" y="-1055" font-family="Arial" font-size="14.00">createdAt </text>
<text text-anchor="start" x="114.01" y="-1055" font-family="Arial" font-size="14.00" fill="#666666">[datetime]</text>
<polygon fill="none" stroke="black" points="43.2,-1012 43.2,-1042.8 219.54,-1042.8 219.54,-1012 43.2,-1012"/>
<text text-anchor="start" x="50.2" y="-1024.2" font-family="Arial" font-size="14.00">updatedAt </text>
<text text-anchor="start" x="117.92" y="-1024.2" font-family="Arial" font-size="14.00" fill="#666666">[datetime]</text>
<polygon fill="none" stroke="black" points="43.2,-981.2 43.2,-1012 219.54,-1012 219.54,-981.2 43.2,-981.2"/>
<text text-anchor="start" x="50.2" y="-993.4" font-family="Arial" font-size="14.00">amount </text>
<text text-anchor="start" x="100.79" y="-993.4" font-family="Arial" font-size="14.00" fill="#666666">[float]</text>
<polygon fill="none" stroke="black" points="43.2,-950.4 43.2,-981.2 219.54,-981.2 219.54,-950.4 43.2,-950.4"/>
<text text-anchor="start" x="50.2" y="-962.6" font-family="Arial" font-size="14.00">company </text>
<text text-anchor="start" x="110.9" y="-962.6" font-family="Arial" font-size="14.00" fill="#666666">[Company]</text>
</g>
<!-- Deal&#45;&gt;Contact -->
<g id="edge1" class="edge">
<title>Deal:contactId&#45;&gt;Contact:id</title>
<path fill="none" stroke="black" d="M230.67,-1272.1C296.48,-1248.38 238.64,-982.63 219.54,-907.2 215.09,-889.59 204.72,-888.79 200.2,-871.2 189.44,-829.36 155.99,-774 199.2,-774"/>
<polygon fill="black" stroke="black" points="230.74,-1272.09 220.13,-1269.31 225.48,-1272.97 221.2,-1273.69 221.2,-1273.69 221.2,-1273.69 225.48,-1272.97 221.62,-1278.18 230.74,-1272.09"/>
<text text-anchor="start" x="227.54" y="-1283.8" font-family="Arial" font-size="10.00">ForeignKeyType: Contact</text>
</g>
<!-- EngagementContact -->
<g id="node3" class="node">
<title>EngagementContact</title>
<polygon fill="#efefef" stroke="none" points="324.21,-1289.2 324.21,-1324.8 612.53,-1324.8 612.53,-1289.2 324.21,-1289.2"/>
<polygon fill="none" stroke="black" points="324.21,-1289.2 324.21,-1324.8 612.53,-1324.8 612.53,-1289.2 324.21,-1289.2"/>
<text text-anchor="start" x="331.21" y="-1302.6" font-family="Arial Bold" font-size="18.00">EngagementContact</text>
<text text-anchor="start" x="477.16" y="-1302.6" font-family="Arial" font-size="14.00">    </text>
<text text-anchor="start" x="508.28" y="-1302.6" font-family="Arial" font-size="14.00" fill="#666666">[TailorDB.Type]</text>
<polygon fill="none" stroke="black" points="324.21,-1258.4 324.21,-1289.2 612.53,-1289.2 612.53,-1258.4 324.21,-1258.4"/>
<text text-anchor="start" x="331.21" y="-1270.6" font-family="Arial" font-size="14.00">id </text>
<text text-anchor="start" x="346" y="-1270.6" font-family="Arial" font-size="14.00" fill="#666666">[uuid]</text>
<polygon fill="none" stroke="black" points="324.21,-1227.6 324.21,-1258.4 612.53,-1258.4 612.53,-1227.6 324.21,-1227.6"/>
<text text-anchor="start" x="331.21" y="-1239.8" font-family="Arial" font-size="14.00">updatedAt </text>
<text text-anchor="start" x="398.94" y="-1239.8" font-family="Arial" font-size="14.00" fill="#666666">[datetime]</text>
<polygon fill="none" stroke="black" points="324.21,-1196.8 324.21,-1227.6 612.53,-1227.6 612.53,-1196.8 324.21,-1196.8"/>
<text text-anchor="start" x="331.21" y="-1209" font-family="Arial" font-size="14.00">contactId </text>
<text text-anchor="start" x="391.92" y="-1209" font-family="Arial" font-size="14.00" fill="#666666">[uuid]</text>
<polygon fill="none" stroke="black" points="324.21,-1166 324.21,-1196.8 612.53,-1196.8 612.53,-1166 324.21,-1166"/>
<text text-anchor="start" x="331.21" y="-1178.2" font-family="Arial" font-size="14.00">contact </text>
<text text-anchor="start" x="380.24" y="-1178.2" font-family="Arial" font-size="14.00" fill="#666666">[Contact]</text>
<polygon fill="none" stroke="black" points="324.21,-1135.2 324.21,-1166 612.53,-1166 612.53,-1135.2 324.21,-1135.2"/>
<text text-anchor="start" x="331.21" y="-1147.4" font-family="Arial" font-size="14.00">engagementId </text>
<text text-anchor="start" x="424.62" y="-1147.4" font-family="Arial" font-size="14.00" fill="#666666">[uuid]</text>
<polygon fill="none" stroke="black" points="324.21,-1104.4 324.21,-1135.2 612.53,-1135.2 612.53,-1104.4 324.21,-1104.4"/>
<text text-anchor="start" x="331.21" y="-1116.6" font-family="Arial" font-size="14.00">engagement </text>
<text text-anchor="start" x="412.94" y="-1116.6" font-family="Arial" font-size="14.00" fill="#666666">[Engagement]</text>
<polygon fill="none" stroke="black" points="324.21,-1073.6 324.21,-1104.4 612.53,-1104.4 612.53,-1073.6 324.21,-1073.6"/>
<text text-anchor="start" x="331.21" y="-1085.8" font-family="Arial" font-size="14.00">createdAt </text>
<text text-anchor="start" x="395.03" y="-1085.8" font-family="Arial" font-size="14.00" fill="#666666">[datetime]</text>
</g>
<!-- EngagementContact&#45;&gt;Contact -->
<g id="edge2" class="edge">
<title>EngagementContact:contactId&#45;&gt;Contact:id</title>
<path fill="none" stroke="black" d="M313.08,-1211.6C191.96,-1196.3 393.17,-894.83 398.55,-871.2 408.13,-829.07 442.75,-774 399.55,-774"/>
<polygon fill="black" stroke="black" points="312.9,-1211.59 322.61,-1216.67 318.22,-1211.9 322.55,-1212.16 322.55,-1212.16 322.55,-1212.16 318.22,-1211.9 323.15,-1207.69 312.9,-1211.59"/>
<text text-anchor="start" x="298.37" y="-1196.2" font-family="Arial" font-size="10.00">ForeignKeyType: Contact</text>
</g>
</g>
</svg>
