<?xml version="1.0" encoding="UTF-8" standalone="no"?>
<!DOCTYPE svg PUBLIC "-//W3C//DTD SVG 1.1//EN"
 "http://www.w3.org/Graphics/SVG/1.1/DTD/svg11.dtd">
<!-- Generated by graphviz version 12.1.2 (20240928.0832)
 -->
<!-- Title: Contact Pages: 1 -->
<svg width="626pt" height="1499pt"
 viewBox="0.00 0.00 626.08 1499.20" xmlns="http://www.w3.org/2000/svg" xmlns:xlink="http://www.w3.org/1999/xlink">
<g id="graph0" class="graph" transform="scale(1 1) rotate(0) translate(4 1495.2)">
<title>Contact</title>
<polygon fill="white" stroke="none" points="-4,4 -4,-1495.2 622.08,-1495.2 622.08,4 -4,4"/>
<!-- Contact -->
<g id="node1" class="node">
<title>Contact</title>
<polygon fill="#efefef" stroke="none" points="191.2,-789.4 191.2,-825 370.9,-825 370.9,-789.4 191.2,-789.4"/>
<polygon fill="none" stroke="black" points="191.2,-789.4 191.2,-825 370.9,-825 370.9,-789.4 191.2,-789.4"/>
<text text-anchor="start" x="198.2" y="-802.8" font-family="Arial Bold" font-size="18.00">Contact</text>
<text text-anchor="start" x="254.18" y="-802.8" font-family="Arial" font-size="14.00">    </text>
<text text-anchor="start" x="285.3" y="-802.8" font-family="Arial" font-size="14.00" fill="#666666">[Base Table]</text>
<polygon fill="none" stroke="black" points="191.2,-758.6 191.2,-789.4 370.9,-789.4 370.9,-758.6 191.2,-758.6"/>
<text text-anchor="start" x="198.2" y="-770.8" font-family="Arial" font-size="14.00">id </text>
<text text-anchor="start" x="212.98" y="-770.8" font-family="Arial" font-size="14.00" fill="#666666">[uuid]</text>
<polygon fill="none" stroke="black" points="191.2,-727.8 191.2,-758.6 370.9,-758.6 370.9,-727.8 191.2,-727.8"/>
<text text-anchor="start" x="198.2" y="-740" font-family="Arial" font-size="14.00">isDeleted </text>
<text text-anchor="start" x="260.45" y="-740" font-family="Arial" font-size="14.00" fill="#666666">[boolean]</text>
<polygon fill="none" stroke="black" points="191.2,-697 191.2,-727.8 370.9,-727.8 370.9,-697 191.2,-697"/>
<text text-anchor="start" x="198.2" y="-709.2" font-family="Arial" font-size="14.00">lastName </text>
<text text-anchor="start" x="261.22" y="-709.2" font-family="Arial" font-size="14.00" fill="#666666">[string]</text>
<polygon fill="none" stroke="black" points="191.2,-666.2 191.2,-697 370.9,-697 370.9,-666.2 191.2,-666.2"/>
<text text-anchor="start" x="198.2" y="-678.4" font-family="Arial" font-size="14.00">email </text>
<text text-anchor="start" x="235.54" y="-678.4" font-family="Arial" font-size="14.00" fill="#666666">[string]</text>
<polygon fill="none" stroke="black" points="191.2,-635.4 191.2,-666.2 370.9,-666.2 370.9,-635.4 191.2,-635.4"/>
<text text-anchor="start" x="198.2" y="-647.6" font-family="Arial" font-size="14.00">phonePrimary </text>
<text text-anchor="start" x="289.24" y="-647.6" font-family="Arial" font-size="14.00" fill="#666666">[string]</text>
<polygon fill="none" stroke="black" points="191.2,-604.6 191.2,-635.4 370.9,-635.4 370.9,-604.6 191.2,-604.6"/>
<text text-anchor="start" x="198.2" y="-616.8" font-family="Arial" font-size="14.00">linkedInUrl </text>
<text text-anchor="start" x="268.22" y="-616.8" font-family="Arial" font-size="14.00" fill="#666666">[string]</text>
<polygon fill="none" stroke="black" points="191.2,-573.8 191.2,-604.6 370.9,-604.6 370.9,-573.8 191.2,-573.8"/>
<text text-anchor="start" x="198.2" y="-586" font-family="Arial" font-size="14.00">companyId </text>
<text text-anchor="start" x="270.57" y="-586" font-family="Arial" font-size="14.00" fill="#666666">[uuid]</text>
<polygon fill="none" stroke="black" points="191.2,-543 191.2,-573.8 370.9,-573.8 370.9,-543 191.2,-543"/>
<text text-anchor="start" x="198.2" y="-555.2" font-family="Arial" font-size="14.00">company </text>
<text text-anchor="start" x="258.89" y="-555.2" font-family="Arial" font-size="14.00" fill="#666666">[Company]</text>
<polygon fill="none" stroke="black" points="191.2,-512.2 191.2,-543 370.9,-543 370.9,-512.2 191.2,-512.2"/>
<text text-anchor="start" x="198.2" y="-524.4" font-family="Arial" font-size="14.00">createdAt </text>
<text text-anchor="start" x="262.01" y="-524.4" font-family="Arial" font-size="14.00" fill="#666666">[datetime]</text>
<polygon fill="none" stroke="black" points="191.2,-481.4 191.2,-512.2 370.9,-512.2 370.9,-481.4 191.2,-481.4"/>
<text text-anchor="start" x="198.2" y="-493.6" font-family="Arial" font-size="14.00">updatedAt </text>
<text text-anchor="start" x="265.92" y="-493.6" font-family="Arial" font-size="14.00" fill="#666666">[datetime]</text>
<polygon fill="none" stroke="black" points="191.2,-450.6 191.2,-481.4 370.9,-481.4 370.9,-450.6 191.2,-450.6"/>
<text text-anchor="start" x="198.2" y="-462.8" font-family="Arial" font-size="14.00">firstName </text>
<text text-anchor="start" x="261.98" y="-462.8" font-family="Arial" font-size="14.00" fill="#666666">[string]</text>
<polygon fill="none" stroke="black" stroke-width="3" points="189.7,-449.1 189.7,-826.5 372.4,-826.5 372.4,-449.1 189.7,-449.1"/>
</g>
<!-- Company -->
<g id="node4" class="node">
<title>Company</title>
<polygon fill="#efefef" stroke="none" points="184.19,-289.6 184.19,-325.2 377.9,-325.2 377.9,-289.6 184.19,-289.6"/>
<polygon fill="none" stroke="black" points="184.19,-289.6 184.19,-325.2 377.9,-325.2 377.9,-289.6 184.19,-289.6"/>
<text text-anchor="start" x="191.19" y="-303" font-family="Arial Bold" font-size="18.00">Company</text>
<text text-anchor="start" x="261.19" y="-303" font-family="Arial" font-size="14.00">    </text>
<text text-anchor="start" x="292.3" y="-303" font-family="Arial" font-size="14.00" fill="#666666">[Base Table]</text>
<polygon fill="none" stroke="black" points="184.19,-258.8 184.19,-289.6 377.9,-289.6 377.9,-258.8 184.19,-258.8"/>
<text text-anchor="start" x="191.19" y="-271" font-family="Arial" font-size="14.00">id </text>
<text text-anchor="start" x="205.98" y="-271" font-family="Arial" font-size="14.00" fill="#666666">[uuid]</text>
<polygon fill="none" stroke="black" points="184.19,-228 184.19,-258.8 377.9,-258.8 377.9,-228 184.19,-228"/>
<text text-anchor="start" x="191.19" y="-240.2" font-family="Arial" font-size="14.00">name </text>
<text text-anchor="start" x="230.1" y="-240.2" font-family="Arial" font-size="14.00" fill="#666666">[string]</text>
<polygon fill="none" stroke="black" points="184.19,-197.2 184.19,-228 377.9,-228 377.9,-197.2 184.19,-197.2"/>
<text text-anchor="start" x="191.19" y="-209.4" font-family="Arial" font-size="14.00">isDeleted </text>
<text text-anchor="start" x="253.45" y="-209.4" font-family="Arial" font-size="14.00" fill="#666666">[boolean]</text>
<polygon fill="none" stroke="black" points="184.19,-166.4 184.19,-197.2 377.9,-197.2 377.9,-166.4 184.19,-166.4"/>
<text text-anchor="start" x="191.19" y="-178.6" font-family="Arial" font-size="14.00">url </text>
<text text-anchor="start" x="210.64" y="-178.6" font-family="Arial" font-size="14.00" fill="#666666">[string]</text>
<polygon fill="none" stroke="black" points="184.19,-135.6 184.19,-166.4 377.9,-166.4 377.9,-135.6 184.19,-135.6"/>
<text text-anchor="start" x="191.19" y="-147.8" font-family="Arial" font-size="14.00">linkedInUrl </text>
<text text-anchor="start" x="261.22" y="-147.8" font-family="Arial" font-size="14.00" fill="#666666">[string]</text>
<polygon fill="none" stroke="black" points="184.19,-104.8 184.19,-135.6 377.9,-135.6 377.9,-104.8 184.19,-104.8"/>
<text text-anchor="start" x="191.19" y="-117" font-family="Arial" font-size="14.00">logoUrl </text>
<text text-anchor="start" x="239.43" y="-117" font-family="Arial" font-size="14.00" fill="#666666">[string]</text>
<polygon fill="none" stroke="black" points="184.19,-74 184.19,-104.8 377.9,-104.8 377.9,-74 184.19,-74"/>
<text text-anchor="start" x="191.19" y="-86.2" font-family="Arial" font-size="14.00">createdAt </text>
<text text-anchor="start" x="255" y="-86.2" font-family="Arial" font-size="14.00" fill="#666666">[datetime]</text>
<polygon fill="none" stroke="black" points="184.19,-43.2 184.19,-74 377.9,-74 377.9,-43.2 184.19,-43.2"/>
<text text-anchor="start" x="191.19" y="-55.4" font-family="Arial" font-size="14.00">updatedAt </text>
<text text-anchor="start" x="258.91" y="-55.4" font-family="Arial" font-size="14.00" fill="#666666">[datetime]</text>
</g>
<!-- Contact&#45;&gt;Company -->
<g id="edge3" class="edge">
<title>Contact:companyId&#45;&gt;Company:id</title>
<path fill="none" stroke="black" d="M382.31,-588.6C512.19,-573.41 515.38,-274.2 378.9,-274.2"/>
<polygon fill="black" stroke="black" points="382.22,-588.61 371.97,-584.69 376.89,-588.91 372.57,-589.16 372.57,-589.16 372.57,-589.16 376.89,-588.91 372.49,-593.67 382.22,-588.61"/>
<text text-anchor="start" x="378.9" y="-599.2" font-family="Arial" font-size="10.00">ForeignKey</text>
</g>
<!-- Deal -->
<g id="node2" class="node">
<title>Deal</title>
<polygon fill="#efefef" stroke="none" points="43.2,-1412.4 43.2,-1448 200.9,-1448 200.9,-1412.4 43.2,-1412.4"/>
<polygon fill="none" stroke="black" points="43.2,-1412.4 43.2,-1448 200.9,-1448 200.9,-1412.4 43.2,-1412.4"/>
<text text-anchor="start" x="50.2" y="-1425.8" font-family="Arial Bold" font-size="18.00">Deal</text>
<text text-anchor="start" x="84.18" y="-1425.8" font-family="Arial" font-size="14.00">    </text>
<text text-anchor="start" x="115.3" y="-1425.8" font-family="Arial" font-size="14.00" fill="#666666">[Base Table]</text>
<polygon fill="none" stroke="black" points="43.2,-1381.6 43.2,-1412.4 200.9,-1412.4 200.9,-1381.6 43.2,-1381.6"/>
<text text-anchor="start" x="50.2" y="-1393.8" font-family="Arial" font-size="14.00">id </text>
<text text-anchor="start" x="64.99" y="-1393.8" font-family="Arial" font-size="14.00" fill="#666666">[uuid]</text>
<polygon fill="none" stroke="black" points="43.2,-1350.8 43.2,-1381.6 200.9,-1381.6 200.9,-1350.8 43.2,-1350.8"/>
<text text-anchor="start" x="50.2" y="-1363" font-family="Arial" font-size="14.00">updatedAt </text>
<text text-anchor="start" x="117.92" y="-1363" font-family="Arial" font-size="14.00" fill="#666666">[datetime]</text>
<polygon fill="none" stroke="black" points="43.2,-1320 43.2,-1350.8 200.9,-1350.8 200.9,-1320 43.2,-1320"/>
<text text-anchor="start" x="50.2" y="-1332.2" font-family="Arial" font-size="14.00">amount </text>
<text text-anchor="start" x="100.79" y="-1332.2" font-family="Arial" font-size="14.00" fill="#666666">[float]</text>
<polygon fill="none" stroke="black" points="43.2,-1289.2 43.2,-1320 200.9,-1320 200.9,-1289.2 43.2,-1289.2"/>
<text text-anchor="start" x="50.2" y="-1301.4" font-family="Arial" font-size="14.00">value </text>
<text text-anchor="start" x="87.56" y="-1301.4" font-family="Arial" font-size="14.00" fill="#666666">[float]</text>
<polygon fill="none" stroke="black" points="43.2,-1258.4 43.2,-1289.2 200.9,-1289.2 200.9,-1258.4 43.2,-1258.4"/>
<text text-anchor="start" x="50.2" y="-1270.6" font-family="Arial" font-size="14.00">userId </text>
<text text-anchor="start" x="93" y="-1270.6" font-family="Arial" font-size="14.00" fill="#666666">[uuid]</text>
<polygon fill="none" stroke="black" points="43.2,-1227.6 43.2,-1258.4 200.9,-1258.4 200.9,-1227.6 43.2,-1227.6"/>
<text text-anchor="start" x="50.2" y="-1239.8" font-family="Arial" font-size="14.00">contactId </text>
<text text-anchor="start" x="110.9" y="-1239.8" font-family="Arial" font-size="14.00" fill="#666666">[uuid]</text>
<polygon fill="none" stroke="black" points="43.2,-1196.8 43.2,-1227.6 200.9,-1227.6 200.9,-1196.8 43.2,-1196.8"/>
<text text-anchor="start" x="50.2" y="-1209" font-family="Arial" font-size="14.00">isDeleted </text>
<text text-anchor="start" x="112.45" y="-1209" font-family="Arial" font-size="14.00" fill="#666666">[boolean]</text>
<polygon fill="none" stroke="black" points="43.2,-1166 43.2,-1196.8 200.9,-1196.8 200.9,-1166 43.2,-1166"/>
<text text-anchor="start" x="50.2" y="-1178.2" font-family="Arial" font-size="14.00">company </text>
<text text-anchor="start" x="110.9" y="-1178.2" font-family="Arial" font-size="14.00" fill="#666666">[Company]</text>
<polygon fill="none" stroke="black" points="43.2,-1135.2 43.2,-1166 200.9,-1166 200.9,-1135.2 43.2,-1135.2"/>
<text text-anchor="start" x="50.2" y="-1147.4" font-family="Arial" font-size="14.00">probability </text>
<text text-anchor="start" x="117.9" y="-1147.4" font-family="Arial" font-size="14.00" fill="#666666">[float]</text>
<polygon fill="none" stroke="black" points="43.2,-1104.4 43.2,-1135.2 200.9,-1135.2 200.9,-1104.4 43.2,-1104.4"/>
<text text-anchor="start" x="50.2" y="-1116.6" font-family="Arial" font-size="14.00">dealStageId </text>
<text text-anchor="start" x="128.82" y="-1116.6" font-family="Arial" font-size="14.00" fill="#666666">[uuid]</text>
<polygon fill="none" stroke="black" points="43.2,-1073.6 43.2,-1104.4 200.9,-1104.4 200.9,-1073.6 43.2,-1073.6"/>
<text text-anchor="start" x="50.2" y="-1085.8" font-family="Arial" font-size="14.00">dealStage </text>
<text text-anchor="start" x="117.14" y="-1085.8" font-family="Arial" font-size="14.00" fill="#666666">[DealStage]</text>
<polygon fill="none" stroke="black" points="43.2,-1042.8 43.2,-1073.6 200.9,-1073.6 200.9,-1042.8 43.2,-1042.8"/>
<text text-anchor="start" x="50.2" y="-1055" font-family="Arial" font-size="14.00">createdAt </text>
<text text-anchor="start" x="114.01" y="-1055" font-family="Arial" font-size="14.00" fill="#666666">[datetime]</text>
<polygon fill="none" stroke="black" points="43.2,-1012 43.2,-1042.8 200.9,-1042.8 200.9,-1012 43.2,-1012"/>
<text text-anchor="start" x="50.2" y="-1024.2" font-family="Arial" font-size="14.00">user </text>
<text text-anchor="start" x="81.32" y="-1024.2" font-family="Arial" font-size="14.00" fill="#666666">[User]</text>
<polygon fill="none" stroke="black" points="43.2,-981.2 43.2,-1012 200.9,-1012 200.9,-981.2 43.2,-981.2"/>
<text text-anchor="start" x="50.2" y="-993.4" font-family="Arial" font-size="14.00">companyId </text>
<text text-anchor="start" x="122.57" y="-993.4" font-family="Arial" font-size="14.00" fill="#666666">[uuid]</text>
<polygon fill="none" stroke="black" points="43.2,-950.4 43.2,-981.2 200.9,-981.2 200.9,-950.4 43.2,-950.4"/>
<text text-anchor="start" x="50.2" y="-962.6" font-family="Arial" font-size="14.00">contact </text>
<text text-anchor="start" x="99.23" y="-962.6" font-family="Arial" font-size="14.00" fill="#666666">[Contact]</text>
</g>
<!-- Deal&#45;&gt;Contact -->
<g id="edge1" class="edge">
<title>Deal:contactId&#45;&gt;Contact:id</title>
<path fill="none" stroke="black" d="M211.85,-1241.18C270.23,-1217.88 210.31,-977.55 200.9,-907.2 198.7,-890.78 193.45,-887.62 191.2,-871.2 185.31,-828.4 146.99,-774 190.2,-774"/>
<polygon fill="black" stroke="black" points="212.06,-1241.14 201.41,-1238.51 206.81,-1242.1 202.55,-1242.88 202.55,-1242.88 202.55,-1242.88 206.81,-1242.1 203.03,-1247.37 212.06,-1241.14"/>
<text text-anchor="start" x="192.61" y="-1227" font-family="Arial" font-size="10.00">ForeignKey</text>
</g>
<!-- EngagementContact -->
<g id="node3" class="node">
<title>EngagementContact</title>
<polygon fill="#efefef" stroke="none" points="305.21,-1289.2 305.21,-1324.8 574.88,-1324.8 574.88,-1289.2 305.21,-1289.2"/>
<polygon fill="none" stroke="black" points="305.21,-1289.2 305.21,-1324.8 574.88,-1324.8 574.88,-1289.2 305.21,-1289.2"/>
<text text-anchor="start" x="312.21" y="-1302.6" font-family="Arial Bold" font-size="18.00">EngagementContact</text>
<text text-anchor="start" x="458.16" y="-1302.6" font-family="Arial" font-size="14.00">    </text>
<text text-anchor="start" x="489.28" y="-1302.6" font-family="Arial" font-size="14.00" fill="#666666">[Base Table]</text>
<polygon fill="none" stroke="black" points="305.21,-1258.4 305.21,-1289.2 574.88,-1289.2 574.88,-1258.4 305.21,-1258.4"/>
<text text-anchor="start" x="312.21" y="-1270.6" font-family="Arial" font-size="14.00">id </text>
<text text-anchor="start" x="327" y="-1270.6" font-family="Arial" font-size="14.00" fill="#666666">[uuid]</text>
<polygon fill="none" stroke="black" points="305.21,-1227.6 305.21,-1258.4 574.88,-1258.4 574.88,-1227.6 305.21,-1227.6"/>
<text text-anchor="start" x="312.21" y="-1239.8" font-family="Arial" font-size="14.00">contactId </text>
<text text-anchor="start" x="372.92" y="-1239.8" font-family="Arial" font-size="14.00" fill="#666666">[uuid]</text>
<polygon fill="none" stroke="black" points="305.21,-1196.8 305.21,-1227.6 574.88,-1227.6 574.88,-1196.8 305.21,-1196.8"/>
<text text-anchor="start" x="312.21" y="-1209" font-family="Arial" font-size="14.00">contact </text>
<text text-anchor="start" x="361.24" y="-1209" font-family="Arial" font-size="14.00" fill="#666666">[Contact]</text>
<polygon fill="none" stroke="black" points="305.21,-1166 305.21,-1196.8 574.88,-1196.8 574.88,-1166 305.21,-1166"/>
<text text-anchor="start" x="312.21" y="-1178.2" font-family="Arial" font-size="14.00">engagementId </text>
<text text-anchor="start" x="405.62" y="-1178.2" font-family="Arial" font-size="14.00" fill="#666666">[uuid]</text>
<polygon fill="none" stroke="black" points="305.21,-1135.2 305.21,-1166 574.88,-1166 574.88,-1135.2 305.21,-1135.2"/>
<text text-anchor="start" x="312.21" y="-1147.4" font-family="Arial" font-size="14.00">engagement </text>
<text text-anchor="start" x="393.94" y="-1147.4" font-family="Arial" font-size="14.00" fill="#666666">[Engagement]</text>
<polygon fill="none" stroke="black" points="305.21,-1104.4 305.21,-1135.2 574.88,-1135.2 574.88,-1104.4 305.21,-1104.4"/>
<text text-anchor="start" x="312.21" y="-1116.6" font-family="Arial" font-size="14.00">createdAt </text>
<text text-anchor="start" x="376.03" y="-1116.6" font-family="Arial" font-size="14.00" fill="#666666">[datetime]</text>
<polygon fill="none" stroke="black" points="305.21,-1073.6 305.21,-1104.4 574.88,-1104.4 574.88,-1073.6 305.21,-1073.6"/>
<text text-anchor="start" x="312.21" y="-1085.8" font-family="Arial" font-size="14.00">updatedAt </text>
<text text-anchor="start" x="379.94" y="-1085.8" font-family="Arial" font-size="14.00" fill="#666666">[datetime]</text>
</g>
<!-- EngagementContact&#45;&gt;Contact -->
<g id="edge2" class="edge">
<title>EngagementContact:contactId&#45;&gt;Contact:id</title>
<path fill="none" stroke="black" d="M293.91,-1242.46C215.64,-1233.67 287.35,-1119.42 305.21,-1030.4 320.27,-955.35 355.63,-946.2 370.9,-871.2 379.52,-828.87 415.1,-774 371.9,-774"/>
<polygon fill="black" stroke="black" points="293.89,-1242.46 303.64,-1247.48 299.22,-1242.74 303.55,-1242.96 303.55,-1242.96 303.55,-1242.96 299.22,-1242.74 304.12,-1238.49 293.89,-1242.46"/>
<text text-anchor="start" x="246.08" y="-1253" font-family="Arial" font-size="10.00">ForeignKey</text>
</g>
</g>
</svg>
