<?xml version="1.0" encoding="UTF-8" standalone="no"?>
<!DOCTYPE svg PUBLIC "-//W3C//DTD SVG 1.1//EN"
 "http://www.w3.org/Graphics/SVG/1.1/DTD/svg11.dtd">
<!-- Generated by graphviz version 12.1.2 (20240928.0832)
 -->
<!-- Title: Deal Pages: 1 -->
<svg width="1212pt" height="1530pt"
 viewBox="0.00 0.00 1211.75 1530.00" xmlns="http://www.w3.org/2000/svg" xmlns:xlink="http://www.w3.org/1999/xlink">
<g id="graph0" class="graph" transform="scale(1 1) rotate(0) translate(4 1526)">
<title>Deal</title>
<polygon fill="white" stroke="none" points="-4,4 -4,-1526 1207.75,-1526 1207.75,4 -4,4"/>
<!-- Deal -->
<g id="node1" class="node">
<title>Deal</title>
<polygon fill="#efefef" stroke="none" points="506.21,-1066.6 506.21,-1102.2 682.55,-1102.2 682.55,-1066.6 506.21,-1066.6"/>
<polygon fill="none" stroke="black" points="506.21,-1066.6 506.21,-1102.2 682.55,-1102.2 682.55,-1066.6 506.21,-1066.6"/>
<text text-anchor="start" x="513.21" y="-1080" font-family="Arial Bold" font-size="18.00">Deal</text>
<text text-anchor="start" x="547.19" y="-1080" font-family="Arial" font-size="14.00">    </text>
<text text-anchor="start" x="578.3" y="-1080" font-family="Arial" font-size="14.00" fill="#666666">[TailorDB.Type]</text>
<polygon fill="none" stroke="black" points="506.21,-1035.8 506.21,-1066.6 682.55,-1066.6 682.55,-1035.8 506.21,-1035.8"/>
<text text-anchor="start" x="513.21" y="-1048" font-family="Arial" font-size="14.00">id </text>
<text text-anchor="start" x="527.99" y="-1048" font-family="Arial" font-size="14.00" fill="#666666">[uuid]</text>
<polygon fill="none" stroke="black" points="506.21,-1005 506.21,-1035.8 682.55,-1035.8 682.55,-1005 506.21,-1005"/>
<text text-anchor="start" x="513.21" y="-1017.2" font-family="Arial" font-size="14.00">createdAt </text>
<text text-anchor="start" x="577.02" y="-1017.2" font-family="Arial" font-size="14.00" fill="#666666">[datetime]</text>
<polygon fill="none" stroke="black" points="506.21,-974.2 506.21,-1005 682.55,-1005 682.55,-974.2 506.21,-974.2"/>
<text text-anchor="start" x="513.21" y="-986.4" font-family="Arial" font-size="14.00">company </text>
<text text-anchor="start" x="573.91" y="-986.4" font-family="Arial" font-size="14.00" fill="#666666">[Company]</text>
<polygon fill="none" stroke="black" points="506.21,-943.4 506.21,-974.2 682.55,-974.2 682.55,-943.4 506.21,-943.4"/>
<text text-anchor="start" x="513.21" y="-955.6" font-family="Arial" font-size="14.00">value </text>
<text text-anchor="start" x="550.57" y="-955.6" font-family="Arial" font-size="14.00" fill="#666666">[float]</text>
<polygon fill="none" stroke="black" points="506.21,-912.6 506.21,-943.4 682.55,-943.4 682.55,-912.6 506.21,-912.6"/>
<text text-anchor="start" x="513.21" y="-924.8" font-family="Arial" font-size="14.00">userId </text>
<text text-anchor="start" x="556.01" y="-924.8" font-family="Arial" font-size="14.00" fill="#666666">[uuid]</text>
<polygon fill="none" stroke="black" points="506.21,-881.8 506.21,-912.6 682.55,-912.6 682.55,-881.8 506.21,-881.8"/>
<text text-anchor="start" x="513.21" y="-894" font-family="Arial" font-size="14.00">contactId </text>
<text text-anchor="start" x="573.91" y="-894" font-family="Arial" font-size="14.00" fill="#666666">[uuid]</text>
<polygon fill="none" stroke="black" points="506.21,-851 506.21,-881.8 682.55,-881.8 682.55,-851 506.21,-851"/>
<text text-anchor="start" x="513.21" y="-863.2" font-family="Arial" font-size="14.00">amount </text>
<text text-anchor="start" x="563.79" y="-863.2" font-family="Arial" font-size="14.00" fill="#666666">[float]</text>
<polygon fill="none" stroke="black" points="506.21,-820.2 506.21,-851 682.55,-851 682.55,-820.2 506.21,-820.2"/>
<text text-anchor="start" x="513.21" y="-832.4" font-family="Arial" font-size="14.00">user </text>
<text text-anchor="start" x="544.33" y="-832.4" font-family="Arial" font-size="14.00" fill="#666666">[User]</text>
<polygon fill="none" stroke="black" points="506.21,-789.4 506.21,-820.2 682.55,-820.2 682.55,-789.4 506.21,-789.4"/>
<text text-anchor="start" x="513.21" y="-801.6" font-family="Arial" font-size="14.00">contact </text>
<text text-anchor="start" x="562.24" y="-801.6" font-family="Arial" font-size="14.00" fill="#666666">[Contact]</text>
<polygon fill="none" stroke="black" points="506.21,-758.6 506.21,-789.4 682.55,-789.4 682.55,-758.6 506.21,-758.6"/>
<text text-anchor="start" x="513.21" y="-770.8" font-family="Arial" font-size="14.00">updatedAt </text>
<text text-anchor="start" x="580.93" y="-770.8" font-family="Arial" font-size="14.00" fill="#666666">[datetime]</text>
<polygon fill="none" stroke="black" points="506.21,-727.8 506.21,-758.6 682.55,-758.6 682.55,-727.8 506.21,-727.8"/>
<text text-anchor="start" x="513.21" y="-740" font-family="Arial" font-size="14.00">dealStageId </text>
<text text-anchor="start" x="591.83" y="-740" font-family="Arial" font-size="14.00" fill="#666666">[uuid]</text>
<polygon fill="none" stroke="black" points="506.21,-697 506.21,-727.8 682.55,-727.8 682.55,-697 506.21,-697"/>
<text text-anchor="start" x="513.21" y="-709.2" font-family="Arial" font-size="14.00">isDeleted </text>
<text text-anchor="start" x="575.46" y="-709.2" font-family="Arial" font-size="14.00" fill="#666666">[boolean]</text>
<polygon fill="none" stroke="black" points="506.21,-666.2 506.21,-697 682.55,-697 682.55,-666.2 506.21,-666.2"/>
<text text-anchor="start" x="513.21" y="-678.4" font-family="Arial" font-size="14.00">dealStage </text>
<text text-anchor="start" x="580.15" y="-678.4" font-family="Arial" font-size="14.00" fill="#666666">[DealStage]</text>
<polygon fill="none" stroke="black" points="506.21,-635.4 506.21,-666.2 682.55,-666.2 682.55,-635.4 506.21,-635.4"/>
<text text-anchor="start" x="513.21" y="-647.6" font-family="Arial" font-size="14.00">companyId </text>
<text text-anchor="start" x="585.58" y="-647.6" font-family="Arial" font-size="14.00" fill="#666666">[uuid]</text>
<polygon fill="none" stroke="black" points="506.21,-604.6 506.21,-635.4 682.55,-635.4 682.55,-604.6 506.21,-604.6"/>
<text text-anchor="start" x="513.21" y="-616.8" font-family="Arial" font-size="14.00">probability </text>
<text text-anchor="start" x="580.91" y="-616.8" font-family="Arial" font-size="14.00" fill="#666666">[float]</text>
<polygon fill="none" stroke="black" stroke-width="3" points="504.71,-603.1 504.71,-1103.7 684.05,-1103.7 684.05,-603.1 504.71,-603.1"/>
</g>
<!-- Company -->
<g id="node3" class="node">
<title>Company</title>
<polygon fill="#efefef" stroke="none" points="43.2,-366.6 43.2,-402.2 255.56,-402.2 255.56,-366.6 43.2,-366.6"/>
<polygon fill="none" stroke="black" points="43.2,-366.6 43.2,-402.2 255.56,-402.2 255.56,-366.6 43.2,-366.6"/>
<text text-anchor="start" x="50.2" y="-380" font-family="Arial Bold" font-size="18.00">Company</text>
<text text-anchor="start" x="120.2" y="-380" font-family="Arial" font-size="14.00">    </text>
<text text-anchor="start" x="151.31" y="-380" font-family="Arial" font-size="14.00" fill="#666666">[TailorDB.Type]</text>
<polygon fill="none" stroke="black" points="43.2,-335.8 43.2,-366.6 255.56,-366.6 255.56,-335.8 43.2,-335.8"/>
<text text-anchor="start" x="50.2" y="-348" font-family="Arial" font-size="14.00">id </text>
<text text-anchor="start" x="64.99" y="-348" font-family="Arial" font-size="14.00" fill="#666666">[uuid]</text>
<polygon fill="none" stroke="black" points="43.2,-305 43.2,-335.8 255.56,-335.8 255.56,-305 43.2,-305"/>
<text text-anchor="start" x="50.2" y="-317.2" font-family="Arial" font-size="14.00">isDeleted </text>
<text text-anchor="start" x="112.45" y="-317.2" font-family="Arial" font-size="14.00" fill="#666666">[boolean]</text>
<polygon fill="none" stroke="black" points="43.2,-274.2 43.2,-305 255.56,-305 255.56,-274.2 43.2,-274.2"/>
<text text-anchor="start" x="50.2" y="-286.4" font-family="Arial" font-size="14.00">url </text>
<text text-anchor="start" x="69.65" y="-286.4" font-family="Arial" font-size="14.00" fill="#666666">[string]</text>
<polygon fill="none" stroke="black" points="43.2,-243.4 43.2,-274.2 255.56,-274.2 255.56,-243.4 43.2,-243.4"/>
<text text-anchor="start" x="50.2" y="-255.6" font-family="Arial" font-size="14.00">linkedInUrl </text>
<text text-anchor="start" x="120.23" y="-255.6" font-family="Arial" font-size="14.00" fill="#666666">[string]</text>
<polygon fill="none" stroke="black" points="43.2,-212.6 43.2,-243.4 255.56,-243.4 255.56,-212.6 43.2,-212.6"/>
<text text-anchor="start" x="50.2" y="-224.8" font-family="Arial" font-size="14.00">logoUrl </text>
<text text-anchor="start" x="98.44" y="-224.8" font-family="Arial" font-size="14.00" fill="#666666">[string]</text>
<polygon fill="none" stroke="black" points="43.2,-181.8 43.2,-212.6 255.56,-212.6 255.56,-181.8 43.2,-181.8"/>
<text text-anchor="start" x="50.2" y="-194" font-family="Arial" font-size="14.00">createdAt </text>
<text text-anchor="start" x="114.01" y="-194" font-family="Arial" font-size="14.00" fill="#666666">[datetime]</text>
<polygon fill="none" stroke="black" points="43.2,-151 43.2,-181.8 255.56,-181.8 255.56,-151 43.2,-151"/>
<text text-anchor="start" x="50.2" y="-163.2" font-family="Arial" font-size="14.00">updatedAt </text>
<text text-anchor="start" x="117.92" y="-163.2" font-family="Arial" font-size="14.00" fill="#666666">[datetime]</text>
<polygon fill="none" stroke="black" points="43.2,-120.2 43.2,-151 255.56,-151 255.56,-120.2 43.2,-120.2"/>
<text text-anchor="start" x="50.2" y="-132.4" font-family="Arial" font-size="14.00">name </text>
<text text-anchor="start" x="89.11" y="-132.4" font-family="Arial" font-size="14.00" fill="#666666">[string]</text>
</g>
<!-- Deal&#45;&gt;Company -->
<g id="edge2" class="edge">
<title>Deal:companyId&#45;&gt;Company:id</title>
<path fill="none" stroke="black" d="M495.05,-650.65C398.75,-647.78 368.96,-603.19 308.38,-522.4 260.69,-458.79 336.06,-351.2 256.56,-351.2"/>
<polygon fill="black" stroke="black" points="494.88,-650.65 504.81,-655.29 500.21,-650.73 504.54,-650.79 504.54,-650.79 504.54,-650.79 500.21,-650.73 504.94,-646.3 494.88,-650.65"/>
<text text-anchor="start" x="376.49" y="-660.8" font-family="Arial" font-size="10.00">ForeignKeyType: Company</text>
</g>
<!-- User -->
<g id="node4" class="node">
<title>User</title>
<polygon fill="#efefef" stroke="none" points="360.2,-335.8 360.2,-371.4 536.56,-371.4 536.56,-335.8 360.2,-335.8"/>
<polygon fill="none" stroke="black" points="360.2,-335.8 360.2,-371.4 536.56,-371.4 536.56,-335.8 360.2,-335.8"/>
<text text-anchor="start" x="367.2" y="-349.2" font-family="Arial Bold" font-size="18.00">User</text>
<text text-anchor="start" x="401.19" y="-349.2" font-family="Arial" font-size="14.00">    </text>
<text text-anchor="start" x="432.31" y="-349.2" font-family="Arial" font-size="14.00" fill="#666666">[TailorDB.Type]</text>
<polygon fill="none" stroke="black" points="360.2,-305 360.2,-335.8 536.56,-335.8 536.56,-305 360.2,-305"/>
<text text-anchor="start" x="367.2" y="-317.2" font-family="Arial" font-size="14.00">id </text>
<text text-anchor="start" x="381.99" y="-317.2" font-family="Arial" font-size="14.00" fill="#666666">[uuid]</text>
<polygon fill="none" stroke="black" points="360.2,-274.2 360.2,-305 536.56,-305 536.56,-274.2 360.2,-274.2"/>
<text text-anchor="start" x="367.2" y="-286.4" font-family="Arial" font-size="14.00">name </text>
<text text-anchor="start" x="406.11" y="-286.4" font-family="Arial" font-size="14.00" fill="#666666">[string]</text>
<polygon fill="none" stroke="black" points="360.2,-243.4 360.2,-274.2 536.56,-274.2 536.56,-243.4 360.2,-243.4"/>
<text text-anchor="start" x="367.2" y="-255.6" font-family="Arial" font-size="14.00">email </text>
<text text-anchor="start" x="404.55" y="-255.6" font-family="Arial" font-size="14.00" fill="#666666">[string]</text>
<polygon fill="none" stroke="black" points="360.2,-212.6 360.2,-243.4 536.56,-243.4 536.56,-212.6 360.2,-212.6"/>
<text text-anchor="start" x="367.2" y="-224.8" font-family="Arial" font-size="14.00">roles </text>
<text text-anchor="start" x="401.44" y="-224.8" font-family="Arial" font-size="14.00" fill="#666666">[uuid]</text>
<polygon fill="none" stroke="black" points="360.2,-181.8 360.2,-212.6 536.56,-212.6 536.56,-181.8 360.2,-181.8"/>
<text text-anchor="start" x="367.2" y="-194" font-family="Arial" font-size="14.00">createdAt </text>
<text text-anchor="start" x="431.02" y="-194" font-family="Arial" font-size="14.00" fill="#666666">[datetime]</text>
<polygon fill="none" stroke="black" points="360.2,-151 360.2,-181.8 536.56,-181.8 536.56,-151 360.2,-151"/>
<text text-anchor="start" x="367.2" y="-163.2" font-family="Arial" font-size="14.00">updatedAt </text>
<text text-anchor="start" x="434.93" y="-163.2" font-family="Arial" font-size="14.00" fill="#666666">[datetime]</text>
</g>
<!-- Deal&#45;&gt;User -->
<g id="edge3" class="edge">
<title>Deal:userId&#45;&gt;User:id</title>
<path fill="none" stroke="black" d="M494.83,-927.79C283.9,-919.07 512.01,-638.29 536.56,-414.6 541.12,-372.98 579.43,-320.4 537.56,-320.4"/>
<polygon fill="black" stroke="black" points="494.88,-927.79 504.78,-932.49 500.21,-927.9 504.54,-927.99 504.54,-927.99 504.54,-927.99 500.21,-927.9 504.96,-923.49 494.88,-927.79"/>
<text text-anchor="start" x="398.17" y="-938" font-family="Arial" font-size="10.00">ForeignKeyType: User</text>
</g>
<!-- Contact -->
<g id="node5" class="node">
<title>Contact</title>
<polygon fill="#efefef" stroke="none" points="641.2,-412.8 641.2,-448.4 839.56,-448.4 839.56,-412.8 641.2,-412.8"/>
<polygon fill="none" stroke="black" points="641.2,-412.8 641.2,-448.4 839.56,-448.4 839.56,-412.8 641.2,-412.8"/>
<text text-anchor="start" x="648.2" y="-426.2" font-family="Arial Bold" font-size="18.00">Contact</text>
<text text-anchor="start" x="704.19" y="-426.2" font-family="Arial" font-size="14.00">    </text>
<text text-anchor="start" x="735.31" y="-426.2" font-family="Arial" font-size="14.00" fill="#666666">[TailorDB.Type]</text>
<polygon fill="none" stroke="black" points="641.2,-382 641.2,-412.8 839.56,-412.8 839.56,-382 641.2,-382"/>
<text text-anchor="start" x="648.2" y="-394.2" font-family="Arial" font-size="14.00">id </text>
<text text-anchor="start" x="662.99" y="-394.2" font-family="Arial" font-size="14.00" fill="#666666">[uuid]</text>
<polygon fill="none" stroke="black" points="641.2,-351.2 641.2,-382 839.56,-382 839.56,-351.2 641.2,-351.2"/>
<text text-anchor="start" x="648.2" y="-363.4" font-family="Arial" font-size="14.00">linkedInUrl </text>
<text text-anchor="start" x="718.23" y="-363.4" font-family="Arial" font-size="14.00" fill="#666666">[string]</text>
<polygon fill="none" stroke="black" points="641.2,-320.4 641.2,-351.2 839.56,-351.2 839.56,-320.4 641.2,-320.4"/>
<text text-anchor="start" x="648.2" y="-332.6" font-family="Arial" font-size="14.00">createdAt </text>
<text text-anchor="start" x="712.02" y="-332.6" font-family="Arial" font-size="14.00" fill="#666666">[datetime]</text>
<polygon fill="none" stroke="black" points="641.2,-289.6 641.2,-320.4 839.56,-320.4 839.56,-289.6 641.2,-289.6"/>
<text text-anchor="start" x="648.2" y="-301.8" font-family="Arial" font-size="14.00">updatedAt </text>
<text text-anchor="start" x="715.93" y="-301.8" font-family="Arial" font-size="14.00" fill="#666666">[datetime]</text>
<polygon fill="none" stroke="black" points="641.2,-258.8 641.2,-289.6 839.56,-289.6 839.56,-258.8 641.2,-258.8"/>
<text text-anchor="start" x="648.2" y="-271" font-family="Arial" font-size="14.00">firstName </text>
<text text-anchor="start" x="711.99" y="-271" font-family="Arial" font-size="14.00" fill="#666666">[string]</text>
<polygon fill="none" stroke="black" points="641.2,-228 641.2,-258.8 839.56,-258.8 839.56,-228 641.2,-228"/>
<text text-anchor="start" x="648.2" y="-240.2" font-family="Arial" font-size="14.00">email </text>
<text text-anchor="start" x="685.55" y="-240.2" font-family="Arial" font-size="14.00" fill="#666666">[string]</text>
<polygon fill="none" stroke="black" points="641.2,-197.2 641.2,-228 839.56,-228 839.56,-197.2 641.2,-197.2"/>
<text text-anchor="start" x="648.2" y="-209.4" font-family="Arial" font-size="14.00">phonePrimary </text>
<text text-anchor="start" x="739.25" y="-209.4" font-family="Arial" font-size="14.00" fill="#666666">[string]</text>
<polygon fill="none" stroke="black" points="641.2,-166.4 641.2,-197.2 839.56,-197.2 839.56,-166.4 641.2,-166.4"/>
<text text-anchor="start" x="648.2" y="-178.6" font-family="Arial" font-size="14.00">companyId </text>
<text text-anchor="start" x="720.58" y="-178.6" font-family="Arial" font-size="14.00" fill="#666666">[uuid]</text>
<polygon fill="none" stroke="black" points="641.2,-135.6 641.2,-166.4 839.56,-166.4 839.56,-135.6 641.2,-135.6"/>
<text text-anchor="start" x="648.2" y="-147.8" font-family="Arial" font-size="14.00">company </text>
<text text-anchor="start" x="708.9" y="-147.8" font-family="Arial" font-size="14.00" fill="#666666">[Company]</text>
<polygon fill="none" stroke="black" points="641.2,-104.8 641.2,-135.6 839.56,-135.6 839.56,-104.8 641.2,-104.8"/>
<text text-anchor="start" x="648.2" y="-117" font-family="Arial" font-size="14.00">isDeleted </text>
<text text-anchor="start" x="710.46" y="-117" font-family="Arial" font-size="14.00" fill="#666666">[boolean]</text>
<polygon fill="none" stroke="black" points="641.2,-74 641.2,-104.8 839.56,-104.8 839.56,-74 641.2,-74"/>
<text text-anchor="start" x="648.2" y="-86.2" font-family="Arial" font-size="14.00">lastName </text>
<text text-anchor="start" x="711.23" y="-86.2" font-family="Arial" font-size="14.00" fill="#666666">[string]</text>
</g>
<!-- Deal&#45;&gt;Contact -->
<g id="edge4" class="edge">
<title>Deal:contactId&#45;&gt;Contact:id</title>
<path fill="none" stroke="black" d="M693.71,-896.88C829,-888.13 722.99,-699.78 682.55,-558.4 672.95,-524.83 650.94,-525.13 641.2,-491.6 629.54,-451.39 598.34,-397.4 640.2,-397.4"/>
<polygon fill="black" stroke="black" points="693.88,-896.88 683.75,-892.69 688.55,-897.04 684.22,-897.18 684.22,-897.18 684.22,-897.18 688.55,-897.04 684.03,-901.69 693.88,-896.88"/>
<text text-anchor="start" x="690.55" y="-907.2" font-family="Arial" font-size="10.00">ForeignKeyType: Contact</text>
</g>
<!-- DealStage -->
<g id="node6" class="node">
<title>DealStage</title>
<polygon fill="#efefef" stroke="none" points="944.21,-443.6 944.21,-479.2 1160.55,-479.2 1160.55,-443.6 944.21,-443.6"/>
<polygon fill="none" stroke="black" points="944.21,-443.6 944.21,-479.2 1160.55,-479.2 1160.55,-443.6 944.21,-443.6"/>
<text text-anchor="start" x="951.21" y="-457" font-family="Arial Bold" font-size="18.00">DealStage</text>
<text text-anchor="start" x="1025.18" y="-457" font-family="Arial" font-size="14.00">    </text>
<text text-anchor="start" x="1056.3" y="-457" font-family="Arial" font-size="14.00" fill="#666666">[TailorDB.Type]</text>
<polygon fill="none" stroke="black" points="944.21,-412.8 944.21,-443.6 1160.55,-443.6 1160.55,-412.8 944.21,-412.8"/>
<text text-anchor="start" x="951.21" y="-425" font-family="Arial" font-size="14.00">id </text>
<text text-anchor="start" x="966" y="-425" font-family="Arial" font-size="14.00" fill="#666666">[uuid]</text>
<polygon fill="none" stroke="black" points="944.21,-382 944.21,-412.8 1160.55,-412.8 1160.55,-382 944.21,-382"/>
<text text-anchor="start" x="951.21" y="-394.2" font-family="Arial" font-size="14.00">updatedAt </text>
<text text-anchor="start" x="1018.94" y="-394.2" font-family="Arial" font-size="14.00" fill="#666666">[datetime]</text>
<polygon fill="none" stroke="black" points="944.21,-351.2 944.21,-382 1160.55,-382 1160.55,-351.2 944.21,-351.2"/>
<text text-anchor="start" x="951.21" y="-363.4" font-family="Arial" font-size="14.00">dealPipeline </text>
<text text-anchor="start" x="1031.39" y="-363.4" font-family="Arial" font-size="14.00" fill="#666666">[DealPipeline]</text>
<polygon fill="none" stroke="black" points="944.21,-320.4 944.21,-351.2 1160.55,-351.2 1160.55,-320.4 944.21,-320.4"/>
<text text-anchor="start" x="951.21" y="-332.6" font-family="Arial" font-size="14.00">description </text>
<text text-anchor="start" x="1022.81" y="-332.6" font-family="Arial" font-size="14.00" fill="#666666">[string]</text>
<polygon fill="none" stroke="black" points="944.21,-289.6 944.21,-320.4 1160.55,-320.4 1160.55,-289.6 944.21,-289.6"/>
<text text-anchor="start" x="951.21" y="-301.8" font-family="Arial" font-size="14.00">name </text>
<text text-anchor="start" x="990.12" y="-301.8" font-family="Arial" font-size="14.00" fill="#666666">[string]</text>
<polygon fill="none" stroke="black" points="944.21,-258.8 944.21,-289.6 1160.55,-289.6 1160.55,-258.8 944.21,-258.8"/>
<text text-anchor="start" x="951.21" y="-271" font-family="Arial" font-size="14.00">createdAt </text>
<text text-anchor="start" x="1015.03" y="-271" font-family="Arial" font-size="14.00" fill="#666666">[datetime]</text>
<polygon fill="none" stroke="black" points="944.21,-228 944.21,-258.8 1160.55,-258.8 1160.55,-228 944.21,-228"/>
<text text-anchor="start" x="951.21" y="-240.2" font-family="Arial" font-size="14.00">probability </text>
<text text-anchor="start" x="1018.92" y="-240.2" font-family="Arial" font-size="14.00" fill="#666666">[float]</text>
<polygon fill="none" stroke="black" points="944.21,-197.2 944.21,-228 1160.55,-228 1160.55,-197.2 944.21,-197.2"/>
<text text-anchor="start" x="951.21" y="-209.4" font-family="Arial" font-size="14.00">closedWon </text>
<text text-anchor="start" x="1024.36" y="-209.4" font-family="Arial" font-size="14.00" fill="#666666">[boolean]</text>
<polygon fill="none" stroke="black" points="944.21,-166.4 944.21,-197.2 1160.55,-197.2 1160.55,-166.4 944.21,-166.4"/>
<text text-anchor="start" x="951.21" y="-178.6" font-family="Arial" font-size="14.00">closedLost </text>
<text text-anchor="start" x="1022.03" y="-178.6" font-family="Arial" font-size="14.00" fill="#666666">[boolean]</text>
<polygon fill="none" stroke="black" points="944.21,-135.6 944.21,-166.4 1160.55,-166.4 1160.55,-135.6 944.21,-135.6"/>
<text text-anchor="start" x="951.21" y="-147.8" font-family="Arial" font-size="14.00">dealPipelineId </text>
<text text-anchor="start" x="1043.06" y="-147.8" font-family="Arial" font-size="14.00" fill="#666666">[uuid]</text>
<polygon fill="none" stroke="black" points="944.21,-104.8 944.21,-135.6 1160.55,-135.6 1160.55,-104.8 944.21,-104.8"/>
<text text-anchor="start" x="951.21" y="-117" font-family="Arial" font-size="14.00">displayOrder </text>
<text text-anchor="start" x="1034.47" y="-117" font-family="Arial" font-size="14.00" fill="#666666">[integer]</text>
<polygon fill="none" stroke="black" points="944.21,-74 944.21,-104.8 1160.55,-104.8 1160.55,-74 944.21,-74"/>
<text text-anchor="start" x="951.21" y="-86.2" font-family="Arial" font-size="14.00">label </text>
<text text-anchor="start" x="984.68" y="-86.2" font-family="Arial" font-size="14.00" fill="#666666">[string]</text>
<polygon fill="none" stroke="black" points="944.21,-43.2 944.21,-74 1160.55,-74 1160.55,-43.2 944.21,-43.2"/>
<text text-anchor="start" x="951.21" y="-55.4" font-family="Arial" font-size="14.00">type </text>
<text text-anchor="start" x="981.57" y="-55.4" font-family="Arial" font-size="14.00" fill="#666666">[string]</text>
</g>
<!-- Deal&#45;&gt;DealStage -->
<g id="edge5" class="edge">
<title>Deal:dealStageId&#45;&gt;DealStage:id</title>
<path fill="none" stroke="black" d="M693.92,-742.97C818.05,-737.3 814.17,-628.49 891.38,-522.4 919.5,-483.76 895.43,-428.2 943.21,-428.2"/>
<polygon fill="black" stroke="black" points="693.88,-742.97 683.79,-738.69 688.55,-743.09 684.22,-743.19 684.22,-743.19 684.22,-743.19 688.55,-743.09 683.99,-747.69 693.88,-742.97"/>
<text text-anchor="start" x="690.55" y="-753.2" font-family="Arial" font-size="10.00">ForeignKeyType: DealStage</text>
</g>
<!-- EngagementDeal -->
<g id="node2" class="node">
<title>EngagementDeal</title>
<polygon fill="#efefef" stroke="none" points="461.23,-1443.2 461.23,-1478.8 727.53,-1478.8 727.53,-1443.2 461.23,-1443.2"/>
<polygon fill="none" stroke="black" points="461.23,-1443.2 461.23,-1478.8 727.53,-1478.8 727.53,-1443.2 461.23,-1443.2"/>
<text text-anchor="start" x="468.23" y="-1456.6" font-family="Arial Bold" font-size="18.00">EngagementDeal</text>
<text text-anchor="start" x="592.17" y="-1456.6" font-family="Arial" font-size="14.00">    </text>
<text text-anchor="start" x="623.29" y="-1456.6" font-family="Arial" font-size="14.00" fill="#666666">[TailorDB.Type]</text>
<polygon fill="none" stroke="black" points="461.23,-1412.4 461.23,-1443.2 727.53,-1443.2 727.53,-1412.4 461.23,-1412.4"/>
<text text-anchor="start" x="468.23" y="-1424.6" font-family="Arial" font-size="14.00">id </text>
<text text-anchor="start" x="483.01" y="-1424.6" font-family="Arial" font-size="14.00" fill="#666666">[uuid]</text>
<polygon fill="none" stroke="black" points="461.23,-1381.6 461.23,-1412.4 727.53,-1412.4 727.53,-1381.6 461.23,-1381.6"/>
<text text-anchor="start" x="468.23" y="-1393.8" font-family="Arial" font-size="14.00">engagementId </text>
<text text-anchor="start" x="561.63" y="-1393.8" font-family="Arial" font-size="14.00" fill="#666666">[uuid]</text>
<polygon fill="none" stroke="black" points="461.23,-1350.8 461.23,-1381.6 727.53,-1381.6 727.53,-1350.8 461.23,-1350.8"/>
<text text-anchor="start" x="468.23" y="-1363" font-family="Arial" font-size="14.00">engagement </text>
<text text-anchor="start" x="549.96" y="-1363" font-family="Arial" font-size="14.00" fill="#666666">[Engagement]</text>
<polygon fill="none" stroke="black" points="461.23,-1320 461.23,-1350.8 727.53,-1350.8 727.53,-1320 461.23,-1320"/>
<text text-anchor="start" x="468.23" y="-1332.2" font-family="Arial" font-size="14.00">createdAt </text>
<text text-anchor="start" x="532.04" y="-1332.2" font-family="Arial" font-size="14.00" fill="#666666">[datetime]</text>
<polygon fill="none" stroke="black" points="461.23,-1289.2 461.23,-1320 727.53,-1320 727.53,-1289.2 461.23,-1289.2"/>
<text text-anchor="start" x="468.23" y="-1301.4" font-family="Arial" font-size="14.00">updatedAt </text>
<text text-anchor="start" x="535.95" y="-1301.4" font-family="Arial" font-size="14.00" fill="#666666">[datetime]</text>
<polygon fill="none" stroke="black" points="461.23,-1258.4 461.23,-1289.2 727.53,-1289.2 727.53,-1258.4 461.23,-1258.4"/>
<text text-anchor="start" x="468.23" y="-1270.6" font-family="Arial" font-size="14.00">dealId </text>
<text text-anchor="start" x="510.26" y="-1270.6" font-family="Arial" font-size="14.00" fill="#666666">[uuid]</text>
<polygon fill="none" stroke="black" points="461.23,-1227.6 461.23,-1258.4 727.53,-1258.4 727.53,-1227.6 461.23,-1227.6"/>
<text text-anchor="start" x="468.23" y="-1239.8" font-family="Arial" font-size="14.00">deal </text>
<text text-anchor="start" x="498.58" y="-1239.8" font-family="Arial" font-size="14.00" fill="#666666">[Deal]</text>
</g>
<!-- EngagementDeal&#45;&gt;Deal -->
<g id="edge1" class="edge">
<title>EngagementDeal:dealId&#45;&gt;Deal:id</title>
<path fill="none" stroke="black" d="M738.91,-1272.95C826.14,-1258 780.84,-1051.2 683.55,-1051.2"/>
<polygon fill="black" stroke="black" points="738.83,-1272.96 728.5,-1269.29 733.52,-1273.39 729.2,-1273.75 729.2,-1273.75 729.2,-1273.75 733.52,-1273.39 729.24,-1278.26 738.83,-1272.96"/>
<text text-anchor="start" x="735.53" y="-1283.8" font-family="Arial" font-size="10.00">ForeignKeyType: Deal</text>
</g>
</g>
</svg>
