<?xml version="1.0" encoding="UTF-8" standalone="no"?>
<!DOCTYPE svg PUBLIC "-//W3C//DTD SVG 1.1//EN"
 "http://www.w3.org/Graphics/SVG/1.1/DTD/svg11.dtd">
<!-- Generated by graphviz version 12.1.2 (20240928.0832)
 -->
<!-- Title: Deal Pages: 1 -->
<svg width="1136pt" height="1530pt"
 viewBox="0.00 0.00 1136.11 1530.00" xmlns="http://www.w3.org/2000/svg" xmlns:xlink="http://www.w3.org/1999/xlink">
<g id="graph0" class="graph" transform="scale(1 1) rotate(0) translate(4 1526)">
<title>Deal</title>
<polygon fill="white" stroke="none" points="-4,4 -4,-1526 1132.11,-1526 1132.11,4 -4,4"/>
<!-- Deal -->
<g id="node1" class="node">
<title>Deal</title>
<polygon fill="#efefef" stroke="none" points="462.2,-1066.6 462.2,-1102.2 619.9,-1102.2 619.9,-1066.6 462.2,-1066.6"/>
<polygon fill="none" stroke="black" points="462.2,-1066.6 462.2,-1102.2 619.9,-1102.2 619.9,-1066.6 462.2,-1066.6"/>
<text text-anchor="start" x="469.2" y="-1080" font-family="Arial Bold" font-size="18.00">Deal</text>
<text text-anchor="start" x="503.18" y="-1080" font-family="Arial" font-size="14.00">    </text>
<text text-anchor="start" x="534.3" y="-1080" font-family="Arial" font-size="14.00" fill="#666666">[Base Table]</text>
<polygon fill="none" stroke="black" points="462.2,-1035.8 462.2,-1066.6 619.9,-1066.6 619.9,-1035.8 462.2,-1035.8"/>
<text text-anchor="start" x="469.2" y="-1048" font-family="Arial" font-size="14.00">id </text>
<text text-anchor="start" x="483.99" y="-1048" font-family="Arial" font-size="14.00" fill="#666666">[uuid]</text>
<polygon fill="none" stroke="black" points="462.2,-1005 462.2,-1035.8 619.9,-1035.8 619.9,-1005 462.2,-1005"/>
<text text-anchor="start" x="469.2" y="-1017.2" font-family="Arial" font-size="14.00">updatedAt </text>
<text text-anchor="start" x="536.93" y="-1017.2" font-family="Arial" font-size="14.00" fill="#666666">[datetime]</text>
<polygon fill="none" stroke="black" points="462.2,-974.2 462.2,-1005 619.9,-1005 619.9,-974.2 462.2,-974.2"/>
<text text-anchor="start" x="469.2" y="-986.4" font-family="Arial" font-size="14.00">amount </text>
<text text-anchor="start" x="519.79" y="-986.4" font-family="Arial" font-size="14.00" fill="#666666">[float]</text>
<polygon fill="none" stroke="black" points="462.2,-943.4 462.2,-974.2 619.9,-974.2 619.9,-943.4 462.2,-943.4"/>
<text text-anchor="start" x="469.2" y="-955.6" font-family="Arial" font-size="14.00">value </text>
<text text-anchor="start" x="506.56" y="-955.6" font-family="Arial" font-size="14.00" fill="#666666">[float]</text>
<polygon fill="none" stroke="black" points="462.2,-912.6 462.2,-943.4 619.9,-943.4 619.9,-912.6 462.2,-912.6"/>
<text text-anchor="start" x="469.2" y="-924.8" font-family="Arial" font-size="14.00">userId </text>
<text text-anchor="start" x="512" y="-924.8" font-family="Arial" font-size="14.00" fill="#666666">[uuid]</text>
<polygon fill="none" stroke="black" points="462.2,-881.8 462.2,-912.6 619.9,-912.6 619.9,-881.8 462.2,-881.8"/>
<text text-anchor="start" x="469.2" y="-894" font-family="Arial" font-size="14.00">contactId </text>
<text text-anchor="start" x="529.91" y="-894" font-family="Arial" font-size="14.00" fill="#666666">[uuid]</text>
<polygon fill="none" stroke="black" points="462.2,-851 462.2,-881.8 619.9,-881.8 619.9,-851 462.2,-851"/>
<text text-anchor="start" x="469.2" y="-863.2" font-family="Arial" font-size="14.00">isDeleted </text>
<text text-anchor="start" x="531.46" y="-863.2" font-family="Arial" font-size="14.00" fill="#666666">[boolean]</text>
<polygon fill="none" stroke="black" points="462.2,-820.2 462.2,-851 619.9,-851 619.9,-820.2 462.2,-820.2"/>
<text text-anchor="start" x="469.2" y="-832.4" font-family="Arial" font-size="14.00">company </text>
<text text-anchor="start" x="529.9" y="-832.4" font-family="Arial" font-size="14.00" fill="#666666">[Company]</text>
<polygon fill="none" stroke="black" points="462.2,-789.4 462.2,-820.2 619.9,-820.2 619.9,-789.4 462.2,-789.4"/>
<text text-anchor="start" x="469.2" y="-801.6" font-family="Arial" font-size="14.00">probability </text>
<text text-anchor="start" x="536.91" y="-801.6" font-family="Arial" font-size="14.00" fill="#666666">[float]</text>
<polygon fill="none" stroke="black" points="462.2,-758.6 462.2,-789.4 619.9,-789.4 619.9,-758.6 462.2,-758.6"/>
<text text-anchor="start" x="469.2" y="-770.8" font-family="Arial" font-size="14.00">dealStageId </text>
<text text-anchor="start" x="547.82" y="-770.8" font-family="Arial" font-size="14.00" fill="#666666">[uuid]</text>
<polygon fill="none" stroke="black" points="462.2,-727.8 462.2,-758.6 619.9,-758.6 619.9,-727.8 462.2,-727.8"/>
<text text-anchor="start" x="469.2" y="-740" font-family="Arial" font-size="14.00">dealStage </text>
<text text-anchor="start" x="536.15" y="-740" font-family="Arial" font-size="14.00" fill="#666666">[DealStage]</text>
<polygon fill="none" stroke="black" points="462.2,-697 462.2,-727.8 619.9,-727.8 619.9,-697 462.2,-697"/>
<text text-anchor="start" x="469.2" y="-709.2" font-family="Arial" font-size="14.00">createdAt </text>
<text text-anchor="start" x="533.02" y="-709.2" font-family="Arial" font-size="14.00" fill="#666666">[datetime]</text>
<polygon fill="none" stroke="black" points="462.2,-666.2 462.2,-697 619.9,-697 619.9,-666.2 462.2,-666.2"/>
<text text-anchor="start" x="469.2" y="-678.4" font-family="Arial" font-size="14.00">user </text>
<text text-anchor="start" x="500.33" y="-678.4" font-family="Arial" font-size="14.00" fill="#666666">[User]</text>
<polygon fill="none" stroke="black" points="462.2,-635.4 462.2,-666.2 619.9,-666.2 619.9,-635.4 462.2,-635.4"/>
<text text-anchor="start" x="469.2" y="-647.6" font-family="Arial" font-size="14.00">companyId </text>
<text text-anchor="start" x="541.58" y="-647.6" font-family="Arial" font-size="14.00" fill="#666666">[uuid]</text>
<polygon fill="none" stroke="black" points="462.2,-604.6 462.2,-635.4 619.9,-635.4 619.9,-604.6 462.2,-604.6"/>
<text text-anchor="start" x="469.2" y="-616.8" font-family="Arial" font-size="14.00">contact </text>
<text text-anchor="start" x="518.23" y="-616.8" font-family="Arial" font-size="14.00" fill="#666666">[Contact]</text>
<polygon fill="none" stroke="black" stroke-width="3" points="460.7,-603.1 460.7,-1103.7 621.4,-1103.7 621.4,-603.1 460.7,-603.1"/>
</g>
<!-- User -->
<g id="node3" class="node">
<title>User</title>
<polygon fill="#efefef" stroke="none" points="43.2,-335.8 43.2,-371.4 200.9,-371.4 200.9,-335.8 43.2,-335.8"/>
<polygon fill="none" stroke="black" points="43.2,-335.8 43.2,-371.4 200.9,-371.4 200.9,-335.8 43.2,-335.8"/>
<text text-anchor="start" x="50.2" y="-349.2" font-family="Arial Bold" font-size="18.00">User</text>
<text text-anchor="start" x="84.19" y="-349.2" font-family="Arial" font-size="14.00">    </text>
<text text-anchor="start" x="115.3" y="-349.2" font-family="Arial" font-size="14.00" fill="#666666">[Base Table]</text>
<polygon fill="none" stroke="black" points="43.2,-305 43.2,-335.8 200.9,-335.8 200.9,-305 43.2,-305"/>
<text text-anchor="start" x="50.2" y="-317.2" font-family="Arial" font-size="14.00">id </text>
<text text-anchor="start" x="64.99" y="-317.2" font-family="Arial" font-size="14.00" fill="#666666">[uuid]</text>
<polygon fill="none" stroke="black" points="43.2,-274.2 43.2,-305 200.9,-305 200.9,-274.2 43.2,-274.2"/>
<text text-anchor="start" x="50.2" y="-286.4" font-family="Arial" font-size="14.00">name </text>
<text text-anchor="start" x="89.11" y="-286.4" font-family="Arial" font-size="14.00" fill="#666666">[string]</text>
<polygon fill="none" stroke="black" points="43.2,-243.4 43.2,-274.2 200.9,-274.2 200.9,-243.4 43.2,-243.4"/>
<text text-anchor="start" x="50.2" y="-255.6" font-family="Arial" font-size="14.00">email </text>
<text text-anchor="start" x="87.54" y="-255.6" font-family="Arial" font-size="14.00" fill="#666666">[string]</text>
<polygon fill="none" stroke="black" points="43.2,-212.6 43.2,-243.4 200.9,-243.4 200.9,-212.6 43.2,-212.6"/>
<text text-anchor="start" x="50.2" y="-224.8" font-family="Arial" font-size="14.00">roles </text>
<text text-anchor="start" x="84.43" y="-224.8" font-family="Arial" font-size="14.00" fill="#666666">[uuid]</text>
<polygon fill="none" stroke="black" points="43.2,-181.8 43.2,-212.6 200.9,-212.6 200.9,-181.8 43.2,-181.8"/>
<text text-anchor="start" x="50.2" y="-194" font-family="Arial" font-size="14.00">createdAt </text>
<text text-anchor="start" x="114.01" y="-194" font-family="Arial" font-size="14.00" fill="#666666">[datetime]</text>
<polygon fill="none" stroke="black" points="43.2,-151 43.2,-181.8 200.9,-181.8 200.9,-151 43.2,-151"/>
<text text-anchor="start" x="50.2" y="-163.2" font-family="Arial" font-size="14.00">updatedAt </text>
<text text-anchor="start" x="117.92" y="-163.2" font-family="Arial" font-size="14.00" fill="#666666">[datetime]</text>
</g>
<!-- Deal&#45;&gt;User -->
<g id="edge2" class="edge">
<title>Deal:userId&#45;&gt;User:id</title>
<path fill="none" stroke="black" d="M450.77,-927.8C260.86,-920.41 323.37,-708.62 253.05,-522.4 220.33,-435.76 294.52,-320.4 201.9,-320.4"/>
<polygon fill="black" stroke="black" points="450.87,-927.8 460.78,-932.49 456.21,-927.9 460.54,-927.99 460.54,-927.99 460.54,-927.99 456.21,-927.9 460.96,-923.49 450.87,-927.8"/>
<text text-anchor="start" x="403.07" y="-938" font-family="Arial" font-size="10.00">ForeignKey</text>
</g>
<!-- Contact -->
<g id="node4" class="node">
<title>Contact</title>
<polygon fill="#efefef" stroke="none" points="305.2,-412.8 305.2,-448.4 484.9,-448.4 484.9,-412.8 305.2,-412.8"/>
<polygon fill="none" stroke="black" points="305.2,-412.8 305.2,-448.4 484.9,-448.4 484.9,-412.8 305.2,-412.8"/>
<text text-anchor="start" x="312.2" y="-426.2" font-family="Arial Bold" font-size="18.00">Contact</text>
<text text-anchor="start" x="368.19" y="-426.2" font-family="Arial" font-size="14.00">    </text>
<text text-anchor="start" x="399.3" y="-426.2" font-family="Arial" font-size="14.00" fill="#666666">[Base Table]</text>
<polygon fill="none" stroke="black" points="305.2,-382 305.2,-412.8 484.9,-412.8 484.9,-382 305.2,-382"/>
<text text-anchor="start" x="312.2" y="-394.2" font-family="Arial" font-size="14.00">id </text>
<text text-anchor="start" x="326.99" y="-394.2" font-family="Arial" font-size="14.00" fill="#666666">[uuid]</text>
<polygon fill="none" stroke="black" points="305.2,-351.2 305.2,-382 484.9,-382 484.9,-351.2 305.2,-351.2"/>
<text text-anchor="start" x="312.2" y="-363.4" font-family="Arial" font-size="14.00">isDeleted </text>
<text text-anchor="start" x="374.46" y="-363.4" font-family="Arial" font-size="14.00" fill="#666666">[boolean]</text>
<polygon fill="none" stroke="black" points="305.2,-320.4 305.2,-351.2 484.9,-351.2 484.9,-320.4 305.2,-320.4"/>
<text text-anchor="start" x="312.2" y="-332.6" font-family="Arial" font-size="14.00">lastName </text>
<text text-anchor="start" x="375.22" y="-332.6" font-family="Arial" font-size="14.00" fill="#666666">[string]</text>
<polygon fill="none" stroke="black" points="305.2,-289.6 305.2,-320.4 484.9,-320.4 484.9,-289.6 305.2,-289.6"/>
<text text-anchor="start" x="312.2" y="-301.8" font-family="Arial" font-size="14.00">email </text>
<text text-anchor="start" x="349.55" y="-301.8" font-family="Arial" font-size="14.00" fill="#666666">[string]</text>
<polygon fill="none" stroke="black" points="305.2,-258.8 305.2,-289.6 484.9,-289.6 484.9,-258.8 305.2,-258.8"/>
<text text-anchor="start" x="312.2" y="-271" font-family="Arial" font-size="14.00">phonePrimary </text>
<text text-anchor="start" x="403.24" y="-271" font-family="Arial" font-size="14.00" fill="#666666">[string]</text>
<polygon fill="none" stroke="black" points="305.2,-228 305.2,-258.8 484.9,-258.8 484.9,-228 305.2,-228"/>
<text text-anchor="start" x="312.2" y="-240.2" font-family="Arial" font-size="14.00">linkedInUrl </text>
<text text-anchor="start" x="382.23" y="-240.2" font-family="Arial" font-size="14.00" fill="#666666">[string]</text>
<polygon fill="none" stroke="black" points="305.2,-197.2 305.2,-228 484.9,-228 484.9,-197.2 305.2,-197.2"/>
<text text-anchor="start" x="312.2" y="-209.4" font-family="Arial" font-size="14.00">companyId </text>
<text text-anchor="start" x="384.57" y="-209.4" font-family="Arial" font-size="14.00" fill="#666666">[uuid]</text>
<polygon fill="none" stroke="black" points="305.2,-166.4 305.2,-197.2 484.9,-197.2 484.9,-166.4 305.2,-166.4"/>
<text text-anchor="start" x="312.2" y="-178.6" font-family="Arial" font-size="14.00">company </text>
<text text-anchor="start" x="372.9" y="-178.6" font-family="Arial" font-size="14.00" fill="#666666">[Company]</text>
<polygon fill="none" stroke="black" points="305.2,-135.6 305.2,-166.4 484.9,-166.4 484.9,-135.6 305.2,-135.6"/>
<text text-anchor="start" x="312.2" y="-147.8" font-family="Arial" font-size="14.00">createdAt </text>
<text text-anchor="start" x="376.01" y="-147.8" font-family="Arial" font-size="14.00" fill="#666666">[datetime]</text>
<polygon fill="none" stroke="black" points="305.2,-104.8 305.2,-135.6 484.9,-135.6 484.9,-104.8 305.2,-104.8"/>
<text text-anchor="start" x="312.2" y="-117" font-family="Arial" font-size="14.00">updatedAt </text>
<text text-anchor="start" x="379.92" y="-117" font-family="Arial" font-size="14.00" fill="#666666">[datetime]</text>
<polygon fill="none" stroke="black" points="305.2,-74 305.2,-104.8 484.9,-104.8 484.9,-74 305.2,-74"/>
<text text-anchor="start" x="312.2" y="-86.2" font-family="Arial" font-size="14.00">firstName </text>
<text text-anchor="start" x="375.99" y="-86.2" font-family="Arial" font-size="14.00" fill="#666666">[string]</text>
</g>
<!-- Deal&#45;&gt;Contact -->
<g id="edge3" class="edge">
<title>Deal:contactId&#45;&gt;Contact:id</title>
<path fill="none" stroke="black" d="M451.07,-896.89C316.51,-888.3 438.01,-703.45 462.2,-558.4 467.36,-527.47 479.63,-522.51 484.9,-491.6 491.95,-450.33 527.77,-397.4 485.9,-397.4"/>
<polygon fill="black" stroke="black" points="450.87,-896.88 460.73,-901.69 456.21,-897.05 460.54,-897.18 460.54,-897.18 460.54,-897.18 456.21,-897.05 461.01,-892.69 450.87,-896.88"/>
<text text-anchor="start" x="403.07" y="-907.2" font-family="Arial" font-size="10.00">ForeignKey</text>
</g>
<!-- DealStage -->
<g id="node5" class="node">
<title>DealStage</title>
<polygon fill="#efefef" stroke="none" points="589.21,-443.6 589.21,-479.2 786.89,-479.2 786.89,-443.6 589.21,-443.6"/>
<polygon fill="none" stroke="black" points="589.21,-443.6 589.21,-479.2 786.89,-479.2 786.89,-443.6 589.21,-443.6"/>
<text text-anchor="start" x="596.21" y="-457" font-family="Arial Bold" font-size="18.00">DealStage</text>
<text text-anchor="start" x="670.18" y="-457" font-family="Arial" font-size="14.00">    </text>
<text text-anchor="start" x="701.3" y="-457" font-family="Arial" font-size="14.00" fill="#666666">[Base Table]</text>
<polygon fill="none" stroke="black" points="589.21,-412.8 589.21,-443.6 786.89,-443.6 786.89,-412.8 589.21,-412.8"/>
<text text-anchor="start" x="596.21" y="-425" font-family="Arial" font-size="14.00">id </text>
<text text-anchor="start" x="611" y="-425" font-family="Arial" font-size="14.00" fill="#666666">[uuid]</text>
<polygon fill="none" stroke="black" points="589.21,-382 589.21,-412.8 786.89,-412.8 786.89,-382 589.21,-382"/>
<text text-anchor="start" x="596.21" y="-394.2" font-family="Arial" font-size="14.00">dealPipeline </text>
<text text-anchor="start" x="676.38" y="-394.2" font-family="Arial" font-size="14.00" fill="#666666">[DealPipeline]</text>
<polygon fill="none" stroke="black" points="589.21,-351.2 589.21,-382 786.89,-382 786.89,-351.2 589.21,-351.2"/>
<text text-anchor="start" x="596.21" y="-363.4" font-family="Arial" font-size="14.00">displayOrder </text>
<text text-anchor="start" x="679.46" y="-363.4" font-family="Arial" font-size="14.00" fill="#666666">[integer]</text>
<polygon fill="none" stroke="black" points="589.21,-320.4 589.21,-351.2 786.89,-351.2 786.89,-320.4 589.21,-320.4"/>
<text text-anchor="start" x="596.21" y="-332.6" font-family="Arial" font-size="14.00">name </text>
<text text-anchor="start" x="635.12" y="-332.6" font-family="Arial" font-size="14.00" fill="#666666">[string]</text>
<polygon fill="none" stroke="black" points="589.21,-289.6 589.21,-320.4 786.89,-320.4 786.89,-289.6 589.21,-289.6"/>
<text text-anchor="start" x="596.21" y="-301.8" font-family="Arial" font-size="14.00">probability </text>
<text text-anchor="start" x="663.91" y="-301.8" font-family="Arial" font-size="14.00" fill="#666666">[float]</text>
<polygon fill="none" stroke="black" points="589.21,-258.8 589.21,-289.6 786.89,-289.6 786.89,-258.8 589.21,-258.8"/>
<text text-anchor="start" x="596.21" y="-271" font-family="Arial" font-size="14.00">closedLost </text>
<text text-anchor="start" x="667.03" y="-271" font-family="Arial" font-size="14.00" fill="#666666">[boolean]</text>
<polygon fill="none" stroke="black" points="589.21,-228 589.21,-258.8 786.89,-258.8 786.89,-228 589.21,-228"/>
<text text-anchor="start" x="596.21" y="-240.2" font-family="Arial" font-size="14.00">updatedAt </text>
<text text-anchor="start" x="663.93" y="-240.2" font-family="Arial" font-size="14.00" fill="#666666">[datetime]</text>
<polygon fill="none" stroke="black" points="589.21,-197.2 589.21,-228 786.89,-228 786.89,-197.2 589.21,-197.2"/>
<text text-anchor="start" x="596.21" y="-209.4" font-family="Arial" font-size="14.00">dealPipelineId </text>
<text text-anchor="start" x="688.06" y="-209.4" font-family="Arial" font-size="14.00" fill="#666666">[uuid]</text>
<polygon fill="none" stroke="black" points="589.21,-166.4 589.21,-197.2 786.89,-197.2 786.89,-166.4 589.21,-166.4"/>
<text text-anchor="start" x="596.21" y="-178.6" font-family="Arial" font-size="14.00">description </text>
<text text-anchor="start" x="667.8" y="-178.6" font-family="Arial" font-size="14.00" fill="#666666">[string]</text>
<polygon fill="none" stroke="black" points="589.21,-135.6 589.21,-166.4 786.89,-166.4 786.89,-135.6 589.21,-135.6"/>
<text text-anchor="start" x="596.21" y="-147.8" font-family="Arial" font-size="14.00">label </text>
<text text-anchor="start" x="629.68" y="-147.8" font-family="Arial" font-size="14.00" fill="#666666">[string]</text>
<polygon fill="none" stroke="black" points="589.21,-104.8 589.21,-135.6 786.89,-135.6 786.89,-104.8 589.21,-104.8"/>
<text text-anchor="start" x="596.21" y="-117" font-family="Arial" font-size="14.00">type </text>
<text text-anchor="start" x="626.56" y="-117" font-family="Arial" font-size="14.00" fill="#666666">[string]</text>
<polygon fill="none" stroke="black" points="589.21,-74 589.21,-104.8 786.89,-104.8 786.89,-74 589.21,-74"/>
<text text-anchor="start" x="596.21" y="-86.2" font-family="Arial" font-size="14.00">closedWon </text>
<text text-anchor="start" x="669.35" y="-86.2" font-family="Arial" font-size="14.00" fill="#666666">[boolean]</text>
<polygon fill="none" stroke="black" points="589.21,-43.2 589.21,-74 786.89,-74 786.89,-43.2 589.21,-43.2"/>
<text text-anchor="start" x="596.21" y="-55.4" font-family="Arial" font-size="14.00">createdAt </text>
<text text-anchor="start" x="660.02" y="-55.4" font-family="Arial" font-size="14.00" fill="#666666">[datetime]</text>
</g>
<!-- Deal&#45;&gt;DealStage -->
<g id="edge4" class="edge">
<title>Deal:dealStageId&#45;&gt;DealStage:id</title>
<path fill="none" stroke="black" d="M630.92,-773.49C712.05,-764.72 652,-644.9 619.9,-558.4 612.59,-538.69 596.58,-542.09 589.21,-522.4 574.53,-483.19 546.34,-428.2 588.21,-428.2"/>
<polygon fill="black" stroke="black" points="631.22,-773.47 621,-769.49 625.89,-773.75 621.57,-773.97 621.57,-773.97 621.57,-773.97 625.89,-773.75 621.46,-778.48 631.22,-773.47"/>
<text text-anchor="start" x="627.9" y="-784" font-family="Arial" font-size="10.00">ForeignKey</text>
</g>
<!-- Company -->
<g id="node6" class="node">
<title>Company</title>
<polygon fill="#efefef" stroke="none" points="891.2,-366.6 891.2,-402.2 1084.91,-402.2 1084.91,-366.6 891.2,-366.6"/>
<polygon fill="none" stroke="black" points="891.2,-366.6 891.2,-402.2 1084.91,-402.2 1084.91,-366.6 891.2,-366.6"/>
<text text-anchor="start" x="898.2" y="-380" font-family="Arial Bold" font-size="18.00">Company</text>
<text text-anchor="start" x="968.19" y="-380" font-family="Arial" font-size="14.00">    </text>
<text text-anchor="start" x="999.31" y="-380" font-family="Arial" font-size="14.00" fill="#666666">[Base Table]</text>
<polygon fill="none" stroke="black" points="891.2,-335.8 891.2,-366.6 1084.91,-366.6 1084.91,-335.8 891.2,-335.8"/>
<text text-anchor="start" x="898.2" y="-348" font-family="Arial" font-size="14.00">id </text>
<text text-anchor="start" x="912.98" y="-348" font-family="Arial" font-size="14.00" fill="#666666">[uuid]</text>
<polygon fill="none" stroke="black" points="891.2,-305 891.2,-335.8 1084.91,-335.8 1084.91,-305 891.2,-305"/>
<text text-anchor="start" x="898.2" y="-317.2" font-family="Arial" font-size="14.00">name </text>
<text text-anchor="start" x="937.11" y="-317.2" font-family="Arial" font-size="14.00" fill="#666666">[string]</text>
<polygon fill="none" stroke="black" points="891.2,-274.2 891.2,-305 1084.91,-305 1084.91,-274.2 891.2,-274.2"/>
<text text-anchor="start" x="898.2" y="-286.4" font-family="Arial" font-size="14.00">isDeleted </text>
<text text-anchor="start" x="960.45" y="-286.4" font-family="Arial" font-size="14.00" fill="#666666">[boolean]</text>
<polygon fill="none" stroke="black" points="891.2,-243.4 891.2,-274.2 1084.91,-274.2 1084.91,-243.4 891.2,-243.4"/>
<text text-anchor="start" x="898.2" y="-255.6" font-family="Arial" font-size="14.00">url </text>
<text text-anchor="start" x="917.64" y="-255.6" font-family="Arial" font-size="14.00" fill="#666666">[string]</text>
<polygon fill="none" stroke="black" points="891.2,-212.6 891.2,-243.4 1084.91,-243.4 1084.91,-212.6 891.2,-212.6"/>
<text text-anchor="start" x="898.2" y="-224.8" font-family="Arial" font-size="14.00">linkedInUrl </text>
<text text-anchor="start" x="968.22" y="-224.8" font-family="Arial" font-size="14.00" fill="#666666">[string]</text>
<polygon fill="none" stroke="black" points="891.2,-181.8 891.2,-212.6 1084.91,-212.6 1084.91,-181.8 891.2,-181.8"/>
<text text-anchor="start" x="898.2" y="-194" font-family="Arial" font-size="14.00">logoUrl </text>
<text text-anchor="start" x="946.44" y="-194" font-family="Arial" font-size="14.00" fill="#666666">[string]</text>
<polygon fill="none" stroke="black" points="891.2,-151 891.2,-181.8 1084.91,-181.8 1084.91,-151 891.2,-151"/>
<text text-anchor="start" x="898.2" y="-163.2" font-family="Arial" font-size="14.00">createdAt </text>
<text text-anchor="start" x="962.01" y="-163.2" font-family="Arial" font-size="14.00" fill="#666666">[datetime]</text>
<polygon fill="none" stroke="black" points="891.2,-120.2 891.2,-151 1084.91,-151 1084.91,-120.2 891.2,-120.2"/>
<text text-anchor="start" x="898.2" y="-132.4" font-family="Arial" font-size="14.00">updatedAt </text>
<text text-anchor="start" x="965.92" y="-132.4" font-family="Arial" font-size="14.00" fill="#666666">[datetime]</text>
</g>
<!-- Deal&#45;&gt;Company -->
<g id="edge5" class="edge">
<title>Deal:companyId&#45;&gt;Company:id</title>
<path fill="none" stroke="black" d="M631.23,-650.68C735.7,-648.26 771.84,-608.19 839.05,-522.4 888.03,-459.89 810.78,-351.2 890.2,-351.2"/>
<polygon fill="black" stroke="black" points="631.23,-650.68 621.18,-646.3 625.9,-650.74 621.57,-650.79 621.57,-650.79 621.57,-650.79 625.9,-650.74 621.29,-655.3 631.23,-650.68"/>
<text text-anchor="start" x="627.9" y="-660.8" font-family="Arial" font-size="10.00">ForeignKey</text>
</g>
<!-- EngagementDeal -->
<g id="node2" class="node">
<title>EngagementDeal</title>
<polygon fill="#efefef" stroke="none" points="417.22,-1443.2 417.22,-1478.8 664.88,-1478.8 664.88,-1443.2 417.22,-1443.2"/>
<polygon fill="none" stroke="black" points="417.22,-1443.2 417.22,-1478.8 664.88,-1478.8 664.88,-1443.2 417.22,-1443.2"/>
<text text-anchor="start" x="424.22" y="-1456.6" font-family="Arial Bold" font-size="18.00">EngagementDeal</text>
<text text-anchor="start" x="548.17" y="-1456.6" font-family="Arial" font-size="14.00">    </text>
<text text-anchor="start" x="579.28" y="-1456.6" font-family="Arial" font-size="14.00" fill="#666666">[Base Table]</text>
<polygon fill="none" stroke="black" points="417.22,-1412.4 417.22,-1443.2 664.88,-1443.2 664.88,-1412.4 417.22,-1412.4"/>
<text text-anchor="start" x="424.22" y="-1424.6" font-family="Arial" font-size="14.00">id </text>
<text text-anchor="start" x="439.01" y="-1424.6" font-family="Arial" font-size="14.00" fill="#666666">[uuid]</text>
<polygon fill="none" stroke="black" points="417.22,-1381.6 417.22,-1412.4 664.88,-1412.4 664.88,-1381.6 417.22,-1381.6"/>
<text text-anchor="start" x="424.22" y="-1393.8" font-family="Arial" font-size="14.00">engagementId </text>
<text text-anchor="start" x="517.63" y="-1393.8" font-family="Arial" font-size="14.00" fill="#666666">[uuid]</text>
<polygon fill="none" stroke="black" points="417.22,-1350.8 417.22,-1381.6 664.88,-1381.6 664.88,-1350.8 417.22,-1350.8"/>
<text text-anchor="start" x="424.22" y="-1363" font-family="Arial" font-size="14.00">engagement </text>
<text text-anchor="start" x="505.95" y="-1363" font-family="Arial" font-size="14.00" fill="#666666">[Engagement]</text>
<polygon fill="none" stroke="black" points="417.22,-1320 417.22,-1350.8 664.88,-1350.8 664.88,-1320 417.22,-1320"/>
<text text-anchor="start" x="424.22" y="-1332.2" font-family="Arial" font-size="14.00">createdAt </text>
<text text-anchor="start" x="488.04" y="-1332.2" font-family="Arial" font-size="14.00" fill="#666666">[datetime]</text>
<polygon fill="none" stroke="black" points="417.22,-1289.2 417.22,-1320 664.88,-1320 664.88,-1289.2 417.22,-1289.2"/>
<text text-anchor="start" x="424.22" y="-1301.4" font-family="Arial" font-size="14.00">updatedAt </text>
<text text-anchor="start" x="491.95" y="-1301.4" font-family="Arial" font-size="14.00" fill="#666666">[datetime]</text>
<polygon fill="none" stroke="black" points="417.22,-1258.4 417.22,-1289.2 664.88,-1289.2 664.88,-1258.4 417.22,-1258.4"/>
<text text-anchor="start" x="424.22" y="-1270.6" font-family="Arial" font-size="14.00">dealId </text>
<text text-anchor="start" x="466.26" y="-1270.6" font-family="Arial" font-size="14.00" fill="#666666">[uuid]</text>
<polygon fill="none" stroke="black" points="417.22,-1227.6 417.22,-1258.4 664.88,-1258.4 664.88,-1227.6 417.22,-1227.6"/>
<text text-anchor="start" x="424.22" y="-1239.8" font-family="Arial" font-size="14.00">deal </text>
<text text-anchor="start" x="454.58" y="-1239.8" font-family="Arial" font-size="14.00" fill="#666666">[Deal]</text>
</g>
<!-- EngagementDeal&#45;&gt;Deal -->
<g id="edge1" class="edge">
<title>EngagementDeal:dealId&#45;&gt;Deal:id</title>
<path fill="none" stroke="black" d="M676.26,-1272.95C763.49,-1258 718.19,-1051.2 620.9,-1051.2"/>
<polygon fill="black" stroke="black" points="676.18,-1272.96 665.85,-1269.29 670.87,-1273.39 666.55,-1273.75 666.55,-1273.75 666.55,-1273.75 670.87,-1273.39 666.58,-1278.26 676.18,-1272.96"/>
<text text-anchor="start" x="672.88" y="-1283.8" font-family="Arial" font-size="10.00">ForeignKey</text>
</g>
</g>
</svg>
