<?xml version="1.0" encoding="UTF-8" standalone="no"?>
<!DOCTYPE svg PUBLIC "-//W3C//DTD SVG 1.1//EN"
 "http://www.w3.org/Graphics/SVG/1.1/DTD/svg11.dtd">
<!-- Generated by graphviz version 12.1.2 (20240928.0832)
 -->
<!-- Title: Deal Pages: 1 -->
<svg width="1212pt" height="1530pt"
 viewBox="0.00 0.00 1211.74 1530.00" xmlns="http://www.w3.org/2000/svg" xmlns:xlink="http://www.w3.org/1999/xlink">
<g id="graph0" class="graph" transform="scale(1 1) rotate(0) translate(4 1526)">
<title>Deal</title>
<polygon fill="white" stroke="none" points="-4,4 -4,-1526 1207.74,-1526 1207.74,4 -4,4"/>
<!-- Deal -->
<g id="node1" class="node">
<title>Deal</title>
<polygon fill="#efefef" stroke="none" points="537.2,-1066.6 537.2,-1102.2 713.54,-1102.2 713.54,-1066.6 537.2,-1066.6"/>
<polygon fill="none" stroke="black" points="537.2,-1066.6 537.2,-1102.2 713.54,-1102.2 713.54,-1066.6 537.2,-1066.6"/>
<text text-anchor="start" x="544.2" y="-1080" font-family="Arial Bold" font-size="18.00">Deal</text>
<text text-anchor="start" x="578.17" y="-1080" font-family="Arial" font-size="14.00">    </text>
<text text-anchor="start" x="609.29" y="-1080" font-family="Arial" font-size="14.00" fill="#666666">[TailorDB.Type]</text>
<polygon fill="none" stroke="black" points="537.2,-1035.8 537.2,-1066.6 713.54,-1066.6 713.54,-1035.8 537.2,-1035.8"/>
<text text-anchor="start" x="544.2" y="-1048" font-family="Arial" font-size="14.00">id </text>
<text text-anchor="start" x="558.98" y="-1048" font-family="Arial" font-size="14.00" fill="#666666">[uuid]</text>
<polygon fill="none" stroke="black" points="537.2,-1005 537.2,-1035.8 713.54,-1035.8 713.54,-1005 537.2,-1005"/>
<text text-anchor="start" x="544.2" y="-1017.2" font-family="Arial" font-size="14.00">value </text>
<text text-anchor="start" x="581.55" y="-1017.2" font-family="Arial" font-size="14.00" fill="#666666">[float]</text>
<polygon fill="none" stroke="black" points="537.2,-974.2 537.2,-1005 713.54,-1005 713.54,-974.2 537.2,-974.2"/>
<text text-anchor="start" x="544.2" y="-986.4" font-family="Arial" font-size="14.00">dealStageId </text>
<text text-anchor="start" x="622.82" y="-986.4" font-family="Arial" font-size="14.00" fill="#666666">[uuid]</text>
<polygon fill="none" stroke="black" points="537.2,-943.4 537.2,-974.2 713.54,-974.2 713.54,-943.4 537.2,-943.4"/>
<text text-anchor="start" x="544.2" y="-955.6" font-family="Arial" font-size="14.00">companyId </text>
<text text-anchor="start" x="616.57" y="-955.6" font-family="Arial" font-size="14.00" fill="#666666">[uuid]</text>
<polygon fill="none" stroke="black" points="537.2,-912.6 537.2,-943.4 713.54,-943.4 713.54,-912.6 537.2,-912.6"/>
<text text-anchor="start" x="544.2" y="-924.8" font-family="Arial" font-size="14.00">contactId </text>
<text text-anchor="start" x="604.9" y="-924.8" font-family="Arial" font-size="14.00" fill="#666666">[uuid]</text>
<polygon fill="none" stroke="black" points="537.2,-881.8 537.2,-912.6 713.54,-912.6 713.54,-881.8 537.2,-881.8"/>
<text text-anchor="start" x="544.2" y="-894" font-family="Arial" font-size="14.00">contact </text>
<text text-anchor="start" x="593.22" y="-894" font-family="Arial" font-size="14.00" fill="#666666">[Contact]</text>
<polygon fill="none" stroke="black" points="537.2,-851 537.2,-881.8 713.54,-881.8 713.54,-851 537.2,-851"/>
<text text-anchor="start" x="544.2" y="-863.2" font-family="Arial" font-size="14.00">probability </text>
<text text-anchor="start" x="611.9" y="-863.2" font-family="Arial" font-size="14.00" fill="#666666">[float]</text>
<polygon fill="none" stroke="black" points="537.2,-820.2 537.2,-851 713.54,-851 713.54,-820.2 537.2,-820.2"/>
<text text-anchor="start" x="544.2" y="-832.4" font-family="Arial" font-size="14.00">isDeleted </text>
<text text-anchor="start" x="606.45" y="-832.4" font-family="Arial" font-size="14.00" fill="#666666">[boolean]</text>
<polygon fill="none" stroke="black" points="537.2,-789.4 537.2,-820.2 713.54,-820.2 713.54,-789.4 537.2,-789.4"/>
<text text-anchor="start" x="544.2" y="-801.6" font-family="Arial" font-size="14.00">dealStage </text>
<text text-anchor="start" x="611.14" y="-801.6" font-family="Arial" font-size="14.00" fill="#666666">[DealStage]</text>
<polygon fill="none" stroke="black" points="537.2,-758.6 537.2,-789.4 713.54,-789.4 713.54,-758.6 537.2,-758.6"/>
<text text-anchor="start" x="544.2" y="-770.8" font-family="Arial" font-size="14.00">userId </text>
<text text-anchor="start" x="586.99" y="-770.8" font-family="Arial" font-size="14.00" fill="#666666">[uuid]</text>
<polygon fill="none" stroke="black" points="537.2,-727.8 537.2,-758.6 713.54,-758.6 713.54,-727.8 537.2,-727.8"/>
<text text-anchor="start" x="544.2" y="-740" font-family="Arial" font-size="14.00">user </text>
<text text-anchor="start" x="575.32" y="-740" font-family="Arial" font-size="14.00" fill="#666666">[User]</text>
<polygon fill="none" stroke="black" points="537.2,-697 537.2,-727.8 713.54,-727.8 713.54,-697 537.2,-697"/>
<text text-anchor="start" x="544.2" y="-709.2" font-family="Arial" font-size="14.00">createdAt </text>
<text text-anchor="start" x="608.01" y="-709.2" font-family="Arial" font-size="14.00" fill="#666666">[datetime]</text>
<polygon fill="none" stroke="black" points="537.2,-666.2 537.2,-697 713.54,-697 713.54,-666.2 537.2,-666.2"/>
<text text-anchor="start" x="544.2" y="-678.4" font-family="Arial" font-size="14.00">updatedAt </text>
<text text-anchor="start" x="611.92" y="-678.4" font-family="Arial" font-size="14.00" fill="#666666">[datetime]</text>
<polygon fill="none" stroke="black" points="537.2,-635.4 537.2,-666.2 713.54,-666.2 713.54,-635.4 537.2,-635.4"/>
<text text-anchor="start" x="544.2" y="-647.6" font-family="Arial" font-size="14.00">amount </text>
<text text-anchor="start" x="594.78" y="-647.6" font-family="Arial" font-size="14.00" fill="#666666">[float]</text>
<polygon fill="none" stroke="black" points="537.2,-604.6 537.2,-635.4 713.54,-635.4 713.54,-604.6 537.2,-604.6"/>
<text text-anchor="start" x="544.2" y="-616.8" font-family="Arial" font-size="14.00">company </text>
<text text-anchor="start" x="604.89" y="-616.8" font-family="Arial" font-size="14.00" fill="#666666">[Company]</text>
<polygon fill="none" stroke="black" stroke-width="3" points="535.7,-603.1 535.7,-1103.7 715.04,-1103.7 715.04,-603.1 535.7,-603.1"/>
</g>
<!-- DealStage -->
<g id="node3" class="node">
<title>DealStage</title>
<polygon fill="#efefef" stroke="none" points="43.2,-443.6 43.2,-479.2 259.53,-479.2 259.53,-443.6 43.2,-443.6"/>
<polygon fill="none" stroke="black" points="43.2,-443.6 43.2,-479.2 259.53,-479.2 259.53,-443.6 43.2,-443.6"/>
<text text-anchor="start" x="50.2" y="-457" font-family="Arial Bold" font-size="18.00">DealStage</text>
<text text-anchor="start" x="124.17" y="-457" font-family="Arial" font-size="14.00">    </text>
<text text-anchor="start" x="155.29" y="-457" font-family="Arial" font-size="14.00" fill="#666666">[TailorDB.Type]</text>
<polygon fill="none" stroke="black" points="43.2,-412.8 43.2,-443.6 259.53,-443.6 259.53,-412.8 43.2,-412.8"/>
<text text-anchor="start" x="50.2" y="-425" font-family="Arial" font-size="14.00">id </text>
<text text-anchor="start" x="64.99" y="-425" font-family="Arial" font-size="14.00" fill="#666666">[uuid]</text>
<polygon fill="none" stroke="black" points="43.2,-382 43.2,-412.8 259.53,-412.8 259.53,-382 43.2,-382"/>
<text text-anchor="start" x="50.2" y="-394.2" font-family="Arial" font-size="14.00">dealPipelineId </text>
<text text-anchor="start" x="142.05" y="-394.2" font-family="Arial" font-size="14.00" fill="#666666">[uuid]</text>
<polygon fill="none" stroke="black" points="43.2,-351.2 43.2,-382 259.53,-382 259.53,-351.2 43.2,-351.2"/>
<text text-anchor="start" x="50.2" y="-363.4" font-family="Arial" font-size="14.00">displayOrder </text>
<text text-anchor="start" x="133.45" y="-363.4" font-family="Arial" font-size="14.00" fill="#666666">[integer]</text>
<polygon fill="none" stroke="black" points="43.2,-320.4 43.2,-351.2 259.53,-351.2 259.53,-320.4 43.2,-320.4"/>
<text text-anchor="start" x="50.2" y="-332.6" font-family="Arial" font-size="14.00">type </text>
<text text-anchor="start" x="80.55" y="-332.6" font-family="Arial" font-size="14.00" fill="#666666">[string]</text>
<polygon fill="none" stroke="black" points="43.2,-289.6 43.2,-320.4 259.53,-320.4 259.53,-289.6 43.2,-289.6"/>
<text text-anchor="start" x="50.2" y="-301.8" font-family="Arial" font-size="14.00">closedLost </text>
<text text-anchor="start" x="121.02" y="-301.8" font-family="Arial" font-size="14.00" fill="#666666">[boolean]</text>
<polygon fill="none" stroke="black" points="43.2,-258.8 43.2,-289.6 259.53,-289.6 259.53,-258.8 43.2,-258.8"/>
<text text-anchor="start" x="50.2" y="-271" font-family="Arial" font-size="14.00">createdAt </text>
<text text-anchor="start" x="114.01" y="-271" font-family="Arial" font-size="14.00" fill="#666666">[datetime]</text>
<polygon fill="none" stroke="black" points="43.2,-228 43.2,-258.8 259.53,-258.8 259.53,-228 43.2,-228"/>
<text text-anchor="start" x="50.2" y="-240.2" font-family="Arial" font-size="14.00">updatedAt </text>
<text text-anchor="start" x="117.92" y="-240.2" font-family="Arial" font-size="14.00" fill="#666666">[datetime]</text>
<polygon fill="none" stroke="black" points="43.2,-197.2 43.2,-228 259.53,-228 259.53,-197.2 43.2,-197.2"/>
<text text-anchor="start" x="50.2" y="-209.4" font-family="Arial" font-size="14.00">dealPipeline </text>
<text text-anchor="start" x="130.37" y="-209.4" font-family="Arial" font-size="14.00" fill="#666666">[DealPipeline]</text>
<polygon fill="none" stroke="black" points="43.2,-166.4 43.2,-197.2 259.53,-197.2 259.53,-166.4 43.2,-166.4"/>
<text text-anchor="start" x="50.2" y="-178.6" font-family="Arial" font-size="14.00">description </text>
<text text-anchor="start" x="121.79" y="-178.6" font-family="Arial" font-size="14.00" fill="#666666">[string]</text>
<polygon fill="none" stroke="black" points="43.2,-135.6 43.2,-166.4 259.53,-166.4 259.53,-135.6 43.2,-135.6"/>
<text text-anchor="start" x="50.2" y="-147.8" font-family="Arial" font-size="14.00">label </text>
<text text-anchor="start" x="83.67" y="-147.8" font-family="Arial" font-size="14.00" fill="#666666">[string]</text>
<polygon fill="none" stroke="black" points="43.2,-104.8 43.2,-135.6 259.53,-135.6 259.53,-104.8 43.2,-104.8"/>
<text text-anchor="start" x="50.2" y="-117" font-family="Arial" font-size="14.00">name </text>
<text text-anchor="start" x="89.11" y="-117" font-family="Arial" font-size="14.00" fill="#666666">[string]</text>
<polygon fill="none" stroke="black" points="43.2,-74 43.2,-104.8 259.53,-104.8 259.53,-74 43.2,-74"/>
<text text-anchor="start" x="50.2" y="-86.2" font-family="Arial" font-size="14.00">probability </text>
<text text-anchor="start" x="117.9" y="-86.2" font-family="Arial" font-size="14.00" fill="#666666">[float]</text>
<polygon fill="none" stroke="black" points="43.2,-43.2 43.2,-74 259.53,-74 259.53,-43.2 43.2,-43.2"/>
<text text-anchor="start" x="50.2" y="-55.4" font-family="Arial" font-size="14.00">closedWon </text>
<text text-anchor="start" x="123.34" y="-55.4" font-family="Arial" font-size="14.00" fill="#666666">[boolean]</text>
</g>
<!-- Deal&#45;&gt;DealStage -->
<g id="edge2" class="edge">
<title>Deal:dealStageId&#45;&gt;DealStage:id</title>
<path fill="none" stroke="black" d="M529.64,-982.09C486.93,-915.47 276.72,-428.2 260.53,-428.2"/>
<polygon fill="black" stroke="black" points="529.4,-981.81 532.58,-992.31 532.91,-985.83 535.76,-989.1 535.76,-989.1 535.76,-989.1 532.91,-985.83 539.37,-986.39 529.4,-981.81"/>
<text text-anchor="start" x="403.57" y="-999.6" font-family="Arial" font-size="10.00">ForeignKeyType: DealStage</text>
</g>
<!-- Company -->
<g id="node4" class="node">
<title>Company</title>
<polygon fill="#efefef" stroke="none" points="364.19,-366.6 364.19,-402.2 576.55,-402.2 576.55,-366.6 364.19,-366.6"/>
<polygon fill="none" stroke="black" points="364.19,-366.6 364.19,-402.2 576.55,-402.2 576.55,-366.6 364.19,-366.6"/>
<text text-anchor="start" x="371.19" y="-380" font-family="Arial Bold" font-size="18.00">Company</text>
<text text-anchor="start" x="441.18" y="-380" font-family="Arial" font-size="14.00">    </text>
<text text-anchor="start" x="472.3" y="-380" font-family="Arial" font-size="14.00" fill="#666666">[TailorDB.Type]</text>
<polygon fill="none" stroke="black" points="364.19,-335.8 364.19,-366.6 576.55,-366.6 576.55,-335.8 364.19,-335.8"/>
<text text-anchor="start" x="371.19" y="-348" font-family="Arial" font-size="14.00">id </text>
<text text-anchor="start" x="385.97" y="-348" font-family="Arial" font-size="14.00" fill="#666666">[uuid]</text>
<polygon fill="none" stroke="black" points="364.19,-305 364.19,-335.8 576.55,-335.8 576.55,-305 364.19,-305"/>
<text text-anchor="start" x="371.19" y="-317.2" font-family="Arial" font-size="14.00">name </text>
<text text-anchor="start" x="410.1" y="-317.2" font-family="Arial" font-size="14.00" fill="#666666">[string]</text>
<polygon fill="none" stroke="black" points="364.19,-274.2 364.19,-305 576.55,-305 576.55,-274.2 364.19,-274.2"/>
<text text-anchor="start" x="371.19" y="-286.4" font-family="Arial" font-size="14.00">isDeleted </text>
<text text-anchor="start" x="433.44" y="-286.4" font-family="Arial" font-size="14.00" fill="#666666">[boolean]</text>
<polygon fill="none" stroke="black" points="364.19,-243.4 364.19,-274.2 576.55,-274.2 576.55,-243.4 364.19,-243.4"/>
<text text-anchor="start" x="371.19" y="-255.6" font-family="Arial" font-size="14.00">url </text>
<text text-anchor="start" x="390.63" y="-255.6" font-family="Arial" font-size="14.00" fill="#666666">[string]</text>
<polygon fill="none" stroke="black" points="364.19,-212.6 364.19,-243.4 576.55,-243.4 576.55,-212.6 364.19,-212.6"/>
<text text-anchor="start" x="371.19" y="-224.8" font-family="Arial" font-size="14.00">linkedInUrl </text>
<text text-anchor="start" x="441.21" y="-224.8" font-family="Arial" font-size="14.00" fill="#666666">[string]</text>
<polygon fill="none" stroke="black" points="364.19,-181.8 364.19,-212.6 576.55,-212.6 576.55,-181.8 364.19,-181.8"/>
<text text-anchor="start" x="371.19" y="-194" font-family="Arial" font-size="14.00">logoUrl </text>
<text text-anchor="start" x="419.43" y="-194" font-family="Arial" font-size="14.00" fill="#666666">[string]</text>
<polygon fill="none" stroke="black" points="364.19,-151 364.19,-181.8 576.55,-181.8 576.55,-151 364.19,-151"/>
<text text-anchor="start" x="371.19" y="-163.2" font-family="Arial" font-size="14.00">createdAt </text>
<text text-anchor="start" x="435" y="-163.2" font-family="Arial" font-size="14.00" fill="#666666">[datetime]</text>
<polygon fill="none" stroke="black" points="364.19,-120.2 364.19,-151 576.55,-151 576.55,-120.2 364.19,-120.2"/>
<text text-anchor="start" x="371.19" y="-132.4" font-family="Arial" font-size="14.00">updatedAt </text>
<text text-anchor="start" x="438.91" y="-132.4" font-family="Arial" font-size="14.00" fill="#666666">[datetime]</text>
</g>
<!-- Deal&#45;&gt;Company -->
<g id="edge3" class="edge">
<title>Deal:companyId&#45;&gt;Company:id</title>
<path fill="none" stroke="black" d="M526.14,-958.54C364.02,-950.03 507.88,-730.4 537.2,-558.4 546.13,-505.98 567.4,-497.79 576.55,-445.4 583.75,-404.15 619.42,-351.2 577.55,-351.2"/>
<polygon fill="black" stroke="black" points="525.86,-958.54 535.75,-963.29 531.2,-958.67 535.53,-958.78 535.53,-958.78 535.53,-958.78 531.2,-958.67 535.98,-954.29 525.86,-958.54"/>
<text text-anchor="start" x="407.47" y="-968.8" font-family="Arial" font-size="10.00">ForeignKeyType: Company</text>
</g>
<!-- Contact -->
<g id="node5" class="node">
<title>Contact</title>
<polygon fill="#efefef" stroke="none" points="681.19,-412.8 681.19,-448.4 879.54,-448.4 879.54,-412.8 681.19,-412.8"/>
<polygon fill="none" stroke="black" points="681.19,-412.8 681.19,-448.4 879.54,-448.4 879.54,-412.8 681.19,-412.8"/>
<text text-anchor="start" x="688.19" y="-426.2" font-family="Arial Bold" font-size="18.00">Contact</text>
<text text-anchor="start" x="744.18" y="-426.2" font-family="Arial" font-size="14.00">    </text>
<text text-anchor="start" x="775.29" y="-426.2" font-family="Arial" font-size="14.00" fill="#666666">[TailorDB.Type]</text>
<polygon fill="none" stroke="black" points="681.19,-382 681.19,-412.8 879.54,-412.8 879.54,-382 681.19,-382"/>
<text text-anchor="start" x="688.19" y="-394.2" font-family="Arial" font-size="14.00">id </text>
<text text-anchor="start" x="702.98" y="-394.2" font-family="Arial" font-size="14.00" fill="#666666">[uuid]</text>
<polygon fill="none" stroke="black" points="681.19,-351.2 681.19,-382 879.54,-382 879.54,-351.2 681.19,-351.2"/>
<text text-anchor="start" x="688.19" y="-363.4" font-family="Arial" font-size="14.00">createdAt </text>
<text text-anchor="start" x="752" y="-363.4" font-family="Arial" font-size="14.00" fill="#666666">[datetime]</text>
<polygon fill="none" stroke="black" points="681.19,-320.4 681.19,-351.2 879.54,-351.2 879.54,-320.4 681.19,-320.4"/>
<text text-anchor="start" x="688.19" y="-332.6" font-family="Arial" font-size="14.00">updatedAt </text>
<text text-anchor="start" x="755.91" y="-332.6" font-family="Arial" font-size="14.00" fill="#666666">[datetime]</text>
<polygon fill="none" stroke="black" points="681.19,-289.6 681.19,-320.4 879.54,-320.4 879.54,-289.6 681.19,-289.6"/>
<text text-anchor="start" x="688.19" y="-301.8" font-family="Arial" font-size="14.00">isDeleted </text>
<text text-anchor="start" x="750.45" y="-301.8" font-family="Arial" font-size="14.00" fill="#666666">[boolean]</text>
<polygon fill="none" stroke="black" points="681.19,-258.8 681.19,-289.6 879.54,-289.6 879.54,-258.8 681.19,-258.8"/>
<text text-anchor="start" x="688.19" y="-271" font-family="Arial" font-size="14.00">lastName </text>
<text text-anchor="start" x="751.21" y="-271" font-family="Arial" font-size="14.00" fill="#666666">[string]</text>
<polygon fill="none" stroke="black" points="681.19,-228 681.19,-258.8 879.54,-258.8 879.54,-228 681.19,-228"/>
<text text-anchor="start" x="688.19" y="-240.2" font-family="Arial" font-size="14.00">phonePrimary </text>
<text text-anchor="start" x="779.23" y="-240.2" font-family="Arial" font-size="14.00" fill="#666666">[string]</text>
<polygon fill="none" stroke="black" points="681.19,-197.2 681.19,-228 879.54,-228 879.54,-197.2 681.19,-197.2"/>
<text text-anchor="start" x="688.19" y="-209.4" font-family="Arial" font-size="14.00">linkedInUrl </text>
<text text-anchor="start" x="758.22" y="-209.4" font-family="Arial" font-size="14.00" fill="#666666">[string]</text>
<polygon fill="none" stroke="black" points="681.19,-166.4 681.19,-197.2 879.54,-197.2 879.54,-166.4 681.19,-166.4"/>
<text text-anchor="start" x="688.19" y="-178.6" font-family="Arial" font-size="14.00">company </text>
<text text-anchor="start" x="748.89" y="-178.6" font-family="Arial" font-size="14.00" fill="#666666">[Company]</text>
<polygon fill="none" stroke="black" points="681.19,-135.6 681.19,-166.4 879.54,-166.4 879.54,-135.6 681.19,-135.6"/>
<text text-anchor="start" x="688.19" y="-147.8" font-family="Arial" font-size="14.00">firstName </text>
<text text-anchor="start" x="751.98" y="-147.8" font-family="Arial" font-size="14.00" fill="#666666">[string]</text>
<polygon fill="none" stroke="black" points="681.19,-104.8 681.19,-135.6 879.54,-135.6 879.54,-104.8 681.19,-104.8"/>
<text text-anchor="start" x="688.19" y="-117" font-family="Arial" font-size="14.00">email </text>
<text text-anchor="start" x="725.54" y="-117" font-family="Arial" font-size="14.00" fill="#666666">[string]</text>
<polygon fill="none" stroke="black" points="681.19,-74 681.19,-104.8 879.54,-104.8 879.54,-74 681.19,-74"/>
<text text-anchor="start" x="688.19" y="-86.2" font-family="Arial" font-size="14.00">companyId </text>
<text text-anchor="start" x="760.56" y="-86.2" font-family="Arial" font-size="14.00" fill="#666666">[uuid]</text>
</g>
<!-- Deal&#45;&gt;Contact -->
<g id="edge4" class="edge">
<title>Deal:contactId&#45;&gt;Contact:id</title>
<path fill="none" stroke="black" d="M724.73,-927.71C873.33,-919.02 749.69,-715.02 713.54,-558.4 706.12,-526.26 688.74,-523.71 681.19,-491.6 671.61,-450.84 638.32,-397.4 680.19,-397.4"/>
<polygon fill="black" stroke="black" points="724.87,-927.71 714.75,-923.49 719.54,-927.86 715.21,-927.98 715.21,-927.98 715.21,-927.98 719.54,-927.86 715,-932.49 724.87,-927.71"/>
<text text-anchor="start" x="721.54" y="-938" font-family="Arial" font-size="10.00">ForeignKeyType: Contact</text>
</g>
<!-- User -->
<g id="node6" class="node">
<title>User</title>
<polygon fill="#efefef" stroke="none" points="984.19,-335.8 984.19,-371.4 1160.54,-371.4 1160.54,-335.8 984.19,-335.8"/>
<polygon fill="none" stroke="black" points="984.19,-335.8 984.19,-371.4 1160.54,-371.4 1160.54,-335.8 984.19,-335.8"/>
<text text-anchor="start" x="991.19" y="-349.2" font-family="Arial Bold" font-size="18.00">User</text>
<text text-anchor="start" x="1025.18" y="-349.2" font-family="Arial" font-size="14.00">    </text>
<text text-anchor="start" x="1056.3" y="-349.2" font-family="Arial" font-size="14.00" fill="#666666">[TailorDB.Type]</text>
<polygon fill="none" stroke="black" points="984.19,-305 984.19,-335.8 1160.54,-335.8 1160.54,-305 984.19,-305"/>
<text text-anchor="start" x="991.19" y="-317.2" font-family="Arial" font-size="14.00">id </text>
<text text-anchor="start" x="1005.98" y="-317.2" font-family="Arial" font-size="14.00" fill="#666666">[uuid]</text>
<polygon fill="none" stroke="black" points="984.19,-274.2 984.19,-305 1160.54,-305 1160.54,-274.2 984.19,-274.2"/>
<text text-anchor="start" x="991.19" y="-286.4" font-family="Arial" font-size="14.00">email </text>
<text text-anchor="start" x="1028.54" y="-286.4" font-family="Arial" font-size="14.00" fill="#666666">[string]</text>
<polygon fill="none" stroke="black" points="984.19,-243.4 984.19,-274.2 1160.54,-274.2 1160.54,-243.4 984.19,-243.4"/>
<text text-anchor="start" x="991.19" y="-255.6" font-family="Arial" font-size="14.00">roles </text>
<text text-anchor="start" x="1025.43" y="-255.6" font-family="Arial" font-size="14.00" fill="#666666">[uuid]</text>
<polygon fill="none" stroke="black" points="984.19,-212.6 984.19,-243.4 1160.54,-243.4 1160.54,-212.6 984.19,-212.6"/>
<text text-anchor="start" x="991.19" y="-224.8" font-family="Arial" font-size="14.00">createdAt </text>
<text text-anchor="start" x="1055" y="-224.8" font-family="Arial" font-size="14.00" fill="#666666">[datetime]</text>
<polygon fill="none" stroke="black" points="984.19,-181.8 984.19,-212.6 1160.54,-212.6 1160.54,-181.8 984.19,-181.8"/>
<text text-anchor="start" x="991.19" y="-194" font-family="Arial" font-size="14.00">updatedAt </text>
<text text-anchor="start" x="1058.91" y="-194" font-family="Arial" font-size="14.00" fill="#666666">[datetime]</text>
<polygon fill="none" stroke="black" points="984.19,-151 984.19,-181.8 1160.54,-181.8 1160.54,-151 984.19,-151"/>
<text text-anchor="start" x="991.19" y="-163.2" font-family="Arial" font-size="14.00">name </text>
<text text-anchor="start" x="1030.1" y="-163.2" font-family="Arial" font-size="14.00" fill="#666666">[string]</text>
</g>
<!-- Deal&#45;&gt;User -->
<g id="edge5" class="edge">
<title>Deal:userId&#45;&gt;User:id</title>
<path fill="none" stroke="black" d="M724.68,-773.8C862.24,-768.33 864.64,-650.19 931.37,-522.4 974.27,-440.24 890.51,-320.4 983.19,-320.4"/>
<polygon fill="black" stroke="black" points="724.87,-773.8 714.79,-769.49 719.54,-773.9 715.21,-773.99 715.21,-773.99 715.21,-773.99 719.54,-773.9 714.96,-778.49 724.87,-773.8"/>
<text text-anchor="start" x="721.54" y="-784" font-family="Arial" font-size="10.00">ForeignKeyType: User</text>
</g>
<!-- EngagementDeal -->
<g id="node2" class="node">
<title>EngagementDeal</title>
<polygon fill="#efefef" stroke="none" points="492.21,-1443.2 492.21,-1478.8 758.52,-1478.8 758.52,-1443.2 492.21,-1443.2"/>
<polygon fill="none" stroke="black" points="492.21,-1443.2 492.21,-1478.8 758.52,-1478.8 758.52,-1443.2 492.21,-1443.2"/>
<text text-anchor="start" x="499.21" y="-1456.6" font-family="Arial Bold" font-size="18.00">EngagementDeal</text>
<text text-anchor="start" x="623.16" y="-1456.6" font-family="Arial" font-size="14.00">    </text>
<text text-anchor="start" x="654.27" y="-1456.6" font-family="Arial" font-size="14.00" fill="#666666">[TailorDB.Type]</text>
<polygon fill="none" stroke="black" points="492.21,-1412.4 492.21,-1443.2 758.52,-1443.2 758.52,-1412.4 492.21,-1412.4"/>
<text text-anchor="start" x="499.21" y="-1424.6" font-family="Arial" font-size="14.00">id </text>
<text text-anchor="start" x="514" y="-1424.6" font-family="Arial" font-size="14.00" fill="#666666">[uuid]</text>
<polygon fill="none" stroke="black" points="492.21,-1381.6 492.21,-1412.4 758.52,-1412.4 758.52,-1381.6 492.21,-1381.6"/>
<text text-anchor="start" x="499.21" y="-1393.8" font-family="Arial" font-size="14.00">dealId </text>
<text text-anchor="start" x="541.25" y="-1393.8" font-family="Arial" font-size="14.00" fill="#666666">[uuid]</text>
<polygon fill="none" stroke="black" points="492.21,-1350.8 492.21,-1381.6 758.52,-1381.6 758.52,-1350.8 492.21,-1350.8"/>
<text text-anchor="start" x="499.21" y="-1363" font-family="Arial" font-size="14.00">deal </text>
<text text-anchor="start" x="529.57" y="-1363" font-family="Arial" font-size="14.00" fill="#666666">[Deal]</text>
<polygon fill="none" stroke="black" points="492.21,-1320 492.21,-1350.8 758.52,-1350.8 758.52,-1320 492.21,-1320"/>
<text text-anchor="start" x="499.21" y="-1332.2" font-family="Arial" font-size="14.00">engagementId </text>
<text text-anchor="start" x="592.62" y="-1332.2" font-family="Arial" font-size="14.00" fill="#666666">[uuid]</text>
<polygon fill="none" stroke="black" points="492.21,-1289.2 492.21,-1320 758.52,-1320 758.52,-1289.2 492.21,-1289.2"/>
<text text-anchor="start" x="499.21" y="-1301.4" font-family="Arial" font-size="14.00">engagement </text>
<text text-anchor="start" x="580.94" y="-1301.4" font-family="Arial" font-size="14.00" fill="#666666">[Engagement]</text>
<polygon fill="none" stroke="black" points="492.21,-1258.4 492.21,-1289.2 758.52,-1289.2 758.52,-1258.4 492.21,-1258.4"/>
<text text-anchor="start" x="499.21" y="-1270.6" font-family="Arial" font-size="14.00">createdAt </text>
<text text-anchor="start" x="563.03" y="-1270.6" font-family="Arial" font-size="14.00" fill="#666666">[datetime]</text>
<polygon fill="none" stroke="black" points="492.21,-1227.6 492.21,-1258.4 758.52,-1258.4 758.52,-1227.6 492.21,-1227.6"/>
<text text-anchor="start" x="499.21" y="-1239.8" font-family="Arial" font-size="14.00">updatedAt </text>
<text text-anchor="start" x="566.94" y="-1239.8" font-family="Arial" font-size="14.00" fill="#666666">[datetime]</text>
</g>
<!-- EngagementDeal&#45;&gt;Deal -->
<g id="edge1" class="edge">
<title>EngagementDeal:dealId&#45;&gt;Deal:id</title>
<path fill="none" stroke="black" d="M769.66,-1396.48C912.43,-1381.64 866.04,-1051.2 714.54,-1051.2"/>
<polygon fill="black" stroke="black" points="769.84,-1396.48 759.63,-1392.49 764.51,-1396.75 760.19,-1396.97 760.19,-1396.97 760.19,-1396.97 764.51,-1396.75 760.08,-1401.48 769.84,-1396.48"/>
<text text-anchor="start" x="766.52" y="-1407" font-family="Arial" font-size="10.00">ForeignKeyType: Deal</text>
</g>
</g>
</svg>
