<?xml version="1.0" encoding="UTF-8" standalone="no"?>
<!DOCTYPE svg PUBLIC "-//W3C//DTD SVG 1.1//EN"
 "http://www.w3.org/Graphics/SVG/1.1/DTD/svg11.dtd">
<!-- Generated by graphviz version 12.1.2 (20240928.0832)
 -->
<!-- Title: DealPipeline Pages: 1 -->
<svg width="430pt" height="848pt"
 viewBox="0.00 0.00 430.11 848.40" xmlns="http://www.w3.org/2000/svg" xmlns:xlink="http://www.w3.org/1999/xlink">
<g id="graph0" class="graph" transform="scale(1 1) rotate(0) translate(4 844.4)">
<title>DealPipeline</title>
<polygon fill="white" stroke="none" points="-4,4 -4,-844.4 426.11,-844.4 426.11,4 -4,4"/>
<!-- DealPipeline -->
<g id="node1" class="node">
<title>DealPipeline</title>
<polygon fill="#efefef" stroke="none" points="46.2,-200.2 46.2,-235.8 281.54,-235.8 281.54,-200.2 46.2,-200.2"/>
<polygon fill="none" stroke="black" points="46.2,-200.2 46.2,-235.8 281.54,-235.8 281.54,-200.2 46.2,-200.2"/>
<text text-anchor="start" x="53.2" y="-213.6" font-family="Arial Bold" font-size="18.00">DealPipeline</text>
<text text-anchor="start" x="146.17" y="-213.6" font-family="Arial" font-size="14.00">    </text>
<text text-anchor="start" x="177.29" y="-213.6" font-family="Arial" font-size="14.00" fill="#666666">[TailorDB.Type]</text>
<polygon fill="none" stroke="black" points="46.2,-169.4 46.2,-200.2 281.54,-200.2 281.54,-169.4 46.2,-169.4"/>
<text text-anchor="start" x="53.2" y="-181.6" font-family="Arial" font-size="14.00">id </text>
<text text-anchor="start" x="67.99" y="-181.6" font-family="Arial" font-size="14.00" fill="#666666">[uuid]</text>
<polygon fill="none" stroke="black" points="46.2,-138.6 46.2,-169.4 281.54,-169.4 281.54,-138.6 46.2,-138.6"/>
<text text-anchor="start" x="53.2" y="-150.8" font-family="Arial" font-size="14.00">label </text>
<text text-anchor="start" x="86.67" y="-150.8" font-family="Arial" font-size="14.00" fill="#666666">[string]</text>
<polygon fill="none" stroke="black" points="46.2,-107.8 46.2,-138.6 281.54,-138.6 281.54,-107.8 46.2,-107.8"/>
<text text-anchor="start" x="53.2" y="-120" font-family="Arial" font-size="14.00">createdAt </text>
<text text-anchor="start" x="117.01" y="-120" font-family="Arial" font-size="14.00" fill="#666666">[datetime]</text>
<polygon fill="none" stroke="black" points="46.2,-77 46.2,-107.8 281.54,-107.8 281.54,-77 46.2,-77"/>
<text text-anchor="start" x="53.2" y="-89.2" font-family="Arial" font-size="14.00">updatedAt </text>
<text text-anchor="start" x="120.92" y="-89.2" font-family="Arial" font-size="14.00" fill="#666666">[datetime]</text>
<polygon fill="none" stroke="black" points="46.2,-46.2 46.2,-77 281.54,-77 281.54,-46.2 46.2,-46.2"/>
<text text-anchor="start" x="53.2" y="-58.4" font-family="Arial" font-size="14.00">displayOrder </text>
<text text-anchor="start" x="136.45" y="-58.4" font-family="Arial" font-size="14.00" fill="#666666">[integer]</text>
<polygon fill="none" stroke="black" stroke-width="3" points="44.7,-44.7 44.7,-237.3 283.04,-237.3 283.04,-44.7 44.7,-44.7"/>
</g>
<!-- DealStage -->
<g id="node2" class="node">
<title>DealStage</title>
<polygon fill="#efefef" stroke="none" points="55.7,-761.6 55.7,-797.2 272.03,-797.2 272.03,-761.6 55.7,-761.6"/>
<polygon fill="none" stroke="black" points="55.7,-761.6 55.7,-797.2 272.03,-797.2 272.03,-761.6 55.7,-761.6"/>
<text text-anchor="start" x="62.7" y="-775" font-family="Arial Bold" font-size="18.00">DealStage</text>
<text text-anchor="start" x="136.67" y="-775" font-family="Arial" font-size="14.00">    </text>
<text text-anchor="start" x="167.79" y="-775" font-family="Arial" font-size="14.00" fill="#666666">[TailorDB.Type]</text>
<polygon fill="none" stroke="black" points="55.7,-730.8 55.7,-761.6 272.03,-761.6 272.03,-730.8 55.7,-730.8"/>
<text text-anchor="start" x="62.7" y="-743" font-family="Arial" font-size="14.00">id </text>
<text text-anchor="start" x="77.49" y="-743" font-family="Arial" font-size="14.00" fill="#666666">[uuid]</text>
<polygon fill="none" stroke="black" points="55.7,-700 55.7,-730.8 272.03,-730.8 272.03,-700 55.7,-700"/>
<text text-anchor="start" x="62.7" y="-712.2" font-family="Arial" font-size="14.00">dealPipelineId </text>
<text text-anchor="start" x="154.55" y="-712.2" font-family="Arial" font-size="14.00" fill="#666666">[uuid]</text>
<polygon fill="none" stroke="black" points="55.7,-669.2 55.7,-700 272.03,-700 272.03,-669.2 55.7,-669.2"/>
<text text-anchor="start" x="62.7" y="-681.4" font-family="Arial" font-size="14.00">displayOrder </text>
<text text-anchor="start" x="145.96" y="-681.4" font-family="Arial" font-size="14.00" fill="#666666">[integer]</text>
<polygon fill="none" stroke="black" points="55.7,-638.4 55.7,-669.2 272.03,-669.2 272.03,-638.4 55.7,-638.4"/>
<text text-anchor="start" x="62.7" y="-650.6" font-family="Arial" font-size="14.00">type </text>
<text text-anchor="start" x="93.05" y="-650.6" font-family="Arial" font-size="14.00" fill="#666666">[string]</text>
<polygon fill="none" stroke="black" points="55.7,-607.6 55.7,-638.4 272.03,-638.4 272.03,-607.6 55.7,-607.6"/>
<text text-anchor="start" x="62.7" y="-619.8" font-family="Arial" font-size="14.00">closedLost </text>
<text text-anchor="start" x="133.52" y="-619.8" font-family="Arial" font-size="14.00" fill="#666666">[boolean]</text>
<polygon fill="none" stroke="black" points="55.7,-576.8 55.7,-607.6 272.03,-607.6 272.03,-576.8 55.7,-576.8"/>
<text text-anchor="start" x="62.7" y="-589" font-family="Arial" font-size="14.00">createdAt </text>
<text text-anchor="start" x="126.51" y="-589" font-family="Arial" font-size="14.00" fill="#666666">[datetime]</text>
<polygon fill="none" stroke="black" points="55.7,-546 55.7,-576.8 272.03,-576.8 272.03,-546 55.7,-546"/>
<text text-anchor="start" x="62.7" y="-558.2" font-family="Arial" font-size="14.00">updatedAt </text>
<text text-anchor="start" x="130.42" y="-558.2" font-family="Arial" font-size="14.00" fill="#666666">[datetime]</text>
<polygon fill="none" stroke="black" points="55.7,-515.2 55.7,-546 272.03,-546 272.03,-515.2 55.7,-515.2"/>
<text text-anchor="start" x="62.7" y="-527.4" font-family="Arial" font-size="14.00">dealPipeline </text>
<text text-anchor="start" x="142.87" y="-527.4" font-family="Arial" font-size="14.00" fill="#666666">[DealPipeline]</text>
<polygon fill="none" stroke="black" points="55.7,-484.4 55.7,-515.2 272.03,-515.2 272.03,-484.4 55.7,-484.4"/>
<text text-anchor="start" x="62.7" y="-496.6" font-family="Arial" font-size="14.00">description </text>
<text text-anchor="start" x="134.29" y="-496.6" font-family="Arial" font-size="14.00" fill="#666666">[string]</text>
<polygon fill="none" stroke="black" points="55.7,-453.6 55.7,-484.4 272.03,-484.4 272.03,-453.6 55.7,-453.6"/>
<text text-anchor="start" x="62.7" y="-465.8" font-family="Arial" font-size="14.00">label </text>
<text text-anchor="start" x="96.17" y="-465.8" font-family="Arial" font-size="14.00" fill="#666666">[string]</text>
<polygon fill="none" stroke="black" points="55.7,-422.8 55.7,-453.6 272.03,-453.6 272.03,-422.8 55.7,-422.8"/>
<text text-anchor="start" x="62.7" y="-435" font-family="Arial" font-size="14.00">name </text>
<text text-anchor="start" x="101.61" y="-435" font-family="Arial" font-size="14.00" fill="#666666">[string]</text>
<polygon fill="none" stroke="black" points="55.7,-392 55.7,-422.8 272.03,-422.8 272.03,-392 55.7,-392"/>
<text text-anchor="start" x="62.7" y="-404.2" font-family="Arial" font-size="14.00">probability </text>
<text text-anchor="start" x="130.4" y="-404.2" font-family="Arial" font-size="14.00" fill="#666666">[float]</text>
<polygon fill="none" stroke="black" points="55.7,-361.2 55.7,-392 272.03,-392 272.03,-361.2 55.7,-361.2"/>
<text text-anchor="start" x="62.7" y="-373.4" font-family="Arial" font-size="14.00">closedWon </text>
<text text-anchor="start" x="135.85" y="-373.4" font-family="Arial" font-size="14.00" fill="#666666">[boolean]</text>
</g>
<!-- DealStage&#45;&gt;DealPipeline -->
<g id="edge1" class="edge">
<title>DealStage:dealPipelineId&#45;&gt;DealPipeline:id</title>
<path fill="none" stroke="black" d="M282.26,-710.81C332.83,-658.95 338.28,-184.8 282.54,-184.8"/>
<polygon fill="black" stroke="black" points="282.29,-710.8 271.33,-711.22 277.51,-713.17 273.63,-715.1 273.63,-715.1 273.63,-715.1 277.51,-713.17 275.34,-719.28 282.29,-710.8"/>
<text text-anchor="start" x="280.03" y="-725.4" font-family="Arial" font-size="10.00">ForeignKeyType: DealPipeline</text>
</g>
</g>
</svg>
