<?xml version="1.0" encoding="UTF-8" standalone="no"?>
<!DOCTYPE svg PUBLIC "-//W3C//DTD SVG 1.1//EN"
 "http://www.w3.org/Graphics/SVG/1.1/DTD/svg11.dtd">
<!-- Generated by graphviz version 12.1.2 (20240928.0832)
 -->
<!-- Title: Engagement Pages: 1 -->
<svg width="1161pt" height="725pt"
 viewBox="0.00 0.00 1160.72 725.20" xmlns="http://www.w3.org/2000/svg" xmlns:xlink="http://www.w3.org/1999/xlink">
<g id="graph0" class="graph" transform="scale(1 1) rotate(0) translate(4 721.2)">
<title>Engagement</title>
<polygon fill="white" stroke="none" points="-4,4 -4,-721.2 1156.72,-721.2 1156.72,4 -4,4"/>
<!-- Engagement -->
<g id="node1" class="node">
<title>Engagement</title>
<polygon fill="#efefef" stroke="none" points="478.2,-261.8 478.2,-297.4 710.53,-297.4 710.53,-261.8 478.2,-261.8"/>
<polygon fill="none" stroke="black" points="478.2,-261.8 478.2,-297.4 710.53,-297.4 710.53,-261.8 478.2,-261.8"/>
<text text-anchor="start" x="485.2" y="-275.2" font-family="Arial Bold" font-size="18.00">Engagement</text>
<text text-anchor="start" x="575.16" y="-275.2" font-family="Arial" font-size="14.00">    </text>
<text text-anchor="start" x="606.28" y="-275.2" font-family="Arial" font-size="14.00" fill="#666666">[TailorDB.Type]</text>
<polygon fill="none" stroke="black" points="478.2,-231 478.2,-261.8 710.53,-261.8 710.53,-231 478.2,-231"/>
<text text-anchor="start" x="485.2" y="-243.2" font-family="Arial" font-size="14.00">id </text>
<text text-anchor="start" x="499.98" y="-243.2" font-family="Arial" font-size="14.00" fill="#666666">[uuid]</text>
<polygon fill="none" stroke="black" points="478.2,-200.2 478.2,-231 710.53,-231 710.53,-200.2 478.2,-200.2"/>
<text text-anchor="start" x="485.2" y="-212.4" font-family="Arial" font-size="14.00">active </text>
<text text-anchor="start" x="525.66" y="-212.4" font-family="Arial" font-size="14.00" fill="#666666">[boolean]</text>
<polygon fill="none" stroke="black" points="478.2,-169.4 478.2,-200.2 710.53,-200.2 710.53,-169.4 478.2,-169.4"/>
<text text-anchor="start" x="485.2" y="-181.6" font-family="Arial" font-size="14.00">activityType </text>
<text text-anchor="start" x="563" y="-181.6" font-family="Arial" font-size="14.00" fill="#666666">[string]</text>
<polygon fill="none" stroke="black" points="478.2,-138.6 478.2,-169.4 710.53,-169.4 710.53,-138.6 478.2,-138.6"/>
<text text-anchor="start" x="485.2" y="-150.8" font-family="Arial" font-size="14.00">userId </text>
<text text-anchor="start" x="528" y="-150.8" font-family="Arial" font-size="14.00" fill="#666666">[uuid]</text>
<polygon fill="none" stroke="black" points="478.2,-107.8 478.2,-138.6 710.53,-138.6 710.53,-107.8 478.2,-107.8"/>
<text text-anchor="start" x="485.2" y="-120" font-family="Arial" font-size="14.00">type </text>
<text text-anchor="start" x="515.55" y="-120" font-family="Arial" font-size="14.00" fill="#666666">[string]</text>
<polygon fill="none" stroke="black" points="478.2,-77 478.2,-107.8 710.53,-107.8 710.53,-77 478.2,-77"/>
<text text-anchor="start" x="485.2" y="-89.2" font-family="Arial" font-size="14.00">createdAt </text>
<text text-anchor="start" x="549.01" y="-89.2" font-family="Arial" font-size="14.00" fill="#666666">[datetime]</text>
<polygon fill="none" stroke="black" points="478.2,-46.2 478.2,-77 710.53,-77 710.53,-46.2 478.2,-46.2"/>
<text text-anchor="start" x="485.2" y="-58.4" font-family="Arial" font-size="14.00">updatedAt </text>
<text text-anchor="start" x="552.92" y="-58.4" font-family="Arial" font-size="14.00" fill="#666666">[datetime]</text>
<polygon fill="none" stroke="black" stroke-width="3" points="476.7,-44.7 476.7,-298.9 712.03,-298.9 712.03,-44.7 476.7,-44.7"/>
</g>
<!-- EngagementCompany -->
<g id="node2" class="node">
<title>EngagementCompany</title>
<polygon fill="#efefef" stroke="none" points="43.2,-638.4 43.2,-674 345.53,-674 345.53,-638.4 43.2,-638.4"/>
<polygon fill="none" stroke="black" points="43.2,-638.4 43.2,-674 345.53,-674 345.53,-638.4 43.2,-638.4"/>
<text text-anchor="start" x="50.2" y="-651.8" font-family="Arial Bold" font-size="18.00">EngagementCompany</text>
<text text-anchor="start" x="210.16" y="-651.8" font-family="Arial" font-size="14.00">    </text>
<text text-anchor="start" x="241.28" y="-651.8" font-family="Arial" font-size="14.00" fill="#666666">[TailorDB.Type]</text>
<polygon fill="none" stroke="black" points="43.2,-607.6 43.2,-638.4 345.53,-638.4 345.53,-607.6 43.2,-607.6"/>
<text text-anchor="start" x="50.2" y="-619.8" font-family="Arial" font-size="14.00">id </text>
<text text-anchor="start" x="64.99" y="-619.8" font-family="Arial" font-size="14.00" fill="#666666">[uuid]</text>
<polygon fill="none" stroke="black" points="43.2,-576.8 43.2,-607.6 345.53,-607.6 345.53,-576.8 43.2,-576.8"/>
<text text-anchor="start" x="50.2" y="-589" font-family="Arial" font-size="14.00">createdAt </text>
<text text-anchor="start" x="114.01" y="-589" font-family="Arial" font-size="14.00" fill="#666666">[datetime]</text>
<polygon fill="none" stroke="black" points="43.2,-546 43.2,-576.8 345.53,-576.8 345.53,-546 43.2,-546"/>
<text text-anchor="start" x="50.2" y="-558.2" font-family="Arial" font-size="14.00">updatedAt </text>
<text text-anchor="start" x="117.92" y="-558.2" font-family="Arial" font-size="14.00" fill="#666666">[datetime]</text>
<polygon fill="none" stroke="black" points="43.2,-515.2 43.2,-546 345.53,-546 345.53,-515.2 43.2,-515.2"/>
<text text-anchor="start" x="50.2" y="-527.4" font-family="Arial" font-size="14.00">companyId </text>
<text text-anchor="start" x="122.57" y="-527.4" font-family="Arial" font-size="14.00" fill="#666666">[uuid]</text>
<polygon fill="none" stroke="black" points="43.2,-484.4 43.2,-515.2 345.53,-515.2 345.53,-484.4 43.2,-484.4"/>
<text text-anchor="start" x="50.2" y="-496.6" font-family="Arial" font-size="14.00">company </text>
<text text-anchor="start" x="110.9" y="-496.6" font-family="Arial" font-size="14.00" fill="#666666">[Company]</text>
<polygon fill="none" stroke="black" points="43.2,-453.6 43.2,-484.4 345.53,-484.4 345.53,-453.6 43.2,-453.6"/>
<text text-anchor="start" x="50.2" y="-465.8" font-family="Arial" font-size="14.00">engagementId </text>
<text text-anchor="start" x="143.61" y="-465.8" font-family="Arial" font-size="14.00" fill="#666666">[uuid]</text>
<polygon fill="none" stroke="black" points="43.2,-422.8 43.2,-453.6 345.53,-453.6 345.53,-422.8 43.2,-422.8"/>
<text text-anchor="start" x="50.2" y="-435" font-family="Arial" font-size="14.00">engagement </text>
<text text-anchor="start" x="131.93" y="-435" font-family="Arial" font-size="14.00" fill="#666666">[Engagement]</text>
</g>
<!-- EngagementCompany&#45;&gt;Engagement -->
<g id="edge1" class="edge">
<title>EngagementCompany:engagementId&#45;&gt;Engagement:id</title>
<path fill="none" stroke="black" d="M356.61,-468.03C389.89,-460.9 377.05,-415.98 398.36,-379.6 433.14,-320.24 408.41,-246.4 477.2,-246.4"/>
<polygon fill="black" stroke="black" points="356.81,-468.01 346.43,-464.49 351.5,-468.52 347.19,-468.94 347.19,-468.94 347.19,-468.94 351.5,-468.52 347.29,-473.45 356.81,-468.01"/>
<text text-anchor="start" x="353.53" y="-479" font-family="Arial" font-size="10.00">ForeignKeyType: Engagement</text>
</g>
<!-- EngagementContact -->
<g id="node3" class="node">
<title>EngagementContact</title>
<polygon fill="#efefef" stroke="none" points="450.2,-638.4 450.2,-674 738.52,-674 738.52,-638.4 450.2,-638.4"/>
<polygon fill="none" stroke="black" points="450.2,-638.4 450.2,-674 738.52,-674 738.52,-638.4 450.2,-638.4"/>
<text text-anchor="start" x="457.2" y="-651.8" font-family="Arial Bold" font-size="18.00">EngagementContact</text>
<text text-anchor="start" x="603.16" y="-651.8" font-family="Arial" font-size="14.00">    </text>
<text text-anchor="start" x="634.27" y="-651.8" font-family="Arial" font-size="14.00" fill="#666666">[TailorDB.Type]</text>
<polygon fill="none" stroke="black" points="450.2,-607.6 450.2,-638.4 738.52,-638.4 738.52,-607.6 450.2,-607.6"/>
<text text-anchor="start" x="457.2" y="-619.8" font-family="Arial" font-size="14.00">id </text>
<text text-anchor="start" x="471.99" y="-619.8" font-family="Arial" font-size="14.00" fill="#666666">[uuid]</text>
<polygon fill="none" stroke="black" points="450.2,-576.8 450.2,-607.6 738.52,-607.6 738.52,-576.8 450.2,-576.8"/>
<text text-anchor="start" x="457.2" y="-589" font-family="Arial" font-size="14.00">contact </text>
<text text-anchor="start" x="506.23" y="-589" font-family="Arial" font-size="14.00" fill="#666666">[Contact]</text>
<polygon fill="none" stroke="black" points="450.2,-546 450.2,-576.8 738.52,-576.8 738.52,-546 450.2,-546"/>
<text text-anchor="start" x="457.2" y="-558.2" font-family="Arial" font-size="14.00">engagementId </text>
<text text-anchor="start" x="550.61" y="-558.2" font-family="Arial" font-size="14.00" fill="#666666">[uuid]</text>
<polygon fill="none" stroke="black" points="450.2,-515.2 450.2,-546 738.52,-546 738.52,-515.2 450.2,-515.2"/>
<text text-anchor="start" x="457.2" y="-527.4" font-family="Arial" font-size="14.00">engagement </text>
<text text-anchor="start" x="538.94" y="-527.4" font-family="Arial" font-size="14.00" fill="#666666">[Engagement]</text>
<polygon fill="none" stroke="black" points="450.2,-484.4 450.2,-515.2 738.52,-515.2 738.52,-484.4 450.2,-484.4"/>
<text text-anchor="start" x="457.2" y="-496.6" font-family="Arial" font-size="14.00">createdAt </text>
<text text-anchor="start" x="521.02" y="-496.6" font-family="Arial" font-size="14.00" fill="#666666">[datetime]</text>
<polygon fill="none" stroke="black" points="450.2,-453.6 450.2,-484.4 738.52,-484.4 738.52,-453.6 450.2,-453.6"/>
<text text-anchor="start" x="457.2" y="-465.8" font-family="Arial" font-size="14.00">updatedAt </text>
<text text-anchor="start" x="524.93" y="-465.8" font-family="Arial" font-size="14.00" fill="#666666">[datetime]</text>
<polygon fill="none" stroke="black" points="450.2,-422.8 450.2,-453.6 738.52,-453.6 738.52,-422.8 450.2,-422.8"/>
<text text-anchor="start" x="457.2" y="-435" font-family="Arial" font-size="14.00">contactId </text>
<text text-anchor="start" x="517.91" y="-435" font-family="Arial" font-size="14.00" fill="#666666">[uuid]</text>
</g>
<!-- EngagementContact&#45;&gt;Engagement -->
<g id="edge2" class="edge">
<title>EngagementContact:engagementId&#45;&gt;Engagement:id</title>
<path fill="none" stroke="black" d="M749.47,-559.05C806.85,-530.22 778.24,-246.4 711.53,-246.4"/>
<polygon fill="black" stroke="black" points="749.58,-559.02 738.81,-556.94 744.39,-560.25 740.17,-561.25 740.17,-561.25 740.17,-561.25 744.39,-560.25 740.88,-565.7 749.58,-559.02"/>
<text text-anchor="start" x="709.11" y="-545.4" font-family="Arial" font-size="10.00">ForeignKeyType: Engagement</text>
</g>
<!-- EngagementDeal -->
<g id="node4" class="node">
<title>EngagementDeal</title>
<polygon fill="#efefef" stroke="none" points="843.21,-638.4 843.21,-674 1109.52,-674 1109.52,-638.4 843.21,-638.4"/>
<polygon fill="none" stroke="black" points="843.21,-638.4 843.21,-674 1109.52,-674 1109.52,-638.4 843.21,-638.4"/>
<text text-anchor="start" x="850.21" y="-651.8" font-family="Arial Bold" font-size="18.00">EngagementDeal</text>
<text text-anchor="start" x="974.15" y="-651.8" font-family="Arial" font-size="14.00">    </text>
<text text-anchor="start" x="1005.27" y="-651.8" font-family="Arial" font-size="14.00" fill="#666666">[TailorDB.Type]</text>
<polygon fill="none" stroke="black" points="843.21,-607.6 843.21,-638.4 1109.52,-638.4 1109.52,-607.6 843.21,-607.6"/>
<text text-anchor="start" x="850.21" y="-619.8" font-family="Arial" font-size="14.00">id </text>
<text text-anchor="start" x="864.99" y="-619.8" font-family="Arial" font-size="14.00" fill="#666666">[uuid]</text>
<polygon fill="none" stroke="black" points="843.21,-576.8 843.21,-607.6 1109.52,-607.6 1109.52,-576.8 843.21,-576.8"/>
<text text-anchor="start" x="850.21" y="-589" font-family="Arial" font-size="14.00">engagementId </text>
<text text-anchor="start" x="943.62" y="-589" font-family="Arial" font-size="14.00" fill="#666666">[uuid]</text>
<polygon fill="none" stroke="black" points="843.21,-546 843.21,-576.8 1109.52,-576.8 1109.52,-546 843.21,-546"/>
<text text-anchor="start" x="850.21" y="-558.2" font-family="Arial" font-size="14.00">engagement </text>
<text text-anchor="start" x="931.94" y="-558.2" font-family="Arial" font-size="14.00" fill="#666666">[Engagement]</text>
<polygon fill="none" stroke="black" points="843.21,-515.2 843.21,-546 1109.52,-546 1109.52,-515.2 843.21,-515.2"/>
<text text-anchor="start" x="850.21" y="-527.4" font-family="Arial" font-size="14.00">createdAt </text>
<text text-anchor="start" x="914.02" y="-527.4" font-family="Arial" font-size="14.00" fill="#666666">[datetime]</text>
<polygon fill="none" stroke="black" points="843.21,-484.4 843.21,-515.2 1109.52,-515.2 1109.52,-484.4 843.21,-484.4"/>
<text text-anchor="start" x="850.21" y="-496.6" font-family="Arial" font-size="14.00">updatedAt </text>
<text text-anchor="start" x="917.93" y="-496.6" font-family="Arial" font-size="14.00" fill="#666666">[datetime]</text>
<polygon fill="none" stroke="black" points="843.21,-453.6 843.21,-484.4 1109.52,-484.4 1109.52,-453.6 843.21,-453.6"/>
<text text-anchor="start" x="850.21" y="-465.8" font-family="Arial" font-size="14.00">dealId </text>
<text text-anchor="start" x="892.24" y="-465.8" font-family="Arial" font-size="14.00" fill="#666666">[uuid]</text>
<polygon fill="none" stroke="black" points="843.21,-422.8 843.21,-453.6 1109.52,-453.6 1109.52,-422.8 843.21,-422.8"/>
<text text-anchor="start" x="850.21" y="-435" font-family="Arial" font-size="14.00">deal </text>
<text text-anchor="start" x="880.57" y="-435" font-family="Arial" font-size="14.00" fill="#666666">[Deal]</text>
</g>
<!-- EngagementDeal&#45;&gt;Engagement -->
<g id="edge3" class="edge">
<title>EngagementDeal:engagementId&#45;&gt;Engagement:id</title>
<path fill="none" stroke="black" d="M832.11,-591.7C750.88,-583.15 825.69,-466.33 790.36,-379.6 764.41,-315.89 780.32,-246.4 711.53,-246.4"/>
<polygon fill="black" stroke="black" points="831.89,-591.69 841.65,-596.68 837.21,-591.95 841.54,-592.17 841.54,-592.17 841.54,-592.17 837.21,-591.95 842.1,-587.69 831.89,-591.69"/>
<text text-anchor="start" x="699.57" y="-602.2" font-family="Arial" font-size="10.00">ForeignKeyType: Engagement</text>
</g>
</g>
</svg>
