<?xml version="1.0" encoding="UTF-8" standalone="no"?>
<!DOCTYPE svg PUBLIC "-//W3C//DTD SVG 1.1//EN"
 "http://www.w3.org/Graphics/SVG/1.1/DTD/svg11.dtd">
<!-- Generated by graphviz version 12.1.2 (20240928.0832)
 -->
<!-- Title: EngagementDeal Pages: 1 -->
<svg width="608pt" height="972pt"
 viewBox="0.00 0.00 607.74 971.60" xmlns="http://www.w3.org/2000/svg" xmlns:xlink="http://www.w3.org/1999/xlink">
<g id="graph0" class="graph" transform="scale(1 1) rotate(0) translate(4 967.6)">
<title>EngagementDeal</title>
<polygon fill="white" stroke="none" points="-4,4 -4,-967.6 603.74,-967.6 603.74,4 -4,4"/>
<!-- EngagementDeal -->
<g id="node1" class="node">
<title>EngagementDeal</title>
<polygon fill="#efefef" stroke="none" points="180.21,-881.8 180.21,-917.4 446.52,-917.4 446.52,-881.8 180.21,-881.8"/>
<polygon fill="none" stroke="black" points="180.21,-881.8 180.21,-917.4 446.52,-917.4 446.52,-881.8 180.21,-881.8"/>
<text text-anchor="start" x="187.21" y="-895.2" font-family="Arial Bold" font-size="18.00">EngagementDeal</text>
<text text-anchor="start" x="311.15" y="-895.2" font-family="Arial" font-size="14.00">    </text>
<text text-anchor="start" x="342.27" y="-895.2" font-family="Arial" font-size="14.00" fill="#666666">[TailorDB.Type]</text>
<polygon fill="none" stroke="black" points="180.21,-851 180.21,-881.8 446.52,-881.8 446.52,-851 180.21,-851"/>
<text text-anchor="start" x="187.21" y="-863.2" font-family="Arial" font-size="14.00">id </text>
<text text-anchor="start" x="202" y="-863.2" font-family="Arial" font-size="14.00" fill="#666666">[uuid]</text>
<polygon fill="none" stroke="black" points="180.21,-820.2 180.21,-851 446.52,-851 446.52,-820.2 180.21,-820.2"/>
<text text-anchor="start" x="187.21" y="-832.4" font-family="Arial" font-size="14.00">engagementId </text>
<text text-anchor="start" x="280.62" y="-832.4" font-family="Arial" font-size="14.00" fill="#666666">[uuid]</text>
<polygon fill="none" stroke="black" points="180.21,-789.4 180.21,-820.2 446.52,-820.2 446.52,-789.4 180.21,-789.4"/>
<text text-anchor="start" x="187.21" y="-801.6" font-family="Arial" font-size="14.00">engagement </text>
<text text-anchor="start" x="268.94" y="-801.6" font-family="Arial" font-size="14.00" fill="#666666">[Engagement]</text>
<polygon fill="none" stroke="black" points="180.21,-758.6 180.21,-789.4 446.52,-789.4 446.52,-758.6 180.21,-758.6"/>
<text text-anchor="start" x="187.21" y="-770.8" font-family="Arial" font-size="14.00">createdAt </text>
<text text-anchor="start" x="251.02" y="-770.8" font-family="Arial" font-size="14.00" fill="#666666">[datetime]</text>
<polygon fill="none" stroke="black" points="180.21,-727.8 180.21,-758.6 446.52,-758.6 446.52,-727.8 180.21,-727.8"/>
<text text-anchor="start" x="187.21" y="-740" font-family="Arial" font-size="14.00">updatedAt </text>
<text text-anchor="start" x="254.93" y="-740" font-family="Arial" font-size="14.00" fill="#666666">[datetime]</text>
<polygon fill="none" stroke="black" points="180.21,-697 180.21,-727.8 446.52,-727.8 446.52,-697 180.21,-697"/>
<text text-anchor="start" x="187.21" y="-709.2" font-family="Arial" font-size="14.00">dealId </text>
<text text-anchor="start" x="229.24" y="-709.2" font-family="Arial" font-size="14.00" fill="#666666">[uuid]</text>
<polygon fill="none" stroke="black" points="180.21,-666.2 180.21,-697 446.52,-697 446.52,-666.2 180.21,-666.2"/>
<text text-anchor="start" x="187.21" y="-678.4" font-family="Arial" font-size="14.00">deal </text>
<text text-anchor="start" x="217.57" y="-678.4" font-family="Arial" font-size="14.00" fill="#666666">[Deal]</text>
<polygon fill="none" stroke="black" stroke-width="3" points="178.71,-664.7 178.71,-918.9 448.02,-918.9 448.02,-664.7 178.71,-664.7"/>
</g>
<!-- Engagement -->
<g id="node2" class="node">
<title>Engagement</title>
<polygon fill="#efefef" stroke="none" points="43.2,-382 43.2,-417.6 275.53,-417.6 275.53,-382 43.2,-382"/>
<polygon fill="none" stroke="black" points="43.2,-382 43.2,-417.6 275.53,-417.6 275.53,-382 43.2,-382"/>
<text text-anchor="start" x="50.2" y="-395.4" font-family="Arial Bold" font-size="18.00">Engagement</text>
<text text-anchor="start" x="140.16" y="-395.4" font-family="Arial" font-size="14.00">    </text>
<text text-anchor="start" x="171.28" y="-395.4" font-family="Arial" font-size="14.00" fill="#666666">[TailorDB.Type]</text>
<polygon fill="none" stroke="black" points="43.2,-351.2 43.2,-382 275.53,-382 275.53,-351.2 43.2,-351.2"/>
<text text-anchor="start" x="50.2" y="-363.4" font-family="Arial" font-size="14.00">id </text>
<text text-anchor="start" x="64.99" y="-363.4" font-family="Arial" font-size="14.00" fill="#666666">[uuid]</text>
<polygon fill="none" stroke="black" points="43.2,-320.4 43.2,-351.2 275.53,-351.2 275.53,-320.4 43.2,-320.4"/>
<text text-anchor="start" x="50.2" y="-332.6" font-family="Arial" font-size="14.00">active </text>
<text text-anchor="start" x="90.66" y="-332.6" font-family="Arial" font-size="14.00" fill="#666666">[boolean]</text>
<polygon fill="none" stroke="black" points="43.2,-289.6 43.2,-320.4 275.53,-320.4 275.53,-289.6 43.2,-289.6"/>
<text text-anchor="start" x="50.2" y="-301.8" font-family="Arial" font-size="14.00">activityType </text>
<text text-anchor="start" x="128" y="-301.8" font-family="Arial" font-size="14.00" fill="#666666">[string]</text>
<polygon fill="none" stroke="black" points="43.2,-258.8 43.2,-289.6 275.53,-289.6 275.53,-258.8 43.2,-258.8"/>
<text text-anchor="start" x="50.2" y="-271" font-family="Arial" font-size="14.00">userId </text>
<text text-anchor="start" x="93" y="-271" font-family="Arial" font-size="14.00" fill="#666666">[uuid]</text>
<polygon fill="none" stroke="black" points="43.2,-228 43.2,-258.8 275.53,-258.8 275.53,-228 43.2,-228"/>
<text text-anchor="start" x="50.2" y="-240.2" font-family="Arial" font-size="14.00">type </text>
<text text-anchor="start" x="80.55" y="-240.2" font-family="Arial" font-size="14.00" fill="#666666">[string]</text>
<polygon fill="none" stroke="black" points="43.2,-197.2 43.2,-228 275.53,-228 275.53,-197.2 43.2,-197.2"/>
<text text-anchor="start" x="50.2" y="-209.4" font-family="Arial" font-size="14.00">createdAt </text>
<text text-anchor="start" x="114.01" y="-209.4" font-family="Arial" font-size="14.00" fill="#666666">[datetime]</text>
<polygon fill="none" stroke="black" points="43.2,-166.4 43.2,-197.2 275.53,-197.2 275.53,-166.4 43.2,-166.4"/>
<text text-anchor="start" x="50.2" y="-178.6" font-family="Arial" font-size="14.00">updatedAt </text>
<text text-anchor="start" x="117.92" y="-178.6" font-family="Arial" font-size="14.00" fill="#666666">[datetime]</text>
</g>
<!-- EngagementDeal&#45;&gt;Engagement -->
<g id="edge1" class="edge">
<title>EngagementDeal:engagementId&#45;&gt;Engagement:id</title>
<path fill="none" stroke="black" d="M168.84,-835.3C-21.59,-823.7 268.9,-484.29 275.53,-460.8 286.9,-420.5 318.4,-366.6 276.53,-366.6"/>
<polygon fill="black" stroke="black" points="168.88,-835.3 178.74,-840.09 174.21,-835.45 178.54,-835.58 178.54,-835.58 178.54,-835.58 174.21,-835.45 179.01,-831.09 168.88,-835.3"/>
<text text-anchor="start" x="36.58" y="-845.6" font-family="Arial" font-size="10.00">ForeignKeyType: Engagement</text>
</g>
<!-- Deal -->
<g id="node3" class="node">
<title>Deal</title>
<polygon fill="#efefef" stroke="none" points="380.19,-505.2 380.19,-540.8 556.54,-540.8 556.54,-505.2 380.19,-505.2"/>
<polygon fill="none" stroke="black" points="380.19,-505.2 380.19,-540.8 556.54,-540.8 556.54,-505.2 380.19,-505.2"/>
<text text-anchor="start" x="387.19" y="-518.6" font-family="Arial Bold" font-size="18.00">Deal</text>
<text text-anchor="start" x="421.17" y="-518.6" font-family="Arial" font-size="14.00">    </text>
<text text-anchor="start" x="452.29" y="-518.6" font-family="Arial" font-size="14.00" fill="#666666">[TailorDB.Type]</text>
<polygon fill="none" stroke="black" points="380.19,-474.4 380.19,-505.2 556.54,-505.2 556.54,-474.4 380.19,-474.4"/>
<text text-anchor="start" x="387.19" y="-486.6" font-family="Arial" font-size="14.00">id </text>
<text text-anchor="start" x="401.98" y="-486.6" font-family="Arial" font-size="14.00" fill="#666666">[uuid]</text>
<polygon fill="none" stroke="black" points="380.19,-443.6 380.19,-474.4 556.54,-474.4 556.54,-443.6 380.19,-443.6"/>
<text text-anchor="start" x="387.19" y="-455.8" font-family="Arial" font-size="14.00">createdAt </text>
<text text-anchor="start" x="451.01" y="-455.8" font-family="Arial" font-size="14.00" fill="#666666">[datetime]</text>
<polygon fill="none" stroke="black" points="380.19,-412.8 380.19,-443.6 556.54,-443.6 556.54,-412.8 380.19,-412.8"/>
<text text-anchor="start" x="387.19" y="-425" font-family="Arial" font-size="14.00">company </text>
<text text-anchor="start" x="447.89" y="-425" font-family="Arial" font-size="14.00" fill="#666666">[Company]</text>
<polygon fill="none" stroke="black" points="380.19,-382 380.19,-412.8 556.54,-412.8 556.54,-382 380.19,-382"/>
<text text-anchor="start" x="387.19" y="-394.2" font-family="Arial" font-size="14.00">value </text>
<text text-anchor="start" x="424.55" y="-394.2" font-family="Arial" font-size="14.00" fill="#666666">[float]</text>
<polygon fill="none" stroke="black" points="380.19,-351.2 380.19,-382 556.54,-382 556.54,-351.2 380.19,-351.2"/>
<text text-anchor="start" x="387.19" y="-363.4" font-family="Arial" font-size="14.00">userId </text>
<text text-anchor="start" x="429.99" y="-363.4" font-family="Arial" font-size="14.00" fill="#666666">[uuid]</text>
<polygon fill="none" stroke="black" points="380.19,-320.4 380.19,-351.2 556.54,-351.2 556.54,-320.4 380.19,-320.4"/>
<text text-anchor="start" x="387.19" y="-332.6" font-family="Arial" font-size="14.00">contactId </text>
<text text-anchor="start" x="447.9" y="-332.6" font-family="Arial" font-size="14.00" fill="#666666">[uuid]</text>
<polygon fill="none" stroke="black" points="380.19,-289.6 380.19,-320.4 556.54,-320.4 556.54,-289.6 380.19,-289.6"/>
<text text-anchor="start" x="387.19" y="-301.8" font-family="Arial" font-size="14.00">amount </text>
<text text-anchor="start" x="437.78" y="-301.8" font-family="Arial" font-size="14.00" fill="#666666">[float]</text>
<polygon fill="none" stroke="black" points="380.19,-258.8 380.19,-289.6 556.54,-289.6 556.54,-258.8 380.19,-258.8"/>
<text text-anchor="start" x="387.19" y="-271" font-family="Arial" font-size="14.00">user </text>
<text text-anchor="start" x="418.32" y="-271" font-family="Arial" font-size="14.00" fill="#666666">[User]</text>
<polygon fill="none" stroke="black" points="380.19,-228 380.19,-258.8 556.54,-258.8 556.54,-228 380.19,-228"/>
<text text-anchor="start" x="387.19" y="-240.2" font-family="Arial" font-size="14.00">contact </text>
<text text-anchor="start" x="436.22" y="-240.2" font-family="Arial" font-size="14.00" fill="#666666">[Contact]</text>
<polygon fill="none" stroke="black" points="380.19,-197.2 380.19,-228 556.54,-228 556.54,-197.2 380.19,-197.2"/>
<text text-anchor="start" x="387.19" y="-209.4" font-family="Arial" font-size="14.00">updatedAt </text>
<text text-anchor="start" x="454.92" y="-209.4" font-family="Arial" font-size="14.00" fill="#666666">[datetime]</text>
<polygon fill="none" stroke="black" points="380.19,-166.4 380.19,-197.2 556.54,-197.2 556.54,-166.4 380.19,-166.4"/>
<text text-anchor="start" x="387.19" y="-178.6" font-family="Arial" font-size="14.00">dealStageId </text>
<text text-anchor="start" x="465.81" y="-178.6" font-family="Arial" font-size="14.00" fill="#666666">[uuid]</text>
<polygon fill="none" stroke="black" points="380.19,-135.6 380.19,-166.4 556.54,-166.4 556.54,-135.6 380.19,-135.6"/>
<text text-anchor="start" x="387.19" y="-147.8" font-family="Arial" font-size="14.00">isDeleted </text>
<text text-anchor="start" x="449.45" y="-147.8" font-family="Arial" font-size="14.00" fill="#666666">[boolean]</text>
<polygon fill="none" stroke="black" points="380.19,-104.8 380.19,-135.6 556.54,-135.6 556.54,-104.8 380.19,-104.8"/>
<text text-anchor="start" x="387.19" y="-117" font-family="Arial" font-size="14.00">dealStage </text>
<text text-anchor="start" x="454.14" y="-117" font-family="Arial" font-size="14.00" fill="#666666">[DealStage]</text>
<polygon fill="none" stroke="black" points="380.19,-74 380.19,-104.8 556.54,-104.8 556.54,-74 380.19,-74"/>
<text text-anchor="start" x="387.19" y="-86.2" font-family="Arial" font-size="14.00">companyId </text>
<text text-anchor="start" x="459.57" y="-86.2" font-family="Arial" font-size="14.00" fill="#666666">[uuid]</text>
<polygon fill="none" stroke="black" points="380.19,-43.2 380.19,-74 556.54,-74 556.54,-43.2 380.19,-43.2"/>
<text text-anchor="start" x="387.19" y="-55.4" font-family="Arial" font-size="14.00">probability </text>
<text text-anchor="start" x="454.9" y="-55.4" font-family="Arial" font-size="14.00" fill="#666666">[float]</text>
</g>
<!-- EngagementDeal&#45;&gt;Deal -->
<g id="edge2" class="edge">
<title>EngagementDeal:dealId&#45;&gt;Deal:id</title>
<path fill="none" stroke="black" d="M457.84,-710.84C484.51,-701.43 465.64,-651.74 446.52,-620 429.21,-591.27 397.5,-612.73 380.19,-584 358.59,-548.13 337.32,-489.8 379.19,-489.8"/>
<polygon fill="black" stroke="black" points="457.74,-710.85 447.18,-707.9 452.46,-711.65 448.18,-712.3 448.18,-712.3 448.18,-712.3 452.46,-711.65 448.52,-716.8 457.74,-710.85"/>
<text text-anchor="start" x="454.52" y="-722.4" font-family="Arial" font-size="10.00">ForeignKeyType: Deal</text>
</g>
</g>
</svg>
