<?xml version="1.0" encoding="UTF-8" standalone="no"?>
<!DOCTYPE svg PUBLIC "-//W3C//DTD SVG 1.1//EN"
 "http://www.w3.org/Graphics/SVG/1.1/DTD/svg11.dtd">
<!-- Generated by graphviz version 12.1.2 (20240928.0832)
 -->
<!-- Title: EngagementContact Pages: 1 -->
<svg width="592pt" height="848pt"
 viewBox="0.00 0.00 592.09 848.40" xmlns="http://www.w3.org/2000/svg" xmlns:xlink="http://www.w3.org/1999/xlink">
<g id="graph0" class="graph" transform="scale(1 1) rotate(0) translate(4 844.4)">
<title>EngagementContact</title>
<polygon fill="white" stroke="none" points="-4,4 -4,-844.4 588.09,-844.4 588.09,4 -4,4"/>
<!-- EngagementContact -->
<g id="node1" class="node">
<title>EngagementContact</title>
<polygon fill="#efefef" stroke="none" points="148.22,-758.6 148.22,-794.2 417.89,-794.2 417.89,-758.6 148.22,-758.6"/>
<polygon fill="none" stroke="black" points="148.22,-758.6 148.22,-794.2 417.89,-794.2 417.89,-758.6 148.22,-758.6"/>
<text text-anchor="start" x="155.22" y="-772" font-family="Arial Bold" font-size="18.00">EngagementContact</text>
<text text-anchor="start" x="301.17" y="-772" font-family="Arial" font-size="14.00">    </text>
<text text-anchor="start" x="332.29" y="-772" font-family="Arial" font-size="14.00" fill="#666666">[Base Table]</text>
<polygon fill="none" stroke="black" points="148.22,-727.8 148.22,-758.6 417.89,-758.6 417.89,-727.8 148.22,-727.8"/>
<text text-anchor="start" x="155.22" y="-740" font-family="Arial" font-size="14.00">id </text>
<text text-anchor="start" x="170" y="-740" font-family="Arial" font-size="14.00" fill="#666666">[uuid]</text>
<polygon fill="none" stroke="black" points="148.22,-697 148.22,-727.8 417.89,-727.8 417.89,-697 148.22,-697"/>
<text text-anchor="start" x="155.22" y="-709.2" font-family="Arial" font-size="14.00">contactId </text>
<text text-anchor="start" x="215.92" y="-709.2" font-family="Arial" font-size="14.00" fill="#666666">[uuid]</text>
<polygon fill="none" stroke="black" points="148.22,-666.2 148.22,-697 417.89,-697 417.89,-666.2 148.22,-666.2"/>
<text text-anchor="start" x="155.22" y="-678.4" font-family="Arial" font-size="14.00">contact </text>
<text text-anchor="start" x="204.24" y="-678.4" font-family="Arial" font-size="14.00" fill="#666666">[Contact]</text>
<polygon fill="none" stroke="black" points="148.22,-635.4 148.22,-666.2 417.89,-666.2 417.89,-635.4 148.22,-635.4"/>
<text text-anchor="start" x="155.22" y="-647.6" font-family="Arial" font-size="14.00">engagementId </text>
<text text-anchor="start" x="248.62" y="-647.6" font-family="Arial" font-size="14.00" fill="#666666">[uuid]</text>
<polygon fill="none" stroke="black" points="148.22,-604.6 148.22,-635.4 417.89,-635.4 417.89,-604.6 148.22,-604.6"/>
<text text-anchor="start" x="155.22" y="-616.8" font-family="Arial" font-size="14.00">engagement </text>
<text text-anchor="start" x="236.95" y="-616.8" font-family="Arial" font-size="14.00" fill="#666666">[Engagement]</text>
<polygon fill="none" stroke="black" points="148.22,-573.8 148.22,-604.6 417.89,-604.6 417.89,-573.8 148.22,-573.8"/>
<text text-anchor="start" x="155.22" y="-586" font-family="Arial" font-size="14.00">createdAt </text>
<text text-anchor="start" x="219.03" y="-586" font-family="Arial" font-size="14.00" fill="#666666">[datetime]</text>
<polygon fill="none" stroke="black" points="148.22,-543 148.22,-573.8 417.89,-573.8 417.89,-543 148.22,-543"/>
<text text-anchor="start" x="155.22" y="-555.2" font-family="Arial" font-size="14.00">updatedAt </text>
<text text-anchor="start" x="222.94" y="-555.2" font-family="Arial" font-size="14.00" fill="#666666">[datetime]</text>
<polygon fill="none" stroke="black" stroke-width="3" points="146.72,-541.5 146.72,-795.7 419.39,-795.7 419.39,-541.5 146.72,-541.5"/>
</g>
<!-- Contact -->
<g id="node2" class="node">
<title>Contact</title>
<polygon fill="#efefef" stroke="none" points="43.2,-382 43.2,-417.6 222.9,-417.6 222.9,-382 43.2,-382"/>
<polygon fill="none" stroke="black" points="43.2,-382 43.2,-417.6 222.9,-417.6 222.9,-382 43.2,-382"/>
<text text-anchor="start" x="50.2" y="-395.4" font-family="Arial Bold" font-size="18.00">Contact</text>
<text text-anchor="start" x="106.19" y="-395.4" font-family="Arial" font-size="14.00">    </text>
<text text-anchor="start" x="137.3" y="-395.4" font-family="Arial" font-size="14.00" fill="#666666">[Base Table]</text>
<polygon fill="none" stroke="black" points="43.2,-351.2 43.2,-382 222.9,-382 222.9,-351.2 43.2,-351.2"/>
<text text-anchor="start" x="50.2" y="-363.4" font-family="Arial" font-size="14.00">id </text>
<text text-anchor="start" x="64.99" y="-363.4" font-family="Arial" font-size="14.00" fill="#666666">[uuid]</text>
<polygon fill="none" stroke="black" points="43.2,-320.4 43.2,-351.2 222.9,-351.2 222.9,-320.4 43.2,-320.4"/>
<text text-anchor="start" x="50.2" y="-332.6" font-family="Arial" font-size="14.00">isDeleted </text>
<text text-anchor="start" x="112.45" y="-332.6" font-family="Arial" font-size="14.00" fill="#666666">[boolean]</text>
<polygon fill="none" stroke="black" points="43.2,-289.6 43.2,-320.4 222.9,-320.4 222.9,-289.6 43.2,-289.6"/>
<text text-anchor="start" x="50.2" y="-301.8" font-family="Arial" font-size="14.00">lastName </text>
<text text-anchor="start" x="113.22" y="-301.8" font-family="Arial" font-size="14.00" fill="#666666">[string]</text>
<polygon fill="none" stroke="black" points="43.2,-258.8 43.2,-289.6 222.9,-289.6 222.9,-258.8 43.2,-258.8"/>
<text text-anchor="start" x="50.2" y="-271" font-family="Arial" font-size="14.00">email </text>
<text text-anchor="start" x="87.54" y="-271" font-family="Arial" font-size="14.00" fill="#666666">[string]</text>
<polygon fill="none" stroke="black" points="43.2,-228 43.2,-258.8 222.9,-258.8 222.9,-228 43.2,-228"/>
<text text-anchor="start" x="50.2" y="-240.2" font-family="Arial" font-size="14.00">phonePrimary </text>
<text text-anchor="start" x="141.24" y="-240.2" font-family="Arial" font-size="14.00" fill="#666666">[string]</text>
<polygon fill="none" stroke="black" points="43.2,-197.2 43.2,-228 222.9,-228 222.9,-197.2 43.2,-197.2"/>
<text text-anchor="start" x="50.2" y="-209.4" font-family="Arial" font-size="14.00">linkedInUrl </text>
<text text-anchor="start" x="120.23" y="-209.4" font-family="Arial" font-size="14.00" fill="#666666">[string]</text>
<polygon fill="none" stroke="black" points="43.2,-166.4 43.2,-197.2 222.9,-197.2 222.9,-166.4 43.2,-166.4"/>
<text text-anchor="start" x="50.2" y="-178.6" font-family="Arial" font-size="14.00">companyId </text>
<text text-anchor="start" x="122.57" y="-178.6" font-family="Arial" font-size="14.00" fill="#666666">[uuid]</text>
<polygon fill="none" stroke="black" points="43.2,-135.6 43.2,-166.4 222.9,-166.4 222.9,-135.6 43.2,-135.6"/>
<text text-anchor="start" x="50.2" y="-147.8" font-family="Arial" font-size="14.00">company </text>
<text text-anchor="start" x="110.9" y="-147.8" font-family="Arial" font-size="14.00" fill="#666666">[Company]</text>
<polygon fill="none" stroke="black" points="43.2,-104.8 43.2,-135.6 222.9,-135.6 222.9,-104.8 43.2,-104.8"/>
<text text-anchor="start" x="50.2" y="-117" font-family="Arial" font-size="14.00">createdAt </text>
<text text-anchor="start" x="114.01" y="-117" font-family="Arial" font-size="14.00" fill="#666666">[datetime]</text>
<polygon fill="none" stroke="black" points="43.2,-74 43.2,-104.8 222.9,-104.8 222.9,-74 43.2,-74"/>
<text text-anchor="start" x="50.2" y="-86.2" font-family="Arial" font-size="14.00">updatedAt </text>
<text text-anchor="start" x="117.92" y="-86.2" font-family="Arial" font-size="14.00" fill="#666666">[datetime]</text>
<polygon fill="none" stroke="black" points="43.2,-43.2 43.2,-74 222.9,-74 222.9,-43.2 43.2,-43.2"/>
<text text-anchor="start" x="50.2" y="-55.4" font-family="Arial" font-size="14.00">firstName </text>
<text text-anchor="start" x="113.99" y="-55.4" font-family="Arial" font-size="14.00" fill="#666666">[string]</text>
</g>
<!-- EngagementContact&#45;&gt;Contact -->
<g id="edge1" class="edge">
<title>EngagementContact:contactId&#45;&gt;Contact:id</title>
<path fill="none" stroke="black" d="M136.88,-711.82C54.88,-702.23 99.01,-574.74 148.22,-496.8 167.89,-465.64 203.14,-491.9 222.9,-460.8 245.36,-425.46 265.77,-366.6 223.9,-366.6"/>
<polygon fill="black" stroke="black" points="136.9,-711.83 146.63,-716.87 142.23,-712.12 146.55,-712.36 146.55,-712.36 146.55,-712.36 142.23,-712.12 147.13,-707.89 136.9,-711.83"/>
<text text-anchor="start" x="89.08" y="-722.4" font-family="Arial" font-size="10.00">ForeignKey</text>
</g>
<!-- Engagement -->
<g id="node3" class="node">
<title>Engagement</title>
<polygon fill="#efefef" stroke="none" points="327.21,-320.4 327.21,-356 540.89,-356 540.89,-320.4 327.21,-320.4"/>
<polygon fill="none" stroke="black" points="327.21,-320.4 327.21,-356 540.89,-356 540.89,-320.4 327.21,-320.4"/>
<text text-anchor="start" x="334.21" y="-333.8" font-family="Arial Bold" font-size="18.00">Engagement</text>
<text text-anchor="start" x="424.18" y="-333.8" font-family="Arial" font-size="14.00">    </text>
<text text-anchor="start" x="455.29" y="-333.8" font-family="Arial" font-size="14.00" fill="#666666">[Base Table]</text>
<polygon fill="none" stroke="black" points="327.21,-289.6 327.21,-320.4 540.89,-320.4 540.89,-289.6 327.21,-289.6"/>
<text text-anchor="start" x="334.21" y="-301.8" font-family="Arial" font-size="14.00">id </text>
<text text-anchor="start" x="349" y="-301.8" font-family="Arial" font-size="14.00" fill="#666666">[uuid]</text>
<polygon fill="none" stroke="black" points="327.21,-258.8 327.21,-289.6 540.89,-289.6 540.89,-258.8 327.21,-258.8"/>
<text text-anchor="start" x="334.21" y="-271" font-family="Arial" font-size="14.00">active </text>
<text text-anchor="start" x="374.67" y="-271" font-family="Arial" font-size="14.00" fill="#666666">[boolean]</text>
<polygon fill="none" stroke="black" points="327.21,-228 327.21,-258.8 540.89,-258.8 540.89,-228 327.21,-228"/>
<text text-anchor="start" x="334.21" y="-240.2" font-family="Arial" font-size="14.00">activityType </text>
<text text-anchor="start" x="412.01" y="-240.2" font-family="Arial" font-size="14.00" fill="#666666">[string]</text>
<polygon fill="none" stroke="black" points="327.21,-197.2 327.21,-228 540.89,-228 540.89,-197.2 327.21,-197.2"/>
<text text-anchor="start" x="334.21" y="-209.4" font-family="Arial" font-size="14.00">userId </text>
<text text-anchor="start" x="377.01" y="-209.4" font-family="Arial" font-size="14.00" fill="#666666">[uuid]</text>
<polygon fill="none" stroke="black" points="327.21,-166.4 327.21,-197.2 540.89,-197.2 540.89,-166.4 327.21,-166.4"/>
<text text-anchor="start" x="334.21" y="-178.6" font-family="Arial" font-size="14.00">type </text>
<text text-anchor="start" x="364.56" y="-178.6" font-family="Arial" font-size="14.00" fill="#666666">[string]</text>
<polygon fill="none" stroke="black" points="327.21,-135.6 327.21,-166.4 540.89,-166.4 540.89,-135.6 327.21,-135.6"/>
<text text-anchor="start" x="334.21" y="-147.8" font-family="Arial" font-size="14.00">createdAt </text>
<text text-anchor="start" x="398.02" y="-147.8" font-family="Arial" font-size="14.00" fill="#666666">[datetime]</text>
<polygon fill="none" stroke="black" points="327.21,-104.8 327.21,-135.6 540.89,-135.6 540.89,-104.8 327.21,-104.8"/>
<text text-anchor="start" x="334.21" y="-117" font-family="Arial" font-size="14.00">updatedAt </text>
<text text-anchor="start" x="401.93" y="-117" font-family="Arial" font-size="14.00" fill="#666666">[datetime]</text>
</g>
<!-- EngagementContact&#45;&gt;Engagement -->
<g id="edge2" class="edge">
<title>EngagementContact:engagementId&#45;&gt;Engagement:id</title>
<path fill="none" stroke="black" d="M429.15,-650.63C623.74,-644.1 346.26,-446.96 327.21,-399.2 311.7,-360.31 284.34,-305 326.21,-305"/>
<polygon fill="black" stroke="black" points="429.22,-650.63 419.15,-646.3 423.88,-650.72 419.55,-650.79 419.55,-650.79 419.55,-650.79 423.88,-650.72 419.29,-655.29 429.22,-650.63"/>
<text text-anchor="start" x="425.89" y="-660.8" font-family="Arial" font-size="10.00">ForeignKey</text>
</g>
</g>
</svg>
