<?xml version="1.0" encoding="UTF-8" standalone="no"?>
<!DOCTYPE svg PUBLIC "-//W3C//DTD SVG 1.1//EN"
 "http://www.w3.org/Graphics/SVG/1.1/DTD/svg11.dtd">
<!-- Generated by graphviz version 12.1.2 (20240928.0832)
 -->
<!-- Title: EngagementDeal Pages: 1 -->
<svg width="570pt" height="972pt"
 viewBox="0.00 0.00 570.09 971.60" xmlns="http://www.w3.org/2000/svg" xmlns:xlink="http://www.w3.org/1999/xlink">
<g id="graph0" class="graph" transform="scale(1 1) rotate(0) translate(4 967.6)">
<title>EngagementDeal</title>
<polygon fill="white" stroke="none" points="-4,4 -4,-967.6 566.09,-967.6 566.09,4 -4,4"/>
<!-- EngagementDeal -->
<g id="node1" class="node">
<title>EngagementDeal</title>
<polygon fill="#efefef" stroke="none" points="171.21,-881.8 171.21,-917.4 418.87,-917.4 418.87,-881.8 171.21,-881.8"/>
<polygon fill="none" stroke="black" points="171.21,-881.8 171.21,-917.4 418.87,-917.4 418.87,-881.8 171.21,-881.8"/>
<text text-anchor="start" x="178.21" y="-895.2" font-family="Arial Bold" font-size="18.00">EngagementDeal</text>
<text text-anchor="start" x="302.15" y="-895.2" font-family="Arial" font-size="14.00">    </text>
<text text-anchor="start" x="333.27" y="-895.2" font-family="Arial" font-size="14.00" fill="#666666">[Base Table]</text>
<polygon fill="none" stroke="black" points="171.21,-851 171.21,-881.8 418.87,-881.8 418.87,-851 171.21,-851"/>
<text text-anchor="start" x="178.21" y="-863.2" font-family="Arial" font-size="14.00">id </text>
<text text-anchor="start" x="193" y="-863.2" font-family="Arial" font-size="14.00" fill="#666666">[uuid]</text>
<polygon fill="none" stroke="black" points="171.21,-820.2 171.21,-851 418.87,-851 418.87,-820.2 171.21,-820.2"/>
<text text-anchor="start" x="178.21" y="-832.4" font-family="Arial" font-size="14.00">engagementId </text>
<text text-anchor="start" x="271.62" y="-832.4" font-family="Arial" font-size="14.00" fill="#666666">[uuid]</text>
<polygon fill="none" stroke="black" points="171.21,-789.4 171.21,-820.2 418.87,-820.2 418.87,-789.4 171.21,-789.4"/>
<text text-anchor="start" x="178.21" y="-801.6" font-family="Arial" font-size="14.00">engagement </text>
<text text-anchor="start" x="259.94" y="-801.6" font-family="Arial" font-size="14.00" fill="#666666">[Engagement]</text>
<polygon fill="none" stroke="black" points="171.21,-758.6 171.21,-789.4 418.87,-789.4 418.87,-758.6 171.21,-758.6"/>
<text text-anchor="start" x="178.21" y="-770.8" font-family="Arial" font-size="14.00">createdAt </text>
<text text-anchor="start" x="242.02" y="-770.8" font-family="Arial" font-size="14.00" fill="#666666">[datetime]</text>
<polygon fill="none" stroke="black" points="171.21,-727.8 171.21,-758.6 418.87,-758.6 418.87,-727.8 171.21,-727.8"/>
<text text-anchor="start" x="178.21" y="-740" font-family="Arial" font-size="14.00">updatedAt </text>
<text text-anchor="start" x="245.93" y="-740" font-family="Arial" font-size="14.00" fill="#666666">[datetime]</text>
<polygon fill="none" stroke="black" points="171.21,-697 171.21,-727.8 418.87,-727.8 418.87,-697 171.21,-697"/>
<text text-anchor="start" x="178.21" y="-709.2" font-family="Arial" font-size="14.00">dealId </text>
<text text-anchor="start" x="220.24" y="-709.2" font-family="Arial" font-size="14.00" fill="#666666">[uuid]</text>
<polygon fill="none" stroke="black" points="171.21,-666.2 171.21,-697 418.87,-697 418.87,-666.2 171.21,-666.2"/>
<text text-anchor="start" x="178.21" y="-678.4" font-family="Arial" font-size="14.00">deal </text>
<text text-anchor="start" x="208.57" y="-678.4" font-family="Arial" font-size="14.00" fill="#666666">[Deal]</text>
<polygon fill="none" stroke="black" stroke-width="3" points="169.71,-664.7 169.71,-918.9 420.37,-918.9 420.37,-664.7 169.71,-664.7"/>
</g>
<!-- Engagement -->
<g id="node2" class="node">
<title>Engagement</title>
<polygon fill="#efefef" stroke="none" points="43.2,-382 43.2,-417.6 256.88,-417.6 256.88,-382 43.2,-382"/>
<polygon fill="none" stroke="black" points="43.2,-382 43.2,-417.6 256.88,-417.6 256.88,-382 43.2,-382"/>
<text text-anchor="start" x="50.2" y="-395.4" font-family="Arial Bold" font-size="18.00">Engagement</text>
<text text-anchor="start" x="140.16" y="-395.4" font-family="Arial" font-size="14.00">    </text>
<text text-anchor="start" x="171.28" y="-395.4" font-family="Arial" font-size="14.00" fill="#666666">[Base Table]</text>
<polygon fill="none" stroke="black" points="43.2,-351.2 43.2,-382 256.88,-382 256.88,-351.2 43.2,-351.2"/>
<text text-anchor="start" x="50.2" y="-363.4" font-family="Arial" font-size="14.00">id </text>
<text text-anchor="start" x="64.99" y="-363.4" font-family="Arial" font-size="14.00" fill="#666666">[uuid]</text>
<polygon fill="none" stroke="black" points="43.2,-320.4 43.2,-351.2 256.88,-351.2 256.88,-320.4 43.2,-320.4"/>
<text text-anchor="start" x="50.2" y="-332.6" font-family="Arial" font-size="14.00">active </text>
<text text-anchor="start" x="90.66" y="-332.6" font-family="Arial" font-size="14.00" fill="#666666">[boolean]</text>
<polygon fill="none" stroke="black" points="43.2,-289.6 43.2,-320.4 256.88,-320.4 256.88,-289.6 43.2,-289.6"/>
<text text-anchor="start" x="50.2" y="-301.8" font-family="Arial" font-size="14.00">activityType </text>
<text text-anchor="start" x="128" y="-301.8" font-family="Arial" font-size="14.00" fill="#666666">[string]</text>
<polygon fill="none" stroke="black" points="43.2,-258.8 43.2,-289.6 256.88,-289.6 256.88,-258.8 43.2,-258.8"/>
<text text-anchor="start" x="50.2" y="-271" font-family="Arial" font-size="14.00">userId </text>
<text text-anchor="start" x="93" y="-271" font-family="Arial" font-size="14.00" fill="#666666">[uuid]</text>
<polygon fill="none" stroke="black" points="43.2,-228 43.2,-258.8 256.88,-258.8 256.88,-228 43.2,-228"/>
<text text-anchor="start" x="50.2" y="-240.2" font-family="Arial" font-size="14.00">type </text>
<text text-anchor="start" x="80.55" y="-240.2" font-family="Arial" font-size="14.00" fill="#666666">[string]</text>
<polygon fill="none" stroke="black" points="43.2,-197.2 43.2,-228 256.88,-228 256.88,-197.2 43.2,-197.2"/>
<text text-anchor="start" x="50.2" y="-209.4" font-family="Arial" font-size="14.00">createdAt </text>
<text text-anchor="start" x="114.01" y="-209.4" font-family="Arial" font-size="14.00" fill="#666666">[datetime]</text>
<polygon fill="none" stroke="black" points="43.2,-166.4 43.2,-197.2 256.88,-197.2 256.88,-166.4 43.2,-166.4"/>
<text text-anchor="start" x="50.2" y="-178.6" font-family="Arial" font-size="14.00">updatedAt </text>
<text text-anchor="start" x="117.92" y="-178.6" font-family="Arial" font-size="14.00" fill="#666666">[datetime]</text>
</g>
<!-- EngagementDeal&#45;&gt;Engagement -->
<g id="edge1" class="edge">
<title>EngagementDeal:engagementId&#45;&gt;Engagement:id</title>
<path fill="none" stroke="black" d="M159.99,-835.23C-11.93,-822.25 253.9,-472.36 256.88,-460.8 267.33,-420.25 299.75,-366.6 257.88,-366.6"/>
<polygon fill="black" stroke="black" points="159.88,-835.23 169.71,-840.08 165.21,-835.42 169.54,-835.58 169.54,-835.58 169.54,-835.58 165.21,-835.42 170.04,-831.09 159.88,-835.23"/>
<text text-anchor="start" x="112.07" y="-845.6" font-family="Arial" font-size="10.00">ForeignKey</text>
</g>
<!-- Deal -->
<g id="node3" class="node">
<title>Deal</title>
<polygon fill="#efefef" stroke="none" points="361.19,-505.2 361.19,-540.8 518.89,-540.8 518.89,-505.2 361.19,-505.2"/>
<polygon fill="none" stroke="black" points="361.19,-505.2 361.19,-540.8 518.89,-540.8 518.89,-505.2 361.19,-505.2"/>
<text text-anchor="start" x="368.19" y="-518.6" font-family="Arial Bold" font-size="18.00">Deal</text>
<text text-anchor="start" x="402.17" y="-518.6" font-family="Arial" font-size="14.00">    </text>
<text text-anchor="start" x="433.29" y="-518.6" font-family="Arial" font-size="14.00" fill="#666666">[Base Table]</text>
<polygon fill="none" stroke="black" points="361.19,-474.4 361.19,-505.2 518.89,-505.2 518.89,-474.4 361.19,-474.4"/>
<text text-anchor="start" x="368.19" y="-486.6" font-family="Arial" font-size="14.00">id </text>
<text text-anchor="start" x="382.98" y="-486.6" font-family="Arial" font-size="14.00" fill="#666666">[uuid]</text>
<polygon fill="none" stroke="black" points="361.19,-443.6 361.19,-474.4 518.89,-474.4 518.89,-443.6 361.19,-443.6"/>
<text text-anchor="start" x="368.19" y="-455.8" font-family="Arial" font-size="14.00">updatedAt </text>
<text text-anchor="start" x="435.92" y="-455.8" font-family="Arial" font-size="14.00" fill="#666666">[datetime]</text>
<polygon fill="none" stroke="black" points="361.19,-412.8 361.19,-443.6 518.89,-443.6 518.89,-412.8 361.19,-412.8"/>
<text text-anchor="start" x="368.19" y="-425" font-family="Arial" font-size="14.00">amount </text>
<text text-anchor="start" x="418.78" y="-425" font-family="Arial" font-size="14.00" fill="#666666">[float]</text>
<polygon fill="none" stroke="black" points="361.19,-382 361.19,-412.8 518.89,-412.8 518.89,-382 361.19,-382"/>
<text text-anchor="start" x="368.19" y="-394.2" font-family="Arial" font-size="14.00">value </text>
<text text-anchor="start" x="405.55" y="-394.2" font-family="Arial" font-size="14.00" fill="#666666">[float]</text>
<polygon fill="none" stroke="black" points="361.19,-351.2 361.19,-382 518.89,-382 518.89,-351.2 361.19,-351.2"/>
<text text-anchor="start" x="368.19" y="-363.4" font-family="Arial" font-size="14.00">userId </text>
<text text-anchor="start" x="410.99" y="-363.4" font-family="Arial" font-size="14.00" fill="#666666">[uuid]</text>
<polygon fill="none" stroke="black" points="361.19,-320.4 361.19,-351.2 518.89,-351.2 518.89,-320.4 361.19,-320.4"/>
<text text-anchor="start" x="368.19" y="-332.6" font-family="Arial" font-size="14.00">contactId </text>
<text text-anchor="start" x="428.9" y="-332.6" font-family="Arial" font-size="14.00" fill="#666666">[uuid]</text>
<polygon fill="none" stroke="black" points="361.19,-289.6 361.19,-320.4 518.89,-320.4 518.89,-289.6 361.19,-289.6"/>
<text text-anchor="start" x="368.19" y="-301.8" font-family="Arial" font-size="14.00">isDeleted </text>
<text text-anchor="start" x="430.45" y="-301.8" font-family="Arial" font-size="14.00" fill="#666666">[boolean]</text>
<polygon fill="none" stroke="black" points="361.19,-258.8 361.19,-289.6 518.89,-289.6 518.89,-258.8 361.19,-258.8"/>
<text text-anchor="start" x="368.19" y="-271" font-family="Arial" font-size="14.00">company </text>
<text text-anchor="start" x="428.89" y="-271" font-family="Arial" font-size="14.00" fill="#666666">[Company]</text>
<polygon fill="none" stroke="black" points="361.19,-228 361.19,-258.8 518.89,-258.8 518.89,-228 361.19,-228"/>
<text text-anchor="start" x="368.19" y="-240.2" font-family="Arial" font-size="14.00">probability </text>
<text text-anchor="start" x="435.9" y="-240.2" font-family="Arial" font-size="14.00" fill="#666666">[float]</text>
<polygon fill="none" stroke="black" points="361.19,-197.2 361.19,-228 518.89,-228 518.89,-197.2 361.19,-197.2"/>
<text text-anchor="start" x="368.19" y="-209.4" font-family="Arial" font-size="14.00">dealStageId </text>
<text text-anchor="start" x="446.81" y="-209.4" font-family="Arial" font-size="14.00" fill="#666666">[uuid]</text>
<polygon fill="none" stroke="black" points="361.19,-166.4 361.19,-197.2 518.89,-197.2 518.89,-166.4 361.19,-166.4"/>
<text text-anchor="start" x="368.19" y="-178.6" font-family="Arial" font-size="14.00">dealStage </text>
<text text-anchor="start" x="435.14" y="-178.6" font-family="Arial" font-size="14.00" fill="#666666">[DealStage]</text>
<polygon fill="none" stroke="black" points="361.19,-135.6 361.19,-166.4 518.89,-166.4 518.89,-135.6 361.19,-135.6"/>
<text text-anchor="start" x="368.19" y="-147.8" font-family="Arial" font-size="14.00">createdAt </text>
<text text-anchor="start" x="432.01" y="-147.8" font-family="Arial" font-size="14.00" fill="#666666">[datetime]</text>
<polygon fill="none" stroke="black" points="361.19,-104.8 361.19,-135.6 518.89,-135.6 518.89,-104.8 361.19,-104.8"/>
<text text-anchor="start" x="368.19" y="-117" font-family="Arial" font-size="14.00">user </text>
<text text-anchor="start" x="399.32" y="-117" font-family="Arial" font-size="14.00" fill="#666666">[User]</text>
<polygon fill="none" stroke="black" points="361.19,-74 361.19,-104.8 518.89,-104.8 518.89,-74 361.19,-74"/>
<text text-anchor="start" x="368.19" y="-86.2" font-family="Arial" font-size="14.00">companyId </text>
<text text-anchor="start" x="440.57" y="-86.2" font-family="Arial" font-size="14.00" fill="#666666">[uuid]</text>
<polygon fill="none" stroke="black" points="361.19,-43.2 361.19,-74 518.89,-74 518.89,-43.2 361.19,-43.2"/>
<text text-anchor="start" x="368.19" y="-55.4" font-family="Arial" font-size="14.00">contact </text>
<text text-anchor="start" x="417.22" y="-55.4" font-family="Arial" font-size="14.00" fill="#666666">[Contact]</text>
</g>
<!-- EngagementDeal&#45;&gt;Deal -->
<g id="edge2" class="edge">
<title>EngagementDeal:dealId&#45;&gt;Deal:id</title>
<path fill="none" stroke="black" d="M430.16,-710.85C456.67,-701.54 437.02,-652.31 418.87,-620 404.07,-593.65 375.99,-610.35 361.19,-584 340.69,-547.49 318.32,-489.8 360.19,-489.8"/>
<polygon fill="black" stroke="black" points="430.09,-710.86 419.53,-707.9 424.82,-711.66 420.53,-712.3 420.53,-712.3 420.53,-712.3 424.82,-711.66 420.87,-716.8 430.09,-710.86"/>
<text text-anchor="start" x="426.87" y="-722.4" font-family="Arial" font-size="10.00">ForeignKey</text>
</g>
</g>
</svg>
