<?xml version="1.0" encoding="UTF-8" standalone="no"?>
<!DOCTYPE svg PUBLIC "-//W3C//DTD SVG 1.1//EN"
 "http://www.w3.org/Graphics/SVG/1.1/DTD/svg11.dtd">
<!-- Generated by graphviz version 12.1.2 (20240928.0832)
 -->
<!-- Title: EngagementContact Pages: 1 -->
<svg width="630pt" height="848pt"
 viewBox="0.00 0.00 629.74 848.40" xmlns="http://www.w3.org/2000/svg" xmlns:xlink="http://www.w3.org/1999/xlink">
<g id="graph0" class="graph" transform="scale(1 1) rotate(0) translate(4 844.4)">
<title>EngagementContact</title>
<polygon fill="white" stroke="none" points="-4,4 -4,-844.4 625.74,-844.4 625.74,4 -4,4"/>
<!-- EngagementContact -->
<g id="node1" class="node">
<title>EngagementContact</title>
<polygon fill="#efefef" stroke="none" points="158.22,-758.6 158.22,-794.2 446.53,-794.2 446.53,-758.6 158.22,-758.6"/>
<polygon fill="none" stroke="black" points="158.22,-758.6 158.22,-794.2 446.53,-794.2 446.53,-758.6 158.22,-758.6"/>
<text text-anchor="start" x="165.22" y="-772" font-family="Arial Bold" font-size="18.00">EngagementContact</text>
<text text-anchor="start" x="311.17" y="-772" font-family="Arial" font-size="14.00">    </text>
<text text-anchor="start" x="342.29" y="-772" font-family="Arial" font-size="14.00" fill="#666666">[TailorDB.Type]</text>
<polygon fill="none" stroke="black" points="158.22,-727.8 158.22,-758.6 446.53,-758.6 446.53,-727.8 158.22,-727.8"/>
<text text-anchor="start" x="165.22" y="-740" font-family="Arial" font-size="14.00">id </text>
<text text-anchor="start" x="180" y="-740" font-family="Arial" font-size="14.00" fill="#666666">[uuid]</text>
<polygon fill="none" stroke="black" points="158.22,-697 158.22,-727.8 446.53,-727.8 446.53,-697 158.22,-697"/>
<text text-anchor="start" x="165.22" y="-709.2" font-family="Arial" font-size="14.00">contactId </text>
<text text-anchor="start" x="225.92" y="-709.2" font-family="Arial" font-size="14.00" fill="#666666">[uuid]</text>
<polygon fill="none" stroke="black" points="158.22,-666.2 158.22,-697 446.53,-697 446.53,-666.2 158.22,-666.2"/>
<text text-anchor="start" x="165.22" y="-678.4" font-family="Arial" font-size="14.00">contact </text>
<text text-anchor="start" x="214.24" y="-678.4" font-family="Arial" font-size="14.00" fill="#666666">[Contact]</text>
<polygon fill="none" stroke="black" points="158.22,-635.4 158.22,-666.2 446.53,-666.2 446.53,-635.4 158.22,-635.4"/>
<text text-anchor="start" x="165.22" y="-647.6" font-family="Arial" font-size="14.00">engagementId </text>
<text text-anchor="start" x="258.62" y="-647.6" font-family="Arial" font-size="14.00" fill="#666666">[uuid]</text>
<polygon fill="none" stroke="black" points="158.22,-604.6 158.22,-635.4 446.53,-635.4 446.53,-604.6 158.22,-604.6"/>
<text text-anchor="start" x="165.22" y="-616.8" font-family="Arial" font-size="14.00">engagement </text>
<text text-anchor="start" x="246.95" y="-616.8" font-family="Arial" font-size="14.00" fill="#666666">[Engagement]</text>
<polygon fill="none" stroke="black" points="158.22,-573.8 158.22,-604.6 446.53,-604.6 446.53,-573.8 158.22,-573.8"/>
<text text-anchor="start" x="165.22" y="-586" font-family="Arial" font-size="14.00">createdAt </text>
<text text-anchor="start" x="229.03" y="-586" font-family="Arial" font-size="14.00" fill="#666666">[datetime]</text>
<polygon fill="none" stroke="black" points="158.22,-543 158.22,-573.8 446.53,-573.8 446.53,-543 158.22,-543"/>
<text text-anchor="start" x="165.22" y="-555.2" font-family="Arial" font-size="14.00">updatedAt </text>
<text text-anchor="start" x="232.94" y="-555.2" font-family="Arial" font-size="14.00" fill="#666666">[datetime]</text>
<polygon fill="none" stroke="black" stroke-width="3" points="156.72,-541.5 156.72,-795.7 448.03,-795.7 448.03,-541.5 156.72,-541.5"/>
</g>
<!-- Contact -->
<g id="node2" class="node">
<title>Contact</title>
<polygon fill="#efefef" stroke="none" points="43.2,-382 43.2,-417.6 241.55,-417.6 241.55,-382 43.2,-382"/>
<polygon fill="none" stroke="black" points="43.2,-382 43.2,-417.6 241.55,-417.6 241.55,-382 43.2,-382"/>
<text text-anchor="start" x="50.2" y="-395.4" font-family="Arial Bold" font-size="18.00">Contact</text>
<text text-anchor="start" x="106.19" y="-395.4" font-family="Arial" font-size="14.00">    </text>
<text text-anchor="start" x="137.3" y="-395.4" font-family="Arial" font-size="14.00" fill="#666666">[TailorDB.Type]</text>
<polygon fill="none" stroke="black" points="43.2,-351.2 43.2,-382 241.55,-382 241.55,-351.2 43.2,-351.2"/>
<text text-anchor="start" x="50.2" y="-363.4" font-family="Arial" font-size="14.00">id </text>
<text text-anchor="start" x="64.99" y="-363.4" font-family="Arial" font-size="14.00" fill="#666666">[uuid]</text>
<polygon fill="none" stroke="black" points="43.2,-320.4 43.2,-351.2 241.55,-351.2 241.55,-320.4 43.2,-320.4"/>
<text text-anchor="start" x="50.2" y="-332.6" font-family="Arial" font-size="14.00">isDeleted </text>
<text text-anchor="start" x="112.45" y="-332.6" font-family="Arial" font-size="14.00" fill="#666666">[boolean]</text>
<polygon fill="none" stroke="black" points="43.2,-289.6 43.2,-320.4 241.55,-320.4 241.55,-289.6 43.2,-289.6"/>
<text text-anchor="start" x="50.2" y="-301.8" font-family="Arial" font-size="14.00">firstName </text>
<text text-anchor="start" x="113.99" y="-301.8" font-family="Arial" font-size="14.00" fill="#666666">[string]</text>
<polygon fill="none" stroke="black" points="43.2,-258.8 43.2,-289.6 241.55,-289.6 241.55,-258.8 43.2,-258.8"/>
<text text-anchor="start" x="50.2" y="-271" font-family="Arial" font-size="14.00">lastName </text>
<text text-anchor="start" x="113.22" y="-271" font-family="Arial" font-size="14.00" fill="#666666">[string]</text>
<polygon fill="none" stroke="black" points="43.2,-228 43.2,-258.8 241.55,-258.8 241.55,-228 43.2,-228"/>
<text text-anchor="start" x="50.2" y="-240.2" font-family="Arial" font-size="14.00">email </text>
<text text-anchor="start" x="87.54" y="-240.2" font-family="Arial" font-size="14.00" fill="#666666">[string]</text>
<polygon fill="none" stroke="black" points="43.2,-197.2 43.2,-228 241.55,-228 241.55,-197.2 43.2,-197.2"/>
<text text-anchor="start" x="50.2" y="-209.4" font-family="Arial" font-size="14.00">phonePrimary </text>
<text text-anchor="start" x="141.24" y="-209.4" font-family="Arial" font-size="14.00" fill="#666666">[string]</text>
<polygon fill="none" stroke="black" points="43.2,-166.4 43.2,-197.2 241.55,-197.2 241.55,-166.4 43.2,-166.4"/>
<text text-anchor="start" x="50.2" y="-178.6" font-family="Arial" font-size="14.00">linkedInUrl </text>
<text text-anchor="start" x="120.23" y="-178.6" font-family="Arial" font-size="14.00" fill="#666666">[string]</text>
<polygon fill="none" stroke="black" points="43.2,-135.6 43.2,-166.4 241.55,-166.4 241.55,-135.6 43.2,-135.6"/>
<text text-anchor="start" x="50.2" y="-147.8" font-family="Arial" font-size="14.00">companyId </text>
<text text-anchor="start" x="122.57" y="-147.8" font-family="Arial" font-size="14.00" fill="#666666">[uuid]</text>
<polygon fill="none" stroke="black" points="43.2,-104.8 43.2,-135.6 241.55,-135.6 241.55,-104.8 43.2,-104.8"/>
<text text-anchor="start" x="50.2" y="-117" font-family="Arial" font-size="14.00">company </text>
<text text-anchor="start" x="110.9" y="-117" font-family="Arial" font-size="14.00" fill="#666666">[Company]</text>
<polygon fill="none" stroke="black" points="43.2,-74 43.2,-104.8 241.55,-104.8 241.55,-74 43.2,-74"/>
<text text-anchor="start" x="50.2" y="-86.2" font-family="Arial" font-size="14.00">createdAt </text>
<text text-anchor="start" x="114.01" y="-86.2" font-family="Arial" font-size="14.00" fill="#666666">[datetime]</text>
<polygon fill="none" stroke="black" points="43.2,-43.2 43.2,-74 241.55,-74 241.55,-43.2 43.2,-43.2"/>
<text text-anchor="start" x="50.2" y="-55.4" font-family="Arial" font-size="14.00">updatedAt </text>
<text text-anchor="start" x="117.92" y="-55.4" font-family="Arial" font-size="14.00" fill="#666666">[datetime]</text>
</g>
<!-- EngagementContact&#45;&gt;Contact -->
<g id="edge1" class="edge">
<title>EngagementContact:contactId&#45;&gt;Contact:id</title>
<path fill="none" stroke="black" d="M146.87,-711.82C64.76,-702.15 107.41,-573.71 158.22,-496.8 180.46,-463.14 219.21,-494.4 241.55,-460.8 264.73,-425.94 284.42,-366.6 242.55,-366.6"/>
<polygon fill="black" stroke="black" points="146.9,-711.82 156.63,-716.87 152.23,-712.12 156.55,-712.36 156.55,-712.36 156.55,-712.36 152.23,-712.12 157.14,-707.89 146.9,-711.82"/>
<text text-anchor="start" x="36.83" y="-722.4" font-family="Arial" font-size="10.00">ForeignKeyType: Contact</text>
</g>
<!-- Engagement -->
<g id="node3" class="node">
<title>Engagement</title>
<polygon fill="#efefef" stroke="none" points="346.21,-320.4 346.21,-356 578.54,-356 578.54,-320.4 346.21,-320.4"/>
<polygon fill="none" stroke="black" points="346.21,-320.4 346.21,-356 578.54,-356 578.54,-320.4 346.21,-320.4"/>
<text text-anchor="start" x="353.21" y="-333.8" font-family="Arial Bold" font-size="18.00">Engagement</text>
<text text-anchor="start" x="443.18" y="-333.8" font-family="Arial" font-size="14.00">    </text>
<text text-anchor="start" x="474.29" y="-333.8" font-family="Arial" font-size="14.00" fill="#666666">[TailorDB.Type]</text>
<polygon fill="none" stroke="black" points="346.21,-289.6 346.21,-320.4 578.54,-320.4 578.54,-289.6 346.21,-289.6"/>
<text text-anchor="start" x="353.21" y="-301.8" font-family="Arial" font-size="14.00">id </text>
<text text-anchor="start" x="368" y="-301.8" font-family="Arial" font-size="14.00" fill="#666666">[uuid]</text>
<polygon fill="none" stroke="black" points="346.21,-258.8 346.21,-289.6 578.54,-289.6 578.54,-258.8 346.21,-258.8"/>
<text text-anchor="start" x="353.21" y="-271" font-family="Arial" font-size="14.00">active </text>
<text text-anchor="start" x="393.67" y="-271" font-family="Arial" font-size="14.00" fill="#666666">[boolean]</text>
<polygon fill="none" stroke="black" points="346.21,-228 346.21,-258.8 578.54,-258.8 578.54,-228 346.21,-228"/>
<text text-anchor="start" x="353.21" y="-240.2" font-family="Arial" font-size="14.00">activityType </text>
<text text-anchor="start" x="431.01" y="-240.2" font-family="Arial" font-size="14.00" fill="#666666">[string]</text>
<polygon fill="none" stroke="black" points="346.21,-197.2 346.21,-228 578.54,-228 578.54,-197.2 346.21,-197.2"/>
<text text-anchor="start" x="353.21" y="-209.4" font-family="Arial" font-size="14.00">userId </text>
<text text-anchor="start" x="396.01" y="-209.4" font-family="Arial" font-size="14.00" fill="#666666">[uuid]</text>
<polygon fill="none" stroke="black" points="346.21,-166.4 346.21,-197.2 578.54,-197.2 578.54,-166.4 346.21,-166.4"/>
<text text-anchor="start" x="353.21" y="-178.6" font-family="Arial" font-size="14.00">type </text>
<text text-anchor="start" x="383.56" y="-178.6" font-family="Arial" font-size="14.00" fill="#666666">[string]</text>
<polygon fill="none" stroke="black" points="346.21,-135.6 346.21,-166.4 578.54,-166.4 578.54,-135.6 346.21,-135.6"/>
<text text-anchor="start" x="353.21" y="-147.8" font-family="Arial" font-size="14.00">createdAt </text>
<text text-anchor="start" x="417.02" y="-147.8" font-family="Arial" font-size="14.00" fill="#666666">[datetime]</text>
<polygon fill="none" stroke="black" points="346.21,-104.8 346.21,-135.6 578.54,-135.6 578.54,-104.8 346.21,-104.8"/>
<text text-anchor="start" x="353.21" y="-117" font-family="Arial" font-size="14.00">updatedAt </text>
<text text-anchor="start" x="420.93" y="-117" font-family="Arial" font-size="14.00" fill="#666666">[datetime]</text>
</g>
<!-- EngagementContact&#45;&gt;Engagement -->
<g id="edge2" class="edge">
<title>EngagementContact:engagementId&#45;&gt;Engagement:id</title>
<path fill="none" stroke="black" d="M457.79,-650C511.37,-640.93 471.9,-556.32 446.53,-496.8 422.15,-439.57 370.72,-456.38 346.21,-399.2 329.72,-360.72 303.34,-305 345.21,-305"/>
<polygon fill="black" stroke="black" points="457.84,-650 447.52,-646.29 452.52,-650.41 448.2,-650.75 448.2,-650.75 448.2,-650.75 452.52,-650.41 448.22,-655.26 457.84,-650"/>
<text text-anchor="start" x="454.53" y="-660.8" font-family="Arial" font-size="10.00">ForeignKeyType: Engagement</text>
</g>
</g>
</svg>
