<?xml version="1.0" encoding="UTF-8" standalone="no"?>
<!DOCTYPE svg PUBLIC "-//W3C//DTD SVG 1.1//EN"
 "http://www.w3.org/Graphics/SVG/1.1/DTD/svg11.dtd">
<!-- Generated by graphviz version 12.1.2 (20240928.0832)
 -->
<!-- Title: TeamUser Pages: 1 -->
<svg width="522pt" height="725pt"
 viewBox="0.00 0.00 521.60 725.20" xmlns="http://www.w3.org/2000/svg" xmlns:xlink="http://www.w3.org/1999/xlink">
<g id="graph0" class="graph" transform="scale(1 1) rotate(0) translate(4 721.2)">
<title>TeamUser</title>
<polygon fill="white" stroke="none" points="-4,4 -4,-721.2 517.6,-721.2 517.6,4 -4,4"/>
<!-- TeamUser -->
<g id="node1" class="node">
<title>TeamUser</title>
<polygon fill="#efefef" stroke="none" points="159.21,-635.4 159.21,-671 357.89,-671 357.89,-635.4 159.21,-635.4"/>
<polygon fill="none" stroke="black" points="159.21,-635.4 159.21,-671 357.89,-671 357.89,-635.4 159.21,-635.4"/>
<text text-anchor="start" x="166.21" y="-648.8" font-family="Arial Bold" font-size="18.00">TeamUser</text>
<text text-anchor="start" x="241.17" y="-648.8" font-family="Arial" font-size="14.00">    </text>
<text text-anchor="start" x="272.29" y="-648.8" font-family="Arial" font-size="14.00" fill="#666666">[Base Table]</text>
<polygon fill="none" stroke="black" points="159.21,-604.6 159.21,-635.4 357.89,-635.4 357.89,-604.6 159.21,-604.6"/>
<text text-anchor="start" x="166.21" y="-616.8" font-family="Arial" font-size="14.00">id </text>
<text text-anchor="start" x="180.99" y="-616.8" font-family="Arial" font-size="14.00" fill="#666666">[uuid]</text>
<polygon fill="none" stroke="black" points="159.21,-573.8 159.21,-604.6 357.89,-604.6 357.89,-573.8 159.21,-573.8"/>
<text text-anchor="start" x="166.21" y="-586" font-family="Arial" font-size="14.00">teamId </text>
<text text-anchor="start" x="212.9" y="-586" font-family="Arial" font-size="14.00" fill="#666666">[uuid]</text>
<polygon fill="none" stroke="black" points="159.21,-543 159.21,-573.8 357.89,-573.8 357.89,-543 159.21,-543"/>
<text text-anchor="start" x="166.21" y="-555.2" font-family="Arial" font-size="14.00">team </text>
<text text-anchor="start" x="201.22" y="-555.2" font-family="Arial" font-size="14.00" fill="#666666">[Team]</text>
<polygon fill="none" stroke="black" points="159.21,-512.2 159.21,-543 357.89,-543 357.89,-512.2 159.21,-512.2"/>
<text text-anchor="start" x="166.21" y="-524.4" font-family="Arial" font-size="14.00">userId </text>
<text text-anchor="start" x="209.01" y="-524.4" font-family="Arial" font-size="14.00" fill="#666666">[uuid]</text>
<polygon fill="none" stroke="black" points="159.21,-481.4 159.21,-512.2 357.89,-512.2 357.89,-481.4 159.21,-481.4"/>
<text text-anchor="start" x="166.21" y="-493.6" font-family="Arial" font-size="14.00">user </text>
<text text-anchor="start" x="197.33" y="-493.6" font-family="Arial" font-size="14.00" fill="#666666">[User]</text>
<polygon fill="none" stroke="black" points="159.21,-450.6 159.21,-481.4 357.89,-481.4 357.89,-450.6 159.21,-450.6"/>
<text text-anchor="start" x="166.21" y="-462.8" font-family="Arial" font-size="14.00">isSecondaryUser </text>
<text text-anchor="start" x="276.7" y="-462.8" font-family="Arial" font-size="14.00" fill="#666666">[boolean]</text>
<polygon fill="none" stroke="black" points="159.21,-419.8 159.21,-450.6 357.89,-450.6 357.89,-419.8 159.21,-419.8"/>
<text text-anchor="start" x="166.21" y="-432" font-family="Arial" font-size="14.00">createdAt </text>
<text text-anchor="start" x="230.02" y="-432" font-family="Arial" font-size="14.00" fill="#666666">[datetime]</text>
<polygon fill="none" stroke="black" points="159.21,-389 159.21,-419.8 357.89,-419.8 357.89,-389 159.21,-389"/>
<text text-anchor="start" x="166.21" y="-401.2" font-family="Arial" font-size="14.00">updatedAt </text>
<text text-anchor="start" x="233.93" y="-401.2" font-family="Arial" font-size="14.00" fill="#666666">[datetime]</text>
<polygon fill="none" stroke="black" stroke-width="3" points="157.71,-387.5 157.71,-672.5 359.39,-672.5 359.39,-387.5 157.71,-387.5"/>
</g>
<!-- Team -->
<g id="node2" class="node">
<title>Team</title>
<polygon fill="#efefef" stroke="none" points="43.2,-212.6 43.2,-248.2 207.89,-248.2 207.89,-212.6 43.2,-212.6"/>
<polygon fill="none" stroke="black" points="43.2,-212.6 43.2,-248.2 207.89,-248.2 207.89,-212.6 43.2,-212.6"/>
<text text-anchor="start" x="50.2" y="-226" font-family="Arial Bold" font-size="18.00">Team</text>
<text text-anchor="start" x="91.17" y="-226" font-family="Arial" font-size="14.00">    </text>
<text text-anchor="start" x="122.29" y="-226" font-family="Arial" font-size="14.00" fill="#666666">[Base Table]</text>
<polygon fill="none" stroke="black" points="43.2,-181.8 43.2,-212.6 207.89,-212.6 207.89,-181.8 43.2,-181.8"/>
<text text-anchor="start" x="50.2" y="-194" font-family="Arial" font-size="14.00">id </text>
<text text-anchor="start" x="64.99" y="-194" font-family="Arial" font-size="14.00" fill="#666666">[uuid]</text>
<polygon fill="none" stroke="black" points="43.2,-151 43.2,-181.8 207.89,-181.8 207.89,-151 43.2,-151"/>
<text text-anchor="start" x="50.2" y="-163.2" font-family="Arial" font-size="14.00">name </text>
<text text-anchor="start" x="89.11" y="-163.2" font-family="Arial" font-size="14.00" fill="#666666">[string]</text>
<polygon fill="none" stroke="black" points="43.2,-120.2 43.2,-151 207.89,-151 207.89,-120.2 43.2,-120.2"/>
<text text-anchor="start" x="50.2" y="-132.4" font-family="Arial" font-size="14.00">isDeleted </text>
<text text-anchor="start" x="112.45" y="-132.4" font-family="Arial" font-size="14.00" fill="#666666">[boolean]</text>
<polygon fill="none" stroke="black" points="43.2,-89.4 43.2,-120.2 207.89,-120.2 207.89,-89.4 43.2,-89.4"/>
<text text-anchor="start" x="50.2" y="-101.6" font-family="Arial" font-size="14.00">createdAt </text>
<text text-anchor="start" x="114.01" y="-101.6" font-family="Arial" font-size="14.00" fill="#666666">[datetime]</text>
<polygon fill="none" stroke="black" points="43.2,-58.6 43.2,-89.4 207.89,-89.4 207.89,-58.6 43.2,-58.6"/>
<text text-anchor="start" x="50.2" y="-70.8" font-family="Arial" font-size="14.00">updatedAt </text>
<text text-anchor="start" x="117.92" y="-70.8" font-family="Arial" font-size="14.00" fill="#666666">[datetime]</text>
</g>
<!-- TeamUser&#45;&gt;Team -->
<g id="edge1" class="edge">
<title>TeamUser:teamId&#45;&gt;Team:id</title>
<path fill="none" stroke="black" d="M147.88,-588.73C53.3,-579.64 119.82,-441.08 159.21,-342.8 170.91,-313.59 196.09,-320.57 207.89,-291.4 223.59,-252.59 250.76,-197.2 208.89,-197.2"/>
<polygon fill="black" stroke="black" points="147.88,-588.73 157.67,-593.68 153.21,-588.97 157.54,-589.17 157.54,-589.17 157.54,-589.17 153.21,-588.97 158.08,-584.69 147.88,-588.73"/>
<text text-anchor="start" x="100.07" y="-599.2" font-family="Arial" font-size="10.00">ForeignKey</text>
</g>
<!-- User -->
<g id="node3" class="node">
<title>User</title>
<polygon fill="#efefef" stroke="none" points="312.69,-228 312.69,-263.6 470.4,-263.6 470.4,-228 312.69,-228"/>
<polygon fill="none" stroke="black" points="312.69,-228 312.69,-263.6 470.4,-263.6 470.4,-228 312.69,-228"/>
<text text-anchor="start" x="319.69" y="-241.4" font-family="Arial Bold" font-size="18.00">User</text>
<text text-anchor="start" x="353.68" y="-241.4" font-family="Arial" font-size="14.00">    </text>
<text text-anchor="start" x="384.8" y="-241.4" font-family="Arial" font-size="14.00" fill="#666666">[Base Table]</text>
<polygon fill="none" stroke="black" points="312.69,-197.2 312.69,-228 470.4,-228 470.4,-197.2 312.69,-197.2"/>
<text text-anchor="start" x="319.69" y="-209.4" font-family="Arial" font-size="14.00">id </text>
<text text-anchor="start" x="334.48" y="-209.4" font-family="Arial" font-size="14.00" fill="#666666">[uuid]</text>
<polygon fill="none" stroke="black" points="312.69,-166.4 312.69,-197.2 470.4,-197.2 470.4,-166.4 312.69,-166.4"/>
<text text-anchor="start" x="319.69" y="-178.6" font-family="Arial" font-size="14.00">name </text>
<text text-anchor="start" x="358.6" y="-178.6" font-family="Arial" font-size="14.00" fill="#666666">[string]</text>
<polygon fill="none" stroke="black" points="312.69,-135.6 312.69,-166.4 470.4,-166.4 470.4,-135.6 312.69,-135.6"/>
<text text-anchor="start" x="319.69" y="-147.8" font-family="Arial" font-size="14.00">email </text>
<text text-anchor="start" x="357.04" y="-147.8" font-family="Arial" font-size="14.00" fill="#666666">[string]</text>
<polygon fill="none" stroke="black" points="312.69,-104.8 312.69,-135.6 470.4,-135.6 470.4,-104.8 312.69,-104.8"/>
<text text-anchor="start" x="319.69" y="-117" font-family="Arial" font-size="14.00">roles </text>
<text text-anchor="start" x="353.93" y="-117" font-family="Arial" font-size="14.00" fill="#666666">[uuid]</text>
<polygon fill="none" stroke="black" points="312.69,-74 312.69,-104.8 470.4,-104.8 470.4,-74 312.69,-74"/>
<text text-anchor="start" x="319.69" y="-86.2" font-family="Arial" font-size="14.00">createdAt </text>
<text text-anchor="start" x="383.51" y="-86.2" font-family="Arial" font-size="14.00" fill="#666666">[datetime]</text>
<polygon fill="none" stroke="black" points="312.69,-43.2 312.69,-74 470.4,-74 470.4,-43.2 312.69,-43.2"/>
<text text-anchor="start" x="319.69" y="-55.4" font-family="Arial" font-size="14.00">updatedAt </text>
<text text-anchor="start" x="387.42" y="-55.4" font-family="Arial" font-size="14.00" fill="#666666">[datetime]</text>
</g>
<!-- TeamUser&#45;&gt;User -->
<g id="edge2" class="edge">
<title>TeamUser:userId&#45;&gt;User:id</title>
<path fill="none" stroke="black" d="M369.18,-526.94C436.79,-517.71 392.13,-413.38 357.89,-342.8 346.67,-319.7 323.96,-329.87 312.69,-306.8 294.32,-269.18 269.82,-212.6 311.69,-212.6"/>
<polygon fill="black" stroke="black" points="369.2,-526.94 358.93,-523.09 363.87,-527.28 359.55,-527.56 359.55,-527.56 359.55,-527.56 363.87,-527.28 359.51,-532.07 369.2,-526.94"/>
<text text-anchor="start" x="365.89" y="-537.6" font-family="Arial" font-size="10.00">ForeignKey</text>
</g>
</g>
</svg>
