<?xml version="1.0" encoding="UTF-8" standalone="no"?>
<!DOCTYPE svg PUBLIC "-//W3C//DTD SVG 1.1//EN"
 "http://www.w3.org/Graphics/SVG/1.1/DTD/svg11.dtd">
<!-- Generated by graphviz version 12.1.2 (20240928.0832)
 -->
<!-- Title: User Pages: 1 -->
<svg width="874pt" height="941pt"
 viewBox="0.00 0.00 873.59 940.80" xmlns="http://www.w3.org/2000/svg" xmlns:xlink="http://www.w3.org/1999/xlink">
<g id="graph0" class="graph" transform="scale(1 1) rotate(0) translate(4 936.8)">
<title>User</title>
<polygon fill="white" stroke="none" points="-4,4 -4,-936.8 869.59,-936.8 869.59,4 -4,4"/>
<!-- User -->
<g id="node1" class="node">
<title>User</title>
<polygon fill="#efefef" stroke="none" points="333.2,-231 333.2,-266.6 490.9,-266.6 490.9,-231 333.2,-231"/>
<polygon fill="none" stroke="black" points="333.2,-231 333.2,-266.6 490.9,-266.6 490.9,-231 333.2,-231"/>
<text text-anchor="start" x="340.2" y="-244.4" font-family="Arial Bold" font-size="18.00">User</text>
<text text-anchor="start" x="374.18" y="-244.4" font-family="Arial" font-size="14.00">    </text>
<text text-anchor="start" x="405.3" y="-244.4" font-family="Arial" font-size="14.00" fill="#666666">[Base Table]</text>
<polygon fill="none" stroke="black" points="333.2,-200.2 333.2,-231 490.9,-231 490.9,-200.2 333.2,-200.2"/>
<text text-anchor="start" x="340.2" y="-212.4" font-family="Arial" font-size="14.00">id </text>
<text text-anchor="start" x="354.98" y="-212.4" font-family="Arial" font-size="14.00" fill="#666666">[uuid]</text>
<polygon fill="none" stroke="black" points="333.2,-169.4 333.2,-200.2 490.9,-200.2 490.9,-169.4 333.2,-169.4"/>
<text text-anchor="start" x="340.2" y="-181.6" font-family="Arial" font-size="14.00">name </text>
<text text-anchor="start" x="379.11" y="-181.6" font-family="Arial" font-size="14.00" fill="#666666">[string]</text>
<polygon fill="none" stroke="black" points="333.2,-138.6 333.2,-169.4 490.9,-169.4 490.9,-138.6 333.2,-138.6"/>
<text text-anchor="start" x="340.2" y="-150.8" font-family="Arial" font-size="14.00">email </text>
<text text-anchor="start" x="377.54" y="-150.8" font-family="Arial" font-size="14.00" fill="#666666">[string]</text>
<polygon fill="none" stroke="black" points="333.2,-107.8 333.2,-138.6 490.9,-138.6 490.9,-107.8 333.2,-107.8"/>
<text text-anchor="start" x="340.2" y="-120" font-family="Arial" font-size="14.00">roles </text>
<text text-anchor="start" x="374.43" y="-120" font-family="Arial" font-size="14.00" fill="#666666">[uuid]</text>
<polygon fill="none" stroke="black" points="333.2,-77 333.2,-107.8 490.9,-107.8 490.9,-77 333.2,-77"/>
<text text-anchor="start" x="340.2" y="-89.2" font-family="Arial" font-size="14.00">createdAt </text>
<text text-anchor="start" x="404.01" y="-89.2" font-family="Arial" font-size="14.00" fill="#666666">[datetime]</text>
<polygon fill="none" stroke="black" points="333.2,-46.2 333.2,-77 490.9,-77 490.9,-46.2 333.2,-46.2"/>
<text text-anchor="start" x="340.2" y="-58.4" font-family="Arial" font-size="14.00">updatedAt </text>
<text text-anchor="start" x="407.92" y="-58.4" font-family="Arial" font-size="14.00" fill="#666666">[datetime]</text>
<polygon fill="none" stroke="black" stroke-width="3" points="331.7,-44.7 331.7,-268.1 492.4,-268.1 492.4,-44.7 331.7,-44.7"/>
</g>
<!-- Deal -->
<g id="node2" class="node">
<title>Deal</title>
<polygon fill="#efefef" stroke="none" points="43.2,-854 43.2,-889.6 200.9,-889.6 200.9,-854 43.2,-854"/>
<polygon fill="none" stroke="black" points="43.2,-854 43.2,-889.6 200.9,-889.6 200.9,-854 43.2,-854"/>
<text text-anchor="start" x="50.2" y="-867.4" font-family="Arial Bold" font-size="18.00">Deal</text>
<text text-anchor="start" x="84.18" y="-867.4" font-family="Arial" font-size="14.00">    </text>
<text text-anchor="start" x="115.3" y="-867.4" font-family="Arial" font-size="14.00" fill="#666666">[Base Table]</text>
<polygon fill="none" stroke="black" points="43.2,-823.2 43.2,-854 200.9,-854 200.9,-823.2 43.2,-823.2"/>
<text text-anchor="start" x="50.2" y="-835.4" font-family="Arial" font-size="14.00">id </text>
<text text-anchor="start" x="64.99" y="-835.4" font-family="Arial" font-size="14.00" fill="#666666">[uuid]</text>
<polygon fill="none" stroke="black" points="43.2,-792.4 43.2,-823.2 200.9,-823.2 200.9,-792.4 43.2,-792.4"/>
<text text-anchor="start" x="50.2" y="-804.6" font-family="Arial" font-size="14.00">updatedAt </text>
<text text-anchor="start" x="117.92" y="-804.6" font-family="Arial" font-size="14.00" fill="#666666">[datetime]</text>
<polygon fill="none" stroke="black" points="43.2,-761.6 43.2,-792.4 200.9,-792.4 200.9,-761.6 43.2,-761.6"/>
<text text-anchor="start" x="50.2" y="-773.8" font-family="Arial" font-size="14.00">amount </text>
<text text-anchor="start" x="100.79" y="-773.8" font-family="Arial" font-size="14.00" fill="#666666">[float]</text>
<polygon fill="none" stroke="black" points="43.2,-730.8 43.2,-761.6 200.9,-761.6 200.9,-730.8 43.2,-730.8"/>
<text text-anchor="start" x="50.2" y="-743" font-family="Arial" font-size="14.00">value </text>
<text text-anchor="start" x="87.56" y="-743" font-family="Arial" font-size="14.00" fill="#666666">[float]</text>
<polygon fill="none" stroke="black" points="43.2,-700 43.2,-730.8 200.9,-730.8 200.9,-700 43.2,-700"/>
<text text-anchor="start" x="50.2" y="-712.2" font-family="Arial" font-size="14.00">userId </text>
<text text-anchor="start" x="93" y="-712.2" font-family="Arial" font-size="14.00" fill="#666666">[uuid]</text>
<polygon fill="none" stroke="black" points="43.2,-669.2 43.2,-700 200.9,-700 200.9,-669.2 43.2,-669.2"/>
<text text-anchor="start" x="50.2" y="-681.4" font-family="Arial" font-size="14.00">contactId </text>
<text text-anchor="start" x="110.9" y="-681.4" font-family="Arial" font-size="14.00" fill="#666666">[uuid]</text>
<polygon fill="none" stroke="black" points="43.2,-638.4 43.2,-669.2 200.9,-669.2 200.9,-638.4 43.2,-638.4"/>
<text text-anchor="start" x="50.2" y="-650.6" font-family="Arial" font-size="14.00">isDeleted </text>
<text text-anchor="start" x="112.45" y="-650.6" font-family="Arial" font-size="14.00" fill="#666666">[boolean]</text>
<polygon fill="none" stroke="black" points="43.2,-607.6 43.2,-638.4 200.9,-638.4 200.9,-607.6 43.2,-607.6"/>
<text text-anchor="start" x="50.2" y="-619.8" font-family="Arial" font-size="14.00">company </text>
<text text-anchor="start" x="110.9" y="-619.8" font-family="Arial" font-size="14.00" fill="#666666">[Company]</text>
<polygon fill="none" stroke="black" points="43.2,-576.8 43.2,-607.6 200.9,-607.6 200.9,-576.8 43.2,-576.8"/>
<text text-anchor="start" x="50.2" y="-589" font-family="Arial" font-size="14.00">probability </text>
<text text-anchor="start" x="117.9" y="-589" font-family="Arial" font-size="14.00" fill="#666666">[float]</text>
<polygon fill="none" stroke="black" points="43.2,-546 43.2,-576.8 200.9,-576.8 200.9,-546 43.2,-546"/>
<text text-anchor="start" x="50.2" y="-558.2" font-family="Arial" font-size="14.00">dealStageId </text>
<text text-anchor="start" x="128.82" y="-558.2" font-family="Arial" font-size="14.00" fill="#666666">[uuid]</text>
<polygon fill="none" stroke="black" points="43.2,-515.2 43.2,-546 200.9,-546 200.9,-515.2 43.2,-515.2"/>
<text text-anchor="start" x="50.2" y="-527.4" font-family="Arial" font-size="14.00">dealStage </text>
<text text-anchor="start" x="117.14" y="-527.4" font-family="Arial" font-size="14.00" fill="#666666">[DealStage]</text>
<polygon fill="none" stroke="black" points="43.2,-484.4 43.2,-515.2 200.9,-515.2 200.9,-484.4 43.2,-484.4"/>
<text text-anchor="start" x="50.2" y="-496.6" font-family="Arial" font-size="14.00">createdAt </text>
<text text-anchor="start" x="114.01" y="-496.6" font-family="Arial" font-size="14.00" fill="#666666">[datetime]</text>
<polygon fill="none" stroke="black" points="43.2,-453.6 43.2,-484.4 200.9,-484.4 200.9,-453.6 43.2,-453.6"/>
<text text-anchor="start" x="50.2" y="-465.8" font-family="Arial" font-size="14.00">user </text>
<text text-anchor="start" x="81.32" y="-465.8" font-family="Arial" font-size="14.00" fill="#666666">[User]</text>
<polygon fill="none" stroke="black" points="43.2,-422.8 43.2,-453.6 200.9,-453.6 200.9,-422.8 43.2,-422.8"/>
<text text-anchor="start" x="50.2" y="-435" font-family="Arial" font-size="14.00">companyId </text>
<text text-anchor="start" x="122.57" y="-435" font-family="Arial" font-size="14.00" fill="#666666">[uuid]</text>
<polygon fill="none" stroke="black" points="43.2,-392 43.2,-422.8 200.9,-422.8 200.9,-392 43.2,-392"/>
<text text-anchor="start" x="50.2" y="-404.2" font-family="Arial" font-size="14.00">contact </text>
<text text-anchor="start" x="99.23" y="-404.2" font-family="Arial" font-size="14.00" fill="#666666">[Contact]</text>
</g>
<!-- Deal&#45;&gt;User -->
<g id="edge1" class="edge">
<title>Deal:userId&#45;&gt;User:id</title>
<path fill="none" stroke="black" d="M212.15,-713.7C279.08,-689.86 227.04,-422.93 253.05,-348.8 275.84,-283.82 263.33,-215.6 332.2,-215.6"/>
<polygon fill="black" stroke="black" points="212.09,-713.71 201.49,-710.91 206.83,-714.58 202.56,-715.29 202.56,-715.29 202.56,-715.29 206.83,-714.58 202.96,-719.78 212.09,-713.71"/>
<text text-anchor="start" x="192.61" y="-699.4" font-family="Arial" font-size="10.00">ForeignKey</text>
</g>
<!-- Engagement -->
<g id="node3" class="node">
<title>Engagement</title>
<polygon fill="#efefef" stroke="none" points="305.21,-730.8 305.21,-766.4 518.89,-766.4 518.89,-730.8 305.21,-730.8"/>
<polygon fill="none" stroke="black" points="305.21,-730.8 305.21,-766.4 518.89,-766.4 518.89,-730.8 305.21,-730.8"/>
<text text-anchor="start" x="312.21" y="-744.2" font-family="Arial Bold" font-size="18.00">Engagement</text>
<text text-anchor="start" x="402.17" y="-744.2" font-family="Arial" font-size="14.00">    </text>
<text text-anchor="start" x="433.29" y="-744.2" font-family="Arial" font-size="14.00" fill="#666666">[Base Table]</text>
<polygon fill="none" stroke="black" points="305.21,-700 305.21,-730.8 518.89,-730.8 518.89,-700 305.21,-700"/>
<text text-anchor="start" x="312.21" y="-712.2" font-family="Arial" font-size="14.00">id </text>
<text text-anchor="start" x="326.99" y="-712.2" font-family="Arial" font-size="14.00" fill="#666666">[uuid]</text>
<polygon fill="none" stroke="black" points="305.21,-669.2 305.21,-700 518.89,-700 518.89,-669.2 305.21,-669.2"/>
<text text-anchor="start" x="312.21" y="-681.4" font-family="Arial" font-size="14.00">active </text>
<text text-anchor="start" x="352.67" y="-681.4" font-family="Arial" font-size="14.00" fill="#666666">[boolean]</text>
<polygon fill="none" stroke="black" points="305.21,-638.4 305.21,-669.2 518.89,-669.2 518.89,-638.4 305.21,-638.4"/>
<text text-anchor="start" x="312.21" y="-650.6" font-family="Arial" font-size="14.00">activityType </text>
<text text-anchor="start" x="390.01" y="-650.6" font-family="Arial" font-size="14.00" fill="#666666">[string]</text>
<polygon fill="none" stroke="black" points="305.21,-607.6 305.21,-638.4 518.89,-638.4 518.89,-607.6 305.21,-607.6"/>
<text text-anchor="start" x="312.21" y="-619.8" font-family="Arial" font-size="14.00">userId </text>
<text text-anchor="start" x="355.01" y="-619.8" font-family="Arial" font-size="14.00" fill="#666666">[uuid]</text>
<polygon fill="none" stroke="black" points="305.21,-576.8 305.21,-607.6 518.89,-607.6 518.89,-576.8 305.21,-576.8"/>
<text text-anchor="start" x="312.21" y="-589" font-family="Arial" font-size="14.00">type </text>
<text text-anchor="start" x="342.56" y="-589" font-family="Arial" font-size="14.00" fill="#666666">[string]</text>
<polygon fill="none" stroke="black" points="305.21,-546 305.21,-576.8 518.89,-576.8 518.89,-546 305.21,-546"/>
<text text-anchor="start" x="312.21" y="-558.2" font-family="Arial" font-size="14.00">createdAt </text>
<text text-anchor="start" x="376.02" y="-558.2" font-family="Arial" font-size="14.00" fill="#666666">[datetime]</text>
<polygon fill="none" stroke="black" points="305.21,-515.2 305.21,-546 518.89,-546 518.89,-515.2 305.21,-515.2"/>
<text text-anchor="start" x="312.21" y="-527.4" font-family="Arial" font-size="14.00">updatedAt </text>
<text text-anchor="start" x="379.93" y="-527.4" font-family="Arial" font-size="14.00" fill="#666666">[datetime]</text>
</g>
<!-- Engagement&#45;&gt;User -->
<g id="edge2" class="edge">
<title>Engagement:userId&#45;&gt;User:id</title>
<path fill="none" stroke="black" d="M528.39,-617.24C561.24,-567.72 534.08,-215.6 491.9,-215.6"/>
<polygon fill="black" stroke="black" points="528.44,-617.2 517.64,-619.09 524.03,-620.2 520.44,-622.62 520.44,-622.62 520.44,-622.62 524.03,-620.2 522.69,-626.54 528.44,-617.2"/>
<text text-anchor="start" x="510.6" y="-607" font-family="Arial" font-size="10.00">ForeignKey</text>
</g>
<!-- TeamUser -->
<g id="node4" class="node">
<title>TeamUser</title>
<polygon fill="#efefef" stroke="none" points="623.71,-746.2 623.71,-781.8 822.39,-781.8 822.39,-746.2 623.71,-746.2"/>
<polygon fill="none" stroke="black" points="623.71,-746.2 623.71,-781.8 822.39,-781.8 822.39,-746.2 623.71,-746.2"/>
<text text-anchor="start" x="630.71" y="-759.6" font-family="Arial Bold" font-size="18.00">TeamUser</text>
<text text-anchor="start" x="705.67" y="-759.6" font-family="Arial" font-size="14.00">    </text>
<text text-anchor="start" x="736.79" y="-759.6" font-family="Arial" font-size="14.00" fill="#666666">[Base Table]</text>
<polygon fill="none" stroke="black" points="623.71,-715.4 623.71,-746.2 822.39,-746.2 822.39,-715.4 623.71,-715.4"/>
<text text-anchor="start" x="630.71" y="-727.6" font-family="Arial" font-size="14.00">id </text>
<text text-anchor="start" x="645.49" y="-727.6" font-family="Arial" font-size="14.00" fill="#666666">[uuid]</text>
<polygon fill="none" stroke="black" points="623.71,-684.6 623.71,-715.4 822.39,-715.4 822.39,-684.6 623.71,-684.6"/>
<text text-anchor="start" x="630.71" y="-696.8" font-family="Arial" font-size="14.00">teamId </text>
<text text-anchor="start" x="677.4" y="-696.8" font-family="Arial" font-size="14.00" fill="#666666">[uuid]</text>
<polygon fill="none" stroke="black" points="623.71,-653.8 623.71,-684.6 822.39,-684.6 822.39,-653.8 623.71,-653.8"/>
<text text-anchor="start" x="630.71" y="-666" font-family="Arial" font-size="14.00">team </text>
<text text-anchor="start" x="665.72" y="-666" font-family="Arial" font-size="14.00" fill="#666666">[Team]</text>
<polygon fill="none" stroke="black" points="623.71,-623 623.71,-653.8 822.39,-653.8 822.39,-623 623.71,-623"/>
<text text-anchor="start" x="630.71" y="-635.2" font-family="Arial" font-size="14.00">userId </text>
<text text-anchor="start" x="673.51" y="-635.2" font-family="Arial" font-size="14.00" fill="#666666">[uuid]</text>
<polygon fill="none" stroke="black" points="623.71,-592.2 623.71,-623 822.39,-623 822.39,-592.2 623.71,-592.2"/>
<text text-anchor="start" x="630.71" y="-604.4" font-family="Arial" font-size="14.00">user </text>
<text text-anchor="start" x="661.83" y="-604.4" font-family="Arial" font-size="14.00" fill="#666666">[User]</text>
<polygon fill="none" stroke="black" points="623.71,-561.4 623.71,-592.2 822.39,-592.2 822.39,-561.4 623.71,-561.4"/>
<text text-anchor="start" x="630.71" y="-573.6" font-family="Arial" font-size="14.00">isSecondaryUser </text>
<text text-anchor="start" x="741.2" y="-573.6" font-family="Arial" font-size="14.00" fill="#666666">[boolean]</text>
<polygon fill="none" stroke="black" points="623.71,-530.6 623.71,-561.4 822.39,-561.4 822.39,-530.6 623.71,-530.6"/>
<text text-anchor="start" x="630.71" y="-542.8" font-family="Arial" font-size="14.00">createdAt </text>
<text text-anchor="start" x="694.52" y="-542.8" font-family="Arial" font-size="14.00" fill="#666666">[datetime]</text>
<polygon fill="none" stroke="black" points="623.71,-499.8 623.71,-530.6 822.39,-530.6 822.39,-499.8 623.71,-499.8"/>
<text text-anchor="start" x="630.71" y="-512" font-family="Arial" font-size="14.00">updatedAt </text>
<text text-anchor="start" x="698.43" y="-512" font-family="Arial" font-size="14.00" fill="#666666">[datetime]</text>
</g>
<!-- TeamUser&#45;&gt;User -->
<g id="edge3" class="edge">
<title>TeamUser:userId&#45;&gt;User:id</title>
<path fill="none" stroke="black" d="M612.55,-636.27C561.28,-613.07 592.56,-406.59 571.05,-348.8 547.03,-284.26 560.76,-215.6 491.9,-215.6"/>
<polygon fill="black" stroke="black" points="612.59,-636.28 621.46,-642.74 617.81,-637.38 622.05,-638.26 622.05,-638.26 622.05,-638.26 617.81,-637.38 623.3,-633.93 612.59,-636.28"/>
<text text-anchor="start" x="580.86" y="-622.4" font-family="Arial" font-size="10.00">ForeignKey</text>
</g>
</g>
</svg>
