<?xml version="1.0" encoding="UTF-8" standalone="no"?>
<!DOCTYPE svg PUBLIC "-//W3C//DTD SVG 1.1//EN"
 "http://www.w3.org/Graphics/SVG/1.1/DTD/svg11.dtd">
<!-- Generated by graphviz version 12.1.2 (20240928.0832)
 -->
<!-- Title: User Pages: 1 -->
<svg width="592pt" height="941pt"
 viewBox="0.00 0.00 592.24 940.80" xmlns="http://www.w3.org/2000/svg" xmlns:xlink="http://www.w3.org/1999/xlink">
<g id="graph0" class="graph" transform="scale(1 1) rotate(0) translate(4 936.8)">
<title>User</title>
<polygon fill="white" stroke="none" points="-4,4 -4,-936.8 588.24,-936.8 588.24,4 -4,4"/>
<!-- User -->
<g id="node1" class="node">
<title>User</title>
<polygon fill="#efefef" stroke="none" points="193.2,-231 193.2,-266.6 369.55,-266.6 369.55,-231 193.2,-231"/>
<polygon fill="none" stroke="black" points="193.2,-231 193.2,-266.6 369.55,-266.6 369.55,-231 193.2,-231"/>
<text text-anchor="start" x="200.2" y="-244.4" font-family="Arial Bold" font-size="18.00">User</text>
<text text-anchor="start" x="234.18" y="-244.4" font-family="Arial" font-size="14.00">    </text>
<text text-anchor="start" x="265.3" y="-244.4" font-family="Arial" font-size="14.00" fill="#666666">[TailorDB.Type]</text>
<polygon fill="none" stroke="black" points="193.2,-200.2 193.2,-231 369.55,-231 369.55,-200.2 193.2,-200.2"/>
<text text-anchor="start" x="200.2" y="-212.4" font-family="Arial" font-size="14.00">id </text>
<text text-anchor="start" x="214.98" y="-212.4" font-family="Arial" font-size="14.00" fill="#666666">[uuid]</text>
<polygon fill="none" stroke="black" points="193.2,-169.4 193.2,-200.2 369.55,-200.2 369.55,-169.4 193.2,-169.4"/>
<text text-anchor="start" x="200.2" y="-181.6" font-family="Arial" font-size="14.00">name </text>
<text text-anchor="start" x="239.11" y="-181.6" font-family="Arial" font-size="14.00" fill="#666666">[string]</text>
<polygon fill="none" stroke="black" points="193.2,-138.6 193.2,-169.4 369.55,-169.4 369.55,-138.6 193.2,-138.6"/>
<text text-anchor="start" x="200.2" y="-150.8" font-family="Arial" font-size="14.00">email </text>
<text text-anchor="start" x="237.54" y="-150.8" font-family="Arial" font-size="14.00" fill="#666666">[string]</text>
<polygon fill="none" stroke="black" points="193.2,-107.8 193.2,-138.6 369.55,-138.6 369.55,-107.8 193.2,-107.8"/>
<text text-anchor="start" x="200.2" y="-120" font-family="Arial" font-size="14.00">roles </text>
<text text-anchor="start" x="234.43" y="-120" font-family="Arial" font-size="14.00" fill="#666666">[Array\&lt;uuid\&gt;]</text>
<polygon fill="none" stroke="black" points="193.2,-77 193.2,-107.8 369.55,-107.8 369.55,-77 193.2,-77"/>
<text text-anchor="start" x="200.2" y="-89.2" font-family="Arial" font-size="14.00">createdAt </text>
<text text-anchor="start" x="264.01" y="-89.2" font-family="Arial" font-size="14.00" fill="#666666">[datetime]</text>
<polygon fill="none" stroke="black" points="193.2,-46.2 193.2,-77 369.55,-77 369.55,-46.2 193.2,-46.2"/>
<text text-anchor="start" x="200.2" y="-58.4" font-family="Arial" font-size="14.00">updatedAt </text>
<text text-anchor="start" x="267.92" y="-58.4" font-family="Arial" font-size="14.00" fill="#666666">[datetime]</text>
<polygon fill="none" stroke="black" stroke-width="3" points="191.7,-44.7 191.7,-268.1 371.05,-268.1 371.05,-44.7 191.7,-44.7"/>
</g>
<!-- Deal -->
<g id="node2" class="node">
<title>Deal</title>
<polygon fill="#efefef" stroke="none" points="43.2,-854 43.2,-889.6 219.54,-889.6 219.54,-854 43.2,-854"/>
<polygon fill="none" stroke="black" points="43.2,-854 43.2,-889.6 219.54,-889.6 219.54,-854 43.2,-854"/>
<text text-anchor="start" x="50.2" y="-867.4" font-family="Arial Bold" font-size="18.00">Deal</text>
<text text-anchor="start" x="84.18" y="-867.4" font-family="Arial" font-size="14.00">    </text>
<text text-anchor="start" x="115.3" y="-867.4" font-family="Arial" font-size="14.00" fill="#666666">[TailorDB.Type]</text>
<polygon fill="none" stroke="black" points="43.2,-823.2 43.2,-854 219.54,-854 219.54,-823.2 43.2,-823.2"/>
<text text-anchor="start" x="50.2" y="-835.4" font-family="Arial" font-size="14.00">id </text>
<text text-anchor="start" x="64.99" y="-835.4" font-family="Arial" font-size="14.00" fill="#666666">[uuid]</text>
<polygon fill="none" stroke="black" points="43.2,-792.4 43.2,-823.2 219.54,-823.2 219.54,-792.4 43.2,-792.4"/>
<text text-anchor="start" x="50.2" y="-804.6" font-family="Arial" font-size="14.00">amount </text>
<text text-anchor="start" x="100.79" y="-804.6" font-family="Arial" font-size="14.00" fill="#666666">[float]</text>
<polygon fill="none" stroke="black" points="43.2,-761.6 43.2,-792.4 219.54,-792.4 219.54,-761.6 43.2,-761.6"/>
<text text-anchor="start" x="50.2" y="-773.8" font-family="Arial" font-size="14.00">probability </text>
<text text-anchor="start" x="117.9" y="-773.8" font-family="Arial" font-size="14.00" fill="#666666">[float]</text>
<polygon fill="none" stroke="black" points="43.2,-730.8 43.2,-761.6 219.54,-761.6 219.54,-730.8 43.2,-730.8"/>
<text text-anchor="start" x="50.2" y="-743" font-family="Arial" font-size="14.00">value </text>
<text text-anchor="start" x="87.56" y="-743" font-family="Arial" font-size="14.00" fill="#666666">[float]</text>
<polygon fill="none" stroke="black" points="43.2,-700 43.2,-730.8 219.54,-730.8 219.54,-700 43.2,-700"/>
<text text-anchor="start" x="50.2" y="-712.2" font-family="Arial" font-size="14.00">isDeleted </text>
<text text-anchor="start" x="112.45" y="-712.2" font-family="Arial" font-size="14.00" fill="#666666">[boolean]</text>
<polygon fill="none" stroke="black" points="43.2,-669.2 43.2,-700 219.54,-700 219.54,-669.2 43.2,-669.2"/>
<text text-anchor="start" x="50.2" y="-681.4" font-family="Arial" font-size="14.00">dealStageId </text>
<text text-anchor="start" x="128.82" y="-681.4" font-family="Arial" font-size="14.00" fill="#666666">[uuid]</text>
<polygon fill="none" stroke="black" points="43.2,-638.4 43.2,-669.2 219.54,-669.2 219.54,-638.4 43.2,-638.4"/>
<text text-anchor="start" x="50.2" y="-650.6" font-family="Arial" font-size="14.00">dealStage </text>
<text text-anchor="start" x="117.14" y="-650.6" font-family="Arial" font-size="14.00" fill="#666666">[DealStage]</text>
<polygon fill="none" stroke="black" points="43.2,-607.6 43.2,-638.4 219.54,-638.4 219.54,-607.6 43.2,-607.6"/>
<text text-anchor="start" x="50.2" y="-619.8" font-family="Arial" font-size="14.00">userId </text>
<text text-anchor="start" x="93" y="-619.8" font-family="Arial" font-size="14.00" fill="#666666">[uuid]</text>
<polygon fill="none" stroke="black" points="43.2,-576.8 43.2,-607.6 219.54,-607.6 219.54,-576.8 43.2,-576.8"/>
<text text-anchor="start" x="50.2" y="-589" font-family="Arial" font-size="14.00">user </text>
<text text-anchor="start" x="81.32" y="-589" font-family="Arial" font-size="14.00" fill="#666666">[User]</text>
<polygon fill="none" stroke="black" points="43.2,-546 43.2,-576.8 219.54,-576.8 219.54,-546 43.2,-546"/>
<text text-anchor="start" x="50.2" y="-558.2" font-family="Arial" font-size="14.00">companyId </text>
<text text-anchor="start" x="122.57" y="-558.2" font-family="Arial" font-size="14.00" fill="#666666">[uuid]</text>
<polygon fill="none" stroke="black" points="43.2,-515.2 43.2,-546 219.54,-546 219.54,-515.2 43.2,-515.2"/>
<text text-anchor="start" x="50.2" y="-527.4" font-family="Arial" font-size="14.00">company </text>
<text text-anchor="start" x="110.9" y="-527.4" font-family="Arial" font-size="14.00" fill="#666666">[Company]</text>
<polygon fill="none" stroke="black" points="43.2,-484.4 43.2,-515.2 219.54,-515.2 219.54,-484.4 43.2,-484.4"/>
<text text-anchor="start" x="50.2" y="-496.6" font-family="Arial" font-size="14.00">contactId </text>
<text text-anchor="start" x="110.9" y="-496.6" font-family="Arial" font-size="14.00" fill="#666666">[uuid]</text>
<polygon fill="none" stroke="black" points="43.2,-453.6 43.2,-484.4 219.54,-484.4 219.54,-453.6 43.2,-453.6"/>
<text text-anchor="start" x="50.2" y="-465.8" font-family="Arial" font-size="14.00">contact </text>
<text text-anchor="start" x="99.23" y="-465.8" font-family="Arial" font-size="14.00" fill="#666666">[Contact]</text>
<polygon fill="none" stroke="black" points="43.2,-422.8 43.2,-453.6 219.54,-453.6 219.54,-422.8 43.2,-422.8"/>
<text text-anchor="start" x="50.2" y="-435" font-family="Arial" font-size="14.00">createdAt </text>
<text text-anchor="start" x="114.01" y="-435" font-family="Arial" font-size="14.00" fill="#666666">[datetime]</text>
<polygon fill="none" stroke="black" points="43.2,-392 43.2,-422.8 219.54,-422.8 219.54,-392 43.2,-392"/>
<text text-anchor="start" x="50.2" y="-404.2" font-family="Arial" font-size="14.00">updatedAt </text>
<text text-anchor="start" x="117.92" y="-404.2" font-family="Arial" font-size="14.00" fill="#666666">[datetime]</text>
</g>
<!-- Deal&#45;&gt;User -->
<g id="edge1" class="edge">
<title>Deal:userId&#45;&gt;User:id</title>
<path fill="none" stroke="black" d="M230.5,-620.7C276.37,-597.39 237.43,-403.18 219.54,-348.8 213.35,-329.96 199.45,-331.61 193.2,-312.8 179.56,-271.81 148.99,-215.6 192.2,-215.6"/>
<polygon fill="black" stroke="black" points="230.61,-620.68 219.86,-618.54 225.42,-621.88 221.2,-622.85 221.2,-622.85 221.2,-622.85 225.42,-621.88 221.88,-627.31 230.61,-620.68"/>
<text text-anchor="start" x="227.54" y="-633" font-family="Arial" font-size="10.00">ForeignKeyType: User</text>
</g>
<!-- TeamUser -->
<g id="node3" class="node">
<title>TeamUser</title>
<polygon fill="#efefef" stroke="none" points="323.71,-746.2 323.71,-781.8 541.04,-781.8 541.04,-746.2 323.71,-746.2"/>
<polygon fill="none" stroke="black" points="323.71,-746.2 323.71,-781.8 541.04,-781.8 541.04,-746.2 323.71,-746.2"/>
<text text-anchor="start" x="330.71" y="-759.6" font-family="Arial Bold" font-size="18.00">TeamUser</text>
<text text-anchor="start" x="405.67" y="-759.6" font-family="Arial" font-size="14.00">    </text>
<text text-anchor="start" x="436.79" y="-759.6" font-family="Arial" font-size="14.00" fill="#666666">[TailorDB.Type]</text>
<polygon fill="none" stroke="black" points="323.71,-715.4 323.71,-746.2 541.04,-746.2 541.04,-715.4 323.71,-715.4"/>
<text text-anchor="start" x="330.71" y="-727.6" font-family="Arial" font-size="14.00">id </text>
<text text-anchor="start" x="345.49" y="-727.6" font-family="Arial" font-size="14.00" fill="#666666">[uuid]</text>
<polygon fill="none" stroke="black" points="323.71,-684.6 323.71,-715.4 541.04,-715.4 541.04,-684.6 323.71,-684.6"/>
<text text-anchor="start" x="330.71" y="-696.8" font-family="Arial" font-size="14.00">teamId </text>
<text text-anchor="start" x="377.4" y="-696.8" font-family="Arial" font-size="14.00" fill="#666666">[uuid]</text>
<polygon fill="none" stroke="black" points="323.71,-653.8 323.71,-684.6 541.04,-684.6 541.04,-653.8 323.71,-653.8"/>
<text text-anchor="start" x="330.71" y="-666" font-family="Arial" font-size="14.00">team </text>
<text text-anchor="start" x="365.72" y="-666" font-family="Arial" font-size="14.00" fill="#666666">[Team]</text>
<polygon fill="none" stroke="black" points="323.71,-623 323.71,-653.8 541.04,-653.8 541.04,-623 323.71,-623"/>
<text text-anchor="start" x="330.71" y="-635.2" font-family="Arial" font-size="14.00">userId </text>
<text text-anchor="start" x="373.51" y="-635.2" font-family="Arial" font-size="14.00" fill="#666666">[uuid]</text>
<polygon fill="none" stroke="black" points="323.71,-592.2 323.71,-623 541.04,-623 541.04,-592.2 323.71,-592.2"/>
<text text-anchor="start" x="330.71" y="-604.4" font-family="Arial" font-size="14.00">user </text>
<text text-anchor="start" x="361.83" y="-604.4" font-family="Arial" font-size="14.00" fill="#666666">[User]</text>
<polygon fill="none" stroke="black" points="323.71,-561.4 323.71,-592.2 541.04,-592.2 541.04,-561.4 323.71,-561.4"/>
<text text-anchor="start" x="330.71" y="-573.6" font-family="Arial" font-size="14.00">isSecondaryUser </text>
<text text-anchor="start" x="441.2" y="-573.6" font-family="Arial" font-size="14.00" fill="#666666">[boolean]</text>
<polygon fill="none" stroke="black" points="323.71,-530.6 323.71,-561.4 541.04,-561.4 541.04,-530.6 323.71,-530.6"/>
<text text-anchor="start" x="330.71" y="-542.8" font-family="Arial" font-size="14.00">createdAt </text>
<text text-anchor="start" x="394.52" y="-542.8" font-family="Arial" font-size="14.00" fill="#666666">[datetime]</text>
<polygon fill="none" stroke="black" points="323.71,-499.8 323.71,-530.6 541.04,-530.6 541.04,-499.8 323.71,-499.8"/>
<text text-anchor="start" x="330.71" y="-512" font-family="Arial" font-size="14.00">updatedAt </text>
<text text-anchor="start" x="398.43" y="-512" font-family="Arial" font-size="14.00" fill="#666666">[datetime]</text>
</g>
<!-- TeamUser&#45;&gt;User -->
<g id="edge2" class="edge">
<title>TeamUser:userId&#45;&gt;User:id</title>
<path fill="none" stroke="black" d="M312.31,-637.74C248.27,-628.89 311.66,-532.67 323.71,-456.6 334.2,-390.35 358.9,-379.03 369.55,-312.8 376.41,-270.15 413.75,-215.6 370.55,-215.6"/>
<polygon fill="black" stroke="black" points="312.39,-637.75 322.09,-642.87 317.72,-638.08 322.04,-638.36 322.04,-638.36 322.04,-638.36 317.72,-638.08 322.66,-633.89 312.39,-637.75"/>
<text text-anchor="start" x="329.71" y="-648.4" font-family="Arial" font-size="10.00">ForeignKeyType: User</text>
</g>
</g>
</svg>
