<?xml version="1.0" encoding="UTF-8" standalone="no"?>
<!DOCTYPE svg PUBLIC "-//W3C//DTD SVG 1.1//EN"
 "http://www.w3.org/Graphics/SVG/1.1/DTD/svg11.dtd">
<!-- Generated by graphviz version 12.1.2 (20240928.0832)
 -->
<!-- Title: ContactListMember Pages: 1 -->
<svg width="485pt" height="694pt"
 viewBox="0.00 0.00 485.48 694.40" xmlns="http://www.w3.org/2000/svg" xmlns:xlink="http://www.w3.org/1999/xlink">
<g id="graph0" class="graph" transform="scale(1 1) rotate(0) translate(4 690.4)">
<title>ContactListMember</title>
<polygon fill="white" stroke="none" points="-4,4 -4,-690.4 481.48,-690.4 481.48,4 -4,4"/>
<!-- ContactListMember -->
<g id="node1" class="node">
<title>ContactListMember</title>
<polygon fill="#efefef" stroke="none" points="46.2,-604.6 46.2,-640.2 333.53,-640.2 333.53,-604.6 46.2,-604.6"/>
<polygon fill="none" stroke="black" points="46.2,-604.6 46.2,-640.2 333.53,-640.2 333.53,-604.6 46.2,-604.6"/>
<text text-anchor="start" x="53.2" y="-618" font-family="Arial Bold" font-size="18.00">ContactListMember</text>
<text text-anchor="start" x="198.17" y="-618" font-family="Arial" font-size="14.00">    </text>
<text text-anchor="start" x="229.28" y="-618" font-family="Arial" font-size="14.00" fill="#666666">[TailorDB.Type]</text>
<polygon fill="none" stroke="black" points="46.2,-573.8 46.2,-604.6 333.53,-604.6 333.53,-573.8 46.2,-573.8"/>
<text text-anchor="start" x="53.2" y="-586" font-family="Arial" font-size="14.00">id </text>
<text text-anchor="start" x="67.99" y="-586" font-family="Arial" font-size="14.00" fill="#666666">[uuid]</text>
<polygon fill="none" stroke="black" points="46.2,-543 46.2,-573.8 333.53,-573.8 333.53,-543 46.2,-543"/>
<text text-anchor="start" x="53.2" y="-555.2" font-family="Arial" font-size="14.00">contactListId </text>
<text text-anchor="start" x="135.69" y="-555.2" font-family="Arial" font-size="14.00" fill="#666666">[uuid]</text>
<polygon fill="none" stroke="black" points="46.2,-512.2 46.2,-543 333.53,-543 333.53,-512.2 46.2,-512.2"/>
<text text-anchor="start" x="53.2" y="-524.4" font-family="Arial" font-size="14.00">contactList </text>
<text text-anchor="start" x="124.01" y="-524.4" font-family="Arial" font-size="14.00" fill="#666666">[ContactList]</text>
<polygon fill="none" stroke="black" points="46.2,-481.4 46.2,-512.2 333.53,-512.2 333.53,-481.4 46.2,-481.4"/>
<text text-anchor="start" x="53.2" y="-493.6" font-family="Arial" font-size="14.00">addedAt </text>
<text text-anchor="start" x="109.25" y="-493.6" font-family="Arial" font-size="14.00" fill="#666666">[string]</text>
<polygon fill="none" stroke="black" points="46.2,-450.6 46.2,-481.4 333.53,-481.4 333.53,-450.6 46.2,-450.6"/>
<text text-anchor="start" x="53.2" y="-462.8" font-family="Arial" font-size="14.00">createdAt </text>
<text text-anchor="start" x="117.01" y="-462.8" font-family="Arial" font-size="14.00" fill="#666666">[datetime]</text>
<polygon fill="none" stroke="black" points="46.2,-419.8 46.2,-450.6 333.53,-450.6 333.53,-419.8 46.2,-419.8"/>
<text text-anchor="start" x="53.2" y="-432" font-family="Arial" font-size="14.00">updatedAt </text>
<text text-anchor="start" x="120.92" y="-432" font-family="Arial" font-size="14.00" fill="#666666">[datetime]</text>
<polygon fill="none" stroke="black" points="46.2,-389 46.2,-419.8 333.53,-419.8 333.53,-389 46.2,-389"/>
<text text-anchor="start" x="53.2" y="-401.2" font-family="Arial" font-size="14.00">contactId </text>
<text text-anchor="start" x="113.9" y="-401.2" font-family="Arial" font-size="14.00" fill="#666666">[uuid]</text>
<polygon fill="none" stroke="black" points="46.2,-358.2 46.2,-389 333.53,-389 333.53,-358.2 46.2,-358.2"/>
<text text-anchor="start" x="53.2" y="-370.4" font-family="Arial" font-size="14.00">contact </text>
<text text-anchor="start" x="102.23" y="-370.4" font-family="Arial" font-size="14.00" fill="#666666">[Contact]</text>
<polygon fill="none" stroke="black" stroke-width="3" points="44.7,-356.7 44.7,-641.7 335.03,-641.7 335.03,-356.7 44.7,-356.7"/>
</g>
<!-- ContactList -->
<g id="node2" class="node">
<title>ContactList</title>
<polygon fill="#efefef" stroke="none" points="76.69,-197.2 76.69,-232.8 303.04,-232.8 303.04,-197.2 76.69,-197.2"/>
<polygon fill="none" stroke="black" points="76.69,-197.2 76.69,-232.8 303.04,-232.8 303.04,-197.2 76.69,-197.2"/>
<text text-anchor="start" x="83.69" y="-210.6" font-family="Arial Bold" font-size="18.00">ContactList</text>
<text text-anchor="start" x="167.68" y="-210.6" font-family="Arial" font-size="14.00">    </text>
<text text-anchor="start" x="198.79" y="-210.6" font-family="Arial" font-size="14.00" fill="#666666">[TailorDB.Type]</text>
<polygon fill="none" stroke="black" points="76.69,-166.4 76.69,-197.2 303.04,-197.2 303.04,-166.4 76.69,-166.4"/>
<text text-anchor="start" x="83.69" y="-178.6" font-family="Arial" font-size="14.00">id </text>
<text text-anchor="start" x="98.48" y="-178.6" font-family="Arial" font-size="14.00" fill="#666666">[uuid]</text>
<polygon fill="none" stroke="black" points="76.69,-135.6 76.69,-166.4 303.04,-166.4 303.04,-135.6 76.69,-135.6"/>
<text text-anchor="start" x="83.69" y="-147.8" font-family="Arial" font-size="14.00">isDeleted </text>
<text text-anchor="start" x="145.94" y="-147.8" font-family="Arial" font-size="14.00" fill="#666666">[boolean]</text>
<polygon fill="none" stroke="black" points="76.69,-104.8 76.69,-135.6 303.04,-135.6 303.04,-104.8 76.69,-104.8"/>
<text text-anchor="start" x="83.69" y="-117" font-family="Arial" font-size="14.00">name </text>
<text text-anchor="start" x="122.6" y="-117" font-family="Arial" font-size="14.00" fill="#666666">[string]</text>
<polygon fill="none" stroke="black" points="76.69,-74 76.69,-104.8 303.04,-104.8 303.04,-74 76.69,-74"/>
<text text-anchor="start" x="83.69" y="-86.2" font-family="Arial" font-size="14.00">createdAt </text>
<text text-anchor="start" x="147.5" y="-86.2" font-family="Arial" font-size="14.00" fill="#666666">[datetime]</text>
<polygon fill="none" stroke="black" points="76.69,-43.2 76.69,-74 303.04,-74 303.04,-43.2 76.69,-43.2"/>
<text text-anchor="start" x="83.69" y="-55.4" font-family="Arial" font-size="14.00">updatedAt </text>
<text text-anchor="start" x="151.41" y="-55.4" font-family="Arial" font-size="14.00" fill="#666666">[datetime]</text>
</g>
<!-- ContactListMember&#45;&gt;ContactList -->
<g id="edge1" class="edge">
<title>ContactListMember:contactListId&#45;&gt;ContactList:id</title>
<path fill="none" stroke="black" d="M344.73,-556.37C415.78,-526.73 384.4,-181.8 304.04,-181.8"/>
<polygon fill="black" stroke="black" points="344.67,-556.39 333.98,-553.92 339.44,-557.43 335.19,-558.27 335.19,-558.27 335.19,-558.27 339.44,-557.43 335.74,-562.75 344.67,-556.39"/>
<text text-anchor="start" x="341.53" y="-568.4" font-family="Arial" font-size="10.00">ForeignKeyType: ContactList</text>
</g>
</g>
</svg>
