<?xml version="1.0" encoding="UTF-8" standalone="no"?>
<!DOCTYPE svg PUBLIC "-//W3C//DTD SVG 1.1//EN"
 "http://www.w3.org/Graphics/SVG/1.1/DTD/svg11.dtd">
<!-- Generated by graphviz version 12.1.2 (20240928.0832)
 -->
<!-- Title: Contact Pages: 1 -->
<svg width="1606pt" height="1649pt"
 viewBox="0.00 0.00 1606.23 1649.20" xmlns="http://www.w3.org/2000/svg" xmlns:xlink="http://www.w3.org/1999/xlink">
<g id="graph0" class="graph" transform="scale(1 1) rotate(0) translate(4 1645.2)">
<title>Contact</title>
<polygon fill="white" stroke="none" points="-4,4 -4,-1645.2 1602.23,-1645.2 1602.23,4 -4,4"/>
<!-- Contact -->
<g id="node1" class="node">
<title>Contact</title>
<polygon fill="#efefef" stroke="none" points="996.19,-662.2 996.19,-697.8 1194.55,-697.8 1194.55,-662.2 996.19,-662.2"/>
<polygon fill="none" stroke="black" points="996.19,-662.2 996.19,-697.8 1194.55,-697.8 1194.55,-662.2 996.19,-662.2"/>
<text text-anchor="start" x="1003.19" y="-675.6" font-family="Arial Bold" font-size="18.00">Contact</text>
<text text-anchor="start" x="1059.18" y="-675.6" font-family="Arial" font-size="14.00">    </text>
<text text-anchor="start" x="1090.3" y="-675.6" font-family="Arial" font-size="14.00" fill="#666666">[TailorDB.Type]</text>
<polygon fill="none" stroke="black" points="996.19,-631.4 996.19,-662.2 1194.55,-662.2 1194.55,-631.4 996.19,-631.4"/>
<text text-anchor="start" x="1003.19" y="-643.6" font-family="Arial" font-size="14.00">id </text>
<text text-anchor="start" x="1017.98" y="-643.6" font-family="Arial" font-size="14.00" fill="#666666">[uuid]</text>
<polygon fill="none" stroke="black" points="996.19,-600.6 996.19,-631.4 1194.55,-631.4 1194.55,-600.6 996.19,-600.6"/>
<text text-anchor="start" x="1003.19" y="-612.8" font-family="Arial" font-size="14.00">active </text>
<text text-anchor="start" x="1043.66" y="-612.8" font-family="Arial" font-size="14.00" fill="#666666">[boolean]</text>
<polygon fill="none" stroke="black" points="996.19,-569.8 996.19,-600.6 1194.55,-600.6 1194.55,-569.8 996.19,-569.8"/>
<text text-anchor="start" x="1003.19" y="-582" font-family="Arial" font-size="14.00">createdAt </text>
<text text-anchor="start" x="1067.01" y="-582" font-family="Arial" font-size="14.00" fill="#666666">[datetime]</text>
<polygon fill="none" stroke="black" points="996.19,-539 996.19,-569.8 1194.55,-569.8 1194.55,-539 996.19,-539"/>
<text text-anchor="start" x="1003.19" y="-551.2" font-family="Arial" font-size="14.00">name </text>
<text text-anchor="start" x="1042.1" y="-551.2" font-family="Arial" font-size="14.00" fill="#666666">[string]</text>
<polygon fill="none" stroke="black" points="996.19,-508.2 996.19,-539 1194.55,-539 1194.55,-508.2 996.19,-508.2"/>
<text text-anchor="start" x="1003.19" y="-520.4" font-family="Arial" font-size="14.00">email </text>
<text text-anchor="start" x="1040.54" y="-520.4" font-family="Arial" font-size="14.00" fill="#666666">[string]</text>
<polygon fill="none" stroke="black" points="996.19,-477.4 996.19,-508.2 1194.55,-508.2 1194.55,-477.4 996.19,-477.4"/>
<text text-anchor="start" x="1003.19" y="-489.6" font-family="Arial" font-size="14.00">phone </text>
<text text-anchor="start" x="1046.01" y="-489.6" font-family="Arial" font-size="14.00" fill="#666666">[string]</text>
<polygon fill="none" stroke="black" points="996.19,-446.6 996.19,-477.4 1194.55,-477.4 1194.55,-446.6 996.19,-446.6"/>
<text text-anchor="start" x="1003.19" y="-458.8" font-family="Arial" font-size="14.00">address1 </text>
<text text-anchor="start" x="1064.68" y="-458.8" font-family="Arial" font-size="14.00" fill="#666666">[string]</text>
<polygon fill="none" stroke="black" points="996.19,-415.8 996.19,-446.6 1194.55,-446.6 1194.55,-415.8 996.19,-415.8"/>
<text text-anchor="start" x="1003.19" y="-428" font-family="Arial" font-size="14.00">address2 </text>
<text text-anchor="start" x="1064.68" y="-428" font-family="Arial" font-size="14.00" fill="#666666">[string]</text>
<polygon fill="none" stroke="black" points="996.19,-385 996.19,-415.8 1194.55,-415.8 1194.55,-385 996.19,-385"/>
<text text-anchor="start" x="1003.19" y="-397.2" font-family="Arial" font-size="14.00">city </text>
<text text-anchor="start" x="1028.08" y="-397.2" font-family="Arial" font-size="14.00" fill="#666666">[string]</text>
<polygon fill="none" stroke="black" points="996.19,-354.2 996.19,-385 1194.55,-385 1194.55,-354.2 996.19,-354.2"/>
<text text-anchor="start" x="1003.19" y="-366.4" font-family="Arial" font-size="14.00">province </text>
<text text-anchor="start" x="1060" y="-366.4" font-family="Arial" font-size="14.00" fill="#666666">[string]</text>
<polygon fill="none" stroke="black" points="996.19,-323.4 996.19,-354.2 1194.55,-354.2 1194.55,-323.4 996.19,-323.4"/>
<text text-anchor="start" x="1003.19" y="-335.6" font-family="Arial" font-size="14.00">country </text>
<text text-anchor="start" x="1052.99" y="-335.6" font-family="Arial" font-size="14.00" fill="#666666">[string]</text>
<polygon fill="none" stroke="black" points="996.19,-292.6 996.19,-323.4 1194.55,-323.4 1194.55,-292.6 996.19,-292.6"/>
<text text-anchor="start" x="1003.19" y="-304.8" font-family="Arial" font-size="14.00">updatedAt </text>
<text text-anchor="start" x="1070.92" y="-304.8" font-family="Arial" font-size="14.00" fill="#666666">[datetime]</text>
<polygon fill="none" stroke="black" points="996.19,-261.8 996.19,-292.6 1194.55,-292.6 1194.55,-261.8 996.19,-261.8"/>
<text text-anchor="start" x="1003.19" y="-274" font-family="Arial" font-size="14.00">zip </text>
<text text-anchor="start" x="1024.98" y="-274" font-family="Arial" font-size="14.00" fill="#666666">[string]</text>
<polygon fill="none" stroke="black" points="996.19,-231 996.19,-261.8 1194.55,-261.8 1194.55,-231 996.19,-231"/>
<text text-anchor="start" x="1003.19" y="-243.2" font-family="Arial" font-size="14.00">countryCode </text>
<text text-anchor="start" x="1086.46" y="-243.2" font-family="Arial" font-size="14.00" fill="#666666">[string]</text>
<polygon fill="none" stroke="black" points="996.19,-200.2 996.19,-231 1194.55,-231 1194.55,-200.2 996.19,-200.2"/>
<text text-anchor="start" x="1003.19" y="-212.4" font-family="Arial" font-size="14.00">company </text>
<text text-anchor="start" x="1063.89" y="-212.4" font-family="Arial" font-size="14.00" fill="#666666">[string]</text>
<polygon fill="none" stroke="black" points="996.19,-169.4 996.19,-200.2 1194.55,-200.2 1194.55,-169.4 996.19,-169.4"/>
<text text-anchor="start" x="1003.19" y="-181.6" font-family="Arial" font-size="14.00">provinceCode </text>
<text text-anchor="start" x="1093.47" y="-181.6" font-family="Arial" font-size="14.00" fill="#666666">[string]</text>
<polygon fill="none" stroke="black" points="996.19,-138.6 996.19,-169.4 1194.55,-169.4 1194.55,-138.6 996.19,-138.6"/>
<text text-anchor="start" x="1003.19" y="-150.8" font-family="Arial" font-size="14.00">quickBookCustomerId </text>
<text text-anchor="start" x="1144.03" y="-150.8" font-family="Arial" font-size="14.00" fill="#666666">[string]</text>
<polygon fill="none" stroke="black" points="996.19,-107.8 996.19,-138.6 1194.55,-138.6 1194.55,-107.8 996.19,-107.8"/>
<text text-anchor="start" x="1003.19" y="-120" font-family="Arial" font-size="14.00">openBalance </text>
<text text-anchor="start" x="1088.82" y="-120" font-family="Arial" font-size="14.00" fill="#666666">[float]</text>
<polygon fill="none" stroke="black" points="996.19,-77 996.19,-107.8 1194.55,-107.8 1194.55,-77 996.19,-77"/>
<text text-anchor="start" x="1003.19" y="-89.2" font-family="Arial" font-size="14.00">creditLimit </text>
<text text-anchor="start" x="1070.88" y="-89.2" font-family="Arial" font-size="14.00" fill="#666666">[float]</text>
<polygon fill="none" stroke="black" points="996.19,-46.2 996.19,-77 1194.55,-77 1194.55,-46.2 996.19,-46.2"/>
<text text-anchor="start" x="1003.19" y="-58.4" font-family="Arial" font-size="14.00">availableCredit </text>
<text text-anchor="start" x="1099.69" y="-58.4" font-family="Arial" font-size="14.00" fill="#666666">[float]</text>
<polygon fill="none" stroke="black" stroke-width="3" points="994.69,-44.7 994.69,-699.3 1196.05,-699.3 1196.05,-44.7 994.69,-44.7"/>
</g>
<!-- Invoice -->
<g id="node2" class="node">
<title>Invoice</title>
<polygon fill="#efefef" stroke="none" points="43.2,-1393 43.2,-1428.6 239.54,-1428.6 239.54,-1393 43.2,-1393"/>
<polygon fill="none" stroke="black" points="43.2,-1393 43.2,-1428.6 239.54,-1428.6 239.54,-1393 43.2,-1393"/>
<text text-anchor="start" x="50.2" y="-1406.4" font-family="Arial Bold" font-size="18.00">Invoice</text>
<text text-anchor="start" x="104.17" y="-1406.4" font-family="Arial" font-size="14.00">    </text>
<text text-anchor="start" x="135.29" y="-1406.4" font-family="Arial" font-size="14.00" fill="#666666">[TailorDB.Type]</text>
<polygon fill="none" stroke="black" points="43.2,-1362.2 43.2,-1393 239.54,-1393 239.54,-1362.2 43.2,-1362.2"/>
<text text-anchor="start" x="50.2" y="-1374.4" font-family="Arial" font-size="14.00">id </text>
<text text-anchor="start" x="64.99" y="-1374.4" font-family="Arial" font-size="14.00" fill="#666666">[uuid]</text>
<polygon fill="none" stroke="black" points="43.2,-1331.4 43.2,-1362.2 239.54,-1362.2 239.54,-1331.4 43.2,-1331.4"/>
<text text-anchor="start" x="50.2" y="-1343.6" font-family="Arial" font-size="14.00">active </text>
<text text-anchor="start" x="90.66" y="-1343.6" font-family="Arial" font-size="14.00" fill="#666666">[boolean]</text>
<polygon fill="none" stroke="black" points="43.2,-1300.6 43.2,-1331.4 239.54,-1331.4 239.54,-1300.6 43.2,-1300.6"/>
<text text-anchor="start" x="50.2" y="-1312.8" font-family="Arial" font-size="14.00">createdAt </text>
<text text-anchor="start" x="114.01" y="-1312.8" font-family="Arial" font-size="14.00" fill="#666666">[datetime]</text>
<polygon fill="none" stroke="black" points="43.2,-1269.8 43.2,-1300.6 239.54,-1300.6 239.54,-1269.8 43.2,-1269.8"/>
<text text-anchor="start" x="50.2" y="-1282" font-family="Arial" font-size="14.00">invoiceNumber </text>
<text text-anchor="start" x="147.46" y="-1282" font-family="Arial" font-size="14.00" fill="#666666">[string]</text>
<polygon fill="none" stroke="black" points="43.2,-1239 43.2,-1269.8 239.54,-1269.8 239.54,-1239 43.2,-1239"/>
<text text-anchor="start" x="50.2" y="-1251.2" font-family="Arial" font-size="14.00">customerID </text>
<text text-anchor="start" x="125.66" y="-1251.2" font-family="Arial" font-size="14.00" fill="#666666">[uuid]</text>
<polygon fill="none" stroke="black" points="43.2,-1208.2 43.2,-1239 239.54,-1239 239.54,-1208.2 43.2,-1208.2"/>
<text text-anchor="start" x="50.2" y="-1220.4" font-family="Arial" font-size="14.00">customer </text>
<text text-anchor="start" x="111.66" y="-1220.4" font-family="Arial" font-size="14.00" fill="#666666">[Contact]</text>
<polygon fill="none" stroke="black" points="43.2,-1177.4 43.2,-1208.2 239.54,-1208.2 239.54,-1177.4 43.2,-1177.4"/>
<text text-anchor="start" x="50.2" y="-1189.6" font-family="Arial" font-size="14.00">shipmentID </text>
<text text-anchor="start" x="124.9" y="-1189.6" font-family="Arial" font-size="14.00" fill="#666666">[uuid]</text>
<polygon fill="none" stroke="black" points="43.2,-1146.6 43.2,-1177.4 239.54,-1177.4 239.54,-1146.6 43.2,-1146.6"/>
<text text-anchor="start" x="50.2" y="-1158.8" font-family="Arial" font-size="14.00">shipment </text>
<text text-anchor="start" x="110.9" y="-1158.8" font-family="Arial" font-size="14.00" fill="#666666">[Shipment]</text>
<polygon fill="none" stroke="black" points="43.2,-1115.8 43.2,-1146.6 239.54,-1146.6 239.54,-1115.8 43.2,-1115.8"/>
<text text-anchor="start" x="50.2" y="-1128" font-family="Arial" font-size="14.00">date </text>
<text text-anchor="start" x="81.34" y="-1128" font-family="Arial" font-size="14.00" fill="#666666">[datetime]</text>
<polygon fill="none" stroke="black" points="43.2,-1085 43.2,-1115.8 239.54,-1115.8 239.54,-1085 43.2,-1085"/>
<text text-anchor="start" x="50.2" y="-1097.2" font-family="Arial" font-size="14.00">quickbookInvoiceId </text>
<text text-anchor="start" x="173.16" y="-1097.2" font-family="Arial" font-size="14.00" fill="#666666">[string]</text>
<polygon fill="none" stroke="black" points="43.2,-1054.2 43.2,-1085 239.54,-1085 239.54,-1054.2 43.2,-1054.2"/>
<text text-anchor="start" x="50.2" y="-1066.4" font-family="Arial" font-size="14.00">invoiceStatus </text>
<text text-anchor="start" x="137.36" y="-1066.4" font-family="Arial" font-size="14.00" fill="#666666">[enum]</text>
<polygon fill="none" stroke="black" points="43.2,-1023.4 43.2,-1054.2 239.54,-1054.2 239.54,-1023.4 43.2,-1023.4"/>
<text text-anchor="start" x="50.2" y="-1035.6" font-family="Arial" font-size="14.00">pushedToQBAt </text>
<text text-anchor="start" x="149.81" y="-1035.6" font-family="Arial" font-size="14.00" fill="#666666">[datetime]</text>
<polygon fill="none" stroke="black" points="43.2,-992.6 43.2,-1023.4 239.54,-1023.4 239.54,-992.6 43.2,-992.6"/>
<text text-anchor="start" x="50.2" y="-1004.8" font-family="Arial" font-size="14.00">updatedAt </text>
<text text-anchor="start" x="117.92" y="-1004.8" font-family="Arial" font-size="14.00" fill="#666666">[datetime]</text>
</g>
<!-- Invoice&#45;&gt;Contact -->
<g id="edge1" class="edge">
<title>Invoice:customerID&#45;&gt;Contact:id</title>
<path fill="none" stroke="black" d="M250.62,-1253.04C338.19,-1227.67 222.84,-855.21 292.37,-780 400.28,-663.27 836.23,-646.8 995.19,-646.8"/>
<polygon fill="black" stroke="black" points="250.78,-1253.02 240.27,-1249.9 245.49,-1253.73 241.2,-1254.31 241.2,-1254.31 241.2,-1254.31 245.49,-1253.73 241.47,-1258.81 250.78,-1253.02"/>
<text text-anchor="start" x="215.69" y="-1238.4" font-family="Arial" font-size="10.00">ForeignKeyType: Contact</text>
</g>
<!-- Receipt -->
<g id="node3" class="node">
<title>Receipt</title>
<polygon fill="#efefef" stroke="none" points="344.38,-1362.2 344.38,-1397.8 558.36,-1397.8 558.36,-1362.2 344.38,-1362.2"/>
<polygon fill="none" stroke="black" points="344.38,-1362.2 344.38,-1397.8 558.36,-1397.8 558.36,-1362.2 344.38,-1362.2"/>
<text text-anchor="start" x="359.7" y="-1375.6" font-family="Arial Bold" font-size="18.00">Receipt</text>
<text text-anchor="start" x="414.67" y="-1375.6" font-family="Arial" font-size="14.00">    </text>
<text text-anchor="start" x="445.79" y="-1375.6" font-family="Arial" font-size="14.00" fill="#666666">[TailorDB.Type]</text>
<polygon fill="none" stroke="black" points="344.38,-1331.4 344.38,-1362.2 558.36,-1362.2 558.36,-1331.4 344.38,-1331.4"/>
<text text-anchor="start" x="351.38" y="-1343.6" font-family="Arial" font-size="14.00">id </text>
<text text-anchor="start" x="366.17" y="-1343.6" font-family="Arial" font-size="14.00" fill="#666666">[uuid]</text>
<polygon fill="none" stroke="black" points="344.38,-1300.6 344.38,-1331.4 558.36,-1331.4 558.36,-1300.6 344.38,-1300.6"/>
<text text-anchor="start" x="351.38" y="-1312.8" font-family="Arial" font-size="14.00">active </text>
<text text-anchor="start" x="391.84" y="-1312.8" font-family="Arial" font-size="14.00" fill="#666666">[boolean]</text>
<polygon fill="none" stroke="black" points="344.38,-1269.8 344.38,-1300.6 558.36,-1300.6 558.36,-1269.8 344.38,-1269.8"/>
<text text-anchor="start" x="351.38" y="-1282" font-family="Arial" font-size="14.00">createdAt </text>
<text text-anchor="start" x="415.19" y="-1282" font-family="Arial" font-size="14.00" fill="#666666">[datetime]</text>
<polygon fill="none" stroke="black" points="344.38,-1239 344.38,-1269.8 558.36,-1269.8 558.36,-1239 344.38,-1239"/>
<text text-anchor="start" x="351.38" y="-1251.2" font-family="Arial" font-size="14.00">receiptNumber </text>
<text text-anchor="start" x="447.08" y="-1251.2" font-family="Arial" font-size="14.00" fill="#666666">[string]</text>
<polygon fill="none" stroke="black" points="344.38,-1208.2 344.38,-1239 558.36,-1239 558.36,-1208.2 344.38,-1208.2"/>
<text text-anchor="start" x="351.38" y="-1220.4" font-family="Arial" font-size="14.00">supplierID </text>
<text text-anchor="start" x="418.3" y="-1220.4" font-family="Arial" font-size="14.00" fill="#666666">[uuid]</text>
<polygon fill="none" stroke="black" points="344.38,-1177.4 344.38,-1208.2 558.36,-1208.2 558.36,-1177.4 344.38,-1177.4"/>
<text text-anchor="start" x="351.38" y="-1189.6" font-family="Arial" font-size="14.00">supplier </text>
<text text-anchor="start" x="404.3" y="-1189.6" font-family="Arial" font-size="14.00" fill="#666666">[Contact]</text>
<polygon fill="none" stroke="black" points="344.38,-1146.6 344.38,-1177.4 558.36,-1177.4 558.36,-1146.6 344.38,-1146.6"/>
<text text-anchor="start" x="351.38" y="-1158.8" font-family="Arial" font-size="14.00">purchaseOrderID </text>
<text text-anchor="start" x="462.65" y="-1158.8" font-family="Arial" font-size="14.00" fill="#666666">[uuid]</text>
<polygon fill="none" stroke="black" points="344.38,-1115.8 344.38,-1146.6 558.36,-1146.6 558.36,-1115.8 344.38,-1115.8"/>
<text text-anchor="start" x="351.38" y="-1128" font-family="Arial" font-size="14.00">purchaseOrder </text>
<text text-anchor="start" x="448.65" y="-1128" font-family="Arial" font-size="14.00" fill="#666666">[PurchaseOrder]</text>
<polygon fill="none" stroke="black" points="344.38,-1085 344.38,-1115.8 558.36,-1115.8 558.36,-1085 344.38,-1085"/>
<text text-anchor="start" x="351.38" y="-1097.2" font-family="Arial" font-size="14.00">date </text>
<text text-anchor="start" x="382.52" y="-1097.2" font-family="Arial" font-size="14.00" fill="#666666">[datetime]</text>
<polygon fill="none" stroke="black" points="344.38,-1054.2 344.38,-1085 558.36,-1085 558.36,-1054.2 344.38,-1054.2"/>
<text text-anchor="start" x="351.38" y="-1066.4" font-family="Arial" font-size="14.00">receiptStatus </text>
<text text-anchor="start" x="436.98" y="-1066.4" font-family="Arial" font-size="14.00" fill="#666666">[enum]</text>
<polygon fill="none" stroke="black" points="344.38,-1023.4 344.38,-1054.2 558.36,-1054.2 558.36,-1023.4 344.38,-1023.4"/>
<text text-anchor="start" x="351.38" y="-1035.6" font-family="Arial" font-size="14.00">updatedAt </text>
<text text-anchor="start" x="419.1" y="-1035.6" font-family="Arial" font-size="14.00" fill="#666666">[datetime]</text>
</g>
<!-- Receipt&#45;&gt;Contact -->
<g id="edge2" class="edge">
<title>Receipt:supplierID&#45;&gt;Contact:id</title>
<path fill="none" stroke="black" d="M569.57,-1222.12C650.73,-1196.82 551.52,-854.51 611.37,-780 667.91,-709.61 904.91,-646.8 995.19,-646.8"/>
<polygon fill="black" stroke="black" points="569.59,-1222.12 559.04,-1219.1 564.31,-1222.88 560.02,-1223.5 560.02,-1223.5 560.02,-1223.5 564.31,-1222.88 560.34,-1228.01 569.59,-1222.12"/>
<text text-anchor="start" x="534.51" y="-1207.6" font-family="Arial" font-size="10.00">ForeignKeyType: Contact</text>
</g>
<!-- SalesOrder -->
<g id="node4" class="node">
<title>SalesOrder</title>
<polygon fill="#efefef" stroke="none" points="663.2,-1439.2 663.2,-1474.8 885.54,-1474.8 885.54,-1439.2 663.2,-1439.2"/>
<polygon fill="none" stroke="black" points="663.2,-1439.2 663.2,-1474.8 885.54,-1474.8 885.54,-1439.2 663.2,-1439.2"/>
<text text-anchor="start" x="670.2" y="-1452.6" font-family="Arial Bold" font-size="18.00">SalesOrder</text>
<text text-anchor="start" x="750.17" y="-1452.6" font-family="Arial" font-size="14.00">    </text>
<text text-anchor="start" x="781.29" y="-1452.6" font-family="Arial" font-size="14.00" fill="#666666">[TailorDB.Type]</text>
<polygon fill="none" stroke="black" points="663.2,-1408.4 663.2,-1439.2 885.54,-1439.2 885.54,-1408.4 663.2,-1408.4"/>
<text text-anchor="start" x="670.2" y="-1420.6" font-family="Arial" font-size="14.00">id </text>
<text text-anchor="start" x="684.99" y="-1420.6" font-family="Arial" font-size="14.00" fill="#666666">[uuid]</text>
<polygon fill="none" stroke="black" points="663.2,-1377.6 663.2,-1408.4 885.54,-1408.4 885.54,-1377.6 663.2,-1377.6"/>
<text text-anchor="start" x="670.2" y="-1389.8" font-family="Arial" font-size="14.00">active </text>
<text text-anchor="start" x="710.66" y="-1389.8" font-family="Arial" font-size="14.00" fill="#666666">[boolean]</text>
<polygon fill="none" stroke="black" points="663.2,-1346.8 663.2,-1377.6 885.54,-1377.6 885.54,-1346.8 663.2,-1346.8"/>
<text text-anchor="start" x="670.2" y="-1359" font-family="Arial" font-size="14.00">orderNumber </text>
<text text-anchor="start" x="756.57" y="-1359" font-family="Arial" font-size="14.00" fill="#666666">[integer]</text>
<polygon fill="none" stroke="black" points="663.2,-1316 663.2,-1346.8 885.54,-1346.8 885.54,-1316 663.2,-1316"/>
<text text-anchor="start" x="670.2" y="-1328.2" font-family="Arial" font-size="14.00">customerID </text>
<text text-anchor="start" x="745.66" y="-1328.2" font-family="Arial" font-size="14.00" fill="#666666">[uuid]</text>
<polygon fill="none" stroke="black" points="663.2,-1285.2 663.2,-1316 885.54,-1316 885.54,-1285.2 663.2,-1285.2"/>
<text text-anchor="start" x="670.2" y="-1297.4" font-family="Arial" font-size="14.00">customer </text>
<text text-anchor="start" x="731.66" y="-1297.4" font-family="Arial" font-size="14.00" fill="#666666">[Contact]</text>
<polygon fill="none" stroke="black" points="663.2,-1254.4 663.2,-1285.2 885.54,-1285.2 885.54,-1254.4 663.2,-1254.4"/>
<text text-anchor="start" x="670.2" y="-1266.6" font-family="Arial" font-size="14.00">shopifyID </text>
<text text-anchor="start" x="732.45" y="-1266.6" font-family="Arial" font-size="14.00" fill="#666666">[string]</text>
<polygon fill="none" stroke="black" points="663.2,-1223.6 663.2,-1254.4 885.54,-1254.4 885.54,-1223.6 663.2,-1223.6"/>
<text text-anchor="start" x="670.2" y="-1235.8" font-family="Arial" font-size="14.00">cancelReason </text>
<text text-anchor="start" x="762.81" y="-1235.8" font-family="Arial" font-size="14.00" fill="#666666">[string]</text>
<polygon fill="none" stroke="black" points="663.2,-1192.8 663.2,-1223.6 885.54,-1223.6 885.54,-1192.8 663.2,-1192.8"/>
<text text-anchor="start" x="670.2" y="-1205" font-family="Arial" font-size="14.00">cancelledAt </text>
<text text-anchor="start" x="746.47" y="-1205" font-family="Arial" font-size="14.00" fill="#666666">[datetime]</text>
<polygon fill="none" stroke="black" points="663.2,-1162 663.2,-1192.8 885.54,-1192.8 885.54,-1162 663.2,-1162"/>
<text text-anchor="start" x="670.2" y="-1174.2" font-family="Arial" font-size="14.00">currency </text>
<text text-anchor="start" x="727.77" y="-1174.2" font-family="Arial" font-size="14.00" fill="#666666">[string]</text>
<polygon fill="none" stroke="black" points="663.2,-1131.2 663.2,-1162 885.54,-1162 885.54,-1131.2 663.2,-1131.2"/>
<text text-anchor="start" x="670.2" y="-1143.4" font-family="Arial" font-size="14.00">currentSubtotalPrice </text>
<text text-anchor="start" x="800.93" y="-1143.4" font-family="Arial" font-size="14.00" fill="#666666">[string]</text>
<polygon fill="none" stroke="black" points="663.2,-1100.4 663.2,-1131.2 885.54,-1131.2 885.54,-1100.4 663.2,-1100.4"/>
<text text-anchor="start" x="670.2" y="-1112.6" font-family="Arial" font-size="14.00">customerName </text>
<text text-anchor="start" x="769.01" y="-1112.6" font-family="Arial" font-size="14.00" fill="#666666">[string]</text>
<polygon fill="none" stroke="black" points="663.2,-1069.6 663.2,-1100.4 885.54,-1100.4 885.54,-1069.6 663.2,-1069.6"/>
<text text-anchor="start" x="670.2" y="-1081.8" font-family="Arial" font-size="14.00">customerEmail </text>
<text text-anchor="start" x="766.67" y="-1081.8" font-family="Arial" font-size="14.00" fill="#666666">[string]</text>
<polygon fill="none" stroke="black" points="663.2,-1038.8 663.2,-1069.6 885.54,-1069.6 885.54,-1038.8 663.2,-1038.8"/>
<text text-anchor="start" x="670.2" y="-1051" font-family="Arial" font-size="14.00">createdAt </text>
<text text-anchor="start" x="734.01" y="-1051" font-family="Arial" font-size="14.00" fill="#666666">[datetime]</text>
<polygon fill="none" stroke="black" points="663.2,-1008 663.2,-1038.8 885.54,-1038.8 885.54,-1008 663.2,-1008"/>
<text text-anchor="start" x="670.2" y="-1020.2" font-family="Arial" font-size="14.00">shipStationOrderStatus </text>
<text text-anchor="start" x="818.83" y="-1020.2" font-family="Arial" font-size="14.00" fill="#666666">[enum]</text>
<polygon fill="none" stroke="black" points="663.2,-977.2 663.2,-1008 885.54,-1008 885.54,-977.2 663.2,-977.2"/>
<text text-anchor="start" x="670.2" y="-989.4" font-family="Arial" font-size="14.00">shippedAt </text>
<text text-anchor="start" x="736.36" y="-989.4" font-family="Arial" font-size="14.00" fill="#666666">[datetime]</text>
<polygon fill="none" stroke="black" points="663.2,-946.4 663.2,-977.2 885.54,-977.2 885.54,-946.4 663.2,-946.4"/>
<text text-anchor="start" x="670.2" y="-958.6" font-family="Arial" font-size="14.00">updatedAt </text>
<text text-anchor="start" x="737.92" y="-958.6" font-family="Arial" font-size="14.00" fill="#666666">[datetime]</text>
</g>
<!-- SalesOrder&#45;&gt;Contact -->
<g id="edge3" class="edge">
<title>SalesOrder:customerID&#45;&gt;Contact:id</title>
<path fill="none" stroke="black" d="M895.87,-1327.14C945.35,-1278.9 922.94,-836.34 937.37,-780 953.38,-717.48 930.66,-646.8 995.19,-646.8"/>
<polygon fill="black" stroke="black" points="895.94,-1327.11 884.97,-1327.17 891.09,-1329.32 887.15,-1331.12 887.15,-1331.12 887.15,-1331.12 891.09,-1329.32 888.71,-1335.35 895.94,-1327.11"/>
<text text-anchor="start" x="893.54" y="-1341.4" font-family="Arial" font-size="10.00">ForeignKeyType: Contact</text>
</g>
<!-- Shipment -->
<g id="node5" class="node">
<title>Shipment</title>
<polygon fill="#efefef" stroke="none" points="989.69,-1346.8 989.69,-1382.4 1201.05,-1382.4 1201.05,-1346.8 989.69,-1346.8"/>
<polygon fill="none" stroke="black" points="989.69,-1346.8 989.69,-1382.4 1201.05,-1382.4 1201.05,-1346.8 989.69,-1346.8"/>
<text text-anchor="start" x="996.69" y="-1360.2" font-family="Arial Bold" font-size="18.00">Shipment</text>
<text text-anchor="start" x="1065.69" y="-1360.2" font-family="Arial" font-size="14.00">    </text>
<text text-anchor="start" x="1096.81" y="-1360.2" font-family="Arial" font-size="14.00" fill="#666666">[TailorDB.Type]</text>
<polygon fill="none" stroke="black" points="989.69,-1316 989.69,-1346.8 1201.05,-1346.8 1201.05,-1316 989.69,-1316"/>
<text text-anchor="start" x="996.69" y="-1328.2" font-family="Arial" font-size="14.00">id </text>
<text text-anchor="start" x="1011.47" y="-1328.2" font-family="Arial" font-size="14.00" fill="#666666">[uuid]</text>
<polygon fill="none" stroke="black" points="989.69,-1285.2 989.69,-1316 1201.05,-1316 1201.05,-1285.2 989.69,-1285.2"/>
<text text-anchor="start" x="996.69" y="-1297.4" font-family="Arial" font-size="14.00">active </text>
<text text-anchor="start" x="1037.15" y="-1297.4" font-family="Arial" font-size="14.00" fill="#666666">[boolean]</text>
<polygon fill="none" stroke="black" points="989.69,-1254.4 989.69,-1285.2 1201.05,-1285.2 1201.05,-1254.4 989.69,-1254.4"/>
<text text-anchor="start" x="996.69" y="-1266.6" font-family="Arial" font-size="14.00">createdAt </text>
<text text-anchor="start" x="1060.5" y="-1266.6" font-family="Arial" font-size="14.00" fill="#666666">[datetime]</text>
<polygon fill="none" stroke="black" points="989.69,-1223.6 989.69,-1254.4 1201.05,-1254.4 1201.05,-1223.6 989.69,-1223.6"/>
<text text-anchor="start" x="996.69" y="-1235.8" font-family="Arial" font-size="14.00">shipmentNumber </text>
<text text-anchor="start" x="1107.17" y="-1235.8" font-family="Arial" font-size="14.00" fill="#666666">[string]</text>
<polygon fill="none" stroke="black" points="989.69,-1192.8 989.69,-1223.6 1201.05,-1223.6 1201.05,-1192.8 989.69,-1192.8"/>
<text text-anchor="start" x="996.69" y="-1205" font-family="Arial" font-size="14.00">customerID </text>
<text text-anchor="start" x="1072.15" y="-1205" font-family="Arial" font-size="14.00" fill="#666666">[uuid]</text>
<polygon fill="none" stroke="black" points="989.69,-1162 989.69,-1192.8 1201.05,-1192.8 1201.05,-1162 989.69,-1162"/>
<text text-anchor="start" x="996.69" y="-1174.2" font-family="Arial" font-size="14.00">customer </text>
<text text-anchor="start" x="1058.15" y="-1174.2" font-family="Arial" font-size="14.00" fill="#666666">[Contact]</text>
<polygon fill="none" stroke="black" points="989.69,-1131.2 989.69,-1162 1201.05,-1162 1201.05,-1131.2 989.69,-1131.2"/>
<text text-anchor="start" x="996.69" y="-1143.4" font-family="Arial" font-size="14.00">salesOrderID </text>
<text text-anchor="start" x="1083.04" y="-1143.4" font-family="Arial" font-size="14.00" fill="#666666">[uuid]</text>
<polygon fill="none" stroke="black" points="989.69,-1100.4 989.69,-1131.2 1201.05,-1131.2 1201.05,-1100.4 989.69,-1100.4"/>
<text text-anchor="start" x="996.69" y="-1112.6" font-family="Arial" font-size="14.00">salesOrder </text>
<text text-anchor="start" x="1069.04" y="-1112.6" font-family="Arial" font-size="14.00" fill="#666666">[SalesOrder]</text>
<polygon fill="none" stroke="black" points="989.69,-1069.6 989.69,-1100.4 1201.05,-1100.4 1201.05,-1069.6 989.69,-1069.6"/>
<text text-anchor="start" x="996.69" y="-1081.8" font-family="Arial" font-size="14.00">date </text>
<text text-anchor="start" x="1027.82" y="-1081.8" font-family="Arial" font-size="14.00" fill="#666666">[datetime]</text>
<polygon fill="none" stroke="black" points="989.69,-1038.8 989.69,-1069.6 1201.05,-1069.6 1201.05,-1038.8 989.69,-1038.8"/>
<text text-anchor="start" x="996.69" y="-1051" font-family="Arial" font-size="14.00">updatedAt </text>
<text text-anchor="start" x="1064.41" y="-1051" font-family="Arial" font-size="14.00" fill="#666666">[datetime]</text>
</g>
<!-- Shipment&#45;&gt;Contact -->
<g id="edge4" class="edge">
<title>Shipment:customerID&#45;&gt;Contact:id</title>
<path fill="none" stroke="black" d="M1211.35,-1203.68C1263.59,-1150.55 1254.64,-646.8 1195.55,-646.8"/>
<polygon fill="black" stroke="black" points="1211.35,-1203.68 1200.39,-1204.01 1206.55,-1206.01 1202.66,-1207.91 1202.66,-1207.91 1202.66,-1207.91 1206.55,-1206.01 1204.32,-1212.1 1211.35,-1203.68"/>
<text text-anchor="start" x="1177.21" y="-1192.2" font-family="Arial" font-size="10.00">ForeignKeyType: Contact</text>
</g>
<!-- PurchaseOrder -->
<g id="node6" class="node">
<title>PurchaseOrder</title>
<polygon fill="#efefef" stroke="none" points="1305.71,-1562.4 1305.71,-1598 1555.03,-1598 1555.03,-1562.4 1305.71,-1562.4"/>
<polygon fill="none" stroke="black" points="1305.71,-1562.4 1305.71,-1598 1555.03,-1598 1555.03,-1562.4 1305.71,-1562.4"/>
<text text-anchor="start" x="1312.71" y="-1575.8" font-family="Arial Bold" font-size="18.00">PurchaseOrder</text>
<text text-anchor="start" x="1419.66" y="-1575.8" font-family="Arial" font-size="14.00">    </text>
<text text-anchor="start" x="1450.78" y="-1575.8" font-family="Arial" font-size="14.00" fill="#666666">[TailorDB.Type]</text>
<polygon fill="none" stroke="black" points="1305.71,-1531.6 1305.71,-1562.4 1555.03,-1562.4 1555.03,-1531.6 1305.71,-1531.6"/>
<text text-anchor="start" x="1312.71" y="-1543.8" font-family="Arial" font-size="14.00">id </text>
<text text-anchor="start" x="1327.5" y="-1543.8" font-family="Arial" font-size="14.00" fill="#666666">[uuid]</text>
<polygon fill="none" stroke="black" points="1305.71,-1500.8 1305.71,-1531.6 1555.03,-1531.6 1555.03,-1500.8 1305.71,-1500.8"/>
<text text-anchor="start" x="1312.71" y="-1513" font-family="Arial" font-size="14.00">active </text>
<text text-anchor="start" x="1353.17" y="-1513" font-family="Arial" font-size="14.00" fill="#666666">[boolean]</text>
<polygon fill="none" stroke="black" points="1305.71,-1470 1305.71,-1500.8 1555.03,-1500.8 1555.03,-1470 1305.71,-1470"/>
<text text-anchor="start" x="1312.71" y="-1482.2" font-family="Arial" font-size="14.00">createdAt </text>
<text text-anchor="start" x="1376.52" y="-1482.2" font-family="Arial" font-size="14.00" fill="#666666">[datetime]</text>
<polygon fill="none" stroke="black" points="1305.71,-1439.2 1305.71,-1470 1555.03,-1470 1555.03,-1439.2 1305.71,-1439.2"/>
<text text-anchor="start" x="1312.71" y="-1451.4" font-family="Arial" font-size="14.00">documentNumber </text>
<text text-anchor="start" x="1427.87" y="-1451.4" font-family="Arial" font-size="14.00" fill="#666666">[string]</text>
<polygon fill="none" stroke="black" points="1305.71,-1408.4 1305.71,-1439.2 1555.03,-1439.2 1555.03,-1408.4 1305.71,-1408.4"/>
<text text-anchor="start" x="1312.71" y="-1420.6" font-family="Arial" font-size="14.00">supplierID </text>
<text text-anchor="start" x="1379.63" y="-1420.6" font-family="Arial" font-size="14.00" fill="#666666">[uuid]</text>
<polygon fill="none" stroke="black" points="1305.71,-1377.6 1305.71,-1408.4 1555.03,-1408.4 1555.03,-1377.6 1305.71,-1377.6"/>
<text text-anchor="start" x="1312.71" y="-1389.8" font-family="Arial" font-size="14.00">supplier </text>
<text text-anchor="start" x="1365.63" y="-1389.8" font-family="Arial" font-size="14.00" fill="#666666">[Contact]</text>
<polygon fill="none" stroke="black" points="1305.71,-1346.8 1305.71,-1377.6 1555.03,-1377.6 1555.03,-1346.8 1305.71,-1346.8"/>
<text text-anchor="start" x="1312.71" y="-1359" font-family="Arial" font-size="14.00">date </text>
<text text-anchor="start" x="1343.85" y="-1359" font-family="Arial" font-size="14.00" fill="#666666">[datetime]</text>
<polygon fill="none" stroke="black" points="1305.71,-1316 1305.71,-1346.8 1555.03,-1346.8 1555.03,-1316 1305.71,-1316"/>
<text text-anchor="start" x="1312.71" y="-1328.2" font-family="Arial" font-size="14.00">billToID </text>
<text text-anchor="start" x="1364.05" y="-1328.2" font-family="Arial" font-size="14.00" fill="#666666">[uuid]</text>
<polygon fill="none" stroke="black" points="1305.71,-1285.2 1305.71,-1316 1555.03,-1316 1555.03,-1285.2 1305.71,-1285.2"/>
<text text-anchor="start" x="1312.71" y="-1297.4" font-family="Arial" font-size="14.00">billTo </text>
<text text-anchor="start" x="1350.05" y="-1297.4" font-family="Arial" font-size="14.00" fill="#666666">[Contact]</text>
<polygon fill="none" stroke="black" points="1305.71,-1254.4 1305.71,-1285.2 1555.03,-1285.2 1555.03,-1254.4 1305.71,-1254.4"/>
<text text-anchor="start" x="1312.71" y="-1266.6" font-family="Arial" font-size="14.00">shipToID </text>
<text text-anchor="start" x="1372.62" y="-1266.6" font-family="Arial" font-size="14.00" fill="#666666">[uuid]</text>
<polygon fill="none" stroke="black" points="1305.71,-1223.6 1305.71,-1254.4 1555.03,-1254.4 1555.03,-1223.6 1305.71,-1223.6"/>
<text text-anchor="start" x="1312.71" y="-1235.8" font-family="Arial" font-size="14.00">shipTo </text>
<text text-anchor="start" x="1358.62" y="-1235.8" font-family="Arial" font-size="14.00" fill="#666666">[Contact]</text>
<polygon fill="none" stroke="black" points="1305.71,-1192.8 1305.71,-1223.6 1555.03,-1223.6 1555.03,-1192.8 1305.71,-1192.8"/>
<text text-anchor="start" x="1312.71" y="-1205" font-family="Arial" font-size="14.00">shipVia </text>
<text text-anchor="start" x="1362.52" y="-1205" font-family="Arial" font-size="14.00" fill="#666666">[string]</text>
<polygon fill="none" stroke="black" points="1305.71,-1162 1305.71,-1192.8 1555.03,-1192.8 1555.03,-1162 1305.71,-1162"/>
<text text-anchor="start" x="1312.71" y="-1174.2" font-family="Arial" font-size="14.00">trackingNumber </text>
<text text-anchor="start" x="1415.41" y="-1174.2" font-family="Arial" font-size="14.00" fill="#666666">[string]</text>
<polygon fill="none" stroke="black" points="1305.71,-1131.2 1305.71,-1162 1555.03,-1162 1555.03,-1131.2 1305.71,-1131.2"/>
<text text-anchor="start" x="1312.71" y="-1143.4" font-family="Arial" font-size="14.00">shippingContactPhone </text>
<text text-anchor="start" x="1457.48" y="-1143.4" font-family="Arial" font-size="14.00" fill="#666666">[string]</text>
<polygon fill="none" stroke="black" points="1305.71,-1100.4 1305.71,-1131.2 1555.03,-1131.2 1555.03,-1100.4 1305.71,-1100.4"/>
<text text-anchor="start" x="1312.71" y="-1112.6" font-family="Arial" font-size="14.00">shippingContactName </text>
<text text-anchor="start" x="1454.34" y="-1112.6" font-family="Arial" font-size="14.00" fill="#666666">[string]</text>
<polygon fill="none" stroke="black" points="1305.71,-1069.6 1305.71,-1100.4 1555.03,-1100.4 1555.03,-1069.6 1305.71,-1069.6"/>
<text text-anchor="start" x="1312.71" y="-1081.8" font-family="Arial" font-size="14.00">exFactoryDate </text>
<text text-anchor="start" x="1407.63" y="-1081.8" font-family="Arial" font-size="14.00" fill="#666666">[datetime]</text>
<polygon fill="none" stroke="black" points="1305.71,-1038.8 1305.71,-1069.6 1555.03,-1069.6 1555.03,-1038.8 1305.71,-1038.8"/>
<text text-anchor="start" x="1312.71" y="-1051" font-family="Arial" font-size="14.00">dueDate </text>
<text text-anchor="start" x="1369.53" y="-1051" font-family="Arial" font-size="14.00" fill="#666666">[datetime]</text>
<polygon fill="none" stroke="black" points="1305.71,-1008 1305.71,-1038.8 1555.03,-1038.8 1555.03,-1008 1305.71,-1008"/>
<text text-anchor="start" x="1312.71" y="-1020.2" font-family="Arial" font-size="14.00">terms </text>
<text text-anchor="start" x="1351.6" y="-1020.2" font-family="Arial" font-size="14.00" fill="#666666">[string]</text>
<polygon fill="none" stroke="black" points="1305.71,-977.2 1305.71,-1008 1555.03,-1008 1555.03,-977.2 1305.71,-977.2"/>
<text text-anchor="start" x="1312.71" y="-989.4" font-family="Arial" font-size="14.00">shippingInstructions </text>
<text text-anchor="start" x="1440.34" y="-989.4" font-family="Arial" font-size="14.00" fill="#666666">[string]</text>
<polygon fill="none" stroke="black" points="1305.71,-946.4 1305.71,-977.2 1555.03,-977.2 1555.03,-946.4 1305.71,-946.4"/>
<text text-anchor="start" x="1312.71" y="-958.6" font-family="Arial" font-size="14.00">notes </text>
<text text-anchor="start" x="1350.85" y="-958.6" font-family="Arial" font-size="14.00" fill="#666666">[string]</text>
<polygon fill="none" stroke="black" points="1305.71,-915.6 1305.71,-946.4 1555.03,-946.4 1555.03,-915.6 1305.71,-915.6"/>
<text text-anchor="start" x="1312.71" y="-927.8" font-family="Arial" font-size="14.00">approvedBy </text>
<text text-anchor="start" x="1391.32" y="-927.8" font-family="Arial" font-size="14.00" fill="#666666">[string]</text>
<polygon fill="none" stroke="black" points="1305.71,-884.8 1305.71,-915.6 1555.03,-915.6 1555.03,-884.8 1305.71,-884.8"/>
<text text-anchor="start" x="1312.71" y="-897" font-family="Arial" font-size="14.00">pulledBy </text>
<text text-anchor="start" x="1370.3" y="-897" font-family="Arial" font-size="14.00" fill="#666666">[string]</text>
<polygon fill="none" stroke="black" points="1305.71,-854 1305.71,-884.8 1555.03,-884.8 1555.03,-854 1305.71,-854"/>
<text text-anchor="start" x="1312.71" y="-866.2" font-family="Arial" font-size="14.00">receivedBy </text>
<text text-anchor="start" x="1385.85" y="-866.2" font-family="Arial" font-size="14.00" fill="#666666">[string]</text>
<polygon fill="none" stroke="black" points="1305.71,-823.2 1305.71,-854 1555.03,-854 1555.03,-823.2 1305.71,-823.2"/>
<text text-anchor="start" x="1312.71" y="-835.4" font-family="Arial" font-size="14.00">updatedAt </text>
<text text-anchor="start" x="1380.43" y="-835.4" font-family="Arial" font-size="14.00" fill="#666666">[datetime]</text>
</g>
<!-- PurchaseOrder&#45;&gt;Contact -->
<g id="edge5" class="edge">
<title>PurchaseOrder:billToID&#45;&gt;Contact:id</title>
<path fill="none" stroke="black" d="M1295.37,-1327.14C1245.84,-1278.9 1267.83,-836.34 1253.37,-780 1237.33,-717.49 1260.08,-646.8 1195.55,-646.8"/>
<polygon fill="black" stroke="black" points="1295.31,-1327.11 1302.54,-1335.35 1300.16,-1329.32 1304.1,-1331.12 1304.1,-1331.12 1304.1,-1331.12 1300.16,-1329.32 1306.27,-1327.17 1295.31,-1327.11"/>
<text text-anchor="start" x="1226.01" y="-1341.4" font-family="Arial" font-size="10.00">Source: Contact</text>
</g>
<!-- PurchaseOrder&#45;&gt;Contact -->
<g id="edge6" class="edge">
<title>PurchaseOrder:shipToID&#45;&gt;Contact:id</title>
<path fill="none" stroke="black" d="M1295.54,-1265.18C1251.97,-1218.3 1266.44,-829.72 1253.37,-780 1236.97,-717.58 1260.08,-646.8 1195.55,-646.8"/>
<polygon fill="black" stroke="black" points="1295.48,-1265.15 1302.39,-1273.67 1300.24,-1267.55 1304.11,-1269.5 1304.11,-1269.5 1304.11,-1269.5 1300.24,-1267.55 1306.44,-1265.63 1295.48,-1265.15"/>
<text text-anchor="start" x="1226.01" y="-1279.8" font-family="Arial" font-size="10.00">Source: Contact</text>
</g>
<!-- PurchaseOrder&#45;&gt;Contact -->
<g id="edge7" class="edge">
<title>PurchaseOrder:supplierID&#45;&gt;Contact:id</title>
<path fill="none" stroke="black" d="M1295.32,-1420.13C1236.37,-1371.08 1269.93,-846.36 1253.37,-780 1237.74,-717.38 1260.08,-646.8 1195.55,-646.8"/>
<polygon fill="black" stroke="black" points="1295.09,-1420.03 1302.76,-1427.87 1300.05,-1421.98 1304.09,-1423.56 1304.09,-1423.56 1304.09,-1423.56 1300.05,-1421.98 1306.04,-1419.49 1295.09,-1420.03"/>
<text text-anchor="start" x="1226.01" y="-1433.8" font-family="Arial" font-size="10.00">Source: Contact</text>
</g>
</g>
</svg>
