<?xml version="1.0" encoding="UTF-8" standalone="no"?>
<!DOCTYPE svg PUBLIC "-//W3C//DTD SVG 1.1//EN"
 "http://www.w3.org/Graphics/SVG/1.1/DTD/svg11.dtd">
<!-- Generated by graphviz version 12.1.2 (20240928.0832)
 -->
<!-- Title: Contact Pages: 1 -->
<svg width="1605pt" height="1649pt"
 viewBox="0.00 0.00 1605.25 1649.20" xmlns="http://www.w3.org/2000/svg" xmlns:xlink="http://www.w3.org/1999/xlink">
<g id="graph0" class="graph" transform="scale(1 1) rotate(0) translate(4 1645.2)">
<title>Contact</title>
<polygon fill="white" stroke="none" points="-4,4 -4,-1645.2 1601.25,-1645.2 1601.25,4 -4,4"/>
<!-- Contact -->
<g id="node1" class="node">
<title>Contact</title>
<polygon fill="#efefef" stroke="none" points="369.19,-662.2 369.19,-697.8 567.55,-697.8 567.55,-662.2 369.19,-662.2"/>
<polygon fill="none" stroke="black" points="369.19,-662.2 369.19,-697.8 567.55,-697.8 567.55,-662.2 369.19,-662.2"/>
<text text-anchor="start" x="376.19" y="-675.6" font-family="Arial Bold" font-size="18.00">Contact</text>
<text text-anchor="start" x="432.18" y="-675.6" font-family="Arial" font-size="14.00">    </text>
<text text-anchor="start" x="463.3" y="-675.6" font-family="Arial" font-size="14.00" fill="#666666">[TailorDB.Type]</text>
<polygon fill="none" stroke="black" points="369.19,-631.4 369.19,-662.2 567.55,-662.2 567.55,-631.4 369.19,-631.4"/>
<text text-anchor="start" x="376.19" y="-643.6" font-family="Arial" font-size="14.00">id </text>
<text text-anchor="start" x="390.98" y="-643.6" font-family="Arial" font-size="14.00" fill="#666666">[uuid]</text>
<polygon fill="none" stroke="black" points="369.19,-600.6 369.19,-631.4 567.55,-631.4 567.55,-600.6 369.19,-600.6"/>
<text text-anchor="start" x="376.19" y="-612.8" font-family="Arial" font-size="14.00">phone </text>
<text text-anchor="start" x="419.01" y="-612.8" font-family="Arial" font-size="14.00" fill="#666666">[string]</text>
<polygon fill="none" stroke="black" points="369.19,-569.8 369.19,-600.6 567.55,-600.6 567.55,-569.8 369.19,-569.8"/>
<text text-anchor="start" x="376.19" y="-582" font-family="Arial" font-size="14.00">address1 </text>
<text text-anchor="start" x="437.68" y="-582" font-family="Arial" font-size="14.00" fill="#666666">[string]</text>
<polygon fill="none" stroke="black" points="369.19,-539 369.19,-569.8 567.55,-569.8 567.55,-539 369.19,-539"/>
<text text-anchor="start" x="376.19" y="-551.2" font-family="Arial" font-size="14.00">city </text>
<text text-anchor="start" x="401.08" y="-551.2" font-family="Arial" font-size="14.00" fill="#666666">[string]</text>
<polygon fill="none" stroke="black" points="369.19,-508.2 369.19,-539 567.55,-539 567.55,-508.2 369.19,-508.2"/>
<text text-anchor="start" x="376.19" y="-520.4" font-family="Arial" font-size="14.00">province </text>
<text text-anchor="start" x="433" y="-520.4" font-family="Arial" font-size="14.00" fill="#666666">[string]</text>
<polygon fill="none" stroke="black" points="369.19,-477.4 369.19,-508.2 567.55,-508.2 567.55,-477.4 369.19,-477.4"/>
<text text-anchor="start" x="376.19" y="-489.6" font-family="Arial" font-size="14.00">createdAt </text>
<text text-anchor="start" x="440.01" y="-489.6" font-family="Arial" font-size="14.00" fill="#666666">[datetime]</text>
<polygon fill="none" stroke="black" points="369.19,-446.6 369.19,-477.4 567.55,-477.4 567.55,-446.6 369.19,-446.6"/>
<text text-anchor="start" x="376.19" y="-458.8" font-family="Arial" font-size="14.00">email </text>
<text text-anchor="start" x="413.54" y="-458.8" font-family="Arial" font-size="14.00" fill="#666666">[string]</text>
<polygon fill="none" stroke="black" points="369.19,-415.8 369.19,-446.6 567.55,-446.6 567.55,-415.8 369.19,-415.8"/>
<text text-anchor="start" x="376.19" y="-428" font-family="Arial" font-size="14.00">name </text>
<text text-anchor="start" x="415.1" y="-428" font-family="Arial" font-size="14.00" fill="#666666">[string]</text>
<polygon fill="none" stroke="black" points="369.19,-385 369.19,-415.8 567.55,-415.8 567.55,-385 369.19,-385"/>
<text text-anchor="start" x="376.19" y="-397.2" font-family="Arial" font-size="14.00">quickBookCustomerId </text>
<text text-anchor="start" x="517.03" y="-397.2" font-family="Arial" font-size="14.00" fill="#666666">[string]</text>
<polygon fill="none" stroke="black" points="369.19,-354.2 369.19,-385 567.55,-385 567.55,-354.2 369.19,-354.2"/>
<text text-anchor="start" x="376.19" y="-366.4" font-family="Arial" font-size="14.00">country </text>
<text text-anchor="start" x="425.99" y="-366.4" font-family="Arial" font-size="14.00" fill="#666666">[string]</text>
<polygon fill="none" stroke="black" points="369.19,-323.4 369.19,-354.2 567.55,-354.2 567.55,-323.4 369.19,-323.4"/>
<text text-anchor="start" x="376.19" y="-335.6" font-family="Arial" font-size="14.00">countryCode </text>
<text text-anchor="start" x="459.46" y="-335.6" font-family="Arial" font-size="14.00" fill="#666666">[string]</text>
<polygon fill="none" stroke="black" points="369.19,-292.6 369.19,-323.4 567.55,-323.4 567.55,-292.6 369.19,-292.6"/>
<text text-anchor="start" x="376.19" y="-304.8" font-family="Arial" font-size="14.00">provinceCode </text>
<text text-anchor="start" x="466.47" y="-304.8" font-family="Arial" font-size="14.00" fill="#666666">[string]</text>
<polygon fill="none" stroke="black" points="369.19,-261.8 369.19,-292.6 567.55,-292.6 567.55,-261.8 369.19,-261.8"/>
<text text-anchor="start" x="376.19" y="-274" font-family="Arial" font-size="14.00">openBalance </text>
<text text-anchor="start" x="461.82" y="-274" font-family="Arial" font-size="14.00" fill="#666666">[float]</text>
<polygon fill="none" stroke="black" points="369.19,-231 369.19,-261.8 567.55,-261.8 567.55,-231 369.19,-231"/>
<text text-anchor="start" x="376.19" y="-243.2" font-family="Arial" font-size="14.00">creditLimit </text>
<text text-anchor="start" x="443.88" y="-243.2" font-family="Arial" font-size="14.00" fill="#666666">[float]</text>
<polygon fill="none" stroke="black" points="369.19,-200.2 369.19,-231 567.55,-231 567.55,-200.2 369.19,-200.2"/>
<text text-anchor="start" x="376.19" y="-212.4" font-family="Arial" font-size="14.00">active </text>
<text text-anchor="start" x="416.66" y="-212.4" font-family="Arial" font-size="14.00" fill="#666666">[boolean]</text>
<polygon fill="none" stroke="black" points="369.19,-169.4 369.19,-200.2 567.55,-200.2 567.55,-169.4 369.19,-169.4"/>
<text text-anchor="start" x="376.19" y="-181.6" font-family="Arial" font-size="14.00">address2 </text>
<text text-anchor="start" x="437.68" y="-181.6" font-family="Arial" font-size="14.00" fill="#666666">[string]</text>
<polygon fill="none" stroke="black" points="369.19,-138.6 369.19,-169.4 567.55,-169.4 567.55,-138.6 369.19,-138.6"/>
<text text-anchor="start" x="376.19" y="-150.8" font-family="Arial" font-size="14.00">company </text>
<text text-anchor="start" x="436.89" y="-150.8" font-family="Arial" font-size="14.00" fill="#666666">[string]</text>
<polygon fill="none" stroke="black" points="369.19,-107.8 369.19,-138.6 567.55,-138.6 567.55,-107.8 369.19,-107.8"/>
<text text-anchor="start" x="376.19" y="-120" font-family="Arial" font-size="14.00">availableCredit </text>
<text text-anchor="start" x="472.69" y="-120" font-family="Arial" font-size="14.00" fill="#666666">[float]</text>
<polygon fill="none" stroke="black" points="369.19,-77 369.19,-107.8 567.55,-107.8 567.55,-77 369.19,-77"/>
<text text-anchor="start" x="376.19" y="-89.2" font-family="Arial" font-size="14.00">updatedAt </text>
<text text-anchor="start" x="443.92" y="-89.2" font-family="Arial" font-size="14.00" fill="#666666">[datetime]</text>
<polygon fill="none" stroke="black" points="369.19,-46.2 369.19,-77 567.55,-77 567.55,-46.2 369.19,-46.2"/>
<text text-anchor="start" x="376.19" y="-58.4" font-family="Arial" font-size="14.00">zip </text>
<text text-anchor="start" x="397.98" y="-58.4" font-family="Arial" font-size="14.00" fill="#666666">[string]</text>
<polygon fill="none" stroke="black" stroke-width="3" points="367.69,-44.7 367.69,-699.3 569.05,-699.3 569.05,-44.7 367.69,-44.7"/>
</g>
<!-- Invoice -->
<g id="node2" class="node">
<title>Invoice</title>
<polygon fill="#efefef" stroke="none" points="43.2,-1393 43.2,-1428.6 239.54,-1428.6 239.54,-1393 43.2,-1393"/>
<polygon fill="none" stroke="black" points="43.2,-1393 43.2,-1428.6 239.54,-1428.6 239.54,-1393 43.2,-1393"/>
<text text-anchor="start" x="50.2" y="-1406.4" font-family="Arial Bold" font-size="18.00">Invoice</text>
<text text-anchor="start" x="104.17" y="-1406.4" font-family="Arial" font-size="14.00">    </text>
<text text-anchor="start" x="135.29" y="-1406.4" font-family="Arial" font-size="14.00" fill="#666666">[TailorDB.Type]</text>
<polygon fill="none" stroke="black" points="43.2,-1362.2 43.2,-1393 239.54,-1393 239.54,-1362.2 43.2,-1362.2"/>
<text text-anchor="start" x="50.2" y="-1374.4" font-family="Arial" font-size="14.00">id </text>
<text text-anchor="start" x="64.99" y="-1374.4" font-family="Arial" font-size="14.00" fill="#666666">[uuid]</text>
<polygon fill="none" stroke="black" points="43.2,-1331.4 43.2,-1362.2 239.54,-1362.2 239.54,-1331.4 43.2,-1331.4"/>
<text text-anchor="start" x="50.2" y="-1343.6" font-family="Arial" font-size="14.00">customerID </text>
<text text-anchor="start" x="125.66" y="-1343.6" font-family="Arial" font-size="14.00" fill="#666666">[uuid]</text>
<polygon fill="none" stroke="black" points="43.2,-1300.6 43.2,-1331.4 239.54,-1331.4 239.54,-1300.6 43.2,-1300.6"/>
<text text-anchor="start" x="50.2" y="-1312.8" font-family="Arial" font-size="14.00">shipmentID </text>
<text text-anchor="start" x="124.9" y="-1312.8" font-family="Arial" font-size="14.00" fill="#666666">[uuid]</text>
<polygon fill="none" stroke="black" points="43.2,-1269.8 43.2,-1300.6 239.54,-1300.6 239.54,-1269.8 43.2,-1269.8"/>
<text text-anchor="start" x="50.2" y="-1282" font-family="Arial" font-size="14.00">quickbookInvoiceId </text>
<text text-anchor="start" x="173.16" y="-1282" font-family="Arial" font-size="14.00" fill="#666666">[string]</text>
<polygon fill="none" stroke="black" points="43.2,-1239 43.2,-1269.8 239.54,-1269.8 239.54,-1239 43.2,-1239"/>
<text text-anchor="start" x="50.2" y="-1251.2" font-family="Arial" font-size="14.00">updatedAt </text>
<text text-anchor="start" x="117.92" y="-1251.2" font-family="Arial" font-size="14.00" fill="#666666">[datetime]</text>
<polygon fill="none" stroke="black" points="43.2,-1208.2 43.2,-1239 239.54,-1239 239.54,-1208.2 43.2,-1208.2"/>
<text text-anchor="start" x="50.2" y="-1220.4" font-family="Arial" font-size="14.00">pushedToQBAt </text>
<text text-anchor="start" x="149.81" y="-1220.4" font-family="Arial" font-size="14.00" fill="#666666">[datetime]</text>
<polygon fill="none" stroke="black" points="43.2,-1177.4 43.2,-1208.2 239.54,-1208.2 239.54,-1177.4 43.2,-1177.4"/>
<text text-anchor="start" x="50.2" y="-1189.6" font-family="Arial" font-size="14.00">active </text>
<text text-anchor="start" x="90.66" y="-1189.6" font-family="Arial" font-size="14.00" fill="#666666">[boolean]</text>
<polygon fill="none" stroke="black" points="43.2,-1146.6 43.2,-1177.4 239.54,-1177.4 239.54,-1146.6 43.2,-1146.6"/>
<text text-anchor="start" x="50.2" y="-1158.8" font-family="Arial" font-size="14.00">createdAt </text>
<text text-anchor="start" x="114.01" y="-1158.8" font-family="Arial" font-size="14.00" fill="#666666">[datetime]</text>
<polygon fill="none" stroke="black" points="43.2,-1115.8 43.2,-1146.6 239.54,-1146.6 239.54,-1115.8 43.2,-1115.8"/>
<text text-anchor="start" x="50.2" y="-1128" font-family="Arial" font-size="14.00">invoiceNumber </text>
<text text-anchor="start" x="147.46" y="-1128" font-family="Arial" font-size="14.00" fill="#666666">[string]</text>
<polygon fill="none" stroke="black" points="43.2,-1085 43.2,-1115.8 239.54,-1115.8 239.54,-1085 43.2,-1085"/>
<text text-anchor="start" x="50.2" y="-1097.2" font-family="Arial" font-size="14.00">customer </text>
<text text-anchor="start" x="111.66" y="-1097.2" font-family="Arial" font-size="14.00" fill="#666666">[Contact]</text>
<polygon fill="none" stroke="black" points="43.2,-1054.2 43.2,-1085 239.54,-1085 239.54,-1054.2 43.2,-1054.2"/>
<text text-anchor="start" x="50.2" y="-1066.4" font-family="Arial" font-size="14.00">shipment </text>
<text text-anchor="start" x="110.9" y="-1066.4" font-family="Arial" font-size="14.00" fill="#666666">[Shipment]</text>
<polygon fill="none" stroke="black" points="43.2,-1023.4 43.2,-1054.2 239.54,-1054.2 239.54,-1023.4 43.2,-1023.4"/>
<text text-anchor="start" x="50.2" y="-1035.6" font-family="Arial" font-size="14.00">date </text>
<text text-anchor="start" x="81.34" y="-1035.6" font-family="Arial" font-size="14.00" fill="#666666">[datetime]</text>
<polygon fill="none" stroke="black" points="43.2,-992.6 43.2,-1023.4 239.54,-1023.4 239.54,-992.6 43.2,-992.6"/>
<text text-anchor="start" x="50.2" y="-1004.8" font-family="Arial" font-size="14.00">invoiceStatus </text>
<text text-anchor="start" x="137.36" y="-1004.8" font-family="Arial" font-size="14.00" fill="#666666">[enum]</text>
</g>
<!-- Invoice&#45;&gt;Contact -->
<g id="edge1" class="edge">
<title>Invoice:customerID&#45;&gt;Contact:id</title>
<path fill="none" stroke="black" d="M249.77,-1342.71C300.59,-1294.62 273.31,-837.11 291.37,-780 311.98,-714.84 299.85,-646.8 368.19,-646.8"/>
<polygon fill="black" stroke="black" points="249.99,-1342.62 239.02,-1342.55 245.11,-1344.78 241.15,-1346.53 241.15,-1346.53 241.15,-1346.53 245.11,-1344.78 242.67,-1350.78 249.99,-1342.62"/>
<text text-anchor="start" x="247.54" y="-1356.8" font-family="Arial" font-size="10.00">ForeignKeyType: Contact</text>
</g>
<!-- PurchaseOrder -->
<g id="node3" class="node">
<title>PurchaseOrder</title>
<polygon fill="#efefef" stroke="none" points="343.71,-1562.4 343.71,-1598 593.03,-1598 593.03,-1562.4 343.71,-1562.4"/>
<polygon fill="none" stroke="black" points="343.71,-1562.4 343.71,-1598 593.03,-1598 593.03,-1562.4 343.71,-1562.4"/>
<text text-anchor="start" x="350.71" y="-1575.8" font-family="Arial Bold" font-size="18.00">PurchaseOrder</text>
<text text-anchor="start" x="457.66" y="-1575.8" font-family="Arial" font-size="14.00">    </text>
<text text-anchor="start" x="488.78" y="-1575.8" font-family="Arial" font-size="14.00" fill="#666666">[TailorDB.Type]</text>
<polygon fill="none" stroke="black" points="343.71,-1531.6 343.71,-1562.4 593.03,-1562.4 593.03,-1531.6 343.71,-1531.6"/>
<text text-anchor="start" x="350.71" y="-1543.8" font-family="Arial" font-size="14.00">id </text>
<text text-anchor="start" x="365.5" y="-1543.8" font-family="Arial" font-size="14.00" fill="#666666">[uuid]</text>
<polygon fill="none" stroke="black" points="343.71,-1500.8 343.71,-1531.6 593.03,-1531.6 593.03,-1500.8 343.71,-1500.8"/>
<text text-anchor="start" x="350.71" y="-1513" font-family="Arial" font-size="14.00">approvedBy </text>
<text text-anchor="start" x="429.32" y="-1513" font-family="Arial" font-size="14.00" fill="#666666">[string]</text>
<polygon fill="none" stroke="black" points="343.71,-1470 343.71,-1500.8 593.03,-1500.8 593.03,-1470 343.71,-1470"/>
<text text-anchor="start" x="350.71" y="-1482.2" font-family="Arial" font-size="14.00">exFactoryDate </text>
<text text-anchor="start" x="445.63" y="-1482.2" font-family="Arial" font-size="14.00" fill="#666666">[datetime]</text>
<polygon fill="none" stroke="black" points="343.71,-1439.2 343.71,-1470 593.03,-1470 593.03,-1439.2 343.71,-1439.2"/>
<text text-anchor="start" x="350.71" y="-1451.4" font-family="Arial" font-size="14.00">terms </text>
<text text-anchor="start" x="389.6" y="-1451.4" font-family="Arial" font-size="14.00" fill="#666666">[string]</text>
<polygon fill="none" stroke="black" points="343.71,-1408.4 343.71,-1439.2 593.03,-1439.2 593.03,-1408.4 343.71,-1408.4"/>
<text text-anchor="start" x="350.71" y="-1420.6" font-family="Arial" font-size="14.00">shippingInstructions </text>
<text text-anchor="start" x="478.34" y="-1420.6" font-family="Arial" font-size="14.00" fill="#666666">[string]</text>
<polygon fill="none" stroke="black" points="343.71,-1377.6 343.71,-1408.4 593.03,-1408.4 593.03,-1377.6 343.71,-1377.6"/>
<text text-anchor="start" x="350.71" y="-1389.8" font-family="Arial" font-size="14.00">supplierID </text>
<text text-anchor="start" x="417.63" y="-1389.8" font-family="Arial" font-size="14.00" fill="#666666">[uuid]</text>
<polygon fill="none" stroke="black" points="343.71,-1346.8 343.71,-1377.6 593.03,-1377.6 593.03,-1346.8 343.71,-1346.8"/>
<text text-anchor="start" x="350.71" y="-1359" font-family="Arial" font-size="14.00">supplier </text>
<text text-anchor="start" x="403.63" y="-1359" font-family="Arial" font-size="14.00" fill="#666666">[Contact]</text>
<polygon fill="none" stroke="black" points="343.71,-1316 343.71,-1346.8 593.03,-1346.8 593.03,-1316 343.71,-1316"/>
<text text-anchor="start" x="350.71" y="-1328.2" font-family="Arial" font-size="14.00">date </text>
<text text-anchor="start" x="381.85" y="-1328.2" font-family="Arial" font-size="14.00" fill="#666666">[datetime]</text>
<polygon fill="none" stroke="black" points="343.71,-1285.2 343.71,-1316 593.03,-1316 593.03,-1285.2 343.71,-1285.2"/>
<text text-anchor="start" x="350.71" y="-1297.4" font-family="Arial" font-size="14.00">shippingContactPhone </text>
<text text-anchor="start" x="495.48" y="-1297.4" font-family="Arial" font-size="14.00" fill="#666666">[string]</text>
<polygon fill="none" stroke="black" points="343.71,-1254.4 343.71,-1285.2 593.03,-1285.2 593.03,-1254.4 343.71,-1254.4"/>
<text text-anchor="start" x="350.71" y="-1266.6" font-family="Arial" font-size="14.00">shipTo </text>
<text text-anchor="start" x="396.62" y="-1266.6" font-family="Arial" font-size="14.00" fill="#666666">[Contact]</text>
<polygon fill="none" stroke="black" points="343.71,-1223.6 343.71,-1254.4 593.03,-1254.4 593.03,-1223.6 343.71,-1223.6"/>
<text text-anchor="start" x="350.71" y="-1235.8" font-family="Arial" font-size="14.00">pulledBy </text>
<text text-anchor="start" x="408.3" y="-1235.8" font-family="Arial" font-size="14.00" fill="#666666">[string]</text>
<polygon fill="none" stroke="black" points="343.71,-1192.8 343.71,-1223.6 593.03,-1223.6 593.03,-1192.8 343.71,-1192.8"/>
<text text-anchor="start" x="350.71" y="-1205" font-family="Arial" font-size="14.00">receivedBy </text>
<text text-anchor="start" x="423.85" y="-1205" font-family="Arial" font-size="14.00" fill="#666666">[string]</text>
<polygon fill="none" stroke="black" points="343.71,-1162 343.71,-1192.8 593.03,-1192.8 593.03,-1162 343.71,-1162"/>
<text text-anchor="start" x="350.71" y="-1174.2" font-family="Arial" font-size="14.00">active </text>
<text text-anchor="start" x="391.17" y="-1174.2" font-family="Arial" font-size="14.00" fill="#666666">[boolean]</text>
<polygon fill="none" stroke="black" points="343.71,-1131.2 343.71,-1162 593.03,-1162 593.03,-1131.2 343.71,-1131.2"/>
<text text-anchor="start" x="350.71" y="-1143.4" font-family="Arial" font-size="14.00">billToID </text>
<text text-anchor="start" x="402.05" y="-1143.4" font-family="Arial" font-size="14.00" fill="#666666">[uuid]</text>
<polygon fill="none" stroke="black" points="343.71,-1100.4 343.71,-1131.2 593.03,-1131.2 593.03,-1100.4 343.71,-1100.4"/>
<text text-anchor="start" x="350.71" y="-1112.6" font-family="Arial" font-size="14.00">billTo </text>
<text text-anchor="start" x="388.05" y="-1112.6" font-family="Arial" font-size="14.00" fill="#666666">[Contact]</text>
<polygon fill="none" stroke="black" points="343.71,-1069.6 343.71,-1100.4 593.03,-1100.4 593.03,-1069.6 343.71,-1069.6"/>
<text text-anchor="start" x="350.71" y="-1081.8" font-family="Arial" font-size="14.00">shipToID </text>
<text text-anchor="start" x="410.62" y="-1081.8" font-family="Arial" font-size="14.00" fill="#666666">[uuid]</text>
<polygon fill="none" stroke="black" points="343.71,-1038.8 343.71,-1069.6 593.03,-1069.6 593.03,-1038.8 343.71,-1038.8"/>
<text text-anchor="start" x="350.71" y="-1051" font-family="Arial" font-size="14.00">shippingContactName </text>
<text text-anchor="start" x="492.34" y="-1051" font-family="Arial" font-size="14.00" fill="#666666">[string]</text>
<polygon fill="none" stroke="black" points="343.71,-1008 343.71,-1038.8 593.03,-1038.8 593.03,-1008 343.71,-1008"/>
<text text-anchor="start" x="350.71" y="-1020.2" font-family="Arial" font-size="14.00">dueDate </text>
<text text-anchor="start" x="407.53" y="-1020.2" font-family="Arial" font-size="14.00" fill="#666666">[datetime]</text>
<polygon fill="none" stroke="black" points="343.71,-977.2 343.71,-1008 593.03,-1008 593.03,-977.2 343.71,-977.2"/>
<text text-anchor="start" x="350.71" y="-989.4" font-family="Arial" font-size="14.00">notes </text>
<text text-anchor="start" x="388.85" y="-989.4" font-family="Arial" font-size="14.00" fill="#666666">[string]</text>
<polygon fill="none" stroke="black" points="343.71,-946.4 343.71,-977.2 593.03,-977.2 593.03,-946.4 343.71,-946.4"/>
<text text-anchor="start" x="350.71" y="-958.6" font-family="Arial" font-size="14.00">updatedAt </text>
<text text-anchor="start" x="418.43" y="-958.6" font-family="Arial" font-size="14.00" fill="#666666">[datetime]</text>
<polygon fill="none" stroke="black" points="343.71,-915.6 343.71,-946.4 593.03,-946.4 593.03,-915.6 343.71,-915.6"/>
<text text-anchor="start" x="350.71" y="-927.8" font-family="Arial" font-size="14.00">createdAt </text>
<text text-anchor="start" x="414.52" y="-927.8" font-family="Arial" font-size="14.00" fill="#666666">[datetime]</text>
<polygon fill="none" stroke="black" points="343.71,-884.8 343.71,-915.6 593.03,-915.6 593.03,-884.8 343.71,-884.8"/>
<text text-anchor="start" x="350.71" y="-897" font-family="Arial" font-size="14.00">documentNumber </text>
<text text-anchor="start" x="465.87" y="-897" font-family="Arial" font-size="14.00" fill="#666666">[string]</text>
<polygon fill="none" stroke="black" points="343.71,-854 343.71,-884.8 593.03,-884.8 593.03,-854 343.71,-854"/>
<text text-anchor="start" x="350.71" y="-866.2" font-family="Arial" font-size="14.00">shipVia </text>
<text text-anchor="start" x="400.52" y="-866.2" font-family="Arial" font-size="14.00" fill="#666666">[string]</text>
<polygon fill="none" stroke="black" points="343.71,-823.2 343.71,-854 593.03,-854 593.03,-823.2 343.71,-823.2"/>
<text text-anchor="start" x="350.71" y="-835.4" font-family="Arial" font-size="14.00">trackingNumber </text>
<text text-anchor="start" x="453.41" y="-835.4" font-family="Arial" font-size="14.00" fill="#666666">[string]</text>
</g>
<!-- PurchaseOrder&#45;&gt;Contact -->
<g id="edge2" class="edge">
<title>PurchaseOrder:supplierID&#45;&gt;Contact:id</title>
<path fill="none" stroke="black" d="M603.69,-1389.34C674.8,-1333.04 648.1,-646.8 568.55,-646.8"/>
<polygon fill="black" stroke="black" points="603.69,-1389.34 592.75,-1388.67 598.7,-1391.23 594.65,-1392.76 594.65,-1392.76 594.65,-1392.76 598.7,-1391.23 595.94,-1397.09 603.69,-1389.34"/>
<text text-anchor="start" x="601.03" y="-1403" font-family="Arial" font-size="10.00">Source: Contact</text>
</g>
<!-- PurchaseOrder&#45;&gt;Contact -->
<g id="edge3" class="edge">
<title>PurchaseOrder:shipToID&#45;&gt;Contact:id</title>
<path fill="none" stroke="black" d="M602.78,-1079.46C639.31,-1028.73 614.08,-646.8 568.55,-646.8"/>
<polygon fill="black" stroke="black" points="602.76,-1079.47 591.9,-1081.02 598.25,-1082.32 594.59,-1084.64 594.59,-1084.64 594.59,-1084.64 598.25,-1082.32 596.72,-1088.62 602.76,-1079.47"/>
<text text-anchor="start" x="601.03" y="-1095" font-family="Arial" font-size="10.00">Source: Contact</text>
</g>
<!-- PurchaseOrder&#45;&gt;Contact -->
<g id="edge4" class="edge">
<title>PurchaseOrder:billToID&#45;&gt;Contact:id</title>
<path fill="none" stroke="black" d="M602.98,-1141.65C646.54,-1089.75 620.89,-646.8 568.55,-646.8"/>
<polygon fill="black" stroke="black" points="603.07,-1141.6 592.14,-1142.5 598.41,-1144.18 594.61,-1146.28 594.61,-1146.28 594.61,-1146.28 598.41,-1144.18 596.5,-1150.38 603.07,-1141.6"/>
<text text-anchor="start" x="601.03" y="-1156.6" font-family="Arial" font-size="10.00">Source: Contact</text>
</g>
<!-- Receipt -->
<g id="node4" class="node">
<title>Receipt</title>
<polygon fill="#efefef" stroke="none" points="697.38,-1362.2 697.38,-1397.8 911.36,-1397.8 911.36,-1362.2 697.38,-1362.2"/>
<polygon fill="none" stroke="black" points="697.38,-1362.2 697.38,-1397.8 911.36,-1397.8 911.36,-1362.2 697.38,-1362.2"/>
<text text-anchor="start" x="712.7" y="-1375.6" font-family="Arial Bold" font-size="18.00">Receipt</text>
<text text-anchor="start" x="767.67" y="-1375.6" font-family="Arial" font-size="14.00">    </text>
<text text-anchor="start" x="798.79" y="-1375.6" font-family="Arial" font-size="14.00" fill="#666666">[TailorDB.Type]</text>
<polygon fill="none" stroke="black" points="697.38,-1331.4 697.38,-1362.2 911.36,-1362.2 911.36,-1331.4 697.38,-1331.4"/>
<text text-anchor="start" x="704.38" y="-1343.6" font-family="Arial" font-size="14.00">id </text>
<text text-anchor="start" x="719.17" y="-1343.6" font-family="Arial" font-size="14.00" fill="#666666">[uuid]</text>
<polygon fill="none" stroke="black" points="697.38,-1300.6 697.38,-1331.4 911.36,-1331.4 911.36,-1300.6 697.38,-1300.6"/>
<text text-anchor="start" x="704.38" y="-1312.8" font-family="Arial" font-size="14.00">receiptNumber </text>
<text text-anchor="start" x="800.08" y="-1312.8" font-family="Arial" font-size="14.00" fill="#666666">[string]</text>
<polygon fill="none" stroke="black" points="697.38,-1269.8 697.38,-1300.6 911.36,-1300.6 911.36,-1269.8 697.38,-1269.8"/>
<text text-anchor="start" x="704.38" y="-1282" font-family="Arial" font-size="14.00">purchaseOrderID </text>
<text text-anchor="start" x="815.65" y="-1282" font-family="Arial" font-size="14.00" fill="#666666">[uuid]</text>
<polygon fill="none" stroke="black" points="697.38,-1239 697.38,-1269.8 911.36,-1269.8 911.36,-1239 697.38,-1239"/>
<text text-anchor="start" x="704.38" y="-1251.2" font-family="Arial" font-size="14.00">active </text>
<text text-anchor="start" x="744.84" y="-1251.2" font-family="Arial" font-size="14.00" fill="#666666">[boolean]</text>
<polygon fill="none" stroke="black" points="697.38,-1208.2 697.38,-1239 911.36,-1239 911.36,-1208.2 697.38,-1208.2"/>
<text text-anchor="start" x="704.38" y="-1220.4" font-family="Arial" font-size="14.00">createdAt </text>
<text text-anchor="start" x="768.19" y="-1220.4" font-family="Arial" font-size="14.00" fill="#666666">[datetime]</text>
<polygon fill="none" stroke="black" points="697.38,-1177.4 697.38,-1208.2 911.36,-1208.2 911.36,-1177.4 697.38,-1177.4"/>
<text text-anchor="start" x="704.38" y="-1189.6" font-family="Arial" font-size="14.00">purchaseOrder </text>
<text text-anchor="start" x="801.65" y="-1189.6" font-family="Arial" font-size="14.00" fill="#666666">[PurchaseOrder]</text>
<polygon fill="none" stroke="black" points="697.38,-1146.6 697.38,-1177.4 911.36,-1177.4 911.36,-1146.6 697.38,-1146.6"/>
<text text-anchor="start" x="704.38" y="-1158.8" font-family="Arial" font-size="14.00">date </text>
<text text-anchor="start" x="735.52" y="-1158.8" font-family="Arial" font-size="14.00" fill="#666666">[datetime]</text>
<polygon fill="none" stroke="black" points="697.38,-1115.8 697.38,-1146.6 911.36,-1146.6 911.36,-1115.8 697.38,-1115.8"/>
<text text-anchor="start" x="704.38" y="-1128" font-family="Arial" font-size="14.00">receiptStatus </text>
<text text-anchor="start" x="789.98" y="-1128" font-family="Arial" font-size="14.00" fill="#666666">[enum]</text>
<polygon fill="none" stroke="black" points="697.38,-1085 697.38,-1115.8 911.36,-1115.8 911.36,-1085 697.38,-1085"/>
<text text-anchor="start" x="704.38" y="-1097.2" font-family="Arial" font-size="14.00">updatedAt </text>
<text text-anchor="start" x="772.1" y="-1097.2" font-family="Arial" font-size="14.00" fill="#666666">[datetime]</text>
<polygon fill="none" stroke="black" points="697.38,-1054.2 697.38,-1085 911.36,-1085 911.36,-1054.2 697.38,-1054.2"/>
<text text-anchor="start" x="704.38" y="-1066.4" font-family="Arial" font-size="14.00">supplierID </text>
<text text-anchor="start" x="771.3" y="-1066.4" font-family="Arial" font-size="14.00" fill="#666666">[uuid]</text>
<polygon fill="none" stroke="black" points="697.38,-1023.4 697.38,-1054.2 911.36,-1054.2 911.36,-1023.4 697.38,-1023.4"/>
<text text-anchor="start" x="704.38" y="-1035.6" font-family="Arial" font-size="14.00">supplier </text>
<text text-anchor="start" x="757.3" y="-1035.6" font-family="Arial" font-size="14.00" fill="#666666">[Contact]</text>
</g>
<!-- Receipt&#45;&gt;Contact -->
<g id="edge5" class="edge">
<title>Receipt:supplierID&#45;&gt;Contact:id</title>
<path fill="none" stroke="black" d="M686.23,-1067.48C635,-1044.29 666.44,-837.93 645.37,-780 622.02,-715.77 636.89,-646.8 568.55,-646.8"/>
<polygon fill="black" stroke="black" points="686.26,-1067.48 695.13,-1073.94 691.49,-1068.58 695.73,-1069.46 695.73,-1069.46 695.73,-1069.46 691.49,-1068.58 696.97,-1065.13 686.26,-1067.48"/>
<text text-anchor="start" x="575.99" y="-1053.6" font-family="Arial" font-size="10.00">ForeignKeyType: Contact</text>
</g>
<!-- SalesOrder -->
<g id="node5" class="node">
<title>SalesOrder</title>
<polygon fill="#efefef" stroke="none" points="1016.2,-1439.2 1016.2,-1474.8 1238.54,-1474.8 1238.54,-1439.2 1016.2,-1439.2"/>
<polygon fill="none" stroke="black" points="1016.2,-1439.2 1016.2,-1474.8 1238.54,-1474.8 1238.54,-1439.2 1016.2,-1439.2"/>
<text text-anchor="start" x="1023.2" y="-1452.6" font-family="Arial Bold" font-size="18.00">SalesOrder</text>
<text text-anchor="start" x="1103.17" y="-1452.6" font-family="Arial" font-size="14.00">    </text>
<text text-anchor="start" x="1134.29" y="-1452.6" font-family="Arial" font-size="14.00" fill="#666666">[TailorDB.Type]</text>
<polygon fill="none" stroke="black" points="1016.2,-1408.4 1016.2,-1439.2 1238.54,-1439.2 1238.54,-1408.4 1016.2,-1408.4"/>
<text text-anchor="start" x="1023.2" y="-1420.6" font-family="Arial" font-size="14.00">id </text>
<text text-anchor="start" x="1037.99" y="-1420.6" font-family="Arial" font-size="14.00" fill="#666666">[uuid]</text>
<polygon fill="none" stroke="black" points="1016.2,-1377.6 1016.2,-1408.4 1238.54,-1408.4 1238.54,-1377.6 1016.2,-1377.6"/>
<text text-anchor="start" x="1023.2" y="-1389.8" font-family="Arial" font-size="14.00">customer </text>
<text text-anchor="start" x="1084.66" y="-1389.8" font-family="Arial" font-size="14.00" fill="#666666">[Contact]</text>
<polygon fill="none" stroke="black" points="1016.2,-1346.8 1016.2,-1377.6 1238.54,-1377.6 1238.54,-1346.8 1016.2,-1346.8"/>
<text text-anchor="start" x="1023.2" y="-1359" font-family="Arial" font-size="14.00">createdAt </text>
<text text-anchor="start" x="1087.01" y="-1359" font-family="Arial" font-size="14.00" fill="#666666">[datetime]</text>
<polygon fill="none" stroke="black" points="1016.2,-1316 1016.2,-1346.8 1238.54,-1346.8 1238.54,-1316 1016.2,-1316"/>
<text text-anchor="start" x="1023.2" y="-1328.2" font-family="Arial" font-size="14.00">shippedAt </text>
<text text-anchor="start" x="1089.36" y="-1328.2" font-family="Arial" font-size="14.00" fill="#666666">[datetime]</text>
<polygon fill="none" stroke="black" points="1016.2,-1285.2 1016.2,-1316 1238.54,-1316 1238.54,-1285.2 1016.2,-1285.2"/>
<text text-anchor="start" x="1023.2" y="-1297.4" font-family="Arial" font-size="14.00">customerID </text>
<text text-anchor="start" x="1098.66" y="-1297.4" font-family="Arial" font-size="14.00" fill="#666666">[uuid]</text>
<polygon fill="none" stroke="black" points="1016.2,-1254.4 1016.2,-1285.2 1238.54,-1285.2 1238.54,-1254.4 1016.2,-1254.4"/>
<text text-anchor="start" x="1023.2" y="-1266.6" font-family="Arial" font-size="14.00">currency </text>
<text text-anchor="start" x="1080.77" y="-1266.6" font-family="Arial" font-size="14.00" fill="#666666">[string]</text>
<polygon fill="none" stroke="black" points="1016.2,-1223.6 1016.2,-1254.4 1238.54,-1254.4 1238.54,-1223.6 1016.2,-1223.6"/>
<text text-anchor="start" x="1023.2" y="-1235.8" font-family="Arial" font-size="14.00">currentSubtotalPrice </text>
<text text-anchor="start" x="1153.93" y="-1235.8" font-family="Arial" font-size="14.00" fill="#666666">[string]</text>
<polygon fill="none" stroke="black" points="1016.2,-1192.8 1016.2,-1223.6 1238.54,-1223.6 1238.54,-1192.8 1016.2,-1192.8"/>
<text text-anchor="start" x="1023.2" y="-1205" font-family="Arial" font-size="14.00">customerEmail </text>
<text text-anchor="start" x="1119.67" y="-1205" font-family="Arial" font-size="14.00" fill="#666666">[string]</text>
<polygon fill="none" stroke="black" points="1016.2,-1162 1016.2,-1192.8 1238.54,-1192.8 1238.54,-1162 1016.2,-1162"/>
<text text-anchor="start" x="1023.2" y="-1174.2" font-family="Arial" font-size="14.00">active </text>
<text text-anchor="start" x="1063.66" y="-1174.2" font-family="Arial" font-size="14.00" fill="#666666">[boolean]</text>
<polygon fill="none" stroke="black" points="1016.2,-1131.2 1016.2,-1162 1238.54,-1162 1238.54,-1131.2 1016.2,-1131.2"/>
<text text-anchor="start" x="1023.2" y="-1143.4" font-family="Arial" font-size="14.00">cancelledAt </text>
<text text-anchor="start" x="1099.47" y="-1143.4" font-family="Arial" font-size="14.00" fill="#666666">[datetime]</text>
<polygon fill="none" stroke="black" points="1016.2,-1100.4 1016.2,-1131.2 1238.54,-1131.2 1238.54,-1100.4 1016.2,-1100.4"/>
<text text-anchor="start" x="1023.2" y="-1112.6" font-family="Arial" font-size="14.00">customerName </text>
<text text-anchor="start" x="1122.01" y="-1112.6" font-family="Arial" font-size="14.00" fill="#666666">[string]</text>
<polygon fill="none" stroke="black" points="1016.2,-1069.6 1016.2,-1100.4 1238.54,-1100.4 1238.54,-1069.6 1016.2,-1069.6"/>
<text text-anchor="start" x="1023.2" y="-1081.8" font-family="Arial" font-size="14.00">updatedAt </text>
<text text-anchor="start" x="1090.92" y="-1081.8" font-family="Arial" font-size="14.00" fill="#666666">[datetime]</text>
<polygon fill="none" stroke="black" points="1016.2,-1038.8 1016.2,-1069.6 1238.54,-1069.6 1238.54,-1038.8 1016.2,-1038.8"/>
<text text-anchor="start" x="1023.2" y="-1051" font-family="Arial" font-size="14.00">orderNumber </text>
<text text-anchor="start" x="1109.57" y="-1051" font-family="Arial" font-size="14.00" fill="#666666">[integer]</text>
<polygon fill="none" stroke="black" points="1016.2,-1008 1016.2,-1038.8 1238.54,-1038.8 1238.54,-1008 1016.2,-1008"/>
<text text-anchor="start" x="1023.2" y="-1020.2" font-family="Arial" font-size="14.00">cancelReason </text>
<text text-anchor="start" x="1115.81" y="-1020.2" font-family="Arial" font-size="14.00" fill="#666666">[string]</text>
<polygon fill="none" stroke="black" points="1016.2,-977.2 1016.2,-1008 1238.54,-1008 1238.54,-977.2 1016.2,-977.2"/>
<text text-anchor="start" x="1023.2" y="-989.4" font-family="Arial" font-size="14.00">shipStationOrderStatus </text>
<text text-anchor="start" x="1171.83" y="-989.4" font-family="Arial" font-size="14.00" fill="#666666">[enum]</text>
<polygon fill="none" stroke="black" points="1016.2,-946.4 1016.2,-977.2 1238.54,-977.2 1238.54,-946.4 1016.2,-946.4"/>
<text text-anchor="start" x="1023.2" y="-958.6" font-family="Arial" font-size="14.00">shopifyID </text>
<text text-anchor="start" x="1085.45" y="-958.6" font-family="Arial" font-size="14.00" fill="#666666">[string]</text>
</g>
<!-- SalesOrder&#45;&gt;Contact -->
<g id="edge6" class="edge">
<title>SalesOrder:customerID&#45;&gt;Contact:id</title>
<path fill="none" stroke="black" d="M1005.03,-1299.36C907.29,-1274.08 1033.51,-868.12 963.37,-780 905.7,-707.55 661.14,-646.8 568.55,-646.8"/>
<polygon fill="black" stroke="black" points="1004.94,-1299.35 1014.33,-1305.03 1010.24,-1300 1014.54,-1300.52 1014.54,-1300.52 1014.54,-1300.52 1010.24,-1300 1015.41,-1296.09 1004.94,-1299.35"/>
<text text-anchor="start" x="894.81" y="-1310.6" font-family="Arial" font-size="10.00">ForeignKeyType: Contact</text>
</g>
<!-- Shipment -->
<g id="node6" class="node">
<title>Shipment</title>
<polygon fill="#efefef" stroke="none" points="1342.69,-1346.8 1342.69,-1382.4 1554.05,-1382.4 1554.05,-1346.8 1342.69,-1346.8"/>
<polygon fill="none" stroke="black" points="1342.69,-1346.8 1342.69,-1382.4 1554.05,-1382.4 1554.05,-1346.8 1342.69,-1346.8"/>
<text text-anchor="start" x="1349.69" y="-1360.2" font-family="Arial Bold" font-size="18.00">Shipment</text>
<text text-anchor="start" x="1418.69" y="-1360.2" font-family="Arial" font-size="14.00">    </text>
<text text-anchor="start" x="1449.81" y="-1360.2" font-family="Arial" font-size="14.00" fill="#666666">[TailorDB.Type]</text>
<polygon fill="none" stroke="black" points="1342.69,-1316 1342.69,-1346.8 1554.05,-1346.8 1554.05,-1316 1342.69,-1316"/>
<text text-anchor="start" x="1349.69" y="-1328.2" font-family="Arial" font-size="14.00">id </text>
<text text-anchor="start" x="1364.47" y="-1328.2" font-family="Arial" font-size="14.00" fill="#666666">[uuid]</text>
<polygon fill="none" stroke="black" points="1342.69,-1285.2 1342.69,-1316 1554.05,-1316 1554.05,-1285.2 1342.69,-1285.2"/>
<text text-anchor="start" x="1349.69" y="-1297.4" font-family="Arial" font-size="14.00">active </text>
<text text-anchor="start" x="1390.15" y="-1297.4" font-family="Arial" font-size="14.00" fill="#666666">[boolean]</text>
<polygon fill="none" stroke="black" points="1342.69,-1254.4 1342.69,-1285.2 1554.05,-1285.2 1554.05,-1254.4 1342.69,-1254.4"/>
<text text-anchor="start" x="1349.69" y="-1266.6" font-family="Arial" font-size="14.00">createdAt </text>
<text text-anchor="start" x="1413.5" y="-1266.6" font-family="Arial" font-size="14.00" fill="#666666">[datetime]</text>
<polygon fill="none" stroke="black" points="1342.69,-1223.6 1342.69,-1254.4 1554.05,-1254.4 1554.05,-1223.6 1342.69,-1223.6"/>
<text text-anchor="start" x="1349.69" y="-1235.8" font-family="Arial" font-size="14.00">customerID </text>
<text text-anchor="start" x="1425.15" y="-1235.8" font-family="Arial" font-size="14.00" fill="#666666">[uuid]</text>
<polygon fill="none" stroke="black" points="1342.69,-1192.8 1342.69,-1223.6 1554.05,-1223.6 1554.05,-1192.8 1342.69,-1192.8"/>
<text text-anchor="start" x="1349.69" y="-1205" font-family="Arial" font-size="14.00">salesOrderID </text>
<text text-anchor="start" x="1436.04" y="-1205" font-family="Arial" font-size="14.00" fill="#666666">[uuid]</text>
<polygon fill="none" stroke="black" points="1342.69,-1162 1342.69,-1192.8 1554.05,-1192.8 1554.05,-1162 1342.69,-1162"/>
<text text-anchor="start" x="1349.69" y="-1174.2" font-family="Arial" font-size="14.00">shipmentNumber </text>
<text text-anchor="start" x="1460.17" y="-1174.2" font-family="Arial" font-size="14.00" fill="#666666">[string]</text>
<polygon fill="none" stroke="black" points="1342.69,-1131.2 1342.69,-1162 1554.05,-1162 1554.05,-1131.2 1342.69,-1131.2"/>
<text text-anchor="start" x="1349.69" y="-1143.4" font-family="Arial" font-size="14.00">customer </text>
<text text-anchor="start" x="1411.15" y="-1143.4" font-family="Arial" font-size="14.00" fill="#666666">[Contact]</text>
<polygon fill="none" stroke="black" points="1342.69,-1100.4 1342.69,-1131.2 1554.05,-1131.2 1554.05,-1100.4 1342.69,-1100.4"/>
<text text-anchor="start" x="1349.69" y="-1112.6" font-family="Arial" font-size="14.00">salesOrder </text>
<text text-anchor="start" x="1422.04" y="-1112.6" font-family="Arial" font-size="14.00" fill="#666666">[SalesOrder]</text>
<polygon fill="none" stroke="black" points="1342.69,-1069.6 1342.69,-1100.4 1554.05,-1100.4 1554.05,-1069.6 1342.69,-1069.6"/>
<text text-anchor="start" x="1349.69" y="-1081.8" font-family="Arial" font-size="14.00">date </text>
<text text-anchor="start" x="1380.82" y="-1081.8" font-family="Arial" font-size="14.00" fill="#666666">[datetime]</text>
<polygon fill="none" stroke="black" points="1342.69,-1038.8 1342.69,-1069.6 1554.05,-1069.6 1554.05,-1038.8 1342.69,-1038.8"/>
<text text-anchor="start" x="1349.69" y="-1051" font-family="Arial" font-size="14.00">updatedAt </text>
<text text-anchor="start" x="1417.41" y="-1051" font-family="Arial" font-size="14.00" fill="#666666">[datetime]</text>
</g>
<!-- Shipment&#45;&gt;Contact -->
<g id="edge7" class="edge">
<title>Shipment:customerID&#45;&gt;Contact:id</title>
<path fill="none" stroke="black" d="M1331.42,-1237.53C1247.56,-1211.66 1357.79,-852.4 1290.37,-780 1179.21,-660.63 731.66,-646.8 568.55,-646.8"/>
<polygon fill="black" stroke="black" points="1331.46,-1237.53 1340.72,-1243.41 1336.74,-1238.29 1341.02,-1238.91 1341.02,-1238.91 1341.02,-1238.91 1336.74,-1238.29 1341.99,-1234.5 1331.46,-1237.53"/>
<text text-anchor="start" x="1221.3" y="-1249" font-family="Arial" font-size="10.00">ForeignKeyType: Contact</text>
</g>
</g>
</svg>
