<?xml version="1.0" encoding="UTF-8" standalone="no"?>
<!DOCTYPE svg PUBLIC "-//W3C//DTD SVG 1.1//EN"
 "http://www.w3.org/Graphics/SVG/1.1/DTD/svg11.dtd">
<!-- Generated by graphviz version 12.1.2 (20240928.0832)
 -->
<!-- Title: ContactListMember Pages: 1 -->
<svg width="624pt" height="879pt"
 viewBox="0.00 0.00 623.75 879.20" xmlns="http://www.w3.org/2000/svg" xmlns:xlink="http://www.w3.org/1999/xlink">
<g id="graph0" class="graph" transform="scale(1 1) rotate(0) translate(4 875.2)">
<title>ContactListMember</title>
<polygon fill="white" stroke="none" points="-4,4 -4,-875.2 619.75,-875.2 619.75,4 -4,4"/>
<!-- ContactListMember -->
<g id="node1" class="node">
<title>ContactListMember</title>
<polygon fill="#efefef" stroke="none" points="156.71,-789.4 156.71,-825 444.04,-825 444.04,-789.4 156.71,-789.4"/>
<polygon fill="none" stroke="black" points="156.71,-789.4 156.71,-825 444.04,-825 444.04,-789.4 156.71,-789.4"/>
<text text-anchor="start" x="163.71" y="-802.8" font-family="Arial Bold" font-size="18.00">ContactListMember</text>
<text text-anchor="start" x="308.68" y="-802.8" font-family="Arial" font-size="14.00">    </text>
<text text-anchor="start" x="339.79" y="-802.8" font-family="Arial" font-size="14.00" fill="#666666">[TailorDB.Type]</text>
<polygon fill="none" stroke="black" points="156.71,-758.6 156.71,-789.4 444.04,-789.4 444.04,-758.6 156.71,-758.6"/>
<text text-anchor="start" x="163.71" y="-770.8" font-family="Arial" font-size="14.00">id </text>
<text text-anchor="start" x="178.5" y="-770.8" font-family="Arial" font-size="14.00" fill="#666666">[uuid]</text>
<polygon fill="none" stroke="black" points="156.71,-727.8 156.71,-758.6 444.04,-758.6 444.04,-727.8 156.71,-727.8"/>
<text text-anchor="start" x="163.71" y="-740" font-family="Arial" font-size="14.00">contact </text>
<text text-anchor="start" x="212.74" y="-740" font-family="Arial" font-size="14.00" fill="#666666">[Contact]</text>
<polygon fill="none" stroke="black" points="156.71,-697 156.71,-727.8 444.04,-727.8 444.04,-697 156.71,-697"/>
<text text-anchor="start" x="163.71" y="-709.2" font-family="Arial" font-size="14.00">contactListId </text>
<text text-anchor="start" x="246.2" y="-709.2" font-family="Arial" font-size="14.00" fill="#666666">[uuid]</text>
<polygon fill="none" stroke="black" points="156.71,-666.2 156.71,-697 444.04,-697 444.04,-666.2 156.71,-666.2"/>
<text text-anchor="start" x="163.71" y="-678.4" font-family="Arial" font-size="14.00">contactList </text>
<text text-anchor="start" x="234.52" y="-678.4" font-family="Arial" font-size="14.00" fill="#666666">[ContactList]</text>
<polygon fill="none" stroke="black" points="156.71,-635.4 156.71,-666.2 444.04,-666.2 444.04,-635.4 156.71,-635.4"/>
<text text-anchor="start" x="163.71" y="-647.6" font-family="Arial" font-size="14.00">addedAt </text>
<text text-anchor="start" x="219.76" y="-647.6" font-family="Arial" font-size="14.00" fill="#666666">[string]</text>
<polygon fill="none" stroke="black" points="156.71,-604.6 156.71,-635.4 444.04,-635.4 444.04,-604.6 156.71,-604.6"/>
<text text-anchor="start" x="163.71" y="-616.8" font-family="Arial" font-size="14.00">createdAt </text>
<text text-anchor="start" x="227.52" y="-616.8" font-family="Arial" font-size="14.00" fill="#666666">[datetime]</text>
<polygon fill="none" stroke="black" points="156.71,-573.8 156.71,-604.6 444.04,-604.6 444.04,-573.8 156.71,-573.8"/>
<text text-anchor="start" x="163.71" y="-586" font-family="Arial" font-size="14.00">updatedAt </text>
<text text-anchor="start" x="231.43" y="-586" font-family="Arial" font-size="14.00" fill="#666666">[datetime]</text>
<polygon fill="none" stroke="black" points="156.71,-543 156.71,-573.8 444.04,-573.8 444.04,-543 156.71,-543"/>
<text text-anchor="start" x="163.71" y="-555.2" font-family="Arial" font-size="14.00">contactId </text>
<text text-anchor="start" x="224.41" y="-555.2" font-family="Arial" font-size="14.00" fill="#666666">[uuid]</text>
<polygon fill="none" stroke="black" stroke-width="3" points="155.21,-541.5 155.21,-826.5 445.54,-826.5 445.54,-541.5 155.21,-541.5"/>
</g>
<!-- Contact -->
<g id="node2" class="node">
<title>Contact</title>
<polygon fill="#efefef" stroke="none" points="43.2,-382 43.2,-417.6 241.55,-417.6 241.55,-382 43.2,-382"/>
<polygon fill="none" stroke="black" points="43.2,-382 43.2,-417.6 241.55,-417.6 241.55,-382 43.2,-382"/>
<text text-anchor="start" x="50.2" y="-395.4" font-family="Arial Bold" font-size="18.00">Contact</text>
<text text-anchor="start" x="106.19" y="-395.4" font-family="Arial" font-size="14.00">    </text>
<text text-anchor="start" x="137.3" y="-395.4" font-family="Arial" font-size="14.00" fill="#666666">[TailorDB.Type]</text>
<polygon fill="none" stroke="black" points="43.2,-351.2 43.2,-382 241.55,-382 241.55,-351.2 43.2,-351.2"/>
<text text-anchor="start" x="50.2" y="-363.4" font-family="Arial" font-size="14.00">id </text>
<text text-anchor="start" x="64.99" y="-363.4" font-family="Arial" font-size="14.00" fill="#666666">[uuid]</text>
<polygon fill="none" stroke="black" points="43.2,-320.4 43.2,-351.2 241.55,-351.2 241.55,-320.4 43.2,-320.4"/>
<text text-anchor="start" x="50.2" y="-332.6" font-family="Arial" font-size="14.00">phonePrimary </text>
<text text-anchor="start" x="141.24" y="-332.6" font-family="Arial" font-size="14.00" fill="#666666">[string]</text>
<polygon fill="none" stroke="black" points="43.2,-289.6 43.2,-320.4 241.55,-320.4 241.55,-289.6 43.2,-289.6"/>
<text text-anchor="start" x="50.2" y="-301.8" font-family="Arial" font-size="14.00">company </text>
<text text-anchor="start" x="110.9" y="-301.8" font-family="Arial" font-size="14.00" fill="#666666">[Company]</text>
<polygon fill="none" stroke="black" points="43.2,-258.8 43.2,-289.6 241.55,-289.6 241.55,-258.8 43.2,-258.8"/>
<text text-anchor="start" x="50.2" y="-271" font-family="Arial" font-size="14.00">createdAt </text>
<text text-anchor="start" x="114.01" y="-271" font-family="Arial" font-size="14.00" fill="#666666">[datetime]</text>
<polygon fill="none" stroke="black" points="43.2,-228 43.2,-258.8 241.55,-258.8 241.55,-228 43.2,-228"/>
<text text-anchor="start" x="50.2" y="-240.2" font-family="Arial" font-size="14.00">updatedAt </text>
<text text-anchor="start" x="117.92" y="-240.2" font-family="Arial" font-size="14.00" fill="#666666">[datetime]</text>
<polygon fill="none" stroke="black" points="43.2,-197.2 43.2,-228 241.55,-228 241.55,-197.2 43.2,-197.2"/>
<text text-anchor="start" x="50.2" y="-209.4" font-family="Arial" font-size="14.00">firstName </text>
<text text-anchor="start" x="113.99" y="-209.4" font-family="Arial" font-size="14.00" fill="#666666">[string]</text>
<polygon fill="none" stroke="black" points="43.2,-166.4 43.2,-197.2 241.55,-197.2 241.55,-166.4 43.2,-166.4"/>
<text text-anchor="start" x="50.2" y="-178.6" font-family="Arial" font-size="14.00">lastName </text>
<text text-anchor="start" x="113.22" y="-178.6" font-family="Arial" font-size="14.00" fill="#666666">[string]</text>
<polygon fill="none" stroke="black" points="43.2,-135.6 43.2,-166.4 241.55,-166.4 241.55,-135.6 43.2,-135.6"/>
<text text-anchor="start" x="50.2" y="-147.8" font-family="Arial" font-size="14.00">email </text>
<text text-anchor="start" x="87.54" y="-147.8" font-family="Arial" font-size="14.00" fill="#666666">[string]</text>
<polygon fill="none" stroke="black" points="43.2,-104.8 43.2,-135.6 241.55,-135.6 241.55,-104.8 43.2,-104.8"/>
<text text-anchor="start" x="50.2" y="-117" font-family="Arial" font-size="14.00">linkedInUrl </text>
<text text-anchor="start" x="120.23" y="-117" font-family="Arial" font-size="14.00" fill="#666666">[string]</text>
<polygon fill="none" stroke="black" points="43.2,-74 43.2,-104.8 241.55,-104.8 241.55,-74 43.2,-74"/>
<text text-anchor="start" x="50.2" y="-86.2" font-family="Arial" font-size="14.00">companyId </text>
<text text-anchor="start" x="122.57" y="-86.2" font-family="Arial" font-size="14.00" fill="#666666">[uuid]</text>
<polygon fill="none" stroke="black" points="43.2,-43.2 43.2,-74 241.55,-74 241.55,-43.2 43.2,-43.2"/>
<text text-anchor="start" x="50.2" y="-55.4" font-family="Arial" font-size="14.00">isDeleted </text>
<text text-anchor="start" x="112.45" y="-55.4" font-family="Arial" font-size="14.00" fill="#666666">[boolean]</text>
</g>
<!-- ContactListMember&#45;&gt;Contact -->
<g id="edge1" class="edge">
<title>ContactListMember:contactId&#45;&gt;Contact:id</title>
<path fill="none" stroke="black" d="M145.69,-555.76C132.47,-546.64 143.8,-515.96 156.71,-496.8 179.6,-462.83 218.76,-494.84 241.55,-460.8 264.85,-426.01 284.42,-366.6 242.55,-366.6"/>
<polygon fill="black" stroke="black" points="145.72,-555.77 154.24,-562.67 150.87,-557.13 155.06,-558.23 155.06,-558.23 155.06,-558.23 150.87,-557.13 156.53,-553.96 145.72,-555.77"/>
<text text-anchor="start" x="77.01" y="-568.4" font-family="Arial" font-size="10.00">Source: Contact</text>
</g>
<!-- ContactList -->
<g id="node3" class="node">
<title>ContactList</title>
<polygon fill="#efefef" stroke="none" points="346.2,-289.6 346.2,-325.2 572.55,-325.2 572.55,-289.6 346.2,-289.6"/>
<polygon fill="none" stroke="black" points="346.2,-289.6 346.2,-325.2 572.55,-325.2 572.55,-289.6 346.2,-289.6"/>
<text text-anchor="start" x="353.2" y="-303" font-family="Arial Bold" font-size="18.00">ContactList</text>
<text text-anchor="start" x="437.19" y="-303" font-family="Arial" font-size="14.00">    </text>
<text text-anchor="start" x="468.3" y="-303" font-family="Arial" font-size="14.00" fill="#666666">[TailorDB.Type]</text>
<polygon fill="none" stroke="black" points="346.2,-258.8 346.2,-289.6 572.55,-289.6 572.55,-258.8 346.2,-258.8"/>
<text text-anchor="start" x="353.2" y="-271" font-family="Arial" font-size="14.00">id </text>
<text text-anchor="start" x="367.99" y="-271" font-family="Arial" font-size="14.00" fill="#666666">[uuid]</text>
<polygon fill="none" stroke="black" points="346.2,-228 346.2,-258.8 572.55,-258.8 572.55,-228 346.2,-228"/>
<text text-anchor="start" x="353.2" y="-240.2" font-family="Arial" font-size="14.00">isDeleted </text>
<text text-anchor="start" x="415.45" y="-240.2" font-family="Arial" font-size="14.00" fill="#666666">[boolean]</text>
<polygon fill="none" stroke="black" points="346.2,-197.2 346.2,-228 572.55,-228 572.55,-197.2 346.2,-197.2"/>
<text text-anchor="start" x="353.2" y="-209.4" font-family="Arial" font-size="14.00">name </text>
<text text-anchor="start" x="392.11" y="-209.4" font-family="Arial" font-size="14.00" fill="#666666">[string]</text>
<polygon fill="none" stroke="black" points="346.2,-166.4 346.2,-197.2 572.55,-197.2 572.55,-166.4 346.2,-166.4"/>
<text text-anchor="start" x="353.2" y="-178.6" font-family="Arial" font-size="14.00">createdAt </text>
<text text-anchor="start" x="417.01" y="-178.6" font-family="Arial" font-size="14.00" fill="#666666">[datetime]</text>
<polygon fill="none" stroke="black" points="346.2,-135.6 346.2,-166.4 572.55,-166.4 572.55,-135.6 346.2,-135.6"/>
<text text-anchor="start" x="353.2" y="-147.8" font-family="Arial" font-size="14.00">updatedAt </text>
<text text-anchor="start" x="420.92" y="-147.8" font-family="Arial" font-size="14.00" fill="#666666">[datetime]</text>
</g>
<!-- ContactListMember&#45;&gt;ContactList -->
<g id="edge2" class="edge">
<title>ContactListMember:contactListId&#45;&gt;ContactList:id</title>
<path fill="none" stroke="black" d="M455.37,-712.22C695.52,-703.64 353.5,-389.65 346.2,-368.4 332.6,-328.8 303.33,-274.2 345.2,-274.2"/>
<polygon fill="black" stroke="black" points="455.37,-712.22 445.3,-707.89 450.04,-712.31 445.71,-712.39 445.71,-712.39 445.71,-712.39 450.04,-712.31 445.45,-716.89 455.37,-712.22"/>
<text text-anchor="start" x="452.04" y="-722.4" font-family="Arial" font-size="10.00">ForeignKeyType: ContactList</text>
</g>
</g>
</svg>
