<?xml version="1.0" encoding="UTF-8" standalone="no"?>
<!DOCTYPE svg PUBLIC "-//W3C//DTD SVG 1.1//EN"
 "http://www.w3.org/Graphics/SVG/1.1/DTD/svg11.dtd">
<!-- Generated by graphviz version 12.1.2 (20240928.0832)
 -->
<!-- Title: CostPoolLineItem Pages: 1 -->
<svg width="421pt" height="787pt"
 viewBox="0.00 0.00 421.38 786.80" xmlns="http://www.w3.org/2000/svg" xmlns:xlink="http://www.w3.org/1999/xlink">
<g id="graph0" class="graph" transform="scale(1 1) rotate(0) translate(4 782.8)">
<title>CostPoolLineItem</title>
<polygon fill="white" stroke="none" points="-4,4 -4,-782.8 417.38,-782.8 417.38,4 -4,4"/>
<!-- CostPoolLineItem -->
<g id="node1" class="node">
<title>CostPoolLineItem</title>
<polygon fill="#efefef" stroke="none" points="46.2,-697 46.2,-732.6 320.56,-732.6 320.56,-697 46.2,-697"/>
<polygon fill="none" stroke="black" points="46.2,-697 46.2,-732.6 320.56,-732.6 320.56,-697 46.2,-697"/>
<text text-anchor="start" x="53.2" y="-710.4" font-family="Arial Bold" font-size="18.00">CostPoolLineItem</text>
<text text-anchor="start" x="185.19" y="-710.4" font-family="Arial" font-size="14.00">    </text>
<text text-anchor="start" x="216.31" y="-710.4" font-family="Arial" font-size="14.00" fill="#666666">[TailorDB.Type]</text>
<polygon fill="none" stroke="black" points="46.2,-666.2 46.2,-697 320.56,-697 320.56,-666.2 46.2,-666.2"/>
<text text-anchor="start" x="53.2" y="-678.4" font-family="Arial" font-size="14.00">id </text>
<text text-anchor="start" x="67.99" y="-678.4" font-family="Arial" font-size="14.00" fill="#666666">[uuid]</text>
<polygon fill="none" stroke="black" points="46.2,-635.4 46.2,-666.2 320.56,-666.2 320.56,-635.4 46.2,-635.4"/>
<text text-anchor="start" x="53.2" y="-647.6" font-family="Arial" font-size="14.00">updatedAt </text>
<text text-anchor="start" x="120.92" y="-647.6" font-family="Arial" font-size="14.00" fill="#666666">[datetime]</text>
<polygon fill="none" stroke="black" points="46.2,-604.6 46.2,-635.4 320.56,-635.4 320.56,-604.6 46.2,-604.6"/>
<text text-anchor="start" x="53.2" y="-616.8" font-family="Arial" font-size="14.00">active </text>
<text text-anchor="start" x="93.66" y="-616.8" font-family="Arial" font-size="14.00" fill="#666666">[boolean]</text>
<polygon fill="none" stroke="black" points="46.2,-573.8 46.2,-604.6 320.56,-604.6 320.56,-573.8 46.2,-573.8"/>
<text text-anchor="start" x="53.2" y="-586" font-family="Arial" font-size="14.00">costPoolID </text>
<text text-anchor="start" x="124.79" y="-586" font-family="Arial" font-size="14.00" fill="#666666">[uuid]</text>
<polygon fill="none" stroke="black" points="46.2,-543 46.2,-573.8 320.56,-573.8 320.56,-543 46.2,-543"/>
<text text-anchor="start" x="53.2" y="-555.2" font-family="Arial" font-size="14.00">costPool </text>
<text text-anchor="start" x="110.79" y="-555.2" font-family="Arial" font-size="14.00" fill="#666666">[CostPool]</text>
<polygon fill="none" stroke="black" points="46.2,-512.2 46.2,-543 320.56,-543 320.56,-512.2 46.2,-512.2"/>
<text text-anchor="start" x="53.2" y="-524.4" font-family="Arial" font-size="14.00">createdAt </text>
<text text-anchor="start" x="117.01" y="-524.4" font-family="Arial" font-size="14.00" fill="#666666">[datetime]</text>
<polygon fill="none" stroke="black" points="46.2,-481.4 46.2,-512.2 320.56,-512.2 320.56,-481.4 46.2,-481.4"/>
<text text-anchor="start" x="53.2" y="-493.6" font-family="Arial" font-size="14.00">name </text>
<text text-anchor="start" x="92.11" y="-493.6" font-family="Arial" font-size="14.00" fill="#666666">[string]</text>
<polygon fill="none" stroke="black" points="46.2,-450.6 46.2,-481.4 320.56,-481.4 320.56,-450.6 46.2,-450.6"/>
<text text-anchor="start" x="53.2" y="-462.8" font-family="Arial" font-size="14.00">amount </text>
<text text-anchor="start" x="103.79" y="-462.8" font-family="Arial" font-size="14.00" fill="#666666">[float]</text>
<polygon fill="none" stroke="black" points="46.2,-419.8 46.2,-450.6 320.56,-450.6 320.56,-419.8 46.2,-419.8"/>
<text text-anchor="start" x="53.2" y="-432" font-family="Arial" font-size="14.00">allocationBase </text>
<text text-anchor="start" x="148.15" y="-432" font-family="Arial" font-size="14.00" fill="#666666">[enum]</text>
<polygon fill="none" stroke="black" stroke-width="3" points="44.7,-418.3 44.7,-734.1 322.06,-734.1 322.06,-418.3 44.7,-418.3"/>
</g>
<!-- CostPool -->
<g id="node2" class="node">
<title>CostPool</title>
<polygon fill="#efefef" stroke="none" points="79.19,-258.8 79.19,-294.4 287.57,-294.4 287.57,-258.8 79.19,-258.8"/>
<polygon fill="none" stroke="black" points="79.19,-258.8 79.19,-294.4 287.57,-294.4 287.57,-258.8 79.19,-258.8"/>
<text text-anchor="start" x="86.19" y="-272.2" font-family="Arial Bold" font-size="18.00">CostPool</text>
<text text-anchor="start" x="152.21" y="-272.2" font-family="Arial" font-size="14.00">    </text>
<text text-anchor="start" x="183.33" y="-272.2" font-family="Arial" font-size="14.00" fill="#666666">[TailorDB.Type]</text>
<polygon fill="none" stroke="black" points="79.19,-228 79.19,-258.8 287.57,-258.8 287.57,-228 79.19,-228"/>
<text text-anchor="start" x="86.19" y="-240.2" font-family="Arial" font-size="14.00">id </text>
<text text-anchor="start" x="100.97" y="-240.2" font-family="Arial" font-size="14.00" fill="#666666">[uuid]</text>
<polygon fill="none" stroke="black" points="79.19,-197.2 79.19,-228 287.57,-228 287.57,-197.2 79.19,-197.2"/>
<text text-anchor="start" x="86.19" y="-209.4" font-family="Arial" font-size="14.00">createdAt </text>
<text text-anchor="start" x="150" y="-209.4" font-family="Arial" font-size="14.00" fill="#666666">[datetime]</text>
<polygon fill="none" stroke="black" points="79.19,-166.4 79.19,-197.2 287.57,-197.2 287.57,-166.4 79.19,-166.4"/>
<text text-anchor="start" x="86.19" y="-178.6" font-family="Arial" font-size="14.00">name </text>
<text text-anchor="start" x="125.1" y="-178.6" font-family="Arial" font-size="14.00" fill="#666666">[string]</text>
<polygon fill="none" stroke="black" points="79.19,-135.6 79.19,-166.4 287.57,-166.4 287.57,-135.6 79.19,-135.6"/>
<text text-anchor="start" x="86.19" y="-147.8" font-family="Arial" font-size="14.00">isClosed </text>
<text text-anchor="start" x="143.76" y="-147.8" font-family="Arial" font-size="14.00" fill="#666666">[boolean]</text>
<polygon fill="none" stroke="black" points="79.19,-104.8 79.19,-135.6 287.57,-135.6 287.57,-104.8 79.19,-104.8"/>
<text text-anchor="start" x="86.19" y="-117" font-family="Arial" font-size="14.00">closedAt </text>
<text text-anchor="start" x="143.77" y="-117" font-family="Arial" font-size="14.00" fill="#666666">[datetime]</text>
<polygon fill="none" stroke="black" points="79.19,-74 79.19,-104.8 287.57,-104.8 287.57,-74 79.19,-74"/>
<text text-anchor="start" x="86.19" y="-86.2" font-family="Arial" font-size="14.00">updatedAt </text>
<text text-anchor="start" x="153.91" y="-86.2" font-family="Arial" font-size="14.00" fill="#666666">[datetime]</text>
<polygon fill="none" stroke="black" points="79.19,-43.2 79.19,-74 287.57,-74 287.57,-43.2 79.19,-43.2"/>
<text text-anchor="start" x="86.19" y="-55.4" font-family="Arial" font-size="14.00">active </text>
<text text-anchor="start" x="126.65" y="-55.4" font-family="Arial" font-size="14.00" fill="#666666">[boolean]</text>
</g>
<!-- CostPoolLineItem&#45;&gt;CostPool -->
<g id="edge1" class="edge">
<title>CostPoolLineItem:costPoolID&#45;&gt;CostPool:id</title>
<path fill="none" stroke="black" d="M331.7,-586.99C395.56,-557.54 362.15,-243.4 288.57,-243.4"/>
<polygon fill="black" stroke="black" points="331.66,-587 320.93,-584.73 326.44,-588.14 322.21,-589.06 322.21,-589.06 322.21,-589.06 326.44,-588.14 322.84,-593.53 331.66,-587"/>
<text text-anchor="start" x="328.56" y="-599.2" font-family="Arial" font-size="10.00">Source: CostPool</text>
</g>
</g>
</svg>
