<?xml version="1.0" encoding="UTF-8" standalone="no"?>
<!DOCTYPE svg PUBLIC "-//W3C//DTD SVG 1.1//EN"
 "http://www.w3.org/Graphics/SVG/1.1/DTD/svg11.dtd">
<!-- Generated by graphviz version 12.1.2 (20240928.0832)
 -->
<!-- Title: Deal Pages: 1 -->
<svg width="1136pt" height="1530pt"
 viewBox="0.00 0.00 1136.09 1530.00" xmlns="http://www.w3.org/2000/svg" xmlns:xlink="http://www.w3.org/1999/xlink">
<g id="graph0" class="graph" transform="scale(1 1) rotate(0) translate(4 1526)">
<title>Deal</title>
<polygon fill="white" stroke="none" points="-4,4 -4,-1526 1132.09,-1526 1132.09,4 -4,4"/>
<!-- Deal -->
<g id="node1" class="node">
<title>Deal</title>
<polygon fill="#efefef" stroke="none" points="501.2,-1066.6 501.2,-1102.2 658.89,-1102.2 658.89,-1066.6 501.2,-1066.6"/>
<polygon fill="none" stroke="black" points="501.2,-1066.6 501.2,-1102.2 658.89,-1102.2 658.89,-1066.6 501.2,-1066.6"/>
<text text-anchor="start" x="508.2" y="-1080" font-family="Arial Bold" font-size="18.00">Deal</text>
<text text-anchor="start" x="542.17" y="-1080" font-family="Arial" font-size="14.00">    </text>
<text text-anchor="start" x="573.29" y="-1080" font-family="Arial" font-size="14.00" fill="#666666">[Base Table]</text>
<polygon fill="none" stroke="black" points="501.2,-1035.8 501.2,-1066.6 658.89,-1066.6 658.89,-1035.8 501.2,-1035.8"/>
<text text-anchor="start" x="508.2" y="-1048" font-family="Arial" font-size="14.00">id </text>
<text text-anchor="start" x="522.98" y="-1048" font-family="Arial" font-size="14.00" fill="#666666">[uuid]</text>
<polygon fill="none" stroke="black" points="501.2,-1005 501.2,-1035.8 658.89,-1035.8 658.89,-1005 501.2,-1005"/>
<text text-anchor="start" x="508.2" y="-1017.2" font-family="Arial" font-size="14.00">dealStageId </text>
<text text-anchor="start" x="586.82" y="-1017.2" font-family="Arial" font-size="14.00" fill="#666666">[uuid]</text>
<polygon fill="none" stroke="black" points="501.2,-974.2 501.2,-1005 658.89,-1005 658.89,-974.2 501.2,-974.2"/>
<text text-anchor="start" x="508.2" y="-986.4" font-family="Arial" font-size="14.00">company </text>
<text text-anchor="start" x="568.89" y="-986.4" font-family="Arial" font-size="14.00" fill="#666666">[Company]</text>
<polygon fill="none" stroke="black" points="501.2,-943.4 501.2,-974.2 658.89,-974.2 658.89,-943.4 501.2,-943.4"/>
<text text-anchor="start" x="508.2" y="-955.6" font-family="Arial" font-size="14.00">value </text>
<text text-anchor="start" x="545.55" y="-955.6" font-family="Arial" font-size="14.00" fill="#666666">[float]</text>
<polygon fill="none" stroke="black" points="501.2,-912.6 501.2,-943.4 658.89,-943.4 658.89,-912.6 501.2,-912.6"/>
<text text-anchor="start" x="508.2" y="-924.8" font-family="Arial" font-size="14.00">user </text>
<text text-anchor="start" x="539.32" y="-924.8" font-family="Arial" font-size="14.00" fill="#666666">[User]</text>
<polygon fill="none" stroke="black" points="501.2,-881.8 501.2,-912.6 658.89,-912.6 658.89,-881.8 501.2,-881.8"/>
<text text-anchor="start" x="508.2" y="-894" font-family="Arial" font-size="14.00">contactId </text>
<text text-anchor="start" x="568.9" y="-894" font-family="Arial" font-size="14.00" fill="#666666">[uuid]</text>
<polygon fill="none" stroke="black" points="501.2,-851 501.2,-881.8 658.89,-881.8 658.89,-851 501.2,-851"/>
<text text-anchor="start" x="508.2" y="-863.2" font-family="Arial" font-size="14.00">isDeleted </text>
<text text-anchor="start" x="570.45" y="-863.2" font-family="Arial" font-size="14.00" fill="#666666">[boolean]</text>
<polygon fill="none" stroke="black" points="501.2,-820.2 501.2,-851 658.89,-851 658.89,-820.2 501.2,-820.2"/>
<text text-anchor="start" x="508.2" y="-832.4" font-family="Arial" font-size="14.00">probability </text>
<text text-anchor="start" x="575.9" y="-832.4" font-family="Arial" font-size="14.00" fill="#666666">[float]</text>
<polygon fill="none" stroke="black" points="501.2,-789.4 501.2,-820.2 658.89,-820.2 658.89,-789.4 501.2,-789.4"/>
<text text-anchor="start" x="508.2" y="-801.6" font-family="Arial" font-size="14.00">dealStage </text>
<text text-anchor="start" x="575.14" y="-801.6" font-family="Arial" font-size="14.00" fill="#666666">[DealStage]</text>
<polygon fill="none" stroke="black" points="501.2,-758.6 501.2,-789.4 658.89,-789.4 658.89,-758.6 501.2,-758.6"/>
<text text-anchor="start" x="508.2" y="-770.8" font-family="Arial" font-size="14.00">contact </text>
<text text-anchor="start" x="557.22" y="-770.8" font-family="Arial" font-size="14.00" fill="#666666">[Contact]</text>
<polygon fill="none" stroke="black" points="501.2,-727.8 501.2,-758.6 658.89,-758.6 658.89,-727.8 501.2,-727.8"/>
<text text-anchor="start" x="508.2" y="-740" font-family="Arial" font-size="14.00">createdAt </text>
<text text-anchor="start" x="572.01" y="-740" font-family="Arial" font-size="14.00" fill="#666666">[datetime]</text>
<polygon fill="none" stroke="black" points="501.2,-697 501.2,-727.8 658.89,-727.8 658.89,-697 501.2,-697"/>
<text text-anchor="start" x="508.2" y="-709.2" font-family="Arial" font-size="14.00">updatedAt </text>
<text text-anchor="start" x="575.92" y="-709.2" font-family="Arial" font-size="14.00" fill="#666666">[datetime]</text>
<polygon fill="none" stroke="black" points="501.2,-666.2 501.2,-697 658.89,-697 658.89,-666.2 501.2,-666.2"/>
<text text-anchor="start" x="508.2" y="-678.4" font-family="Arial" font-size="14.00">amount </text>
<text text-anchor="start" x="558.78" y="-678.4" font-family="Arial" font-size="14.00" fill="#666666">[float]</text>
<polygon fill="none" stroke="black" points="501.2,-635.4 501.2,-666.2 658.89,-666.2 658.89,-635.4 501.2,-635.4"/>
<text text-anchor="start" x="508.2" y="-647.6" font-family="Arial" font-size="14.00">companyId </text>
<text text-anchor="start" x="580.57" y="-647.6" font-family="Arial" font-size="14.00" fill="#666666">[uuid]</text>
<polygon fill="none" stroke="black" points="501.2,-604.6 501.2,-635.4 658.89,-635.4 658.89,-604.6 501.2,-604.6"/>
<text text-anchor="start" x="508.2" y="-616.8" font-family="Arial" font-size="14.00">userId </text>
<text text-anchor="start" x="550.99" y="-616.8" font-family="Arial" font-size="14.00" fill="#666666">[uuid]</text>
<polygon fill="none" stroke="black" stroke-width="3" points="499.7,-603.1 499.7,-1103.7 660.39,-1103.7 660.39,-603.1 499.7,-603.1"/>
</g>
<!-- DealStage -->
<g id="node3" class="node">
<title>DealStage</title>
<polygon fill="#efefef" stroke="none" points="43.2,-443.6 43.2,-479.2 240.89,-479.2 240.89,-443.6 43.2,-443.6"/>
<polygon fill="none" stroke="black" points="43.2,-443.6 43.2,-479.2 240.89,-479.2 240.89,-443.6 43.2,-443.6"/>
<text text-anchor="start" x="50.2" y="-457" font-family="Arial Bold" font-size="18.00">DealStage</text>
<text text-anchor="start" x="124.17" y="-457" font-family="Arial" font-size="14.00">    </text>
<text text-anchor="start" x="155.29" y="-457" font-family="Arial" font-size="14.00" fill="#666666">[Base Table]</text>
<polygon fill="none" stroke="black" points="43.2,-412.8 43.2,-443.6 240.89,-443.6 240.89,-412.8 43.2,-412.8"/>
<text text-anchor="start" x="50.2" y="-425" font-family="Arial" font-size="14.00">id </text>
<text text-anchor="start" x="64.99" y="-425" font-family="Arial" font-size="14.00" fill="#666666">[uuid]</text>
<polygon fill="none" stroke="black" points="43.2,-382 43.2,-412.8 240.89,-412.8 240.89,-382 43.2,-382"/>
<text text-anchor="start" x="50.2" y="-394.2" font-family="Arial" font-size="14.00">dealPipelineId </text>
<text text-anchor="start" x="142.05" y="-394.2" font-family="Arial" font-size="14.00" fill="#666666">[uuid]</text>
<polygon fill="none" stroke="black" points="43.2,-351.2 43.2,-382 240.89,-382 240.89,-351.2 43.2,-351.2"/>
<text text-anchor="start" x="50.2" y="-363.4" font-family="Arial" font-size="14.00">displayOrder </text>
<text text-anchor="start" x="133.45" y="-363.4" font-family="Arial" font-size="14.00" fill="#666666">[integer]</text>
<polygon fill="none" stroke="black" points="43.2,-320.4 43.2,-351.2 240.89,-351.2 240.89,-320.4 43.2,-320.4"/>
<text text-anchor="start" x="50.2" y="-332.6" font-family="Arial" font-size="14.00">description </text>
<text text-anchor="start" x="121.79" y="-332.6" font-family="Arial" font-size="14.00" fill="#666666">[string]</text>
<polygon fill="none" stroke="black" points="43.2,-289.6 43.2,-320.4 240.89,-320.4 240.89,-289.6 43.2,-289.6"/>
<text text-anchor="start" x="50.2" y="-301.8" font-family="Arial" font-size="14.00">type </text>
<text text-anchor="start" x="80.55" y="-301.8" font-family="Arial" font-size="14.00" fill="#666666">[string]</text>
<polygon fill="none" stroke="black" points="43.2,-258.8 43.2,-289.6 240.89,-289.6 240.89,-258.8 43.2,-258.8"/>
<text text-anchor="start" x="50.2" y="-271" font-family="Arial" font-size="14.00">probability </text>
<text text-anchor="start" x="117.9" y="-271" font-family="Arial" font-size="14.00" fill="#666666">[float]</text>
<polygon fill="none" stroke="black" points="43.2,-228 43.2,-258.8 240.89,-258.8 240.89,-228 43.2,-228"/>
<text text-anchor="start" x="50.2" y="-240.2" font-family="Arial" font-size="14.00">closedLost </text>
<text text-anchor="start" x="121.02" y="-240.2" font-family="Arial" font-size="14.00" fill="#666666">[boolean]</text>
<polygon fill="none" stroke="black" points="43.2,-197.2 43.2,-228 240.89,-228 240.89,-197.2 43.2,-197.2"/>
<text text-anchor="start" x="50.2" y="-209.4" font-family="Arial" font-size="14.00">createdAt </text>
<text text-anchor="start" x="114.01" y="-209.4" font-family="Arial" font-size="14.00" fill="#666666">[datetime]</text>
<polygon fill="none" stroke="black" points="43.2,-166.4 43.2,-197.2 240.89,-197.2 240.89,-166.4 43.2,-166.4"/>
<text text-anchor="start" x="50.2" y="-178.6" font-family="Arial" font-size="14.00">dealPipeline </text>
<text text-anchor="start" x="130.37" y="-178.6" font-family="Arial" font-size="14.00" fill="#666666">[DealPipeline]</text>
<polygon fill="none" stroke="black" points="43.2,-135.6 43.2,-166.4 240.89,-166.4 240.89,-135.6 43.2,-135.6"/>
<text text-anchor="start" x="50.2" y="-147.8" font-family="Arial" font-size="14.00">label </text>
<text text-anchor="start" x="83.67" y="-147.8" font-family="Arial" font-size="14.00" fill="#666666">[string]</text>
<polygon fill="none" stroke="black" points="43.2,-104.8 43.2,-135.6 240.89,-135.6 240.89,-104.8 43.2,-104.8"/>
<text text-anchor="start" x="50.2" y="-117" font-family="Arial" font-size="14.00">name </text>
<text text-anchor="start" x="89.11" y="-117" font-family="Arial" font-size="14.00" fill="#666666">[string]</text>
<polygon fill="none" stroke="black" points="43.2,-74 43.2,-104.8 240.89,-104.8 240.89,-74 43.2,-74"/>
<text text-anchor="start" x="50.2" y="-86.2" font-family="Arial" font-size="14.00">closedWon </text>
<text text-anchor="start" x="123.34" y="-86.2" font-family="Arial" font-size="14.00" fill="#666666">[boolean]</text>
<polygon fill="none" stroke="black" points="43.2,-43.2 43.2,-74 240.89,-74 240.89,-43.2 43.2,-43.2"/>
<text text-anchor="start" x="50.2" y="-55.4" font-family="Arial" font-size="14.00">updatedAt </text>
<text text-anchor="start" x="117.92" y="-55.4" font-family="Arial" font-size="14.00" fill="#666666">[datetime]</text>
</g>
<!-- Deal&#45;&gt;DealStage -->
<g id="edge2" class="edge">
<title>Deal:dealStageId&#45;&gt;DealStage:id</title>
<path fill="none" stroke="black" d="M492.09,-1014.15C442.27,-950.86 275.61,-428.2 241.89,-428.2"/>
<polygon fill="black" stroke="black" points="492.01,-1014.09 497.18,-1023.76 496.23,-1017.35 499.67,-1019.99 499.67,-1019.99 499.67,-1019.99 496.23,-1017.35 502.68,-1016.63 492.01,-1014.09"/>
<text text-anchor="start" x="442.06" y="-1030.4" font-family="Arial" font-size="10.00">ForeignKey</text>
</g>
<!-- Contact -->
<g id="node4" class="node">
<title>Contact</title>
<polygon fill="#efefef" stroke="none" points="345.19,-412.8 345.19,-448.4 524.89,-448.4 524.89,-412.8 345.19,-412.8"/>
<polygon fill="none" stroke="black" points="345.19,-412.8 345.19,-448.4 524.89,-448.4 524.89,-412.8 345.19,-412.8"/>
<text text-anchor="start" x="352.19" y="-426.2" font-family="Arial Bold" font-size="18.00">Contact</text>
<text text-anchor="start" x="408.18" y="-426.2" font-family="Arial" font-size="14.00">    </text>
<text text-anchor="start" x="439.29" y="-426.2" font-family="Arial" font-size="14.00" fill="#666666">[Base Table]</text>
<polygon fill="none" stroke="black" points="345.19,-382 345.19,-412.8 524.89,-412.8 524.89,-382 345.19,-382"/>
<text text-anchor="start" x="352.19" y="-394.2" font-family="Arial" font-size="14.00">id </text>
<text text-anchor="start" x="366.98" y="-394.2" font-family="Arial" font-size="14.00" fill="#666666">[uuid]</text>
<polygon fill="none" stroke="black" points="345.19,-351.2 345.19,-382 524.89,-382 524.89,-351.2 345.19,-351.2"/>
<text text-anchor="start" x="352.19" y="-363.4" font-family="Arial" font-size="14.00">createdAt </text>
<text text-anchor="start" x="416" y="-363.4" font-family="Arial" font-size="14.00" fill="#666666">[datetime]</text>
<polygon fill="none" stroke="black" points="345.19,-320.4 345.19,-351.2 524.89,-351.2 524.89,-320.4 345.19,-320.4"/>
<text text-anchor="start" x="352.19" y="-332.6" font-family="Arial" font-size="14.00">isDeleted </text>
<text text-anchor="start" x="414.45" y="-332.6" font-family="Arial" font-size="14.00" fill="#666666">[boolean]</text>
<polygon fill="none" stroke="black" points="345.19,-289.6 345.19,-320.4 524.89,-320.4 524.89,-289.6 345.19,-289.6"/>
<text text-anchor="start" x="352.19" y="-301.8" font-family="Arial" font-size="14.00">firstName </text>
<text text-anchor="start" x="415.98" y="-301.8" font-family="Arial" font-size="14.00" fill="#666666">[string]</text>
<polygon fill="none" stroke="black" points="345.19,-258.8 345.19,-289.6 524.89,-289.6 524.89,-258.8 345.19,-258.8"/>
<text text-anchor="start" x="352.19" y="-271" font-family="Arial" font-size="14.00">lastName </text>
<text text-anchor="start" x="415.21" y="-271" font-family="Arial" font-size="14.00" fill="#666666">[string]</text>
<polygon fill="none" stroke="black" points="345.19,-228 345.19,-258.8 524.89,-258.8 524.89,-228 345.19,-228"/>
<text text-anchor="start" x="352.19" y="-240.2" font-family="Arial" font-size="14.00">email </text>
<text text-anchor="start" x="389.54" y="-240.2" font-family="Arial" font-size="14.00" fill="#666666">[string]</text>
<polygon fill="none" stroke="black" points="345.19,-197.2 345.19,-228 524.89,-228 524.89,-197.2 345.19,-197.2"/>
<text text-anchor="start" x="352.19" y="-209.4" font-family="Arial" font-size="14.00">phonePrimary </text>
<text text-anchor="start" x="443.23" y="-209.4" font-family="Arial" font-size="14.00" fill="#666666">[string]</text>
<polygon fill="none" stroke="black" points="345.19,-166.4 345.19,-197.2 524.89,-197.2 524.89,-166.4 345.19,-166.4"/>
<text text-anchor="start" x="352.19" y="-178.6" font-family="Arial" font-size="14.00">linkedInUrl </text>
<text text-anchor="start" x="422.22" y="-178.6" font-family="Arial" font-size="14.00" fill="#666666">[string]</text>
<polygon fill="none" stroke="black" points="345.19,-135.6 345.19,-166.4 524.89,-166.4 524.89,-135.6 345.19,-135.6"/>
<text text-anchor="start" x="352.19" y="-147.8" font-family="Arial" font-size="14.00">companyId </text>
<text text-anchor="start" x="424.56" y="-147.8" font-family="Arial" font-size="14.00" fill="#666666">[uuid]</text>
<polygon fill="none" stroke="black" points="345.19,-104.8 345.19,-135.6 524.89,-135.6 524.89,-104.8 345.19,-104.8"/>
<text text-anchor="start" x="352.19" y="-117" font-family="Arial" font-size="14.00">company </text>
<text text-anchor="start" x="412.89" y="-117" font-family="Arial" font-size="14.00" fill="#666666">[Company]</text>
<polygon fill="none" stroke="black" points="345.19,-74 345.19,-104.8 524.89,-104.8 524.89,-74 345.19,-74"/>
<text text-anchor="start" x="352.19" y="-86.2" font-family="Arial" font-size="14.00">updatedAt </text>
<text text-anchor="start" x="419.91" y="-86.2" font-family="Arial" font-size="14.00" fill="#666666">[datetime]</text>
</g>
<!-- Deal&#45;&gt;Contact -->
<g id="edge3" class="edge">
<title>Deal:contactId&#45;&gt;Contact:id</title>
<path fill="none" stroke="black" d="M490.06,-896.89C355.46,-888.3 476.04,-703.28 501.2,-558.4 506.58,-527.36 519.39,-522.62 524.89,-491.6 532.22,-450.38 567.76,-397.4 525.89,-397.4"/>
<polygon fill="black" stroke="black" points="489.87,-896.88 499.72,-901.69 495.2,-897.05 499.53,-897.18 499.53,-897.18 499.53,-897.18 495.2,-897.05 500,-892.69 489.87,-896.88"/>
<text text-anchor="start" x="442.06" y="-907.2" font-family="Arial" font-size="10.00">ForeignKey</text>
</g>
<!-- Company -->
<g id="node5" class="node">
<title>Company</title>
<polygon fill="#efefef" stroke="none" points="629.19,-366.6 629.19,-402.2 822.9,-402.2 822.9,-366.6 629.19,-366.6"/>
<polygon fill="none" stroke="black" points="629.19,-366.6 629.19,-402.2 822.9,-402.2 822.9,-366.6 629.19,-366.6"/>
<text text-anchor="start" x="636.19" y="-380" font-family="Arial Bold" font-size="18.00">Company</text>
<text text-anchor="start" x="706.18" y="-380" font-family="Arial" font-size="14.00">    </text>
<text text-anchor="start" x="737.3" y="-380" font-family="Arial" font-size="14.00" fill="#666666">[Base Table]</text>
<polygon fill="none" stroke="black" points="629.19,-335.8 629.19,-366.6 822.9,-366.6 822.9,-335.8 629.19,-335.8"/>
<text text-anchor="start" x="636.19" y="-348" font-family="Arial" font-size="14.00">id </text>
<text text-anchor="start" x="650.97" y="-348" font-family="Arial" font-size="14.00" fill="#666666">[uuid]</text>
<polygon fill="none" stroke="black" points="629.19,-305 629.19,-335.8 822.9,-335.8 822.9,-305 629.19,-305"/>
<text text-anchor="start" x="636.19" y="-317.2" font-family="Arial" font-size="14.00">createdAt </text>
<text text-anchor="start" x="700" y="-317.2" font-family="Arial" font-size="14.00" fill="#666666">[datetime]</text>
<polygon fill="none" stroke="black" points="629.19,-274.2 629.19,-305 822.9,-305 822.9,-274.2 629.19,-274.2"/>
<text text-anchor="start" x="636.19" y="-286.4" font-family="Arial" font-size="14.00">updatedAt </text>
<text text-anchor="start" x="703.91" y="-286.4" font-family="Arial" font-size="14.00" fill="#666666">[datetime]</text>
<polygon fill="none" stroke="black" points="629.19,-243.4 629.19,-274.2 822.9,-274.2 822.9,-243.4 629.19,-243.4"/>
<text text-anchor="start" x="636.19" y="-255.6" font-family="Arial" font-size="14.00">name </text>
<text text-anchor="start" x="675.1" y="-255.6" font-family="Arial" font-size="14.00" fill="#666666">[string]</text>
<polygon fill="none" stroke="black" points="629.19,-212.6 629.19,-243.4 822.9,-243.4 822.9,-212.6 629.19,-212.6"/>
<text text-anchor="start" x="636.19" y="-224.8" font-family="Arial" font-size="14.00">isDeleted </text>
<text text-anchor="start" x="698.44" y="-224.8" font-family="Arial" font-size="14.00" fill="#666666">[boolean]</text>
<polygon fill="none" stroke="black" points="629.19,-181.8 629.19,-212.6 822.9,-212.6 822.9,-181.8 629.19,-181.8"/>
<text text-anchor="start" x="636.19" y="-194" font-family="Arial" font-size="14.00">url </text>
<text text-anchor="start" x="655.63" y="-194" font-family="Arial" font-size="14.00" fill="#666666">[string]</text>
<polygon fill="none" stroke="black" points="629.19,-151 629.19,-181.8 822.9,-181.8 822.9,-151 629.19,-151"/>
<text text-anchor="start" x="636.19" y="-163.2" font-family="Arial" font-size="14.00">linkedInUrl </text>
<text text-anchor="start" x="706.21" y="-163.2" font-family="Arial" font-size="14.00" fill="#666666">[string]</text>
<polygon fill="none" stroke="black" points="629.19,-120.2 629.19,-151 822.9,-151 822.9,-120.2 629.19,-120.2"/>
<text text-anchor="start" x="636.19" y="-132.4" font-family="Arial" font-size="14.00">logoUrl </text>
<text text-anchor="start" x="684.43" y="-132.4" font-family="Arial" font-size="14.00" fill="#666666">[string]</text>
</g>
<!-- Deal&#45;&gt;Company -->
<g id="edge4" class="edge">
<title>Deal:companyId&#45;&gt;Company:id</title>
<path fill="none" stroke="black" d="M670.24,-650.09C777.17,-634.07 498.08,-351.2 628.19,-351.2"/>
<polygon fill="black" stroke="black" points="670.2,-650.1 659.92,-646.29 664.88,-650.46 660.56,-650.75 660.56,-650.75 660.56,-650.75 664.88,-650.46 660.53,-655.27 670.2,-650.1"/>
<text text-anchor="start" x="666.89" y="-660.8" font-family="Arial" font-size="10.00">ForeignKey</text>
</g>
<!-- User -->
<g id="node6" class="node">
<title>User</title>
<polygon fill="#efefef" stroke="none" points="927.19,-335.8 927.19,-371.4 1084.89,-371.4 1084.89,-335.8 927.19,-335.8"/>
<polygon fill="none" stroke="black" points="927.19,-335.8 927.19,-371.4 1084.89,-371.4 1084.89,-335.8 927.19,-335.8"/>
<text text-anchor="start" x="934.19" y="-349.2" font-family="Arial Bold" font-size="18.00">User</text>
<text text-anchor="start" x="968.18" y="-349.2" font-family="Arial" font-size="14.00">    </text>
<text text-anchor="start" x="999.3" y="-349.2" font-family="Arial" font-size="14.00" fill="#666666">[Base Table]</text>
<polygon fill="none" stroke="black" points="927.19,-305 927.19,-335.8 1084.89,-335.8 1084.89,-305 927.19,-305"/>
<text text-anchor="start" x="934.19" y="-317.2" font-family="Arial" font-size="14.00">id </text>
<text text-anchor="start" x="948.98" y="-317.2" font-family="Arial" font-size="14.00" fill="#666666">[uuid]</text>
<polygon fill="none" stroke="black" points="927.19,-274.2 927.19,-305 1084.89,-305 1084.89,-274.2 927.19,-274.2"/>
<text text-anchor="start" x="934.19" y="-286.4" font-family="Arial" font-size="14.00">createdAt </text>
<text text-anchor="start" x="998" y="-286.4" font-family="Arial" font-size="14.00" fill="#666666">[datetime]</text>
<polygon fill="none" stroke="black" points="927.19,-243.4 927.19,-274.2 1084.89,-274.2 1084.89,-243.4 927.19,-243.4"/>
<text text-anchor="start" x="934.19" y="-255.6" font-family="Arial" font-size="14.00">updatedAt </text>
<text text-anchor="start" x="1001.91" y="-255.6" font-family="Arial" font-size="14.00" fill="#666666">[datetime]</text>
<polygon fill="none" stroke="black" points="927.19,-212.6 927.19,-243.4 1084.89,-243.4 1084.89,-212.6 927.19,-212.6"/>
<text text-anchor="start" x="934.19" y="-224.8" font-family="Arial" font-size="14.00">name </text>
<text text-anchor="start" x="973.1" y="-224.8" font-family="Arial" font-size="14.00" fill="#666666">[string]</text>
<polygon fill="none" stroke="black" points="927.19,-181.8 927.19,-212.6 1084.89,-212.6 1084.89,-181.8 927.19,-181.8"/>
<text text-anchor="start" x="934.19" y="-194" font-family="Arial" font-size="14.00">email </text>
<text text-anchor="start" x="971.54" y="-194" font-family="Arial" font-size="14.00" fill="#666666">[string]</text>
<polygon fill="none" stroke="black" points="927.19,-151 927.19,-181.8 1084.89,-181.8 1084.89,-151 927.19,-151"/>
<text text-anchor="start" x="934.19" y="-163.2" font-family="Arial" font-size="14.00">roles </text>
<text text-anchor="start" x="968.43" y="-163.2" font-family="Arial" font-size="14.00" fill="#666666">[uuid]</text>
</g>
<!-- Deal&#45;&gt;User -->
<g id="edge5" class="edge">
<title>Deal:userId&#45;&gt;User:id</title>
<path fill="none" stroke="black" d="M670.15,-619.94C767.76,-618.8 809.92,-600.27 875.04,-522.4 934.45,-451.36 833.58,-320.4 926.19,-320.4"/>
<polygon fill="black" stroke="black" points="670.22,-619.94 660.2,-615.5 664.89,-619.97 660.56,-620 660.56,-620 660.56,-620 664.89,-619.97 660.25,-624.5 670.22,-619.94"/>
<text text-anchor="start" x="666.89" y="-630" font-family="Arial" font-size="10.00">ForeignKey</text>
</g>
<!-- EngagementDeal -->
<g id="node2" class="node">
<title>EngagementDeal</title>
<polygon fill="#efefef" stroke="none" points="456.21,-1443.2 456.21,-1478.8 703.87,-1478.8 703.87,-1443.2 456.21,-1443.2"/>
<polygon fill="none" stroke="black" points="456.21,-1443.2 456.21,-1478.8 703.87,-1478.8 703.87,-1443.2 456.21,-1443.2"/>
<text text-anchor="start" x="463.21" y="-1456.6" font-family="Arial Bold" font-size="18.00">EngagementDeal</text>
<text text-anchor="start" x="587.16" y="-1456.6" font-family="Arial" font-size="14.00">    </text>
<text text-anchor="start" x="618.27" y="-1456.6" font-family="Arial" font-size="14.00" fill="#666666">[Base Table]</text>
<polygon fill="none" stroke="black" points="456.21,-1412.4 456.21,-1443.2 703.87,-1443.2 703.87,-1412.4 456.21,-1412.4"/>
<text text-anchor="start" x="463.21" y="-1424.6" font-family="Arial" font-size="14.00">id </text>
<text text-anchor="start" x="478" y="-1424.6" font-family="Arial" font-size="14.00" fill="#666666">[uuid]</text>
<polygon fill="none" stroke="black" points="456.21,-1381.6 456.21,-1412.4 703.87,-1412.4 703.87,-1381.6 456.21,-1381.6"/>
<text text-anchor="start" x="463.21" y="-1393.8" font-family="Arial" font-size="14.00">deal </text>
<text text-anchor="start" x="493.57" y="-1393.8" font-family="Arial" font-size="14.00" fill="#666666">[Deal]</text>
<polygon fill="none" stroke="black" points="456.21,-1350.8 456.21,-1381.6 703.87,-1381.6 703.87,-1350.8 456.21,-1350.8"/>
<text text-anchor="start" x="463.21" y="-1363" font-family="Arial" font-size="14.00">engagementId </text>
<text text-anchor="start" x="556.62" y="-1363" font-family="Arial" font-size="14.00" fill="#666666">[uuid]</text>
<polygon fill="none" stroke="black" points="456.21,-1320 456.21,-1350.8 703.87,-1350.8 703.87,-1320 456.21,-1320"/>
<text text-anchor="start" x="463.21" y="-1332.2" font-family="Arial" font-size="14.00">engagement </text>
<text text-anchor="start" x="544.94" y="-1332.2" font-family="Arial" font-size="14.00" fill="#666666">[Engagement]</text>
<polygon fill="none" stroke="black" points="456.21,-1289.2 456.21,-1320 703.87,-1320 703.87,-1289.2 456.21,-1289.2"/>
<text text-anchor="start" x="463.21" y="-1301.4" font-family="Arial" font-size="14.00">createdAt </text>
<text text-anchor="start" x="527.03" y="-1301.4" font-family="Arial" font-size="14.00" fill="#666666">[datetime]</text>
<polygon fill="none" stroke="black" points="456.21,-1258.4 456.21,-1289.2 703.87,-1289.2 703.87,-1258.4 456.21,-1258.4"/>
<text text-anchor="start" x="463.21" y="-1270.6" font-family="Arial" font-size="14.00">updatedAt </text>
<text text-anchor="start" x="530.94" y="-1270.6" font-family="Arial" font-size="14.00" fill="#666666">[datetime]</text>
<polygon fill="none" stroke="black" points="456.21,-1227.6 456.21,-1258.4 703.87,-1258.4 703.87,-1227.6 456.21,-1227.6"/>
<text text-anchor="start" x="463.21" y="-1239.8" font-family="Arial" font-size="14.00">dealId </text>
<text text-anchor="start" x="505.25" y="-1239.8" font-family="Arial" font-size="14.00" fill="#666666">[uuid]</text>
</g>
<!-- EngagementDeal&#45;&gt;Deal -->
<g id="edge1" class="edge">
<title>EngagementDeal:dealId&#45;&gt;Deal:id</title>
<path fill="none" stroke="black" d="M580.99,-1216.65C588.67,-1179.37 641.1,-1190.49 658.89,-1148.4 675.71,-1108.61 703.09,-1051.2 659.89,-1051.2"/>
<polygon fill="black" stroke="black" points="581.02,-1216.31 575.59,-1225.84 580.52,-1221.62 580.11,-1225.93 580.11,-1225.93 580.11,-1225.93 580.52,-1221.62 584.55,-1226.69 581.02,-1216.31"/>
<text text-anchor="start" x="570.76" y="-1210.6" font-family="Arial" font-size="10.00">ForeignKey</text>
</g>
</g>
</svg>
