<?xml version="1.0" encoding="UTF-8" standalone="no"?>
<!DOCTYPE svg PUBLIC "-//W3C//DTD SVG 1.1//EN"
 "http://www.w3.org/Graphics/SVG/1.1/DTD/svg11.dtd">
<!-- Generated by graphviz version 12.1.2 (20240928.0832)
 -->
<!-- Title: DealPipeline Pages: 1 -->
<svg width="328pt" height="848pt"
 viewBox="0.00 0.00 327.52 848.40" xmlns="http://www.w3.org/2000/svg" xmlns:xlink="http://www.w3.org/1999/xlink">
<g id="graph0" class="graph" transform="scale(1 1) rotate(0) translate(4 844.4)">
<title>DealPipeline</title>
<polygon fill="white" stroke="none" points="-4,4 -4,-844.4 323.52,-844.4 323.52,4 -4,4"/>
<!-- DealPipeline -->
<g id="node1" class="node">
<title>DealPipeline</title>
<polygon fill="#efefef" stroke="none" points="46.2,-200.2 46.2,-235.8 262.89,-235.8 262.89,-200.2 46.2,-200.2"/>
<polygon fill="none" stroke="black" points="46.2,-200.2 46.2,-235.8 262.89,-235.8 262.89,-200.2 46.2,-200.2"/>
<text text-anchor="start" x="53.2" y="-213.6" font-family="Arial Bold" font-size="18.00">DealPipeline</text>
<text text-anchor="start" x="146.17" y="-213.6" font-family="Arial" font-size="14.00">    </text>
<text text-anchor="start" x="177.29" y="-213.6" font-family="Arial" font-size="14.00" fill="#666666">[Base Table]</text>
<polygon fill="none" stroke="black" points="46.2,-169.4 46.2,-200.2 262.89,-200.2 262.89,-169.4 46.2,-169.4"/>
<text text-anchor="start" x="53.2" y="-181.6" font-family="Arial" font-size="14.00">id </text>
<text text-anchor="start" x="67.99" y="-181.6" font-family="Arial" font-size="14.00" fill="#666666">[uuid]</text>
<polygon fill="none" stroke="black" points="46.2,-138.6 46.2,-169.4 262.89,-169.4 262.89,-138.6 46.2,-138.6"/>
<text text-anchor="start" x="53.2" y="-150.8" font-family="Arial" font-size="14.00">displayOrder </text>
<text text-anchor="start" x="136.45" y="-150.8" font-family="Arial" font-size="14.00" fill="#666666">[integer]</text>
<polygon fill="none" stroke="black" points="46.2,-107.8 46.2,-138.6 262.89,-138.6 262.89,-107.8 46.2,-107.8"/>
<text text-anchor="start" x="53.2" y="-120" font-family="Arial" font-size="14.00">label </text>
<text text-anchor="start" x="86.67" y="-120" font-family="Arial" font-size="14.00" fill="#666666">[string]</text>
<polygon fill="none" stroke="black" points="46.2,-77 46.2,-107.8 262.89,-107.8 262.89,-77 46.2,-77"/>
<text text-anchor="start" x="53.2" y="-89.2" font-family="Arial" font-size="14.00">createdAt </text>
<text text-anchor="start" x="117.01" y="-89.2" font-family="Arial" font-size="14.00" fill="#666666">[datetime]</text>
<polygon fill="none" stroke="black" points="46.2,-46.2 46.2,-77 262.89,-77 262.89,-46.2 46.2,-46.2"/>
<text text-anchor="start" x="53.2" y="-58.4" font-family="Arial" font-size="14.00">updatedAt </text>
<text text-anchor="start" x="120.92" y="-58.4" font-family="Arial" font-size="14.00" fill="#666666">[datetime]</text>
<polygon fill="none" stroke="black" stroke-width="3" points="44.7,-44.7 44.7,-237.3 264.39,-237.3 264.39,-44.7 44.7,-44.7"/>
</g>
<!-- DealStage -->
<g id="node2" class="node">
<title>DealStage</title>
<polygon fill="#efefef" stroke="none" points="55.7,-761.6 55.7,-797.2 253.39,-797.2 253.39,-761.6 55.7,-761.6"/>
<polygon fill="none" stroke="black" points="55.7,-761.6 55.7,-797.2 253.39,-797.2 253.39,-761.6 55.7,-761.6"/>
<text text-anchor="start" x="62.7" y="-775" font-family="Arial Bold" font-size="18.00">DealStage</text>
<text text-anchor="start" x="136.67" y="-775" font-family="Arial" font-size="14.00">    </text>
<text text-anchor="start" x="167.79" y="-775" font-family="Arial" font-size="14.00" fill="#666666">[Base Table]</text>
<polygon fill="none" stroke="black" points="55.7,-730.8 55.7,-761.6 253.39,-761.6 253.39,-730.8 55.7,-730.8"/>
<text text-anchor="start" x="62.7" y="-743" font-family="Arial" font-size="14.00">id </text>
<text text-anchor="start" x="77.49" y="-743" font-family="Arial" font-size="14.00" fill="#666666">[uuid]</text>
<polygon fill="none" stroke="black" points="55.7,-700 55.7,-730.8 253.39,-730.8 253.39,-700 55.7,-700"/>
<text text-anchor="start" x="62.7" y="-712.2" font-family="Arial" font-size="14.00">dealPipelineId </text>
<text text-anchor="start" x="154.55" y="-712.2" font-family="Arial" font-size="14.00" fill="#666666">[uuid]</text>
<polygon fill="none" stroke="black" points="55.7,-669.2 55.7,-700 253.39,-700 253.39,-669.2 55.7,-669.2"/>
<text text-anchor="start" x="62.7" y="-681.4" font-family="Arial" font-size="14.00">displayOrder </text>
<text text-anchor="start" x="145.96" y="-681.4" font-family="Arial" font-size="14.00" fill="#666666">[integer]</text>
<polygon fill="none" stroke="black" points="55.7,-638.4 55.7,-669.2 253.39,-669.2 253.39,-638.4 55.7,-638.4"/>
<text text-anchor="start" x="62.7" y="-650.6" font-family="Arial" font-size="14.00">description </text>
<text text-anchor="start" x="134.29" y="-650.6" font-family="Arial" font-size="14.00" fill="#666666">[string]</text>
<polygon fill="none" stroke="black" points="55.7,-607.6 55.7,-638.4 253.39,-638.4 253.39,-607.6 55.7,-607.6"/>
<text text-anchor="start" x="62.7" y="-619.8" font-family="Arial" font-size="14.00">type </text>
<text text-anchor="start" x="93.05" y="-619.8" font-family="Arial" font-size="14.00" fill="#666666">[string]</text>
<polygon fill="none" stroke="black" points="55.7,-576.8 55.7,-607.6 253.39,-607.6 253.39,-576.8 55.7,-576.8"/>
<text text-anchor="start" x="62.7" y="-589" font-family="Arial" font-size="14.00">probability </text>
<text text-anchor="start" x="130.4" y="-589" font-family="Arial" font-size="14.00" fill="#666666">[float]</text>
<polygon fill="none" stroke="black" points="55.7,-546 55.7,-576.8 253.39,-576.8 253.39,-546 55.7,-546"/>
<text text-anchor="start" x="62.7" y="-558.2" font-family="Arial" font-size="14.00">closedLost </text>
<text text-anchor="start" x="133.52" y="-558.2" font-family="Arial" font-size="14.00" fill="#666666">[boolean]</text>
<polygon fill="none" stroke="black" points="55.7,-515.2 55.7,-546 253.39,-546 253.39,-515.2 55.7,-515.2"/>
<text text-anchor="start" x="62.7" y="-527.4" font-family="Arial" font-size="14.00">createdAt </text>
<text text-anchor="start" x="126.51" y="-527.4" font-family="Arial" font-size="14.00" fill="#666666">[datetime]</text>
<polygon fill="none" stroke="black" points="55.7,-484.4 55.7,-515.2 253.39,-515.2 253.39,-484.4 55.7,-484.4"/>
<text text-anchor="start" x="62.7" y="-496.6" font-family="Arial" font-size="14.00">dealPipeline </text>
<text text-anchor="start" x="142.87" y="-496.6" font-family="Arial" font-size="14.00" fill="#666666">[DealPipeline]</text>
<polygon fill="none" stroke="black" points="55.7,-453.6 55.7,-484.4 253.39,-484.4 253.39,-453.6 55.7,-453.6"/>
<text text-anchor="start" x="62.7" y="-465.8" font-family="Arial" font-size="14.00">label </text>
<text text-anchor="start" x="96.17" y="-465.8" font-family="Arial" font-size="14.00" fill="#666666">[string]</text>
<polygon fill="none" stroke="black" points="55.7,-422.8 55.7,-453.6 253.39,-453.6 253.39,-422.8 55.7,-422.8"/>
<text text-anchor="start" x="62.7" y="-435" font-family="Arial" font-size="14.00">name </text>
<text text-anchor="start" x="101.61" y="-435" font-family="Arial" font-size="14.00" fill="#666666">[string]</text>
<polygon fill="none" stroke="black" points="55.7,-392 55.7,-422.8 253.39,-422.8 253.39,-392 55.7,-392"/>
<text text-anchor="start" x="62.7" y="-404.2" font-family="Arial" font-size="14.00">closedWon </text>
<text text-anchor="start" x="135.85" y="-404.2" font-family="Arial" font-size="14.00" fill="#666666">[boolean]</text>
<polygon fill="none" stroke="black" points="55.7,-361.2 55.7,-392 253.39,-392 253.39,-361.2 55.7,-361.2"/>
<text text-anchor="start" x="62.7" y="-373.4" font-family="Arial" font-size="14.00">updatedAt </text>
<text text-anchor="start" x="130.42" y="-373.4" font-family="Arial" font-size="14.00" fill="#666666">[datetime]</text>
</g>
<!-- DealStage&#45;&gt;DealPipeline -->
<g id="edge1" class="edge">
<title>DealStage:dealPipelineId&#45;&gt;DealPipeline:id</title>
<path fill="none" stroke="black" d="M263.61,-710.81C314.19,-658.95 319.63,-184.8 263.89,-184.8"/>
<polygon fill="black" stroke="black" points="263.64,-710.8 252.68,-711.22 258.86,-713.17 254.99,-715.1 254.99,-715.1 254.99,-715.1 258.86,-713.17 256.69,-719.28 263.64,-710.8"/>
<text text-anchor="start" x="261.39" y="-725.4" font-family="Arial" font-size="10.00">ForeignKey</text>
</g>
</g>
</svg>
