<?xml version="1.0" encoding="UTF-8" standalone="no"?>
<!DOCTYPE svg PUBLIC "-//W3C//DTD SVG 1.1//EN"
 "http://www.w3.org/Graphics/SVG/1.1/DTD/svg11.dtd">
<!-- Generated by graphviz version 12.1.2 (20240928.0832)
 -->
<!-- Title: Deal Pages: 1 -->
<svg width="1212pt" height="1530pt"
 viewBox="0.00 0.00 1211.76 1530.00" xmlns="http://www.w3.org/2000/svg" xmlns:xlink="http://www.w3.org/1999/xlink">
<g id="graph0" class="graph" transform="scale(1 1) rotate(0) translate(4 1526)">
<title>Deal</title>
<polygon fill="white" stroke="none" points="-4,4 -4,-1526 1207.76,-1526 1207.76,4 -4,4"/>
<!-- Deal -->
<g id="node1" class="node">
<title>Deal</title>
<polygon fill="#efefef" stroke="none" points="491.2,-1066.6 491.2,-1102.2 667.55,-1102.2 667.55,-1066.6 491.2,-1066.6"/>
<polygon fill="none" stroke="black" points="491.2,-1066.6 491.2,-1102.2 667.55,-1102.2 667.55,-1066.6 491.2,-1066.6"/>
<text text-anchor="start" x="498.2" y="-1080" font-family="Arial Bold" font-size="18.00">Deal</text>
<text text-anchor="start" x="532.18" y="-1080" font-family="Arial" font-size="14.00">    </text>
<text text-anchor="start" x="563.3" y="-1080" font-family="Arial" font-size="14.00" fill="#666666">[TailorDB.Type]</text>
<polygon fill="none" stroke="black" points="491.2,-1035.8 491.2,-1066.6 667.55,-1066.6 667.55,-1035.8 491.2,-1035.8"/>
<text text-anchor="start" x="498.2" y="-1048" font-family="Arial" font-size="14.00">id </text>
<text text-anchor="start" x="512.99" y="-1048" font-family="Arial" font-size="14.00" fill="#666666">[uuid]</text>
<polygon fill="none" stroke="black" points="491.2,-1005 491.2,-1035.8 667.55,-1035.8 667.55,-1005 491.2,-1005"/>
<text text-anchor="start" x="498.2" y="-1017.2" font-family="Arial" font-size="14.00">dealStage </text>
<text text-anchor="start" x="565.15" y="-1017.2" font-family="Arial" font-size="14.00" fill="#666666">[DealStage]</text>
<polygon fill="none" stroke="black" points="491.2,-974.2 491.2,-1005 667.55,-1005 667.55,-974.2 491.2,-974.2"/>
<text text-anchor="start" x="498.2" y="-986.4" font-family="Arial" font-size="14.00">userId </text>
<text text-anchor="start" x="541" y="-986.4" font-family="Arial" font-size="14.00" fill="#666666">[uuid]</text>
<polygon fill="none" stroke="black" points="491.2,-943.4 491.2,-974.2 667.55,-974.2 667.55,-943.4 491.2,-943.4"/>
<text text-anchor="start" x="498.2" y="-955.6" font-family="Arial" font-size="14.00">user </text>
<text text-anchor="start" x="529.33" y="-955.6" font-family="Arial" font-size="14.00" fill="#666666">[User]</text>
<polygon fill="none" stroke="black" points="491.2,-912.6 491.2,-943.4 667.55,-943.4 667.55,-912.6 491.2,-912.6"/>
<text text-anchor="start" x="498.2" y="-924.8" font-family="Arial" font-size="14.00">company </text>
<text text-anchor="start" x="558.9" y="-924.8" font-family="Arial" font-size="14.00" fill="#666666">[Company]</text>
<polygon fill="none" stroke="black" points="491.2,-881.8 491.2,-912.6 667.55,-912.6 667.55,-881.8 491.2,-881.8"/>
<text text-anchor="start" x="498.2" y="-894" font-family="Arial" font-size="14.00">isDeleted </text>
<text text-anchor="start" x="560.46" y="-894" font-family="Arial" font-size="14.00" fill="#666666">[boolean]</text>
<polygon fill="none" stroke="black" points="491.2,-851 491.2,-881.8 667.55,-881.8 667.55,-851 491.2,-851"/>
<text text-anchor="start" x="498.2" y="-863.2" font-family="Arial" font-size="14.00">updatedAt </text>
<text text-anchor="start" x="565.93" y="-863.2" font-family="Arial" font-size="14.00" fill="#666666">[datetime]</text>
<polygon fill="none" stroke="black" points="491.2,-820.2 491.2,-851 667.55,-851 667.55,-820.2 491.2,-820.2"/>
<text text-anchor="start" x="498.2" y="-832.4" font-family="Arial" font-size="14.00">value </text>
<text text-anchor="start" x="535.56" y="-832.4" font-family="Arial" font-size="14.00" fill="#666666">[float]</text>
<polygon fill="none" stroke="black" points="491.2,-789.4 491.2,-820.2 667.55,-820.2 667.55,-789.4 491.2,-789.4"/>
<text text-anchor="start" x="498.2" y="-801.6" font-family="Arial" font-size="14.00">contactId </text>
<text text-anchor="start" x="558.91" y="-801.6" font-family="Arial" font-size="14.00" fill="#666666">[uuid]</text>
<polygon fill="none" stroke="black" points="491.2,-758.6 491.2,-789.4 667.55,-789.4 667.55,-758.6 491.2,-758.6"/>
<text text-anchor="start" x="498.2" y="-770.8" font-family="Arial" font-size="14.00">contact </text>
<text text-anchor="start" x="547.23" y="-770.8" font-family="Arial" font-size="14.00" fill="#666666">[Contact]</text>
<polygon fill="none" stroke="black" points="491.2,-727.8 491.2,-758.6 667.55,-758.6 667.55,-727.8 491.2,-727.8"/>
<text text-anchor="start" x="498.2" y="-740" font-family="Arial" font-size="14.00">createdAt </text>
<text text-anchor="start" x="562.02" y="-740" font-family="Arial" font-size="14.00" fill="#666666">[datetime]</text>
<polygon fill="none" stroke="black" points="491.2,-697 491.2,-727.8 667.55,-727.8 667.55,-697 491.2,-697"/>
<text text-anchor="start" x="498.2" y="-709.2" font-family="Arial" font-size="14.00">dealStageId </text>
<text text-anchor="start" x="576.82" y="-709.2" font-family="Arial" font-size="14.00" fill="#666666">[uuid]</text>
<polygon fill="none" stroke="black" points="491.2,-666.2 491.2,-697 667.55,-697 667.55,-666.2 491.2,-666.2"/>
<text text-anchor="start" x="498.2" y="-678.4" font-family="Arial" font-size="14.00">probability </text>
<text text-anchor="start" x="565.91" y="-678.4" font-family="Arial" font-size="14.00" fill="#666666">[float]</text>
<polygon fill="none" stroke="black" points="491.2,-635.4 491.2,-666.2 667.55,-666.2 667.55,-635.4 491.2,-635.4"/>
<text text-anchor="start" x="498.2" y="-647.6" font-family="Arial" font-size="14.00">companyId </text>
<text text-anchor="start" x="570.58" y="-647.6" font-family="Arial" font-size="14.00" fill="#666666">[uuid]</text>
<polygon fill="none" stroke="black" points="491.2,-604.6 491.2,-635.4 667.55,-635.4 667.55,-604.6 491.2,-604.6"/>
<text text-anchor="start" x="498.2" y="-616.8" font-family="Arial" font-size="14.00">amount </text>
<text text-anchor="start" x="548.79" y="-616.8" font-family="Arial" font-size="14.00" fill="#666666">[float]</text>
<polygon fill="none" stroke="black" stroke-width="3" points="489.7,-603.1 489.7,-1103.7 669.05,-1103.7 669.05,-603.1 489.7,-603.1"/>
</g>
<!-- User -->
<g id="node3" class="node">
<title>User</title>
<polygon fill="#efefef" stroke="none" points="43.2,-335.8 43.2,-371.4 219.55,-371.4 219.55,-335.8 43.2,-335.8"/>
<polygon fill="none" stroke="black" points="43.2,-335.8 43.2,-371.4 219.55,-371.4 219.55,-335.8 43.2,-335.8"/>
<text text-anchor="start" x="50.2" y="-349.2" font-family="Arial Bold" font-size="18.00">User</text>
<text text-anchor="start" x="84.19" y="-349.2" font-family="Arial" font-size="14.00">    </text>
<text text-anchor="start" x="115.3" y="-349.2" font-family="Arial" font-size="14.00" fill="#666666">[TailorDB.Type]</text>
<polygon fill="none" stroke="black" points="43.2,-305 43.2,-335.8 219.55,-335.8 219.55,-305 43.2,-305"/>
<text text-anchor="start" x="50.2" y="-317.2" font-family="Arial" font-size="14.00">id </text>
<text text-anchor="start" x="64.99" y="-317.2" font-family="Arial" font-size="14.00" fill="#666666">[uuid]</text>
<polygon fill="none" stroke="black" points="43.2,-274.2 43.2,-305 219.55,-305 219.55,-274.2 43.2,-274.2"/>
<text text-anchor="start" x="50.2" y="-286.4" font-family="Arial" font-size="14.00">name </text>
<text text-anchor="start" x="89.11" y="-286.4" font-family="Arial" font-size="14.00" fill="#666666">[string]</text>
<polygon fill="none" stroke="black" points="43.2,-243.4 43.2,-274.2 219.55,-274.2 219.55,-243.4 43.2,-243.4"/>
<text text-anchor="start" x="50.2" y="-255.6" font-family="Arial" font-size="14.00">email </text>
<text text-anchor="start" x="87.54" y="-255.6" font-family="Arial" font-size="14.00" fill="#666666">[string]</text>
<polygon fill="none" stroke="black" points="43.2,-212.6 43.2,-243.4 219.55,-243.4 219.55,-212.6 43.2,-212.6"/>
<text text-anchor="start" x="50.2" y="-224.8" font-family="Arial" font-size="14.00">roles </text>
<text text-anchor="start" x="84.43" y="-224.8" font-family="Arial" font-size="14.00" fill="#666666">[uuid]</text>
<polygon fill="none" stroke="black" points="43.2,-181.8 43.2,-212.6 219.55,-212.6 219.55,-181.8 43.2,-181.8"/>
<text text-anchor="start" x="50.2" y="-194" font-family="Arial" font-size="14.00">createdAt </text>
<text text-anchor="start" x="114.01" y="-194" font-family="Arial" font-size="14.00" fill="#666666">[datetime]</text>
<polygon fill="none" stroke="black" points="43.2,-151 43.2,-181.8 219.55,-181.8 219.55,-151 43.2,-151"/>
<text text-anchor="start" x="50.2" y="-163.2" font-family="Arial" font-size="14.00">updatedAt </text>
<text text-anchor="start" x="117.92" y="-163.2" font-family="Arial" font-size="14.00" fill="#666666">[datetime]</text>
</g>
<!-- Deal&#45;&gt;User -->
<g id="edge2" class="edge">
<title>Deal:userId&#45;&gt;User:id</title>
<path fill="none" stroke="black" d="M480.02,-989.43C263.74,-981.99 348.41,-734.84 272.38,-522.4 241.14,-435.14 313.24,-320.4 220.55,-320.4"/>
<polygon fill="black" stroke="black" points="479.87,-989.43 489.79,-994.09 485.21,-989.52 489.54,-989.59 489.54,-989.59 489.54,-989.59 485.21,-989.52 489.95,-985.09 479.87,-989.43"/>
<text text-anchor="start" x="383.17" y="-999.6" font-family="Arial" font-size="10.00">ForeignKeyType: User</text>
</g>
<!-- Contact -->
<g id="node4" class="node">
<title>Contact</title>
<polygon fill="#efefef" stroke="none" points="324.2,-412.8 324.2,-448.4 522.55,-448.4 522.55,-412.8 324.2,-412.8"/>
<polygon fill="none" stroke="black" points="324.2,-412.8 324.2,-448.4 522.55,-448.4 522.55,-412.8 324.2,-412.8"/>
<text text-anchor="start" x="331.2" y="-426.2" font-family="Arial Bold" font-size="18.00">Contact</text>
<text text-anchor="start" x="387.19" y="-426.2" font-family="Arial" font-size="14.00">    </text>
<text text-anchor="start" x="418.3" y="-426.2" font-family="Arial" font-size="14.00" fill="#666666">[TailorDB.Type]</text>
<polygon fill="none" stroke="black" points="324.2,-382 324.2,-412.8 522.55,-412.8 522.55,-382 324.2,-382"/>
<text text-anchor="start" x="331.2" y="-394.2" font-family="Arial" font-size="14.00">id </text>
<text text-anchor="start" x="345.99" y="-394.2" font-family="Arial" font-size="14.00" fill="#666666">[uuid]</text>
<polygon fill="none" stroke="black" points="324.2,-351.2 324.2,-382 522.55,-382 522.55,-351.2 324.2,-351.2"/>
<text text-anchor="start" x="331.2" y="-363.4" font-family="Arial" font-size="14.00">firstName </text>
<text text-anchor="start" x="394.99" y="-363.4" font-family="Arial" font-size="14.00" fill="#666666">[string]</text>
<polygon fill="none" stroke="black" points="324.2,-320.4 324.2,-351.2 522.55,-351.2 522.55,-320.4 324.2,-320.4"/>
<text text-anchor="start" x="331.2" y="-332.6" font-family="Arial" font-size="14.00">lastName </text>
<text text-anchor="start" x="394.22" y="-332.6" font-family="Arial" font-size="14.00" fill="#666666">[string]</text>
<polygon fill="none" stroke="black" points="324.2,-289.6 324.2,-320.4 522.55,-320.4 522.55,-289.6 324.2,-289.6"/>
<text text-anchor="start" x="331.2" y="-301.8" font-family="Arial" font-size="14.00">linkedInUrl </text>
<text text-anchor="start" x="401.23" y="-301.8" font-family="Arial" font-size="14.00" fill="#666666">[string]</text>
<polygon fill="none" stroke="black" points="324.2,-258.8 324.2,-289.6 522.55,-289.6 522.55,-258.8 324.2,-258.8"/>
<text text-anchor="start" x="331.2" y="-271" font-family="Arial" font-size="14.00">companyId </text>
<text text-anchor="start" x="403.57" y="-271" font-family="Arial" font-size="14.00" fill="#666666">[uuid]</text>
<polygon fill="none" stroke="black" points="324.2,-228 324.2,-258.8 522.55,-258.8 522.55,-228 324.2,-228"/>
<text text-anchor="start" x="331.2" y="-240.2" font-family="Arial" font-size="14.00">company </text>
<text text-anchor="start" x="391.9" y="-240.2" font-family="Arial" font-size="14.00" fill="#666666">[Company]</text>
<polygon fill="none" stroke="black" points="324.2,-197.2 324.2,-228 522.55,-228 522.55,-197.2 324.2,-197.2"/>
<text text-anchor="start" x="331.2" y="-209.4" font-family="Arial" font-size="14.00">createdAt </text>
<text text-anchor="start" x="395.01" y="-209.4" font-family="Arial" font-size="14.00" fill="#666666">[datetime]</text>
<polygon fill="none" stroke="black" points="324.2,-166.4 324.2,-197.2 522.55,-197.2 522.55,-166.4 324.2,-166.4"/>
<text text-anchor="start" x="331.2" y="-178.6" font-family="Arial" font-size="14.00">updatedAt </text>
<text text-anchor="start" x="398.92" y="-178.6" font-family="Arial" font-size="14.00" fill="#666666">[datetime]</text>
<polygon fill="none" stroke="black" points="324.2,-135.6 324.2,-166.4 522.55,-166.4 522.55,-135.6 324.2,-135.6"/>
<text text-anchor="start" x="331.2" y="-147.8" font-family="Arial" font-size="14.00">isDeleted </text>
<text text-anchor="start" x="393.46" y="-147.8" font-family="Arial" font-size="14.00" fill="#666666">[boolean]</text>
<polygon fill="none" stroke="black" points="324.2,-104.8 324.2,-135.6 522.55,-135.6 522.55,-104.8 324.2,-104.8"/>
<text text-anchor="start" x="331.2" y="-117" font-family="Arial" font-size="14.00">email </text>
<text text-anchor="start" x="368.55" y="-117" font-family="Arial" font-size="14.00" fill="#666666">[string]</text>
<polygon fill="none" stroke="black" points="324.2,-74 324.2,-104.8 522.55,-104.8 522.55,-74 324.2,-74"/>
<text text-anchor="start" x="331.2" y="-86.2" font-family="Arial" font-size="14.00">phonePrimary </text>
<text text-anchor="start" x="422.24" y="-86.2" font-family="Arial" font-size="14.00" fill="#666666">[string]</text>
</g>
<!-- Deal&#45;&gt;Contact -->
<g id="edge3" class="edge">
<title>Deal:contactId&#45;&gt;Contact:id</title>
<path fill="none" stroke="black" d="M479.93,-804.34C386.37,-795.57 467.95,-661.69 491.2,-558.4 498.41,-526.41 515.25,-523.57 522.55,-491.6 531.88,-450.78 565.42,-397.4 523.55,-397.4"/>
<polygon fill="black" stroke="black" points="479.88,-804.34 489.67,-809.28 485.21,-804.58 489.54,-804.77 489.54,-804.77 489.54,-804.77 485.21,-804.58 490.07,-800.29 479.88,-804.34"/>
<text text-anchor="start" x="369.82" y="-814.8" font-family="Arial" font-size="10.00">ForeignKeyType: Contact</text>
</g>
<!-- DealStage -->
<g id="node5" class="node">
<title>DealStage</title>
<polygon fill="#efefef" stroke="none" points="627.21,-443.6 627.21,-479.2 843.54,-479.2 843.54,-443.6 627.21,-443.6"/>
<polygon fill="none" stroke="black" points="627.21,-443.6 627.21,-479.2 843.54,-479.2 843.54,-443.6 627.21,-443.6"/>
<text text-anchor="start" x="634.21" y="-457" font-family="Arial Bold" font-size="18.00">DealStage</text>
<text text-anchor="start" x="708.18" y="-457" font-family="Arial" font-size="14.00">    </text>
<text text-anchor="start" x="739.3" y="-457" font-family="Arial" font-size="14.00" fill="#666666">[TailorDB.Type]</text>
<polygon fill="none" stroke="black" points="627.21,-412.8 627.21,-443.6 843.54,-443.6 843.54,-412.8 627.21,-412.8"/>
<text text-anchor="start" x="634.21" y="-425" font-family="Arial" font-size="14.00">id </text>
<text text-anchor="start" x="649" y="-425" font-family="Arial" font-size="14.00" fill="#666666">[uuid]</text>
<polygon fill="none" stroke="black" points="627.21,-382 627.21,-412.8 843.54,-412.8 843.54,-382 627.21,-382"/>
<text text-anchor="start" x="634.21" y="-394.2" font-family="Arial" font-size="14.00">name </text>
<text text-anchor="start" x="673.12" y="-394.2" font-family="Arial" font-size="14.00" fill="#666666">[string]</text>
<polygon fill="none" stroke="black" points="627.21,-351.2 627.21,-382 843.54,-382 843.54,-351.2 627.21,-351.2"/>
<text text-anchor="start" x="634.21" y="-363.4" font-family="Arial" font-size="14.00">type </text>
<text text-anchor="start" x="664.56" y="-363.4" font-family="Arial" font-size="14.00" fill="#666666">[string]</text>
<polygon fill="none" stroke="black" points="627.21,-320.4 627.21,-351.2 843.54,-351.2 843.54,-320.4 627.21,-320.4"/>
<text text-anchor="start" x="634.21" y="-332.6" font-family="Arial" font-size="14.00">probability </text>
<text text-anchor="start" x="701.91" y="-332.6" font-family="Arial" font-size="14.00" fill="#666666">[float]</text>
<polygon fill="none" stroke="black" points="627.21,-289.6 627.21,-320.4 843.54,-320.4 843.54,-289.6 627.21,-289.6"/>
<text text-anchor="start" x="634.21" y="-301.8" font-family="Arial" font-size="14.00">closedWon </text>
<text text-anchor="start" x="707.35" y="-301.8" font-family="Arial" font-size="14.00" fill="#666666">[boolean]</text>
<polygon fill="none" stroke="black" points="627.21,-258.8 627.21,-289.6 843.54,-289.6 843.54,-258.8 627.21,-258.8"/>
<text text-anchor="start" x="634.21" y="-271" font-family="Arial" font-size="14.00">closedLost </text>
<text text-anchor="start" x="705.03" y="-271" font-family="Arial" font-size="14.00" fill="#666666">[boolean]</text>
<polygon fill="none" stroke="black" points="627.21,-228 627.21,-258.8 843.54,-258.8 843.54,-228 627.21,-228"/>
<text text-anchor="start" x="634.21" y="-240.2" font-family="Arial" font-size="14.00">createdAt </text>
<text text-anchor="start" x="698.02" y="-240.2" font-family="Arial" font-size="14.00" fill="#666666">[datetime]</text>
<polygon fill="none" stroke="black" points="627.21,-197.2 627.21,-228 843.54,-228 843.54,-197.2 627.21,-197.2"/>
<text text-anchor="start" x="634.21" y="-209.4" font-family="Arial" font-size="14.00">updatedAt </text>
<text text-anchor="start" x="701.93" y="-209.4" font-family="Arial" font-size="14.00" fill="#666666">[datetime]</text>
<polygon fill="none" stroke="black" points="627.21,-166.4 627.21,-197.2 843.54,-197.2 843.54,-166.4 627.21,-166.4"/>
<text text-anchor="start" x="634.21" y="-178.6" font-family="Arial" font-size="14.00">dealPipelineId </text>
<text text-anchor="start" x="726.06" y="-178.6" font-family="Arial" font-size="14.00" fill="#666666">[uuid]</text>
<polygon fill="none" stroke="black" points="627.21,-135.6 627.21,-166.4 843.54,-166.4 843.54,-135.6 627.21,-135.6"/>
<text text-anchor="start" x="634.21" y="-147.8" font-family="Arial" font-size="14.00">dealPipeline </text>
<text text-anchor="start" x="714.38" y="-147.8" font-family="Arial" font-size="14.00" fill="#666666">[DealPipeline]</text>
<polygon fill="none" stroke="black" points="627.21,-104.8 627.21,-135.6 843.54,-135.6 843.54,-104.8 627.21,-104.8"/>
<text text-anchor="start" x="634.21" y="-117" font-family="Arial" font-size="14.00">displayOrder </text>
<text text-anchor="start" x="717.46" y="-117" font-family="Arial" font-size="14.00" fill="#666666">[integer]</text>
<polygon fill="none" stroke="black" points="627.21,-74 627.21,-104.8 843.54,-104.8 843.54,-74 627.21,-74"/>
<text text-anchor="start" x="634.21" y="-86.2" font-family="Arial" font-size="14.00">description </text>
<text text-anchor="start" x="705.8" y="-86.2" font-family="Arial" font-size="14.00" fill="#666666">[string]</text>
<polygon fill="none" stroke="black" points="627.21,-43.2 627.21,-74 843.54,-74 843.54,-43.2 627.21,-43.2"/>
<text text-anchor="start" x="634.21" y="-55.4" font-family="Arial" font-size="14.00">label </text>
<text text-anchor="start" x="667.68" y="-55.4" font-family="Arial" font-size="14.00" fill="#666666">[string]</text>
</g>
<!-- Deal&#45;&gt;DealStage -->
<g id="edge4" class="edge">
<title>Deal:dealStageId&#45;&gt;DealStage:id</title>
<path fill="none" stroke="black" d="M678.81,-711.6C732.52,-702.47 694.19,-617.36 667.55,-558.4 657.65,-536.5 637.15,-544.28 627.21,-522.4 609.89,-484.28 584.34,-428.2 626.21,-428.2"/>
<polygon fill="black" stroke="black" points="678.85,-711.59 668.53,-707.89 673.53,-712.01 669.22,-712.35 669.22,-712.35 669.22,-712.35 673.53,-712.01 669.23,-716.86 678.85,-711.59"/>
<text text-anchor="start" x="675.55" y="-722.4" font-family="Arial" font-size="10.00">ForeignKeyType: DealStage</text>
</g>
<!-- Company -->
<g id="node6" class="node">
<title>Company</title>
<polygon fill="#efefef" stroke="none" points="948.2,-366.6 948.2,-402.2 1160.56,-402.2 1160.56,-366.6 948.2,-366.6"/>
<polygon fill="none" stroke="black" points="948.2,-366.6 948.2,-402.2 1160.56,-402.2 1160.56,-366.6 948.2,-366.6"/>
<text text-anchor="start" x="955.2" y="-380" font-family="Arial Bold" font-size="18.00">Company</text>
<text text-anchor="start" x="1025.19" y="-380" font-family="Arial" font-size="14.00">    </text>
<text text-anchor="start" x="1056.31" y="-380" font-family="Arial" font-size="14.00" fill="#666666">[TailorDB.Type]</text>
<polygon fill="none" stroke="black" points="948.2,-335.8 948.2,-366.6 1160.56,-366.6 1160.56,-335.8 948.2,-335.8"/>
<text text-anchor="start" x="955.2" y="-348" font-family="Arial" font-size="14.00">id </text>
<text text-anchor="start" x="969.98" y="-348" font-family="Arial" font-size="14.00" fill="#666666">[uuid]</text>
<polygon fill="none" stroke="black" points="948.2,-305 948.2,-335.8 1160.56,-335.8 1160.56,-305 948.2,-305"/>
<text text-anchor="start" x="955.2" y="-317.2" font-family="Arial" font-size="14.00">createdAt </text>
<text text-anchor="start" x="1019.01" y="-317.2" font-family="Arial" font-size="14.00" fill="#666666">[datetime]</text>
<polygon fill="none" stroke="black" points="948.2,-274.2 948.2,-305 1160.56,-305 1160.56,-274.2 948.2,-274.2"/>
<text text-anchor="start" x="955.2" y="-286.4" font-family="Arial" font-size="14.00">updatedAt </text>
<text text-anchor="start" x="1022.92" y="-286.4" font-family="Arial" font-size="14.00" fill="#666666">[datetime]</text>
<polygon fill="none" stroke="black" points="948.2,-243.4 948.2,-274.2 1160.56,-274.2 1160.56,-243.4 948.2,-243.4"/>
<text text-anchor="start" x="955.2" y="-255.6" font-family="Arial" font-size="14.00">name </text>
<text text-anchor="start" x="994.11" y="-255.6" font-family="Arial" font-size="14.00" fill="#666666">[string]</text>
<polygon fill="none" stroke="black" points="948.2,-212.6 948.2,-243.4 1160.56,-243.4 1160.56,-212.6 948.2,-212.6"/>
<text text-anchor="start" x="955.2" y="-224.8" font-family="Arial" font-size="14.00">isDeleted </text>
<text text-anchor="start" x="1017.45" y="-224.8" font-family="Arial" font-size="14.00" fill="#666666">[boolean]</text>
<polygon fill="none" stroke="black" points="948.2,-181.8 948.2,-212.6 1160.56,-212.6 1160.56,-181.8 948.2,-181.8"/>
<text text-anchor="start" x="955.2" y="-194" font-family="Arial" font-size="14.00">url </text>
<text text-anchor="start" x="974.64" y="-194" font-family="Arial" font-size="14.00" fill="#666666">[string]</text>
<polygon fill="none" stroke="black" points="948.2,-151 948.2,-181.8 1160.56,-181.8 1160.56,-151 948.2,-151"/>
<text text-anchor="start" x="955.2" y="-163.2" font-family="Arial" font-size="14.00">linkedInUrl </text>
<text text-anchor="start" x="1025.22" y="-163.2" font-family="Arial" font-size="14.00" fill="#666666">[string]</text>
<polygon fill="none" stroke="black" points="948.2,-120.2 948.2,-151 1160.56,-151 1160.56,-120.2 948.2,-120.2"/>
<text text-anchor="start" x="955.2" y="-132.4" font-family="Arial" font-size="14.00">logoUrl </text>
<text text-anchor="start" x="1003.44" y="-132.4" font-family="Arial" font-size="14.00" fill="#666666">[string]</text>
</g>
<!-- Deal&#45;&gt;Company -->
<g id="edge5" class="edge">
<title>Deal:companyId&#45;&gt;Company:id</title>
<path fill="none" stroke="black" d="M678.86,-650.7C786.76,-648.45 825.19,-610.12 895.38,-522.4 945.04,-460.33 867.7,-351.2 947.2,-351.2"/>
<polygon fill="black" stroke="black" points="678.88,-650.69 668.84,-646.3 673.55,-650.75 669.22,-650.79 669.22,-650.79 669.22,-650.79 673.55,-650.75 668.93,-655.3 678.88,-650.69"/>
<text text-anchor="start" x="675.55" y="-660.8" font-family="Arial" font-size="10.00">ForeignKeyType: Company</text>
</g>
<!-- EngagementDeal -->
<g id="node2" class="node">
<title>EngagementDeal</title>
<polygon fill="#efefef" stroke="none" points="446.22,-1443.2 446.22,-1478.8 712.53,-1478.8 712.53,-1443.2 446.22,-1443.2"/>
<polygon fill="none" stroke="black" points="446.22,-1443.2 446.22,-1478.8 712.53,-1478.8 712.53,-1443.2 446.22,-1443.2"/>
<text text-anchor="start" x="453.22" y="-1456.6" font-family="Arial Bold" font-size="18.00">EngagementDeal</text>
<text text-anchor="start" x="577.17" y="-1456.6" font-family="Arial" font-size="14.00">    </text>
<text text-anchor="start" x="608.28" y="-1456.6" font-family="Arial" font-size="14.00" fill="#666666">[TailorDB.Type]</text>
<polygon fill="none" stroke="black" points="446.22,-1412.4 446.22,-1443.2 712.53,-1443.2 712.53,-1412.4 446.22,-1412.4"/>
<text text-anchor="start" x="453.22" y="-1424.6" font-family="Arial" font-size="14.00">id </text>
<text text-anchor="start" x="468.01" y="-1424.6" font-family="Arial" font-size="14.00" fill="#666666">[uuid]</text>
<polygon fill="none" stroke="black" points="446.22,-1381.6 446.22,-1412.4 712.53,-1412.4 712.53,-1381.6 446.22,-1381.6"/>
<text text-anchor="start" x="453.22" y="-1393.8" font-family="Arial" font-size="14.00">updatedAt </text>
<text text-anchor="start" x="520.95" y="-1393.8" font-family="Arial" font-size="14.00" fill="#666666">[datetime]</text>
<polygon fill="none" stroke="black" points="446.22,-1350.8 446.22,-1381.6 712.53,-1381.6 712.53,-1350.8 446.22,-1350.8"/>
<text text-anchor="start" x="453.22" y="-1363" font-family="Arial" font-size="14.00">dealId </text>
<text text-anchor="start" x="495.26" y="-1363" font-family="Arial" font-size="14.00" fill="#666666">[uuid]</text>
<polygon fill="none" stroke="black" points="446.22,-1320 446.22,-1350.8 712.53,-1350.8 712.53,-1320 446.22,-1320"/>
<text text-anchor="start" x="453.22" y="-1332.2" font-family="Arial" font-size="14.00">deal </text>
<text text-anchor="start" x="483.58" y="-1332.2" font-family="Arial" font-size="14.00" fill="#666666">[Deal]</text>
<polygon fill="none" stroke="black" points="446.22,-1289.2 446.22,-1320 712.53,-1320 712.53,-1289.2 446.22,-1289.2"/>
<text text-anchor="start" x="453.22" y="-1301.4" font-family="Arial" font-size="14.00">engagementId </text>
<text text-anchor="start" x="546.63" y="-1301.4" font-family="Arial" font-size="14.00" fill="#666666">[uuid]</text>
<polygon fill="none" stroke="black" points="446.22,-1258.4 446.22,-1289.2 712.53,-1289.2 712.53,-1258.4 446.22,-1258.4"/>
<text text-anchor="start" x="453.22" y="-1270.6" font-family="Arial" font-size="14.00">engagement </text>
<text text-anchor="start" x="534.95" y="-1270.6" font-family="Arial" font-size="14.00" fill="#666666">[Engagement]</text>
<polygon fill="none" stroke="black" points="446.22,-1227.6 446.22,-1258.4 712.53,-1258.4 712.53,-1227.6 446.22,-1227.6"/>
<text text-anchor="start" x="453.22" y="-1239.8" font-family="Arial" font-size="14.00">createdAt </text>
<text text-anchor="start" x="517.04" y="-1239.8" font-family="Arial" font-size="14.00" fill="#666666">[datetime]</text>
</g>
<!-- EngagementDeal&#45;&gt;Deal -->
<g id="edge1" class="edge">
<title>EngagementDeal:dealId&#45;&gt;Deal:id</title>
<path fill="none" stroke="black" d="M723.94,-1365.6C852.6,-1350.41 806.38,-1051.2 668.55,-1051.2"/>
<polygon fill="black" stroke="black" points="723.85,-1365.61 713.61,-1361.69 718.52,-1365.91 714.2,-1366.16 714.2,-1366.16 714.2,-1366.16 718.52,-1365.91 714.12,-1370.67 723.85,-1365.61"/>
<text text-anchor="start" x="720.53" y="-1376.2" font-family="Arial" font-size="10.00">ForeignKeyType: Deal</text>
</g>
</g>
</svg>
