<?xml version="1.0" encoding="UTF-8" standalone="no"?>
<!DOCTYPE svg PUBLIC "-//W3C//DTD SVG 1.1//EN"
 "http://www.w3.org/Graphics/SVG/1.1/DTD/svg11.dtd">
<!-- Generated by graphviz version 12.1.2 (20240928.0832)
 -->
<!-- Title: EngagementCompany Pages: 1 -->
<svg width="606pt" height="756pt"
 viewBox="0.00 0.00 606.10 756.00" xmlns="http://www.w3.org/2000/svg" xmlns:xlink="http://www.w3.org/1999/xlink">
<g id="graph0" class="graph" transform="scale(1 1) rotate(0) translate(4 752)">
<title>EngagementCompany</title>
<polygon fill="white" stroke="none" points="-4,4 -4,-752 602.1,-752 602.1,4 -4,4"/>
<!-- EngagementCompany -->
<g id="node1" class="node">
<title>EngagementCompany</title>
<polygon fill="#efefef" stroke="none" points="152.22,-666.2 152.22,-701.8 435.9,-701.8 435.9,-666.2 152.22,-666.2"/>
<polygon fill="none" stroke="black" points="152.22,-666.2 152.22,-701.8 435.9,-701.8 435.9,-666.2 152.22,-666.2"/>
<text text-anchor="start" x="159.22" y="-679.6" font-family="Arial Bold" font-size="18.00">EngagementCompany</text>
<text text-anchor="start" x="319.18" y="-679.6" font-family="Arial" font-size="14.00">    </text>
<text text-anchor="start" x="350.3" y="-679.6" font-family="Arial" font-size="14.00" fill="#666666">[Base Table]</text>
<polygon fill="none" stroke="black" points="152.22,-635.4 152.22,-666.2 435.9,-666.2 435.9,-635.4 152.22,-635.4"/>
<text text-anchor="start" x="159.22" y="-647.6" font-family="Arial" font-size="14.00">id </text>
<text text-anchor="start" x="174" y="-647.6" font-family="Arial" font-size="14.00" fill="#666666">[uuid]</text>
<polygon fill="none" stroke="black" points="152.22,-604.6 152.22,-635.4 435.9,-635.4 435.9,-604.6 152.22,-604.6"/>
<text text-anchor="start" x="159.22" y="-616.8" font-family="Arial" font-size="14.00">createdAt </text>
<text text-anchor="start" x="223.03" y="-616.8" font-family="Arial" font-size="14.00" fill="#666666">[datetime]</text>
<polygon fill="none" stroke="black" points="152.22,-573.8 152.22,-604.6 435.9,-604.6 435.9,-573.8 152.22,-573.8"/>
<text text-anchor="start" x="159.22" y="-586" font-family="Arial" font-size="14.00">updatedAt </text>
<text text-anchor="start" x="226.94" y="-586" font-family="Arial" font-size="14.00" fill="#666666">[datetime]</text>
<polygon fill="none" stroke="black" points="152.22,-543 152.22,-573.8 435.9,-573.8 435.9,-543 152.22,-543"/>
<text text-anchor="start" x="159.22" y="-555.2" font-family="Arial" font-size="14.00">companyId </text>
<text text-anchor="start" x="231.59" y="-555.2" font-family="Arial" font-size="14.00" fill="#666666">[uuid]</text>
<polygon fill="none" stroke="black" points="152.22,-512.2 152.22,-543 435.9,-543 435.9,-512.2 152.22,-512.2"/>
<text text-anchor="start" x="159.22" y="-524.4" font-family="Arial" font-size="14.00">company </text>
<text text-anchor="start" x="219.91" y="-524.4" font-family="Arial" font-size="14.00" fill="#666666">[Company]</text>
<polygon fill="none" stroke="black" points="152.22,-481.4 152.22,-512.2 435.9,-512.2 435.9,-481.4 152.22,-481.4"/>
<text text-anchor="start" x="159.22" y="-493.6" font-family="Arial" font-size="14.00">engagementId </text>
<text text-anchor="start" x="252.62" y="-493.6" font-family="Arial" font-size="14.00" fill="#666666">[uuid]</text>
<polygon fill="none" stroke="black" points="152.22,-450.6 152.22,-481.4 435.9,-481.4 435.9,-450.6 152.22,-450.6"/>
<text text-anchor="start" x="159.22" y="-462.8" font-family="Arial" font-size="14.00">engagement </text>
<text text-anchor="start" x="240.95" y="-462.8" font-family="Arial" font-size="14.00" fill="#666666">[Engagement]</text>
<polygon fill="none" stroke="black" stroke-width="3" points="150.72,-449.1 150.72,-703.3 437.4,-703.3 437.4,-449.1 150.72,-449.1"/>
</g>
<!-- Company -->
<g id="node2" class="node">
<title>Company</title>
<polygon fill="#efefef" stroke="none" points="43.2,-289.6 43.2,-325.2 236.91,-325.2 236.91,-289.6 43.2,-289.6"/>
<polygon fill="none" stroke="black" points="43.2,-289.6 43.2,-325.2 236.91,-325.2 236.91,-289.6 43.2,-289.6"/>
<text text-anchor="start" x="50.2" y="-303" font-family="Arial Bold" font-size="18.00">Company</text>
<text text-anchor="start" x="120.2" y="-303" font-family="Arial" font-size="14.00">    </text>
<text text-anchor="start" x="151.31" y="-303" font-family="Arial" font-size="14.00" fill="#666666">[Base Table]</text>
<polygon fill="none" stroke="black" points="43.2,-258.8 43.2,-289.6 236.91,-289.6 236.91,-258.8 43.2,-258.8"/>
<text text-anchor="start" x="50.2" y="-271" font-family="Arial" font-size="14.00">id </text>
<text text-anchor="start" x="64.99" y="-271" font-family="Arial" font-size="14.00" fill="#666666">[uuid]</text>
<polygon fill="none" stroke="black" points="43.2,-228 43.2,-258.8 236.91,-258.8 236.91,-228 43.2,-228"/>
<text text-anchor="start" x="50.2" y="-240.2" font-family="Arial" font-size="14.00">createdAt </text>
<text text-anchor="start" x="114.01" y="-240.2" font-family="Arial" font-size="14.00" fill="#666666">[datetime]</text>
<polygon fill="none" stroke="black" points="43.2,-197.2 43.2,-228 236.91,-228 236.91,-197.2 43.2,-197.2"/>
<text text-anchor="start" x="50.2" y="-209.4" font-family="Arial" font-size="14.00">updatedAt </text>
<text text-anchor="start" x="117.92" y="-209.4" font-family="Arial" font-size="14.00" fill="#666666">[datetime]</text>
<polygon fill="none" stroke="black" points="43.2,-166.4 43.2,-197.2 236.91,-197.2 236.91,-166.4 43.2,-166.4"/>
<text text-anchor="start" x="50.2" y="-178.6" font-family="Arial" font-size="14.00">name </text>
<text text-anchor="start" x="89.11" y="-178.6" font-family="Arial" font-size="14.00" fill="#666666">[string]</text>
<polygon fill="none" stroke="black" points="43.2,-135.6 43.2,-166.4 236.91,-166.4 236.91,-135.6 43.2,-135.6"/>
<text text-anchor="start" x="50.2" y="-147.8" font-family="Arial" font-size="14.00">isDeleted </text>
<text text-anchor="start" x="112.45" y="-147.8" font-family="Arial" font-size="14.00" fill="#666666">[boolean]</text>
<polygon fill="none" stroke="black" points="43.2,-104.8 43.2,-135.6 236.91,-135.6 236.91,-104.8 43.2,-104.8"/>
<text text-anchor="start" x="50.2" y="-117" font-family="Arial" font-size="14.00">url </text>
<text text-anchor="start" x="69.65" y="-117" font-family="Arial" font-size="14.00" fill="#666666">[string]</text>
<polygon fill="none" stroke="black" points="43.2,-74 43.2,-104.8 236.91,-104.8 236.91,-74 43.2,-74"/>
<text text-anchor="start" x="50.2" y="-86.2" font-family="Arial" font-size="14.00">linkedInUrl </text>
<text text-anchor="start" x="120.23" y="-86.2" font-family="Arial" font-size="14.00" fill="#666666">[string]</text>
<polygon fill="none" stroke="black" points="43.2,-43.2 43.2,-74 236.91,-74 236.91,-43.2 43.2,-43.2"/>
<text text-anchor="start" x="50.2" y="-55.4" font-family="Arial" font-size="14.00">logoUrl </text>
<text text-anchor="start" x="98.44" y="-55.4" font-family="Arial" font-size="14.00" fill="#666666">[string]</text>
</g>
<!-- EngagementCompany&#45;&gt;Company -->
<g id="edge1" class="edge">
<title>EngagementCompany:companyId&#45;&gt;Company:id</title>
<path fill="none" stroke="black" d="M140.87,-557.55C86.24,-547.91 116.34,-458.25 152.22,-404.4 174.9,-370.36 214.17,-402.39 236.91,-368.4 260.2,-333.6 279.78,-274.2 237.91,-274.2"/>
<polygon fill="black" stroke="black" points="140.92,-557.56 150.52,-562.86 146.23,-557.99 150.55,-558.35 150.55,-558.35 150.55,-558.35 146.23,-557.99 151.25,-553.89 140.92,-557.56"/>
<text text-anchor="start" x="93.08" y="-568.4" font-family="Arial" font-size="10.00">ForeignKey</text>
</g>
<!-- Engagement -->
<g id="node3" class="node">
<title>Engagement</title>
<polygon fill="#efefef" stroke="none" points="341.22,-274.2 341.22,-309.8 554.9,-309.8 554.9,-274.2 341.22,-274.2"/>
<polygon fill="none" stroke="black" points="341.22,-274.2 341.22,-309.8 554.9,-309.8 554.9,-274.2 341.22,-274.2"/>
<text text-anchor="start" x="348.22" y="-287.6" font-family="Arial Bold" font-size="18.00">Engagement</text>
<text text-anchor="start" x="438.18" y="-287.6" font-family="Arial" font-size="14.00">    </text>
<text text-anchor="start" x="469.3" y="-287.6" font-family="Arial" font-size="14.00" fill="#666666">[Base Table]</text>
<polygon fill="none" stroke="black" points="341.22,-243.4 341.22,-274.2 554.9,-274.2 554.9,-243.4 341.22,-243.4"/>
<text text-anchor="start" x="348.22" y="-255.6" font-family="Arial" font-size="14.00">id </text>
<text text-anchor="start" x="363" y="-255.6" font-family="Arial" font-size="14.00" fill="#666666">[uuid]</text>
<polygon fill="none" stroke="black" points="341.22,-212.6 341.22,-243.4 554.9,-243.4 554.9,-212.6 341.22,-212.6"/>
<text text-anchor="start" x="348.22" y="-224.8" font-family="Arial" font-size="14.00">active </text>
<text text-anchor="start" x="388.68" y="-224.8" font-family="Arial" font-size="14.00" fill="#666666">[boolean]</text>
<polygon fill="none" stroke="black" points="341.22,-181.8 341.22,-212.6 554.9,-212.6 554.9,-181.8 341.22,-181.8"/>
<text text-anchor="start" x="348.22" y="-194" font-family="Arial" font-size="14.00">activityType </text>
<text text-anchor="start" x="426.02" y="-194" font-family="Arial" font-size="14.00" fill="#666666">[string]</text>
<polygon fill="none" stroke="black" points="341.22,-151 341.22,-181.8 554.9,-181.8 554.9,-151 341.22,-151"/>
<text text-anchor="start" x="348.22" y="-163.2" font-family="Arial" font-size="14.00">userId </text>
<text text-anchor="start" x="391.02" y="-163.2" font-family="Arial" font-size="14.00" fill="#666666">[uuid]</text>
<polygon fill="none" stroke="black" points="341.22,-120.2 341.22,-151 554.9,-151 554.9,-120.2 341.22,-120.2"/>
<text text-anchor="start" x="348.22" y="-132.4" font-family="Arial" font-size="14.00">type </text>
<text text-anchor="start" x="378.57" y="-132.4" font-family="Arial" font-size="14.00" fill="#666666">[string]</text>
<polygon fill="none" stroke="black" points="341.22,-89.4 341.22,-120.2 554.9,-120.2 554.9,-89.4 341.22,-89.4"/>
<text text-anchor="start" x="348.22" y="-101.6" font-family="Arial" font-size="14.00">createdAt </text>
<text text-anchor="start" x="412.03" y="-101.6" font-family="Arial" font-size="14.00" fill="#666666">[datetime]</text>
<polygon fill="none" stroke="black" points="341.22,-58.6 341.22,-89.4 554.9,-89.4 554.9,-58.6 341.22,-58.6"/>
<text text-anchor="start" x="348.22" y="-70.8" font-family="Arial" font-size="14.00">updatedAt </text>
<text text-anchor="start" x="415.94" y="-70.8" font-family="Arial" font-size="14.00" fill="#666666">[datetime]</text>
</g>
<!-- EngagementCompany&#45;&gt;Engagement -->
<g id="edge2" class="edge">
<title>EngagementCompany:engagementId&#45;&gt;Engagement:id</title>
<path fill="none" stroke="black" d="M447.21,-495.24C473.88,-485.83 455.02,-436.14 435.9,-404.4 411.19,-363.38 365.92,-394.02 341.22,-353 319.62,-317.13 298.35,-258.8 340.22,-258.8"/>
<polygon fill="black" stroke="black" points="447.11,-495.25 436.55,-492.3 441.84,-496.05 437.56,-496.7 437.56,-496.7 437.56,-496.7 441.84,-496.05 437.9,-501.2 447.11,-495.25"/>
<text text-anchor="start" x="443.9" y="-506.8" font-family="Arial" font-size="10.00">ForeignKey</text>
</g>
</g>
</svg>
