<?xml version="1.0" encoding="UTF-8" standalone="no"?>
<!DOCTYPE svg PUBLIC "-//W3C//DTD SVG 1.1//EN"
 "http://www.w3.org/Graphics/SVG/1.1/DTD/svg11.dtd">
<!-- Generated by graphviz version 12.1.2 (20240928.0832)
 -->
<!-- Title: Engagement Pages: 1 -->
<svg width="1104pt" height="1068pt"
 viewBox="0.00 0.00 1104.07 1068.00" xmlns="http://www.w3.org/2000/svg" xmlns:xlink="http://www.w3.org/1999/xlink">
<g id="graph0" class="graph" transform="scale(1 1) rotate(0) translate(4 1064)">
<title>Engagement</title>
<polygon fill="white" stroke="none" points="-4,4 -4,-1064 1100.07,-1064 1100.07,4 -4,4"/>
<!-- Engagement -->
<g id="node1" class="node">
<title>Engagement</title>
<polygon fill="#efefef" stroke="none" points="459.2,-604.6 459.2,-640.2 672.88,-640.2 672.88,-604.6 459.2,-604.6"/>
<polygon fill="none" stroke="black" points="459.2,-604.6 459.2,-640.2 672.88,-640.2 672.88,-604.6 459.2,-604.6"/>
<text text-anchor="start" x="466.2" y="-618" font-family="Arial Bold" font-size="18.00">Engagement</text>
<text text-anchor="start" x="556.16" y="-618" font-family="Arial" font-size="14.00">    </text>
<text text-anchor="start" x="587.28" y="-618" font-family="Arial" font-size="14.00" fill="#666666">[Base Table]</text>
<polygon fill="none" stroke="black" points="459.2,-573.8 459.2,-604.6 672.88,-604.6 672.88,-573.8 459.2,-573.8"/>
<text text-anchor="start" x="466.2" y="-586" font-family="Arial" font-size="14.00">id </text>
<text text-anchor="start" x="480.98" y="-586" font-family="Arial" font-size="14.00" fill="#666666">[uuid]</text>
<polygon fill="none" stroke="black" points="459.2,-543 459.2,-573.8 672.88,-573.8 672.88,-543 459.2,-543"/>
<text text-anchor="start" x="466.2" y="-555.2" font-family="Arial" font-size="14.00">active </text>
<text text-anchor="start" x="506.66" y="-555.2" font-family="Arial" font-size="14.00" fill="#666666">[boolean]</text>
<polygon fill="none" stroke="black" points="459.2,-512.2 459.2,-543 672.88,-543 672.88,-512.2 459.2,-512.2"/>
<text text-anchor="start" x="466.2" y="-524.4" font-family="Arial" font-size="14.00">activityType </text>
<text text-anchor="start" x="544" y="-524.4" font-family="Arial" font-size="14.00" fill="#666666">[string]</text>
<polygon fill="none" stroke="black" points="459.2,-481.4 459.2,-512.2 672.88,-512.2 672.88,-481.4 459.2,-481.4"/>
<text text-anchor="start" x="466.2" y="-493.6" font-family="Arial" font-size="14.00">userId </text>
<text text-anchor="start" x="509" y="-493.6" font-family="Arial" font-size="14.00" fill="#666666">[uuid]</text>
<polygon fill="none" stroke="black" points="459.2,-450.6 459.2,-481.4 672.88,-481.4 672.88,-450.6 459.2,-450.6"/>
<text text-anchor="start" x="466.2" y="-462.8" font-family="Arial" font-size="14.00">type </text>
<text text-anchor="start" x="496.55" y="-462.8" font-family="Arial" font-size="14.00" fill="#666666">[string]</text>
<polygon fill="none" stroke="black" points="459.2,-419.8 459.2,-450.6 672.88,-450.6 672.88,-419.8 459.2,-419.8"/>
<text text-anchor="start" x="466.2" y="-432" font-family="Arial" font-size="14.00">createdAt </text>
<text text-anchor="start" x="530.01" y="-432" font-family="Arial" font-size="14.00" fill="#666666">[datetime]</text>
<polygon fill="none" stroke="black" points="459.2,-389 459.2,-419.8 672.88,-419.8 672.88,-389 459.2,-389"/>
<text text-anchor="start" x="466.2" y="-401.2" font-family="Arial" font-size="14.00">updatedAt </text>
<text text-anchor="start" x="533.92" y="-401.2" font-family="Arial" font-size="14.00" fill="#666666">[datetime]</text>
<polygon fill="none" stroke="black" stroke-width="3" points="457.7,-387.5 457.7,-641.7 674.38,-641.7 674.38,-387.5 457.7,-387.5"/>
</g>
<!-- User -->
<g id="node5" class="node">
<title>User</title>
<polygon fill="#efefef" stroke="none" points="487.19,-228 487.19,-263.6 644.89,-263.6 644.89,-228 487.19,-228"/>
<polygon fill="none" stroke="black" points="487.19,-228 487.19,-263.6 644.89,-263.6 644.89,-228 487.19,-228"/>
<text text-anchor="start" x="494.19" y="-241.4" font-family="Arial Bold" font-size="18.00">User</text>
<text text-anchor="start" x="528.17" y="-241.4" font-family="Arial" font-size="14.00">    </text>
<text text-anchor="start" x="559.29" y="-241.4" font-family="Arial" font-size="14.00" fill="#666666">[Base Table]</text>
<polygon fill="none" stroke="black" points="487.19,-197.2 487.19,-228 644.89,-228 644.89,-197.2 487.19,-197.2"/>
<text text-anchor="start" x="494.19" y="-209.4" font-family="Arial" font-size="14.00">id </text>
<text text-anchor="start" x="508.97" y="-209.4" font-family="Arial" font-size="14.00" fill="#666666">[uuid]</text>
<polygon fill="none" stroke="black" points="487.19,-166.4 487.19,-197.2 644.89,-197.2 644.89,-166.4 487.19,-166.4"/>
<text text-anchor="start" x="494.19" y="-178.6" font-family="Arial" font-size="14.00">createdAt </text>
<text text-anchor="start" x="558" y="-178.6" font-family="Arial" font-size="14.00" fill="#666666">[datetime]</text>
<polygon fill="none" stroke="black" points="487.19,-135.6 487.19,-166.4 644.89,-166.4 644.89,-135.6 487.19,-135.6"/>
<text text-anchor="start" x="494.19" y="-147.8" font-family="Arial" font-size="14.00">updatedAt </text>
<text text-anchor="start" x="561.91" y="-147.8" font-family="Arial" font-size="14.00" fill="#666666">[datetime]</text>
<polygon fill="none" stroke="black" points="487.19,-104.8 487.19,-135.6 644.89,-135.6 644.89,-104.8 487.19,-104.8"/>
<text text-anchor="start" x="494.19" y="-117" font-family="Arial" font-size="14.00">name </text>
<text text-anchor="start" x="533.1" y="-117" font-family="Arial" font-size="14.00" fill="#666666">[string]</text>
<polygon fill="none" stroke="black" points="487.19,-74 487.19,-104.8 644.89,-104.8 644.89,-74 487.19,-74"/>
<text text-anchor="start" x="494.19" y="-86.2" font-family="Arial" font-size="14.00">email </text>
<text text-anchor="start" x="531.53" y="-86.2" font-family="Arial" font-size="14.00" fill="#666666">[string]</text>
<polygon fill="none" stroke="black" points="487.19,-43.2 487.19,-74 644.89,-74 644.89,-43.2 487.19,-43.2"/>
<text text-anchor="start" x="494.19" y="-55.4" font-family="Arial" font-size="14.00">roles </text>
<text text-anchor="start" x="528.42" y="-55.4" font-family="Arial" font-size="14.00" fill="#666666">[uuid]</text>
</g>
<!-- Engagement&#45;&gt;User -->
<g id="edge4" class="edge">
<title>Engagement:userId&#45;&gt;User:id</title>
<path fill="none" stroke="black" d="M684.29,-496.13C799.14,-480.93 769.22,-212.6 645.89,-212.6"/>
<polygon fill="black" stroke="black" points="684.19,-496.14 673.92,-492.29 678.87,-496.48 674.55,-496.76 674.55,-496.76 674.55,-496.76 678.87,-496.48 674.5,-501.27 684.19,-496.14"/>
<text text-anchor="start" x="680.88" y="-506.8" font-family="Arial" font-size="10.00">ForeignKey</text>
</g>
<!-- EngagementCompany -->
<g id="node2" class="node">
<title>EngagementCompany</title>
<polygon fill="#efefef" stroke="none" points="43.2,-981.2 43.2,-1016.8 326.88,-1016.8 326.88,-981.2 43.2,-981.2"/>
<polygon fill="none" stroke="black" points="43.2,-981.2 43.2,-1016.8 326.88,-1016.8 326.88,-981.2 43.2,-981.2"/>
<text text-anchor="start" x="50.2" y="-994.6" font-family="Arial Bold" font-size="18.00">EngagementCompany</text>
<text text-anchor="start" x="210.16" y="-994.6" font-family="Arial" font-size="14.00">    </text>
<text text-anchor="start" x="241.28" y="-994.6" font-family="Arial" font-size="14.00" fill="#666666">[Base Table]</text>
<polygon fill="none" stroke="black" points="43.2,-950.4 43.2,-981.2 326.88,-981.2 326.88,-950.4 43.2,-950.4"/>
<text text-anchor="start" x="50.2" y="-962.6" font-family="Arial" font-size="14.00">id </text>
<text text-anchor="start" x="64.99" y="-962.6" font-family="Arial" font-size="14.00" fill="#666666">[uuid]</text>
<polygon fill="none" stroke="black" points="43.2,-919.6 43.2,-950.4 326.88,-950.4 326.88,-919.6 43.2,-919.6"/>
<text text-anchor="start" x="50.2" y="-931.8" font-family="Arial" font-size="14.00">createdAt </text>
<text text-anchor="start" x="114.01" y="-931.8" font-family="Arial" font-size="14.00" fill="#666666">[datetime]</text>
<polygon fill="none" stroke="black" points="43.2,-888.8 43.2,-919.6 326.88,-919.6 326.88,-888.8 43.2,-888.8"/>
<text text-anchor="start" x="50.2" y="-901" font-family="Arial" font-size="14.00">updatedAt </text>
<text text-anchor="start" x="117.92" y="-901" font-family="Arial" font-size="14.00" fill="#666666">[datetime]</text>
<polygon fill="none" stroke="black" points="43.2,-858 43.2,-888.8 326.88,-888.8 326.88,-858 43.2,-858"/>
<text text-anchor="start" x="50.2" y="-870.2" font-family="Arial" font-size="14.00">companyId </text>
<text text-anchor="start" x="122.57" y="-870.2" font-family="Arial" font-size="14.00" fill="#666666">[uuid]</text>
<polygon fill="none" stroke="black" points="43.2,-827.2 43.2,-858 326.88,-858 326.88,-827.2 43.2,-827.2"/>
<text text-anchor="start" x="50.2" y="-839.4" font-family="Arial" font-size="14.00">company </text>
<text text-anchor="start" x="110.9" y="-839.4" font-family="Arial" font-size="14.00" fill="#666666">[Company]</text>
<polygon fill="none" stroke="black" points="43.2,-796.4 43.2,-827.2 326.88,-827.2 326.88,-796.4 43.2,-796.4"/>
<text text-anchor="start" x="50.2" y="-808.6" font-family="Arial" font-size="14.00">engagementId </text>
<text text-anchor="start" x="143.61" y="-808.6" font-family="Arial" font-size="14.00" fill="#666666">[uuid]</text>
<polygon fill="none" stroke="black" points="43.2,-765.6 43.2,-796.4 326.88,-796.4 326.88,-765.6 43.2,-765.6"/>
<text text-anchor="start" x="50.2" y="-777.8" font-family="Arial" font-size="14.00">engagement </text>
<text text-anchor="start" x="131.93" y="-777.8" font-family="Arial" font-size="14.00" fill="#666666">[Engagement]</text>
</g>
<!-- EngagementCompany&#45;&gt;Engagement -->
<g id="edge1" class="edge">
<title>EngagementCompany:engagementId&#45;&gt;Engagement:id</title>
<path fill="none" stroke="black" d="M337.92,-810.83C371.03,-803.69 357.87,-758.7 379.04,-722.4 413.73,-662.91 389.33,-589.2 458.2,-589.2"/>
<polygon fill="black" stroke="black" points="338.16,-810.8 327.78,-807.29 332.85,-811.32 328.54,-811.74 328.54,-811.74 328.54,-811.74 332.85,-811.32 328.64,-816.25 338.16,-810.8"/>
<text text-anchor="start" x="318.59" y="-795.8" font-family="Arial" font-size="10.00">ForeignKey</text>
</g>
<!-- EngagementContact -->
<g id="node3" class="node">
<title>EngagementContact</title>
<polygon fill="#efefef" stroke="none" points="431.2,-981.2 431.2,-1016.8 700.87,-1016.8 700.87,-981.2 431.2,-981.2"/>
<polygon fill="none" stroke="black" points="431.2,-981.2 431.2,-1016.8 700.87,-1016.8 700.87,-981.2 431.2,-981.2"/>
<text text-anchor="start" x="438.2" y="-994.6" font-family="Arial Bold" font-size="18.00">EngagementContact</text>
<text text-anchor="start" x="584.16" y="-994.6" font-family="Arial" font-size="14.00">    </text>
<text text-anchor="start" x="615.27" y="-994.6" font-family="Arial" font-size="14.00" fill="#666666">[Base Table]</text>
<polygon fill="none" stroke="black" points="431.2,-950.4 431.2,-981.2 700.87,-981.2 700.87,-950.4 431.2,-950.4"/>
<text text-anchor="start" x="438.2" y="-962.6" font-family="Arial" font-size="14.00">id </text>
<text text-anchor="start" x="452.99" y="-962.6" font-family="Arial" font-size="14.00" fill="#666666">[uuid]</text>
<polygon fill="none" stroke="black" points="431.2,-919.6 431.2,-950.4 700.87,-950.4 700.87,-919.6 431.2,-919.6"/>
<text text-anchor="start" x="438.2" y="-931.8" font-family="Arial" font-size="14.00">updatedAt </text>
<text text-anchor="start" x="505.93" y="-931.8" font-family="Arial" font-size="14.00" fill="#666666">[datetime]</text>
<polygon fill="none" stroke="black" points="431.2,-888.8 431.2,-919.6 700.87,-919.6 700.87,-888.8 431.2,-888.8"/>
<text text-anchor="start" x="438.2" y="-901" font-family="Arial" font-size="14.00">contactId </text>
<text text-anchor="start" x="498.91" y="-901" font-family="Arial" font-size="14.00" fill="#666666">[uuid]</text>
<polygon fill="none" stroke="black" points="431.2,-858 431.2,-888.8 700.87,-888.8 700.87,-858 431.2,-858"/>
<text text-anchor="start" x="438.2" y="-870.2" font-family="Arial" font-size="14.00">contact </text>
<text text-anchor="start" x="487.23" y="-870.2" font-family="Arial" font-size="14.00" fill="#666666">[Contact]</text>
<polygon fill="none" stroke="black" points="431.2,-827.2 431.2,-858 700.87,-858 700.87,-827.2 431.2,-827.2"/>
<text text-anchor="start" x="438.2" y="-839.4" font-family="Arial" font-size="14.00">engagementId </text>
<text text-anchor="start" x="531.61" y="-839.4" font-family="Arial" font-size="14.00" fill="#666666">[uuid]</text>
<polygon fill="none" stroke="black" points="431.2,-796.4 431.2,-827.2 700.87,-827.2 700.87,-796.4 431.2,-796.4"/>
<text text-anchor="start" x="438.2" y="-808.6" font-family="Arial" font-size="14.00">engagement </text>
<text text-anchor="start" x="519.94" y="-808.6" font-family="Arial" font-size="14.00" fill="#666666">[Engagement]</text>
<polygon fill="none" stroke="black" points="431.2,-765.6 431.2,-796.4 700.87,-796.4 700.87,-765.6 431.2,-765.6"/>
<text text-anchor="start" x="438.2" y="-777.8" font-family="Arial" font-size="14.00">createdAt </text>
<text text-anchor="start" x="502.02" y="-777.8" font-family="Arial" font-size="14.00" fill="#666666">[datetime]</text>
</g>
<!-- EngagementContact&#45;&gt;Engagement -->
<g id="edge2" class="edge">
<title>EngagementContact:engagementId&#45;&gt;Engagement:id</title>
<path fill="none" stroke="black" d="M711.79,-839.58C754.8,-810.99 726.88,-589.2 673.88,-589.2"/>
<polygon fill="black" stroke="black" points="711.76,-839.59 700.88,-838.2 706.66,-841.14 702.51,-842.4 702.51,-842.4 702.51,-842.4 706.66,-841.14 703.5,-846.81 711.76,-839.59"/>
<text text-anchor="start" x="692.59" y="-826.6" font-family="Arial" font-size="10.00">ForeignKey</text>
</g>
<!-- EngagementDeal -->
<g id="node4" class="node">
<title>EngagementDeal</title>
<polygon fill="#efefef" stroke="none" points="805.21,-981.2 805.21,-1016.8 1052.87,-1016.8 1052.87,-981.2 805.21,-981.2"/>
<polygon fill="none" stroke="black" points="805.21,-981.2 805.21,-1016.8 1052.87,-1016.8 1052.87,-981.2 805.21,-981.2"/>
<text text-anchor="start" x="812.21" y="-994.6" font-family="Arial Bold" font-size="18.00">EngagementDeal</text>
<text text-anchor="start" x="936.15" y="-994.6" font-family="Arial" font-size="14.00">    </text>
<text text-anchor="start" x="967.27" y="-994.6" font-family="Arial" font-size="14.00" fill="#666666">[Base Table]</text>
<polygon fill="none" stroke="black" points="805.21,-950.4 805.21,-981.2 1052.87,-981.2 1052.87,-950.4 805.21,-950.4"/>
<text text-anchor="start" x="812.21" y="-962.6" font-family="Arial" font-size="14.00">id </text>
<text text-anchor="start" x="826.99" y="-962.6" font-family="Arial" font-size="14.00" fill="#666666">[uuid]</text>
<polygon fill="none" stroke="black" points="805.21,-919.6 805.21,-950.4 1052.87,-950.4 1052.87,-919.6 805.21,-919.6"/>
<text text-anchor="start" x="812.21" y="-931.8" font-family="Arial" font-size="14.00">deal </text>
<text text-anchor="start" x="842.57" y="-931.8" font-family="Arial" font-size="14.00" fill="#666666">[Deal]</text>
<polygon fill="none" stroke="black" points="805.21,-888.8 805.21,-919.6 1052.87,-919.6 1052.87,-888.8 805.21,-888.8"/>
<text text-anchor="start" x="812.21" y="-901" font-family="Arial" font-size="14.00">engagementId </text>
<text text-anchor="start" x="905.62" y="-901" font-family="Arial" font-size="14.00" fill="#666666">[uuid]</text>
<polygon fill="none" stroke="black" points="805.21,-858 805.21,-888.8 1052.87,-888.8 1052.87,-858 805.21,-858"/>
<text text-anchor="start" x="812.21" y="-870.2" font-family="Arial" font-size="14.00">engagement </text>
<text text-anchor="start" x="893.94" y="-870.2" font-family="Arial" font-size="14.00" fill="#666666">[Engagement]</text>
<polygon fill="none" stroke="black" points="805.21,-827.2 805.21,-858 1052.87,-858 1052.87,-827.2 805.21,-827.2"/>
<text text-anchor="start" x="812.21" y="-839.4" font-family="Arial" font-size="14.00">createdAt </text>
<text text-anchor="start" x="876.02" y="-839.4" font-family="Arial" font-size="14.00" fill="#666666">[datetime]</text>
<polygon fill="none" stroke="black" points="805.21,-796.4 805.21,-827.2 1052.87,-827.2 1052.87,-796.4 805.21,-796.4"/>
<text text-anchor="start" x="812.21" y="-808.6" font-family="Arial" font-size="14.00">updatedAt </text>
<text text-anchor="start" x="879.93" y="-808.6" font-family="Arial" font-size="14.00" fill="#666666">[datetime]</text>
<polygon fill="none" stroke="black" points="805.21,-765.6 805.21,-796.4 1052.87,-796.4 1052.87,-765.6 805.21,-765.6"/>
<text text-anchor="start" x="812.21" y="-777.8" font-family="Arial" font-size="14.00">dealId </text>
<text text-anchor="start" x="854.24" y="-777.8" font-family="Arial" font-size="14.00" fill="#666666">[uuid]</text>
</g>
<!-- EngagementDeal&#45;&gt;Engagement -->
<g id="edge3" class="edge">
<title>EngagementDeal:engagementId&#45;&gt;Engagement:id</title>
<path fill="none" stroke="black" d="M794.2,-903.63C725.75,-895.26 784.71,-796.22 753.04,-722.4 725.89,-659.11 742.74,-589.2 673.88,-589.2"/>
<polygon fill="black" stroke="black" points="793.89,-903.61 803.62,-908.67 799.22,-903.92 803.54,-904.16 803.54,-904.16 803.54,-904.16 799.22,-903.92 804.13,-899.69 793.89,-903.61"/>
<text text-anchor="start" x="746.07" y="-914.2" font-family="Arial" font-size="10.00">ForeignKey</text>
</g>
</g>
</svg>
