<?xml version="1.0" encoding="UTF-8" standalone="no"?>
<!DOCTYPE svg PUBLIC "-//W3C//DTD SVG 1.1//EN"
 "http://www.w3.org/Graphics/SVG/1.1/DTD/svg11.dtd">
<!-- Generated by graphviz version 12.1.2 (20240928.0832)
 -->
<!-- Title: Engagement Pages: 1 -->
<svg width="1161pt" height="1068pt"
 viewBox="0.00 0.00 1160.72 1068.00" xmlns="http://www.w3.org/2000/svg" xmlns:xlink="http://www.w3.org/1999/xlink">
<g id="graph0" class="graph" transform="scale(1 1) rotate(0) translate(4 1064)">
<title>Engagement</title>
<polygon fill="white" stroke="none" points="-4,4 -4,-1064 1156.72,-1064 1156.72,4 -4,4"/>
<!-- Engagement -->
<g id="node1" class="node">
<title>Engagement</title>
<polygon fill="#efefef" stroke="none" points="478.2,-604.6 478.2,-640.2 710.53,-640.2 710.53,-604.6 478.2,-604.6"/>
<polygon fill="none" stroke="black" points="478.2,-604.6 478.2,-640.2 710.53,-640.2 710.53,-604.6 478.2,-604.6"/>
<text text-anchor="start" x="485.2" y="-618" font-family="Arial Bold" font-size="18.00">Engagement</text>
<text text-anchor="start" x="575.16" y="-618" font-family="Arial" font-size="14.00">    </text>
<text text-anchor="start" x="606.28" y="-618" font-family="Arial" font-size="14.00" fill="#666666">[TailorDB.Type]</text>
<polygon fill="none" stroke="black" points="478.2,-573.8 478.2,-604.6 710.53,-604.6 710.53,-573.8 478.2,-573.8"/>
<text text-anchor="start" x="485.2" y="-586" font-family="Arial" font-size="14.00">id </text>
<text text-anchor="start" x="499.98" y="-586" font-family="Arial" font-size="14.00" fill="#666666">[uuid]</text>
<polygon fill="none" stroke="black" points="478.2,-543 478.2,-573.8 710.53,-573.8 710.53,-543 478.2,-543"/>
<text text-anchor="start" x="485.2" y="-555.2" font-family="Arial" font-size="14.00">active </text>
<text text-anchor="start" x="525.66" y="-555.2" font-family="Arial" font-size="14.00" fill="#666666">[boolean]</text>
<polygon fill="none" stroke="black" points="478.2,-512.2 478.2,-543 710.53,-543 710.53,-512.2 478.2,-512.2"/>
<text text-anchor="start" x="485.2" y="-524.4" font-family="Arial" font-size="14.00">activityType </text>
<text text-anchor="start" x="563" y="-524.4" font-family="Arial" font-size="14.00" fill="#666666">[string]</text>
<polygon fill="none" stroke="black" points="478.2,-481.4 478.2,-512.2 710.53,-512.2 710.53,-481.4 478.2,-481.4"/>
<text text-anchor="start" x="485.2" y="-493.6" font-family="Arial" font-size="14.00">userId </text>
<text text-anchor="start" x="528" y="-493.6" font-family="Arial" font-size="14.00" fill="#666666">[uuid]</text>
<polygon fill="none" stroke="black" points="478.2,-450.6 478.2,-481.4 710.53,-481.4 710.53,-450.6 478.2,-450.6"/>
<text text-anchor="start" x="485.2" y="-462.8" font-family="Arial" font-size="14.00">type </text>
<text text-anchor="start" x="515.55" y="-462.8" font-family="Arial" font-size="14.00" fill="#666666">[string]</text>
<polygon fill="none" stroke="black" points="478.2,-419.8 478.2,-450.6 710.53,-450.6 710.53,-419.8 478.2,-419.8"/>
<text text-anchor="start" x="485.2" y="-432" font-family="Arial" font-size="14.00">createdAt </text>
<text text-anchor="start" x="549.01" y="-432" font-family="Arial" font-size="14.00" fill="#666666">[datetime]</text>
<polygon fill="none" stroke="black" points="478.2,-389 478.2,-419.8 710.53,-419.8 710.53,-389 478.2,-389"/>
<text text-anchor="start" x="485.2" y="-401.2" font-family="Arial" font-size="14.00">updatedAt </text>
<text text-anchor="start" x="552.92" y="-401.2" font-family="Arial" font-size="14.00" fill="#666666">[datetime]</text>
<polygon fill="none" stroke="black" stroke-width="3" points="476.7,-387.5 476.7,-641.7 712.03,-641.7 712.03,-387.5 476.7,-387.5"/>
</g>
<!-- User -->
<g id="node5" class="node">
<title>User</title>
<polygon fill="#efefef" stroke="none" points="506.19,-228 506.19,-263.6 682.54,-263.6 682.54,-228 506.19,-228"/>
<polygon fill="none" stroke="black" points="506.19,-228 506.19,-263.6 682.54,-263.6 682.54,-228 506.19,-228"/>
<text text-anchor="start" x="513.19" y="-241.4" font-family="Arial Bold" font-size="18.00">User</text>
<text text-anchor="start" x="547.17" y="-241.4" font-family="Arial" font-size="14.00">    </text>
<text text-anchor="start" x="578.29" y="-241.4" font-family="Arial" font-size="14.00" fill="#666666">[TailorDB.Type]</text>
<polygon fill="none" stroke="black" points="506.19,-197.2 506.19,-228 682.54,-228 682.54,-197.2 506.19,-197.2"/>
<text text-anchor="start" x="513.19" y="-209.4" font-family="Arial" font-size="14.00">id </text>
<text text-anchor="start" x="527.97" y="-209.4" font-family="Arial" font-size="14.00" fill="#666666">[uuid]</text>
<polygon fill="none" stroke="black" points="506.19,-166.4 506.19,-197.2 682.54,-197.2 682.54,-166.4 506.19,-166.4"/>
<text text-anchor="start" x="513.19" y="-178.6" font-family="Arial" font-size="14.00">name </text>
<text text-anchor="start" x="552.1" y="-178.6" font-family="Arial" font-size="14.00" fill="#666666">[string]</text>
<polygon fill="none" stroke="black" points="506.19,-135.6 506.19,-166.4 682.54,-166.4 682.54,-135.6 506.19,-135.6"/>
<text text-anchor="start" x="513.19" y="-147.8" font-family="Arial" font-size="14.00">email </text>
<text text-anchor="start" x="550.53" y="-147.8" font-family="Arial" font-size="14.00" fill="#666666">[string]</text>
<polygon fill="none" stroke="black" points="506.19,-104.8 506.19,-135.6 682.54,-135.6 682.54,-104.8 506.19,-104.8"/>
<text text-anchor="start" x="513.19" y="-117" font-family="Arial" font-size="14.00">roles </text>
<text text-anchor="start" x="547.42" y="-117" font-family="Arial" font-size="14.00" fill="#666666">[uuid]</text>
<polygon fill="none" stroke="black" points="506.19,-74 506.19,-104.8 682.54,-104.8 682.54,-74 506.19,-74"/>
<text text-anchor="start" x="513.19" y="-86.2" font-family="Arial" font-size="14.00">createdAt </text>
<text text-anchor="start" x="577" y="-86.2" font-family="Arial" font-size="14.00" fill="#666666">[datetime]</text>
<polygon fill="none" stroke="black" points="506.19,-43.2 506.19,-74 682.54,-74 682.54,-43.2 506.19,-43.2"/>
<text text-anchor="start" x="513.19" y="-55.4" font-family="Arial" font-size="14.00">updatedAt </text>
<text text-anchor="start" x="580.91" y="-55.4" font-family="Arial" font-size="14.00" fill="#666666">[datetime]</text>
</g>
<!-- Engagement&#45;&gt;User -->
<g id="edge4" class="edge">
<title>Engagement:userId&#45;&gt;User:id</title>
<path fill="none" stroke="black" d="M721.94,-496.13C836.79,-480.93 806.87,-212.6 683.54,-212.6"/>
<polygon fill="black" stroke="black" points="721.84,-496.14 711.57,-492.29 716.52,-496.48 712.2,-496.76 712.2,-496.76 712.2,-496.76 716.52,-496.48 712.15,-501.27 721.84,-496.14"/>
<text text-anchor="start" x="718.53" y="-506.8" font-family="Arial" font-size="10.00">ForeignKeyType: User</text>
</g>
<!-- EngagementCompany -->
<g id="node2" class="node">
<title>EngagementCompany</title>
<polygon fill="#efefef" stroke="none" points="43.2,-981.2 43.2,-1016.8 345.53,-1016.8 345.53,-981.2 43.2,-981.2"/>
<polygon fill="none" stroke="black" points="43.2,-981.2 43.2,-1016.8 345.53,-1016.8 345.53,-981.2 43.2,-981.2"/>
<text text-anchor="start" x="50.2" y="-994.6" font-family="Arial Bold" font-size="18.00">EngagementCompany</text>
<text text-anchor="start" x="210.16" y="-994.6" font-family="Arial" font-size="14.00">    </text>
<text text-anchor="start" x="241.28" y="-994.6" font-family="Arial" font-size="14.00" fill="#666666">[TailorDB.Type]</text>
<polygon fill="none" stroke="black" points="43.2,-950.4 43.2,-981.2 345.53,-981.2 345.53,-950.4 43.2,-950.4"/>
<text text-anchor="start" x="50.2" y="-962.6" font-family="Arial" font-size="14.00">id </text>
<text text-anchor="start" x="64.99" y="-962.6" font-family="Arial" font-size="14.00" fill="#666666">[uuid]</text>
<polygon fill="none" stroke="black" points="43.2,-919.6 43.2,-950.4 345.53,-950.4 345.53,-919.6 43.2,-919.6"/>
<text text-anchor="start" x="50.2" y="-931.8" font-family="Arial" font-size="14.00">companyId </text>
<text text-anchor="start" x="122.57" y="-931.8" font-family="Arial" font-size="14.00" fill="#666666">[uuid]</text>
<polygon fill="none" stroke="black" points="43.2,-888.8 43.2,-919.6 345.53,-919.6 345.53,-888.8 43.2,-888.8"/>
<text text-anchor="start" x="50.2" y="-901" font-family="Arial" font-size="14.00">company </text>
<text text-anchor="start" x="110.9" y="-901" font-family="Arial" font-size="14.00" fill="#666666">[Company]</text>
<polygon fill="none" stroke="black" points="43.2,-858 43.2,-888.8 345.53,-888.8 345.53,-858 43.2,-858"/>
<text text-anchor="start" x="50.2" y="-870.2" font-family="Arial" font-size="14.00">engagementId </text>
<text text-anchor="start" x="143.61" y="-870.2" font-family="Arial" font-size="14.00" fill="#666666">[uuid]</text>
<polygon fill="none" stroke="black" points="43.2,-827.2 43.2,-858 345.53,-858 345.53,-827.2 43.2,-827.2"/>
<text text-anchor="start" x="50.2" y="-839.4" font-family="Arial" font-size="14.00">engagement </text>
<text text-anchor="start" x="131.93" y="-839.4" font-family="Arial" font-size="14.00" fill="#666666">[Engagement]</text>
<polygon fill="none" stroke="black" points="43.2,-796.4 43.2,-827.2 345.53,-827.2 345.53,-796.4 43.2,-796.4"/>
<text text-anchor="start" x="50.2" y="-808.6" font-family="Arial" font-size="14.00">createdAt </text>
<text text-anchor="start" x="114.01" y="-808.6" font-family="Arial" font-size="14.00" fill="#666666">[datetime]</text>
<polygon fill="none" stroke="black" points="43.2,-765.6 43.2,-796.4 345.53,-796.4 345.53,-765.6 43.2,-765.6"/>
<text text-anchor="start" x="50.2" y="-777.8" font-family="Arial" font-size="14.00">updatedAt </text>
<text text-anchor="start" x="117.92" y="-777.8" font-family="Arial" font-size="14.00" fill="#666666">[datetime]</text>
</g>
<!-- EngagementCompany&#45;&gt;Engagement -->
<g id="edge1" class="edge">
<title>EngagementCompany:engagementId&#45;&gt;Engagement:id</title>
<path fill="none" stroke="black" d="M356.78,-872.69C412.55,-864.33 370.19,-783.42 398.36,-722.4 427.2,-659.94 408.41,-589.2 477.2,-589.2"/>
<polygon fill="black" stroke="black" points="356.84,-872.69 346.55,-868.89 351.51,-873.06 347.19,-873.35 347.19,-873.35 347.19,-873.35 351.51,-873.06 347.17,-877.87 356.84,-872.69"/>
<text text-anchor="start" x="353.53" y="-883.4" font-family="Arial" font-size="10.00">ForeignKeyType: Engagement</text>
</g>
<!-- EngagementContact -->
<g id="node3" class="node">
<title>EngagementContact</title>
<polygon fill="#efefef" stroke="none" points="450.2,-981.2 450.2,-1016.8 738.52,-1016.8 738.52,-981.2 450.2,-981.2"/>
<polygon fill="none" stroke="black" points="450.2,-981.2 450.2,-1016.8 738.52,-1016.8 738.52,-981.2 450.2,-981.2"/>
<text text-anchor="start" x="457.2" y="-994.6" font-family="Arial Bold" font-size="18.00">EngagementContact</text>
<text text-anchor="start" x="603.16" y="-994.6" font-family="Arial" font-size="14.00">    </text>
<text text-anchor="start" x="634.27" y="-994.6" font-family="Arial" font-size="14.00" fill="#666666">[TailorDB.Type]</text>
<polygon fill="none" stroke="black" points="450.2,-950.4 450.2,-981.2 738.52,-981.2 738.52,-950.4 450.2,-950.4"/>
<text text-anchor="start" x="457.2" y="-962.6" font-family="Arial" font-size="14.00">id </text>
<text text-anchor="start" x="471.99" y="-962.6" font-family="Arial" font-size="14.00" fill="#666666">[uuid]</text>
<polygon fill="none" stroke="black" points="450.2,-919.6 450.2,-950.4 738.52,-950.4 738.52,-919.6 450.2,-919.6"/>
<text text-anchor="start" x="457.2" y="-931.8" font-family="Arial" font-size="14.00">contactId </text>
<text text-anchor="start" x="517.91" y="-931.8" font-family="Arial" font-size="14.00" fill="#666666">[uuid]</text>
<polygon fill="none" stroke="black" points="450.2,-888.8 450.2,-919.6 738.52,-919.6 738.52,-888.8 450.2,-888.8"/>
<text text-anchor="start" x="457.2" y="-901" font-family="Arial" font-size="14.00">contact </text>
<text text-anchor="start" x="506.23" y="-901" font-family="Arial" font-size="14.00" fill="#666666">[Contact]</text>
<polygon fill="none" stroke="black" points="450.2,-858 450.2,-888.8 738.52,-888.8 738.52,-858 450.2,-858"/>
<text text-anchor="start" x="457.2" y="-870.2" font-family="Arial" font-size="14.00">engagementId </text>
<text text-anchor="start" x="550.61" y="-870.2" font-family="Arial" font-size="14.00" fill="#666666">[uuid]</text>
<polygon fill="none" stroke="black" points="450.2,-827.2 450.2,-858 738.52,-858 738.52,-827.2 450.2,-827.2"/>
<text text-anchor="start" x="457.2" y="-839.4" font-family="Arial" font-size="14.00">engagement </text>
<text text-anchor="start" x="538.94" y="-839.4" font-family="Arial" font-size="14.00" fill="#666666">[Engagement]</text>
<polygon fill="none" stroke="black" points="450.2,-796.4 450.2,-827.2 738.52,-827.2 738.52,-796.4 450.2,-796.4"/>
<text text-anchor="start" x="457.2" y="-808.6" font-family="Arial" font-size="14.00">createdAt </text>
<text text-anchor="start" x="521.02" y="-808.6" font-family="Arial" font-size="14.00" fill="#666666">[datetime]</text>
<polygon fill="none" stroke="black" points="450.2,-765.6 450.2,-796.4 738.52,-796.4 738.52,-765.6 450.2,-765.6"/>
<text text-anchor="start" x="457.2" y="-777.8" font-family="Arial" font-size="14.00">updatedAt </text>
<text text-anchor="start" x="524.93" y="-777.8" font-family="Arial" font-size="14.00" fill="#666666">[datetime]</text>
</g>
<!-- EngagementContact&#45;&gt;Engagement -->
<g id="edge2" class="edge">
<title>EngagementContact:engagementId&#45;&gt;Engagement:id</title>
<path fill="none" stroke="black" d="M749.43,-870.77C799.7,-842.12 771.39,-589.2 711.53,-589.2"/>
<polygon fill="black" stroke="black" points="749.51,-870.75 738.69,-868.96 744.35,-872.12 740.17,-873.23 740.17,-873.23 740.17,-873.23 744.35,-872.12 741,-877.66 749.51,-870.75"/>
<text text-anchor="start" x="746.52" y="-883.4" font-family="Arial" font-size="10.00">ForeignKeyType: Engagement</text>
</g>
<!-- EngagementDeal -->
<g id="node4" class="node">
<title>EngagementDeal</title>
<polygon fill="#efefef" stroke="none" points="843.21,-981.2 843.21,-1016.8 1109.52,-1016.8 1109.52,-981.2 843.21,-981.2"/>
<polygon fill="none" stroke="black" points="843.21,-981.2 843.21,-1016.8 1109.52,-1016.8 1109.52,-981.2 843.21,-981.2"/>
<text text-anchor="start" x="850.21" y="-994.6" font-family="Arial Bold" font-size="18.00">EngagementDeal</text>
<text text-anchor="start" x="974.15" y="-994.6" font-family="Arial" font-size="14.00">    </text>
<text text-anchor="start" x="1005.27" y="-994.6" font-family="Arial" font-size="14.00" fill="#666666">[TailorDB.Type]</text>
<polygon fill="none" stroke="black" points="843.21,-950.4 843.21,-981.2 1109.52,-981.2 1109.52,-950.4 843.21,-950.4"/>
<text text-anchor="start" x="850.21" y="-962.6" font-family="Arial" font-size="14.00">id </text>
<text text-anchor="start" x="864.99" y="-962.6" font-family="Arial" font-size="14.00" fill="#666666">[uuid]</text>
<polygon fill="none" stroke="black" points="843.21,-919.6 843.21,-950.4 1109.52,-950.4 1109.52,-919.6 843.21,-919.6"/>
<text text-anchor="start" x="850.21" y="-931.8" font-family="Arial" font-size="14.00">updatedAt </text>
<text text-anchor="start" x="917.93" y="-931.8" font-family="Arial" font-size="14.00" fill="#666666">[datetime]</text>
<polygon fill="none" stroke="black" points="843.21,-888.8 843.21,-919.6 1109.52,-919.6 1109.52,-888.8 843.21,-888.8"/>
<text text-anchor="start" x="850.21" y="-901" font-family="Arial" font-size="14.00">dealId </text>
<text text-anchor="start" x="892.24" y="-901" font-family="Arial" font-size="14.00" fill="#666666">[uuid]</text>
<polygon fill="none" stroke="black" points="843.21,-858 843.21,-888.8 1109.52,-888.8 1109.52,-858 843.21,-858"/>
<text text-anchor="start" x="850.21" y="-870.2" font-family="Arial" font-size="14.00">deal </text>
<text text-anchor="start" x="880.57" y="-870.2" font-family="Arial" font-size="14.00" fill="#666666">[Deal]</text>
<polygon fill="none" stroke="black" points="843.21,-827.2 843.21,-858 1109.52,-858 1109.52,-827.2 843.21,-827.2"/>
<text text-anchor="start" x="850.21" y="-839.4" font-family="Arial" font-size="14.00">engagementId </text>
<text text-anchor="start" x="943.62" y="-839.4" font-family="Arial" font-size="14.00" fill="#666666">[uuid]</text>
<polygon fill="none" stroke="black" points="843.21,-796.4 843.21,-827.2 1109.52,-827.2 1109.52,-796.4 843.21,-796.4"/>
<text text-anchor="start" x="850.21" y="-808.6" font-family="Arial" font-size="14.00">engagement </text>
<text text-anchor="start" x="931.94" y="-808.6" font-family="Arial" font-size="14.00" fill="#666666">[Engagement]</text>
<polygon fill="none" stroke="black" points="843.21,-765.6 843.21,-796.4 1109.52,-796.4 1109.52,-765.6 843.21,-765.6"/>
<text text-anchor="start" x="850.21" y="-777.8" font-family="Arial" font-size="14.00">createdAt </text>
<text text-anchor="start" x="914.02" y="-777.8" font-family="Arial" font-size="14.00" fill="#666666">[datetime]</text>
</g>
<!-- EngagementDeal&#45;&gt;Engagement -->
<g id="edge3" class="edge">
<title>EngagementDeal:engagementId&#45;&gt;Engagement:id</title>
<path fill="none" stroke="black" d="M832.05,-841.77C788,-833.86 815.05,-770.91 790.36,-722.4 759.16,-661.09 780.32,-589.2 711.53,-589.2"/>
<polygon fill="black" stroke="black" points="831.91,-841.76 841.51,-847.06 837.23,-842.19 841.54,-842.55 841.54,-842.55 841.54,-842.55 837.23,-842.19 842.24,-838.09 831.91,-841.76"/>
<text text-anchor="start" x="849.21" y="-852.6" font-family="Arial" font-size="10.00">ForeignKeyType: Engagement</text>
</g>
</g>
</svg>
