<?xml version="1.0" encoding="UTF-8" standalone="no"?>
<!DOCTYPE svg PUBLIC "-//W3C//DTD SVG 1.1//EN"
 "http://www.w3.org/Graphics/SVG/1.1/DTD/svg11.dtd">
<!-- Generated by graphviz version 12.1.2 (20240928.0832)
 -->
<!-- Title: FinancialStockEvent Pages: 1 -->
<svg width="1510pt" height="1618pt"
 viewBox="0.00 0.00 1510.22 1618.40" xmlns="http://www.w3.org/2000/svg" xmlns:xlink="http://www.w3.org/1999/xlink">
<g id="graph0" class="graph" transform="scale(1 1) rotate(0) translate(4 1614.4)">
<title>FinancialStockEvent</title>
<polygon fill="white" stroke="none" points="-4,4 -4,-1614.4 1506.22,-1614.4 1506.22,4 -4,4"/>
<!-- FinancialStockEvent -->
<g id="node1" class="node">
<title>FinancialStockEvent</title>
<polygon fill="#efefef" stroke="none" points="582.89,-1528.6 582.89,-1564.2 891.84,-1564.2 891.84,-1528.6 582.89,-1528.6"/>
<polygon fill="none" stroke="black" points="582.89,-1528.6 582.89,-1564.2 891.84,-1564.2 891.84,-1528.6 582.89,-1528.6"/>
<text text-anchor="start" x="598.2" y="-1542" font-family="Arial Bold" font-size="18.00">FinancialStockEvent</text>
<text text-anchor="start" x="748.17" y="-1542" font-family="Arial" font-size="14.00">    </text>
<text text-anchor="start" x="779.29" y="-1542" font-family="Arial" font-size="14.00" fill="#666666">[TailorDB.Type]</text>
<polygon fill="none" stroke="black" points="582.89,-1497.8 582.89,-1528.6 891.84,-1528.6 891.84,-1497.8 582.89,-1497.8"/>
<text text-anchor="start" x="589.89" y="-1510" font-family="Arial" font-size="14.00">id </text>
<text text-anchor="start" x="604.68" y="-1510" font-family="Arial" font-size="14.00" fill="#666666">[uuid]</text>
<polygon fill="none" stroke="black" points="582.89,-1467 582.89,-1497.8 891.84,-1497.8 891.84,-1467 582.89,-1467"/>
<text text-anchor="start" x="589.89" y="-1479.2" font-family="Arial" font-size="14.00">transactionTotalCost </text>
<text text-anchor="start" x="722.17" y="-1479.2" font-family="Arial" font-size="14.00" fill="#666666">[float]</text>
<polygon fill="none" stroke="black" points="582.89,-1436.2 582.89,-1467 891.84,-1467 891.84,-1436.2 582.89,-1436.2"/>
<text text-anchor="start" x="589.89" y="-1448.4" font-family="Arial" font-size="14.00">onHoldQuantity </text>
<text text-anchor="start" x="690.28" y="-1448.4" font-family="Arial" font-size="14.00" fill="#666666">[float]</text>
<polygon fill="none" stroke="black" points="582.89,-1405.4 582.89,-1436.2 891.84,-1436.2 891.84,-1405.4 582.89,-1405.4"/>
<text text-anchor="start" x="589.89" y="-1417.6" font-family="Arial" font-size="14.00">inStockQuantity </text>
<text text-anchor="start" x="691.83" y="-1417.6" font-family="Arial" font-size="14.00" fill="#666666">[float]</text>
<polygon fill="none" stroke="black" points="582.89,-1374.6 582.89,-1405.4 891.84,-1405.4 891.84,-1374.6 582.89,-1374.6"/>
<text text-anchor="start" x="589.89" y="-1386.8" font-family="Arial" font-size="14.00">totalCost </text>
<text text-anchor="start" x="649.03" y="-1386.8" font-family="Arial" font-size="14.00" fill="#666666">[float]</text>
<polygon fill="none" stroke="black" points="582.89,-1343.8 582.89,-1374.6 891.84,-1374.6 891.84,-1343.8 582.89,-1343.8"/>
<text text-anchor="start" x="589.89" y="-1356" font-family="Arial" font-size="14.00">averageCost </text>
<text text-anchor="start" x="673.16" y="-1356" font-family="Arial" font-size="14.00" fill="#666666">[float]</text>
<polygon fill="none" stroke="black" points="582.89,-1313 582.89,-1343.8 891.84,-1343.8 891.84,-1313 582.89,-1313"/>
<text text-anchor="start" x="589.89" y="-1325.2" font-family="Arial" font-size="14.00">active </text>
<text text-anchor="start" x="630.35" y="-1325.2" font-family="Arial" font-size="14.00" fill="#666666">[boolean]</text>
<polygon fill="none" stroke="black" points="582.89,-1282.2 582.89,-1313 891.84,-1313 891.84,-1282.2 582.89,-1282.2"/>
<text text-anchor="start" x="589.89" y="-1294.4" font-family="Arial" font-size="14.00">variant </text>
<text text-anchor="start" x="635.8" y="-1294.4" font-family="Arial" font-size="14.00" fill="#666666">[ProductVariant]</text>
<polygon fill="none" stroke="black" points="582.89,-1251.4 582.89,-1282.2 891.84,-1282.2 891.84,-1251.4 582.89,-1251.4"/>
<text text-anchor="start" x="589.89" y="-1263.6" font-family="Arial" font-size="14.00">shipmentLineItem </text>
<text text-anchor="start" x="704.28" y="-1263.6" font-family="Arial" font-size="14.00" fill="#666666">[ShipmentLineItem]</text>
<polygon fill="none" stroke="black" points="582.89,-1220.6 582.89,-1251.4 891.84,-1251.4 891.84,-1220.6 582.89,-1220.6"/>
<text text-anchor="start" x="589.89" y="-1232.8" font-family="Arial" font-size="14.00">operationalStockEventID </text>
<text text-anchor="start" x="747.87" y="-1232.8" font-family="Arial" font-size="14.00" fill="#666666">[uuid]</text>
<polygon fill="none" stroke="black" points="582.89,-1189.8 582.89,-1220.6 891.84,-1220.6 891.84,-1189.8 582.89,-1189.8"/>
<text text-anchor="start" x="589.89" y="-1202" font-family="Arial" font-size="14.00">operationalStockEvent </text>
<text text-anchor="start" x="733.87" y="-1202" font-family="Arial" font-size="14.00" fill="#666666">[OperationalStockEvent]</text>
<polygon fill="none" stroke="black" points="582.89,-1159 582.89,-1189.8 891.84,-1189.8 891.84,-1159 582.89,-1159"/>
<text text-anchor="start" x="589.89" y="-1171.2" font-family="Arial" font-size="14.00">createdAt </text>
<text text-anchor="start" x="653.71" y="-1171.2" font-family="Arial" font-size="14.00" fill="#666666">[datetime]</text>
<polygon fill="none" stroke="black" points="582.89,-1128.2 582.89,-1159 891.84,-1159 891.84,-1128.2 582.89,-1128.2"/>
<text text-anchor="start" x="589.89" y="-1140.4" font-family="Arial" font-size="14.00">incrementalQuantity </text>
<text text-anchor="start" x="718.28" y="-1140.4" font-family="Arial" font-size="14.00" fill="#666666">[float]</text>
<polygon fill="none" stroke="black" points="582.89,-1097.4 582.89,-1128.2 891.84,-1128.2 891.84,-1097.4 582.89,-1097.4"/>
<text text-anchor="start" x="589.89" y="-1109.6" font-family="Arial" font-size="14.00">receiptLineItem </text>
<text text-anchor="start" x="689.5" y="-1109.6" font-family="Arial" font-size="14.00" fill="#666666">[ReceiptLineItem]</text>
<polygon fill="none" stroke="black" points="582.89,-1066.6 582.89,-1097.4 891.84,-1097.4 891.84,-1066.6 582.89,-1066.6"/>
<text text-anchor="start" x="589.89" y="-1078.8" font-family="Arial" font-size="14.00">shipmentLineItemID </text>
<text text-anchor="start" x="718.28" y="-1078.8" font-family="Arial" font-size="14.00" fill="#666666">[uuid]</text>
<polygon fill="none" stroke="black" points="582.89,-1035.8 582.89,-1066.6 891.84,-1066.6 891.84,-1035.8 582.89,-1035.8"/>
<text text-anchor="start" x="589.89" y="-1048" font-family="Arial" font-size="14.00">variantID </text>
<text text-anchor="start" x="649.8" y="-1048" font-family="Arial" font-size="14.00" fill="#666666">[uuid]</text>
<polygon fill="none" stroke="black" points="582.89,-1005 582.89,-1035.8 891.84,-1035.8 891.84,-1005 582.89,-1005"/>
<text text-anchor="start" x="589.89" y="-1017.2" font-family="Arial" font-size="14.00">isOnHold </text>
<text text-anchor="start" x="651.36" y="-1017.2" font-family="Arial" font-size="14.00" fill="#666666">[boolean]</text>
<polygon fill="none" stroke="black" points="582.89,-974.2 582.89,-1005 891.84,-1005 891.84,-974.2 582.89,-974.2"/>
<text text-anchor="start" x="589.89" y="-986.4" font-family="Arial" font-size="14.00">availableQuantity </text>
<text text-anchor="start" x="701.18" y="-986.4" font-family="Arial" font-size="14.00" fill="#666666">[float]</text>
<polygon fill="none" stroke="black" points="582.89,-943.4 582.89,-974.2 891.84,-974.2 891.84,-943.4 582.89,-943.4"/>
<text text-anchor="start" x="589.89" y="-955.6" font-family="Arial" font-size="14.00">receiptLineItemID </text>
<text text-anchor="start" x="703.5" y="-955.6" font-family="Arial" font-size="14.00" fill="#666666">[uuid]</text>
<polygon fill="none" stroke="black" points="582.89,-912.6 582.89,-943.4 891.84,-943.4 891.84,-912.6 582.89,-912.6"/>
<text text-anchor="start" x="589.89" y="-924.8" font-family="Arial" font-size="14.00">updatedAt </text>
<text text-anchor="start" x="657.62" y="-924.8" font-family="Arial" font-size="14.00" fill="#666666">[datetime]</text>
<polygon fill="none" stroke="black" points="582.89,-881.8 582.89,-912.6 891.84,-912.6 891.84,-881.8 582.89,-881.8"/>
<text text-anchor="start" x="589.89" y="-894" font-family="Arial" font-size="14.00">unitCost </text>
<text text-anchor="start" x="645.14" y="-894" font-family="Arial" font-size="14.00" fill="#666666">[float]</text>
<polygon fill="none" stroke="black" stroke-width="3" points="581.39,-880.3 581.39,-1565.7 893.34,-1565.7 893.34,-880.3 581.39,-880.3"/>
</g>
<!-- ProductVariant -->
<g id="node2" class="node">
<title>ProductVariant</title>
<polygon fill="#efefef" stroke="none" points="43.2,-720.8 43.2,-756.4 295.53,-756.4 295.53,-720.8 43.2,-720.8"/>
<polygon fill="none" stroke="black" points="43.2,-720.8 43.2,-756.4 295.53,-756.4 295.53,-720.8 43.2,-720.8"/>
<text text-anchor="start" x="50.2" y="-734.2" font-family="Arial Bold" font-size="18.00">ProductVariant</text>
<text text-anchor="start" x="160.17" y="-734.2" font-family="Arial" font-size="14.00">    </text>
<text text-anchor="start" x="191.29" y="-734.2" font-family="Arial" font-size="14.00" fill="#666666">[TailorDB.Type]</text>
<polygon fill="none" stroke="black" points="43.2,-690 43.2,-720.8 295.53,-720.8 295.53,-690 43.2,-690"/>
<text text-anchor="start" x="50.2" y="-702.2" font-family="Arial" font-size="14.00">id </text>
<text text-anchor="start" x="64.99" y="-702.2" font-family="Arial" font-size="14.00" fill="#666666">[uuid]</text>
<polygon fill="none" stroke="black" points="43.2,-659.2 43.2,-690 295.53,-690 295.53,-659.2 43.2,-659.2"/>
<text text-anchor="start" x="50.2" y="-671.4" font-family="Arial" font-size="14.00">shopifyID </text>
<text text-anchor="start" x="112.45" y="-671.4" font-family="Arial" font-size="14.00" fill="#666666">[string]</text>
<polygon fill="none" stroke="black" points="43.2,-628.4 43.2,-659.2 295.53,-659.2 295.53,-628.4 43.2,-628.4"/>
<text text-anchor="start" x="50.2" y="-640.6" font-family="Arial" font-size="14.00">availableForSale </text>
<text text-anchor="start" x="158.37" y="-640.6" font-family="Arial" font-size="14.00" fill="#666666">[boolean]</text>
<polygon fill="none" stroke="black" points="43.2,-597.6 43.2,-628.4 295.53,-628.4 295.53,-597.6 43.2,-597.6"/>
<text text-anchor="start" x="50.2" y="-609.8" font-family="Arial" font-size="14.00">barcode </text>
<text text-anchor="start" x="104.68" y="-609.8" font-family="Arial" font-size="14.00" fill="#666666">[string]</text>
<polygon fill="none" stroke="black" points="43.2,-566.8 43.2,-597.6 295.53,-597.6 295.53,-566.8 43.2,-566.8"/>
<text text-anchor="start" x="50.2" y="-579" font-family="Arial" font-size="14.00">inventoryQuantity </text>
<text text-anchor="start" x="163.03" y="-579" font-family="Arial" font-size="14.00" fill="#666666">[integer]</text>
<polygon fill="none" stroke="black" points="43.2,-536 43.2,-566.8 295.53,-566.8 295.53,-536 43.2,-536"/>
<text text-anchor="start" x="50.2" y="-548.2" font-family="Arial" font-size="14.00">product </text>
<text text-anchor="start" x="100.79" y="-548.2" font-family="Arial" font-size="14.00" fill="#666666">[Product]</text>
<polygon fill="none" stroke="black" points="43.2,-505.2 43.2,-536 295.53,-536 295.53,-505.2 43.2,-505.2"/>
<text text-anchor="start" x="50.2" y="-517.4" font-family="Arial" font-size="14.00">quickbookItemName </text>
<text text-anchor="start" x="181.7" y="-517.4" font-family="Arial" font-size="14.00" fill="#666666">[string]</text>
<polygon fill="none" stroke="black" points="43.2,-474.4 43.2,-505.2 295.53,-505.2 295.53,-474.4 43.2,-474.4"/>
<text text-anchor="start" x="50.2" y="-486.6" font-family="Arial" font-size="14.00">price </text>
<text text-anchor="start" x="84.43" y="-486.6" font-family="Arial" font-size="14.00" fill="#666666">[float]</text>
<polygon fill="none" stroke="black" points="43.2,-443.6 43.2,-474.4 295.53,-474.4 295.53,-443.6 43.2,-443.6"/>
<text text-anchor="start" x="50.2" y="-455.8" font-family="Arial" font-size="14.00">productID </text>
<text text-anchor="start" x="114.79" y="-455.8" font-family="Arial" font-size="14.00" fill="#666666">[uuid]</text>
<polygon fill="none" stroke="black" points="43.2,-412.8 43.2,-443.6 295.53,-443.6 295.53,-412.8 43.2,-412.8"/>
<text text-anchor="start" x="50.2" y="-425" font-family="Arial" font-size="14.00">quickbookSyncToken </text>
<text text-anchor="start" x="187.16" y="-425" font-family="Arial" font-size="14.00" fill="#666666">[string]</text>
<polygon fill="none" stroke="black" points="43.2,-382 43.2,-412.8 295.53,-412.8 295.53,-382 43.2,-382"/>
<text text-anchor="start" x="50.2" y="-394.2" font-family="Arial" font-size="14.00">active </text>
<text text-anchor="start" x="90.66" y="-394.2" font-family="Arial" font-size="14.00" fill="#666666">[boolean]</text>
<polygon fill="none" stroke="black" points="43.2,-351.2 43.2,-382 295.53,-382 295.53,-351.2 43.2,-351.2"/>
<text text-anchor="start" x="50.2" y="-363.4" font-family="Arial" font-size="14.00">createdAt </text>
<text text-anchor="start" x="114.01" y="-363.4" font-family="Arial" font-size="14.00" fill="#666666">[datetime]</text>
<polygon fill="none" stroke="black" points="43.2,-320.4 43.2,-351.2 295.53,-351.2 295.53,-320.4 43.2,-320.4"/>
<text text-anchor="start" x="50.2" y="-332.6" font-family="Arial" font-size="14.00">displayName </text>
<text text-anchor="start" x="135.01" y="-332.6" font-family="Arial" font-size="14.00" fill="#666666">[string]</text>
<polygon fill="none" stroke="black" points="43.2,-289.6 43.2,-320.4 295.53,-320.4 295.53,-289.6 43.2,-289.6"/>
<text text-anchor="start" x="50.2" y="-301.8" font-family="Arial" font-size="14.00">image </text>
<text text-anchor="start" x="92.22" y="-301.8" font-family="Arial" font-size="14.00" fill="#666666">[ProductImage]</text>
<polygon fill="none" stroke="black" points="43.2,-258.8 43.2,-289.6 295.53,-289.6 295.53,-258.8 43.2,-258.8"/>
<text text-anchor="start" x="50.2" y="-271" font-family="Arial" font-size="14.00">inventoryItemID </text>
<text text-anchor="start" x="152.12" y="-271" font-family="Arial" font-size="14.00" fill="#666666">[uuid]</text>
<polygon fill="none" stroke="black" points="43.2,-228 43.2,-258.8 295.53,-258.8 295.53,-228 43.2,-228"/>
<text text-anchor="start" x="50.2" y="-240.2" font-family="Arial" font-size="14.00">inventoryItem </text>
<text text-anchor="start" x="138.12" y="-240.2" font-family="Arial" font-size="14.00" fill="#666666">[InventoryItem]</text>
<polygon fill="none" stroke="black" points="43.2,-197.2 43.2,-228 295.53,-228 295.53,-197.2 43.2,-197.2"/>
<text text-anchor="start" x="50.2" y="-209.4" font-family="Arial" font-size="14.00">sku </text>
<text text-anchor="start" x="75.88" y="-209.4" font-family="Arial" font-size="14.00" fill="#666666">[string]</text>
<polygon fill="none" stroke="black" points="43.2,-166.4 43.2,-197.2 295.53,-197.2 295.53,-166.4 43.2,-166.4"/>
<text text-anchor="start" x="50.2" y="-178.6" font-family="Arial" font-size="14.00">imageID </text>
<text text-anchor="start" x="106.22" y="-178.6" font-family="Arial" font-size="14.00" fill="#666666">[uuid]</text>
<polygon fill="none" stroke="black" points="43.2,-135.6 43.2,-166.4 295.53,-166.4 295.53,-135.6 43.2,-135.6"/>
<text text-anchor="start" x="50.2" y="-147.8" font-family="Arial" font-size="14.00">taxable </text>
<text text-anchor="start" x="99.23" y="-147.8" font-family="Arial" font-size="14.00" fill="#666666">[boolean]</text>
<polygon fill="none" stroke="black" points="43.2,-104.8 43.2,-135.6 295.53,-135.6 295.53,-104.8 43.2,-104.8"/>
<text text-anchor="start" x="50.2" y="-117" font-family="Arial" font-size="14.00">inventoryType </text>
<text text-anchor="start" x="142.02" y="-117" font-family="Arial" font-size="14.00" fill="#666666">[enum]</text>
<polygon fill="none" stroke="black" points="43.2,-74 43.2,-104.8 295.53,-104.8 295.53,-74 43.2,-74"/>
<text text-anchor="start" x="50.2" y="-86.2" font-family="Arial" font-size="14.00">quickbookItemId </text>
<text text-anchor="start" x="156.03" y="-86.2" font-family="Arial" font-size="14.00" fill="#666666">[string]</text>
<polygon fill="none" stroke="black" points="43.2,-43.2 43.2,-74 295.53,-74 295.53,-43.2 43.2,-43.2"/>
<text text-anchor="start" x="50.2" y="-55.4" font-family="Arial" font-size="14.00">updatedAt </text>
<text text-anchor="start" x="117.92" y="-55.4" font-family="Arial" font-size="14.00" fill="#666666">[datetime]</text>
</g>
<!-- FinancialStockEvent&#45;&gt;ProductVariant -->
<g id="edge1" class="edge">
<title>FinancialStockEvent:variantID&#45;&gt;ProductVariant:id</title>
<path fill="none" stroke="black" d="M571.83,-1051.01C429.31,-1045.48 434.51,-921 347.37,-799.6 319.63,-760.95 344.11,-705.4 296.53,-705.4"/>
<polygon fill="black" stroke="black" points="571.56,-1051 581.47,-1055.69 576.89,-1051.1 581.22,-1051.19 581.22,-1051.19 581.22,-1051.19 576.89,-1051.1 581.64,-1046.69 571.56,-1051"/>
<text text-anchor="start" x="471.5" y="-1061.2" font-family="Arial" font-size="10.00">Source: ProductVariant</text>
</g>
<!-- ShipmentLineItem -->
<g id="node3" class="node">
<title>ShipmentLineItem</title>
<polygon fill="#efefef" stroke="none" points="399.7,-597.6 399.7,-633.2 677.04,-633.2 677.04,-597.6 399.7,-597.6"/>
<polygon fill="none" stroke="black" points="399.7,-597.6 399.7,-633.2 677.04,-633.2 677.04,-597.6 399.7,-597.6"/>
<text text-anchor="start" x="406.7" y="-611" font-family="Arial Bold" font-size="18.00">ShipmentLineItem</text>
<text text-anchor="start" x="541.67" y="-611" font-family="Arial" font-size="14.00">    </text>
<text text-anchor="start" x="572.79" y="-611" font-family="Arial" font-size="14.00" fill="#666666">[TailorDB.Type]</text>
<polygon fill="none" stroke="black" points="399.7,-566.8 399.7,-597.6 677.04,-597.6 677.04,-566.8 399.7,-566.8"/>
<text text-anchor="start" x="406.7" y="-579" font-family="Arial" font-size="14.00">id </text>
<text text-anchor="start" x="421.48" y="-579" font-family="Arial" font-size="14.00" fill="#666666">[uuid]</text>
<polygon fill="none" stroke="black" points="399.7,-536 399.7,-566.8 677.04,-566.8 677.04,-536 399.7,-536"/>
<text text-anchor="start" x="406.7" y="-548.2" font-family="Arial" font-size="14.00">variantID </text>
<text text-anchor="start" x="466.61" y="-548.2" font-family="Arial" font-size="14.00" fill="#666666">[uuid]</text>
<polygon fill="none" stroke="black" points="399.7,-505.2 399.7,-536 677.04,-536 677.04,-505.2 399.7,-505.2"/>
<text text-anchor="start" x="406.7" y="-517.4" font-family="Arial" font-size="14.00">variant </text>
<text text-anchor="start" x="452.61" y="-517.4" font-family="Arial" font-size="14.00" fill="#666666">[ProductVariant]</text>
<polygon fill="none" stroke="black" points="399.7,-474.4 399.7,-505.2 677.04,-505.2 677.04,-474.4 399.7,-474.4"/>
<text text-anchor="start" x="406.7" y="-486.6" font-family="Arial" font-size="14.00">quantity </text>
<text text-anchor="start" x="459.62" y="-486.6" font-family="Arial" font-size="14.00" fill="#666666">[float]</text>
<polygon fill="none" stroke="black" points="399.7,-443.6 399.7,-474.4 677.04,-474.4 677.04,-443.6 399.7,-443.6"/>
<text text-anchor="start" x="406.7" y="-455.8" font-family="Arial" font-size="14.00">shipmentStatus </text>
<text text-anchor="start" x="507.08" y="-455.8" font-family="Arial" font-size="14.00" fill="#666666">[enum]</text>
<polygon fill="none" stroke="black" points="399.7,-412.8 399.7,-443.6 677.04,-443.6 677.04,-412.8 399.7,-412.8"/>
<text text-anchor="start" x="406.7" y="-425" font-family="Arial" font-size="14.00">createdAt </text>
<text text-anchor="start" x="470.51" y="-425" font-family="Arial" font-size="14.00" fill="#666666">[datetime]</text>
<polygon fill="none" stroke="black" points="399.7,-382 399.7,-412.8 677.04,-412.8 677.04,-382 399.7,-382"/>
<text text-anchor="start" x="406.7" y="-394.2" font-family="Arial" font-size="14.00">unitCost </text>
<text text-anchor="start" x="461.95" y="-394.2" font-family="Arial" font-size="14.00" fill="#666666">[float]</text>
<polygon fill="none" stroke="black" points="399.7,-351.2 399.7,-382 677.04,-382 677.04,-351.2 399.7,-351.2"/>
<text text-anchor="start" x="406.7" y="-363.4" font-family="Arial" font-size="14.00">unitPrice </text>
<text text-anchor="start" x="465.06" y="-363.4" font-family="Arial" font-size="14.00" fill="#666666">[float]</text>
<polygon fill="none" stroke="black" points="399.7,-320.4 399.7,-351.2 677.04,-351.2 677.04,-320.4 399.7,-320.4"/>
<text text-anchor="start" x="406.7" y="-332.6" font-family="Arial" font-size="14.00">updatedAt </text>
<text text-anchor="start" x="474.42" y="-332.6" font-family="Arial" font-size="14.00" fill="#666666">[datetime]</text>
<polygon fill="none" stroke="black" points="399.7,-289.6 399.7,-320.4 677.04,-320.4 677.04,-289.6 399.7,-289.6"/>
<text text-anchor="start" x="406.7" y="-301.8" font-family="Arial" font-size="14.00">shippedAt </text>
<text text-anchor="start" x="472.86" y="-301.8" font-family="Arial" font-size="14.00" fill="#666666">[datetime]</text>
<polygon fill="none" stroke="black" points="399.7,-258.8 399.7,-289.6 677.04,-289.6 677.04,-258.8 399.7,-258.8"/>
<text text-anchor="start" x="406.7" y="-271" font-family="Arial" font-size="14.00">active </text>
<text text-anchor="start" x="447.16" y="-271" font-family="Arial" font-size="14.00" fill="#666666">[boolean]</text>
<polygon fill="none" stroke="black" points="399.7,-228 399.7,-258.8 677.04,-258.8 677.04,-228 399.7,-228"/>
<text text-anchor="start" x="406.7" y="-240.2" font-family="Arial" font-size="14.00">shipmentID </text>
<text text-anchor="start" x="481.39" y="-240.2" font-family="Arial" font-size="14.00" fill="#666666">[uuid]</text>
<polygon fill="none" stroke="black" points="399.7,-197.2 399.7,-228 677.04,-228 677.04,-197.2 399.7,-197.2"/>
<text text-anchor="start" x="406.7" y="-209.4" font-family="Arial" font-size="14.00">shipment </text>
<text text-anchor="start" x="467.39" y="-209.4" font-family="Arial" font-size="14.00" fill="#666666">[Shipment]</text>
<polygon fill="none" stroke="black" points="399.7,-166.4 399.7,-197.2 677.04,-197.2 677.04,-166.4 399.7,-166.4"/>
<text text-anchor="start" x="406.7" y="-178.6" font-family="Arial" font-size="14.00">taxable </text>
<text text-anchor="start" x="455.73" y="-178.6" font-family="Arial" font-size="14.00" fill="#666666">[boolean]</text>
</g>
<!-- FinancialStockEvent&#45;&gt;ShipmentLineItem -->
<g id="edge2" class="edge">
<title>FinancialStockEvent:shipmentLineItemID&#45;&gt;ShipmentLineItem:id</title>
<path fill="none" stroke="black" d="M571.69,-1081.74C351.15,-1070.26 676.55,-678.15 677.04,-676.4 688.3,-636.07 719.91,-582.2 678.04,-582.2"/>
<polygon fill="black" stroke="black" points="571.56,-1081.74 581.44,-1086.49 576.89,-1081.87 581.22,-1081.98 581.22,-1081.98 581.22,-1081.98 576.89,-1081.87 581.67,-1077.49 571.56,-1081.74"/>
<text text-anchor="start" x="415.37" y="-1092" font-family="Arial" font-size="10.00">ForeignKeyType: ShipmentLineItem</text>
</g>
<!-- OperationalStockEvent -->
<g id="node4" class="node">
<title>OperationalStockEvent</title>
<polygon fill="#efefef" stroke="none" points="781.21,-705.4 781.21,-741 1091.52,-741 1091.52,-705.4 781.21,-705.4"/>
<polygon fill="none" stroke="black" points="781.21,-705.4 781.21,-741 1091.52,-741 1091.52,-705.4 781.21,-705.4"/>
<text text-anchor="start" x="788.21" y="-718.8" font-family="Arial Bold" font-size="18.00">OperationalStockEvent</text>
<text text-anchor="start" x="956.16" y="-718.8" font-family="Arial" font-size="14.00">    </text>
<text text-anchor="start" x="987.28" y="-718.8" font-family="Arial" font-size="14.00" fill="#666666">[TailorDB.Type]</text>
<polygon fill="none" stroke="black" points="781.21,-674.6 781.21,-705.4 1091.52,-705.4 1091.52,-674.6 781.21,-674.6"/>
<text text-anchor="start" x="788.21" y="-686.8" font-family="Arial" font-size="14.00">id </text>
<text text-anchor="start" x="803" y="-686.8" font-family="Arial" font-size="14.00" fill="#666666">[uuid]</text>
<polygon fill="none" stroke="black" points="781.21,-643.8 781.21,-674.6 1091.52,-674.6 1091.52,-643.8 781.21,-643.8"/>
<text text-anchor="start" x="788.21" y="-656" font-family="Arial" font-size="14.00">variant </text>
<text text-anchor="start" x="834.12" y="-656" font-family="Arial" font-size="14.00" fill="#666666">[ProductVariant]</text>
<polygon fill="none" stroke="black" points="781.21,-613 781.21,-643.8 1091.52,-643.8 1091.52,-613 781.21,-613"/>
<text text-anchor="start" x="788.21" y="-625.2" font-family="Arial" font-size="14.00">transactionTotalCost </text>
<text text-anchor="start" x="920.49" y="-625.2" font-family="Arial" font-size="14.00" fill="#666666">[float]</text>
<polygon fill="none" stroke="black" points="781.21,-582.2 781.21,-613 1091.52,-613 1091.52,-582.2 781.21,-582.2"/>
<text text-anchor="start" x="788.21" y="-594.4" font-family="Arial" font-size="14.00">onHoldQuantity </text>
<text text-anchor="start" x="888.6" y="-594.4" font-family="Arial" font-size="14.00" fill="#666666">[float]</text>
<polygon fill="none" stroke="black" points="781.21,-551.4 781.21,-582.2 1091.52,-582.2 1091.52,-551.4 781.21,-551.4"/>
<text text-anchor="start" x="788.21" y="-563.6" font-family="Arial" font-size="14.00">averageCost </text>
<text text-anchor="start" x="871.48" y="-563.6" font-family="Arial" font-size="14.00" fill="#666666">[float]</text>
<polygon fill="none" stroke="black" points="781.21,-520.6 781.21,-551.4 1091.52,-551.4 1091.52,-520.6 781.21,-520.6"/>
<text text-anchor="start" x="788.21" y="-532.8" font-family="Arial" font-size="14.00">active </text>
<text text-anchor="start" x="828.67" y="-532.8" font-family="Arial" font-size="14.00" fill="#666666">[boolean]</text>
<polygon fill="none" stroke="black" points="781.21,-489.8 781.21,-520.6 1091.52,-520.6 1091.52,-489.8 781.21,-489.8"/>
<text text-anchor="start" x="788.21" y="-502" font-family="Arial" font-size="14.00">createdAt </text>
<text text-anchor="start" x="852.02" y="-502" font-family="Arial" font-size="14.00" fill="#666666">[datetime]</text>
<polygon fill="none" stroke="black" points="781.21,-459 781.21,-489.8 1091.52,-489.8 1091.52,-459 781.21,-459"/>
<text text-anchor="start" x="788.21" y="-471.2" font-family="Arial" font-size="14.00">updatedAt </text>
<text text-anchor="start" x="855.93" y="-471.2" font-family="Arial" font-size="14.00" fill="#666666">[datetime]</text>
<polygon fill="none" stroke="black" points="781.21,-428.2 781.21,-459 1091.52,-459 1091.52,-428.2 781.21,-428.2"/>
<text text-anchor="start" x="788.21" y="-440.4" font-family="Arial" font-size="14.00">shipmentLineItem </text>
<text text-anchor="start" x="902.6" y="-440.4" font-family="Arial" font-size="14.00" fill="#666666">[ShipmentLineItem]</text>
<polygon fill="none" stroke="black" points="781.21,-397.4 781.21,-428.2 1091.52,-428.2 1091.52,-397.4 781.21,-397.4"/>
<text text-anchor="start" x="788.21" y="-409.6" font-family="Arial" font-size="14.00">availableQuantity </text>
<text text-anchor="start" x="899.5" y="-409.6" font-family="Arial" font-size="14.00" fill="#666666">[float]</text>
<polygon fill="none" stroke="black" points="781.21,-366.6 781.21,-397.4 1091.52,-397.4 1091.52,-366.6 781.21,-366.6"/>
<text text-anchor="start" x="788.21" y="-378.8" font-family="Arial" font-size="14.00">inStockQuantity </text>
<text text-anchor="start" x="890.15" y="-378.8" font-family="Arial" font-size="14.00" fill="#666666">[float]</text>
<polygon fill="none" stroke="black" points="781.21,-335.8 781.21,-366.6 1091.52,-366.6 1091.52,-335.8 781.21,-335.8"/>
<text text-anchor="start" x="788.21" y="-348" font-family="Arial" font-size="14.00">receiptLineItem </text>
<text text-anchor="start" x="887.82" y="-348" font-family="Arial" font-size="14.00" fill="#666666">[ReceiptLineItem]</text>
<polygon fill="none" stroke="black" points="781.21,-305 781.21,-335.8 1091.52,-335.8 1091.52,-305 781.21,-305"/>
<text text-anchor="start" x="788.21" y="-317.2" font-family="Arial" font-size="14.00">totalCost </text>
<text text-anchor="start" x="847.35" y="-317.2" font-family="Arial" font-size="14.00" fill="#666666">[float]</text>
<polygon fill="none" stroke="black" points="781.21,-274.2 781.21,-305 1091.52,-305 1091.52,-274.2 781.21,-274.2"/>
<text text-anchor="start" x="788.21" y="-286.4" font-family="Arial" font-size="14.00">shipmentLineItemID </text>
<text text-anchor="start" x="916.6" y="-286.4" font-family="Arial" font-size="14.00" fill="#666666">[uuid]</text>
<polygon fill="none" stroke="black" points="781.21,-243.4 781.21,-274.2 1091.52,-274.2 1091.52,-243.4 781.21,-243.4"/>
<text text-anchor="start" x="788.21" y="-255.6" font-family="Arial" font-size="14.00">sequence </text>
<text text-anchor="start" x="852.82" y="-255.6" font-family="Arial" font-size="14.00" fill="#666666">[integer]</text>
<polygon fill="none" stroke="black" points="781.21,-212.6 781.21,-243.4 1091.52,-243.4 1091.52,-212.6 781.21,-212.6"/>
<text text-anchor="start" x="788.21" y="-224.8" font-family="Arial" font-size="14.00">copiedToFinancialLedger </text>
<text text-anchor="start" x="949.31" y="-224.8" font-family="Arial" font-size="14.00" fill="#666666">[boolean]</text>
<polygon fill="none" stroke="black" points="781.21,-181.8 781.21,-212.6 1091.52,-212.6 1091.52,-181.8 781.21,-181.8"/>
<text text-anchor="start" x="788.21" y="-194" font-family="Arial" font-size="14.00">variantID </text>
<text text-anchor="start" x="848.12" y="-194" font-family="Arial" font-size="14.00" fill="#666666">[uuid]</text>
<polygon fill="none" stroke="black" points="781.21,-151 781.21,-181.8 1091.52,-181.8 1091.52,-151 781.21,-151"/>
<text text-anchor="start" x="788.21" y="-163.2" font-family="Arial" font-size="14.00">unitCost </text>
<text text-anchor="start" x="843.46" y="-163.2" font-family="Arial" font-size="14.00" fill="#666666">[float]</text>
<polygon fill="none" stroke="black" points="781.21,-120.2 781.21,-151 1091.52,-151 1091.52,-120.2 781.21,-120.2"/>
<text text-anchor="start" x="788.21" y="-132.4" font-family="Arial" font-size="14.00">isOnHold </text>
<text text-anchor="start" x="849.68" y="-132.4" font-family="Arial" font-size="14.00" fill="#666666">[boolean]</text>
<polygon fill="none" stroke="black" points="781.21,-89.4 781.21,-120.2 1091.52,-120.2 1091.52,-89.4 781.21,-89.4"/>
<text text-anchor="start" x="788.21" y="-101.6" font-family="Arial" font-size="14.00">incrementalQuantity </text>
<text text-anchor="start" x="916.6" y="-101.6" font-family="Arial" font-size="14.00" fill="#666666">[float]</text>
<polygon fill="none" stroke="black" points="781.21,-58.6 781.21,-89.4 1091.52,-89.4 1091.52,-58.6 781.21,-58.6"/>
<text text-anchor="start" x="788.21" y="-70.8" font-family="Arial" font-size="14.00">receiptLineItemID </text>
<text text-anchor="start" x="901.82" y="-70.8" font-family="Arial" font-size="14.00" fill="#666666">[uuid]</text>
</g>
<!-- FinancialStockEvent&#45;&gt;OperationalStockEvent -->
<g id="edge3" class="edge">
<title>FinancialStockEvent:operationalStockEventID&#45;&gt;OperationalStockEvent:id</title>
<path fill="none" stroke="black" d="M902.97,-1235.72C1067.55,-1226.25 985.88,-982.57 891.84,-835.6 862.62,-789.93 810.61,-829.75 781.21,-784.2 758.5,-749.02 738.34,-690 780.21,-690"/>
<polygon fill="black" stroke="black" points="903.17,-1235.71 893.05,-1231.49 897.84,-1235.86 893.51,-1235.98 893.51,-1235.98 893.51,-1235.98 897.84,-1235.86 893.3,-1240.49 903.17,-1235.71"/>
<text text-anchor="start" x="899.84" y="-1246" font-family="Arial" font-size="10.00">ForeignKeyType: OperationalStockEvent</text>
</g>
<!-- ReceiptLineItem -->
<g id="node5" class="node">
<title>ReceiptLineItem</title>
<polygon fill="#efefef" stroke="none" points="1195.71,-659.2 1195.71,-694.8 1459.02,-694.8 1459.02,-659.2 1195.71,-659.2"/>
<polygon fill="none" stroke="black" points="1195.71,-659.2 1195.71,-694.8 1459.02,-694.8 1459.02,-659.2 1195.71,-659.2"/>
<text text-anchor="start" x="1202.71" y="-672.6" font-family="Arial Bold" font-size="18.00">ReceiptLineItem</text>
<text text-anchor="start" x="1323.66" y="-672.6" font-family="Arial" font-size="14.00">    </text>
<text text-anchor="start" x="1354.77" y="-672.6" font-family="Arial" font-size="14.00" fill="#666666">[TailorDB.Type]</text>
<polygon fill="none" stroke="black" points="1195.71,-628.4 1195.71,-659.2 1459.02,-659.2 1459.02,-628.4 1195.71,-628.4"/>
<text text-anchor="start" x="1202.71" y="-640.6" font-family="Arial" font-size="14.00">id </text>
<text text-anchor="start" x="1217.5" y="-640.6" font-family="Arial" font-size="14.00" fill="#666666">[uuid]</text>
<polygon fill="none" stroke="black" points="1195.71,-597.6 1195.71,-628.4 1459.02,-628.4 1459.02,-597.6 1195.71,-597.6"/>
<text text-anchor="start" x="1202.71" y="-609.8" font-family="Arial" font-size="14.00">cubicMeters </text>
<text text-anchor="start" x="1282.07" y="-609.8" font-family="Arial" font-size="14.00" fill="#666666">[float]</text>
<polygon fill="none" stroke="black" points="1195.71,-566.8 1195.71,-597.6 1459.02,-597.6 1459.02,-566.8 1195.71,-566.8"/>
<text text-anchor="start" x="1202.71" y="-579" font-family="Arial" font-size="14.00">totalCostPoolAllocation </text>
<text text-anchor="start" x="1350.57" y="-579" font-family="Arial" font-size="14.00" fill="#666666">[float]</text>
<polygon fill="none" stroke="black" points="1195.71,-536 1195.71,-566.8 1459.02,-566.8 1459.02,-536 1195.71,-536"/>
<text text-anchor="start" x="1202.71" y="-548.2" font-family="Arial" font-size="14.00">receiptStatus </text>
<text text-anchor="start" x="1288.31" y="-548.2" font-family="Arial" font-size="14.00" fill="#666666">[enum]</text>
<polygon fill="none" stroke="black" points="1195.71,-505.2 1195.71,-536 1459.02,-536 1459.02,-505.2 1195.71,-505.2"/>
<text text-anchor="start" x="1202.71" y="-517.4" font-family="Arial" font-size="14.00">updatedAt </text>
<text text-anchor="start" x="1270.43" y="-517.4" font-family="Arial" font-size="14.00" fill="#666666">[datetime]</text>
<polygon fill="none" stroke="black" points="1195.71,-474.4 1195.71,-505.2 1459.02,-505.2 1459.02,-474.4 1195.71,-474.4"/>
<text text-anchor="start" x="1202.71" y="-486.6" font-family="Arial" font-size="14.00">variantID </text>
<text text-anchor="start" x="1262.62" y="-486.6" font-family="Arial" font-size="14.00" fill="#666666">[uuid]</text>
<polygon fill="none" stroke="black" points="1195.71,-443.6 1195.71,-474.4 1459.02,-474.4 1459.02,-443.6 1195.71,-443.6"/>
<text text-anchor="start" x="1202.71" y="-455.8" font-family="Arial" font-size="14.00">variant </text>
<text text-anchor="start" x="1248.62" y="-455.8" font-family="Arial" font-size="14.00" fill="#666666">[ProductVariant]</text>
<polygon fill="none" stroke="black" points="1195.71,-412.8 1195.71,-443.6 1459.02,-443.6 1459.02,-412.8 1195.71,-412.8"/>
<text text-anchor="start" x="1202.71" y="-425" font-family="Arial" font-size="14.00">quantity </text>
<text text-anchor="start" x="1255.64" y="-425" font-family="Arial" font-size="14.00" fill="#666666">[float]</text>
<polygon fill="none" stroke="black" points="1195.71,-382 1195.71,-412.8 1459.02,-412.8 1459.02,-382 1195.71,-382"/>
<text text-anchor="start" x="1202.71" y="-394.2" font-family="Arial" font-size="14.00">createdAt </text>
<text text-anchor="start" x="1266.52" y="-394.2" font-family="Arial" font-size="14.00" fill="#666666">[datetime]</text>
<polygon fill="none" stroke="black" points="1195.71,-351.2 1195.71,-382 1459.02,-382 1459.02,-351.2 1195.71,-351.2"/>
<text text-anchor="start" x="1202.71" y="-363.4" font-family="Arial" font-size="14.00">receipt </text>
<text text-anchor="start" x="1248.62" y="-363.4" font-family="Arial" font-size="14.00" fill="#666666">[Receipt]</text>
<polygon fill="none" stroke="black" points="1195.71,-320.4 1195.71,-351.2 1459.02,-351.2 1459.02,-320.4 1195.71,-320.4"/>
<text text-anchor="start" x="1202.71" y="-332.6" font-family="Arial" font-size="14.00">totalUnitCost </text>
<text text-anchor="start" x="1286.75" y="-332.6" font-family="Arial" font-size="14.00" fill="#666666">[float]</text>
<polygon fill="none" stroke="black" points="1195.71,-289.6 1195.71,-320.4 1459.02,-320.4 1459.02,-289.6 1195.71,-289.6"/>
<text text-anchor="start" x="1202.71" y="-301.8" font-family="Arial" font-size="14.00">active </text>
<text text-anchor="start" x="1243.17" y="-301.8" font-family="Arial" font-size="14.00" fill="#666666">[boolean]</text>
<polygon fill="none" stroke="black" points="1195.71,-258.8 1195.71,-289.6 1459.02,-289.6 1459.02,-258.8 1195.71,-258.8"/>
<text text-anchor="start" x="1202.71" y="-271" font-family="Arial" font-size="14.00">receiptID </text>
<text text-anchor="start" x="1262.62" y="-271" font-family="Arial" font-size="14.00" fill="#666666">[uuid]</text>
<polygon fill="none" stroke="black" points="1195.71,-228 1195.71,-258.8 1459.02,-258.8 1459.02,-228 1195.71,-228"/>
<text text-anchor="start" x="1202.71" y="-240.2" font-family="Arial" font-size="14.00">receivedAt </text>
<text text-anchor="start" x="1272.75" y="-240.2" font-family="Arial" font-size="14.00" fill="#666666">[datetime]</text>
<polygon fill="none" stroke="black" points="1195.71,-197.2 1195.71,-228 1459.02,-228 1459.02,-197.2 1195.71,-197.2"/>
<text text-anchor="start" x="1202.71" y="-209.4" font-family="Arial" font-size="14.00">subtotalUnitCost </text>
<text text-anchor="start" x="1309.32" y="-209.4" font-family="Arial" font-size="14.00" fill="#666666">[float]</text>
<polygon fill="none" stroke="black" points="1195.71,-166.4 1195.71,-197.2 1459.02,-197.2 1459.02,-166.4 1195.71,-166.4"/>
<text text-anchor="start" x="1202.71" y="-178.6" font-family="Arial" font-size="14.00">subtotalCost </text>
<text text-anchor="start" x="1284.42" y="-178.6" font-family="Arial" font-size="14.00" fill="#666666">[float]</text>
<polygon fill="none" stroke="black" points="1195.71,-135.6 1195.71,-166.4 1459.02,-166.4 1459.02,-135.6 1195.71,-135.6"/>
<text text-anchor="start" x="1202.71" y="-147.8" font-family="Arial" font-size="14.00">costPools </text>
<text text-anchor="start" x="1267.3" y="-147.8" font-family="Arial" font-size="14.00" fill="#666666">[Array&lt;nested&gt;]</text>
<polygon fill="none" stroke="black" points="1195.71,-104.8 1195.71,-135.6 1459.02,-135.6 1459.02,-104.8 1195.71,-104.8"/>
<text text-anchor="start" x="1202.71" y="-117" font-family="Arial" font-size="14.00">unitCostPoolAllocation </text>
<text text-anchor="start" x="1346.68" y="-117" font-family="Arial" font-size="14.00" fill="#666666">[float]</text>
</g>
<!-- FinancialStockEvent&#45;&gt;ReceiptLineItem -->
<g id="edge4" class="edge">
<title>FinancialStockEvent:receiptLineItemID&#45;&gt;ReceiptLineItem:id</title>
<path fill="none" stroke="black" d="M903.08,-958.69C1026.78,-955.86 1064.46,-900.95 1143.37,-799.6 1188.16,-742.07 1121.8,-643.8 1194.71,-643.8"/>
<polygon fill="black" stroke="black" points="903.18,-958.68 893.13,-954.3 897.84,-958.74 893.51,-958.79 893.51,-958.79 893.51,-958.79 897.84,-958.74 893.23,-963.3 903.18,-958.68"/>
<text text-anchor="start" x="899.84" y="-968.8" font-family="Arial" font-size="10.00">ForeignKeyType: ReceiptLineItem</text>
</g>
</g>
</svg>
