<?xml version="1.0" encoding="UTF-8" standalone="no"?>
<!DOCTYPE svg PUBLIC "-//W3C//DTD SVG 1.1//EN"
 "http://www.w3.org/Graphics/SVG/1.1/DTD/svg11.dtd">
<!-- Generated by graphviz version 12.1.2 (20240928.0832)
 -->
<!-- Title: FinancialStockEvent Pages: 1 -->
<svg width="1510pt" height="1618pt"
 viewBox="0.00 0.00 1510.23 1618.40" xmlns="http://www.w3.org/2000/svg" xmlns:xlink="http://www.w3.org/1999/xlink">
<g id="graph0" class="graph" transform="scale(1 1) rotate(0) translate(4 1614.4)">
<title>FinancialStockEvent</title>
<polygon fill="white" stroke="none" points="-4,4 -4,-1614.4 1506.23,-1614.4 1506.23,4 -4,4"/>
<!-- FinancialStockEvent -->
<g id="node1" class="node">
<title>FinancialStockEvent</title>
<polygon fill="#efefef" stroke="none" points="577.39,-1528.6 577.39,-1564.2 886.34,-1564.2 886.34,-1528.6 577.39,-1528.6"/>
<polygon fill="none" stroke="black" points="577.39,-1528.6 577.39,-1564.2 886.34,-1564.2 886.34,-1528.6 577.39,-1528.6"/>
<text text-anchor="start" x="592.7" y="-1542" font-family="Arial Bold" font-size="18.00">FinancialStockEvent</text>
<text text-anchor="start" x="742.67" y="-1542" font-family="Arial" font-size="14.00">    </text>
<text text-anchor="start" x="773.79" y="-1542" font-family="Arial" font-size="14.00" fill="#666666">[TailorDB.Type]</text>
<polygon fill="none" stroke="black" points="577.39,-1497.8 577.39,-1528.6 886.34,-1528.6 886.34,-1497.8 577.39,-1497.8"/>
<text text-anchor="start" x="584.39" y="-1510" font-family="Arial" font-size="14.00">id </text>
<text text-anchor="start" x="599.18" y="-1510" font-family="Arial" font-size="14.00" fill="#666666">[uuid]</text>
<polygon fill="none" stroke="black" points="577.39,-1467 577.39,-1497.8 886.34,-1497.8 886.34,-1467 577.39,-1467"/>
<text text-anchor="start" x="584.39" y="-1479.2" font-family="Arial" font-size="14.00">isOnHold </text>
<text text-anchor="start" x="645.86" y="-1479.2" font-family="Arial" font-size="14.00" fill="#666666">[boolean]</text>
<polygon fill="none" stroke="black" points="577.39,-1436.2 577.39,-1467 886.34,-1467 886.34,-1436.2 577.39,-1436.2"/>
<text text-anchor="start" x="584.39" y="-1448.4" font-family="Arial" font-size="14.00">inStockQuantity </text>
<text text-anchor="start" x="686.33" y="-1448.4" font-family="Arial" font-size="14.00" fill="#666666">[float]</text>
<polygon fill="none" stroke="black" points="577.39,-1405.4 577.39,-1436.2 886.34,-1436.2 886.34,-1405.4 577.39,-1405.4"/>
<text text-anchor="start" x="584.39" y="-1417.6" font-family="Arial" font-size="14.00">shipmentLineItem </text>
<text text-anchor="start" x="698.79" y="-1417.6" font-family="Arial" font-size="14.00" fill="#666666">[ShipmentLineItem]</text>
<polygon fill="none" stroke="black" points="577.39,-1374.6 577.39,-1405.4 886.34,-1405.4 886.34,-1374.6 577.39,-1374.6"/>
<text text-anchor="start" x="584.39" y="-1386.8" font-family="Arial" font-size="14.00">updatedAt </text>
<text text-anchor="start" x="652.12" y="-1386.8" font-family="Arial" font-size="14.00" fill="#666666">[datetime]</text>
<polygon fill="none" stroke="black" points="577.39,-1343.8 577.39,-1374.6 886.34,-1374.6 886.34,-1343.8 577.39,-1343.8"/>
<text text-anchor="start" x="584.39" y="-1356" font-family="Arial" font-size="14.00">variantID </text>
<text text-anchor="start" x="644.3" y="-1356" font-family="Arial" font-size="14.00" fill="#666666">[uuid]</text>
<polygon fill="none" stroke="black" points="577.39,-1313 577.39,-1343.8 886.34,-1343.8 886.34,-1313 577.39,-1313"/>
<text text-anchor="start" x="584.39" y="-1325.2" font-family="Arial" font-size="14.00">incrementalQuantity </text>
<text text-anchor="start" x="712.79" y="-1325.2" font-family="Arial" font-size="14.00" fill="#666666">[float]</text>
<polygon fill="none" stroke="black" points="577.39,-1282.2 577.39,-1313 886.34,-1313 886.34,-1282.2 577.39,-1282.2"/>
<text text-anchor="start" x="584.39" y="-1294.4" font-family="Arial" font-size="14.00">totalCost </text>
<text text-anchor="start" x="643.53" y="-1294.4" font-family="Arial" font-size="14.00" fill="#666666">[float]</text>
<polygon fill="none" stroke="black" points="577.39,-1251.4 577.39,-1282.2 886.34,-1282.2 886.34,-1251.4 577.39,-1251.4"/>
<text text-anchor="start" x="584.39" y="-1263.6" font-family="Arial" font-size="14.00">receiptLineItemID </text>
<text text-anchor="start" x="698" y="-1263.6" font-family="Arial" font-size="14.00" fill="#666666">[uuid]</text>
<polygon fill="none" stroke="black" points="577.39,-1220.6 577.39,-1251.4 886.34,-1251.4 886.34,-1220.6 577.39,-1220.6"/>
<text text-anchor="start" x="584.39" y="-1232.8" font-family="Arial" font-size="14.00">shipmentLineItemID </text>
<text text-anchor="start" x="712.79" y="-1232.8" font-family="Arial" font-size="14.00" fill="#666666">[uuid]</text>
<polygon fill="none" stroke="black" points="577.39,-1189.8 577.39,-1220.6 886.34,-1220.6 886.34,-1189.8 577.39,-1189.8"/>
<text text-anchor="start" x="584.39" y="-1202" font-family="Arial" font-size="14.00">operationalStockEvent </text>
<text text-anchor="start" x="728.37" y="-1202" font-family="Arial" font-size="14.00" fill="#666666">[OperationalStockEvent]</text>
<polygon fill="none" stroke="black" points="577.39,-1159 577.39,-1189.8 886.34,-1189.8 886.34,-1159 577.39,-1159"/>
<text text-anchor="start" x="584.39" y="-1171.2" font-family="Arial" font-size="14.00">variant </text>
<text text-anchor="start" x="630.3" y="-1171.2" font-family="Arial" font-size="14.00" fill="#666666">[ProductVariant]</text>
<polygon fill="none" stroke="black" points="577.39,-1128.2 577.39,-1159 886.34,-1159 886.34,-1128.2 577.39,-1128.2"/>
<text text-anchor="start" x="584.39" y="-1140.4" font-family="Arial" font-size="14.00">unitCost </text>
<text text-anchor="start" x="639.64" y="-1140.4" font-family="Arial" font-size="14.00" fill="#666666">[float]</text>
<polygon fill="none" stroke="black" points="577.39,-1097.4 577.39,-1128.2 886.34,-1128.2 886.34,-1097.4 577.39,-1097.4"/>
<text text-anchor="start" x="584.39" y="-1109.6" font-family="Arial" font-size="14.00">onHoldQuantity </text>
<text text-anchor="start" x="684.79" y="-1109.6" font-family="Arial" font-size="14.00" fill="#666666">[float]</text>
<polygon fill="none" stroke="black" points="577.39,-1066.6 577.39,-1097.4 886.34,-1097.4 886.34,-1066.6 577.39,-1066.6"/>
<text text-anchor="start" x="584.39" y="-1078.8" font-family="Arial" font-size="14.00">averageCost </text>
<text text-anchor="start" x="667.66" y="-1078.8" font-family="Arial" font-size="14.00" fill="#666666">[float]</text>
<polygon fill="none" stroke="black" points="577.39,-1035.8 577.39,-1066.6 886.34,-1066.6 886.34,-1035.8 577.39,-1035.8"/>
<text text-anchor="start" x="584.39" y="-1048" font-family="Arial" font-size="14.00">availableQuantity </text>
<text text-anchor="start" x="695.68" y="-1048" font-family="Arial" font-size="14.00" fill="#666666">[float]</text>
<polygon fill="none" stroke="black" points="577.39,-1005 577.39,-1035.8 886.34,-1035.8 886.34,-1005 577.39,-1005"/>
<text text-anchor="start" x="584.39" y="-1017.2" font-family="Arial" font-size="14.00">receiptLineItem </text>
<text text-anchor="start" x="684" y="-1017.2" font-family="Arial" font-size="14.00" fill="#666666">[ReceiptLineItem]</text>
<polygon fill="none" stroke="black" points="577.39,-974.2 577.39,-1005 886.34,-1005 886.34,-974.2 577.39,-974.2"/>
<text text-anchor="start" x="584.39" y="-986.4" font-family="Arial" font-size="14.00">operationalStockEventID </text>
<text text-anchor="start" x="742.37" y="-986.4" font-family="Arial" font-size="14.00" fill="#666666">[uuid]</text>
<polygon fill="none" stroke="black" points="577.39,-943.4 577.39,-974.2 886.34,-974.2 886.34,-943.4 577.39,-943.4"/>
<text text-anchor="start" x="584.39" y="-955.6" font-family="Arial" font-size="14.00">active </text>
<text text-anchor="start" x="624.86" y="-955.6" font-family="Arial" font-size="14.00" fill="#666666">[boolean]</text>
<polygon fill="none" stroke="black" points="577.39,-912.6 577.39,-943.4 886.34,-943.4 886.34,-912.6 577.39,-912.6"/>
<text text-anchor="start" x="584.39" y="-924.8" font-family="Arial" font-size="14.00">createdAt </text>
<text text-anchor="start" x="648.21" y="-924.8" font-family="Arial" font-size="14.00" fill="#666666">[datetime]</text>
<polygon fill="none" stroke="black" points="577.39,-881.8 577.39,-912.6 886.34,-912.6 886.34,-881.8 577.39,-881.8"/>
<text text-anchor="start" x="584.39" y="-894" font-family="Arial" font-size="14.00">transactionTotalCost </text>
<text text-anchor="start" x="716.68" y="-894" font-family="Arial" font-size="14.00" fill="#666666">[float]</text>
<polygon fill="none" stroke="black" stroke-width="3" points="575.89,-880.3 575.89,-1565.7 887.84,-1565.7 887.84,-880.3 575.89,-880.3"/>
</g>
<!-- ShipmentLineItem -->
<g id="node2" class="node">
<title>ShipmentLineItem</title>
<polygon fill="#efefef" stroke="none" points="43.2,-597.6 43.2,-633.2 320.54,-633.2 320.54,-597.6 43.2,-597.6"/>
<polygon fill="none" stroke="black" points="43.2,-597.6 43.2,-633.2 320.54,-633.2 320.54,-597.6 43.2,-597.6"/>
<text text-anchor="start" x="50.2" y="-611" font-family="Arial Bold" font-size="18.00">ShipmentLineItem</text>
<text text-anchor="start" x="185.17" y="-611" font-family="Arial" font-size="14.00">    </text>
<text text-anchor="start" x="216.29" y="-611" font-family="Arial" font-size="14.00" fill="#666666">[TailorDB.Type]</text>
<polygon fill="none" stroke="black" points="43.2,-566.8 43.2,-597.6 320.54,-597.6 320.54,-566.8 43.2,-566.8"/>
<text text-anchor="start" x="50.2" y="-579" font-family="Arial" font-size="14.00">id </text>
<text text-anchor="start" x="64.99" y="-579" font-family="Arial" font-size="14.00" fill="#666666">[uuid]</text>
<polygon fill="none" stroke="black" points="43.2,-536 43.2,-566.8 320.54,-566.8 320.54,-536 43.2,-536"/>
<text text-anchor="start" x="50.2" y="-548.2" font-family="Arial" font-size="14.00">variantID </text>
<text text-anchor="start" x="110.11" y="-548.2" font-family="Arial" font-size="14.00" fill="#666666">[uuid]</text>
<polygon fill="none" stroke="black" points="43.2,-505.2 43.2,-536 320.54,-536 320.54,-505.2 43.2,-505.2"/>
<text text-anchor="start" x="50.2" y="-517.4" font-family="Arial" font-size="14.00">variant </text>
<text text-anchor="start" x="96.11" y="-517.4" font-family="Arial" font-size="14.00" fill="#666666">[ProductVariant]</text>
<polygon fill="none" stroke="black" points="43.2,-474.4 43.2,-505.2 320.54,-505.2 320.54,-474.4 43.2,-474.4"/>
<text text-anchor="start" x="50.2" y="-486.6" font-family="Arial" font-size="14.00">quantity </text>
<text text-anchor="start" x="103.12" y="-486.6" font-family="Arial" font-size="14.00" fill="#666666">[float]</text>
<polygon fill="none" stroke="black" points="43.2,-443.6 43.2,-474.4 320.54,-474.4 320.54,-443.6 43.2,-443.6"/>
<text text-anchor="start" x="50.2" y="-455.8" font-family="Arial" font-size="14.00">active </text>
<text text-anchor="start" x="90.66" y="-455.8" font-family="Arial" font-size="14.00" fill="#666666">[boolean]</text>
<polygon fill="none" stroke="black" points="43.2,-412.8 43.2,-443.6 320.54,-443.6 320.54,-412.8 43.2,-412.8"/>
<text text-anchor="start" x="50.2" y="-425" font-family="Arial" font-size="14.00">shipment </text>
<text text-anchor="start" x="110.9" y="-425" font-family="Arial" font-size="14.00" fill="#666666">[Shipment]</text>
<polygon fill="none" stroke="black" points="43.2,-382 43.2,-412.8 320.54,-412.8 320.54,-382 43.2,-382"/>
<text text-anchor="start" x="50.2" y="-394.2" font-family="Arial" font-size="14.00">unitCost </text>
<text text-anchor="start" x="105.45" y="-394.2" font-family="Arial" font-size="14.00" fill="#666666">[float]</text>
<polygon fill="none" stroke="black" points="43.2,-351.2 43.2,-382 320.54,-382 320.54,-351.2 43.2,-351.2"/>
<text text-anchor="start" x="50.2" y="-363.4" font-family="Arial" font-size="14.00">unitPrice </text>
<text text-anchor="start" x="108.56" y="-363.4" font-family="Arial" font-size="14.00" fill="#666666">[float]</text>
<polygon fill="none" stroke="black" points="43.2,-320.4 43.2,-351.2 320.54,-351.2 320.54,-320.4 43.2,-320.4"/>
<text text-anchor="start" x="50.2" y="-332.6" font-family="Arial" font-size="14.00">shipmentStatus </text>
<text text-anchor="start" x="150.59" y="-332.6" font-family="Arial" font-size="14.00" fill="#666666">[enum]</text>
<polygon fill="none" stroke="black" points="43.2,-289.6 43.2,-320.4 320.54,-320.4 320.54,-289.6 43.2,-289.6"/>
<text text-anchor="start" x="50.2" y="-301.8" font-family="Arial" font-size="14.00">shippedAt </text>
<text text-anchor="start" x="116.36" y="-301.8" font-family="Arial" font-size="14.00" fill="#666666">[datetime]</text>
<polygon fill="none" stroke="black" points="43.2,-258.8 43.2,-289.6 320.54,-289.6 320.54,-258.8 43.2,-258.8"/>
<text text-anchor="start" x="50.2" y="-271" font-family="Arial" font-size="14.00">createdAt </text>
<text text-anchor="start" x="114.01" y="-271" font-family="Arial" font-size="14.00" fill="#666666">[datetime]</text>
<polygon fill="none" stroke="black" points="43.2,-228 43.2,-258.8 320.54,-258.8 320.54,-228 43.2,-228"/>
<text text-anchor="start" x="50.2" y="-240.2" font-family="Arial" font-size="14.00">shipmentID </text>
<text text-anchor="start" x="124.9" y="-240.2" font-family="Arial" font-size="14.00" fill="#666666">[uuid]</text>
<polygon fill="none" stroke="black" points="43.2,-197.2 43.2,-228 320.54,-228 320.54,-197.2 43.2,-197.2"/>
<text text-anchor="start" x="50.2" y="-209.4" font-family="Arial" font-size="14.00">updatedAt </text>
<text text-anchor="start" x="117.92" y="-209.4" font-family="Arial" font-size="14.00" fill="#666666">[datetime]</text>
<polygon fill="none" stroke="black" points="43.2,-166.4 43.2,-197.2 320.54,-197.2 320.54,-166.4 43.2,-166.4"/>
<text text-anchor="start" x="50.2" y="-178.6" font-family="Arial" font-size="14.00">taxable </text>
<text text-anchor="start" x="99.23" y="-178.6" font-family="Arial" font-size="14.00" fill="#666666">[boolean]</text>
</g>
<!-- FinancialStockEvent&#45;&gt;ShipmentLineItem -->
<g id="edge1" class="edge">
<title>FinancialStockEvent:shipmentLineItemID&#45;&gt;ShipmentLineItem:id</title>
<path fill="none" stroke="black" d="M565.98,-1235.81C365.02,-1228.23 441.89,-998.42 372.87,-799.6 356.59,-752.71 371.18,-582.2 321.54,-582.2"/>
<polygon fill="black" stroke="black" points="566.06,-1235.81 575.98,-1240.49 571.4,-1235.91 575.73,-1235.99 575.73,-1235.99 575.73,-1235.99 571.4,-1235.91 576.14,-1231.49 566.06,-1235.81"/>
<text text-anchor="start" x="409.87" y="-1246" font-family="Arial" font-size="10.00">ForeignKeyType: ShipmentLineItem</text>
</g>
<!-- ProductVariant -->
<g id="node3" class="node">
<title>ProductVariant</title>
<polygon fill="#efefef" stroke="none" points="424.7,-720.8 424.7,-756.4 677.04,-756.4 677.04,-720.8 424.7,-720.8"/>
<polygon fill="none" stroke="black" points="424.7,-720.8 424.7,-756.4 677.04,-756.4 677.04,-720.8 424.7,-720.8"/>
<text text-anchor="start" x="431.7" y="-734.2" font-family="Arial Bold" font-size="18.00">ProductVariant</text>
<text text-anchor="start" x="541.67" y="-734.2" font-family="Arial" font-size="14.00">    </text>
<text text-anchor="start" x="572.79" y="-734.2" font-family="Arial" font-size="14.00" fill="#666666">[TailorDB.Type]</text>
<polygon fill="none" stroke="black" points="424.7,-690 424.7,-720.8 677.04,-720.8 677.04,-690 424.7,-690"/>
<text text-anchor="start" x="431.7" y="-702.2" font-family="Arial" font-size="14.00">id </text>
<text text-anchor="start" x="446.49" y="-702.2" font-family="Arial" font-size="14.00" fill="#666666">[uuid]</text>
<polygon fill="none" stroke="black" points="424.7,-659.2 424.7,-690 677.04,-690 677.04,-659.2 424.7,-659.2"/>
<text text-anchor="start" x="431.7" y="-671.4" font-family="Arial" font-size="14.00">taxable </text>
<text text-anchor="start" x="480.74" y="-671.4" font-family="Arial" font-size="14.00" fill="#666666">[boolean]</text>
<polygon fill="none" stroke="black" points="424.7,-628.4 424.7,-659.2 677.04,-659.2 677.04,-628.4 424.7,-628.4"/>
<text text-anchor="start" x="431.7" y="-640.6" font-family="Arial" font-size="14.00">quickbookItemId </text>
<text text-anchor="start" x="537.54" y="-640.6" font-family="Arial" font-size="14.00" fill="#666666">[string]</text>
<polygon fill="none" stroke="black" points="424.7,-597.6 424.7,-628.4 677.04,-628.4 677.04,-597.6 424.7,-597.6"/>
<text text-anchor="start" x="431.7" y="-609.8" font-family="Arial" font-size="14.00">barcode </text>
<text text-anchor="start" x="486.18" y="-609.8" font-family="Arial" font-size="14.00" fill="#666666">[string]</text>
<polygon fill="none" stroke="black" points="424.7,-566.8 424.7,-597.6 677.04,-597.6 677.04,-566.8 424.7,-566.8"/>
<text text-anchor="start" x="431.7" y="-579" font-family="Arial" font-size="14.00">displayName </text>
<text text-anchor="start" x="516.52" y="-579" font-family="Arial" font-size="14.00" fill="#666666">[string]</text>
<polygon fill="none" stroke="black" points="424.7,-536 424.7,-566.8 677.04,-566.8 677.04,-536 424.7,-536"/>
<text text-anchor="start" x="431.7" y="-548.2" font-family="Arial" font-size="14.00">inventoryItemID </text>
<text text-anchor="start" x="533.63" y="-548.2" font-family="Arial" font-size="14.00" fill="#666666">[uuid]</text>
<polygon fill="none" stroke="black" points="424.7,-505.2 424.7,-536 677.04,-536 677.04,-505.2 424.7,-505.2"/>
<text text-anchor="start" x="431.7" y="-517.4" font-family="Arial" font-size="14.00">sku </text>
<text text-anchor="start" x="457.38" y="-517.4" font-family="Arial" font-size="14.00" fill="#666666">[string]</text>
<polygon fill="none" stroke="black" points="424.7,-474.4 424.7,-505.2 677.04,-505.2 677.04,-474.4 424.7,-474.4"/>
<text text-anchor="start" x="431.7" y="-486.6" font-family="Arial" font-size="14.00">image </text>
<text text-anchor="start" x="473.72" y="-486.6" font-family="Arial" font-size="14.00" fill="#666666">[ProductImage]</text>
<polygon fill="none" stroke="black" points="424.7,-443.6 424.7,-474.4 677.04,-474.4 677.04,-443.6 424.7,-443.6"/>
<text text-anchor="start" x="431.7" y="-455.8" font-family="Arial" font-size="14.00">createdAt </text>
<text text-anchor="start" x="495.52" y="-455.8" font-family="Arial" font-size="14.00" fill="#666666">[datetime]</text>
<polygon fill="none" stroke="black" points="424.7,-412.8 424.7,-443.6 677.04,-443.6 677.04,-412.8 424.7,-412.8"/>
<text text-anchor="start" x="431.7" y="-425" font-family="Arial" font-size="14.00">shopifyID </text>
<text text-anchor="start" x="493.95" y="-425" font-family="Arial" font-size="14.00" fill="#666666">[string]</text>
<polygon fill="none" stroke="black" points="424.7,-382 424.7,-412.8 677.04,-412.8 677.04,-382 424.7,-382"/>
<text text-anchor="start" x="431.7" y="-394.2" font-family="Arial" font-size="14.00">availableForSale </text>
<text text-anchor="start" x="539.87" y="-394.2" font-family="Arial" font-size="14.00" fill="#666666">[boolean]</text>
<polygon fill="none" stroke="black" points="424.7,-351.2 424.7,-382 677.04,-382 677.04,-351.2 424.7,-351.2"/>
<text text-anchor="start" x="431.7" y="-363.4" font-family="Arial" font-size="14.00">productID </text>
<text text-anchor="start" x="496.29" y="-363.4" font-family="Arial" font-size="14.00" fill="#666666">[uuid]</text>
<polygon fill="none" stroke="black" points="424.7,-320.4 424.7,-351.2 677.04,-351.2 677.04,-320.4 424.7,-320.4"/>
<text text-anchor="start" x="431.7" y="-332.6" font-family="Arial" font-size="14.00">inventoryType </text>
<text text-anchor="start" x="523.52" y="-332.6" font-family="Arial" font-size="14.00" fill="#666666">[enum]</text>
<polygon fill="none" stroke="black" points="424.7,-289.6 424.7,-320.4 677.04,-320.4 677.04,-289.6 424.7,-289.6"/>
<text text-anchor="start" x="431.7" y="-301.8" font-family="Arial" font-size="14.00">quickbookSyncToken </text>
<text text-anchor="start" x="568.67" y="-301.8" font-family="Arial" font-size="14.00" fill="#666666">[string]</text>
<polygon fill="none" stroke="black" points="424.7,-258.8 424.7,-289.6 677.04,-289.6 677.04,-258.8 424.7,-258.8"/>
<text text-anchor="start" x="431.7" y="-271" font-family="Arial" font-size="14.00">updatedAt </text>
<text text-anchor="start" x="499.43" y="-271" font-family="Arial" font-size="14.00" fill="#666666">[datetime]</text>
<polygon fill="none" stroke="black" points="424.7,-228 424.7,-258.8 677.04,-258.8 677.04,-228 424.7,-228"/>
<text text-anchor="start" x="431.7" y="-240.2" font-family="Arial" font-size="14.00">active </text>
<text text-anchor="start" x="472.16" y="-240.2" font-family="Arial" font-size="14.00" fill="#666666">[boolean]</text>
<polygon fill="none" stroke="black" points="424.7,-197.2 424.7,-228 677.04,-228 677.04,-197.2 424.7,-197.2"/>
<text text-anchor="start" x="431.7" y="-209.4" font-family="Arial" font-size="14.00">imageID </text>
<text text-anchor="start" x="487.72" y="-209.4" font-family="Arial" font-size="14.00" fill="#666666">[uuid]</text>
<polygon fill="none" stroke="black" points="424.7,-166.4 424.7,-197.2 677.04,-197.2 677.04,-166.4 424.7,-166.4"/>
<text text-anchor="start" x="431.7" y="-178.6" font-family="Arial" font-size="14.00">price </text>
<text text-anchor="start" x="465.94" y="-178.6" font-family="Arial" font-size="14.00" fill="#666666">[float]</text>
<polygon fill="none" stroke="black" points="424.7,-135.6 424.7,-166.4 677.04,-166.4 677.04,-135.6 424.7,-135.6"/>
<text text-anchor="start" x="431.7" y="-147.8" font-family="Arial" font-size="14.00">quickbookItemName </text>
<text text-anchor="start" x="563.21" y="-147.8" font-family="Arial" font-size="14.00" fill="#666666">[string]</text>
<polygon fill="none" stroke="black" points="424.7,-104.8 424.7,-135.6 677.04,-135.6 677.04,-104.8 424.7,-104.8"/>
<text text-anchor="start" x="431.7" y="-117" font-family="Arial" font-size="14.00">inventoryQuantity </text>
<text text-anchor="start" x="544.54" y="-117" font-family="Arial" font-size="14.00" fill="#666666">[integer]</text>
<polygon fill="none" stroke="black" points="424.7,-74 424.7,-104.8 677.04,-104.8 677.04,-74 424.7,-74"/>
<text text-anchor="start" x="431.7" y="-86.2" font-family="Arial" font-size="14.00">inventoryItem </text>
<text text-anchor="start" x="519.63" y="-86.2" font-family="Arial" font-size="14.00" fill="#666666">[InventoryItem]</text>
<polygon fill="none" stroke="black" points="424.7,-43.2 424.7,-74 677.04,-74 677.04,-43.2 424.7,-43.2"/>
<text text-anchor="start" x="431.7" y="-55.4" font-family="Arial" font-size="14.00">product </text>
<text text-anchor="start" x="482.29" y="-55.4" font-family="Arial" font-size="14.00" fill="#666666">[Product]</text>
</g>
<!-- FinancialStockEvent&#45;&gt;ProductVariant -->
<g id="edge2" class="edge">
<title>FinancialStockEvent:variantID&#45;&gt;ProductVariant:id</title>
<path fill="none" stroke="black" d="M566.05,-1358.97C346.71,-1349.14 445.54,-1023.06 577.39,-835.6 604.48,-797.09 649.78,-838 677.04,-799.6 701.27,-765.46 719.91,-705.4 678.04,-705.4"/>
<polygon fill="black" stroke="black" points="566.06,-1358.97 575.96,-1363.69 571.4,-1359.09 575.73,-1359.19 575.73,-1359.19 575.73,-1359.19 571.4,-1359.09 576.16,-1354.69 566.06,-1358.97"/>
<text text-anchor="start" x="466.01" y="-1369.2" font-family="Arial" font-size="10.00">Source: ProductVariant</text>
</g>
<!-- ReceiptLineItem -->
<g id="node4" class="node">
<title>ReceiptLineItem</title>
<polygon fill="#efefef" stroke="none" points="781.21,-690 781.21,-725.6 1044.53,-725.6 1044.53,-690 781.21,-690"/>
<polygon fill="none" stroke="black" points="781.21,-690 781.21,-725.6 1044.53,-725.6 1044.53,-690 781.21,-690"/>
<text text-anchor="start" x="788.21" y="-703.4" font-family="Arial Bold" font-size="18.00">ReceiptLineItem</text>
<text text-anchor="start" x="909.16" y="-703.4" font-family="Arial" font-size="14.00">    </text>
<text text-anchor="start" x="940.28" y="-703.4" font-family="Arial" font-size="14.00" fill="#666666">[TailorDB.Type]</text>
<polygon fill="none" stroke="black" points="781.21,-659.2 781.21,-690 1044.53,-690 1044.53,-659.2 781.21,-659.2"/>
<text text-anchor="start" x="788.21" y="-671.4" font-family="Arial" font-size="14.00">id </text>
<text text-anchor="start" x="803" y="-671.4" font-family="Arial" font-size="14.00" fill="#666666">[uuid]</text>
<polygon fill="none" stroke="black" points="781.21,-628.4 781.21,-659.2 1044.53,-659.2 1044.53,-628.4 781.21,-628.4"/>
<text text-anchor="start" x="788.21" y="-640.6" font-family="Arial" font-size="14.00">active </text>
<text text-anchor="start" x="828.68" y="-640.6" font-family="Arial" font-size="14.00" fill="#666666">[boolean]</text>
<polygon fill="none" stroke="black" points="781.21,-597.6 781.21,-628.4 1044.53,-628.4 1044.53,-597.6 781.21,-597.6"/>
<text text-anchor="start" x="788.21" y="-609.8" font-family="Arial" font-size="14.00">receiptID </text>
<text text-anchor="start" x="848.12" y="-609.8" font-family="Arial" font-size="14.00" fill="#666666">[uuid]</text>
<polygon fill="none" stroke="black" points="781.21,-566.8 781.21,-597.6 1044.53,-597.6 1044.53,-566.8 781.21,-566.8"/>
<text text-anchor="start" x="788.21" y="-579" font-family="Arial" font-size="14.00">variant </text>
<text text-anchor="start" x="834.12" y="-579" font-family="Arial" font-size="14.00" fill="#666666">[ProductVariant]</text>
<polygon fill="none" stroke="black" points="781.21,-536 781.21,-566.8 1044.53,-566.8 1044.53,-536 781.21,-536"/>
<text text-anchor="start" x="788.21" y="-548.2" font-family="Arial" font-size="14.00">costPools </text>
<text text-anchor="start" x="852.8" y="-548.2" font-family="Arial" font-size="14.00" fill="#666666">[Array\&lt;nested\&gt;]</text>
<polygon fill="none" stroke="black" points="781.21,-505.2 781.21,-536 1044.53,-536 1044.53,-505.2 781.21,-505.2"/>
<text text-anchor="start" x="788.21" y="-517.4" font-family="Arial" font-size="14.00">costPools.costPoolID </text>
<text text-anchor="start" x="924.39" y="-517.4" font-family="Arial" font-size="14.00" fill="#666666">[uuid]</text>
<polygon fill="none" stroke="black" points="781.21,-474.4 781.21,-505.2 1044.53,-505.2 1044.53,-474.4 781.21,-474.4"/>
<text text-anchor="start" x="788.21" y="-486.6" font-family="Arial" font-size="14.00">costPools.costPool </text>
<text text-anchor="start" x="910.39" y="-486.6" font-family="Arial" font-size="14.00" fill="#666666">[CostPool]</text>
<polygon fill="none" stroke="black" points="781.21,-443.6 781.21,-474.4 1044.53,-474.4 1044.53,-443.6 781.21,-443.6"/>
<text text-anchor="start" x="788.21" y="-455.8" font-family="Arial" font-size="14.00">unitCostPoolAllocation </text>
<text text-anchor="start" x="932.19" y="-455.8" font-family="Arial" font-size="14.00" fill="#666666">[float]</text>
<polygon fill="none" stroke="black" points="781.21,-412.8 781.21,-443.6 1044.53,-443.6 1044.53,-412.8 781.21,-412.8"/>
<text text-anchor="start" x="788.21" y="-425" font-family="Arial" font-size="14.00">receivedAt </text>
<text text-anchor="start" x="858.25" y="-425" font-family="Arial" font-size="14.00" fill="#666666">[datetime]</text>
<polygon fill="none" stroke="black" points="781.21,-382 781.21,-412.8 1044.53,-412.8 1044.53,-382 781.21,-382"/>
<text text-anchor="start" x="788.21" y="-394.2" font-family="Arial" font-size="14.00">updatedAt </text>
<text text-anchor="start" x="855.94" y="-394.2" font-family="Arial" font-size="14.00" fill="#666666">[datetime]</text>
<polygon fill="none" stroke="black" points="781.21,-351.2 781.21,-382 1044.53,-382 1044.53,-351.2 781.21,-351.2"/>
<text text-anchor="start" x="788.21" y="-363.4" font-family="Arial" font-size="14.00">subtotalUnitCost </text>
<text text-anchor="start" x="894.82" y="-363.4" font-family="Arial" font-size="14.00" fill="#666666">[float]</text>
<polygon fill="none" stroke="black" points="781.21,-320.4 781.21,-351.2 1044.53,-351.2 1044.53,-320.4 781.21,-320.4"/>
<text text-anchor="start" x="788.21" y="-332.6" font-family="Arial" font-size="14.00">receipt </text>
<text text-anchor="start" x="834.12" y="-332.6" font-family="Arial" font-size="14.00" fill="#666666">[Receipt]</text>
<polygon fill="none" stroke="black" points="781.21,-289.6 781.21,-320.4 1044.53,-320.4 1044.53,-289.6 781.21,-289.6"/>
<text text-anchor="start" x="788.21" y="-301.8" font-family="Arial" font-size="14.00">variantID </text>
<text text-anchor="start" x="848.12" y="-301.8" font-family="Arial" font-size="14.00" fill="#666666">[uuid]</text>
<polygon fill="none" stroke="black" points="781.21,-258.8 781.21,-289.6 1044.53,-289.6 1044.53,-258.8 781.21,-258.8"/>
<text text-anchor="start" x="788.21" y="-271" font-family="Arial" font-size="14.00">subtotalCost </text>
<text text-anchor="start" x="869.92" y="-271" font-family="Arial" font-size="14.00" fill="#666666">[float]</text>
<polygon fill="none" stroke="black" points="781.21,-228 781.21,-258.8 1044.53,-258.8 1044.53,-228 781.21,-228"/>
<text text-anchor="start" x="788.21" y="-240.2" font-family="Arial" font-size="14.00">totalCostPoolAllocation </text>
<text text-anchor="start" x="936.08" y="-240.2" font-family="Arial" font-size="14.00" fill="#666666">[float]</text>
<polygon fill="none" stroke="black" points="781.21,-197.2 781.21,-228 1044.53,-228 1044.53,-197.2 781.21,-197.2"/>
<text text-anchor="start" x="788.21" y="-209.4" font-family="Arial" font-size="14.00">totalUnitCost </text>
<text text-anchor="start" x="872.25" y="-209.4" font-family="Arial" font-size="14.00" fill="#666666">[float]</text>
<polygon fill="none" stroke="black" points="781.21,-166.4 781.21,-197.2 1044.53,-197.2 1044.53,-166.4 781.21,-166.4"/>
<text text-anchor="start" x="788.21" y="-178.6" font-family="Arial" font-size="14.00">receiptStatus </text>
<text text-anchor="start" x="873.81" y="-178.6" font-family="Arial" font-size="14.00" fill="#666666">[enum]</text>
<polygon fill="none" stroke="black" points="781.21,-135.6 781.21,-166.4 1044.53,-166.4 1044.53,-135.6 781.21,-135.6"/>
<text text-anchor="start" x="788.21" y="-147.8" font-family="Arial" font-size="14.00">createdAt </text>
<text text-anchor="start" x="852.03" y="-147.8" font-family="Arial" font-size="14.00" fill="#666666">[datetime]</text>
<polygon fill="none" stroke="black" points="781.21,-104.8 781.21,-135.6 1044.53,-135.6 1044.53,-104.8 781.21,-104.8"/>
<text text-anchor="start" x="788.21" y="-117" font-family="Arial" font-size="14.00">quantity </text>
<text text-anchor="start" x="841.14" y="-117" font-family="Arial" font-size="14.00" fill="#666666">[float]</text>
<polygon fill="none" stroke="black" points="781.21,-74 781.21,-104.8 1044.53,-104.8 1044.53,-74 781.21,-74"/>
<text text-anchor="start" x="788.21" y="-86.2" font-family="Arial" font-size="14.00">cubicMeters </text>
<text text-anchor="start" x="867.57" y="-86.2" font-family="Arial" font-size="14.00" fill="#666666">[float]</text>
</g>
<!-- FinancialStockEvent&#45;&gt;ReceiptLineItem -->
<g id="edge3" class="edge">
<title>FinancialStockEvent:receiptLineItemID&#45;&gt;ReceiptLineItem:id</title>
<path fill="none" stroke="black" d="M897.71,-1266.53C1075.27,-1257.06 977.1,-1000.34 886.34,-835.6 859.63,-787.11 808.13,-817.18 781.21,-768.8 760.86,-732.21 738.34,-674.6 780.21,-674.6"/>
<polygon fill="black" stroke="black" points="897.68,-1266.53 887.56,-1262.29 892.34,-1266.67 888.01,-1266.78 888.01,-1266.78 888.01,-1266.78 892.34,-1266.67 887.8,-1271.29 897.68,-1266.53"/>
<text text-anchor="start" x="894.34" y="-1276.8" font-family="Arial" font-size="10.00">ForeignKeyType: ReceiptLineItem</text>
</g>
<!-- OperationalStockEvent -->
<g id="node5" class="node">
<title>OperationalStockEvent</title>
<polygon fill="#efefef" stroke="none" points="1148.71,-705.4 1148.71,-741 1459.03,-741 1459.03,-705.4 1148.71,-705.4"/>
<polygon fill="none" stroke="black" points="1148.71,-705.4 1148.71,-741 1459.03,-741 1459.03,-705.4 1148.71,-705.4"/>
<text text-anchor="start" x="1155.71" y="-718.8" font-family="Arial Bold" font-size="18.00">OperationalStockEvent</text>
<text text-anchor="start" x="1323.66" y="-718.8" font-family="Arial" font-size="14.00">    </text>
<text text-anchor="start" x="1354.78" y="-718.8" font-family="Arial" font-size="14.00" fill="#666666">[TailorDB.Type]</text>
<polygon fill="none" stroke="black" points="1148.71,-674.6 1148.71,-705.4 1459.03,-705.4 1459.03,-674.6 1148.71,-674.6"/>
<text text-anchor="start" x="1155.71" y="-686.8" font-family="Arial" font-size="14.00">id </text>
<text text-anchor="start" x="1170.5" y="-686.8" font-family="Arial" font-size="14.00" fill="#666666">[uuid]</text>
<polygon fill="none" stroke="black" points="1148.71,-643.8 1148.71,-674.6 1459.03,-674.6 1459.03,-643.8 1148.71,-643.8"/>
<text text-anchor="start" x="1155.71" y="-656" font-family="Arial" font-size="14.00">availableQuantity </text>
<text text-anchor="start" x="1267" y="-656" font-family="Arial" font-size="14.00" fill="#666666">[float]</text>
<polygon fill="none" stroke="black" points="1148.71,-613 1148.71,-643.8 1459.03,-643.8 1459.03,-613 1148.71,-613"/>
<text text-anchor="start" x="1155.71" y="-625.2" font-family="Arial" font-size="14.00">shipmentLineItem </text>
<text text-anchor="start" x="1270.1" y="-625.2" font-family="Arial" font-size="14.00" fill="#666666">[ShipmentLineItem]</text>
<polygon fill="none" stroke="black" points="1148.71,-582.2 1148.71,-613 1459.03,-613 1459.03,-582.2 1148.71,-582.2"/>
<text text-anchor="start" x="1155.71" y="-594.4" font-family="Arial" font-size="14.00">copiedToFinancialLedger </text>
<text text-anchor="start" x="1316.81" y="-594.4" font-family="Arial" font-size="14.00" fill="#666666">[boolean]</text>
<polygon fill="none" stroke="black" points="1148.71,-551.4 1148.71,-582.2 1459.03,-582.2 1459.03,-551.4 1148.71,-551.4"/>
<text text-anchor="start" x="1155.71" y="-563.6" font-family="Arial" font-size="14.00">variant </text>
<text text-anchor="start" x="1201.62" y="-563.6" font-family="Arial" font-size="14.00" fill="#666666">[ProductVariant]</text>
<polygon fill="none" stroke="black" points="1148.71,-520.6 1148.71,-551.4 1459.03,-551.4 1459.03,-520.6 1148.71,-520.6"/>
<text text-anchor="start" x="1155.71" y="-532.8" font-family="Arial" font-size="14.00">incrementalQuantity </text>
<text text-anchor="start" x="1284.1" y="-532.8" font-family="Arial" font-size="14.00" fill="#666666">[float]</text>
<polygon fill="none" stroke="black" points="1148.71,-489.8 1148.71,-520.6 1459.03,-520.6 1459.03,-489.8 1148.71,-489.8"/>
<text text-anchor="start" x="1155.71" y="-502" font-family="Arial" font-size="14.00">transactionTotalCost </text>
<text text-anchor="start" x="1287.99" y="-502" font-family="Arial" font-size="14.00" fill="#666666">[float]</text>
<polygon fill="none" stroke="black" points="1148.71,-459 1148.71,-489.8 1459.03,-489.8 1459.03,-459 1148.71,-459"/>
<text text-anchor="start" x="1155.71" y="-471.2" font-family="Arial" font-size="14.00">isOnHold </text>
<text text-anchor="start" x="1217.18" y="-471.2" font-family="Arial" font-size="14.00" fill="#666666">[boolean]</text>
<polygon fill="none" stroke="black" points="1148.71,-428.2 1148.71,-459 1459.03,-459 1459.03,-428.2 1148.71,-428.2"/>
<text text-anchor="start" x="1155.71" y="-440.4" font-family="Arial" font-size="14.00">updatedAt </text>
<text text-anchor="start" x="1223.44" y="-440.4" font-family="Arial" font-size="14.00" fill="#666666">[datetime]</text>
<polygon fill="none" stroke="black" points="1148.71,-397.4 1148.71,-428.2 1459.03,-428.2 1459.03,-397.4 1148.71,-397.4"/>
<text text-anchor="start" x="1155.71" y="-409.6" font-family="Arial" font-size="14.00">onHoldQuantity </text>
<text text-anchor="start" x="1256.1" y="-409.6" font-family="Arial" font-size="14.00" fill="#666666">[float]</text>
<polygon fill="none" stroke="black" points="1148.71,-366.6 1148.71,-397.4 1459.03,-397.4 1459.03,-366.6 1148.71,-366.6"/>
<text text-anchor="start" x="1155.71" y="-378.8" font-family="Arial" font-size="14.00">averageCost </text>
<text text-anchor="start" x="1238.98" y="-378.8" font-family="Arial" font-size="14.00" fill="#666666">[float]</text>
<polygon fill="none" stroke="black" points="1148.71,-335.8 1148.71,-366.6 1459.03,-366.6 1459.03,-335.8 1148.71,-335.8"/>
<text text-anchor="start" x="1155.71" y="-348" font-family="Arial" font-size="14.00">receiptLineItemID </text>
<text text-anchor="start" x="1269.32" y="-348" font-family="Arial" font-size="14.00" fill="#666666">[uuid]</text>
<polygon fill="none" stroke="black" points="1148.71,-305 1148.71,-335.8 1459.03,-335.8 1459.03,-305 1148.71,-305"/>
<text text-anchor="start" x="1155.71" y="-317.2" font-family="Arial" font-size="14.00">receiptLineItem </text>
<text text-anchor="start" x="1255.32" y="-317.2" font-family="Arial" font-size="14.00" fill="#666666">[ReceiptLineItem]</text>
<polygon fill="none" stroke="black" points="1148.71,-274.2 1148.71,-305 1459.03,-305 1459.03,-274.2 1148.71,-274.2"/>
<text text-anchor="start" x="1155.71" y="-286.4" font-family="Arial" font-size="14.00">shipmentLineItemID </text>
<text text-anchor="start" x="1284.1" y="-286.4" font-family="Arial" font-size="14.00" fill="#666666">[uuid]</text>
<polygon fill="none" stroke="black" points="1148.71,-243.4 1148.71,-274.2 1459.03,-274.2 1459.03,-243.4 1148.71,-243.4"/>
<text text-anchor="start" x="1155.71" y="-255.6" font-family="Arial" font-size="14.00">sequence </text>
<text text-anchor="start" x="1220.32" y="-255.6" font-family="Arial" font-size="14.00" fill="#666666">[integer]</text>
<polygon fill="none" stroke="black" points="1148.71,-212.6 1148.71,-243.4 1459.03,-243.4 1459.03,-212.6 1148.71,-212.6"/>
<text text-anchor="start" x="1155.71" y="-224.8" font-family="Arial" font-size="14.00">active </text>
<text text-anchor="start" x="1196.17" y="-224.8" font-family="Arial" font-size="14.00" fill="#666666">[boolean]</text>
<polygon fill="none" stroke="black" points="1148.71,-181.8 1148.71,-212.6 1459.03,-212.6 1459.03,-181.8 1148.71,-181.8"/>
<text text-anchor="start" x="1155.71" y="-194" font-family="Arial" font-size="14.00">variantID </text>
<text text-anchor="start" x="1215.62" y="-194" font-family="Arial" font-size="14.00" fill="#666666">[uuid]</text>
<polygon fill="none" stroke="black" points="1148.71,-151 1148.71,-181.8 1459.03,-181.8 1459.03,-151 1148.71,-151"/>
<text text-anchor="start" x="1155.71" y="-163.2" font-family="Arial" font-size="14.00">unitCost </text>
<text text-anchor="start" x="1210.96" y="-163.2" font-family="Arial" font-size="14.00" fill="#666666">[float]</text>
<polygon fill="none" stroke="black" points="1148.71,-120.2 1148.71,-151 1459.03,-151 1459.03,-120.2 1148.71,-120.2"/>
<text text-anchor="start" x="1155.71" y="-132.4" font-family="Arial" font-size="14.00">inStockQuantity </text>
<text text-anchor="start" x="1257.65" y="-132.4" font-family="Arial" font-size="14.00" fill="#666666">[float]</text>
<polygon fill="none" stroke="black" points="1148.71,-89.4 1148.71,-120.2 1459.03,-120.2 1459.03,-89.4 1148.71,-89.4"/>
<text text-anchor="start" x="1155.71" y="-101.6" font-family="Arial" font-size="14.00">totalCost </text>
<text text-anchor="start" x="1214.85" y="-101.6" font-family="Arial" font-size="14.00" fill="#666666">[float]</text>
<polygon fill="none" stroke="black" points="1148.71,-58.6 1148.71,-89.4 1459.03,-89.4 1459.03,-58.6 1148.71,-58.6"/>
<text text-anchor="start" x="1155.71" y="-70.8" font-family="Arial" font-size="14.00">createdAt </text>
<text text-anchor="start" x="1219.53" y="-70.8" font-family="Arial" font-size="14.00" fill="#666666">[datetime]</text>
</g>
<!-- FinancialStockEvent&#45;&gt;OperationalStockEvent -->
<g id="edge4" class="edge">
<title>FinancialStockEvent:operationalStockEventID&#45;&gt;OperationalStockEvent:id</title>
<path fill="none" stroke="black" d="M897.75,-989.39C1013.63,-984.56 1024.48,-897.99 1096.87,-799.6 1128.69,-756.35 1094.01,-690 1147.71,-690"/>
<polygon fill="black" stroke="black" points="897.68,-989.39 887.59,-985.09 892.34,-989.5 888.01,-989.59 888.01,-989.59 888.01,-989.59 892.34,-989.5 887.77,-994.09 897.68,-989.39"/>
<text text-anchor="start" x="894.34" y="-999.6" font-family="Arial" font-size="10.00">ForeignKeyType: OperationalStockEvent</text>
</g>
</g>
</svg>
