<?xml version="1.0" encoding="UTF-8" standalone="no"?>
<!DOCTYPE svg PUBLIC "-//W3C//DTD SVG 1.1//EN"
 "http://www.w3.org/Graphics/SVG/1.1/DTD/svg11.dtd">
<!-- Generated by graphviz version 12.1.2 (20240928.0832)
 -->
<!-- Title: FinancialStockEvent Pages: 1 -->
<svg width="1510pt" height="1618pt"
 viewBox="0.00 0.00 1510.21 1618.40" xmlns="http://www.w3.org/2000/svg" xmlns:xlink="http://www.w3.org/1999/xlink">
<g id="graph0" class="graph" transform="scale(1 1) rotate(0) translate(4 1614.4)">
<title>FinancialStockEvent</title>
<polygon fill="white" stroke="none" points="-4,4 -4,-1614.4 1506.21,-1614.4 1506.21,4 -4,4"/>
<!-- FinancialStockEvent -->
<g id="node1" class="node">
<title>FinancialStockEvent</title>
<polygon fill="#efefef" stroke="none" points="566.38,-1528.6 566.38,-1564.2 875.33,-1564.2 875.33,-1528.6 566.38,-1528.6"/>
<polygon fill="none" stroke="black" points="566.38,-1528.6 566.38,-1564.2 875.33,-1564.2 875.33,-1528.6 566.38,-1528.6"/>
<text text-anchor="start" x="581.69" y="-1542" font-family="Arial Bold" font-size="18.00">FinancialStockEvent</text>
<text text-anchor="start" x="731.66" y="-1542" font-family="Arial" font-size="14.00">    </text>
<text text-anchor="start" x="762.77" y="-1542" font-family="Arial" font-size="14.00" fill="#666666">[TailorDB.Type]</text>
<polygon fill="none" stroke="black" points="566.38,-1497.8 566.38,-1528.6 875.33,-1528.6 875.33,-1497.8 566.38,-1497.8"/>
<text text-anchor="start" x="573.38" y="-1510" font-family="Arial" font-size="14.00">id </text>
<text text-anchor="start" x="588.17" y="-1510" font-family="Arial" font-size="14.00" fill="#666666">[uuid]</text>
<polygon fill="none" stroke="black" points="566.38,-1467 566.38,-1497.8 875.33,-1497.8 875.33,-1467 566.38,-1467"/>
<text text-anchor="start" x="573.38" y="-1479.2" font-family="Arial" font-size="14.00">onHoldQuantity </text>
<text text-anchor="start" x="673.77" y="-1479.2" font-family="Arial" font-size="14.00" fill="#666666">[float]</text>
<polygon fill="none" stroke="black" points="566.38,-1436.2 566.38,-1467 875.33,-1467 875.33,-1436.2 566.38,-1436.2"/>
<text text-anchor="start" x="573.38" y="-1448.4" font-family="Arial" font-size="14.00">totalCost </text>
<text text-anchor="start" x="632.52" y="-1448.4" font-family="Arial" font-size="14.00" fill="#666666">[float]</text>
<polygon fill="none" stroke="black" points="566.38,-1405.4 566.38,-1436.2 875.33,-1436.2 875.33,-1405.4 566.38,-1405.4"/>
<text text-anchor="start" x="573.38" y="-1417.6" font-family="Arial" font-size="14.00">receiptLineItem </text>
<text text-anchor="start" x="672.99" y="-1417.6" font-family="Arial" font-size="14.00" fill="#666666">[ReceiptLineItem]</text>
<polygon fill="none" stroke="black" points="566.38,-1374.6 566.38,-1405.4 875.33,-1405.4 875.33,-1374.6 566.38,-1374.6"/>
<text text-anchor="start" x="573.38" y="-1386.8" font-family="Arial" font-size="14.00">variantID </text>
<text text-anchor="start" x="633.29" y="-1386.8" font-family="Arial" font-size="14.00" fill="#666666">[uuid]</text>
<polygon fill="none" stroke="black" points="566.38,-1343.8 566.38,-1374.6 875.33,-1374.6 875.33,-1343.8 566.38,-1343.8"/>
<text text-anchor="start" x="573.38" y="-1356" font-family="Arial" font-size="14.00">isOnHold </text>
<text text-anchor="start" x="634.85" y="-1356" font-family="Arial" font-size="14.00" fill="#666666">[boolean]</text>
<polygon fill="none" stroke="black" points="566.38,-1313 566.38,-1343.8 875.33,-1343.8 875.33,-1313 566.38,-1313"/>
<text text-anchor="start" x="573.38" y="-1325.2" font-family="Arial" font-size="14.00">shipmentLineItemID </text>
<text text-anchor="start" x="701.77" y="-1325.2" font-family="Arial" font-size="14.00" fill="#666666">[uuid]</text>
<polygon fill="none" stroke="black" points="566.38,-1282.2 566.38,-1313 875.33,-1313 875.33,-1282.2 566.38,-1282.2"/>
<text text-anchor="start" x="573.38" y="-1294.4" font-family="Arial" font-size="14.00">operationalStockEventID </text>
<text text-anchor="start" x="731.36" y="-1294.4" font-family="Arial" font-size="14.00" fill="#666666">[uuid]</text>
<polygon fill="none" stroke="black" points="566.38,-1251.4 566.38,-1282.2 875.33,-1282.2 875.33,-1251.4 566.38,-1251.4"/>
<text text-anchor="start" x="573.38" y="-1263.6" font-family="Arial" font-size="14.00">unitCost </text>
<text text-anchor="start" x="628.63" y="-1263.6" font-family="Arial" font-size="14.00" fill="#666666">[float]</text>
<polygon fill="none" stroke="black" points="566.38,-1220.6 566.38,-1251.4 875.33,-1251.4 875.33,-1220.6 566.38,-1220.6"/>
<text text-anchor="start" x="573.38" y="-1232.8" font-family="Arial" font-size="14.00">availableQuantity </text>
<text text-anchor="start" x="684.67" y="-1232.8" font-family="Arial" font-size="14.00" fill="#666666">[float]</text>
<polygon fill="none" stroke="black" points="566.38,-1189.8 566.38,-1220.6 875.33,-1220.6 875.33,-1189.8 566.38,-1189.8"/>
<text text-anchor="start" x="573.38" y="-1202" font-family="Arial" font-size="14.00">inStockQuantity </text>
<text text-anchor="start" x="675.32" y="-1202" font-family="Arial" font-size="14.00" fill="#666666">[float]</text>
<polygon fill="none" stroke="black" points="566.38,-1159 566.38,-1189.8 875.33,-1189.8 875.33,-1159 566.38,-1159"/>
<text text-anchor="start" x="573.38" y="-1171.2" font-family="Arial" font-size="14.00">averageCost </text>
<text text-anchor="start" x="656.65" y="-1171.2" font-family="Arial" font-size="14.00" fill="#666666">[float]</text>
<polygon fill="none" stroke="black" points="566.38,-1128.2 566.38,-1159 875.33,-1159 875.33,-1128.2 566.38,-1128.2"/>
<text text-anchor="start" x="573.38" y="-1140.4" font-family="Arial" font-size="14.00">shipmentLineItem </text>
<text text-anchor="start" x="687.77" y="-1140.4" font-family="Arial" font-size="14.00" fill="#666666">[ShipmentLineItem]</text>
<polygon fill="none" stroke="black" points="566.38,-1097.4 566.38,-1128.2 875.33,-1128.2 875.33,-1097.4 566.38,-1097.4"/>
<text text-anchor="start" x="573.38" y="-1109.6" font-family="Arial" font-size="14.00">receiptLineItemID </text>
<text text-anchor="start" x="686.99" y="-1109.6" font-family="Arial" font-size="14.00" fill="#666666">[uuid]</text>
<polygon fill="none" stroke="black" points="566.38,-1066.6 566.38,-1097.4 875.33,-1097.4 875.33,-1066.6 566.38,-1066.6"/>
<text text-anchor="start" x="573.38" y="-1078.8" font-family="Arial" font-size="14.00">operationalStockEvent </text>
<text text-anchor="start" x="717.36" y="-1078.8" font-family="Arial" font-size="14.00" fill="#666666">[OperationalStockEvent]</text>
<polygon fill="none" stroke="black" points="566.38,-1035.8 566.38,-1066.6 875.33,-1066.6 875.33,-1035.8 566.38,-1035.8"/>
<text text-anchor="start" x="573.38" y="-1048" font-family="Arial" font-size="14.00">active </text>
<text text-anchor="start" x="613.84" y="-1048" font-family="Arial" font-size="14.00" fill="#666666">[boolean]</text>
<polygon fill="none" stroke="black" points="566.38,-1005 566.38,-1035.8 875.33,-1035.8 875.33,-1005 566.38,-1005"/>
<text text-anchor="start" x="573.38" y="-1017.2" font-family="Arial" font-size="14.00">createdAt </text>
<text text-anchor="start" x="637.19" y="-1017.2" font-family="Arial" font-size="14.00" fill="#666666">[datetime]</text>
<polygon fill="none" stroke="black" points="566.38,-974.2 566.38,-1005 875.33,-1005 875.33,-974.2 566.38,-974.2"/>
<text text-anchor="start" x="573.38" y="-986.4" font-family="Arial" font-size="14.00">updatedAt </text>
<text text-anchor="start" x="641.1" y="-986.4" font-family="Arial" font-size="14.00" fill="#666666">[datetime]</text>
<polygon fill="none" stroke="black" points="566.38,-943.4 566.38,-974.2 875.33,-974.2 875.33,-943.4 566.38,-943.4"/>
<text text-anchor="start" x="573.38" y="-955.6" font-family="Arial" font-size="14.00">variant </text>
<text text-anchor="start" x="619.29" y="-955.6" font-family="Arial" font-size="14.00" fill="#666666">[ProductVariant]</text>
<polygon fill="none" stroke="black" points="566.38,-912.6 566.38,-943.4 875.33,-943.4 875.33,-912.6 566.38,-912.6"/>
<text text-anchor="start" x="573.38" y="-924.8" font-family="Arial" font-size="14.00">incrementalQuantity </text>
<text text-anchor="start" x="701.77" y="-924.8" font-family="Arial" font-size="14.00" fill="#666666">[float]</text>
<polygon fill="none" stroke="black" points="566.38,-881.8 566.38,-912.6 875.33,-912.6 875.33,-881.8 566.38,-881.8"/>
<text text-anchor="start" x="573.38" y="-894" font-family="Arial" font-size="14.00">transactionTotalCost </text>
<text text-anchor="start" x="705.66" y="-894" font-family="Arial" font-size="14.00" fill="#666666">[float]</text>
<polygon fill="none" stroke="black" stroke-width="3" points="564.88,-880.3 564.88,-1565.7 876.83,-1565.7 876.83,-880.3 564.88,-880.3"/>
</g>
<!-- ReceiptLineItem -->
<g id="node2" class="node">
<title>ReceiptLineItem</title>
<polygon fill="#efefef" stroke="none" points="43.2,-659.2 43.2,-694.8 306.51,-694.8 306.51,-659.2 43.2,-659.2"/>
<polygon fill="none" stroke="black" points="43.2,-659.2 43.2,-694.8 306.51,-694.8 306.51,-659.2 43.2,-659.2"/>
<text text-anchor="start" x="50.2" y="-672.6" font-family="Arial Bold" font-size="18.00">ReceiptLineItem</text>
<text text-anchor="start" x="171.15" y="-672.6" font-family="Arial" font-size="14.00">    </text>
<text text-anchor="start" x="202.26" y="-672.6" font-family="Arial" font-size="14.00" fill="#666666">[TailorDB.Type]</text>
<polygon fill="none" stroke="black" points="43.2,-628.4 43.2,-659.2 306.51,-659.2 306.51,-628.4 43.2,-628.4"/>
<text text-anchor="start" x="50.2" y="-640.6" font-family="Arial" font-size="14.00">id </text>
<text text-anchor="start" x="64.99" y="-640.6" font-family="Arial" font-size="14.00" fill="#666666">[uuid]</text>
<polygon fill="none" stroke="black" points="43.2,-597.6 43.2,-628.4 306.51,-628.4 306.51,-597.6 43.2,-597.6"/>
<text text-anchor="start" x="50.2" y="-609.8" font-family="Arial" font-size="14.00">receiptID </text>
<text text-anchor="start" x="110.11" y="-609.8" font-family="Arial" font-size="14.00" fill="#666666">[uuid]</text>
<polygon fill="none" stroke="black" points="43.2,-566.8 43.2,-597.6 306.51,-597.6 306.51,-566.8 43.2,-566.8"/>
<text text-anchor="start" x="50.2" y="-579" font-family="Arial" font-size="14.00">variantID </text>
<text text-anchor="start" x="110.11" y="-579" font-family="Arial" font-size="14.00" fill="#666666">[uuid]</text>
<polygon fill="none" stroke="black" points="43.2,-536 43.2,-566.8 306.51,-566.8 306.51,-536 43.2,-536"/>
<text text-anchor="start" x="50.2" y="-548.2" font-family="Arial" font-size="14.00">subtotalUnitCost </text>
<text text-anchor="start" x="156.81" y="-548.2" font-family="Arial" font-size="14.00" fill="#666666">[float]</text>
<polygon fill="none" stroke="black" points="43.2,-505.2 43.2,-536 306.51,-536 306.51,-505.2 43.2,-505.2"/>
<text text-anchor="start" x="50.2" y="-517.4" font-family="Arial" font-size="14.00">unitCostPoolAllocation </text>
<text text-anchor="start" x="194.17" y="-517.4" font-family="Arial" font-size="14.00" fill="#666666">[float]</text>
<polygon fill="none" stroke="black" points="43.2,-474.4 43.2,-505.2 306.51,-505.2 306.51,-474.4 43.2,-474.4"/>
<text text-anchor="start" x="50.2" y="-486.6" font-family="Arial" font-size="14.00">active </text>
<text text-anchor="start" x="90.66" y="-486.6" font-family="Arial" font-size="14.00" fill="#666666">[boolean]</text>
<polygon fill="none" stroke="black" points="43.2,-443.6 43.2,-474.4 306.51,-474.4 306.51,-443.6 43.2,-443.6"/>
<text text-anchor="start" x="50.2" y="-455.8" font-family="Arial" font-size="14.00">receipt </text>
<text text-anchor="start" x="96.11" y="-455.8" font-family="Arial" font-size="14.00" fill="#666666">[Receipt]</text>
<polygon fill="none" stroke="black" points="43.2,-412.8 43.2,-443.6 306.51,-443.6 306.51,-412.8 43.2,-412.8"/>
<text text-anchor="start" x="50.2" y="-425" font-family="Arial" font-size="14.00">variant </text>
<text text-anchor="start" x="96.11" y="-425" font-family="Arial" font-size="14.00" fill="#666666">[ProductVariant]</text>
<polygon fill="none" stroke="black" points="43.2,-382 43.2,-412.8 306.51,-412.8 306.51,-382 43.2,-382"/>
<text text-anchor="start" x="50.2" y="-394.2" font-family="Arial" font-size="14.00">quantity </text>
<text text-anchor="start" x="103.12" y="-394.2" font-family="Arial" font-size="14.00" fill="#666666">[float]</text>
<polygon fill="none" stroke="black" points="43.2,-351.2 43.2,-382 306.51,-382 306.51,-351.2 43.2,-351.2"/>
<text text-anchor="start" x="50.2" y="-363.4" font-family="Arial" font-size="14.00">subtotalCost </text>
<text text-anchor="start" x="131.91" y="-363.4" font-family="Arial" font-size="14.00" fill="#666666">[float]</text>
<polygon fill="none" stroke="black" points="43.2,-320.4 43.2,-351.2 306.51,-351.2 306.51,-320.4 43.2,-320.4"/>
<text text-anchor="start" x="50.2" y="-332.6" font-family="Arial" font-size="14.00">totalUnitCost </text>
<text text-anchor="start" x="134.23" y="-332.6" font-family="Arial" font-size="14.00" fill="#666666">[float]</text>
<polygon fill="none" stroke="black" points="43.2,-289.6 43.2,-320.4 306.51,-320.4 306.51,-289.6 43.2,-289.6"/>
<text text-anchor="start" x="50.2" y="-301.8" font-family="Arial" font-size="14.00">receivedAt </text>
<text text-anchor="start" x="120.23" y="-301.8" font-family="Arial" font-size="14.00" fill="#666666">[datetime]</text>
<polygon fill="none" stroke="black" points="43.2,-258.8 43.2,-289.6 306.51,-289.6 306.51,-258.8 43.2,-258.8"/>
<text text-anchor="start" x="50.2" y="-271" font-family="Arial" font-size="14.00">createdAt </text>
<text text-anchor="start" x="114.01" y="-271" font-family="Arial" font-size="14.00" fill="#666666">[datetime]</text>
<polygon fill="none" stroke="black" points="43.2,-228 43.2,-258.8 306.51,-258.8 306.51,-228 43.2,-228"/>
<text text-anchor="start" x="50.2" y="-240.2" font-family="Arial" font-size="14.00">updatedAt </text>
<text text-anchor="start" x="117.92" y="-240.2" font-family="Arial" font-size="14.00" fill="#666666">[datetime]</text>
<polygon fill="none" stroke="black" points="43.2,-197.2 43.2,-228 306.51,-228 306.51,-197.2 43.2,-197.2"/>
<text text-anchor="start" x="50.2" y="-209.4" font-family="Arial" font-size="14.00">cubicMeters </text>
<text text-anchor="start" x="129.56" y="-209.4" font-family="Arial" font-size="14.00" fill="#666666">[float]</text>
<polygon fill="none" stroke="black" points="43.2,-166.4 43.2,-197.2 306.51,-197.2 306.51,-166.4 43.2,-166.4"/>
<text text-anchor="start" x="50.2" y="-178.6" font-family="Arial" font-size="14.00">costPools </text>
<text text-anchor="start" x="114.79" y="-178.6" font-family="Arial" font-size="14.00" fill="#666666">[Array\&lt;nested\&gt;]</text>
<polygon fill="none" stroke="black" points="43.2,-135.6 43.2,-166.4 306.51,-166.4 306.51,-135.6 43.2,-135.6"/>
<text text-anchor="start" x="50.2" y="-147.8" font-family="Arial" font-size="14.00">totalCostPoolAllocation </text>
<text text-anchor="start" x="198.06" y="-147.8" font-family="Arial" font-size="14.00" fill="#666666">[float]</text>
<polygon fill="none" stroke="black" points="43.2,-104.8 43.2,-135.6 306.51,-135.6 306.51,-104.8 43.2,-104.8"/>
<text text-anchor="start" x="50.2" y="-117" font-family="Arial" font-size="14.00">receiptStatus </text>
<text text-anchor="start" x="135.8" y="-117" font-family="Arial" font-size="14.00" fill="#666666">[enum]</text>
</g>
<!-- FinancialStockEvent&#45;&gt;ReceiptLineItem -->
<g id="edge1" class="edge">
<title>FinancialStockEvent:receiptLineItemID&#45;&gt;ReceiptLineItem:id</title>
<path fill="none" stroke="black" d="M555.37,-1112.6C399.94,-1106.12 429.99,-946.61 358.86,-799.6 327.1,-733.97 380.42,-643.8 307.51,-643.8"/>
<polygon fill="black" stroke="black" points="555.05,-1112.59 564.95,-1117.29 560.38,-1112.7 564.71,-1112.79 564.71,-1112.79 564.71,-1112.79 560.38,-1112.7 565.14,-1108.29 555.05,-1112.59"/>
<text text-anchor="start" x="407.19" y="-1122.8" font-family="Arial" font-size="10.00">ForeignKeyType: ReceiptLineItem</text>
</g>
<!-- ProductVariant -->
<g id="node3" class="node">
<title>ProductVariant</title>
<polygon fill="#efefef" stroke="none" points="410.69,-720.8 410.69,-756.4 663.02,-756.4 663.02,-720.8 410.69,-720.8"/>
<polygon fill="none" stroke="black" points="410.69,-720.8 410.69,-756.4 663.02,-756.4 663.02,-720.8 410.69,-720.8"/>
<text text-anchor="start" x="417.69" y="-734.2" font-family="Arial Bold" font-size="18.00">ProductVariant</text>
<text text-anchor="start" x="527.66" y="-734.2" font-family="Arial" font-size="14.00">    </text>
<text text-anchor="start" x="558.77" y="-734.2" font-family="Arial" font-size="14.00" fill="#666666">[TailorDB.Type]</text>
<polygon fill="none" stroke="black" points="410.69,-690 410.69,-720.8 663.02,-720.8 663.02,-690 410.69,-690"/>
<text text-anchor="start" x="417.69" y="-702.2" font-family="Arial" font-size="14.00">id </text>
<text text-anchor="start" x="432.47" y="-702.2" font-family="Arial" font-size="14.00" fill="#666666">[uuid]</text>
<polygon fill="none" stroke="black" points="410.69,-659.2 410.69,-690 663.02,-690 663.02,-659.2 410.69,-659.2"/>
<text text-anchor="start" x="417.69" y="-671.4" font-family="Arial" font-size="14.00">shopifyID </text>
<text text-anchor="start" x="479.94" y="-671.4" font-family="Arial" font-size="14.00" fill="#666666">[string]</text>
<polygon fill="none" stroke="black" points="410.69,-628.4 410.69,-659.2 663.02,-659.2 663.02,-628.4 410.69,-628.4"/>
<text text-anchor="start" x="417.69" y="-640.6" font-family="Arial" font-size="14.00">availableForSale </text>
<text text-anchor="start" x="525.86" y="-640.6" font-family="Arial" font-size="14.00" fill="#666666">[boolean]</text>
<polygon fill="none" stroke="black" points="410.69,-597.6 410.69,-628.4 663.02,-628.4 663.02,-597.6 410.69,-597.6"/>
<text text-anchor="start" x="417.69" y="-609.8" font-family="Arial" font-size="14.00">displayName </text>
<text text-anchor="start" x="502.5" y="-609.8" font-family="Arial" font-size="14.00" fill="#666666">[string]</text>
<polygon fill="none" stroke="black" points="410.69,-566.8 410.69,-597.6 663.02,-597.6 663.02,-566.8 410.69,-566.8"/>
<text text-anchor="start" x="417.69" y="-579" font-family="Arial" font-size="14.00">price </text>
<text text-anchor="start" x="451.92" y="-579" font-family="Arial" font-size="14.00" fill="#666666">[float]</text>
<polygon fill="none" stroke="black" points="410.69,-536 410.69,-566.8 663.02,-566.8 663.02,-536 410.69,-536"/>
<text text-anchor="start" x="417.69" y="-548.2" font-family="Arial" font-size="14.00">product </text>
<text text-anchor="start" x="468.27" y="-548.2" font-family="Arial" font-size="14.00" fill="#666666">[Product]</text>
<polygon fill="none" stroke="black" points="410.69,-505.2 410.69,-536 663.02,-536 663.02,-505.2 410.69,-505.2"/>
<text text-anchor="start" x="417.69" y="-517.4" font-family="Arial" font-size="14.00">updatedAt </text>
<text text-anchor="start" x="485.41" y="-517.4" font-family="Arial" font-size="14.00" fill="#666666">[datetime]</text>
<polygon fill="none" stroke="black" points="410.69,-474.4 410.69,-505.2 663.02,-505.2 663.02,-474.4 410.69,-474.4"/>
<text text-anchor="start" x="417.69" y="-486.6" font-family="Arial" font-size="14.00">sku </text>
<text text-anchor="start" x="443.36" y="-486.6" font-family="Arial" font-size="14.00" fill="#666666">[string]</text>
<polygon fill="none" stroke="black" points="410.69,-443.6 410.69,-474.4 663.02,-474.4 663.02,-443.6 410.69,-443.6"/>
<text text-anchor="start" x="417.69" y="-455.8" font-family="Arial" font-size="14.00">image </text>
<text text-anchor="start" x="459.71" y="-455.8" font-family="Arial" font-size="14.00" fill="#666666">[ProductImage]</text>
<polygon fill="none" stroke="black" points="410.69,-412.8 410.69,-443.6 663.02,-443.6 663.02,-412.8 410.69,-412.8"/>
<text text-anchor="start" x="417.69" y="-425" font-family="Arial" font-size="14.00">inventoryItem </text>
<text text-anchor="start" x="505.61" y="-425" font-family="Arial" font-size="14.00" fill="#666666">[InventoryItem]</text>
<polygon fill="none" stroke="black" points="410.69,-382 410.69,-412.8 663.02,-412.8 663.02,-382 410.69,-382"/>
<text text-anchor="start" x="417.69" y="-394.2" font-family="Arial" font-size="14.00">inventoryType </text>
<text text-anchor="start" x="509.51" y="-394.2" font-family="Arial" font-size="14.00" fill="#666666">[enum]</text>
<polygon fill="none" stroke="black" points="410.69,-351.2 410.69,-382 663.02,-382 663.02,-351.2 410.69,-351.2"/>
<text text-anchor="start" x="417.69" y="-363.4" font-family="Arial" font-size="14.00">quickbookSyncToken </text>
<text text-anchor="start" x="554.65" y="-363.4" font-family="Arial" font-size="14.00" fill="#666666">[string]</text>
<polygon fill="none" stroke="black" points="410.69,-320.4 410.69,-351.2 663.02,-351.2 663.02,-320.4 410.69,-320.4"/>
<text text-anchor="start" x="417.69" y="-332.6" font-family="Arial" font-size="14.00">taxable </text>
<text text-anchor="start" x="466.72" y="-332.6" font-family="Arial" font-size="14.00" fill="#666666">[boolean]</text>
<polygon fill="none" stroke="black" points="410.69,-289.6 410.69,-320.4 663.02,-320.4 663.02,-289.6 410.69,-289.6"/>
<text text-anchor="start" x="417.69" y="-301.8" font-family="Arial" font-size="14.00">quickbookItemId </text>
<text text-anchor="start" x="523.52" y="-301.8" font-family="Arial" font-size="14.00" fill="#666666">[string]</text>
<polygon fill="none" stroke="black" points="410.69,-258.8 410.69,-289.6 663.02,-289.6 663.02,-258.8 410.69,-258.8"/>
<text text-anchor="start" x="417.69" y="-271" font-family="Arial" font-size="14.00">createdAt </text>
<text text-anchor="start" x="481.5" y="-271" font-family="Arial" font-size="14.00" fill="#666666">[datetime]</text>
<polygon fill="none" stroke="black" points="410.69,-228 410.69,-258.8 663.02,-258.8 663.02,-228 410.69,-228"/>
<text text-anchor="start" x="417.69" y="-240.2" font-family="Arial" font-size="14.00">barcode </text>
<text text-anchor="start" x="472.17" y="-240.2" font-family="Arial" font-size="14.00" fill="#666666">[string]</text>
<polygon fill="none" stroke="black" points="410.69,-197.2 410.69,-228 663.02,-228 663.02,-197.2 410.69,-197.2"/>
<text text-anchor="start" x="417.69" y="-209.4" font-family="Arial" font-size="14.00">imageID </text>
<text text-anchor="start" x="473.71" y="-209.4" font-family="Arial" font-size="14.00" fill="#666666">[uuid]</text>
<polygon fill="none" stroke="black" points="410.69,-166.4 410.69,-197.2 663.02,-197.2 663.02,-166.4 410.69,-166.4"/>
<text text-anchor="start" x="417.69" y="-178.6" font-family="Arial" font-size="14.00">inventoryQuantity </text>
<text text-anchor="start" x="530.52" y="-178.6" font-family="Arial" font-size="14.00" fill="#666666">[integer]</text>
<polygon fill="none" stroke="black" points="410.69,-135.6 410.69,-166.4 663.02,-166.4 663.02,-135.6 410.69,-135.6"/>
<text text-anchor="start" x="417.69" y="-147.8" font-family="Arial" font-size="14.00">productID </text>
<text text-anchor="start" x="482.27" y="-147.8" font-family="Arial" font-size="14.00" fill="#666666">[uuid]</text>
<polygon fill="none" stroke="black" points="410.69,-104.8 410.69,-135.6 663.02,-135.6 663.02,-104.8 410.69,-104.8"/>
<text text-anchor="start" x="417.69" y="-117" font-family="Arial" font-size="14.00">active </text>
<text text-anchor="start" x="458.15" y="-117" font-family="Arial" font-size="14.00" fill="#666666">[boolean]</text>
<polygon fill="none" stroke="black" points="410.69,-74 410.69,-104.8 663.02,-104.8 663.02,-74 410.69,-74"/>
<text text-anchor="start" x="417.69" y="-86.2" font-family="Arial" font-size="14.00">inventoryItemID </text>
<text text-anchor="start" x="519.61" y="-86.2" font-family="Arial" font-size="14.00" fill="#666666">[uuid]</text>
<polygon fill="none" stroke="black" points="410.69,-43.2 410.69,-74 663.02,-74 663.02,-43.2 410.69,-43.2"/>
<text text-anchor="start" x="417.69" y="-55.4" font-family="Arial" font-size="14.00">quickbookItemName </text>
<text text-anchor="start" x="549.19" y="-55.4" font-family="Arial" font-size="14.00" fill="#666666">[string]</text>
</g>
<!-- FinancialStockEvent&#45;&gt;ProductVariant -->
<g id="edge2" class="edge">
<title>FinancialStockEvent:variantID&#45;&gt;ProductVariant:id</title>
<path fill="none" stroke="black" d="M555.12,-1389.79C322.01,-1380.06 427.62,-1034.98 566.38,-835.6 592.56,-797.98 636.67,-837.11 663.02,-799.6 687.09,-765.34 705.89,-705.4 664.02,-705.4"/>
<polygon fill="black" stroke="black" points="555.05,-1389.79 564.95,-1394.49 560.38,-1389.9 564.71,-1389.99 564.71,-1389.99 564.71,-1389.99 560.38,-1389.9 565.14,-1385.49 555.05,-1389.79"/>
<text text-anchor="start" x="454.99" y="-1400" font-family="Arial" font-size="10.00">Source: ProductVariant</text>
</g>
<!-- ShipmentLineItem -->
<g id="node4" class="node">
<title>ShipmentLineItem</title>
<polygon fill="#efefef" stroke="none" points="767.19,-597.6 767.19,-633.2 1044.53,-633.2 1044.53,-597.6 767.19,-597.6"/>
<polygon fill="none" stroke="black" points="767.19,-597.6 767.19,-633.2 1044.53,-633.2 1044.53,-597.6 767.19,-597.6"/>
<text text-anchor="start" x="774.19" y="-611" font-family="Arial Bold" font-size="18.00">ShipmentLineItem</text>
<text text-anchor="start" x="909.16" y="-611" font-family="Arial" font-size="14.00">    </text>
<text text-anchor="start" x="940.28" y="-611" font-family="Arial" font-size="14.00" fill="#666666">[TailorDB.Type]</text>
<polygon fill="none" stroke="black" points="767.19,-566.8 767.19,-597.6 1044.53,-597.6 1044.53,-566.8 767.19,-566.8"/>
<text text-anchor="start" x="774.19" y="-579" font-family="Arial" font-size="14.00">id </text>
<text text-anchor="start" x="788.97" y="-579" font-family="Arial" font-size="14.00" fill="#666666">[uuid]</text>
<polygon fill="none" stroke="black" points="767.19,-536 767.19,-566.8 1044.53,-566.8 1044.53,-536 767.19,-536"/>
<text text-anchor="start" x="774.19" y="-548.2" font-family="Arial" font-size="14.00">shipment </text>
<text text-anchor="start" x="834.88" y="-548.2" font-family="Arial" font-size="14.00" fill="#666666">[Shipment]</text>
<polygon fill="none" stroke="black" points="767.19,-505.2 767.19,-536 1044.53,-536 1044.53,-505.2 767.19,-505.2"/>
<text text-anchor="start" x="774.19" y="-517.4" font-family="Arial" font-size="14.00">unitPrice </text>
<text text-anchor="start" x="832.54" y="-517.4" font-family="Arial" font-size="14.00" fill="#666666">[float]</text>
<polygon fill="none" stroke="black" points="767.19,-474.4 767.19,-505.2 1044.53,-505.2 1044.53,-474.4 767.19,-474.4"/>
<text text-anchor="start" x="774.19" y="-486.6" font-family="Arial" font-size="14.00">updatedAt </text>
<text text-anchor="start" x="841.91" y="-486.6" font-family="Arial" font-size="14.00" fill="#666666">[datetime]</text>
<polygon fill="none" stroke="black" points="767.19,-443.6 767.19,-474.4 1044.53,-474.4 1044.53,-443.6 767.19,-443.6"/>
<text text-anchor="start" x="774.19" y="-455.8" font-family="Arial" font-size="14.00">variantID </text>
<text text-anchor="start" x="834.1" y="-455.8" font-family="Arial" font-size="14.00" fill="#666666">[uuid]</text>
<polygon fill="none" stroke="black" points="767.19,-412.8 767.19,-443.6 1044.53,-443.6 1044.53,-412.8 767.19,-412.8"/>
<text text-anchor="start" x="774.19" y="-425" font-family="Arial" font-size="14.00">variant </text>
<text text-anchor="start" x="820.1" y="-425" font-family="Arial" font-size="14.00" fill="#666666">[ProductVariant]</text>
<polygon fill="none" stroke="black" points="767.19,-382 767.19,-412.8 1044.53,-412.8 1044.53,-382 767.19,-382"/>
<text text-anchor="start" x="774.19" y="-394.2" font-family="Arial" font-size="14.00">taxable </text>
<text text-anchor="start" x="823.22" y="-394.2" font-family="Arial" font-size="14.00" fill="#666666">[boolean]</text>
<polygon fill="none" stroke="black" points="767.19,-351.2 767.19,-382 1044.53,-382 1044.53,-351.2 767.19,-351.2"/>
<text text-anchor="start" x="774.19" y="-363.4" font-family="Arial" font-size="14.00">shippedAt </text>
<text text-anchor="start" x="840.34" y="-363.4" font-family="Arial" font-size="14.00" fill="#666666">[datetime]</text>
<polygon fill="none" stroke="black" points="767.19,-320.4 767.19,-351.2 1044.53,-351.2 1044.53,-320.4 767.19,-320.4"/>
<text text-anchor="start" x="774.19" y="-332.6" font-family="Arial" font-size="14.00">shipmentID </text>
<text text-anchor="start" x="848.88" y="-332.6" font-family="Arial" font-size="14.00" fill="#666666">[uuid]</text>
<polygon fill="none" stroke="black" points="767.19,-289.6 767.19,-320.4 1044.53,-320.4 1044.53,-289.6 767.19,-289.6"/>
<text text-anchor="start" x="774.19" y="-301.8" font-family="Arial" font-size="14.00">createdAt </text>
<text text-anchor="start" x="838" y="-301.8" font-family="Arial" font-size="14.00" fill="#666666">[datetime]</text>
<polygon fill="none" stroke="black" points="767.19,-258.8 767.19,-289.6 1044.53,-289.6 1044.53,-258.8 767.19,-258.8"/>
<text text-anchor="start" x="774.19" y="-271" font-family="Arial" font-size="14.00">unitCost </text>
<text text-anchor="start" x="829.43" y="-271" font-family="Arial" font-size="14.00" fill="#666666">[float]</text>
<polygon fill="none" stroke="black" points="767.19,-228 767.19,-258.8 1044.53,-258.8 1044.53,-228 767.19,-228"/>
<text text-anchor="start" x="774.19" y="-240.2" font-family="Arial" font-size="14.00">quantity </text>
<text text-anchor="start" x="827.11" y="-240.2" font-family="Arial" font-size="14.00" fill="#666666">[float]</text>
<polygon fill="none" stroke="black" points="767.19,-197.2 767.19,-228 1044.53,-228 1044.53,-197.2 767.19,-197.2"/>
<text text-anchor="start" x="774.19" y="-209.4" font-family="Arial" font-size="14.00">shipmentStatus </text>
<text text-anchor="start" x="874.57" y="-209.4" font-family="Arial" font-size="14.00" fill="#666666">[enum]</text>
<polygon fill="none" stroke="black" points="767.19,-166.4 767.19,-197.2 1044.53,-197.2 1044.53,-166.4 767.19,-166.4"/>
<text text-anchor="start" x="774.19" y="-178.6" font-family="Arial" font-size="14.00">active </text>
<text text-anchor="start" x="814.65" y="-178.6" font-family="Arial" font-size="14.00" fill="#666666">[boolean]</text>
</g>
<!-- FinancialStockEvent&#45;&gt;ShipmentLineItem -->
<g id="edge3" class="edge">
<title>FinancialStockEvent:shipmentLineItemID&#45;&gt;ShipmentLineItem:id</title>
<path fill="none" stroke="black" d="M886.63,-1328.18C1090.37,-1319.28 938.88,-1041.51 875.33,-835.6 850.11,-753.87 792.76,-758.02 767.19,-676.4 754.67,-636.45 724.32,-582.2 766.19,-582.2"/>
<polygon fill="black" stroke="black" points="886.66,-1328.18 876.57,-1323.89 881.33,-1328.29 877,-1328.39 877,-1328.39 877,-1328.39 881.33,-1328.29 876.76,-1332.89 886.66,-1328.18"/>
<text text-anchor="start" x="883.33" y="-1338.4" font-family="Arial" font-size="10.00">ForeignKeyType: ShipmentLineItem</text>
</g>
<!-- OperationalStockEvent -->
<g id="node5" class="node">
<title>OperationalStockEvent</title>
<polygon fill="#efefef" stroke="none" points="1148.7,-705.4 1148.7,-741 1459.01,-741 1459.01,-705.4 1148.7,-705.4"/>
<polygon fill="none" stroke="black" points="1148.7,-705.4 1148.7,-741 1459.01,-741 1459.01,-705.4 1148.7,-705.4"/>
<text text-anchor="start" x="1155.7" y="-718.8" font-family="Arial Bold" font-size="18.00">OperationalStockEvent</text>
<text text-anchor="start" x="1323.65" y="-718.8" font-family="Arial" font-size="14.00">    </text>
<text text-anchor="start" x="1354.77" y="-718.8" font-family="Arial" font-size="14.00" fill="#666666">[TailorDB.Type]</text>
<polygon fill="none" stroke="black" points="1148.7,-674.6 1148.7,-705.4 1459.01,-705.4 1459.01,-674.6 1148.7,-674.6"/>
<text text-anchor="start" x="1155.7" y="-686.8" font-family="Arial" font-size="14.00">id </text>
<text text-anchor="start" x="1170.48" y="-686.8" font-family="Arial" font-size="14.00" fill="#666666">[uuid]</text>
<polygon fill="none" stroke="black" points="1148.7,-643.8 1148.7,-674.6 1459.01,-674.6 1459.01,-643.8 1148.7,-643.8"/>
<text text-anchor="start" x="1155.7" y="-656" font-family="Arial" font-size="14.00">createdAt </text>
<text text-anchor="start" x="1219.51" y="-656" font-family="Arial" font-size="14.00" fill="#666666">[datetime]</text>
<polygon fill="none" stroke="black" points="1148.7,-613 1148.7,-643.8 1459.01,-643.8 1459.01,-613 1148.7,-613"/>
<text text-anchor="start" x="1155.7" y="-625.2" font-family="Arial" font-size="14.00">variantID </text>
<text text-anchor="start" x="1215.61" y="-625.2" font-family="Arial" font-size="14.00" fill="#666666">[uuid]</text>
<polygon fill="none" stroke="black" points="1148.7,-582.2 1148.7,-613 1459.01,-613 1459.01,-582.2 1148.7,-582.2"/>
<text text-anchor="start" x="1155.7" y="-594.4" font-family="Arial" font-size="14.00">variant </text>
<text text-anchor="start" x="1201.61" y="-594.4" font-family="Arial" font-size="14.00" fill="#666666">[ProductVariant]</text>
<polygon fill="none" stroke="black" points="1148.7,-551.4 1148.7,-582.2 1459.01,-582.2 1459.01,-551.4 1148.7,-551.4"/>
<text text-anchor="start" x="1155.7" y="-563.6" font-family="Arial" font-size="14.00">unitCost </text>
<text text-anchor="start" x="1210.95" y="-563.6" font-family="Arial" font-size="14.00" fill="#666666">[float]</text>
<polygon fill="none" stroke="black" points="1148.7,-520.6 1148.7,-551.4 1459.01,-551.4 1459.01,-520.6 1148.7,-520.6"/>
<text text-anchor="start" x="1155.7" y="-532.8" font-family="Arial" font-size="14.00">shipmentLineItem </text>
<text text-anchor="start" x="1270.09" y="-532.8" font-family="Arial" font-size="14.00" fill="#666666">[ShipmentLineItem]</text>
<polygon fill="none" stroke="black" points="1148.7,-489.8 1148.7,-520.6 1459.01,-520.6 1459.01,-489.8 1148.7,-489.8"/>
<text text-anchor="start" x="1155.7" y="-502" font-family="Arial" font-size="14.00">copiedToFinancialLedger </text>
<text text-anchor="start" x="1316.8" y="-502" font-family="Arial" font-size="14.00" fill="#666666">[boolean]</text>
<polygon fill="none" stroke="black" points="1148.7,-459 1148.7,-489.8 1459.01,-489.8 1459.01,-459 1148.7,-459"/>
<text text-anchor="start" x="1155.7" y="-471.2" font-family="Arial" font-size="14.00">active </text>
<text text-anchor="start" x="1196.16" y="-471.2" font-family="Arial" font-size="14.00" fill="#666666">[boolean]</text>
<polygon fill="none" stroke="black" points="1148.7,-428.2 1148.7,-459 1459.01,-459 1459.01,-428.2 1148.7,-428.2"/>
<text text-anchor="start" x="1155.7" y="-440.4" font-family="Arial" font-size="14.00">inStockQuantity </text>
<text text-anchor="start" x="1257.64" y="-440.4" font-family="Arial" font-size="14.00" fill="#666666">[float]</text>
<polygon fill="none" stroke="black" points="1148.7,-397.4 1148.7,-428.2 1459.01,-428.2 1459.01,-397.4 1148.7,-397.4"/>
<text text-anchor="start" x="1155.7" y="-409.6" font-family="Arial" font-size="14.00">receiptLineItem </text>
<text text-anchor="start" x="1255.3" y="-409.6" font-family="Arial" font-size="14.00" fill="#666666">[ReceiptLineItem]</text>
<polygon fill="none" stroke="black" points="1148.7,-366.6 1148.7,-397.4 1459.01,-397.4 1459.01,-366.6 1148.7,-366.6"/>
<text text-anchor="start" x="1155.7" y="-378.8" font-family="Arial" font-size="14.00">transactionTotalCost </text>
<text text-anchor="start" x="1287.98" y="-378.8" font-family="Arial" font-size="14.00" fill="#666666">[float]</text>
<polygon fill="none" stroke="black" points="1148.7,-335.8 1148.7,-366.6 1459.01,-366.6 1459.01,-335.8 1148.7,-335.8"/>
<text text-anchor="start" x="1155.7" y="-348" font-family="Arial" font-size="14.00">isOnHold </text>
<text text-anchor="start" x="1217.17" y="-348" font-family="Arial" font-size="14.00" fill="#666666">[boolean]</text>
<polygon fill="none" stroke="black" points="1148.7,-305 1148.7,-335.8 1459.01,-335.8 1459.01,-305 1148.7,-305"/>
<text text-anchor="start" x="1155.7" y="-317.2" font-family="Arial" font-size="14.00">onHoldQuantity </text>
<text text-anchor="start" x="1256.09" y="-317.2" font-family="Arial" font-size="14.00" fill="#666666">[float]</text>
<polygon fill="none" stroke="black" points="1148.7,-274.2 1148.7,-305 1459.01,-305 1459.01,-274.2 1148.7,-274.2"/>
<text text-anchor="start" x="1155.7" y="-286.4" font-family="Arial" font-size="14.00">availableQuantity </text>
<text text-anchor="start" x="1266.99" y="-286.4" font-family="Arial" font-size="14.00" fill="#666666">[float]</text>
<polygon fill="none" stroke="black" points="1148.7,-243.4 1148.7,-274.2 1459.01,-274.2 1459.01,-243.4 1148.7,-243.4"/>
<text text-anchor="start" x="1155.7" y="-255.6" font-family="Arial" font-size="14.00">receiptLineItemID </text>
<text text-anchor="start" x="1269.3" y="-255.6" font-family="Arial" font-size="14.00" fill="#666666">[uuid]</text>
<polygon fill="none" stroke="black" points="1148.7,-212.6 1148.7,-243.4 1459.01,-243.4 1459.01,-212.6 1148.7,-212.6"/>
<text text-anchor="start" x="1155.7" y="-224.8" font-family="Arial" font-size="14.00">updatedAt </text>
<text text-anchor="start" x="1223.42" y="-224.8" font-family="Arial" font-size="14.00" fill="#666666">[datetime]</text>
<polygon fill="none" stroke="black" points="1148.7,-181.8 1148.7,-212.6 1459.01,-212.6 1459.01,-181.8 1148.7,-181.8"/>
<text text-anchor="start" x="1155.7" y="-194" font-family="Arial" font-size="14.00">incrementalQuantity </text>
<text text-anchor="start" x="1284.09" y="-194" font-family="Arial" font-size="14.00" fill="#666666">[float]</text>
<polygon fill="none" stroke="black" points="1148.7,-151 1148.7,-181.8 1459.01,-181.8 1459.01,-151 1148.7,-151"/>
<text text-anchor="start" x="1155.7" y="-163.2" font-family="Arial" font-size="14.00">totalCost </text>
<text text-anchor="start" x="1214.84" y="-163.2" font-family="Arial" font-size="14.00" fill="#666666">[float]</text>
<polygon fill="none" stroke="black" points="1148.7,-120.2 1148.7,-151 1459.01,-151 1459.01,-120.2 1148.7,-120.2"/>
<text text-anchor="start" x="1155.7" y="-132.4" font-family="Arial" font-size="14.00">averageCost </text>
<text text-anchor="start" x="1238.97" y="-132.4" font-family="Arial" font-size="14.00" fill="#666666">[float]</text>
<polygon fill="none" stroke="black" points="1148.7,-89.4 1148.7,-120.2 1459.01,-120.2 1459.01,-89.4 1148.7,-89.4"/>
<text text-anchor="start" x="1155.7" y="-101.6" font-family="Arial" font-size="14.00">shipmentLineItemID </text>
<text text-anchor="start" x="1284.09" y="-101.6" font-family="Arial" font-size="14.00" fill="#666666">[uuid]</text>
<polygon fill="none" stroke="black" points="1148.7,-58.6 1148.7,-89.4 1459.01,-89.4 1459.01,-58.6 1148.7,-58.6"/>
<text text-anchor="start" x="1155.7" y="-70.8" font-family="Arial" font-size="14.00">sequence </text>
<text text-anchor="start" x="1220.3" y="-70.8" font-family="Arial" font-size="14.00" fill="#666666">[integer]</text>
</g>
<!-- FinancialStockEvent&#45;&gt;OperationalStockEvent -->
<g id="edge4" class="edge">
<title>FinancialStockEvent:operationalStockEventID&#45;&gt;OperationalStockEvent:id</title>
<path fill="none" stroke="black" d="M881.17,-1288.54C917.49,-1212.96 1143.41,-690 1147.7,-690"/>
<polygon fill="black" stroke="black" points="881.2,-1288.49 872.52,-1295.18 878.69,-1293.19 876.65,-1297.01 876.65,-1297.01 876.65,-1297.01 878.69,-1293.19 880.46,-1299.43 881.2,-1288.49"/>
<text text-anchor="start" x="883.33" y="-1307.6" font-family="Arial" font-size="10.00">ForeignKeyType: OperationalStockEvent</text>
</g>
</g>
</svg>
