<?xml version="1.0" encoding="UTF-8" standalone="no"?>
<!DOCTYPE svg PUBLIC "-//W3C//DTD SVG 1.1//EN"
 "http://www.w3.org/Graphics/SVG/1.1/DTD/svg11.dtd">
<!-- Generated by graphviz version 12.1.2 (20240928.0832)
 -->
<!-- Title: FinancialStockSummary Pages: 1 -->
<svg width="493pt" height="1310pt"
 viewBox="0.00 0.00 492.93 1310.40" xmlns="http://www.w3.org/2000/svg" xmlns:xlink="http://www.w3.org/1999/xlink">
<g id="graph0" class="graph" transform="scale(1 1) rotate(0) translate(4 1306.4)">
<title>FinancialStockSummary</title>
<polygon fill="white" stroke="none" points="-4,4 -4,-1306.4 488.93,-1306.4 488.93,4 -4,4"/>
<!-- FinancialStockSummary -->
<g id="node1" class="node">
<title>FinancialStockSummary</title>
<polygon fill="#efefef" stroke="none" points="46.2,-1220.6 46.2,-1256.2 366.54,-1256.2 366.54,-1220.6 46.2,-1220.6"/>
<polygon fill="none" stroke="black" points="46.2,-1220.6 46.2,-1256.2 366.54,-1256.2 366.54,-1220.6 46.2,-1220.6"/>
<text text-anchor="start" x="53.2" y="-1234" font-family="Arial Bold" font-size="18.00">FinancialStockSummary</text>
<text text-anchor="start" x="231.18" y="-1234" font-family="Arial" font-size="14.00">    </text>
<text text-anchor="start" x="262.3" y="-1234" font-family="Arial" font-size="14.00" fill="#666666">[TailorDB.Type]</text>
<polygon fill="none" stroke="black" points="46.2,-1189.8 46.2,-1220.6 366.54,-1220.6 366.54,-1189.8 46.2,-1189.8"/>
<text text-anchor="start" x="53.2" y="-1202" font-family="Arial" font-size="14.00">id </text>
<text text-anchor="start" x="67.99" y="-1202" font-family="Arial" font-size="14.00" fill="#666666">[uuid]</text>
<polygon fill="none" stroke="black" points="46.2,-1159 46.2,-1189.8 366.54,-1189.8 366.54,-1159 46.2,-1159"/>
<text text-anchor="start" x="53.2" y="-1171.2" font-family="Arial" font-size="14.00">createdAt </text>
<text text-anchor="start" x="117.01" y="-1171.2" font-family="Arial" font-size="14.00" fill="#666666">[datetime]</text>
<polygon fill="none" stroke="black" points="46.2,-1128.2 46.2,-1159 366.54,-1159 366.54,-1128.2 46.2,-1128.2"/>
<text text-anchor="start" x="53.2" y="-1140.4" font-family="Arial" font-size="14.00">variant </text>
<text text-anchor="start" x="99.11" y="-1140.4" font-family="Arial" font-size="14.00" fill="#666666">[ProductVariant]</text>
<polygon fill="none" stroke="black" points="46.2,-1097.4 46.2,-1128.2 366.54,-1128.2 366.54,-1097.4 46.2,-1097.4"/>
<text text-anchor="start" x="53.2" y="-1109.6" font-family="Arial" font-size="14.00">averageCost </text>
<text text-anchor="start" x="136.47" y="-1109.6" font-family="Arial" font-size="14.00" fill="#666666">[float]</text>
<polygon fill="none" stroke="black" points="46.2,-1066.6 46.2,-1097.4 366.54,-1097.4 366.54,-1066.6 46.2,-1066.6"/>
<text text-anchor="start" x="53.2" y="-1078.8" font-family="Arial" font-size="14.00">inStockQuantity </text>
<text text-anchor="start" x="155.14" y="-1078.8" font-family="Arial" font-size="14.00" fill="#666666">[float]</text>
<polygon fill="none" stroke="black" points="46.2,-1035.8 46.2,-1066.6 366.54,-1066.6 366.54,-1035.8 46.2,-1035.8"/>
<text text-anchor="start" x="53.2" y="-1048" font-family="Arial" font-size="14.00">totalCost </text>
<text text-anchor="start" x="112.34" y="-1048" font-family="Arial" font-size="14.00" fill="#666666">[float]</text>
<polygon fill="none" stroke="black" points="46.2,-1005 46.2,-1035.8 366.54,-1035.8 366.54,-1005 46.2,-1005"/>
<text text-anchor="start" x="53.2" y="-1017.2" font-family="Arial" font-size="14.00">active </text>
<text text-anchor="start" x="93.66" y="-1017.2" font-family="Arial" font-size="14.00" fill="#666666">[boolean]</text>
<polygon fill="none" stroke="black" points="46.2,-974.2 46.2,-1005 366.54,-1005 366.54,-974.2 46.2,-974.2"/>
<text text-anchor="start" x="53.2" y="-986.4" font-family="Arial" font-size="14.00">updatedAt </text>
<text text-anchor="start" x="120.92" y="-986.4" font-family="Arial" font-size="14.00" fill="#666666">[datetime]</text>
<polygon fill="none" stroke="black" points="46.2,-943.4 46.2,-974.2 366.54,-974.2 366.54,-943.4 46.2,-943.4"/>
<text text-anchor="start" x="53.2" y="-955.6" font-family="Arial" font-size="14.00">variantID </text>
<text text-anchor="start" x="113.11" y="-955.6" font-family="Arial" font-size="14.00" fill="#666666">[uuid]</text>
<polygon fill="none" stroke="black" points="46.2,-912.6 46.2,-943.4 366.54,-943.4 366.54,-912.6 46.2,-912.6"/>
<text text-anchor="start" x="53.2" y="-924.8" font-family="Arial" font-size="14.00">onHoldQuantity </text>
<text text-anchor="start" x="153.59" y="-924.8" font-family="Arial" font-size="14.00" fill="#666666">[float]</text>
<polygon fill="none" stroke="black" points="46.2,-881.8 46.2,-912.6 366.54,-912.6 366.54,-881.8 46.2,-881.8"/>
<text text-anchor="start" x="53.2" y="-894" font-family="Arial" font-size="14.00">availableQuantity </text>
<text text-anchor="start" x="164.49" y="-894" font-family="Arial" font-size="14.00" fill="#666666">[float]</text>
<polygon fill="none" stroke="black" stroke-width="3" points="44.7,-880.3 44.7,-1257.7 368.04,-1257.7 368.04,-880.3 44.7,-880.3"/>
</g>
<!-- ProductVariant -->
<g id="node2" class="node">
<title>ProductVariant</title>
<polygon fill="#efefef" stroke="none" points="80.2,-720.8 80.2,-756.4 332.54,-756.4 332.54,-720.8 80.2,-720.8"/>
<polygon fill="none" stroke="black" points="80.2,-720.8 80.2,-756.4 332.54,-756.4 332.54,-720.8 80.2,-720.8"/>
<text text-anchor="start" x="87.2" y="-734.2" font-family="Arial Bold" font-size="18.00">ProductVariant</text>
<text text-anchor="start" x="197.17" y="-734.2" font-family="Arial" font-size="14.00">    </text>
<text text-anchor="start" x="228.29" y="-734.2" font-family="Arial" font-size="14.00" fill="#666666">[TailorDB.Type]</text>
<polygon fill="none" stroke="black" points="80.2,-690 80.2,-720.8 332.54,-720.8 332.54,-690 80.2,-690"/>
<text text-anchor="start" x="87.2" y="-702.2" font-family="Arial" font-size="14.00">id </text>
<text text-anchor="start" x="101.99" y="-702.2" font-family="Arial" font-size="14.00" fill="#666666">[uuid]</text>
<polygon fill="none" stroke="black" points="80.2,-659.2 80.2,-690 332.54,-690 332.54,-659.2 80.2,-659.2"/>
<text text-anchor="start" x="87.2" y="-671.4" font-family="Arial" font-size="14.00">shopifyID </text>
<text text-anchor="start" x="149.45" y="-671.4" font-family="Arial" font-size="14.00" fill="#666666">[string]</text>
<polygon fill="none" stroke="black" points="80.2,-628.4 80.2,-659.2 332.54,-659.2 332.54,-628.4 80.2,-628.4"/>
<text text-anchor="start" x="87.2" y="-640.6" font-family="Arial" font-size="14.00">availableForSale </text>
<text text-anchor="start" x="195.38" y="-640.6" font-family="Arial" font-size="14.00" fill="#666666">[boolean]</text>
<polygon fill="none" stroke="black" points="80.2,-597.6 80.2,-628.4 332.54,-628.4 332.54,-597.6 80.2,-597.6"/>
<text text-anchor="start" x="87.2" y="-609.8" font-family="Arial" font-size="14.00">barcode </text>
<text text-anchor="start" x="141.69" y="-609.8" font-family="Arial" font-size="14.00" fill="#666666">[string]</text>
<polygon fill="none" stroke="black" points="80.2,-566.8 80.2,-597.6 332.54,-597.6 332.54,-566.8 80.2,-566.8"/>
<text text-anchor="start" x="87.2" y="-579" font-family="Arial" font-size="14.00">inventoryQuantity </text>
<text text-anchor="start" x="200.04" y="-579" font-family="Arial" font-size="14.00" fill="#666666">[integer]</text>
<polygon fill="none" stroke="black" points="80.2,-536 80.2,-566.8 332.54,-566.8 332.54,-536 80.2,-536"/>
<text text-anchor="start" x="87.2" y="-548.2" font-family="Arial" font-size="14.00">product </text>
<text text-anchor="start" x="137.79" y="-548.2" font-family="Arial" font-size="14.00" fill="#666666">[Product]</text>
<polygon fill="none" stroke="black" points="80.2,-505.2 80.2,-536 332.54,-536 332.54,-505.2 80.2,-505.2"/>
<text text-anchor="start" x="87.2" y="-517.4" font-family="Arial" font-size="14.00">quickbookItemName </text>
<text text-anchor="start" x="218.71" y="-517.4" font-family="Arial" font-size="14.00" fill="#666666">[string]</text>
<polygon fill="none" stroke="black" points="80.2,-474.4 80.2,-505.2 332.54,-505.2 332.54,-474.4 80.2,-474.4"/>
<text text-anchor="start" x="87.2" y="-486.6" font-family="Arial" font-size="14.00">price </text>
<text text-anchor="start" x="121.44" y="-486.6" font-family="Arial" font-size="14.00" fill="#666666">[float]</text>
<polygon fill="none" stroke="black" points="80.2,-443.6 80.2,-474.4 332.54,-474.4 332.54,-443.6 80.2,-443.6"/>
<text text-anchor="start" x="87.2" y="-455.8" font-family="Arial" font-size="14.00">productID </text>
<text text-anchor="start" x="151.79" y="-455.8" font-family="Arial" font-size="14.00" fill="#666666">[uuid]</text>
<polygon fill="none" stroke="black" points="80.2,-412.8 80.2,-443.6 332.54,-443.6 332.54,-412.8 80.2,-412.8"/>
<text text-anchor="start" x="87.2" y="-425" font-family="Arial" font-size="14.00">quickbookSyncToken </text>
<text text-anchor="start" x="224.17" y="-425" font-family="Arial" font-size="14.00" fill="#666666">[string]</text>
<polygon fill="none" stroke="black" points="80.2,-382 80.2,-412.8 332.54,-412.8 332.54,-382 80.2,-382"/>
<text text-anchor="start" x="87.2" y="-394.2" font-family="Arial" font-size="14.00">active </text>
<text text-anchor="start" x="127.67" y="-394.2" font-family="Arial" font-size="14.00" fill="#666666">[boolean]</text>
<polygon fill="none" stroke="black" points="80.2,-351.2 80.2,-382 332.54,-382 332.54,-351.2 80.2,-351.2"/>
<text text-anchor="start" x="87.2" y="-363.4" font-family="Arial" font-size="14.00">createdAt </text>
<text text-anchor="start" x="151.02" y="-363.4" font-family="Arial" font-size="14.00" fill="#666666">[datetime]</text>
<polygon fill="none" stroke="black" points="80.2,-320.4 80.2,-351.2 332.54,-351.2 332.54,-320.4 80.2,-320.4"/>
<text text-anchor="start" x="87.2" y="-332.6" font-family="Arial" font-size="14.00">displayName </text>
<text text-anchor="start" x="172.02" y="-332.6" font-family="Arial" font-size="14.00" fill="#666666">[string]</text>
<polygon fill="none" stroke="black" points="80.2,-289.6 80.2,-320.4 332.54,-320.4 332.54,-289.6 80.2,-289.6"/>
<text text-anchor="start" x="87.2" y="-301.8" font-family="Arial" font-size="14.00">image </text>
<text text-anchor="start" x="129.23" y="-301.8" font-family="Arial" font-size="14.00" fill="#666666">[ProductImage]</text>
<polygon fill="none" stroke="black" points="80.2,-258.8 80.2,-289.6 332.54,-289.6 332.54,-258.8 80.2,-258.8"/>
<text text-anchor="start" x="87.2" y="-271" font-family="Arial" font-size="14.00">inventoryItemID </text>
<text text-anchor="start" x="189.13" y="-271" font-family="Arial" font-size="14.00" fill="#666666">[uuid]</text>
<polygon fill="none" stroke="black" points="80.2,-228 80.2,-258.8 332.54,-258.8 332.54,-228 80.2,-228"/>
<text text-anchor="start" x="87.2" y="-240.2" font-family="Arial" font-size="14.00">inventoryItem </text>
<text text-anchor="start" x="175.13" y="-240.2" font-family="Arial" font-size="14.00" fill="#666666">[InventoryItem]</text>
<polygon fill="none" stroke="black" points="80.2,-197.2 80.2,-228 332.54,-228 332.54,-197.2 80.2,-197.2"/>
<text text-anchor="start" x="87.2" y="-209.4" font-family="Arial" font-size="14.00">sku </text>
<text text-anchor="start" x="112.88" y="-209.4" font-family="Arial" font-size="14.00" fill="#666666">[string]</text>
<polygon fill="none" stroke="black" points="80.2,-166.4 80.2,-197.2 332.54,-197.2 332.54,-166.4 80.2,-166.4"/>
<text text-anchor="start" x="87.2" y="-178.6" font-family="Arial" font-size="14.00">imageID </text>
<text text-anchor="start" x="143.23" y="-178.6" font-family="Arial" font-size="14.00" fill="#666666">[uuid]</text>
<polygon fill="none" stroke="black" points="80.2,-135.6 80.2,-166.4 332.54,-166.4 332.54,-135.6 80.2,-135.6"/>
<text text-anchor="start" x="87.2" y="-147.8" font-family="Arial" font-size="14.00">taxable </text>
<text text-anchor="start" x="136.24" y="-147.8" font-family="Arial" font-size="14.00" fill="#666666">[boolean]</text>
<polygon fill="none" stroke="black" points="80.2,-104.8 80.2,-135.6 332.54,-135.6 332.54,-104.8 80.2,-104.8"/>
<text text-anchor="start" x="87.2" y="-117" font-family="Arial" font-size="14.00">inventoryType </text>
<text text-anchor="start" x="179.03" y="-117" font-family="Arial" font-size="14.00" fill="#666666">[enum]</text>
<polygon fill="none" stroke="black" points="80.2,-74 80.2,-104.8 332.54,-104.8 332.54,-74 80.2,-74"/>
<text text-anchor="start" x="87.2" y="-86.2" font-family="Arial" font-size="14.00">quickbookItemId </text>
<text text-anchor="start" x="193.04" y="-86.2" font-family="Arial" font-size="14.00" fill="#666666">[string]</text>
<polygon fill="none" stroke="black" points="80.2,-43.2 80.2,-74 332.54,-74 332.54,-43.2 80.2,-43.2"/>
<text text-anchor="start" x="87.2" y="-55.4" font-family="Arial" font-size="14.00">updatedAt </text>
<text text-anchor="start" x="154.93" y="-55.4" font-family="Arial" font-size="14.00" fill="#666666">[datetime]</text>
</g>
<!-- FinancialStockSummary&#45;&gt;ProductVariant -->
<g id="edge1" class="edge">
<title>FinancialStockSummary:variantID&#45;&gt;ProductVariant:id</title>
<path fill="none" stroke="black" d="M377.77,-958.07C478.97,-943.21 443.62,-705.4 333.54,-705.4"/>
<polygon fill="black" stroke="black" points="377.85,-958.07 367.56,-954.29 372.53,-958.45 368.21,-958.75 368.21,-958.75 368.21,-958.75 372.53,-958.45 368.2,-963.26 377.85,-958.07"/>
<text text-anchor="start" x="374.54" y="-968.8" font-family="Arial" font-size="10.00">Source: ProductVariant</text>
</g>
</g>
</svg>
