<?xml version="1.0" encoding="UTF-8" standalone="no"?>
<!DOCTYPE svg PUBLIC "-//W3C//DTD SVG 1.1//EN"
 "http://www.w3.org/Graphics/SVG/1.1/DTD/svg11.dtd">
<!-- Generated by graphviz version 12.1.2 (20240928.0832)
 -->
<!-- Title: InventoryLevel Pages: 1 -->
<svg width="650pt" height="1002pt"
 viewBox="0.00 0.00 650.23 1002.40" xmlns="http://www.w3.org/2000/svg" xmlns:xlink="http://www.w3.org/1999/xlink">
<g id="graph0" class="graph" transform="scale(1 1) rotate(0) translate(4 998.4)">
<title>InventoryLevel</title>
<polygon fill="white" stroke="none" points="-4,4 -4,-998.4 646.23,-998.4 646.23,4 -4,4"/>
<!-- InventoryLevel -->
<g id="node1" class="node">
<title>InventoryLevel</title>
<polygon fill="#efefef" stroke="none" points="204.21,-912.6 204.21,-948.2 457.52,-948.2 457.52,-912.6 204.21,-912.6"/>
<polygon fill="none" stroke="black" points="204.21,-912.6 204.21,-948.2 457.52,-948.2 457.52,-912.6 204.21,-912.6"/>
<text text-anchor="start" x="211.21" y="-926" font-family="Arial Bold" font-size="18.00">InventoryLevel</text>
<text text-anchor="start" x="322.16" y="-926" font-family="Arial" font-size="14.00">    </text>
<text text-anchor="start" x="353.28" y="-926" font-family="Arial" font-size="14.00" fill="#666666">[TailorDB.Type]</text>
<polygon fill="none" stroke="black" points="204.21,-881.8 204.21,-912.6 457.52,-912.6 457.52,-881.8 204.21,-881.8"/>
<text text-anchor="start" x="211.21" y="-894" font-family="Arial" font-size="14.00">id </text>
<text text-anchor="start" x="225.99" y="-894" font-family="Arial" font-size="14.00" fill="#666666">[uuid]</text>
<polygon fill="none" stroke="black" points="204.21,-851 204.21,-881.8 457.52,-881.8 457.52,-851 204.21,-851"/>
<text text-anchor="start" x="211.21" y="-863.2" font-family="Arial" font-size="14.00">safetyStock </text>
<text text-anchor="start" x="287.46" y="-863.2" font-family="Arial" font-size="14.00" fill="#666666">[integer]</text>
<polygon fill="none" stroke="black" points="204.21,-820.2 204.21,-851 457.52,-851 457.52,-820.2 204.21,-820.2"/>
<text text-anchor="start" x="211.21" y="-832.4" font-family="Arial" font-size="14.00">incoming </text>
<text text-anchor="start" x="271.12" y="-832.4" font-family="Arial" font-size="14.00" fill="#666666">[integer]</text>
<polygon fill="none" stroke="black" points="204.21,-789.4 204.21,-820.2 457.52,-820.2 457.52,-789.4 204.21,-789.4"/>
<text text-anchor="start" x="211.21" y="-801.6" font-family="Arial" font-size="14.00">inventoryItemID </text>
<text text-anchor="start" x="313.13" y="-801.6" font-family="Arial" font-size="14.00" fill="#666666">[uuid]</text>
<polygon fill="none" stroke="black" points="204.21,-758.6 204.21,-789.4 457.52,-789.4 457.52,-758.6 204.21,-758.6"/>
<text text-anchor="start" x="211.21" y="-770.8" font-family="Arial" font-size="14.00">reserved </text>
<text text-anchor="start" x="269.56" y="-770.8" font-family="Arial" font-size="14.00" fill="#666666">[integer]</text>
<polygon fill="none" stroke="black" points="204.21,-727.8 204.21,-758.6 457.52,-758.6 457.52,-727.8 204.21,-727.8"/>
<text text-anchor="start" x="211.21" y="-740" font-family="Arial" font-size="14.00">damaged </text>
<text text-anchor="start" x="273.47" y="-740" font-family="Arial" font-size="14.00" fill="#666666">[integer]</text>
<polygon fill="none" stroke="black" points="204.21,-697 204.21,-727.8 457.52,-727.8 457.52,-697 204.21,-697"/>
<text text-anchor="start" x="211.21" y="-709.2" font-family="Arial" font-size="14.00">onHand </text>
<text text-anchor="start" x="264.14" y="-709.2" font-family="Arial" font-size="14.00" fill="#666666">[integer]</text>
<polygon fill="none" stroke="black" points="204.21,-666.2 204.21,-697 457.52,-697 457.52,-666.2 204.21,-666.2"/>
<text text-anchor="start" x="211.21" y="-678.4" font-family="Arial" font-size="14.00">createdAt </text>
<text text-anchor="start" x="275.02" y="-678.4" font-family="Arial" font-size="14.00" fill="#666666">[datetime]</text>
<polygon fill="none" stroke="black" points="204.21,-635.4 204.21,-666.2 457.52,-666.2 457.52,-635.4 204.21,-635.4"/>
<text text-anchor="start" x="211.21" y="-647.6" font-family="Arial" font-size="14.00">available </text>
<text text-anchor="start" x="270.36" y="-647.6" font-family="Arial" font-size="14.00" fill="#666666">[integer]</text>
<polygon fill="none" stroke="black" points="204.21,-604.6 204.21,-635.4 457.52,-635.4 457.52,-604.6 204.21,-604.6"/>
<text text-anchor="start" x="211.21" y="-616.8" font-family="Arial" font-size="14.00">location </text>
<text text-anchor="start" x="263.35" y="-616.8" font-family="Arial" font-size="14.00" fill="#666666">[Location]</text>
<polygon fill="none" stroke="black" points="204.21,-573.8 204.21,-604.6 457.52,-604.6 457.52,-573.8 204.21,-573.8"/>
<text text-anchor="start" x="211.21" y="-586" font-family="Arial" font-size="14.00">updatedAt </text>
<text text-anchor="start" x="278.93" y="-586" font-family="Arial" font-size="14.00" fill="#666666">[datetime]</text>
<polygon fill="none" stroke="black" points="204.21,-543 204.21,-573.8 457.52,-573.8 457.52,-543 204.21,-543"/>
<text text-anchor="start" x="211.21" y="-555.2" font-family="Arial" font-size="14.00">active </text>
<text text-anchor="start" x="251.67" y="-555.2" font-family="Arial" font-size="14.00" fill="#666666">[boolean]</text>
<polygon fill="none" stroke="black" points="204.21,-512.2 204.21,-543 457.52,-543 457.52,-512.2 204.21,-512.2"/>
<text text-anchor="start" x="211.21" y="-524.4" font-family="Arial" font-size="14.00">locationID </text>
<text text-anchor="start" x="277.35" y="-524.4" font-family="Arial" font-size="14.00" fill="#666666">[uuid]</text>
<polygon fill="none" stroke="black" points="204.21,-481.4 204.21,-512.2 457.52,-512.2 457.52,-481.4 204.21,-481.4"/>
<text text-anchor="start" x="211.21" y="-493.6" font-family="Arial" font-size="14.00">qualityControl </text>
<text text-anchor="start" x="300.69" y="-493.6" font-family="Arial" font-size="14.00" fill="#666666">[integer]</text>
<polygon fill="none" stroke="black" points="204.21,-450.6 204.21,-481.4 457.52,-481.4 457.52,-450.6 204.21,-450.6"/>
<text text-anchor="start" x="211.21" y="-462.8" font-family="Arial" font-size="14.00">inventoryItem </text>
<text text-anchor="start" x="299.13" y="-462.8" font-family="Arial" font-size="14.00" fill="#666666">[InventoryItem]</text>
<polygon fill="none" stroke="black" points="204.21,-419.8 204.21,-450.6 457.52,-450.6 457.52,-419.8 204.21,-419.8"/>
<text text-anchor="start" x="211.21" y="-432" font-family="Arial" font-size="14.00">committed </text>
<text text-anchor="start" x="279.67" y="-432" font-family="Arial" font-size="14.00" fill="#666666">[integer]</text>
<polygon fill="none" stroke="black" stroke-width="3" points="202.71,-418.3 202.71,-949.7 459.02,-949.7 459.02,-418.3 202.71,-418.3"/>
</g>
<!-- InventoryItem -->
<g id="node2" class="node">
<title>InventoryItem</title>
<polygon fill="#efefef" stroke="none" points="43.2,-258.8 43.2,-294.4 288.53,-294.4 288.53,-258.8 43.2,-258.8"/>
<polygon fill="none" stroke="black" points="43.2,-258.8 43.2,-294.4 288.53,-294.4 288.53,-258.8 43.2,-258.8"/>
<text text-anchor="start" x="50.2" y="-272.2" font-family="Arial Bold" font-size="18.00">InventoryItem</text>
<text text-anchor="start" x="153.16" y="-272.2" font-family="Arial" font-size="14.00">    </text>
<text text-anchor="start" x="184.28" y="-272.2" font-family="Arial" font-size="14.00" fill="#666666">[TailorDB.Type]</text>
<polygon fill="none" stroke="black" points="43.2,-228 43.2,-258.8 288.53,-258.8 288.53,-228 43.2,-228"/>
<text text-anchor="start" x="50.2" y="-240.2" font-family="Arial" font-size="14.00">id </text>
<text text-anchor="start" x="64.99" y="-240.2" font-family="Arial" font-size="14.00" fill="#666666">[uuid]</text>
<polygon fill="none" stroke="black" points="43.2,-197.2 43.2,-228 288.53,-228 288.53,-197.2 43.2,-197.2"/>
<text text-anchor="start" x="50.2" y="-209.4" font-family="Arial" font-size="14.00">shopifyID </text>
<text text-anchor="start" x="112.45" y="-209.4" font-family="Arial" font-size="14.00" fill="#666666">[string]</text>
<polygon fill="none" stroke="black" points="43.2,-166.4 43.2,-197.2 288.53,-197.2 288.53,-166.4 43.2,-166.4"/>
<text text-anchor="start" x="50.2" y="-178.6" font-family="Arial" font-size="14.00">productVariantID </text>
<text text-anchor="start" x="159.14" y="-178.6" font-family="Arial" font-size="14.00" fill="#666666">[uuid]</text>
<polygon fill="none" stroke="black" points="43.2,-135.6 43.2,-166.4 288.53,-166.4 288.53,-135.6 43.2,-135.6"/>
<text text-anchor="start" x="50.2" y="-147.8" font-family="Arial" font-size="14.00">productVariant </text>
<text text-anchor="start" x="145.14" y="-147.8" font-family="Arial" font-size="14.00" fill="#666666">[ProductVariant]</text>
<polygon fill="none" stroke="black" points="43.2,-104.8 43.2,-135.6 288.53,-135.6 288.53,-104.8 43.2,-104.8"/>
<text text-anchor="start" x="50.2" y="-117" font-family="Arial" font-size="14.00">updatedAt </text>
<text text-anchor="start" x="117.92" y="-117" font-family="Arial" font-size="14.00" fill="#666666">[datetime]</text>
<polygon fill="none" stroke="black" points="43.2,-74 43.2,-104.8 288.53,-104.8 288.53,-74 43.2,-74"/>
<text text-anchor="start" x="50.2" y="-86.2" font-family="Arial" font-size="14.00">active </text>
<text text-anchor="start" x="90.66" y="-86.2" font-family="Arial" font-size="14.00" fill="#666666">[boolean]</text>
<polygon fill="none" stroke="black" points="43.2,-43.2 43.2,-74 288.53,-74 288.53,-43.2 43.2,-43.2"/>
<text text-anchor="start" x="50.2" y="-55.4" font-family="Arial" font-size="14.00">createdAt </text>
<text text-anchor="start" x="114.01" y="-55.4" font-family="Arial" font-size="14.00" fill="#666666">[datetime]</text>
</g>
<!-- InventoryLevel&#45;&gt;InventoryItem -->
<g id="edge1" class="edge">
<title>InventoryLevel:inventoryItemID&#45;&gt;InventoryItem:id</title>
<path fill="none" stroke="black" d="M192.82,-804.52C14.79,-794.77 100.37,-530.43 204.21,-373.6 226.7,-339.62 265.89,-371.48 288.53,-337.6 311.79,-302.79 331.4,-243.4 289.53,-243.4"/>
<polygon fill="black" stroke="black" points="192.87,-804.52 202.75,-809.29 198.21,-804.67 202.54,-804.78 202.54,-804.78 202.54,-804.78 198.21,-804.67 202.99,-800.29 192.87,-804.52"/>
<text text-anchor="start" x="98.38" y="-814.8" font-family="Arial" font-size="10.00">Source: InventoryItem</text>
</g>
<!-- Location -->
<g id="node3" class="node">
<title>Location</title>
<polygon fill="#efefef" stroke="none" points="392.69,-243.4 392.69,-279 599.03,-279 599.03,-243.4 392.69,-243.4"/>
<polygon fill="none" stroke="black" points="392.69,-243.4 392.69,-279 599.03,-279 599.03,-243.4 392.69,-243.4"/>
<text text-anchor="start" x="399.69" y="-256.8" font-family="Arial Bold" font-size="18.00">Location</text>
<text text-anchor="start" x="463.67" y="-256.8" font-family="Arial" font-size="14.00">    </text>
<text text-anchor="start" x="494.79" y="-256.8" font-family="Arial" font-size="14.00" fill="#666666">[TailorDB.Type]</text>
<polygon fill="none" stroke="black" points="392.69,-212.6 392.69,-243.4 599.03,-243.4 599.03,-212.6 392.69,-212.6"/>
<text text-anchor="start" x="399.69" y="-224.8" font-family="Arial" font-size="14.00">id </text>
<text text-anchor="start" x="414.48" y="-224.8" font-family="Arial" font-size="14.00" fill="#666666">[uuid]</text>
<polygon fill="none" stroke="black" points="392.69,-181.8 392.69,-212.6 599.03,-212.6 599.03,-181.8 392.69,-181.8"/>
<text text-anchor="start" x="399.69" y="-194" font-family="Arial" font-size="14.00">name </text>
<text text-anchor="start" x="438.6" y="-194" font-family="Arial" font-size="14.00" fill="#666666">[string]</text>
<polygon fill="none" stroke="black" points="392.69,-151 392.69,-181.8 599.03,-181.8 599.03,-151 392.69,-151"/>
<text text-anchor="start" x="399.69" y="-163.2" font-family="Arial" font-size="14.00">shopifyID </text>
<text text-anchor="start" x="461.94" y="-163.2" font-family="Arial" font-size="14.00" fill="#666666">[string]</text>
<polygon fill="none" stroke="black" points="392.69,-120.2 392.69,-151 599.03,-151 599.03,-120.2 392.69,-120.2"/>
<text text-anchor="start" x="399.69" y="-132.4" font-family="Arial" font-size="14.00">updatedAt </text>
<text text-anchor="start" x="467.42" y="-132.4" font-family="Arial" font-size="14.00" fill="#666666">[datetime]</text>
<polygon fill="none" stroke="black" points="392.69,-89.4 392.69,-120.2 599.03,-120.2 599.03,-89.4 392.69,-89.4"/>
<text text-anchor="start" x="399.69" y="-101.6" font-family="Arial" font-size="14.00">active </text>
<text text-anchor="start" x="440.16" y="-101.6" font-family="Arial" font-size="14.00" fill="#666666">[boolean]</text>
<polygon fill="none" stroke="black" points="392.69,-58.6 392.69,-89.4 599.03,-89.4 599.03,-58.6 392.69,-58.6"/>
<text text-anchor="start" x="399.69" y="-70.8" font-family="Arial" font-size="14.00">createdAt </text>
<text text-anchor="start" x="463.51" y="-70.8" font-family="Arial" font-size="14.00" fill="#666666">[datetime]</text>
</g>
<!-- InventoryLevel&#45;&gt;Location -->
<g id="edge2" class="edge">
<title>InventoryLevel:locationID&#45;&gt;Location:id</title>
<path fill="none" stroke="black" d="M468.76,-527.51C726.62,-522.89 401.89,-340.96 392.69,-322.2 374.27,-284.6 349.83,-228 391.69,-228"/>
<polygon fill="black" stroke="black" points="468.86,-527.51 458.82,-523.1 463.52,-527.56 459.19,-527.59 459.19,-527.59 459.19,-527.59 463.52,-527.56 458.9,-532.1 468.86,-527.51"/>
<text text-anchor="start" x="465.52" y="-537.6" font-family="Arial" font-size="10.00">Source: Location</text>
</g>
</g>
</svg>
