<?xml version="1.0" encoding="UTF-8" standalone="no"?>
<!DOCTYPE svg PUBLIC "-//W3C//DTD SVG 1.1//EN"
 "http://www.w3.org/Graphics/SVG/1.1/DTD/svg11.dtd">
<!-- Generated by graphviz version 12.1.2 (20240928.0832)
 -->
<!-- Title: InventoryItem Pages: 1 -->
<svg width="419pt" height="1838pt"
 viewBox="0.00 0.00 418.91 1838.00" xmlns="http://www.w3.org/2000/svg" xmlns:xlink="http://www.w3.org/1999/xlink">
<g id="graph0" class="graph" transform="scale(1 1) rotate(0) translate(4 1834)">
<title>InventoryItem</title>
<polygon fill="white" stroke="none" points="-4,4 -4,-1834 414.91,-1834 414.91,4 -4,4"/>
<!-- InventoryItem -->
<g id="node1" class="node">
<title>InventoryItem</title>
<polygon fill="#efefef" stroke="none" points="47.19,-1097.4 47.19,-1133 292.52,-1133 292.52,-1097.4 47.19,-1097.4"/>
<polygon fill="none" stroke="black" points="47.19,-1097.4 47.19,-1133 292.52,-1133 292.52,-1097.4 47.19,-1097.4"/>
<text text-anchor="start" x="54.19" y="-1110.8" font-family="Arial Bold" font-size="18.00">InventoryItem</text>
<text text-anchor="start" x="157.16" y="-1110.8" font-family="Arial" font-size="14.00">    </text>
<text text-anchor="start" x="188.28" y="-1110.8" font-family="Arial" font-size="14.00" fill="#666666">[TailorDB.Type]</text>
<polygon fill="none" stroke="black" points="47.19,-1066.6 47.19,-1097.4 292.52,-1097.4 292.52,-1066.6 47.19,-1066.6"/>
<text text-anchor="start" x="54.19" y="-1078.8" font-family="Arial" font-size="14.00">id </text>
<text text-anchor="start" x="68.98" y="-1078.8" font-family="Arial" font-size="14.00" fill="#666666">[uuid]</text>
<polygon fill="none" stroke="black" points="47.19,-1035.8 47.19,-1066.6 292.52,-1066.6 292.52,-1035.8 47.19,-1035.8"/>
<text text-anchor="start" x="54.19" y="-1048" font-family="Arial" font-size="14.00">shopifyID </text>
<text text-anchor="start" x="116.44" y="-1048" font-family="Arial" font-size="14.00" fill="#666666">[string]</text>
<polygon fill="none" stroke="black" points="47.19,-1005 47.19,-1035.8 292.52,-1035.8 292.52,-1005 47.19,-1005"/>
<text text-anchor="start" x="54.19" y="-1017.2" font-family="Arial" font-size="14.00">productVariantID </text>
<text text-anchor="start" x="163.14" y="-1017.2" font-family="Arial" font-size="14.00" fill="#666666">[uuid]</text>
<polygon fill="none" stroke="black" points="47.19,-974.2 47.19,-1005 292.52,-1005 292.52,-974.2 47.19,-974.2"/>
<text text-anchor="start" x="54.19" y="-986.4" font-family="Arial" font-size="14.00">productVariant </text>
<text text-anchor="start" x="149.14" y="-986.4" font-family="Arial" font-size="14.00" fill="#666666">[ProductVariant]</text>
<polygon fill="none" stroke="black" points="47.19,-943.4 47.19,-974.2 292.52,-974.2 292.52,-943.4 47.19,-943.4"/>
<text text-anchor="start" x="54.19" y="-955.6" font-family="Arial" font-size="14.00">updatedAt </text>
<text text-anchor="start" x="121.92" y="-955.6" font-family="Arial" font-size="14.00" fill="#666666">[datetime]</text>
<polygon fill="none" stroke="black" points="47.19,-912.6 47.19,-943.4 292.52,-943.4 292.52,-912.6 47.19,-912.6"/>
<text text-anchor="start" x="54.19" y="-924.8" font-family="Arial" font-size="14.00">active </text>
<text text-anchor="start" x="94.66" y="-924.8" font-family="Arial" font-size="14.00" fill="#666666">[boolean]</text>
<polygon fill="none" stroke="black" points="47.19,-881.8 47.19,-912.6 292.52,-912.6 292.52,-881.8 47.19,-881.8"/>
<text text-anchor="start" x="54.19" y="-894" font-family="Arial" font-size="14.00">createdAt </text>
<text text-anchor="start" x="118.01" y="-894" font-family="Arial" font-size="14.00" fill="#666666">[datetime]</text>
<polygon fill="none" stroke="black" stroke-width="3" points="45.69,-880.3 45.69,-1134.5 294.02,-1134.5 294.02,-880.3 45.69,-880.3"/>
</g>
<!-- ProductVariant -->
<g id="node3" class="node">
<title>ProductVariant</title>
<polygon fill="#efefef" stroke="none" points="43.69,-720.8 43.69,-756.4 296.03,-756.4 296.03,-720.8 43.69,-720.8"/>
<polygon fill="none" stroke="black" points="43.69,-720.8 43.69,-756.4 296.03,-756.4 296.03,-720.8 43.69,-720.8"/>
<text text-anchor="start" x="50.69" y="-734.2" font-family="Arial Bold" font-size="18.00">ProductVariant</text>
<text text-anchor="start" x="160.66" y="-734.2" font-family="Arial" font-size="14.00">    </text>
<text text-anchor="start" x="191.78" y="-734.2" font-family="Arial" font-size="14.00" fill="#666666">[TailorDB.Type]</text>
<polygon fill="none" stroke="black" points="43.69,-690 43.69,-720.8 296.03,-720.8 296.03,-690 43.69,-690"/>
<text text-anchor="start" x="50.69" y="-702.2" font-family="Arial" font-size="14.00">id </text>
<text text-anchor="start" x="65.48" y="-702.2" font-family="Arial" font-size="14.00" fill="#666666">[uuid]</text>
<polygon fill="none" stroke="black" points="43.69,-659.2 43.69,-690 296.03,-690 296.03,-659.2 43.69,-659.2"/>
<text text-anchor="start" x="50.69" y="-671.4" font-family="Arial" font-size="14.00">shopifyID </text>
<text text-anchor="start" x="112.94" y="-671.4" font-family="Arial" font-size="14.00" fill="#666666">[string]</text>
<polygon fill="none" stroke="black" points="43.69,-628.4 43.69,-659.2 296.03,-659.2 296.03,-628.4 43.69,-628.4"/>
<text text-anchor="start" x="50.69" y="-640.6" font-family="Arial" font-size="14.00">availableForSale </text>
<text text-anchor="start" x="158.86" y="-640.6" font-family="Arial" font-size="14.00" fill="#666666">[boolean]</text>
<polygon fill="none" stroke="black" points="43.69,-597.6 43.69,-628.4 296.03,-628.4 296.03,-597.6 43.69,-597.6"/>
<text text-anchor="start" x="50.69" y="-609.8" font-family="Arial" font-size="14.00">displayName </text>
<text text-anchor="start" x="135.51" y="-609.8" font-family="Arial" font-size="14.00" fill="#666666">[string]</text>
<polygon fill="none" stroke="black" points="43.69,-566.8 43.69,-597.6 296.03,-597.6 296.03,-566.8 43.69,-566.8"/>
<text text-anchor="start" x="50.69" y="-579" font-family="Arial" font-size="14.00">price </text>
<text text-anchor="start" x="84.93" y="-579" font-family="Arial" font-size="14.00" fill="#666666">[float]</text>
<polygon fill="none" stroke="black" points="43.69,-536 43.69,-566.8 296.03,-566.8 296.03,-536 43.69,-536"/>
<text text-anchor="start" x="50.69" y="-548.2" font-family="Arial" font-size="14.00">product </text>
<text text-anchor="start" x="101.28" y="-548.2" font-family="Arial" font-size="14.00" fill="#666666">[Product]</text>
<polygon fill="none" stroke="black" points="43.69,-505.2 43.69,-536 296.03,-536 296.03,-505.2 43.69,-505.2"/>
<text text-anchor="start" x="50.69" y="-517.4" font-family="Arial" font-size="14.00">updatedAt </text>
<text text-anchor="start" x="118.42" y="-517.4" font-family="Arial" font-size="14.00" fill="#666666">[datetime]</text>
<polygon fill="none" stroke="black" points="43.69,-474.4 43.69,-505.2 296.03,-505.2 296.03,-474.4 43.69,-474.4"/>
<text text-anchor="start" x="50.69" y="-486.6" font-family="Arial" font-size="14.00">sku </text>
<text text-anchor="start" x="76.37" y="-486.6" font-family="Arial" font-size="14.00" fill="#666666">[string]</text>
<polygon fill="none" stroke="black" points="43.69,-443.6 43.69,-474.4 296.03,-474.4 296.03,-443.6 43.69,-443.6"/>
<text text-anchor="start" x="50.69" y="-455.8" font-family="Arial" font-size="14.00">image </text>
<text text-anchor="start" x="92.71" y="-455.8" font-family="Arial" font-size="14.00" fill="#666666">[ProductImage]</text>
<polygon fill="none" stroke="black" points="43.69,-412.8 43.69,-443.6 296.03,-443.6 296.03,-412.8 43.69,-412.8"/>
<text text-anchor="start" x="50.69" y="-425" font-family="Arial" font-size="14.00">inventoryItem </text>
<text text-anchor="start" x="138.62" y="-425" font-family="Arial" font-size="14.00" fill="#666666">[InventoryItem]</text>
<polygon fill="none" stroke="black" points="43.69,-382 43.69,-412.8 296.03,-412.8 296.03,-382 43.69,-382"/>
<text text-anchor="start" x="50.69" y="-394.2" font-family="Arial" font-size="14.00">inventoryType </text>
<text text-anchor="start" x="142.51" y="-394.2" font-family="Arial" font-size="14.00" fill="#666666">[enum]</text>
<polygon fill="none" stroke="black" points="43.69,-351.2 43.69,-382 296.03,-382 296.03,-351.2 43.69,-351.2"/>
<text text-anchor="start" x="50.69" y="-363.4" font-family="Arial" font-size="14.00">quickbookSyncToken </text>
<text text-anchor="start" x="187.66" y="-363.4" font-family="Arial" font-size="14.00" fill="#666666">[string]</text>
<polygon fill="none" stroke="black" points="43.69,-320.4 43.69,-351.2 296.03,-351.2 296.03,-320.4 43.69,-320.4"/>
<text text-anchor="start" x="50.69" y="-332.6" font-family="Arial" font-size="14.00">taxable </text>
<text text-anchor="start" x="99.73" y="-332.6" font-family="Arial" font-size="14.00" fill="#666666">[boolean]</text>
<polygon fill="none" stroke="black" points="43.69,-289.6 43.69,-320.4 296.03,-320.4 296.03,-289.6 43.69,-289.6"/>
<text text-anchor="start" x="50.69" y="-301.8" font-family="Arial" font-size="14.00">quickbookItemId </text>
<text text-anchor="start" x="156.53" y="-301.8" font-family="Arial" font-size="14.00" fill="#666666">[string]</text>
<polygon fill="none" stroke="black" points="43.69,-258.8 43.69,-289.6 296.03,-289.6 296.03,-258.8 43.69,-258.8"/>
<text text-anchor="start" x="50.69" y="-271" font-family="Arial" font-size="14.00">createdAt </text>
<text text-anchor="start" x="114.51" y="-271" font-family="Arial" font-size="14.00" fill="#666666">[datetime]</text>
<polygon fill="none" stroke="black" points="43.69,-228 43.69,-258.8 296.03,-258.8 296.03,-228 43.69,-228"/>
<text text-anchor="start" x="50.69" y="-240.2" font-family="Arial" font-size="14.00">barcode </text>
<text text-anchor="start" x="105.17" y="-240.2" font-family="Arial" font-size="14.00" fill="#666666">[string]</text>
<polygon fill="none" stroke="black" points="43.69,-197.2 43.69,-228 296.03,-228 296.03,-197.2 43.69,-197.2"/>
<text text-anchor="start" x="50.69" y="-209.4" font-family="Arial" font-size="14.00">imageID </text>
<text text-anchor="start" x="106.71" y="-209.4" font-family="Arial" font-size="14.00" fill="#666666">[uuid]</text>
<polygon fill="none" stroke="black" points="43.69,-166.4 43.69,-197.2 296.03,-197.2 296.03,-166.4 43.69,-166.4"/>
<text text-anchor="start" x="50.69" y="-178.6" font-family="Arial" font-size="14.00">inventoryQuantity </text>
<text text-anchor="start" x="163.53" y="-178.6" font-family="Arial" font-size="14.00" fill="#666666">[integer]</text>
<polygon fill="none" stroke="black" points="43.69,-135.6 43.69,-166.4 296.03,-166.4 296.03,-135.6 43.69,-135.6"/>
<text text-anchor="start" x="50.69" y="-147.8" font-family="Arial" font-size="14.00">productID </text>
<text text-anchor="start" x="115.28" y="-147.8" font-family="Arial" font-size="14.00" fill="#666666">[uuid]</text>
<polygon fill="none" stroke="black" points="43.69,-104.8 43.69,-135.6 296.03,-135.6 296.03,-104.8 43.69,-104.8"/>
<text text-anchor="start" x="50.69" y="-117" font-family="Arial" font-size="14.00">active </text>
<text text-anchor="start" x="91.15" y="-117" font-family="Arial" font-size="14.00" fill="#666666">[boolean]</text>
<polygon fill="none" stroke="black" points="43.69,-74 43.69,-104.8 296.03,-104.8 296.03,-74 43.69,-74"/>
<text text-anchor="start" x="50.69" y="-86.2" font-family="Arial" font-size="14.00">inventoryItemID </text>
<text text-anchor="start" x="152.62" y="-86.2" font-family="Arial" font-size="14.00" fill="#666666">[uuid]</text>
<polygon fill="none" stroke="black" points="43.69,-43.2 43.69,-74 296.03,-74 296.03,-43.2 43.69,-43.2"/>
<text text-anchor="start" x="50.69" y="-55.4" font-family="Arial" font-size="14.00">quickbookItemName </text>
<text text-anchor="start" x="182.2" y="-55.4" font-family="Arial" font-size="14.00" fill="#666666">[string]</text>
</g>
<!-- InventoryItem&#45;&gt;ProductVariant -->
<g id="edge3" class="edge">
<title>InventoryItem:productVariantID&#45;&gt;ProductVariant:id</title>
<path fill="none" stroke="black" d="M303.67,-1018.05C363.69,-989.22 363.48,-705.4 297.03,-705.4"/>
<polygon fill="black" stroke="black" points="303.59,-1018.06 292.83,-1015.94 298.39,-1019.27 294.18,-1020.25 294.18,-1020.25 294.18,-1020.25 298.39,-1019.27 294.87,-1024.71 303.59,-1018.06"/>
<text text-anchor="start" x="300.52" y="-1030.4" font-family="Arial" font-size="10.00">Source: ProductVariant</text>
</g>
<!-- InventoryLevel -->
<g id="node2" class="node">
<title>InventoryLevel</title>
<polygon fill="#efefef" stroke="none" points="43.2,-1751.2 43.2,-1786.8 296.52,-1786.8 296.52,-1751.2 43.2,-1751.2"/>
<polygon fill="none" stroke="black" points="43.2,-1751.2 43.2,-1786.8 296.52,-1786.8 296.52,-1751.2 43.2,-1751.2"/>
<text text-anchor="start" x="50.2" y="-1764.6" font-family="Arial Bold" font-size="18.00">InventoryLevel</text>
<text text-anchor="start" x="161.15" y="-1764.6" font-family="Arial" font-size="14.00">    </text>
<text text-anchor="start" x="192.27" y="-1764.6" font-family="Arial" font-size="14.00" fill="#666666">[TailorDB.Type]</text>
<polygon fill="none" stroke="black" points="43.2,-1720.4 43.2,-1751.2 296.52,-1751.2 296.52,-1720.4 43.2,-1720.4"/>
<text text-anchor="start" x="50.2" y="-1732.6" font-family="Arial" font-size="14.00">id </text>
<text text-anchor="start" x="64.99" y="-1732.6" font-family="Arial" font-size="14.00" fill="#666666">[uuid]</text>
<polygon fill="none" stroke="black" points="43.2,-1689.6 43.2,-1720.4 296.52,-1720.4 296.52,-1689.6 43.2,-1689.6"/>
<text text-anchor="start" x="50.2" y="-1701.8" font-family="Arial" font-size="14.00">safetyStock </text>
<text text-anchor="start" x="126.45" y="-1701.8" font-family="Arial" font-size="14.00" fill="#666666">[integer]</text>
<polygon fill="none" stroke="black" points="43.2,-1658.8 43.2,-1689.6 296.52,-1689.6 296.52,-1658.8 43.2,-1658.8"/>
<text text-anchor="start" x="50.2" y="-1671" font-family="Arial" font-size="14.00">incoming </text>
<text text-anchor="start" x="110.12" y="-1671" font-family="Arial" font-size="14.00" fill="#666666">[integer]</text>
<polygon fill="none" stroke="black" points="43.2,-1628 43.2,-1658.8 296.52,-1658.8 296.52,-1628 43.2,-1628"/>
<text text-anchor="start" x="50.2" y="-1640.2" font-family="Arial" font-size="14.00">inventoryItemID </text>
<text text-anchor="start" x="152.12" y="-1640.2" font-family="Arial" font-size="14.00" fill="#666666">[uuid]</text>
<polygon fill="none" stroke="black" points="43.2,-1597.2 43.2,-1628 296.52,-1628 296.52,-1597.2 43.2,-1597.2"/>
<text text-anchor="start" x="50.2" y="-1609.4" font-family="Arial" font-size="14.00">reserved </text>
<text text-anchor="start" x="108.56" y="-1609.4" font-family="Arial" font-size="14.00" fill="#666666">[integer]</text>
<polygon fill="none" stroke="black" points="43.2,-1566.4 43.2,-1597.2 296.52,-1597.2 296.52,-1566.4 43.2,-1566.4"/>
<text text-anchor="start" x="50.2" y="-1578.6" font-family="Arial" font-size="14.00">damaged </text>
<text text-anchor="start" x="112.47" y="-1578.6" font-family="Arial" font-size="14.00" fill="#666666">[integer]</text>
<polygon fill="none" stroke="black" points="43.2,-1535.6 43.2,-1566.4 296.52,-1566.4 296.52,-1535.6 43.2,-1535.6"/>
<text text-anchor="start" x="50.2" y="-1547.8" font-family="Arial" font-size="14.00">onHand </text>
<text text-anchor="start" x="103.13" y="-1547.8" font-family="Arial" font-size="14.00" fill="#666666">[integer]</text>
<polygon fill="none" stroke="black" points="43.2,-1504.8 43.2,-1535.6 296.52,-1535.6 296.52,-1504.8 43.2,-1504.8"/>
<text text-anchor="start" x="50.2" y="-1517" font-family="Arial" font-size="14.00">createdAt </text>
<text text-anchor="start" x="114.01" y="-1517" font-family="Arial" font-size="14.00" fill="#666666">[datetime]</text>
<polygon fill="none" stroke="black" points="43.2,-1474 43.2,-1504.8 296.52,-1504.8 296.52,-1474 43.2,-1474"/>
<text text-anchor="start" x="50.2" y="-1486.2" font-family="Arial" font-size="14.00">available </text>
<text text-anchor="start" x="109.35" y="-1486.2" font-family="Arial" font-size="14.00" fill="#666666">[integer]</text>
<polygon fill="none" stroke="black" points="43.2,-1443.2 43.2,-1474 296.52,-1474 296.52,-1443.2 43.2,-1443.2"/>
<text text-anchor="start" x="50.2" y="-1455.4" font-family="Arial" font-size="14.00">location </text>
<text text-anchor="start" x="102.34" y="-1455.4" font-family="Arial" font-size="14.00" fill="#666666">[Location]</text>
<polygon fill="none" stroke="black" points="43.2,-1412.4 43.2,-1443.2 296.52,-1443.2 296.52,-1412.4 43.2,-1412.4"/>
<text text-anchor="start" x="50.2" y="-1424.6" font-family="Arial" font-size="14.00">updatedAt </text>
<text text-anchor="start" x="117.92" y="-1424.6" font-family="Arial" font-size="14.00" fill="#666666">[datetime]</text>
<polygon fill="none" stroke="black" points="43.2,-1381.6 43.2,-1412.4 296.52,-1412.4 296.52,-1381.6 43.2,-1381.6"/>
<text text-anchor="start" x="50.2" y="-1393.8" font-family="Arial" font-size="14.00">active </text>
<text text-anchor="start" x="90.66" y="-1393.8" font-family="Arial" font-size="14.00" fill="#666666">[boolean]</text>
<polygon fill="none" stroke="black" points="43.2,-1350.8 43.2,-1381.6 296.52,-1381.6 296.52,-1350.8 43.2,-1350.8"/>
<text text-anchor="start" x="50.2" y="-1363" font-family="Arial" font-size="14.00">locationID </text>
<text text-anchor="start" x="116.34" y="-1363" font-family="Arial" font-size="14.00" fill="#666666">[uuid]</text>
<polygon fill="none" stroke="black" points="43.2,-1320 43.2,-1350.8 296.52,-1350.8 296.52,-1320 43.2,-1320"/>
<text text-anchor="start" x="50.2" y="-1332.2" font-family="Arial" font-size="14.00">qualityControl </text>
<text text-anchor="start" x="139.69" y="-1332.2" font-family="Arial" font-size="14.00" fill="#666666">[integer]</text>
<polygon fill="none" stroke="black" points="43.2,-1289.2 43.2,-1320 296.52,-1320 296.52,-1289.2 43.2,-1289.2"/>
<text text-anchor="start" x="50.2" y="-1301.4" font-family="Arial" font-size="14.00">inventoryItem </text>
<text text-anchor="start" x="138.12" y="-1301.4" font-family="Arial" font-size="14.00" fill="#666666">[InventoryItem]</text>
<polygon fill="none" stroke="black" points="43.2,-1258.4 43.2,-1289.2 296.52,-1289.2 296.52,-1258.4 43.2,-1258.4"/>
<text text-anchor="start" x="50.2" y="-1270.6" font-family="Arial" font-size="14.00">committed </text>
<text text-anchor="start" x="118.66" y="-1270.6" font-family="Arial" font-size="14.00" fill="#666666">[integer]</text>
</g>
<!-- InventoryLevel&#45;&gt;InventoryItem -->
<g id="edge1" class="edge">
<title>InventoryLevel:inventoryItemID&#45;&gt;InventoryItem:id</title>
<path fill="none" stroke="black" d="M306.83,-1638.88C359.31,-1585.75 352.61,-1082 293.52,-1082"/>
<polygon fill="black" stroke="black" points="306.82,-1638.89 295.86,-1639.21 302.02,-1641.22 298.12,-1643.11 298.12,-1643.11 298.12,-1643.11 302.02,-1641.22 299.78,-1647.3 306.82,-1638.89"/>
<text text-anchor="start" x="304.52" y="-1653.4" font-family="Arial" font-size="10.00">Source: InventoryItem</text>
</g>
<!-- ProductVariant&#45;&gt;InventoryItem -->
<g id="edge2" class="edge">
<title>ProductVariant:inventoryItemID&#45;&gt;InventoryItem:id</title>
<path fill="none" stroke="black" d="M307.03,-92.25C406.99,-150.47 400.37,-1082 293.52,-1082"/>
<polygon fill="black" stroke="black" points="306.97,-92.23 298.58,-85.16 301.84,-90.77 297.67,-89.58 297.67,-89.58 297.67,-89.58 301.84,-90.77 296.12,-93.82 306.97,-92.23"/>
<text text-anchor="start" x="304.03" y="-99.4" font-family="Arial" font-size="10.00">Source: InventoryItem</text>
</g>
</g>
</svg>
