<?xml version="1.0" encoding="UTF-8" standalone="no"?>
<!DOCTYPE svg PUBLIC "-//W3C//DTD SVG 1.1//EN"
 "http://www.w3.org/Graphics/SVG/1.1/DTD/svg11.dtd">
<!-- Generated by graphviz version 12.1.2 (20240928.0832)
 -->
<!-- Title: InvoiceLineItem Pages: 1 -->
<svg width="648pt" height="1310pt"
 viewBox="0.00 0.00 647.74 1310.40" xmlns="http://www.w3.org/2000/svg" xmlns:xlink="http://www.w3.org/1999/xlink">
<g id="graph0" class="graph" transform="scale(1 1) rotate(0) translate(4 1306.4)">
<title>InvoiceLineItem</title>
<polygon fill="white" stroke="none" points="-4,4 -4,-1306.4 643.74,-1306.4 643.74,4 -4,4"/>
<!-- InvoiceLineItem -->
<g id="node1" class="node">
<title>InvoiceLineItem</title>
<polygon fill="#efefef" stroke="none" points="174.21,-1220.6 174.21,-1256.2 436.52,-1256.2 436.52,-1220.6 174.21,-1220.6"/>
<polygon fill="none" stroke="black" points="174.21,-1220.6 174.21,-1256.2 436.52,-1256.2 436.52,-1220.6 174.21,-1220.6"/>
<text text-anchor="start" x="181.21" y="-1234" font-family="Arial Bold" font-size="18.00">InvoiceLineItem</text>
<text text-anchor="start" x="301.16" y="-1234" font-family="Arial" font-size="14.00">    </text>
<text text-anchor="start" x="332.28" y="-1234" font-family="Arial" font-size="14.00" fill="#666666">[TailorDB.Type]</text>
<polygon fill="none" stroke="black" points="174.21,-1189.8 174.21,-1220.6 436.52,-1220.6 436.52,-1189.8 174.21,-1189.8"/>
<text text-anchor="start" x="181.21" y="-1202" font-family="Arial" font-size="14.00">id </text>
<text text-anchor="start" x="196" y="-1202" font-family="Arial" font-size="14.00" fill="#666666">[uuid]</text>
<polygon fill="none" stroke="black" points="174.21,-1159 174.21,-1189.8 436.52,-1189.8 436.52,-1159 174.21,-1159"/>
<text text-anchor="start" x="181.21" y="-1171.2" font-family="Arial" font-size="14.00">active </text>
<text text-anchor="start" x="221.68" y="-1171.2" font-family="Arial" font-size="14.00" fill="#666666">[boolean]</text>
<polygon fill="none" stroke="black" points="174.21,-1128.2 174.21,-1159 436.52,-1159 436.52,-1128.2 174.21,-1128.2"/>
<text text-anchor="start" x="181.21" y="-1140.4" font-family="Arial" font-size="14.00">invoice </text>
<text text-anchor="start" x="228.68" y="-1140.4" font-family="Arial" font-size="14.00" fill="#666666">[Invoice]</text>
<polygon fill="none" stroke="black" points="174.21,-1097.4 174.21,-1128.2 436.52,-1128.2 436.52,-1097.4 174.21,-1097.4"/>
<text text-anchor="start" x="181.21" y="-1109.6" font-family="Arial" font-size="14.00">quantity </text>
<text text-anchor="start" x="234.14" y="-1109.6" font-family="Arial" font-size="14.00" fill="#666666">[float]</text>
<polygon fill="none" stroke="black" points="174.21,-1066.6 174.21,-1097.4 436.52,-1097.4 436.52,-1066.6 174.21,-1066.6"/>
<text text-anchor="start" x="181.21" y="-1078.8" font-family="Arial" font-size="14.00">taxable </text>
<text text-anchor="start" x="230.25" y="-1078.8" font-family="Arial" font-size="14.00" fill="#666666">[boolean]</text>
<polygon fill="none" stroke="black" points="174.21,-1035.8 174.21,-1066.6 436.52,-1066.6 436.52,-1035.8 174.21,-1035.8"/>
<text text-anchor="start" x="181.21" y="-1048" font-family="Arial" font-size="14.00">createdAt </text>
<text text-anchor="start" x="245.03" y="-1048" font-family="Arial" font-size="14.00" fill="#666666">[datetime]</text>
<polygon fill="none" stroke="black" points="174.21,-1005 174.21,-1035.8 436.52,-1035.8 436.52,-1005 174.21,-1005"/>
<text text-anchor="start" x="181.21" y="-1017.2" font-family="Arial" font-size="14.00">invoiceID </text>
<text text-anchor="start" x="242.68" y="-1017.2" font-family="Arial" font-size="14.00" fill="#666666">[uuid]</text>
<polygon fill="none" stroke="black" points="174.21,-974.2 174.21,-1005 436.52,-1005 436.52,-974.2 174.21,-974.2"/>
<text text-anchor="start" x="181.21" y="-986.4" font-family="Arial" font-size="14.00">unitPrice </text>
<text text-anchor="start" x="239.57" y="-986.4" font-family="Arial" font-size="14.00" fill="#666666">[float]</text>
<polygon fill="none" stroke="black" points="174.21,-943.4 174.21,-974.2 436.52,-974.2 436.52,-943.4 174.21,-943.4"/>
<text text-anchor="start" x="181.21" y="-955.6" font-family="Arial" font-size="14.00">updatedAt </text>
<text text-anchor="start" x="248.94" y="-955.6" font-family="Arial" font-size="14.00" fill="#666666">[datetime]</text>
<polygon fill="none" stroke="black" points="174.21,-912.6 174.21,-943.4 436.52,-943.4 436.52,-912.6 174.21,-912.6"/>
<text text-anchor="start" x="181.21" y="-924.8" font-family="Arial" font-size="14.00">variantID </text>
<text text-anchor="start" x="241.12" y="-924.8" font-family="Arial" font-size="14.00" fill="#666666">[uuid]</text>
<polygon fill="none" stroke="black" points="174.21,-881.8 174.21,-912.6 436.52,-912.6 436.52,-881.8 174.21,-881.8"/>
<text text-anchor="start" x="181.21" y="-894" font-family="Arial" font-size="14.00">variant </text>
<text text-anchor="start" x="227.12" y="-894" font-family="Arial" font-size="14.00" fill="#666666">[ProductVariant]</text>
<polygon fill="none" stroke="black" stroke-width="3" points="172.71,-880.3 172.71,-1257.7 438.02,-1257.7 438.02,-880.3 172.71,-880.3"/>
</g>
<!-- Invoice -->
<g id="node2" class="node">
<title>Invoice</title>
<polygon fill="#efefef" stroke="none" points="43.2,-582.2 43.2,-617.8 239.54,-617.8 239.54,-582.2 43.2,-582.2"/>
<polygon fill="none" stroke="black" points="43.2,-582.2 43.2,-617.8 239.54,-617.8 239.54,-582.2 43.2,-582.2"/>
<text text-anchor="start" x="50.2" y="-595.6" font-family="Arial Bold" font-size="18.00">Invoice</text>
<text text-anchor="start" x="104.17" y="-595.6" font-family="Arial" font-size="14.00">    </text>
<text text-anchor="start" x="135.29" y="-595.6" font-family="Arial" font-size="14.00" fill="#666666">[TailorDB.Type]</text>
<polygon fill="none" stroke="black" points="43.2,-551.4 43.2,-582.2 239.54,-582.2 239.54,-551.4 43.2,-551.4"/>
<text text-anchor="start" x="50.2" y="-563.6" font-family="Arial" font-size="14.00">id </text>
<text text-anchor="start" x="64.99" y="-563.6" font-family="Arial" font-size="14.00" fill="#666666">[uuid]</text>
<polygon fill="none" stroke="black" points="43.2,-520.6 43.2,-551.4 239.54,-551.4 239.54,-520.6 43.2,-520.6"/>
<text text-anchor="start" x="50.2" y="-532.8" font-family="Arial" font-size="14.00">shipment </text>
<text text-anchor="start" x="110.9" y="-532.8" font-family="Arial" font-size="14.00" fill="#666666">[Shipment]</text>
<polygon fill="none" stroke="black" points="43.2,-489.8 43.2,-520.6 239.54,-520.6 239.54,-489.8 43.2,-489.8"/>
<text text-anchor="start" x="50.2" y="-502" font-family="Arial" font-size="14.00">updatedAt </text>
<text text-anchor="start" x="117.92" y="-502" font-family="Arial" font-size="14.00" fill="#666666">[datetime]</text>
<polygon fill="none" stroke="black" points="43.2,-459 43.2,-489.8 239.54,-489.8 239.54,-459 43.2,-459"/>
<text text-anchor="start" x="50.2" y="-471.2" font-family="Arial" font-size="14.00">createdAt </text>
<text text-anchor="start" x="114.01" y="-471.2" font-family="Arial" font-size="14.00" fill="#666666">[datetime]</text>
<polygon fill="none" stroke="black" points="43.2,-428.2 43.2,-459 239.54,-459 239.54,-428.2 43.2,-428.2"/>
<text text-anchor="start" x="50.2" y="-440.4" font-family="Arial" font-size="14.00">customerID </text>
<text text-anchor="start" x="125.66" y="-440.4" font-family="Arial" font-size="14.00" fill="#666666">[uuid]</text>
<polygon fill="none" stroke="black" points="43.2,-397.4 43.2,-428.2 239.54,-428.2 239.54,-397.4 43.2,-397.4"/>
<text text-anchor="start" x="50.2" y="-409.6" font-family="Arial" font-size="14.00">customer </text>
<text text-anchor="start" x="111.66" y="-409.6" font-family="Arial" font-size="14.00" fill="#666666">[Contact]</text>
<polygon fill="none" stroke="black" points="43.2,-366.6 43.2,-397.4 239.54,-397.4 239.54,-366.6 43.2,-366.6"/>
<text text-anchor="start" x="50.2" y="-378.8" font-family="Arial" font-size="14.00">date </text>
<text text-anchor="start" x="81.34" y="-378.8" font-family="Arial" font-size="14.00" fill="#666666">[datetime]</text>
<polygon fill="none" stroke="black" points="43.2,-335.8 43.2,-366.6 239.54,-366.6 239.54,-335.8 43.2,-335.8"/>
<text text-anchor="start" x="50.2" y="-348" font-family="Arial" font-size="14.00">quickbookInvoiceId </text>
<text text-anchor="start" x="173.16" y="-348" font-family="Arial" font-size="14.00" fill="#666666">[string]</text>
<polygon fill="none" stroke="black" points="43.2,-305 43.2,-335.8 239.54,-335.8 239.54,-305 43.2,-305"/>
<text text-anchor="start" x="50.2" y="-317.2" font-family="Arial" font-size="14.00">invoiceStatus </text>
<text text-anchor="start" x="137.36" y="-317.2" font-family="Arial" font-size="14.00" fill="#666666">[enum]</text>
<polygon fill="none" stroke="black" points="43.2,-274.2 43.2,-305 239.54,-305 239.54,-274.2 43.2,-274.2"/>
<text text-anchor="start" x="50.2" y="-286.4" font-family="Arial" font-size="14.00">pushedToQBAt </text>
<text text-anchor="start" x="149.81" y="-286.4" font-family="Arial" font-size="14.00" fill="#666666">[datetime]</text>
<polygon fill="none" stroke="black" points="43.2,-243.4 43.2,-274.2 239.54,-274.2 239.54,-243.4 43.2,-243.4"/>
<text text-anchor="start" x="50.2" y="-255.6" font-family="Arial" font-size="14.00">active </text>
<text text-anchor="start" x="90.66" y="-255.6" font-family="Arial" font-size="14.00" fill="#666666">[boolean]</text>
<polygon fill="none" stroke="black" points="43.2,-212.6 43.2,-243.4 239.54,-243.4 239.54,-212.6 43.2,-212.6"/>
<text text-anchor="start" x="50.2" y="-224.8" font-family="Arial" font-size="14.00">invoiceNumber </text>
<text text-anchor="start" x="147.46" y="-224.8" font-family="Arial" font-size="14.00" fill="#666666">[string]</text>
<polygon fill="none" stroke="black" points="43.2,-181.8 43.2,-212.6 239.54,-212.6 239.54,-181.8 43.2,-181.8"/>
<text text-anchor="start" x="50.2" y="-194" font-family="Arial" font-size="14.00">shipmentID </text>
<text text-anchor="start" x="124.9" y="-194" font-family="Arial" font-size="14.00" fill="#666666">[uuid]</text>
</g>
<!-- InvoiceLineItem&#45;&gt;Invoice -->
<g id="edge1" class="edge">
<title>InvoiceLineItem:invoiceID&#45;&gt;Invoice:id</title>
<path fill="none" stroke="black" d="M163.08,-1019.43C67.02,-999.65 235.49,-682.71 239.54,-661 247.21,-619.84 282.41,-566.8 240.54,-566.8"/>
<polygon fill="black" stroke="black" points="162.93,-1019.42 172.45,-1024.85 168.24,-1019.92 172.55,-1020.34 172.55,-1020.34 172.55,-1020.34 168.24,-1019.92 173.31,-1015.89 162.93,-1019.42"/>
<text text-anchor="start" x="97.29" y="-1030.4" font-family="Arial" font-size="10.00">Source: Invoice</text>
</g>
<!-- ProductVariant -->
<g id="node3" class="node">
<title>ProductVariant</title>
<polygon fill="#efefef" stroke="none" points="344.2,-720.8 344.2,-756.4 596.54,-756.4 596.54,-720.8 344.2,-720.8"/>
<polygon fill="none" stroke="black" points="344.2,-720.8 344.2,-756.4 596.54,-756.4 596.54,-720.8 344.2,-720.8"/>
<text text-anchor="start" x="351.2" y="-734.2" font-family="Arial Bold" font-size="18.00">ProductVariant</text>
<text text-anchor="start" x="461.17" y="-734.2" font-family="Arial" font-size="14.00">    </text>
<text text-anchor="start" x="492.29" y="-734.2" font-family="Arial" font-size="14.00" fill="#666666">[TailorDB.Type]</text>
<polygon fill="none" stroke="black" points="344.2,-690 344.2,-720.8 596.54,-720.8 596.54,-690 344.2,-690"/>
<text text-anchor="start" x="351.2" y="-702.2" font-family="Arial" font-size="14.00">id </text>
<text text-anchor="start" x="365.99" y="-702.2" font-family="Arial" font-size="14.00" fill="#666666">[uuid]</text>
<polygon fill="none" stroke="black" points="344.2,-659.2 344.2,-690 596.54,-690 596.54,-659.2 344.2,-659.2"/>
<text text-anchor="start" x="351.2" y="-671.4" font-family="Arial" font-size="14.00">shopifyID </text>
<text text-anchor="start" x="413.45" y="-671.4" font-family="Arial" font-size="14.00" fill="#666666">[string]</text>
<polygon fill="none" stroke="black" points="344.2,-628.4 344.2,-659.2 596.54,-659.2 596.54,-628.4 344.2,-628.4"/>
<text text-anchor="start" x="351.2" y="-640.6" font-family="Arial" font-size="14.00">availableForSale </text>
<text text-anchor="start" x="459.37" y="-640.6" font-family="Arial" font-size="14.00" fill="#666666">[boolean]</text>
<polygon fill="none" stroke="black" points="344.2,-597.6 344.2,-628.4 596.54,-628.4 596.54,-597.6 344.2,-597.6"/>
<text text-anchor="start" x="351.2" y="-609.8" font-family="Arial" font-size="14.00">barcode </text>
<text text-anchor="start" x="405.68" y="-609.8" font-family="Arial" font-size="14.00" fill="#666666">[string]</text>
<polygon fill="none" stroke="black" points="344.2,-566.8 344.2,-597.6 596.54,-597.6 596.54,-566.8 344.2,-566.8"/>
<text text-anchor="start" x="351.2" y="-579" font-family="Arial" font-size="14.00">inventoryQuantity </text>
<text text-anchor="start" x="464.04" y="-579" font-family="Arial" font-size="14.00" fill="#666666">[integer]</text>
<polygon fill="none" stroke="black" points="344.2,-536 344.2,-566.8 596.54,-566.8 596.54,-536 344.2,-536"/>
<text text-anchor="start" x="351.2" y="-548.2" font-family="Arial" font-size="14.00">product </text>
<text text-anchor="start" x="401.79" y="-548.2" font-family="Arial" font-size="14.00" fill="#666666">[Product]</text>
<polygon fill="none" stroke="black" points="344.2,-505.2 344.2,-536 596.54,-536 596.54,-505.2 344.2,-505.2"/>
<text text-anchor="start" x="351.2" y="-517.4" font-family="Arial" font-size="14.00">quickbookItemName </text>
<text text-anchor="start" x="482.71" y="-517.4" font-family="Arial" font-size="14.00" fill="#666666">[string]</text>
<polygon fill="none" stroke="black" points="344.2,-474.4 344.2,-505.2 596.54,-505.2 596.54,-474.4 344.2,-474.4"/>
<text text-anchor="start" x="351.2" y="-486.6" font-family="Arial" font-size="14.00">price </text>
<text text-anchor="start" x="385.44" y="-486.6" font-family="Arial" font-size="14.00" fill="#666666">[float]</text>
<polygon fill="none" stroke="black" points="344.2,-443.6 344.2,-474.4 596.54,-474.4 596.54,-443.6 344.2,-443.6"/>
<text text-anchor="start" x="351.2" y="-455.8" font-family="Arial" font-size="14.00">productID </text>
<text text-anchor="start" x="415.79" y="-455.8" font-family="Arial" font-size="14.00" fill="#666666">[uuid]</text>
<polygon fill="none" stroke="black" points="344.2,-412.8 344.2,-443.6 596.54,-443.6 596.54,-412.8 344.2,-412.8"/>
<text text-anchor="start" x="351.2" y="-425" font-family="Arial" font-size="14.00">quickbookSyncToken </text>
<text text-anchor="start" x="488.17" y="-425" font-family="Arial" font-size="14.00" fill="#666666">[string]</text>
<polygon fill="none" stroke="black" points="344.2,-382 344.2,-412.8 596.54,-412.8 596.54,-382 344.2,-382"/>
<text text-anchor="start" x="351.2" y="-394.2" font-family="Arial" font-size="14.00">active </text>
<text text-anchor="start" x="391.66" y="-394.2" font-family="Arial" font-size="14.00" fill="#666666">[boolean]</text>
<polygon fill="none" stroke="black" points="344.2,-351.2 344.2,-382 596.54,-382 596.54,-351.2 344.2,-351.2"/>
<text text-anchor="start" x="351.2" y="-363.4" font-family="Arial" font-size="14.00">createdAt </text>
<text text-anchor="start" x="415.02" y="-363.4" font-family="Arial" font-size="14.00" fill="#666666">[datetime]</text>
<polygon fill="none" stroke="black" points="344.2,-320.4 344.2,-351.2 596.54,-351.2 596.54,-320.4 344.2,-320.4"/>
<text text-anchor="start" x="351.2" y="-332.6" font-family="Arial" font-size="14.00">displayName </text>
<text text-anchor="start" x="436.02" y="-332.6" font-family="Arial" font-size="14.00" fill="#666666">[string]</text>
<polygon fill="none" stroke="black" points="344.2,-289.6 344.2,-320.4 596.54,-320.4 596.54,-289.6 344.2,-289.6"/>
<text text-anchor="start" x="351.2" y="-301.8" font-family="Arial" font-size="14.00">image </text>
<text text-anchor="start" x="393.22" y="-301.8" font-family="Arial" font-size="14.00" fill="#666666">[ProductImage]</text>
<polygon fill="none" stroke="black" points="344.2,-258.8 344.2,-289.6 596.54,-289.6 596.54,-258.8 344.2,-258.8"/>
<text text-anchor="start" x="351.2" y="-271" font-family="Arial" font-size="14.00">inventoryItemID </text>
<text text-anchor="start" x="453.13" y="-271" font-family="Arial" font-size="14.00" fill="#666666">[uuid]</text>
<polygon fill="none" stroke="black" points="344.2,-228 344.2,-258.8 596.54,-258.8 596.54,-228 344.2,-228"/>
<text text-anchor="start" x="351.2" y="-240.2" font-family="Arial" font-size="14.00">inventoryItem </text>
<text text-anchor="start" x="439.13" y="-240.2" font-family="Arial" font-size="14.00" fill="#666666">[InventoryItem]</text>
<polygon fill="none" stroke="black" points="344.2,-197.2 344.2,-228 596.54,-228 596.54,-197.2 344.2,-197.2"/>
<text text-anchor="start" x="351.2" y="-209.4" font-family="Arial" font-size="14.00">sku </text>
<text text-anchor="start" x="376.88" y="-209.4" font-family="Arial" font-size="14.00" fill="#666666">[string]</text>
<polygon fill="none" stroke="black" points="344.2,-166.4 344.2,-197.2 596.54,-197.2 596.54,-166.4 344.2,-166.4"/>
<text text-anchor="start" x="351.2" y="-178.6" font-family="Arial" font-size="14.00">imageID </text>
<text text-anchor="start" x="407.22" y="-178.6" font-family="Arial" font-size="14.00" fill="#666666">[uuid]</text>
<polygon fill="none" stroke="black" points="344.2,-135.6 344.2,-166.4 596.54,-166.4 596.54,-135.6 344.2,-135.6"/>
<text text-anchor="start" x="351.2" y="-147.8" font-family="Arial" font-size="14.00">taxable </text>
<text text-anchor="start" x="400.24" y="-147.8" font-family="Arial" font-size="14.00" fill="#666666">[boolean]</text>
<polygon fill="none" stroke="black" points="344.2,-104.8 344.2,-135.6 596.54,-135.6 596.54,-104.8 344.2,-104.8"/>
<text text-anchor="start" x="351.2" y="-117" font-family="Arial" font-size="14.00">inventoryType </text>
<text text-anchor="start" x="443.02" y="-117" font-family="Arial" font-size="14.00" fill="#666666">[enum]</text>
<polygon fill="none" stroke="black" points="344.2,-74 344.2,-104.8 596.54,-104.8 596.54,-74 344.2,-74"/>
<text text-anchor="start" x="351.2" y="-86.2" font-family="Arial" font-size="14.00">quickbookItemId </text>
<text text-anchor="start" x="457.04" y="-86.2" font-family="Arial" font-size="14.00" fill="#666666">[string]</text>
<polygon fill="none" stroke="black" points="344.2,-43.2 344.2,-74 596.54,-74 596.54,-43.2 344.2,-43.2"/>
<text text-anchor="start" x="351.2" y="-55.4" font-family="Arial" font-size="14.00">updatedAt </text>
<text text-anchor="start" x="418.93" y="-55.4" font-family="Arial" font-size="14.00" fill="#666666">[datetime]</text>
</g>
<!-- InvoiceLineItem&#45;&gt;ProductVariant -->
<g id="edge2" class="edge">
<title>InvoiceLineItem:variantID&#45;&gt;ProductVariant:id</title>
<path fill="none" stroke="black" d="M447.54,-926.52C475.04,-917.23 457.69,-866.21 436.52,-835.6 411.48,-799.37 369.24,-835.83 344.2,-799.6 320.4,-765.16 301.33,-705.4 343.2,-705.4"/>
<polygon fill="black" stroke="black" points="447.75,-926.49 437.2,-923.5 442.47,-927.27 438.19,-927.9 438.19,-927.9 438.19,-927.9 442.47,-927.27 438.51,-932.4 447.75,-926.49"/>
<text text-anchor="start" x="444.52" y="-938" font-family="Arial" font-size="10.00">Source: ProductVariant</text>
</g>
</g>
</svg>
