<?xml version="1.0" encoding="UTF-8" standalone="no"?>
<!DOCTYPE svg PUBLIC "-//W3C//DTD SVG 1.1//EN"
 "http://www.w3.org/Graphics/SVG/1.1/DTD/svg11.dtd">
<!-- Generated by graphviz version 12.1.2 (20240928.0832)
 -->
<!-- Title: Invoice Pages: 1 -->
<svg width="608pt" height="1807pt"
 viewBox="0.00 0.00 608.26 1807.20" xmlns="http://www.w3.org/2000/svg" xmlns:xlink="http://www.w3.org/1999/xlink">
<g id="graph0" class="graph" transform="scale(1 1) rotate(0) translate(4 1803.2)">
<title>Invoice</title>
<polygon fill="white" stroke="none" points="-4,4 -4,-1803.2 604.26,-1803.2 604.26,4 -4,4"/>
<!-- Invoice -->
<g id="node1" class="node">
<title>Invoice</title>
<polygon fill="#efefef" stroke="none" points="198.21,-1220.6 198.21,-1256.2 394.55,-1256.2 394.55,-1220.6 198.21,-1220.6"/>
<polygon fill="none" stroke="black" points="198.21,-1220.6 198.21,-1256.2 394.55,-1256.2 394.55,-1220.6 198.21,-1220.6"/>
<text text-anchor="start" x="205.21" y="-1234" font-family="Arial Bold" font-size="18.00">Invoice</text>
<text text-anchor="start" x="259.18" y="-1234" font-family="Arial" font-size="14.00">    </text>
<text text-anchor="start" x="290.3" y="-1234" font-family="Arial" font-size="14.00" fill="#666666">[TailorDB.Type]</text>
<polygon fill="none" stroke="black" points="198.21,-1189.8 198.21,-1220.6 394.55,-1220.6 394.55,-1189.8 198.21,-1189.8"/>
<text text-anchor="start" x="205.21" y="-1202" font-family="Arial" font-size="14.00">id </text>
<text text-anchor="start" x="219.99" y="-1202" font-family="Arial" font-size="14.00" fill="#666666">[uuid]</text>
<polygon fill="none" stroke="black" points="198.21,-1159 198.21,-1189.8 394.55,-1189.8 394.55,-1159 198.21,-1159"/>
<text text-anchor="start" x="205.21" y="-1171.2" font-family="Arial" font-size="14.00">customerID </text>
<text text-anchor="start" x="280.67" y="-1171.2" font-family="Arial" font-size="14.00" fill="#666666">[uuid]</text>
<polygon fill="none" stroke="black" points="198.21,-1128.2 198.21,-1159 394.55,-1159 394.55,-1128.2 198.21,-1128.2"/>
<text text-anchor="start" x="205.21" y="-1140.4" font-family="Arial" font-size="14.00">shipmentID </text>
<text text-anchor="start" x="279.9" y="-1140.4" font-family="Arial" font-size="14.00" fill="#666666">[uuid]</text>
<polygon fill="none" stroke="black" points="198.21,-1097.4 198.21,-1128.2 394.55,-1128.2 394.55,-1097.4 198.21,-1097.4"/>
<text text-anchor="start" x="205.21" y="-1109.6" font-family="Arial" font-size="14.00">quickbookInvoiceId </text>
<text text-anchor="start" x="328.17" y="-1109.6" font-family="Arial" font-size="14.00" fill="#666666">[string]</text>
<polygon fill="none" stroke="black" points="198.21,-1066.6 198.21,-1097.4 394.55,-1097.4 394.55,-1066.6 198.21,-1066.6"/>
<text text-anchor="start" x="205.21" y="-1078.8" font-family="Arial" font-size="14.00">updatedAt </text>
<text text-anchor="start" x="272.93" y="-1078.8" font-family="Arial" font-size="14.00" fill="#666666">[datetime]</text>
<polygon fill="none" stroke="black" points="198.21,-1035.8 198.21,-1066.6 394.55,-1066.6 394.55,-1035.8 198.21,-1035.8"/>
<text text-anchor="start" x="205.21" y="-1048" font-family="Arial" font-size="14.00">pushedToQBAt </text>
<text text-anchor="start" x="304.82" y="-1048" font-family="Arial" font-size="14.00" fill="#666666">[datetime]</text>
<polygon fill="none" stroke="black" points="198.21,-1005 198.21,-1035.8 394.55,-1035.8 394.55,-1005 198.21,-1005"/>
<text text-anchor="start" x="205.21" y="-1017.2" font-family="Arial" font-size="14.00">active </text>
<text text-anchor="start" x="245.67" y="-1017.2" font-family="Arial" font-size="14.00" fill="#666666">[boolean]</text>
<polygon fill="none" stroke="black" points="198.21,-974.2 198.21,-1005 394.55,-1005 394.55,-974.2 198.21,-974.2"/>
<text text-anchor="start" x="205.21" y="-986.4" font-family="Arial" font-size="14.00">createdAt </text>
<text text-anchor="start" x="269.02" y="-986.4" font-family="Arial" font-size="14.00" fill="#666666">[datetime]</text>
<polygon fill="none" stroke="black" points="198.21,-943.4 198.21,-974.2 394.55,-974.2 394.55,-943.4 198.21,-943.4"/>
<text text-anchor="start" x="205.21" y="-955.6" font-family="Arial" font-size="14.00">invoiceNumber </text>
<text text-anchor="start" x="302.47" y="-955.6" font-family="Arial" font-size="14.00" fill="#666666">[string]</text>
<polygon fill="none" stroke="black" points="198.21,-912.6 198.21,-943.4 394.55,-943.4 394.55,-912.6 198.21,-912.6"/>
<text text-anchor="start" x="205.21" y="-924.8" font-family="Arial" font-size="14.00">customer </text>
<text text-anchor="start" x="266.67" y="-924.8" font-family="Arial" font-size="14.00" fill="#666666">[Contact]</text>
<polygon fill="none" stroke="black" points="198.21,-881.8 198.21,-912.6 394.55,-912.6 394.55,-881.8 198.21,-881.8"/>
<text text-anchor="start" x="205.21" y="-894" font-family="Arial" font-size="14.00">shipment </text>
<text text-anchor="start" x="265.9" y="-894" font-family="Arial" font-size="14.00" fill="#666666">[Shipment]</text>
<polygon fill="none" stroke="black" points="198.21,-851 198.21,-881.8 394.55,-881.8 394.55,-851 198.21,-851"/>
<text text-anchor="start" x="205.21" y="-863.2" font-family="Arial" font-size="14.00">date </text>
<text text-anchor="start" x="236.34" y="-863.2" font-family="Arial" font-size="14.00" fill="#666666">[datetime]</text>
<polygon fill="none" stroke="black" points="198.21,-820.2 198.21,-851 394.55,-851 394.55,-820.2 198.21,-820.2"/>
<text text-anchor="start" x="205.21" y="-832.4" font-family="Arial" font-size="14.00">invoiceStatus </text>
<text text-anchor="start" x="292.36" y="-832.4" font-family="Arial" font-size="14.00" fill="#666666">[enum]</text>
<polygon fill="none" stroke="black" stroke-width="3" points="196.71,-818.7 196.71,-1257.7 396.05,-1257.7 396.05,-818.7 196.71,-818.7"/>
</g>
<!-- Contact -->
<g id="node3" class="node">
<title>Contact</title>
<polygon fill="#efefef" stroke="none" points="43.2,-659.2 43.2,-694.8 241.55,-694.8 241.55,-659.2 43.2,-659.2"/>
<polygon fill="none" stroke="black" points="43.2,-659.2 43.2,-694.8 241.55,-694.8 241.55,-659.2 43.2,-659.2"/>
<text text-anchor="start" x="50.2" y="-672.6" font-family="Arial Bold" font-size="18.00">Contact</text>
<text text-anchor="start" x="106.19" y="-672.6" font-family="Arial" font-size="14.00">    </text>
<text text-anchor="start" x="137.3" y="-672.6" font-family="Arial" font-size="14.00" fill="#666666">[TailorDB.Type]</text>
<polygon fill="none" stroke="black" points="43.2,-628.4 43.2,-659.2 241.55,-659.2 241.55,-628.4 43.2,-628.4"/>
<text text-anchor="start" x="50.2" y="-640.6" font-family="Arial" font-size="14.00">id </text>
<text text-anchor="start" x="64.99" y="-640.6" font-family="Arial" font-size="14.00" fill="#666666">[uuid]</text>
<polygon fill="none" stroke="black" points="43.2,-597.6 43.2,-628.4 241.55,-628.4 241.55,-597.6 43.2,-597.6"/>
<text text-anchor="start" x="50.2" y="-609.8" font-family="Arial" font-size="14.00">phone </text>
<text text-anchor="start" x="93.02" y="-609.8" font-family="Arial" font-size="14.00" fill="#666666">[string]</text>
<polygon fill="none" stroke="black" points="43.2,-566.8 43.2,-597.6 241.55,-597.6 241.55,-566.8 43.2,-566.8"/>
<text text-anchor="start" x="50.2" y="-579" font-family="Arial" font-size="14.00">address1 </text>
<text text-anchor="start" x="111.68" y="-579" font-family="Arial" font-size="14.00" fill="#666666">[string]</text>
<polygon fill="none" stroke="black" points="43.2,-536 43.2,-566.8 241.55,-566.8 241.55,-536 43.2,-536"/>
<text text-anchor="start" x="50.2" y="-548.2" font-family="Arial" font-size="14.00">city </text>
<text text-anchor="start" x="75.09" y="-548.2" font-family="Arial" font-size="14.00" fill="#666666">[string]</text>
<polygon fill="none" stroke="black" points="43.2,-505.2 43.2,-536 241.55,-536 241.55,-505.2 43.2,-505.2"/>
<text text-anchor="start" x="50.2" y="-517.4" font-family="Arial" font-size="14.00">province </text>
<text text-anchor="start" x="107.01" y="-517.4" font-family="Arial" font-size="14.00" fill="#666666">[string]</text>
<polygon fill="none" stroke="black" points="43.2,-474.4 43.2,-505.2 241.55,-505.2 241.55,-474.4 43.2,-474.4"/>
<text text-anchor="start" x="50.2" y="-486.6" font-family="Arial" font-size="14.00">createdAt </text>
<text text-anchor="start" x="114.01" y="-486.6" font-family="Arial" font-size="14.00" fill="#666666">[datetime]</text>
<polygon fill="none" stroke="black" points="43.2,-443.6 43.2,-474.4 241.55,-474.4 241.55,-443.6 43.2,-443.6"/>
<text text-anchor="start" x="50.2" y="-455.8" font-family="Arial" font-size="14.00">email </text>
<text text-anchor="start" x="87.54" y="-455.8" font-family="Arial" font-size="14.00" fill="#666666">[string]</text>
<polygon fill="none" stroke="black" points="43.2,-412.8 43.2,-443.6 241.55,-443.6 241.55,-412.8 43.2,-412.8"/>
<text text-anchor="start" x="50.2" y="-425" font-family="Arial" font-size="14.00">name </text>
<text text-anchor="start" x="89.11" y="-425" font-family="Arial" font-size="14.00" fill="#666666">[string]</text>
<polygon fill="none" stroke="black" points="43.2,-382 43.2,-412.8 241.55,-412.8 241.55,-382 43.2,-382"/>
<text text-anchor="start" x="50.2" y="-394.2" font-family="Arial" font-size="14.00">quickBookCustomerId </text>
<text text-anchor="start" x="191.04" y="-394.2" font-family="Arial" font-size="14.00" fill="#666666">[string]</text>
<polygon fill="none" stroke="black" points="43.2,-351.2 43.2,-382 241.55,-382 241.55,-351.2 43.2,-351.2"/>
<text text-anchor="start" x="50.2" y="-363.4" font-family="Arial" font-size="14.00">country </text>
<text text-anchor="start" x="100" y="-363.4" font-family="Arial" font-size="14.00" fill="#666666">[string]</text>
<polygon fill="none" stroke="black" points="43.2,-320.4 43.2,-351.2 241.55,-351.2 241.55,-320.4 43.2,-320.4"/>
<text text-anchor="start" x="50.2" y="-332.6" font-family="Arial" font-size="14.00">countryCode </text>
<text text-anchor="start" x="133.47" y="-332.6" font-family="Arial" font-size="14.00" fill="#666666">[string]</text>
<polygon fill="none" stroke="black" points="43.2,-289.6 43.2,-320.4 241.55,-320.4 241.55,-289.6 43.2,-289.6"/>
<text text-anchor="start" x="50.2" y="-301.8" font-family="Arial" font-size="14.00">provinceCode </text>
<text text-anchor="start" x="140.48" y="-301.8" font-family="Arial" font-size="14.00" fill="#666666">[string]</text>
<polygon fill="none" stroke="black" points="43.2,-258.8 43.2,-289.6 241.55,-289.6 241.55,-258.8 43.2,-258.8"/>
<text text-anchor="start" x="50.2" y="-271" font-family="Arial" font-size="14.00">openBalance </text>
<text text-anchor="start" x="135.83" y="-271" font-family="Arial" font-size="14.00" fill="#666666">[float]</text>
<polygon fill="none" stroke="black" points="43.2,-228 43.2,-258.8 241.55,-258.8 241.55,-228 43.2,-228"/>
<text text-anchor="start" x="50.2" y="-240.2" font-family="Arial" font-size="14.00">creditLimit </text>
<text text-anchor="start" x="117.88" y="-240.2" font-family="Arial" font-size="14.00" fill="#666666">[float]</text>
<polygon fill="none" stroke="black" points="43.2,-197.2 43.2,-228 241.55,-228 241.55,-197.2 43.2,-197.2"/>
<text text-anchor="start" x="50.2" y="-209.4" font-family="Arial" font-size="14.00">active </text>
<text text-anchor="start" x="90.66" y="-209.4" font-family="Arial" font-size="14.00" fill="#666666">[boolean]</text>
<polygon fill="none" stroke="black" points="43.2,-166.4 43.2,-197.2 241.55,-197.2 241.55,-166.4 43.2,-166.4"/>
<text text-anchor="start" x="50.2" y="-178.6" font-family="Arial" font-size="14.00">address2 </text>
<text text-anchor="start" x="111.68" y="-178.6" font-family="Arial" font-size="14.00" fill="#666666">[string]</text>
<polygon fill="none" stroke="black" points="43.2,-135.6 43.2,-166.4 241.55,-166.4 241.55,-135.6 43.2,-135.6"/>
<text text-anchor="start" x="50.2" y="-147.8" font-family="Arial" font-size="14.00">company </text>
<text text-anchor="start" x="110.9" y="-147.8" font-family="Arial" font-size="14.00" fill="#666666">[string]</text>
<polygon fill="none" stroke="black" points="43.2,-104.8 43.2,-135.6 241.55,-135.6 241.55,-104.8 43.2,-104.8"/>
<text text-anchor="start" x="50.2" y="-117" font-family="Arial" font-size="14.00">availableCredit </text>
<text text-anchor="start" x="146.7" y="-117" font-family="Arial" font-size="14.00" fill="#666666">[float]</text>
<polygon fill="none" stroke="black" points="43.2,-74 43.2,-104.8 241.55,-104.8 241.55,-74 43.2,-74"/>
<text text-anchor="start" x="50.2" y="-86.2" font-family="Arial" font-size="14.00">updatedAt </text>
<text text-anchor="start" x="117.92" y="-86.2" font-family="Arial" font-size="14.00" fill="#666666">[datetime]</text>
<polygon fill="none" stroke="black" points="43.2,-43.2 43.2,-74 241.55,-74 241.55,-43.2 43.2,-43.2"/>
<text text-anchor="start" x="50.2" y="-55.4" font-family="Arial" font-size="14.00">zip </text>
<text text-anchor="start" x="71.99" y="-55.4" font-family="Arial" font-size="14.00" fill="#666666">[string]</text>
</g>
<!-- Invoice&#45;&gt;Contact -->
<g id="edge2" class="edge">
<title>Invoice:customerID&#45;&gt;Contact:id</title>
<path fill="none" stroke="black" d="M187.1,-1174.13C23.27,-1165.08 123.87,-931.85 198.21,-774 208.88,-751.34 230.79,-760.61 241.55,-738 259.54,-700.19 284.42,-643.8 242.55,-643.8"/>
<polygon fill="black" stroke="black" points="186.88,-1174.12 196.75,-1178.89 192.21,-1174.27 196.54,-1174.38 196.54,-1174.38 196.54,-1174.38 192.21,-1174.27 196.99,-1169.89 186.88,-1174.12"/>
<text text-anchor="start" x="76.82" y="-1184.4" font-family="Arial" font-size="10.00">ForeignKeyType: Contact</text>
</g>
<!-- Shipment -->
<g id="node4" class="node">
<title>Shipment</title>
<polygon fill="#efefef" stroke="none" points="345.69,-505.2 345.69,-540.8 557.06,-540.8 557.06,-505.2 345.69,-505.2"/>
<polygon fill="none" stroke="black" points="345.69,-505.2 345.69,-540.8 557.06,-540.8 557.06,-505.2 345.69,-505.2"/>
<text text-anchor="start" x="352.69" y="-518.6" font-family="Arial Bold" font-size="18.00">Shipment</text>
<text text-anchor="start" x="421.69" y="-518.6" font-family="Arial" font-size="14.00">    </text>
<text text-anchor="start" x="452.81" y="-518.6" font-family="Arial" font-size="14.00" fill="#666666">[TailorDB.Type]</text>
<polygon fill="none" stroke="black" points="345.69,-474.4 345.69,-505.2 557.06,-505.2 557.06,-474.4 345.69,-474.4"/>
<text text-anchor="start" x="352.69" y="-486.6" font-family="Arial" font-size="14.00">id </text>
<text text-anchor="start" x="367.48" y="-486.6" font-family="Arial" font-size="14.00" fill="#666666">[uuid]</text>
<polygon fill="none" stroke="black" points="345.69,-443.6 345.69,-474.4 557.06,-474.4 557.06,-443.6 345.69,-443.6"/>
<text text-anchor="start" x="352.69" y="-455.8" font-family="Arial" font-size="14.00">active </text>
<text text-anchor="start" x="393.15" y="-455.8" font-family="Arial" font-size="14.00" fill="#666666">[boolean]</text>
<polygon fill="none" stroke="black" points="345.69,-412.8 345.69,-443.6 557.06,-443.6 557.06,-412.8 345.69,-412.8"/>
<text text-anchor="start" x="352.69" y="-425" font-family="Arial" font-size="14.00">createdAt </text>
<text text-anchor="start" x="416.51" y="-425" font-family="Arial" font-size="14.00" fill="#666666">[datetime]</text>
<polygon fill="none" stroke="black" points="345.69,-382 345.69,-412.8 557.06,-412.8 557.06,-382 345.69,-382"/>
<text text-anchor="start" x="352.69" y="-394.2" font-family="Arial" font-size="14.00">customerID </text>
<text text-anchor="start" x="428.15" y="-394.2" font-family="Arial" font-size="14.00" fill="#666666">[uuid]</text>
<polygon fill="none" stroke="black" points="345.69,-351.2 345.69,-382 557.06,-382 557.06,-351.2 345.69,-351.2"/>
<text text-anchor="start" x="352.69" y="-363.4" font-family="Arial" font-size="14.00">salesOrderID </text>
<text text-anchor="start" x="439.05" y="-363.4" font-family="Arial" font-size="14.00" fill="#666666">[uuid]</text>
<polygon fill="none" stroke="black" points="345.69,-320.4 345.69,-351.2 557.06,-351.2 557.06,-320.4 345.69,-320.4"/>
<text text-anchor="start" x="352.69" y="-332.6" font-family="Arial" font-size="14.00">shipmentNumber </text>
<text text-anchor="start" x="463.18" y="-332.6" font-family="Arial" font-size="14.00" fill="#666666">[string]</text>
<polygon fill="none" stroke="black" points="345.69,-289.6 345.69,-320.4 557.06,-320.4 557.06,-289.6 345.69,-289.6"/>
<text text-anchor="start" x="352.69" y="-301.8" font-family="Arial" font-size="14.00">customer </text>
<text text-anchor="start" x="414.15" y="-301.8" font-family="Arial" font-size="14.00" fill="#666666">[Contact]</text>
<polygon fill="none" stroke="black" points="345.69,-258.8 345.69,-289.6 557.06,-289.6 557.06,-258.8 345.69,-258.8"/>
<text text-anchor="start" x="352.69" y="-271" font-family="Arial" font-size="14.00">salesOrder </text>
<text text-anchor="start" x="425.05" y="-271" font-family="Arial" font-size="14.00" fill="#666666">[SalesOrder]</text>
<polygon fill="none" stroke="black" points="345.69,-228 345.69,-258.8 557.06,-258.8 557.06,-228 345.69,-228"/>
<text text-anchor="start" x="352.69" y="-240.2" font-family="Arial" font-size="14.00">date </text>
<text text-anchor="start" x="383.83" y="-240.2" font-family="Arial" font-size="14.00" fill="#666666">[datetime]</text>
<polygon fill="none" stroke="black" points="345.69,-197.2 345.69,-228 557.06,-228 557.06,-197.2 345.69,-197.2"/>
<text text-anchor="start" x="352.69" y="-209.4" font-family="Arial" font-size="14.00">updatedAt </text>
<text text-anchor="start" x="420.42" y="-209.4" font-family="Arial" font-size="14.00" fill="#666666">[datetime]</text>
</g>
<!-- Invoice&#45;&gt;Shipment -->
<g id="edge3" class="edge">
<title>Invoice:shipmentID&#45;&gt;Shipment:id</title>
<path fill="none" stroke="black" d="M405.84,-1143.41C637.73,-1134.78 377.88,-828.05 345.69,-584 340.22,-542.49 302.82,-489.8 344.69,-489.8"/>
<polygon fill="black" stroke="black" points="405.88,-1143.41 395.8,-1139.09 400.54,-1143.51 396.21,-1143.59 396.21,-1143.59 396.21,-1143.59 400.54,-1143.51 395.96,-1148.09 405.88,-1143.41"/>
<text text-anchor="start" x="402.55" y="-1153.6" font-family="Arial" font-size="10.00">Source: Shipment</text>
</g>
<!-- InvoiceLineItem -->
<g id="node2" class="node">
<title>InvoiceLineItem</title>
<polygon fill="#efefef" stroke="none" points="165.22,-1720.4 165.22,-1756 427.53,-1756 427.53,-1720.4 165.22,-1720.4"/>
<polygon fill="none" stroke="black" points="165.22,-1720.4 165.22,-1756 427.53,-1756 427.53,-1720.4 165.22,-1720.4"/>
<text text-anchor="start" x="172.22" y="-1733.8" font-family="Arial Bold" font-size="18.00">InvoiceLineItem</text>
<text text-anchor="start" x="292.17" y="-1733.8" font-family="Arial" font-size="14.00">    </text>
<text text-anchor="start" x="323.28" y="-1733.8" font-family="Arial" font-size="14.00" fill="#666666">[TailorDB.Type]</text>
<polygon fill="none" stroke="black" points="165.22,-1689.6 165.22,-1720.4 427.53,-1720.4 427.53,-1689.6 165.22,-1689.6"/>
<text text-anchor="start" x="172.22" y="-1701.8" font-family="Arial" font-size="14.00">id </text>
<text text-anchor="start" x="187.01" y="-1701.8" font-family="Arial" font-size="14.00" fill="#666666">[uuid]</text>
<polygon fill="none" stroke="black" points="165.22,-1658.8 165.22,-1689.6 427.53,-1689.6 427.53,-1658.8 165.22,-1658.8"/>
<text text-anchor="start" x="172.22" y="-1671" font-family="Arial" font-size="14.00">active </text>
<text text-anchor="start" x="212.68" y="-1671" font-family="Arial" font-size="14.00" fill="#666666">[boolean]</text>
<polygon fill="none" stroke="black" points="165.22,-1628 165.22,-1658.8 427.53,-1658.8 427.53,-1628 165.22,-1628"/>
<text text-anchor="start" x="172.22" y="-1640.2" font-family="Arial" font-size="14.00">invoiceID </text>
<text text-anchor="start" x="233.69" y="-1640.2" font-family="Arial" font-size="14.00" fill="#666666">[uuid]</text>
<polygon fill="none" stroke="black" points="165.22,-1597.2 165.22,-1628 427.53,-1628 427.53,-1597.2 165.22,-1597.2"/>
<text text-anchor="start" x="172.22" y="-1609.4" font-family="Arial" font-size="14.00">invoice </text>
<text text-anchor="start" x="219.69" y="-1609.4" font-family="Arial" font-size="14.00" fill="#666666">[Invoice]</text>
<polygon fill="none" stroke="black" points="165.22,-1566.4 165.22,-1597.2 427.53,-1597.2 427.53,-1566.4 165.22,-1566.4"/>
<text text-anchor="start" x="172.22" y="-1578.6" font-family="Arial" font-size="14.00">unitPrice </text>
<text text-anchor="start" x="230.58" y="-1578.6" font-family="Arial" font-size="14.00" fill="#666666">[float]</text>
<polygon fill="none" stroke="black" points="165.22,-1535.6 165.22,-1566.4 427.53,-1566.4 427.53,-1535.6 165.22,-1535.6"/>
<text text-anchor="start" x="172.22" y="-1547.8" font-family="Arial" font-size="14.00">updatedAt </text>
<text text-anchor="start" x="239.94" y="-1547.8" font-family="Arial" font-size="14.00" fill="#666666">[datetime]</text>
<polygon fill="none" stroke="black" points="165.22,-1504.8 165.22,-1535.6 427.53,-1535.6 427.53,-1504.8 165.22,-1504.8"/>
<text text-anchor="start" x="172.22" y="-1517" font-family="Arial" font-size="14.00">quantity </text>
<text text-anchor="start" x="225.14" y="-1517" font-family="Arial" font-size="14.00" fill="#666666">[float]</text>
<polygon fill="none" stroke="black" points="165.22,-1474 165.22,-1504.8 427.53,-1504.8 427.53,-1474 165.22,-1474"/>
<text text-anchor="start" x="172.22" y="-1486.2" font-family="Arial" font-size="14.00">createdAt </text>
<text text-anchor="start" x="236.03" y="-1486.2" font-family="Arial" font-size="14.00" fill="#666666">[datetime]</text>
<polygon fill="none" stroke="black" points="165.22,-1443.2 165.22,-1474 427.53,-1474 427.53,-1443.2 165.22,-1443.2"/>
<text text-anchor="start" x="172.22" y="-1455.4" font-family="Arial" font-size="14.00">variantID </text>
<text text-anchor="start" x="232.13" y="-1455.4" font-family="Arial" font-size="14.00" fill="#666666">[uuid]</text>
<polygon fill="none" stroke="black" points="165.22,-1412.4 165.22,-1443.2 427.53,-1443.2 427.53,-1412.4 165.22,-1412.4"/>
<text text-anchor="start" x="172.22" y="-1424.6" font-family="Arial" font-size="14.00">variant </text>
<text text-anchor="start" x="218.13" y="-1424.6" font-family="Arial" font-size="14.00" fill="#666666">[ProductVariant]</text>
<polygon fill="none" stroke="black" points="165.22,-1381.6 165.22,-1412.4 427.53,-1412.4 427.53,-1381.6 165.22,-1381.6"/>
<text text-anchor="start" x="172.22" y="-1393.8" font-family="Arial" font-size="14.00">taxable </text>
<text text-anchor="start" x="221.26" y="-1393.8" font-family="Arial" font-size="14.00" fill="#666666">[boolean]</text>
</g>
<!-- InvoiceLineItem&#45;&gt;Invoice -->
<g id="edge1" class="edge">
<title>InvoiceLineItem:invoiceID&#45;&gt;Invoice:id</title>
<path fill="none" stroke="black" d="M438.89,-1642.98C622.59,-1627.71 587.32,-1205.2 395.55,-1205.2"/>
<polygon fill="black" stroke="black" points="438.86,-1642.98 428.68,-1638.89 433.53,-1643.2 429.2,-1643.37 429.2,-1643.37 429.2,-1643.37 433.53,-1643.2 429.05,-1647.88 438.86,-1642.98"/>
<text text-anchor="start" x="435.53" y="-1653.4" font-family="Arial" font-size="10.00">Source: Invoice</text>
</g>
</g>
</svg>
