<?xml version="1.0" encoding="UTF-8" standalone="no"?>
<!DOCTYPE svg PUBLIC "-//W3C//DTD SVG 1.1//EN"
 "http://www.w3.org/Graphics/SVG/1.1/DTD/svg11.dtd">
<!-- Generated by graphviz version 12.1.2 (20240928.0832)
 -->
<!-- Title: Invoice Pages: 1 -->
<svg width="608pt" height="1807pt"
 viewBox="0.00 0.00 608.26 1807.20" xmlns="http://www.w3.org/2000/svg" xmlns:xlink="http://www.w3.org/1999/xlink">
<g id="graph0" class="graph" transform="scale(1 1) rotate(0) translate(4 1803.2)">
<title>Invoice</title>
<polygon fill="white" stroke="none" points="-4,4 -4,-1803.2 604.26,-1803.2 604.26,4 -4,4"/>
<!-- Invoice -->
<g id="node1" class="node">
<title>Invoice</title>
<polygon fill="#efefef" stroke="none" points="204.71,-1220.6 204.71,-1256.2 401.05,-1256.2 401.05,-1220.6 204.71,-1220.6"/>
<polygon fill="none" stroke="black" points="204.71,-1220.6 204.71,-1256.2 401.05,-1256.2 401.05,-1220.6 204.71,-1220.6"/>
<text text-anchor="start" x="211.71" y="-1234" font-family="Arial Bold" font-size="18.00">Invoice</text>
<text text-anchor="start" x="265.69" y="-1234" font-family="Arial" font-size="14.00">    </text>
<text text-anchor="start" x="296.81" y="-1234" font-family="Arial" font-size="14.00" fill="#666666">[TailorDB.Type]</text>
<polygon fill="none" stroke="black" points="204.71,-1189.8 204.71,-1220.6 401.05,-1220.6 401.05,-1189.8 204.71,-1189.8"/>
<text text-anchor="start" x="211.71" y="-1202" font-family="Arial" font-size="14.00">id </text>
<text text-anchor="start" x="226.5" y="-1202" font-family="Arial" font-size="14.00" fill="#666666">[uuid]</text>
<polygon fill="none" stroke="black" points="204.71,-1159 204.71,-1189.8 401.05,-1189.8 401.05,-1159 204.71,-1159"/>
<text text-anchor="start" x="211.71" y="-1171.2" font-family="Arial" font-size="14.00">shipment </text>
<text text-anchor="start" x="272.41" y="-1171.2" font-family="Arial" font-size="14.00" fill="#666666">[Shipment]</text>
<polygon fill="none" stroke="black" points="204.71,-1128.2 204.71,-1159 401.05,-1159 401.05,-1128.2 204.71,-1128.2"/>
<text text-anchor="start" x="211.71" y="-1140.4" font-family="Arial" font-size="14.00">updatedAt </text>
<text text-anchor="start" x="279.44" y="-1140.4" font-family="Arial" font-size="14.00" fill="#666666">[datetime]</text>
<polygon fill="none" stroke="black" points="204.71,-1097.4 204.71,-1128.2 401.05,-1128.2 401.05,-1097.4 204.71,-1097.4"/>
<text text-anchor="start" x="211.71" y="-1109.6" font-family="Arial" font-size="14.00">createdAt </text>
<text text-anchor="start" x="275.53" y="-1109.6" font-family="Arial" font-size="14.00" fill="#666666">[datetime]</text>
<polygon fill="none" stroke="black" points="204.71,-1066.6 204.71,-1097.4 401.05,-1097.4 401.05,-1066.6 204.71,-1066.6"/>
<text text-anchor="start" x="211.71" y="-1078.8" font-family="Arial" font-size="14.00">customerID </text>
<text text-anchor="start" x="287.18" y="-1078.8" font-family="Arial" font-size="14.00" fill="#666666">[uuid]</text>
<polygon fill="none" stroke="black" points="204.71,-1035.8 204.71,-1066.6 401.05,-1066.6 401.05,-1035.8 204.71,-1035.8"/>
<text text-anchor="start" x="211.71" y="-1048" font-family="Arial" font-size="14.00">customer </text>
<text text-anchor="start" x="273.18" y="-1048" font-family="Arial" font-size="14.00" fill="#666666">[Contact]</text>
<polygon fill="none" stroke="black" points="204.71,-1005 204.71,-1035.8 401.05,-1035.8 401.05,-1005 204.71,-1005"/>
<text text-anchor="start" x="211.71" y="-1017.2" font-family="Arial" font-size="14.00">date </text>
<text text-anchor="start" x="242.85" y="-1017.2" font-family="Arial" font-size="14.00" fill="#666666">[datetime]</text>
<polygon fill="none" stroke="black" points="204.71,-974.2 204.71,-1005 401.05,-1005 401.05,-974.2 204.71,-974.2"/>
<text text-anchor="start" x="211.71" y="-986.4" font-family="Arial" font-size="14.00">quickbookInvoiceId </text>
<text text-anchor="start" x="334.68" y="-986.4" font-family="Arial" font-size="14.00" fill="#666666">[string]</text>
<polygon fill="none" stroke="black" points="204.71,-943.4 204.71,-974.2 401.05,-974.2 401.05,-943.4 204.71,-943.4"/>
<text text-anchor="start" x="211.71" y="-955.6" font-family="Arial" font-size="14.00">invoiceStatus </text>
<text text-anchor="start" x="298.87" y="-955.6" font-family="Arial" font-size="14.00" fill="#666666">[enum]</text>
<polygon fill="none" stroke="black" points="204.71,-912.6 204.71,-943.4 401.05,-943.4 401.05,-912.6 204.71,-912.6"/>
<text text-anchor="start" x="211.71" y="-924.8" font-family="Arial" font-size="14.00">pushedToQBAt </text>
<text text-anchor="start" x="311.33" y="-924.8" font-family="Arial" font-size="14.00" fill="#666666">[datetime]</text>
<polygon fill="none" stroke="black" points="204.71,-881.8 204.71,-912.6 401.05,-912.6 401.05,-881.8 204.71,-881.8"/>
<text text-anchor="start" x="211.71" y="-894" font-family="Arial" font-size="14.00">active </text>
<text text-anchor="start" x="252.18" y="-894" font-family="Arial" font-size="14.00" fill="#666666">[boolean]</text>
<polygon fill="none" stroke="black" points="204.71,-851 204.71,-881.8 401.05,-881.8 401.05,-851 204.71,-851"/>
<text text-anchor="start" x="211.71" y="-863.2" font-family="Arial" font-size="14.00">invoiceNumber </text>
<text text-anchor="start" x="308.98" y="-863.2" font-family="Arial" font-size="14.00" fill="#666666">[string]</text>
<polygon fill="none" stroke="black" points="204.71,-820.2 204.71,-851 401.05,-851 401.05,-820.2 204.71,-820.2"/>
<text text-anchor="start" x="211.71" y="-832.4" font-family="Arial" font-size="14.00">shipmentID </text>
<text text-anchor="start" x="286.41" y="-832.4" font-family="Arial" font-size="14.00" fill="#666666">[uuid]</text>
<polygon fill="none" stroke="black" stroke-width="3" points="203.21,-818.7 203.21,-1257.7 402.55,-1257.7 402.55,-818.7 203.21,-818.7"/>
</g>
<!-- Shipment -->
<g id="node3" class="node">
<title>Shipment</title>
<polygon fill="#efefef" stroke="none" points="43.2,-505.2 43.2,-540.8 254.57,-540.8 254.57,-505.2 43.2,-505.2"/>
<polygon fill="none" stroke="black" points="43.2,-505.2 43.2,-540.8 254.57,-540.8 254.57,-505.2 43.2,-505.2"/>
<text text-anchor="start" x="50.2" y="-518.6" font-family="Arial Bold" font-size="18.00">Shipment</text>
<text text-anchor="start" x="119.2" y="-518.6" font-family="Arial" font-size="14.00">    </text>
<text text-anchor="start" x="150.32" y="-518.6" font-family="Arial" font-size="14.00" fill="#666666">[TailorDB.Type]</text>
<polygon fill="none" stroke="black" points="43.2,-474.4 43.2,-505.2 254.57,-505.2 254.57,-474.4 43.2,-474.4"/>
<text text-anchor="start" x="50.2" y="-486.6" font-family="Arial" font-size="14.00">id </text>
<text text-anchor="start" x="64.99" y="-486.6" font-family="Arial" font-size="14.00" fill="#666666">[uuid]</text>
<polygon fill="none" stroke="black" points="43.2,-443.6 43.2,-474.4 254.57,-474.4 254.57,-443.6 43.2,-443.6"/>
<text text-anchor="start" x="50.2" y="-455.8" font-family="Arial" font-size="14.00">customerID </text>
<text text-anchor="start" x="125.66" y="-455.8" font-family="Arial" font-size="14.00" fill="#666666">[uuid]</text>
<polygon fill="none" stroke="black" points="43.2,-412.8 43.2,-443.6 254.57,-443.6 254.57,-412.8 43.2,-412.8"/>
<text text-anchor="start" x="50.2" y="-425" font-family="Arial" font-size="14.00">customer </text>
<text text-anchor="start" x="111.66" y="-425" font-family="Arial" font-size="14.00" fill="#666666">[Contact]</text>
<polygon fill="none" stroke="black" points="43.2,-382 43.2,-412.8 254.57,-412.8 254.57,-382 43.2,-382"/>
<text text-anchor="start" x="50.2" y="-394.2" font-family="Arial" font-size="14.00">updatedAt </text>
<text text-anchor="start" x="117.92" y="-394.2" font-family="Arial" font-size="14.00" fill="#666666">[datetime]</text>
<polygon fill="none" stroke="black" points="43.2,-351.2 43.2,-382 254.57,-382 254.57,-351.2 43.2,-351.2"/>
<text text-anchor="start" x="50.2" y="-363.4" font-family="Arial" font-size="14.00">createdAt </text>
<text text-anchor="start" x="114.01" y="-363.4" font-family="Arial" font-size="14.00" fill="#666666">[datetime]</text>
<polygon fill="none" stroke="black" points="43.2,-320.4 43.2,-351.2 254.57,-351.2 254.57,-320.4 43.2,-320.4"/>
<text text-anchor="start" x="50.2" y="-332.6" font-family="Arial" font-size="14.00">shipmentNumber </text>
<text text-anchor="start" x="160.69" y="-332.6" font-family="Arial" font-size="14.00" fill="#666666">[string]</text>
<polygon fill="none" stroke="black" points="43.2,-289.6 43.2,-320.4 254.57,-320.4 254.57,-289.6 43.2,-289.6"/>
<text text-anchor="start" x="50.2" y="-301.8" font-family="Arial" font-size="14.00">salesOrderID </text>
<text text-anchor="start" x="136.56" y="-301.8" font-family="Arial" font-size="14.00" fill="#666666">[uuid]</text>
<polygon fill="none" stroke="black" points="43.2,-258.8 43.2,-289.6 254.57,-289.6 254.57,-258.8 43.2,-258.8"/>
<text text-anchor="start" x="50.2" y="-271" font-family="Arial" font-size="14.00">salesOrder </text>
<text text-anchor="start" x="122.56" y="-271" font-family="Arial" font-size="14.00" fill="#666666">[SalesOrder]</text>
<polygon fill="none" stroke="black" points="43.2,-228 43.2,-258.8 254.57,-258.8 254.57,-228 43.2,-228"/>
<text text-anchor="start" x="50.2" y="-240.2" font-family="Arial" font-size="14.00">date </text>
<text text-anchor="start" x="81.34" y="-240.2" font-family="Arial" font-size="14.00" fill="#666666">[datetime]</text>
<polygon fill="none" stroke="black" points="43.2,-197.2 43.2,-228 254.57,-228 254.57,-197.2 43.2,-197.2"/>
<text text-anchor="start" x="50.2" y="-209.4" font-family="Arial" font-size="14.00">active </text>
<text text-anchor="start" x="90.66" y="-209.4" font-family="Arial" font-size="14.00" fill="#666666">[boolean]</text>
</g>
<!-- Invoice&#45;&gt;Shipment -->
<g id="edge2" class="edge">
<title>Invoice:shipmentID&#45;&gt;Shipment:id</title>
<path fill="none" stroke="black" d="M193.63,-835.04C65.02,-819.58 407.33,-489.8 255.57,-489.8"/>
<polygon fill="black" stroke="black" points="193.4,-835.03 203.13,-840.07 198.72,-835.32 203.05,-835.56 203.05,-835.56 203.05,-835.56 198.72,-835.32 203.63,-831.09 193.4,-835.03"/>
<text text-anchor="start" x="117.23" y="-845.6" font-family="Arial" font-size="10.00">Source: Shipment</text>
</g>
<!-- Contact -->
<g id="node4" class="node">
<title>Contact</title>
<polygon fill="#efefef" stroke="none" points="358.71,-659.2 358.71,-694.8 557.06,-694.8 557.06,-659.2 358.71,-659.2"/>
<polygon fill="none" stroke="black" points="358.71,-659.2 358.71,-694.8 557.06,-694.8 557.06,-659.2 358.71,-659.2"/>
<text text-anchor="start" x="365.71" y="-672.6" font-family="Arial Bold" font-size="18.00">Contact</text>
<text text-anchor="start" x="421.69" y="-672.6" font-family="Arial" font-size="14.00">    </text>
<text text-anchor="start" x="452.81" y="-672.6" font-family="Arial" font-size="14.00" fill="#666666">[TailorDB.Type]</text>
<polygon fill="none" stroke="black" points="358.71,-628.4 358.71,-659.2 557.06,-659.2 557.06,-628.4 358.71,-628.4"/>
<text text-anchor="start" x="365.71" y="-640.6" font-family="Arial" font-size="14.00">id </text>
<text text-anchor="start" x="380.49" y="-640.6" font-family="Arial" font-size="14.00" fill="#666666">[uuid]</text>
<polygon fill="none" stroke="black" points="358.71,-597.6 358.71,-628.4 557.06,-628.4 557.06,-597.6 358.71,-597.6"/>
<text text-anchor="start" x="365.71" y="-609.8" font-family="Arial" font-size="14.00">openBalance </text>
<text text-anchor="start" x="451.34" y="-609.8" font-family="Arial" font-size="14.00" fill="#666666">[float]</text>
<polygon fill="none" stroke="black" points="358.71,-566.8 358.71,-597.6 557.06,-597.6 557.06,-566.8 358.71,-566.8"/>
<text text-anchor="start" x="365.71" y="-579" font-family="Arial" font-size="14.00">city </text>
<text text-anchor="start" x="390.6" y="-579" font-family="Arial" font-size="14.00" fill="#666666">[string]</text>
<polygon fill="none" stroke="black" points="358.71,-536 358.71,-566.8 557.06,-566.8 557.06,-536 358.71,-536"/>
<text text-anchor="start" x="365.71" y="-548.2" font-family="Arial" font-size="14.00">province </text>
<text text-anchor="start" x="422.51" y="-548.2" font-family="Arial" font-size="14.00" fill="#666666">[string]</text>
<polygon fill="none" stroke="black" points="358.71,-505.2 358.71,-536 557.06,-536 557.06,-505.2 358.71,-505.2"/>
<text text-anchor="start" x="365.71" y="-517.4" font-family="Arial" font-size="14.00">updatedAt </text>
<text text-anchor="start" x="433.43" y="-517.4" font-family="Arial" font-size="14.00" fill="#666666">[datetime]</text>
<polygon fill="none" stroke="black" points="358.71,-474.4 358.71,-505.2 557.06,-505.2 557.06,-474.4 358.71,-474.4"/>
<text text-anchor="start" x="365.71" y="-486.6" font-family="Arial" font-size="14.00">country </text>
<text text-anchor="start" x="415.51" y="-486.6" font-family="Arial" font-size="14.00" fill="#666666">[string]</text>
<polygon fill="none" stroke="black" points="358.71,-443.6 358.71,-474.4 557.06,-474.4 557.06,-443.6 358.71,-443.6"/>
<text text-anchor="start" x="365.71" y="-455.8" font-family="Arial" font-size="14.00">zip </text>
<text text-anchor="start" x="387.49" y="-455.8" font-family="Arial" font-size="14.00" fill="#666666">[string]</text>
<polygon fill="none" stroke="black" points="358.71,-412.8 358.71,-443.6 557.06,-443.6 557.06,-412.8 358.71,-412.8"/>
<text text-anchor="start" x="365.71" y="-425" font-family="Arial" font-size="14.00">provinceCode </text>
<text text-anchor="start" x="455.98" y="-425" font-family="Arial" font-size="14.00" fill="#666666">[string]</text>
<polygon fill="none" stroke="black" points="358.71,-382 358.71,-412.8 557.06,-412.8 557.06,-382 358.71,-382"/>
<text text-anchor="start" x="365.71" y="-394.2" font-family="Arial" font-size="14.00">creditLimit </text>
<text text-anchor="start" x="433.39" y="-394.2" font-family="Arial" font-size="14.00" fill="#666666">[float]</text>
<polygon fill="none" stroke="black" points="358.71,-351.2 358.71,-382 557.06,-382 557.06,-351.2 358.71,-351.2"/>
<text text-anchor="start" x="365.71" y="-363.4" font-family="Arial" font-size="14.00">active </text>
<text text-anchor="start" x="406.17" y="-363.4" font-family="Arial" font-size="14.00" fill="#666666">[boolean]</text>
<polygon fill="none" stroke="black" points="358.71,-320.4 358.71,-351.2 557.06,-351.2 557.06,-320.4 358.71,-320.4"/>
<text text-anchor="start" x="365.71" y="-332.6" font-family="Arial" font-size="14.00">name </text>
<text text-anchor="start" x="404.62" y="-332.6" font-family="Arial" font-size="14.00" fill="#666666">[string]</text>
<polygon fill="none" stroke="black" points="358.71,-289.6 358.71,-320.4 557.06,-320.4 557.06,-289.6 358.71,-289.6"/>
<text text-anchor="start" x="365.71" y="-301.8" font-family="Arial" font-size="14.00">email </text>
<text text-anchor="start" x="403.05" y="-301.8" font-family="Arial" font-size="14.00" fill="#666666">[string]</text>
<polygon fill="none" stroke="black" points="358.71,-258.8 358.71,-289.6 557.06,-289.6 557.06,-258.8 358.71,-258.8"/>
<text text-anchor="start" x="365.71" y="-271" font-family="Arial" font-size="14.00">countryCode </text>
<text text-anchor="start" x="448.98" y="-271" font-family="Arial" font-size="14.00" fill="#666666">[string]</text>
<polygon fill="none" stroke="black" points="358.71,-228 358.71,-258.8 557.06,-258.8 557.06,-228 358.71,-228"/>
<text text-anchor="start" x="365.71" y="-240.2" font-family="Arial" font-size="14.00">company </text>
<text text-anchor="start" x="426.4" y="-240.2" font-family="Arial" font-size="14.00" fill="#666666">[string]</text>
<polygon fill="none" stroke="black" points="358.71,-197.2 358.71,-228 557.06,-228 557.06,-197.2 358.71,-197.2"/>
<text text-anchor="start" x="365.71" y="-209.4" font-family="Arial" font-size="14.00">quickBookCustomerId </text>
<text text-anchor="start" x="506.55" y="-209.4" font-family="Arial" font-size="14.00" fill="#666666">[string]</text>
<polygon fill="none" stroke="black" points="358.71,-166.4 358.71,-197.2 557.06,-197.2 557.06,-166.4 358.71,-166.4"/>
<text text-anchor="start" x="365.71" y="-178.6" font-family="Arial" font-size="14.00">address2 </text>
<text text-anchor="start" x="427.19" y="-178.6" font-family="Arial" font-size="14.00" fill="#666666">[string]</text>
<polygon fill="none" stroke="black" points="358.71,-135.6 358.71,-166.4 557.06,-166.4 557.06,-135.6 358.71,-135.6"/>
<text text-anchor="start" x="365.71" y="-147.8" font-family="Arial" font-size="14.00">availableCredit </text>
<text text-anchor="start" x="462.2" y="-147.8" font-family="Arial" font-size="14.00" fill="#666666">[float]</text>
<polygon fill="none" stroke="black" points="358.71,-104.8 358.71,-135.6 557.06,-135.6 557.06,-104.8 358.71,-104.8"/>
<text text-anchor="start" x="365.71" y="-117" font-family="Arial" font-size="14.00">createdAt </text>
<text text-anchor="start" x="429.52" y="-117" font-family="Arial" font-size="14.00" fill="#666666">[datetime]</text>
<polygon fill="none" stroke="black" points="358.71,-74 358.71,-104.8 557.06,-104.8 557.06,-74 358.71,-74"/>
<text text-anchor="start" x="365.71" y="-86.2" font-family="Arial" font-size="14.00">phone </text>
<text text-anchor="start" x="408.53" y="-86.2" font-family="Arial" font-size="14.00" fill="#666666">[string]</text>
<polygon fill="none" stroke="black" points="358.71,-43.2 358.71,-74 557.06,-74 557.06,-43.2 358.71,-43.2"/>
<text text-anchor="start" x="365.71" y="-55.4" font-family="Arial" font-size="14.00">address1 </text>
<text text-anchor="start" x="427.19" y="-55.4" font-family="Arial" font-size="14.00" fill="#666666">[string]</text>
</g>
<!-- Invoice&#45;&gt;Contact -->
<g id="edge3" class="edge">
<title>Invoice:customerID&#45;&gt;Contact:id</title>
<path fill="none" stroke="black" d="M412.43,-1081.62C534.73,-1072.35 457.19,-894.88 401.05,-774 390.65,-751.6 369.19,-760.37 358.71,-738 340.93,-700.09 315.84,-643.8 357.71,-643.8"/>
<polygon fill="black" stroke="black" points="412.38,-1081.62 402.22,-1077.49 407.05,-1081.82 402.72,-1081.98 402.72,-1081.98 402.72,-1081.98 407.05,-1081.82 402.55,-1086.48 412.38,-1081.62"/>
<text text-anchor="start" x="409.05" y="-1092" font-family="Arial" font-size="10.00">ForeignKeyType: Contact</text>
</g>
<!-- InvoiceLineItem -->
<g id="node2" class="node">
<title>InvoiceLineItem</title>
<polygon fill="#efefef" stroke="none" points="171.73,-1720.4 171.73,-1756 434.04,-1756 434.04,-1720.4 171.73,-1720.4"/>
<polygon fill="none" stroke="black" points="171.73,-1720.4 171.73,-1756 434.04,-1756 434.04,-1720.4 171.73,-1720.4"/>
<text text-anchor="start" x="178.73" y="-1733.8" font-family="Arial Bold" font-size="18.00">InvoiceLineItem</text>
<text text-anchor="start" x="298.67" y="-1733.8" font-family="Arial" font-size="14.00">    </text>
<text text-anchor="start" x="329.79" y="-1733.8" font-family="Arial" font-size="14.00" fill="#666666">[TailorDB.Type]</text>
<polygon fill="none" stroke="black" points="171.73,-1689.6 171.73,-1720.4 434.04,-1720.4 434.04,-1689.6 171.73,-1689.6"/>
<text text-anchor="start" x="178.73" y="-1701.8" font-family="Arial" font-size="14.00">id </text>
<text text-anchor="start" x="193.52" y="-1701.8" font-family="Arial" font-size="14.00" fill="#666666">[uuid]</text>
<polygon fill="none" stroke="black" points="171.73,-1658.8 171.73,-1689.6 434.04,-1689.6 434.04,-1658.8 171.73,-1658.8"/>
<text text-anchor="start" x="178.73" y="-1671" font-family="Arial" font-size="14.00">active </text>
<text text-anchor="start" x="219.19" y="-1671" font-family="Arial" font-size="14.00" fill="#666666">[boolean]</text>
<polygon fill="none" stroke="black" points="171.73,-1628 171.73,-1658.8 434.04,-1658.8 434.04,-1628 171.73,-1628"/>
<text text-anchor="start" x="178.73" y="-1640.2" font-family="Arial" font-size="14.00">invoice </text>
<text text-anchor="start" x="226.2" y="-1640.2" font-family="Arial" font-size="14.00" fill="#666666">[Invoice]</text>
<polygon fill="none" stroke="black" points="171.73,-1597.2 171.73,-1628 434.04,-1628 434.04,-1597.2 171.73,-1597.2"/>
<text text-anchor="start" x="178.73" y="-1609.4" font-family="Arial" font-size="14.00">quantity </text>
<text text-anchor="start" x="231.65" y="-1609.4" font-family="Arial" font-size="14.00" fill="#666666">[float]</text>
<polygon fill="none" stroke="black" points="171.73,-1566.4 171.73,-1597.2 434.04,-1597.2 434.04,-1566.4 171.73,-1566.4"/>
<text text-anchor="start" x="178.73" y="-1578.6" font-family="Arial" font-size="14.00">taxable </text>
<text text-anchor="start" x="227.76" y="-1578.6" font-family="Arial" font-size="14.00" fill="#666666">[boolean]</text>
<polygon fill="none" stroke="black" points="171.73,-1535.6 171.73,-1566.4 434.04,-1566.4 434.04,-1535.6 171.73,-1535.6"/>
<text text-anchor="start" x="178.73" y="-1547.8" font-family="Arial" font-size="14.00">createdAt </text>
<text text-anchor="start" x="242.54" y="-1547.8" font-family="Arial" font-size="14.00" fill="#666666">[datetime]</text>
<polygon fill="none" stroke="black" points="171.73,-1504.8 171.73,-1535.6 434.04,-1535.6 434.04,-1504.8 171.73,-1504.8"/>
<text text-anchor="start" x="178.73" y="-1517" font-family="Arial" font-size="14.00">invoiceID </text>
<text text-anchor="start" x="240.2" y="-1517" font-family="Arial" font-size="14.00" fill="#666666">[uuid]</text>
<polygon fill="none" stroke="black" points="171.73,-1474 171.73,-1504.8 434.04,-1504.8 434.04,-1474 171.73,-1474"/>
<text text-anchor="start" x="178.73" y="-1486.2" font-family="Arial" font-size="14.00">unitPrice </text>
<text text-anchor="start" x="237.09" y="-1486.2" font-family="Arial" font-size="14.00" fill="#666666">[float]</text>
<polygon fill="none" stroke="black" points="171.73,-1443.2 171.73,-1474 434.04,-1474 434.04,-1443.2 171.73,-1443.2"/>
<text text-anchor="start" x="178.73" y="-1455.4" font-family="Arial" font-size="14.00">updatedAt </text>
<text text-anchor="start" x="246.45" y="-1455.4" font-family="Arial" font-size="14.00" fill="#666666">[datetime]</text>
<polygon fill="none" stroke="black" points="171.73,-1412.4 171.73,-1443.2 434.04,-1443.2 434.04,-1412.4 171.73,-1412.4"/>
<text text-anchor="start" x="178.73" y="-1424.6" font-family="Arial" font-size="14.00">variantID </text>
<text text-anchor="start" x="238.64" y="-1424.6" font-family="Arial" font-size="14.00" fill="#666666">[uuid]</text>
<polygon fill="none" stroke="black" points="171.73,-1381.6 171.73,-1412.4 434.04,-1412.4 434.04,-1381.6 171.73,-1381.6"/>
<text text-anchor="start" x="178.73" y="-1393.8" font-family="Arial" font-size="14.00">variant </text>
<text text-anchor="start" x="224.64" y="-1393.8" font-family="Arial" font-size="14.00" fill="#666666">[ProductVariant]</text>
</g>
<!-- InvoiceLineItem&#45;&gt;Invoice -->
<g id="edge1" class="edge">
<title>InvoiceLineItem:invoiceID&#45;&gt;Invoice:id</title>
<path fill="none" stroke="black" d="M445.43,-1519.6C574.06,-1504.41 539.24,-1205.2 402.05,-1205.2"/>
<polygon fill="black" stroke="black" points="445.36,-1519.61 435.11,-1515.69 440.03,-1519.91 435.71,-1520.16 435.71,-1520.16 435.71,-1520.16 440.03,-1519.91 435.63,-1524.67 445.36,-1519.61"/>
<text text-anchor="start" x="442.04" y="-1530.2" font-family="Arial" font-size="10.00">Source: Invoice</text>
</g>
</g>
</svg>
