<?xml version="1.0" encoding="UTF-8" standalone="no"?>
<!DOCTYPE svg PUBLIC "-//W3C//DTD SVG 1.1//EN"
 "http://www.w3.org/Graphics/SVG/1.1/DTD/svg11.dtd">
<!-- Generated by graphviz version 12.1.2 (20240928.0832)
 -->
<!-- Title: InvoiceLineItem Pages: 1 -->
<svg width="648pt" height="1310pt"
 viewBox="0.00 0.00 647.74 1310.40" xmlns="http://www.w3.org/2000/svg" xmlns:xlink="http://www.w3.org/1999/xlink">
<g id="graph0" class="graph" transform="scale(1 1) rotate(0) translate(4 1306.4)">
<title>InvoiceLineItem</title>
<polygon fill="white" stroke="none" points="-4,4 -4,-1306.4 643.74,-1306.4 643.74,4 -4,4"/>
<!-- InvoiceLineItem -->
<g id="node1" class="node">
<title>InvoiceLineItem</title>
<polygon fill="#efefef" stroke="none" points="202.21,-1220.6 202.21,-1256.2 464.52,-1256.2 464.52,-1220.6 202.21,-1220.6"/>
<polygon fill="none" stroke="black" points="202.21,-1220.6 202.21,-1256.2 464.52,-1256.2 464.52,-1220.6 202.21,-1220.6"/>
<text text-anchor="start" x="209.21" y="-1234" font-family="Arial Bold" font-size="18.00">InvoiceLineItem</text>
<text text-anchor="start" x="329.16" y="-1234" font-family="Arial" font-size="14.00">    </text>
<text text-anchor="start" x="360.27" y="-1234" font-family="Arial" font-size="14.00" fill="#666666">[TailorDB.Type]</text>
<polygon fill="none" stroke="black" points="202.21,-1189.8 202.21,-1220.6 464.52,-1220.6 464.52,-1189.8 202.21,-1189.8"/>
<text text-anchor="start" x="209.21" y="-1202" font-family="Arial" font-size="14.00">id </text>
<text text-anchor="start" x="224" y="-1202" font-family="Arial" font-size="14.00" fill="#666666">[uuid]</text>
<polygon fill="none" stroke="black" points="202.21,-1159 202.21,-1189.8 464.52,-1189.8 464.52,-1159 202.21,-1159"/>
<text text-anchor="start" x="209.21" y="-1171.2" font-family="Arial" font-size="14.00">updatedAt </text>
<text text-anchor="start" x="276.94" y="-1171.2" font-family="Arial" font-size="14.00" fill="#666666">[datetime]</text>
<polygon fill="none" stroke="black" points="202.21,-1128.2 202.21,-1159 464.52,-1159 464.52,-1128.2 202.21,-1128.2"/>
<text text-anchor="start" x="209.21" y="-1140.4" font-family="Arial" font-size="14.00">variantID </text>
<text text-anchor="start" x="269.12" y="-1140.4" font-family="Arial" font-size="14.00" fill="#666666">[uuid]</text>
<polygon fill="none" stroke="black" points="202.21,-1097.4 202.21,-1128.2 464.52,-1128.2 464.52,-1097.4 202.21,-1097.4"/>
<text text-anchor="start" x="209.21" y="-1109.6" font-family="Arial" font-size="14.00">variant </text>
<text text-anchor="start" x="255.12" y="-1109.6" font-family="Arial" font-size="14.00" fill="#666666">[ProductVariant]</text>
<polygon fill="none" stroke="black" points="202.21,-1066.6 202.21,-1097.4 464.52,-1097.4 464.52,-1066.6 202.21,-1066.6"/>
<text text-anchor="start" x="209.21" y="-1078.8" font-family="Arial" font-size="14.00">active </text>
<text text-anchor="start" x="249.67" y="-1078.8" font-family="Arial" font-size="14.00" fill="#666666">[boolean]</text>
<polygon fill="none" stroke="black" points="202.21,-1035.8 202.21,-1066.6 464.52,-1066.6 464.52,-1035.8 202.21,-1035.8"/>
<text text-anchor="start" x="209.21" y="-1048" font-family="Arial" font-size="14.00">invoice </text>
<text text-anchor="start" x="256.68" y="-1048" font-family="Arial" font-size="14.00" fill="#666666">[Invoice]</text>
<polygon fill="none" stroke="black" points="202.21,-1005 202.21,-1035.8 464.52,-1035.8 464.52,-1005 202.21,-1005"/>
<text text-anchor="start" x="209.21" y="-1017.2" font-family="Arial" font-size="14.00">unitPrice </text>
<text text-anchor="start" x="267.57" y="-1017.2" font-family="Arial" font-size="14.00" fill="#666666">[float]</text>
<polygon fill="none" stroke="black" points="202.21,-974.2 202.21,-1005 464.52,-1005 464.52,-974.2 202.21,-974.2"/>
<text text-anchor="start" x="209.21" y="-986.4" font-family="Arial" font-size="14.00">quantity </text>
<text text-anchor="start" x="262.14" y="-986.4" font-family="Arial" font-size="14.00" fill="#666666">[float]</text>
<polygon fill="none" stroke="black" points="202.21,-943.4 202.21,-974.2 464.52,-974.2 464.52,-943.4 202.21,-943.4"/>
<text text-anchor="start" x="209.21" y="-955.6" font-family="Arial" font-size="14.00">taxable </text>
<text text-anchor="start" x="258.25" y="-955.6" font-family="Arial" font-size="14.00" fill="#666666">[boolean]</text>
<polygon fill="none" stroke="black" points="202.21,-912.6 202.21,-943.4 464.52,-943.4 464.52,-912.6 202.21,-912.6"/>
<text text-anchor="start" x="209.21" y="-924.8" font-family="Arial" font-size="14.00">createdAt </text>
<text text-anchor="start" x="273.03" y="-924.8" font-family="Arial" font-size="14.00" fill="#666666">[datetime]</text>
<polygon fill="none" stroke="black" points="202.21,-881.8 202.21,-912.6 464.52,-912.6 464.52,-881.8 202.21,-881.8"/>
<text text-anchor="start" x="209.21" y="-894" font-family="Arial" font-size="14.00">invoiceID </text>
<text text-anchor="start" x="270.68" y="-894" font-family="Arial" font-size="14.00" fill="#666666">[uuid]</text>
<polygon fill="none" stroke="black" stroke-width="3" points="200.71,-880.3 200.71,-1257.7 466.02,-1257.7 466.02,-880.3 200.71,-880.3"/>
</g>
<!-- ProductVariant -->
<g id="node2" class="node">
<title>ProductVariant</title>
<polygon fill="#efefef" stroke="none" points="43.2,-720.8 43.2,-756.4 295.53,-756.4 295.53,-720.8 43.2,-720.8"/>
<polygon fill="none" stroke="black" points="43.2,-720.8 43.2,-756.4 295.53,-756.4 295.53,-720.8 43.2,-720.8"/>
<text text-anchor="start" x="50.2" y="-734.2" font-family="Arial Bold" font-size="18.00">ProductVariant</text>
<text text-anchor="start" x="160.17" y="-734.2" font-family="Arial" font-size="14.00">    </text>
<text text-anchor="start" x="191.29" y="-734.2" font-family="Arial" font-size="14.00" fill="#666666">[TailorDB.Type]</text>
<polygon fill="none" stroke="black" points="43.2,-690 43.2,-720.8 295.53,-720.8 295.53,-690 43.2,-690"/>
<text text-anchor="start" x="50.2" y="-702.2" font-family="Arial" font-size="14.00">id </text>
<text text-anchor="start" x="64.99" y="-702.2" font-family="Arial" font-size="14.00" fill="#666666">[uuid]</text>
<polygon fill="none" stroke="black" points="43.2,-659.2 43.2,-690 295.53,-690 295.53,-659.2 43.2,-659.2"/>
<text text-anchor="start" x="50.2" y="-671.4" font-family="Arial" font-size="14.00">shopifyID </text>
<text text-anchor="start" x="112.45" y="-671.4" font-family="Arial" font-size="14.00" fill="#666666">[string]</text>
<polygon fill="none" stroke="black" points="43.2,-628.4 43.2,-659.2 295.53,-659.2 295.53,-628.4 43.2,-628.4"/>
<text text-anchor="start" x="50.2" y="-640.6" font-family="Arial" font-size="14.00">availableForSale </text>
<text text-anchor="start" x="158.37" y="-640.6" font-family="Arial" font-size="14.00" fill="#666666">[boolean]</text>
<polygon fill="none" stroke="black" points="43.2,-597.6 43.2,-628.4 295.53,-628.4 295.53,-597.6 43.2,-597.6"/>
<text text-anchor="start" x="50.2" y="-609.8" font-family="Arial" font-size="14.00">displayName </text>
<text text-anchor="start" x="135.01" y="-609.8" font-family="Arial" font-size="14.00" fill="#666666">[string]</text>
<polygon fill="none" stroke="black" points="43.2,-566.8 43.2,-597.6 295.53,-597.6 295.53,-566.8 43.2,-566.8"/>
<text text-anchor="start" x="50.2" y="-579" font-family="Arial" font-size="14.00">price </text>
<text text-anchor="start" x="84.43" y="-579" font-family="Arial" font-size="14.00" fill="#666666">[float]</text>
<polygon fill="none" stroke="black" points="43.2,-536 43.2,-566.8 295.53,-566.8 295.53,-536 43.2,-536"/>
<text text-anchor="start" x="50.2" y="-548.2" font-family="Arial" font-size="14.00">product </text>
<text text-anchor="start" x="100.79" y="-548.2" font-family="Arial" font-size="14.00" fill="#666666">[Product]</text>
<polygon fill="none" stroke="black" points="43.2,-505.2 43.2,-536 295.53,-536 295.53,-505.2 43.2,-505.2"/>
<text text-anchor="start" x="50.2" y="-517.4" font-family="Arial" font-size="14.00">updatedAt </text>
<text text-anchor="start" x="117.92" y="-517.4" font-family="Arial" font-size="14.00" fill="#666666">[datetime]</text>
<polygon fill="none" stroke="black" points="43.2,-474.4 43.2,-505.2 295.53,-505.2 295.53,-474.4 43.2,-474.4"/>
<text text-anchor="start" x="50.2" y="-486.6" font-family="Arial" font-size="14.00">sku </text>
<text text-anchor="start" x="75.88" y="-486.6" font-family="Arial" font-size="14.00" fill="#666666">[string]</text>
<polygon fill="none" stroke="black" points="43.2,-443.6 43.2,-474.4 295.53,-474.4 295.53,-443.6 43.2,-443.6"/>
<text text-anchor="start" x="50.2" y="-455.8" font-family="Arial" font-size="14.00">image </text>
<text text-anchor="start" x="92.22" y="-455.8" font-family="Arial" font-size="14.00" fill="#666666">[ProductImage]</text>
<polygon fill="none" stroke="black" points="43.2,-412.8 43.2,-443.6 295.53,-443.6 295.53,-412.8 43.2,-412.8"/>
<text text-anchor="start" x="50.2" y="-425" font-family="Arial" font-size="14.00">inventoryItem </text>
<text text-anchor="start" x="138.12" y="-425" font-family="Arial" font-size="14.00" fill="#666666">[InventoryItem]</text>
<polygon fill="none" stroke="black" points="43.2,-382 43.2,-412.8 295.53,-412.8 295.53,-382 43.2,-382"/>
<text text-anchor="start" x="50.2" y="-394.2" font-family="Arial" font-size="14.00">inventoryType </text>
<text text-anchor="start" x="142.02" y="-394.2" font-family="Arial" font-size="14.00" fill="#666666">[enum]</text>
<polygon fill="none" stroke="black" points="43.2,-351.2 43.2,-382 295.53,-382 295.53,-351.2 43.2,-351.2"/>
<text text-anchor="start" x="50.2" y="-363.4" font-family="Arial" font-size="14.00">quickbookSyncToken </text>
<text text-anchor="start" x="187.16" y="-363.4" font-family="Arial" font-size="14.00" fill="#666666">[string]</text>
<polygon fill="none" stroke="black" points="43.2,-320.4 43.2,-351.2 295.53,-351.2 295.53,-320.4 43.2,-320.4"/>
<text text-anchor="start" x="50.2" y="-332.6" font-family="Arial" font-size="14.00">taxable </text>
<text text-anchor="start" x="99.23" y="-332.6" font-family="Arial" font-size="14.00" fill="#666666">[boolean]</text>
<polygon fill="none" stroke="black" points="43.2,-289.6 43.2,-320.4 295.53,-320.4 295.53,-289.6 43.2,-289.6"/>
<text text-anchor="start" x="50.2" y="-301.8" font-family="Arial" font-size="14.00">quickbookItemId </text>
<text text-anchor="start" x="156.03" y="-301.8" font-family="Arial" font-size="14.00" fill="#666666">[string]</text>
<polygon fill="none" stroke="black" points="43.2,-258.8 43.2,-289.6 295.53,-289.6 295.53,-258.8 43.2,-258.8"/>
<text text-anchor="start" x="50.2" y="-271" font-family="Arial" font-size="14.00">createdAt </text>
<text text-anchor="start" x="114.01" y="-271" font-family="Arial" font-size="14.00" fill="#666666">[datetime]</text>
<polygon fill="none" stroke="black" points="43.2,-228 43.2,-258.8 295.53,-258.8 295.53,-228 43.2,-228"/>
<text text-anchor="start" x="50.2" y="-240.2" font-family="Arial" font-size="14.00">barcode </text>
<text text-anchor="start" x="104.68" y="-240.2" font-family="Arial" font-size="14.00" fill="#666666">[string]</text>
<polygon fill="none" stroke="black" points="43.2,-197.2 43.2,-228 295.53,-228 295.53,-197.2 43.2,-197.2"/>
<text text-anchor="start" x="50.2" y="-209.4" font-family="Arial" font-size="14.00">imageID </text>
<text text-anchor="start" x="106.22" y="-209.4" font-family="Arial" font-size="14.00" fill="#666666">[uuid]</text>
<polygon fill="none" stroke="black" points="43.2,-166.4 43.2,-197.2 295.53,-197.2 295.53,-166.4 43.2,-166.4"/>
<text text-anchor="start" x="50.2" y="-178.6" font-family="Arial" font-size="14.00">inventoryQuantity </text>
<text text-anchor="start" x="163.03" y="-178.6" font-family="Arial" font-size="14.00" fill="#666666">[integer]</text>
<polygon fill="none" stroke="black" points="43.2,-135.6 43.2,-166.4 295.53,-166.4 295.53,-135.6 43.2,-135.6"/>
<text text-anchor="start" x="50.2" y="-147.8" font-family="Arial" font-size="14.00">productID </text>
<text text-anchor="start" x="114.79" y="-147.8" font-family="Arial" font-size="14.00" fill="#666666">[uuid]</text>
<polygon fill="none" stroke="black" points="43.2,-104.8 43.2,-135.6 295.53,-135.6 295.53,-104.8 43.2,-104.8"/>
<text text-anchor="start" x="50.2" y="-117" font-family="Arial" font-size="14.00">active </text>
<text text-anchor="start" x="90.66" y="-117" font-family="Arial" font-size="14.00" fill="#666666">[boolean]</text>
<polygon fill="none" stroke="black" points="43.2,-74 43.2,-104.8 295.53,-104.8 295.53,-74 43.2,-74"/>
<text text-anchor="start" x="50.2" y="-86.2" font-family="Arial" font-size="14.00">inventoryItemID </text>
<text text-anchor="start" x="152.12" y="-86.2" font-family="Arial" font-size="14.00" fill="#666666">[uuid]</text>
<polygon fill="none" stroke="black" points="43.2,-43.2 43.2,-74 295.53,-74 295.53,-43.2 43.2,-43.2"/>
<text text-anchor="start" x="50.2" y="-55.4" font-family="Arial" font-size="14.00">quickbookItemName </text>
<text text-anchor="start" x="181.7" y="-55.4" font-family="Arial" font-size="14.00" fill="#666666">[string]</text>
</g>
<!-- InvoiceLineItem&#45;&gt;ProductVariant -->
<g id="edge1" class="edge">
<title>InvoiceLineItem:variantID&#45;&gt;ProductVariant:id</title>
<path fill="none" stroke="black" d="M190.79,-1143.2C67.51,-1133.36 126.63,-945.38 202.21,-835.6 227.42,-798.98 270.19,-836.12 295.53,-799.6 319.4,-765.2 338.4,-705.4 296.53,-705.4"/>
<polygon fill="black" stroke="black" points="190.89,-1143.2 200.7,-1148.08 196.22,-1143.41 200.54,-1143.57 200.54,-1143.57 200.54,-1143.57 196.22,-1143.41 201.05,-1139.09 190.89,-1143.2"/>
<text text-anchor="start" x="90.82" y="-1153.6" font-family="Arial" font-size="10.00">Source: ProductVariant</text>
</g>
<!-- Invoice -->
<g id="node3" class="node">
<title>Invoice</title>
<polygon fill="#efefef" stroke="none" points="400.2,-582.2 400.2,-617.8 596.54,-617.8 596.54,-582.2 400.2,-582.2"/>
<polygon fill="none" stroke="black" points="400.2,-582.2 400.2,-617.8 596.54,-617.8 596.54,-582.2 400.2,-582.2"/>
<text text-anchor="start" x="407.2" y="-595.6" font-family="Arial Bold" font-size="18.00">Invoice</text>
<text text-anchor="start" x="461.17" y="-595.6" font-family="Arial" font-size="14.00">    </text>
<text text-anchor="start" x="492.29" y="-595.6" font-family="Arial" font-size="14.00" fill="#666666">[TailorDB.Type]</text>
<polygon fill="none" stroke="black" points="400.2,-551.4 400.2,-582.2 596.54,-582.2 596.54,-551.4 400.2,-551.4"/>
<text text-anchor="start" x="407.2" y="-563.6" font-family="Arial" font-size="14.00">id </text>
<text text-anchor="start" x="421.98" y="-563.6" font-family="Arial" font-size="14.00" fill="#666666">[uuid]</text>
<polygon fill="none" stroke="black" points="400.2,-520.6 400.2,-551.4 596.54,-551.4 596.54,-520.6 400.2,-520.6"/>
<text text-anchor="start" x="407.2" y="-532.8" font-family="Arial" font-size="14.00">pushedToQBAt </text>
<text text-anchor="start" x="506.81" y="-532.8" font-family="Arial" font-size="14.00" fill="#666666">[datetime]</text>
<polygon fill="none" stroke="black" points="400.2,-489.8 400.2,-520.6 596.54,-520.6 596.54,-489.8 400.2,-489.8"/>
<text text-anchor="start" x="407.2" y="-502" font-family="Arial" font-size="14.00">createdAt </text>
<text text-anchor="start" x="471.01" y="-502" font-family="Arial" font-size="14.00" fill="#666666">[datetime]</text>
<polygon fill="none" stroke="black" points="400.2,-459 400.2,-489.8 596.54,-489.8 596.54,-459 400.2,-459"/>
<text text-anchor="start" x="407.2" y="-471.2" font-family="Arial" font-size="14.00">customer </text>
<text text-anchor="start" x="468.66" y="-471.2" font-family="Arial" font-size="14.00" fill="#666666">[Contact]</text>
<polygon fill="none" stroke="black" points="400.2,-428.2 400.2,-459 596.54,-459 596.54,-428.2 400.2,-428.2"/>
<text text-anchor="start" x="407.2" y="-440.4" font-family="Arial" font-size="14.00">shipmentID </text>
<text text-anchor="start" x="481.89" y="-440.4" font-family="Arial" font-size="14.00" fill="#666666">[uuid]</text>
<polygon fill="none" stroke="black" points="400.2,-397.4 400.2,-428.2 596.54,-428.2 596.54,-397.4 400.2,-397.4"/>
<text text-anchor="start" x="407.2" y="-409.6" font-family="Arial" font-size="14.00">shipment </text>
<text text-anchor="start" x="467.89" y="-409.6" font-family="Arial" font-size="14.00" fill="#666666">[Shipment]</text>
<polygon fill="none" stroke="black" points="400.2,-366.6 400.2,-397.4 596.54,-397.4 596.54,-366.6 400.2,-366.6"/>
<text text-anchor="start" x="407.2" y="-378.8" font-family="Arial" font-size="14.00">date </text>
<text text-anchor="start" x="438.34" y="-378.8" font-family="Arial" font-size="14.00" fill="#666666">[datetime]</text>
<polygon fill="none" stroke="black" points="400.2,-335.8 400.2,-366.6 596.54,-366.6 596.54,-335.8 400.2,-335.8"/>
<text text-anchor="start" x="407.2" y="-348" font-family="Arial" font-size="14.00">invoiceStatus </text>
<text text-anchor="start" x="494.36" y="-348" font-family="Arial" font-size="14.00" fill="#666666">[enum]</text>
<polygon fill="none" stroke="black" points="400.2,-305 400.2,-335.8 596.54,-335.8 596.54,-305 400.2,-305"/>
<text text-anchor="start" x="407.2" y="-317.2" font-family="Arial" font-size="14.00">active </text>
<text text-anchor="start" x="447.66" y="-317.2" font-family="Arial" font-size="14.00" fill="#666666">[boolean]</text>
<polygon fill="none" stroke="black" points="400.2,-274.2 400.2,-305 596.54,-305 596.54,-274.2 400.2,-274.2"/>
<text text-anchor="start" x="407.2" y="-286.4" font-family="Arial" font-size="14.00">invoiceNumber </text>
<text text-anchor="start" x="504.46" y="-286.4" font-family="Arial" font-size="14.00" fill="#666666">[string]</text>
<polygon fill="none" stroke="black" points="400.2,-243.4 400.2,-274.2 596.54,-274.2 596.54,-243.4 400.2,-243.4"/>
<text text-anchor="start" x="407.2" y="-255.6" font-family="Arial" font-size="14.00">customerID </text>
<text text-anchor="start" x="482.66" y="-255.6" font-family="Arial" font-size="14.00" fill="#666666">[uuid]</text>
<polygon fill="none" stroke="black" points="400.2,-212.6 400.2,-243.4 596.54,-243.4 596.54,-212.6 400.2,-212.6"/>
<text text-anchor="start" x="407.2" y="-224.8" font-family="Arial" font-size="14.00">quickbookInvoiceId </text>
<text text-anchor="start" x="530.16" y="-224.8" font-family="Arial" font-size="14.00" fill="#666666">[string]</text>
<polygon fill="none" stroke="black" points="400.2,-181.8 400.2,-212.6 596.54,-212.6 596.54,-181.8 400.2,-181.8"/>
<text text-anchor="start" x="407.2" y="-194" font-family="Arial" font-size="14.00">updatedAt </text>
<text text-anchor="start" x="474.92" y="-194" font-family="Arial" font-size="14.00" fill="#666666">[datetime]</text>
</g>
<!-- InvoiceLineItem&#45;&gt;Invoice -->
<g id="edge2" class="edge">
<title>InvoiceLineItem:invoiceID&#45;&gt;Invoice:id</title>
<path fill="none" stroke="black" d="M475.58,-896.62C597.74,-881.26 253.08,-566.8 399.2,-566.8"/>
<polygon fill="black" stroke="black" points="475.84,-896.6 465.6,-892.69 470.51,-896.91 466.19,-897.16 466.19,-897.16 466.19,-897.16 470.51,-896.91 466.12,-901.67 475.84,-896.6"/>
<text text-anchor="start" x="472.52" y="-907.2" font-family="Arial" font-size="10.00">Source: Invoice</text>
</g>
</g>
</svg>
