<?xml version="1.0" encoding="UTF-8" standalone="no"?>
<!DOCTYPE svg PUBLIC "-//W3C//DTD SVG 1.1//EN"
 "http://www.w3.org/Graphics/SVG/1.1/DTD/svg11.dtd">
<!-- Generated by graphviz version 12.1.2 (20240928.0832)
 -->
<!-- Title: Location Pages: 1 -->
<svg width="395pt" height="972pt"
 viewBox="0.00 0.00 394.57 971.60" xmlns="http://www.w3.org/2000/svg" xmlns:xlink="http://www.w3.org/1999/xlink">
<g id="graph0" class="graph" transform="scale(1 1) rotate(0) translate(4 967.6)">
<title>Location</title>
<polygon fill="white" stroke="none" points="-4,4 -4,-967.6 390.57,-967.6 390.57,4 -4,4"/>
<!-- Location -->
<g id="node1" class="node">
<title>Location</title>
<polygon fill="#efefef" stroke="none" points="66.69,-231 66.69,-266.6 273.03,-266.6 273.03,-231 66.69,-231"/>
<polygon fill="none" stroke="black" points="66.69,-231 66.69,-266.6 273.03,-266.6 273.03,-231 66.69,-231"/>
<text text-anchor="start" x="73.69" y="-244.4" font-family="Arial Bold" font-size="18.00">Location</text>
<text text-anchor="start" x="137.66" y="-244.4" font-family="Arial" font-size="14.00">    </text>
<text text-anchor="start" x="168.78" y="-244.4" font-family="Arial" font-size="14.00" fill="#666666">[TailorDB.Type]</text>
<polygon fill="none" stroke="black" points="66.69,-200.2 66.69,-231 273.03,-231 273.03,-200.2 66.69,-200.2"/>
<text text-anchor="start" x="73.69" y="-212.4" font-family="Arial" font-size="14.00">id </text>
<text text-anchor="start" x="88.47" y="-212.4" font-family="Arial" font-size="14.00" fill="#666666">[uuid]</text>
<polygon fill="none" stroke="black" points="66.69,-169.4 66.69,-200.2 273.03,-200.2 273.03,-169.4 66.69,-169.4"/>
<text text-anchor="start" x="73.69" y="-181.6" font-family="Arial" font-size="14.00">name </text>
<text text-anchor="start" x="112.6" y="-181.6" font-family="Arial" font-size="14.00" fill="#666666">[string]</text>
<polygon fill="none" stroke="black" points="66.69,-138.6 66.69,-169.4 273.03,-169.4 273.03,-138.6 66.69,-138.6"/>
<text text-anchor="start" x="73.69" y="-150.8" font-family="Arial" font-size="14.00">shopifyID </text>
<text text-anchor="start" x="135.94" y="-150.8" font-family="Arial" font-size="14.00" fill="#666666">[string]</text>
<polygon fill="none" stroke="black" points="66.69,-107.8 66.69,-138.6 273.03,-138.6 273.03,-107.8 66.69,-107.8"/>
<text text-anchor="start" x="73.69" y="-120" font-family="Arial" font-size="14.00">updatedAt </text>
<text text-anchor="start" x="141.41" y="-120" font-family="Arial" font-size="14.00" fill="#666666">[datetime]</text>
<polygon fill="none" stroke="black" points="66.69,-77 66.69,-107.8 273.03,-107.8 273.03,-77 66.69,-77"/>
<text text-anchor="start" x="73.69" y="-89.2" font-family="Arial" font-size="14.00">active </text>
<text text-anchor="start" x="114.15" y="-89.2" font-family="Arial" font-size="14.00" fill="#666666">[boolean]</text>
<polygon fill="none" stroke="black" points="66.69,-46.2 66.69,-77 273.03,-77 273.03,-46.2 66.69,-46.2"/>
<text text-anchor="start" x="73.69" y="-58.4" font-family="Arial" font-size="14.00">createdAt </text>
<text text-anchor="start" x="137.5" y="-58.4" font-family="Arial" font-size="14.00" fill="#666666">[datetime]</text>
<polygon fill="none" stroke="black" stroke-width="3" points="65.19,-44.7 65.19,-268.1 274.53,-268.1 274.53,-44.7 65.19,-44.7"/>
</g>
<!-- InventoryLevel -->
<g id="node2" class="node">
<title>InventoryLevel</title>
<polygon fill="#efefef" stroke="none" points="43.2,-884.8 43.2,-920.4 296.52,-920.4 296.52,-884.8 43.2,-884.8"/>
<polygon fill="none" stroke="black" points="43.2,-884.8 43.2,-920.4 296.52,-920.4 296.52,-884.8 43.2,-884.8"/>
<text text-anchor="start" x="50.2" y="-898.2" font-family="Arial Bold" font-size="18.00">InventoryLevel</text>
<text text-anchor="start" x="161.15" y="-898.2" font-family="Arial" font-size="14.00">    </text>
<text text-anchor="start" x="192.27" y="-898.2" font-family="Arial" font-size="14.00" fill="#666666">[TailorDB.Type]</text>
<polygon fill="none" stroke="black" points="43.2,-854 43.2,-884.8 296.52,-884.8 296.52,-854 43.2,-854"/>
<text text-anchor="start" x="50.2" y="-866.2" font-family="Arial" font-size="14.00">id </text>
<text text-anchor="start" x="64.99" y="-866.2" font-family="Arial" font-size="14.00" fill="#666666">[uuid]</text>
<polygon fill="none" stroke="black" points="43.2,-823.2 43.2,-854 296.52,-854 296.52,-823.2 43.2,-823.2"/>
<text text-anchor="start" x="50.2" y="-835.4" font-family="Arial" font-size="14.00">safetyStock </text>
<text text-anchor="start" x="126.45" y="-835.4" font-family="Arial" font-size="14.00" fill="#666666">[integer]</text>
<polygon fill="none" stroke="black" points="43.2,-792.4 43.2,-823.2 296.52,-823.2 296.52,-792.4 43.2,-792.4"/>
<text text-anchor="start" x="50.2" y="-804.6" font-family="Arial" font-size="14.00">incoming </text>
<text text-anchor="start" x="110.12" y="-804.6" font-family="Arial" font-size="14.00" fill="#666666">[integer]</text>
<polygon fill="none" stroke="black" points="43.2,-761.6 43.2,-792.4 296.52,-792.4 296.52,-761.6 43.2,-761.6"/>
<text text-anchor="start" x="50.2" y="-773.8" font-family="Arial" font-size="14.00">inventoryItemID </text>
<text text-anchor="start" x="152.12" y="-773.8" font-family="Arial" font-size="14.00" fill="#666666">[uuid]</text>
<polygon fill="none" stroke="black" points="43.2,-730.8 43.2,-761.6 296.52,-761.6 296.52,-730.8 43.2,-730.8"/>
<text text-anchor="start" x="50.2" y="-743" font-family="Arial" font-size="14.00">reserved </text>
<text text-anchor="start" x="108.56" y="-743" font-family="Arial" font-size="14.00" fill="#666666">[integer]</text>
<polygon fill="none" stroke="black" points="43.2,-700 43.2,-730.8 296.52,-730.8 296.52,-700 43.2,-700"/>
<text text-anchor="start" x="50.2" y="-712.2" font-family="Arial" font-size="14.00">damaged </text>
<text text-anchor="start" x="112.47" y="-712.2" font-family="Arial" font-size="14.00" fill="#666666">[integer]</text>
<polygon fill="none" stroke="black" points="43.2,-669.2 43.2,-700 296.52,-700 296.52,-669.2 43.2,-669.2"/>
<text text-anchor="start" x="50.2" y="-681.4" font-family="Arial" font-size="14.00">onHand </text>
<text text-anchor="start" x="103.13" y="-681.4" font-family="Arial" font-size="14.00" fill="#666666">[integer]</text>
<polygon fill="none" stroke="black" points="43.2,-638.4 43.2,-669.2 296.52,-669.2 296.52,-638.4 43.2,-638.4"/>
<text text-anchor="start" x="50.2" y="-650.6" font-family="Arial" font-size="14.00">createdAt </text>
<text text-anchor="start" x="114.01" y="-650.6" font-family="Arial" font-size="14.00" fill="#666666">[datetime]</text>
<polygon fill="none" stroke="black" points="43.2,-607.6 43.2,-638.4 296.52,-638.4 296.52,-607.6 43.2,-607.6"/>
<text text-anchor="start" x="50.2" y="-619.8" font-family="Arial" font-size="14.00">available </text>
<text text-anchor="start" x="109.35" y="-619.8" font-family="Arial" font-size="14.00" fill="#666666">[integer]</text>
<polygon fill="none" stroke="black" points="43.2,-576.8 43.2,-607.6 296.52,-607.6 296.52,-576.8 43.2,-576.8"/>
<text text-anchor="start" x="50.2" y="-589" font-family="Arial" font-size="14.00">location </text>
<text text-anchor="start" x="102.34" y="-589" font-family="Arial" font-size="14.00" fill="#666666">[Location]</text>
<polygon fill="none" stroke="black" points="43.2,-546 43.2,-576.8 296.52,-576.8 296.52,-546 43.2,-546"/>
<text text-anchor="start" x="50.2" y="-558.2" font-family="Arial" font-size="14.00">updatedAt </text>
<text text-anchor="start" x="117.92" y="-558.2" font-family="Arial" font-size="14.00" fill="#666666">[datetime]</text>
<polygon fill="none" stroke="black" points="43.2,-515.2 43.2,-546 296.52,-546 296.52,-515.2 43.2,-515.2"/>
<text text-anchor="start" x="50.2" y="-527.4" font-family="Arial" font-size="14.00">active </text>
<text text-anchor="start" x="90.66" y="-527.4" font-family="Arial" font-size="14.00" fill="#666666">[boolean]</text>
<polygon fill="none" stroke="black" points="43.2,-484.4 43.2,-515.2 296.52,-515.2 296.52,-484.4 43.2,-484.4"/>
<text text-anchor="start" x="50.2" y="-496.6" font-family="Arial" font-size="14.00">locationID </text>
<text text-anchor="start" x="116.34" y="-496.6" font-family="Arial" font-size="14.00" fill="#666666">[uuid]</text>
<polygon fill="none" stroke="black" points="43.2,-453.6 43.2,-484.4 296.52,-484.4 296.52,-453.6 43.2,-453.6"/>
<text text-anchor="start" x="50.2" y="-465.8" font-family="Arial" font-size="14.00">qualityControl </text>
<text text-anchor="start" x="139.69" y="-465.8" font-family="Arial" font-size="14.00" fill="#666666">[integer]</text>
<polygon fill="none" stroke="black" points="43.2,-422.8 43.2,-453.6 296.52,-453.6 296.52,-422.8 43.2,-422.8"/>
<text text-anchor="start" x="50.2" y="-435" font-family="Arial" font-size="14.00">inventoryItem </text>
<text text-anchor="start" x="138.12" y="-435" font-family="Arial" font-size="14.00" fill="#666666">[InventoryItem]</text>
<polygon fill="none" stroke="black" points="43.2,-392 43.2,-422.8 296.52,-422.8 296.52,-392 43.2,-392"/>
<text text-anchor="start" x="50.2" y="-404.2" font-family="Arial" font-size="14.00">committed </text>
<text text-anchor="start" x="118.66" y="-404.2" font-family="Arial" font-size="14.00" fill="#666666">[integer]</text>
</g>
<!-- InventoryLevel&#45;&gt;Location -->
<g id="edge1" class="edge">
<title>InventoryLevel:locationID&#45;&gt;Location:id</title>
<path fill="none" stroke="black" d="M307.46,-497.17C358.1,-468.52 333.81,-215.6 274.03,-215.6"/>
<polygon fill="black" stroke="black" points="307.51,-497.15 296.69,-495.36 302.35,-498.52 298.17,-499.63 298.17,-499.63 298.17,-499.63 302.35,-498.52 298.99,-504.06 307.51,-497.15"/>
<text text-anchor="start" x="304.52" y="-509.8" font-family="Arial" font-size="10.00">Source: Location</text>
</g>
</g>
</svg>
