<?xml version="1.0" encoding="UTF-8" standalone="no"?>
<!DOCTYPE svg PUBLIC "-//W3C//DTD SVG 1.1//EN"
 "http://www.w3.org/Graphics/SVG/1.1/DTD/svg11.dtd">
<!-- Generated by graphviz version 12.1.2 (20240928.0832)
 -->
<!-- Title: Product Pages: 1 -->
<svg width="393pt" height="1684pt"
 viewBox="0.00 0.00 393.42 1684.00" xmlns="http://www.w3.org/2000/svg" xmlns:xlink="http://www.w3.org/1999/xlink">
<g id="graph0" class="graph" transform="scale(1 1) rotate(0) translate(4 1680)">
<title>Product</title>
<polygon fill="white" stroke="none" points="-4,4 -4,-1680 389.42,-1680 389.42,4 -4,4"/>
<!-- Product -->
<g id="node1" class="node">
<title>Product</title>
<polygon fill="#efefef" stroke="none" points="67.81,-758.6 67.81,-794.2 270.92,-794.2 270.92,-758.6 67.81,-758.6"/>
<polygon fill="none" stroke="black" points="67.81,-758.6 67.81,-794.2 270.92,-794.2 270.92,-758.6 67.81,-758.6"/>
<text text-anchor="start" x="77.19" y="-772" font-family="Arial Bold" font-size="18.00">Product</text>
<text text-anchor="start" x="133.18" y="-772" font-family="Arial" font-size="14.00">    </text>
<text text-anchor="start" x="164.3" y="-772" font-family="Arial" font-size="14.00" fill="#666666">[TailorDB.Type]</text>
<polygon fill="none" stroke="black" points="67.81,-727.8 67.81,-758.6 270.92,-758.6 270.92,-727.8 67.81,-727.8"/>
<text text-anchor="start" x="74.81" y="-740" font-family="Arial" font-size="14.00">id </text>
<text text-anchor="start" x="89.6" y="-740" font-family="Arial" font-size="14.00" fill="#666666">[uuid]</text>
<polygon fill="none" stroke="black" points="67.81,-697 67.81,-727.8 270.92,-727.8 270.92,-697 67.81,-697"/>
<text text-anchor="start" x="74.81" y="-709.2" font-family="Arial" font-size="14.00">handle </text>
<text text-anchor="start" x="120.74" y="-709.2" font-family="Arial" font-size="14.00" fill="#666666">[string]</text>
<polygon fill="none" stroke="black" points="67.81,-666.2 67.81,-697 270.92,-697 270.92,-666.2 67.81,-666.2"/>
<text text-anchor="start" x="74.81" y="-678.4" font-family="Arial" font-size="14.00">description </text>
<text text-anchor="start" x="146.41" y="-678.4" font-family="Arial" font-size="14.00" fill="#666666">[string]</text>
<polygon fill="none" stroke="black" points="67.81,-635.4 67.81,-666.2 270.92,-666.2 270.92,-635.4 67.81,-635.4"/>
<text text-anchor="start" x="74.81" y="-647.6" font-family="Arial" font-size="14.00">inStock </text>
<text text-anchor="start" x="124.61" y="-647.6" font-family="Arial" font-size="14.00" fill="#666666">[integer]</text>
<polygon fill="none" stroke="black" points="67.81,-604.6 67.81,-635.4 270.92,-635.4 270.92,-604.6 67.81,-604.6"/>
<text text-anchor="start" x="74.81" y="-616.8" font-family="Arial" font-size="14.00">updatedAt </text>
<text text-anchor="start" x="142.54" y="-616.8" font-family="Arial" font-size="14.00" fill="#666666">[datetime]</text>
<polygon fill="none" stroke="black" points="67.81,-573.8 67.81,-604.6 270.92,-604.6 270.92,-573.8 67.81,-573.8"/>
<text text-anchor="start" x="74.81" y="-586" font-family="Arial" font-size="14.00">active </text>
<text text-anchor="start" x="115.27" y="-586" font-family="Arial" font-size="14.00" fill="#666666">[boolean]</text>
<polygon fill="none" stroke="black" points="67.81,-543 67.81,-573.8 270.92,-573.8 270.92,-543 67.81,-543"/>
<text text-anchor="start" x="74.81" y="-555.2" font-family="Arial" font-size="14.00">createdAt </text>
<text text-anchor="start" x="138.63" y="-555.2" font-family="Arial" font-size="14.00" fill="#666666">[datetime]</text>
<polygon fill="none" stroke="black" points="67.81,-512.2 67.81,-543 270.92,-543 270.92,-512.2 67.81,-512.2"/>
<text text-anchor="start" x="74.81" y="-524.4" font-family="Arial" font-size="14.00">shopifyID </text>
<text text-anchor="start" x="137.06" y="-524.4" font-family="Arial" font-size="14.00" fill="#666666">[string]</text>
<polygon fill="none" stroke="black" points="67.81,-481.4 67.81,-512.2 270.92,-512.2 270.92,-481.4 67.81,-481.4"/>
<text text-anchor="start" x="74.81" y="-493.6" font-family="Arial" font-size="14.00">title </text>
<text text-anchor="start" x="100.49" y="-493.6" font-family="Arial" font-size="14.00" fill="#666666">[string]</text>
<polygon fill="none" stroke="black" points="67.81,-450.6 67.81,-481.4 270.92,-481.4 270.92,-450.6 67.81,-450.6"/>
<text text-anchor="start" x="74.81" y="-462.8" font-family="Arial" font-size="14.00">featuredImageID </text>
<text text-anchor="start" x="182.98" y="-462.8" font-family="Arial" font-size="14.00" fill="#666666">[uuid]</text>
<polygon fill="none" stroke="black" points="67.81,-419.8 67.81,-450.6 270.92,-450.6 270.92,-419.8 67.81,-419.8"/>
<text text-anchor="start" x="74.81" y="-432" font-family="Arial" font-size="14.00">featuredImage </text>
<text text-anchor="start" x="168.98" y="-432" font-family="Arial" font-size="14.00" fill="#666666">[ProductImage]</text>
<polygon fill="none" stroke="black" stroke-width="3" points="66.31,-418.3 66.31,-795.7 272.42,-795.7 272.42,-418.3 66.31,-418.3"/>
</g>
<!-- ProductImage -->
<g id="node3" class="node">
<title>ProductImage</title>
<polygon fill="#efefef" stroke="none" points="47.7,-258.8 47.7,-294.4 291.03,-294.4 291.03,-258.8 47.7,-258.8"/>
<polygon fill="none" stroke="black" points="47.7,-258.8 47.7,-294.4 291.03,-294.4 291.03,-258.8 47.7,-258.8"/>
<text text-anchor="start" x="54.7" y="-272.2" font-family="Arial Bold" font-size="18.00">ProductImage</text>
<text text-anchor="start" x="155.67" y="-272.2" font-family="Arial" font-size="14.00">    </text>
<text text-anchor="start" x="186.79" y="-272.2" font-family="Arial" font-size="14.00" fill="#666666">[TailorDB.Type]</text>
<polygon fill="none" stroke="black" points="47.7,-228 47.7,-258.8 291.03,-258.8 291.03,-228 47.7,-228"/>
<text text-anchor="start" x="54.7" y="-240.2" font-family="Arial" font-size="14.00">id </text>
<text text-anchor="start" x="69.49" y="-240.2" font-family="Arial" font-size="14.00" fill="#666666">[uuid]</text>
<polygon fill="none" stroke="black" points="47.7,-197.2 47.7,-228 291.03,-228 291.03,-197.2 47.7,-197.2"/>
<text text-anchor="start" x="54.7" y="-209.4" font-family="Arial" font-size="14.00">shopifyID </text>
<text text-anchor="start" x="116.95" y="-209.4" font-family="Arial" font-size="14.00" fill="#666666">[string]</text>
<polygon fill="none" stroke="black" points="47.7,-166.4 47.7,-197.2 291.03,-197.2 291.03,-166.4 47.7,-166.4"/>
<text text-anchor="start" x="54.7" y="-178.6" font-family="Arial" font-size="14.00">updatedAt </text>
<text text-anchor="start" x="122.42" y="-178.6" font-family="Arial" font-size="14.00" fill="#666666">[datetime]</text>
<polygon fill="none" stroke="black" points="47.7,-135.6 47.7,-166.4 291.03,-166.4 291.03,-135.6 47.7,-135.6"/>
<text text-anchor="start" x="54.7" y="-147.8" font-family="Arial" font-size="14.00">url </text>
<text text-anchor="start" x="74.15" y="-147.8" font-family="Arial" font-size="14.00" fill="#666666">[string]</text>
<polygon fill="none" stroke="black" points="47.7,-104.8 47.7,-135.6 291.03,-135.6 291.03,-104.8 47.7,-104.8"/>
<text text-anchor="start" x="54.7" y="-117" font-family="Arial" font-size="14.00">altText </text>
<text text-anchor="start" x="100.6" y="-117" font-family="Arial" font-size="14.00" fill="#666666">[string]</text>
<polygon fill="none" stroke="black" points="47.7,-74 47.7,-104.8 291.03,-104.8 291.03,-74 47.7,-74"/>
<text text-anchor="start" x="54.7" y="-86.2" font-family="Arial" font-size="14.00">active </text>
<text text-anchor="start" x="95.16" y="-86.2" font-family="Arial" font-size="14.00" fill="#666666">[boolean]</text>
<polygon fill="none" stroke="black" points="47.7,-43.2 47.7,-74 291.03,-74 291.03,-43.2 47.7,-43.2"/>
<text text-anchor="start" x="54.7" y="-55.4" font-family="Arial" font-size="14.00">createdAt </text>
<text text-anchor="start" x="118.51" y="-55.4" font-family="Arial" font-size="14.00" fill="#666666">[datetime]</text>
</g>
<!-- Product&#45;&gt;ProductImage -->
<g id="edge2" class="edge">
<title>Product:featuredImageID&#45;&gt;ProductImage:id</title>
<path fill="none" stroke="black" d="M282.1,-465.19C372.52,-450.62 387.88,-243.4 292.03,-243.4"/>
<polygon fill="black" stroke="black" points="282.22,-465.18 271.9,-461.49 276.91,-465.61 272.59,-465.95 272.59,-465.95 272.59,-465.95 276.91,-465.61 272.61,-470.46 282.22,-465.18"/>
<text text-anchor="start" x="278.92" y="-476" font-family="Arial" font-size="10.00">Source: ProductImage</text>
</g>
<!-- ProductVariant -->
<g id="node2" class="node">
<title>ProductVariant</title>
<polygon fill="#efefef" stroke="none" points="43.2,-1597.2 43.2,-1632.8 295.53,-1632.8 295.53,-1597.2 43.2,-1597.2"/>
<polygon fill="none" stroke="black" points="43.2,-1597.2 43.2,-1632.8 295.53,-1632.8 295.53,-1597.2 43.2,-1597.2"/>
<text text-anchor="start" x="50.2" y="-1610.6" font-family="Arial Bold" font-size="18.00">ProductVariant</text>
<text text-anchor="start" x="160.17" y="-1610.6" font-family="Arial" font-size="14.00">    </text>
<text text-anchor="start" x="191.29" y="-1610.6" font-family="Arial" font-size="14.00" fill="#666666">[TailorDB.Type]</text>
<polygon fill="none" stroke="black" points="43.2,-1566.4 43.2,-1597.2 295.53,-1597.2 295.53,-1566.4 43.2,-1566.4"/>
<text text-anchor="start" x="50.2" y="-1578.6" font-family="Arial" font-size="14.00">id </text>
<text text-anchor="start" x="64.99" y="-1578.6" font-family="Arial" font-size="14.00" fill="#666666">[uuid]</text>
<polygon fill="none" stroke="black" points="43.2,-1535.6 43.2,-1566.4 295.53,-1566.4 295.53,-1535.6 43.2,-1535.6"/>
<text text-anchor="start" x="50.2" y="-1547.8" font-family="Arial" font-size="14.00">taxable </text>
<text text-anchor="start" x="99.23" y="-1547.8" font-family="Arial" font-size="14.00" fill="#666666">[boolean]</text>
<polygon fill="none" stroke="black" points="43.2,-1504.8 43.2,-1535.6 295.53,-1535.6 295.53,-1504.8 43.2,-1504.8"/>
<text text-anchor="start" x="50.2" y="-1517" font-family="Arial" font-size="14.00">quickbookItemId </text>
<text text-anchor="start" x="156.03" y="-1517" font-family="Arial" font-size="14.00" fill="#666666">[string]</text>
<polygon fill="none" stroke="black" points="43.2,-1474 43.2,-1504.8 295.53,-1504.8 295.53,-1474 43.2,-1474"/>
<text text-anchor="start" x="50.2" y="-1486.2" font-family="Arial" font-size="14.00">barcode </text>
<text text-anchor="start" x="104.68" y="-1486.2" font-family="Arial" font-size="14.00" fill="#666666">[string]</text>
<polygon fill="none" stroke="black" points="43.2,-1443.2 43.2,-1474 295.53,-1474 295.53,-1443.2 43.2,-1443.2"/>
<text text-anchor="start" x="50.2" y="-1455.4" font-family="Arial" font-size="14.00">displayName </text>
<text text-anchor="start" x="135.01" y="-1455.4" font-family="Arial" font-size="14.00" fill="#666666">[string]</text>
<polygon fill="none" stroke="black" points="43.2,-1412.4 43.2,-1443.2 295.53,-1443.2 295.53,-1412.4 43.2,-1412.4"/>
<text text-anchor="start" x="50.2" y="-1424.6" font-family="Arial" font-size="14.00">inventoryItemID </text>
<text text-anchor="start" x="152.12" y="-1424.6" font-family="Arial" font-size="14.00" fill="#666666">[uuid]</text>
<polygon fill="none" stroke="black" points="43.2,-1381.6 43.2,-1412.4 295.53,-1412.4 295.53,-1381.6 43.2,-1381.6"/>
<text text-anchor="start" x="50.2" y="-1393.8" font-family="Arial" font-size="14.00">sku </text>
<text text-anchor="start" x="75.88" y="-1393.8" font-family="Arial" font-size="14.00" fill="#666666">[string]</text>
<polygon fill="none" stroke="black" points="43.2,-1350.8 43.2,-1381.6 295.53,-1381.6 295.53,-1350.8 43.2,-1350.8"/>
<text text-anchor="start" x="50.2" y="-1363" font-family="Arial" font-size="14.00">image </text>
<text text-anchor="start" x="92.22" y="-1363" font-family="Arial" font-size="14.00" fill="#666666">[ProductImage]</text>
<polygon fill="none" stroke="black" points="43.2,-1320 43.2,-1350.8 295.53,-1350.8 295.53,-1320 43.2,-1320"/>
<text text-anchor="start" x="50.2" y="-1332.2" font-family="Arial" font-size="14.00">createdAt </text>
<text text-anchor="start" x="114.01" y="-1332.2" font-family="Arial" font-size="14.00" fill="#666666">[datetime]</text>
<polygon fill="none" stroke="black" points="43.2,-1289.2 43.2,-1320 295.53,-1320 295.53,-1289.2 43.2,-1289.2"/>
<text text-anchor="start" x="50.2" y="-1301.4" font-family="Arial" font-size="14.00">shopifyID </text>
<text text-anchor="start" x="112.45" y="-1301.4" font-family="Arial" font-size="14.00" fill="#666666">[string]</text>
<polygon fill="none" stroke="black" points="43.2,-1258.4 43.2,-1289.2 295.53,-1289.2 295.53,-1258.4 43.2,-1258.4"/>
<text text-anchor="start" x="50.2" y="-1270.6" font-family="Arial" font-size="14.00">availableForSale </text>
<text text-anchor="start" x="158.37" y="-1270.6" font-family="Arial" font-size="14.00" fill="#666666">[boolean]</text>
<polygon fill="none" stroke="black" points="43.2,-1227.6 43.2,-1258.4 295.53,-1258.4 295.53,-1227.6 43.2,-1227.6"/>
<text text-anchor="start" x="50.2" y="-1239.8" font-family="Arial" font-size="14.00">productID </text>
<text text-anchor="start" x="114.79" y="-1239.8" font-family="Arial" font-size="14.00" fill="#666666">[uuid]</text>
<polygon fill="none" stroke="black" points="43.2,-1196.8 43.2,-1227.6 295.53,-1227.6 295.53,-1196.8 43.2,-1196.8"/>
<text text-anchor="start" x="50.2" y="-1209" font-family="Arial" font-size="14.00">inventoryType </text>
<text text-anchor="start" x="142.02" y="-1209" font-family="Arial" font-size="14.00" fill="#666666">[enum]</text>
<polygon fill="none" stroke="black" points="43.2,-1166 43.2,-1196.8 295.53,-1196.8 295.53,-1166 43.2,-1166"/>
<text text-anchor="start" x="50.2" y="-1178.2" font-family="Arial" font-size="14.00">quickbookSyncToken </text>
<text text-anchor="start" x="187.16" y="-1178.2" font-family="Arial" font-size="14.00" fill="#666666">[string]</text>
<polygon fill="none" stroke="black" points="43.2,-1135.2 43.2,-1166 295.53,-1166 295.53,-1135.2 43.2,-1135.2"/>
<text text-anchor="start" x="50.2" y="-1147.4" font-family="Arial" font-size="14.00">updatedAt </text>
<text text-anchor="start" x="117.92" y="-1147.4" font-family="Arial" font-size="14.00" fill="#666666">[datetime]</text>
<polygon fill="none" stroke="black" points="43.2,-1104.4 43.2,-1135.2 295.53,-1135.2 295.53,-1104.4 43.2,-1104.4"/>
<text text-anchor="start" x="50.2" y="-1116.6" font-family="Arial" font-size="14.00">active </text>
<text text-anchor="start" x="90.66" y="-1116.6" font-family="Arial" font-size="14.00" fill="#666666">[boolean]</text>
<polygon fill="none" stroke="black" points="43.2,-1073.6 43.2,-1104.4 295.53,-1104.4 295.53,-1073.6 43.2,-1073.6"/>
<text text-anchor="start" x="50.2" y="-1085.8" font-family="Arial" font-size="14.00">imageID </text>
<text text-anchor="start" x="106.22" y="-1085.8" font-family="Arial" font-size="14.00" fill="#666666">[uuid]</text>
<polygon fill="none" stroke="black" points="43.2,-1042.8 43.2,-1073.6 295.53,-1073.6 295.53,-1042.8 43.2,-1042.8"/>
<text text-anchor="start" x="50.2" y="-1055" font-family="Arial" font-size="14.00">price </text>
<text text-anchor="start" x="84.43" y="-1055" font-family="Arial" font-size="14.00" fill="#666666">[float]</text>
<polygon fill="none" stroke="black" points="43.2,-1012 43.2,-1042.8 295.53,-1042.8 295.53,-1012 43.2,-1012"/>
<text text-anchor="start" x="50.2" y="-1024.2" font-family="Arial" font-size="14.00">quickbookItemName </text>
<text text-anchor="start" x="181.7" y="-1024.2" font-family="Arial" font-size="14.00" fill="#666666">[string]</text>
<polygon fill="none" stroke="black" points="43.2,-981.2 43.2,-1012 295.53,-1012 295.53,-981.2 43.2,-981.2"/>
<text text-anchor="start" x="50.2" y="-993.4" font-family="Arial" font-size="14.00">inventoryQuantity </text>
<text text-anchor="start" x="163.03" y="-993.4" font-family="Arial" font-size="14.00" fill="#666666">[integer]</text>
<polygon fill="none" stroke="black" points="43.2,-950.4 43.2,-981.2 295.53,-981.2 295.53,-950.4 43.2,-950.4"/>
<text text-anchor="start" x="50.2" y="-962.6" font-family="Arial" font-size="14.00">inventoryItem </text>
<text text-anchor="start" x="138.12" y="-962.6" font-family="Arial" font-size="14.00" fill="#666666">[InventoryItem]</text>
<polygon fill="none" stroke="black" points="43.2,-919.6 43.2,-950.4 295.53,-950.4 295.53,-919.6 43.2,-919.6"/>
<text text-anchor="start" x="50.2" y="-931.8" font-family="Arial" font-size="14.00">product </text>
<text text-anchor="start" x="100.79" y="-931.8" font-family="Arial" font-size="14.00" fill="#666666">[Product]</text>
</g>
<!-- ProductVariant&#45;&gt;Product -->
<g id="edge1" class="edge">
<title>ProductVariant:productID&#45;&gt;Product:id</title>
<path fill="none" stroke="black" d="M306.86,-1241.48C406.06,-1211.31 379.54,-743.2 271.92,-743.2"/>
<polygon fill="black" stroke="black" points="306.76,-1241.49 296.21,-1238.5 301.48,-1242.27 297.2,-1242.9 297.2,-1242.9 297.2,-1242.9 301.48,-1242.27 297.52,-1247.4 306.76,-1241.49"/>
<text text-anchor="start" x="303.53" y="-1253" font-family="Arial" font-size="10.00">Source: Product</text>
</g>
</g>
</svg>
