<?xml version="1.0" encoding="UTF-8" standalone="no"?>
<!DOCTYPE svg PUBLIC "-//W3C//DTD SVG 1.1//EN"
 "http://www.w3.org/Graphics/SVG/1.1/DTD/svg11.dtd">
<!-- Generated by graphviz version 12.1.2 (20240928.0832)
 -->
<!-- Title: PurchaseOrderLineItem Pages: 1 -->
<svg width="700pt" height="1372pt"
 viewBox="0.00 0.00 700.23 1372.00" xmlns="http://www.w3.org/2000/svg" xmlns:xlink="http://www.w3.org/1999/xlink">
<g id="graph0" class="graph" transform="scale(1 1) rotate(0) translate(4 1368)">
<title>PurchaseOrderLineItem</title>
<polygon fill="white" stroke="none" points="-4,4 -4,-1368 696.23,-1368 696.23,4 -4,4"/>
<!-- PurchaseOrderLineItem -->
<g id="node1" class="node">
<title>PurchaseOrderLineItem</title>
<polygon fill="#efefef" stroke="none" points="187.21,-1282.2 187.21,-1317.8 502.5,-1317.8 502.5,-1282.2 187.21,-1282.2"/>
<polygon fill="none" stroke="black" points="187.21,-1282.2 187.21,-1317.8 502.5,-1317.8 502.5,-1282.2 187.21,-1282.2"/>
<text text-anchor="start" x="194.21" y="-1295.6" font-family="Arial Bold" font-size="18.00">PurchaseOrderLineItem</text>
<text text-anchor="start" x="367.14" y="-1295.6" font-family="Arial" font-size="14.00">    </text>
<text text-anchor="start" x="398.26" y="-1295.6" font-family="Arial" font-size="14.00" fill="#666666">[TailorDB.Type]</text>
<polygon fill="none" stroke="black" points="187.21,-1251.4 187.21,-1282.2 502.5,-1282.2 502.5,-1251.4 187.21,-1251.4"/>
<text text-anchor="start" x="194.21" y="-1263.6" font-family="Arial" font-size="14.00">id </text>
<text text-anchor="start" x="209" y="-1263.6" font-family="Arial" font-size="14.00" fill="#666666">[uuid]</text>
<polygon fill="none" stroke="black" points="187.21,-1220.6 187.21,-1251.4 502.5,-1251.4 502.5,-1220.6 187.21,-1220.6"/>
<text text-anchor="start" x="194.21" y="-1232.8" font-family="Arial" font-size="14.00">purchaseOrder </text>
<text text-anchor="start" x="291.48" y="-1232.8" font-family="Arial" font-size="14.00" fill="#666666">[PurchaseOrder]</text>
<polygon fill="none" stroke="black" points="187.21,-1189.8 187.21,-1220.6 502.5,-1220.6 502.5,-1189.8 187.21,-1189.8"/>
<text text-anchor="start" x="194.21" y="-1202" font-family="Arial" font-size="14.00">variantID </text>
<text text-anchor="start" x="254.12" y="-1202" font-family="Arial" font-size="14.00" fill="#666666">[uuid]</text>
<polygon fill="none" stroke="black" points="187.21,-1159 187.21,-1189.8 502.5,-1189.8 502.5,-1159 187.21,-1159"/>
<text text-anchor="start" x="194.21" y="-1171.2" font-family="Arial" font-size="14.00">variant </text>
<text text-anchor="start" x="240.12" y="-1171.2" font-family="Arial" font-size="14.00" fill="#666666">[ProductVariant]</text>
<polygon fill="none" stroke="black" points="187.21,-1128.2 187.21,-1159 502.5,-1159 502.5,-1128.2 187.21,-1128.2"/>
<text text-anchor="start" x="194.21" y="-1140.4" font-family="Arial" font-size="14.00">quantity </text>
<text text-anchor="start" x="247.14" y="-1140.4" font-family="Arial" font-size="14.00" fill="#666666">[float]</text>
<polygon fill="none" stroke="black" points="187.21,-1097.4 187.21,-1128.2 502.5,-1128.2 502.5,-1097.4 187.21,-1097.4"/>
<text text-anchor="start" x="194.21" y="-1109.6" font-family="Arial" font-size="14.00">unitCost </text>
<text text-anchor="start" x="249.46" y="-1109.6" font-family="Arial" font-size="14.00" fill="#666666">[float]</text>
<polygon fill="none" stroke="black" points="187.21,-1066.6 187.21,-1097.4 502.5,-1097.4 502.5,-1066.6 187.21,-1066.6"/>
<text text-anchor="start" x="194.21" y="-1078.8" font-family="Arial" font-size="14.00">subtotalCost </text>
<text text-anchor="start" x="275.92" y="-1078.8" font-family="Arial" font-size="14.00" fill="#666666">[float]</text>
<polygon fill="none" stroke="black" points="187.21,-1035.8 187.21,-1066.6 502.5,-1066.6 502.5,-1035.8 187.21,-1035.8"/>
<text text-anchor="start" x="194.21" y="-1048" font-family="Arial" font-size="14.00">createdAt </text>
<text text-anchor="start" x="258.03" y="-1048" font-family="Arial" font-size="14.00" fill="#666666">[datetime]</text>
<polygon fill="none" stroke="black" points="187.21,-1005 187.21,-1035.8 502.5,-1035.8 502.5,-1005 187.21,-1005"/>
<text text-anchor="start" x="194.21" y="-1017.2" font-family="Arial" font-size="14.00">purchaseOrderID </text>
<text text-anchor="start" x="305.48" y="-1017.2" font-family="Arial" font-size="14.00" fill="#666666">[uuid]</text>
<polygon fill="none" stroke="black" points="187.21,-974.2 187.21,-1005 502.5,-1005 502.5,-974.2 187.21,-974.2"/>
<text text-anchor="start" x="194.21" y="-986.4" font-family="Arial" font-size="14.00">updatedAt </text>
<text text-anchor="start" x="261.94" y="-986.4" font-family="Arial" font-size="14.00" fill="#666666">[datetime]</text>
<polygon fill="none" stroke="black" points="187.21,-943.4 187.21,-974.2 502.5,-974.2 502.5,-943.4 187.21,-943.4"/>
<text text-anchor="start" x="194.21" y="-955.6" font-family="Arial" font-size="14.00">active </text>
<text text-anchor="start" x="234.68" y="-955.6" font-family="Arial" font-size="14.00" fill="#666666">[boolean]</text>
<polygon fill="none" stroke="black" stroke-width="3" points="185.71,-941.9 185.71,-1319.3 504,-1319.3 504,-941.9 185.71,-941.9"/>
</g>
<!-- PurchaseOrder -->
<g id="node2" class="node">
<title>PurchaseOrder</title>
<polygon fill="#efefef" stroke="none" points="43.2,-782.4 43.2,-818 292.52,-818 292.52,-782.4 43.2,-782.4"/>
<polygon fill="none" stroke="black" points="43.2,-782.4 43.2,-818 292.52,-818 292.52,-782.4 43.2,-782.4"/>
<text text-anchor="start" x="50.2" y="-795.8" font-family="Arial Bold" font-size="18.00">PurchaseOrder</text>
<text text-anchor="start" x="157.15" y="-795.8" font-family="Arial" font-size="14.00">    </text>
<text text-anchor="start" x="188.27" y="-795.8" font-family="Arial" font-size="14.00" fill="#666666">[TailorDB.Type]</text>
<polygon fill="none" stroke="black" points="43.2,-751.6 43.2,-782.4 292.52,-782.4 292.52,-751.6 43.2,-751.6"/>
<text text-anchor="start" x="50.2" y="-763.8" font-family="Arial" font-size="14.00">id </text>
<text text-anchor="start" x="64.99" y="-763.8" font-family="Arial" font-size="14.00" fill="#666666">[uuid]</text>
<polygon fill="none" stroke="black" points="43.2,-720.8 43.2,-751.6 292.52,-751.6 292.52,-720.8 43.2,-720.8"/>
<text text-anchor="start" x="50.2" y="-733" font-family="Arial" font-size="14.00">dueDate </text>
<text text-anchor="start" x="107.02" y="-733" font-family="Arial" font-size="14.00" fill="#666666">[datetime]</text>
<polygon fill="none" stroke="black" points="43.2,-690 43.2,-720.8 292.52,-720.8 292.52,-690 43.2,-690"/>
<text text-anchor="start" x="50.2" y="-702.2" font-family="Arial" font-size="14.00">active </text>
<text text-anchor="start" x="90.66" y="-702.2" font-family="Arial" font-size="14.00" fill="#666666">[boolean]</text>
<polygon fill="none" stroke="black" points="43.2,-659.2 43.2,-690 292.52,-690 292.52,-659.2 43.2,-659.2"/>
<text text-anchor="start" x="50.2" y="-671.4" font-family="Arial" font-size="14.00">documentNumber </text>
<text text-anchor="start" x="165.37" y="-671.4" font-family="Arial" font-size="14.00" fill="#666666">[string]</text>
<polygon fill="none" stroke="black" points="43.2,-628.4 43.2,-659.2 292.52,-659.2 292.52,-628.4 43.2,-628.4"/>
<text text-anchor="start" x="50.2" y="-640.6" font-family="Arial" font-size="14.00">supplierID </text>
<text text-anchor="start" x="117.12" y="-640.6" font-family="Arial" font-size="14.00" fill="#666666">[uuid]</text>
<polygon fill="none" stroke="black" points="43.2,-597.6 43.2,-628.4 292.52,-628.4 292.52,-597.6 43.2,-597.6"/>
<text text-anchor="start" x="50.2" y="-609.8" font-family="Arial" font-size="14.00">date </text>
<text text-anchor="start" x="81.34" y="-609.8" font-family="Arial" font-size="14.00" fill="#666666">[datetime]</text>
<polygon fill="none" stroke="black" points="43.2,-566.8 43.2,-597.6 292.52,-597.6 292.52,-566.8 43.2,-566.8"/>
<text text-anchor="start" x="50.2" y="-579" font-family="Arial" font-size="14.00">billToID </text>
<text text-anchor="start" x="101.54" y="-579" font-family="Arial" font-size="14.00" fill="#666666">[uuid]</text>
<polygon fill="none" stroke="black" points="43.2,-536 43.2,-566.8 292.52,-566.8 292.52,-536 43.2,-536"/>
<text text-anchor="start" x="50.2" y="-548.2" font-family="Arial" font-size="14.00">shipTo </text>
<text text-anchor="start" x="96.11" y="-548.2" font-family="Arial" font-size="14.00" fill="#666666">[Contact]</text>
<polygon fill="none" stroke="black" points="43.2,-505.2 43.2,-536 292.52,-536 292.52,-505.2 43.2,-505.2"/>
<text text-anchor="start" x="50.2" y="-517.4" font-family="Arial" font-size="14.00">shipVia </text>
<text text-anchor="start" x="100.01" y="-517.4" font-family="Arial" font-size="14.00" fill="#666666">[string]</text>
<polygon fill="none" stroke="black" points="43.2,-474.4 43.2,-505.2 292.52,-505.2 292.52,-474.4 43.2,-474.4"/>
<text text-anchor="start" x="50.2" y="-486.6" font-family="Arial" font-size="14.00">shippingInstructions </text>
<text text-anchor="start" x="177.83" y="-486.6" font-family="Arial" font-size="14.00" fill="#666666">[string]</text>
<polygon fill="none" stroke="black" points="43.2,-443.6 43.2,-474.4 292.52,-474.4 292.52,-443.6 43.2,-443.6"/>
<text text-anchor="start" x="50.2" y="-455.8" font-family="Arial" font-size="14.00">pulledBy </text>
<text text-anchor="start" x="107.79" y="-455.8" font-family="Arial" font-size="14.00" fill="#666666">[string]</text>
<polygon fill="none" stroke="black" points="43.2,-412.8 43.2,-443.6 292.52,-443.6 292.52,-412.8 43.2,-412.8"/>
<text text-anchor="start" x="50.2" y="-425" font-family="Arial" font-size="14.00">supplier </text>
<text text-anchor="start" x="103.12" y="-425" font-family="Arial" font-size="14.00" fill="#666666">[Contact]</text>
<polygon fill="none" stroke="black" points="43.2,-382 43.2,-412.8 292.52,-412.8 292.52,-382 43.2,-382"/>
<text text-anchor="start" x="50.2" y="-394.2" font-family="Arial" font-size="14.00">billTo </text>
<text text-anchor="start" x="87.54" y="-394.2" font-family="Arial" font-size="14.00" fill="#666666">[Contact]</text>
<polygon fill="none" stroke="black" points="43.2,-351.2 43.2,-382 292.52,-382 292.52,-351.2 43.2,-351.2"/>
<text text-anchor="start" x="50.2" y="-363.4" font-family="Arial" font-size="14.00">trackingNumber </text>
<text text-anchor="start" x="152.9" y="-363.4" font-family="Arial" font-size="14.00" fill="#666666">[string]</text>
<polygon fill="none" stroke="black" points="43.2,-320.4 43.2,-351.2 292.52,-351.2 292.52,-320.4 43.2,-320.4"/>
<text text-anchor="start" x="50.2" y="-332.6" font-family="Arial" font-size="14.00">exFactoryDate </text>
<text text-anchor="start" x="145.12" y="-332.6" font-family="Arial" font-size="14.00" fill="#666666">[datetime]</text>
<polygon fill="none" stroke="black" points="43.2,-289.6 43.2,-320.4 292.52,-320.4 292.52,-289.6 43.2,-289.6"/>
<text text-anchor="start" x="50.2" y="-301.8" font-family="Arial" font-size="14.00">updatedAt </text>
<text text-anchor="start" x="117.92" y="-301.8" font-family="Arial" font-size="14.00" fill="#666666">[datetime]</text>
<polygon fill="none" stroke="black" points="43.2,-258.8 43.2,-289.6 292.52,-289.6 292.52,-258.8 43.2,-258.8"/>
<text text-anchor="start" x="50.2" y="-271" font-family="Arial" font-size="14.00">createdAt </text>
<text text-anchor="start" x="114.01" y="-271" font-family="Arial" font-size="14.00" fill="#666666">[datetime]</text>
<polygon fill="none" stroke="black" points="43.2,-228 43.2,-258.8 292.52,-258.8 292.52,-228 43.2,-228"/>
<text text-anchor="start" x="50.2" y="-240.2" font-family="Arial" font-size="14.00">shipToID </text>
<text text-anchor="start" x="110.11" y="-240.2" font-family="Arial" font-size="14.00" fill="#666666">[uuid]</text>
<polygon fill="none" stroke="black" points="43.2,-197.2 43.2,-228 292.52,-228 292.52,-197.2 43.2,-197.2"/>
<text text-anchor="start" x="50.2" y="-209.4" font-family="Arial" font-size="14.00">terms </text>
<text text-anchor="start" x="89.09" y="-209.4" font-family="Arial" font-size="14.00" fill="#666666">[string]</text>
<polygon fill="none" stroke="black" points="43.2,-166.4 43.2,-197.2 292.52,-197.2 292.52,-166.4 43.2,-166.4"/>
<text text-anchor="start" x="50.2" y="-178.6" font-family="Arial" font-size="14.00">notes </text>
<text text-anchor="start" x="88.34" y="-178.6" font-family="Arial" font-size="14.00" fill="#666666">[string]</text>
<polygon fill="none" stroke="black" points="43.2,-135.6 43.2,-166.4 292.52,-166.4 292.52,-135.6 43.2,-135.6"/>
<text text-anchor="start" x="50.2" y="-147.8" font-family="Arial" font-size="14.00">approvedBy </text>
<text text-anchor="start" x="128.81" y="-147.8" font-family="Arial" font-size="14.00" fill="#666666">[string]</text>
<polygon fill="none" stroke="black" points="43.2,-104.8 43.2,-135.6 292.52,-135.6 292.52,-104.8 43.2,-104.8"/>
<text text-anchor="start" x="50.2" y="-117" font-family="Arial" font-size="14.00">receivedBy </text>
<text text-anchor="start" x="123.34" y="-117" font-family="Arial" font-size="14.00" fill="#666666">[string]</text>
<polygon fill="none" stroke="black" points="43.2,-74 43.2,-104.8 292.52,-104.8 292.52,-74 43.2,-74"/>
<text text-anchor="start" x="50.2" y="-86.2" font-family="Arial" font-size="14.00">shippingContactPhone </text>
<text text-anchor="start" x="194.97" y="-86.2" font-family="Arial" font-size="14.00" fill="#666666">[string]</text>
<polygon fill="none" stroke="black" points="43.2,-43.2 43.2,-74 292.52,-74 292.52,-43.2 43.2,-43.2"/>
<text text-anchor="start" x="50.2" y="-55.4" font-family="Arial" font-size="14.00">shippingContactName </text>
<text text-anchor="start" x="191.83" y="-55.4" font-family="Arial" font-size="14.00" fill="#666666">[string]</text>
</g>
<!-- PurchaseOrderLineItem&#45;&gt;PurchaseOrder -->
<g id="edge1" class="edge">
<title>PurchaseOrderLineItem:purchaseOrderID&#45;&gt;PurchaseOrder:id</title>
<path fill="none" stroke="black" d="M176.06,-1019.33C134.74,-1009.79 157.38,-938.58 187.21,-897.2 216.14,-857.08 263.54,-901.28 292.52,-861.2 317.05,-827.27 335.39,-767 293.52,-767"/>
<polygon fill="black" stroke="black" points="175.94,-1019.32 185.41,-1024.84 181.24,-1019.88 185.55,-1020.33 185.55,-1020.33 185.55,-1020.33 181.24,-1019.88 186.35,-1015.89 175.94,-1019.32"/>
<text text-anchor="start" x="74.17" y="-1030.4" font-family="Arial" font-size="10.00">Source: PurchaseOrder</text>
</g>
<!-- ProductVariant -->
<g id="node3" class="node">
<title>ProductVariant</title>
<polygon fill="#efefef" stroke="none" points="396.69,-751.6 396.69,-787.2 649.03,-787.2 649.03,-751.6 396.69,-751.6"/>
<polygon fill="none" stroke="black" points="396.69,-751.6 396.69,-787.2 649.03,-787.2 649.03,-751.6 396.69,-751.6"/>
<text text-anchor="start" x="403.69" y="-765" font-family="Arial Bold" font-size="18.00">ProductVariant</text>
<text text-anchor="start" x="513.66" y="-765" font-family="Arial" font-size="14.00">    </text>
<text text-anchor="start" x="544.78" y="-765" font-family="Arial" font-size="14.00" fill="#666666">[TailorDB.Type]</text>
<polygon fill="none" stroke="black" points="396.69,-720.8 396.69,-751.6 649.03,-751.6 649.03,-720.8 396.69,-720.8"/>
<text text-anchor="start" x="403.69" y="-733" font-family="Arial" font-size="14.00">id </text>
<text text-anchor="start" x="418.48" y="-733" font-family="Arial" font-size="14.00" fill="#666666">[uuid]</text>
<polygon fill="none" stroke="black" points="396.69,-690 396.69,-720.8 649.03,-720.8 649.03,-690 396.69,-690"/>
<text text-anchor="start" x="403.69" y="-702.2" font-family="Arial" font-size="14.00">shopifyID </text>
<text text-anchor="start" x="465.94" y="-702.2" font-family="Arial" font-size="14.00" fill="#666666">[string]</text>
<polygon fill="none" stroke="black" points="396.69,-659.2 396.69,-690 649.03,-690 649.03,-659.2 396.69,-659.2"/>
<text text-anchor="start" x="403.69" y="-671.4" font-family="Arial" font-size="14.00">availableForSale </text>
<text text-anchor="start" x="511.86" y="-671.4" font-family="Arial" font-size="14.00" fill="#666666">[boolean]</text>
<polygon fill="none" stroke="black" points="396.69,-628.4 396.69,-659.2 649.03,-659.2 649.03,-628.4 396.69,-628.4"/>
<text text-anchor="start" x="403.69" y="-640.6" font-family="Arial" font-size="14.00">displayName </text>
<text text-anchor="start" x="488.51" y="-640.6" font-family="Arial" font-size="14.00" fill="#666666">[string]</text>
<polygon fill="none" stroke="black" points="396.69,-597.6 396.69,-628.4 649.03,-628.4 649.03,-597.6 396.69,-597.6"/>
<text text-anchor="start" x="403.69" y="-609.8" font-family="Arial" font-size="14.00">price </text>
<text text-anchor="start" x="437.93" y="-609.8" font-family="Arial" font-size="14.00" fill="#666666">[float]</text>
<polygon fill="none" stroke="black" points="396.69,-566.8 396.69,-597.6 649.03,-597.6 649.03,-566.8 396.69,-566.8"/>
<text text-anchor="start" x="403.69" y="-579" font-family="Arial" font-size="14.00">product </text>
<text text-anchor="start" x="454.28" y="-579" font-family="Arial" font-size="14.00" fill="#666666">[Product]</text>
<polygon fill="none" stroke="black" points="396.69,-536 396.69,-566.8 649.03,-566.8 649.03,-536 396.69,-536"/>
<text text-anchor="start" x="403.69" y="-548.2" font-family="Arial" font-size="14.00">updatedAt </text>
<text text-anchor="start" x="471.42" y="-548.2" font-family="Arial" font-size="14.00" fill="#666666">[datetime]</text>
<polygon fill="none" stroke="black" points="396.69,-505.2 396.69,-536 649.03,-536 649.03,-505.2 396.69,-505.2"/>
<text text-anchor="start" x="403.69" y="-517.4" font-family="Arial" font-size="14.00">sku </text>
<text text-anchor="start" x="429.37" y="-517.4" font-family="Arial" font-size="14.00" fill="#666666">[string]</text>
<polygon fill="none" stroke="black" points="396.69,-474.4 396.69,-505.2 649.03,-505.2 649.03,-474.4 396.69,-474.4"/>
<text text-anchor="start" x="403.69" y="-486.6" font-family="Arial" font-size="14.00">image </text>
<text text-anchor="start" x="445.71" y="-486.6" font-family="Arial" font-size="14.00" fill="#666666">[ProductImage]</text>
<polygon fill="none" stroke="black" points="396.69,-443.6 396.69,-474.4 649.03,-474.4 649.03,-443.6 396.69,-443.6"/>
<text text-anchor="start" x="403.69" y="-455.8" font-family="Arial" font-size="14.00">inventoryItem </text>
<text text-anchor="start" x="491.62" y="-455.8" font-family="Arial" font-size="14.00" fill="#666666">[InventoryItem]</text>
<polygon fill="none" stroke="black" points="396.69,-412.8 396.69,-443.6 649.03,-443.6 649.03,-412.8 396.69,-412.8"/>
<text text-anchor="start" x="403.69" y="-425" font-family="Arial" font-size="14.00">inventoryType </text>
<text text-anchor="start" x="495.51" y="-425" font-family="Arial" font-size="14.00" fill="#666666">[enum]</text>
<polygon fill="none" stroke="black" points="396.69,-382 396.69,-412.8 649.03,-412.8 649.03,-382 396.69,-382"/>
<text text-anchor="start" x="403.69" y="-394.2" font-family="Arial" font-size="14.00">quickbookSyncToken </text>
<text text-anchor="start" x="540.66" y="-394.2" font-family="Arial" font-size="14.00" fill="#666666">[string]</text>
<polygon fill="none" stroke="black" points="396.69,-351.2 396.69,-382 649.03,-382 649.03,-351.2 396.69,-351.2"/>
<text text-anchor="start" x="403.69" y="-363.4" font-family="Arial" font-size="14.00">taxable </text>
<text text-anchor="start" x="452.73" y="-363.4" font-family="Arial" font-size="14.00" fill="#666666">[boolean]</text>
<polygon fill="none" stroke="black" points="396.69,-320.4 396.69,-351.2 649.03,-351.2 649.03,-320.4 396.69,-320.4"/>
<text text-anchor="start" x="403.69" y="-332.6" font-family="Arial" font-size="14.00">quickbookItemId </text>
<text text-anchor="start" x="509.53" y="-332.6" font-family="Arial" font-size="14.00" fill="#666666">[string]</text>
<polygon fill="none" stroke="black" points="396.69,-289.6 396.69,-320.4 649.03,-320.4 649.03,-289.6 396.69,-289.6"/>
<text text-anchor="start" x="403.69" y="-301.8" font-family="Arial" font-size="14.00">createdAt </text>
<text text-anchor="start" x="467.51" y="-301.8" font-family="Arial" font-size="14.00" fill="#666666">[datetime]</text>
<polygon fill="none" stroke="black" points="396.69,-258.8 396.69,-289.6 649.03,-289.6 649.03,-258.8 396.69,-258.8"/>
<text text-anchor="start" x="403.69" y="-271" font-family="Arial" font-size="14.00">barcode </text>
<text text-anchor="start" x="458.18" y="-271" font-family="Arial" font-size="14.00" fill="#666666">[string]</text>
<polygon fill="none" stroke="black" points="396.69,-228 396.69,-258.8 649.03,-258.8 649.03,-228 396.69,-228"/>
<text text-anchor="start" x="403.69" y="-240.2" font-family="Arial" font-size="14.00">imageID </text>
<text text-anchor="start" x="459.71" y="-240.2" font-family="Arial" font-size="14.00" fill="#666666">[uuid]</text>
<polygon fill="none" stroke="black" points="396.69,-197.2 396.69,-228 649.03,-228 649.03,-197.2 396.69,-197.2"/>
<text text-anchor="start" x="403.69" y="-209.4" font-family="Arial" font-size="14.00">inventoryQuantity </text>
<text text-anchor="start" x="516.53" y="-209.4" font-family="Arial" font-size="14.00" fill="#666666">[integer]</text>
<polygon fill="none" stroke="black" points="396.69,-166.4 396.69,-197.2 649.03,-197.2 649.03,-166.4 396.69,-166.4"/>
<text text-anchor="start" x="403.69" y="-178.6" font-family="Arial" font-size="14.00">productID </text>
<text text-anchor="start" x="468.28" y="-178.6" font-family="Arial" font-size="14.00" fill="#666666">[uuid]</text>
<polygon fill="none" stroke="black" points="396.69,-135.6 396.69,-166.4 649.03,-166.4 649.03,-135.6 396.69,-135.6"/>
<text text-anchor="start" x="403.69" y="-147.8" font-family="Arial" font-size="14.00">active </text>
<text text-anchor="start" x="444.15" y="-147.8" font-family="Arial" font-size="14.00" fill="#666666">[boolean]</text>
<polygon fill="none" stroke="black" points="396.69,-104.8 396.69,-135.6 649.03,-135.6 649.03,-104.8 396.69,-104.8"/>
<text text-anchor="start" x="403.69" y="-117" font-family="Arial" font-size="14.00">inventoryItemID </text>
<text text-anchor="start" x="505.62" y="-117" font-family="Arial" font-size="14.00" fill="#666666">[uuid]</text>
<polygon fill="none" stroke="black" points="396.69,-74 396.69,-104.8 649.03,-104.8 649.03,-74 396.69,-74"/>
<text text-anchor="start" x="403.69" y="-86.2" font-family="Arial" font-size="14.00">quickbookItemName </text>
<text text-anchor="start" x="535.2" y="-86.2" font-family="Arial" font-size="14.00" fill="#666666">[string]</text>
</g>
<!-- PurchaseOrderLineItem&#45;&gt;ProductVariant -->
<g id="edge2" class="edge">
<title>PurchaseOrderLineItem:variantID&#45;&gt;ProductVariant:id</title>
<path fill="none" stroke="black" d="M513.9,-1204.81C636.62,-1195.32 567.04,-1013.81 502.5,-897.2 475.58,-848.54 423.8,-878.96 396.69,-830.4 376.28,-793.84 353.82,-736.2 395.69,-736.2"/>
<polygon fill="black" stroke="black" points="513.83,-1204.81 503.67,-1200.69 508.5,-1205.01 504.17,-1205.18 504.17,-1205.18 504.17,-1205.18 508.5,-1205.01 504.01,-1209.68 513.83,-1204.81"/>
<text text-anchor="start" x="510.5" y="-1215.2" font-family="Arial" font-size="10.00">Source: ProductVariant</text>
</g>
</g>
</svg>
