<?xml version="1.0" encoding="UTF-8" standalone="no"?>
<!DOCTYPE svg PUBLIC "-//W3C//DTD SVG 1.1//EN"
 "http://www.w3.org/Graphics/SVG/1.1/DTD/svg11.dtd">
<!-- Generated by graphviz version 12.1.2 (20240928.0832)
 -->
<!-- Title: PurchaseOrder Pages: 1 -->
<svg width="766pt" height="2146pt"
 viewBox="0.00 0.00 765.69 2146.00" xmlns="http://www.w3.org/2000/svg" xmlns:xlink="http://www.w3.org/1999/xlink">
<g id="graph0" class="graph" transform="scale(1 1) rotate(0) translate(4 2142)">
<title>PurchaseOrder</title>
<polygon fill="white" stroke="none" points="-4,4 -4,-2142 761.69,-2142 761.69,4 -4,4"/>
<!-- PurchaseOrder -->
<g id="node1" class="node">
<title>PurchaseOrder</title>
<polygon fill="#efefef" stroke="none" points="260.19,-1559.4 260.19,-1595 509.5,-1595 509.5,-1559.4 260.19,-1559.4"/>
<polygon fill="none" stroke="black" points="260.19,-1559.4 260.19,-1595 509.5,-1595 509.5,-1559.4 260.19,-1559.4"/>
<text text-anchor="start" x="267.19" y="-1572.8" font-family="Arial Bold" font-size="18.00">PurchaseOrder</text>
<text text-anchor="start" x="374.14" y="-1572.8" font-family="Arial" font-size="14.00">    </text>
<text text-anchor="start" x="405.26" y="-1572.8" font-family="Arial" font-size="14.00" fill="#666666">[TailorDB.Type]</text>
<polygon fill="none" stroke="black" points="260.19,-1528.6 260.19,-1559.4 509.5,-1559.4 509.5,-1528.6 260.19,-1528.6"/>
<text text-anchor="start" x="267.19" y="-1540.8" font-family="Arial" font-size="14.00">id </text>
<text text-anchor="start" x="281.97" y="-1540.8" font-family="Arial" font-size="14.00" fill="#666666">[uuid]</text>
<polygon fill="none" stroke="black" points="260.19,-1497.8 260.19,-1528.6 509.5,-1528.6 509.5,-1497.8 260.19,-1497.8"/>
<text text-anchor="start" x="267.19" y="-1510" font-family="Arial" font-size="14.00">dueDate </text>
<text text-anchor="start" x="324.01" y="-1510" font-family="Arial" font-size="14.00" fill="#666666">[datetime]</text>
<polygon fill="none" stroke="black" points="260.19,-1467 260.19,-1497.8 509.5,-1497.8 509.5,-1467 260.19,-1467"/>
<text text-anchor="start" x="267.19" y="-1479.2" font-family="Arial" font-size="14.00">active </text>
<text text-anchor="start" x="307.65" y="-1479.2" font-family="Arial" font-size="14.00" fill="#666666">[boolean]</text>
<polygon fill="none" stroke="black" points="260.19,-1436.2 260.19,-1467 509.5,-1467 509.5,-1436.2 260.19,-1436.2"/>
<text text-anchor="start" x="267.19" y="-1448.4" font-family="Arial" font-size="14.00">documentNumber </text>
<text text-anchor="start" x="382.35" y="-1448.4" font-family="Arial" font-size="14.00" fill="#666666">[string]</text>
<polygon fill="none" stroke="black" points="260.19,-1405.4 260.19,-1436.2 509.5,-1436.2 509.5,-1405.4 260.19,-1405.4"/>
<text text-anchor="start" x="267.19" y="-1417.6" font-family="Arial" font-size="14.00">supplierID </text>
<text text-anchor="start" x="334.1" y="-1417.6" font-family="Arial" font-size="14.00" fill="#666666">[uuid]</text>
<polygon fill="none" stroke="black" points="260.19,-1374.6 260.19,-1405.4 509.5,-1405.4 509.5,-1374.6 260.19,-1374.6"/>
<text text-anchor="start" x="267.19" y="-1386.8" font-family="Arial" font-size="14.00">date </text>
<text text-anchor="start" x="298.32" y="-1386.8" font-family="Arial" font-size="14.00" fill="#666666">[datetime]</text>
<polygon fill="none" stroke="black" points="260.19,-1343.8 260.19,-1374.6 509.5,-1374.6 509.5,-1343.8 260.19,-1343.8"/>
<text text-anchor="start" x="267.19" y="-1356" font-family="Arial" font-size="14.00">billToID </text>
<text text-anchor="start" x="318.53" y="-1356" font-family="Arial" font-size="14.00" fill="#666666">[uuid]</text>
<polygon fill="none" stroke="black" points="260.19,-1313 260.19,-1343.8 509.5,-1343.8 509.5,-1313 260.19,-1313"/>
<text text-anchor="start" x="267.19" y="-1325.2" font-family="Arial" font-size="14.00">shipTo </text>
<text text-anchor="start" x="313.1" y="-1325.2" font-family="Arial" font-size="14.00" fill="#666666">[Contact]</text>
<polygon fill="none" stroke="black" points="260.19,-1282.2 260.19,-1313 509.5,-1313 509.5,-1282.2 260.19,-1282.2"/>
<text text-anchor="start" x="267.19" y="-1294.4" font-family="Arial" font-size="14.00">shipVia </text>
<text text-anchor="start" x="316.99" y="-1294.4" font-family="Arial" font-size="14.00" fill="#666666">[string]</text>
<polygon fill="none" stroke="black" points="260.19,-1251.4 260.19,-1282.2 509.5,-1282.2 509.5,-1251.4 260.19,-1251.4"/>
<text text-anchor="start" x="267.19" y="-1263.6" font-family="Arial" font-size="14.00">shippingInstructions </text>
<text text-anchor="start" x="394.81" y="-1263.6" font-family="Arial" font-size="14.00" fill="#666666">[string]</text>
<polygon fill="none" stroke="black" points="260.19,-1220.6 260.19,-1251.4 509.5,-1251.4 509.5,-1220.6 260.19,-1220.6"/>
<text text-anchor="start" x="267.19" y="-1232.8" font-family="Arial" font-size="14.00">pulledBy </text>
<text text-anchor="start" x="324.78" y="-1232.8" font-family="Arial" font-size="14.00" fill="#666666">[string]</text>
<polygon fill="none" stroke="black" points="260.19,-1189.8 260.19,-1220.6 509.5,-1220.6 509.5,-1189.8 260.19,-1189.8"/>
<text text-anchor="start" x="267.19" y="-1202" font-family="Arial" font-size="14.00">supplier </text>
<text text-anchor="start" x="320.1" y="-1202" font-family="Arial" font-size="14.00" fill="#666666">[Contact]</text>
<polygon fill="none" stroke="black" points="260.19,-1159 260.19,-1189.8 509.5,-1189.8 509.5,-1159 260.19,-1159"/>
<text text-anchor="start" x="267.19" y="-1171.2" font-family="Arial" font-size="14.00">billTo </text>
<text text-anchor="start" x="304.53" y="-1171.2" font-family="Arial" font-size="14.00" fill="#666666">[Contact]</text>
<polygon fill="none" stroke="black" points="260.19,-1128.2 260.19,-1159 509.5,-1159 509.5,-1128.2 260.19,-1128.2"/>
<text text-anchor="start" x="267.19" y="-1140.4" font-family="Arial" font-size="14.00">trackingNumber </text>
<text text-anchor="start" x="369.89" y="-1140.4" font-family="Arial" font-size="14.00" fill="#666666">[string]</text>
<polygon fill="none" stroke="black" points="260.19,-1097.4 260.19,-1128.2 509.5,-1128.2 509.5,-1097.4 260.19,-1097.4"/>
<text text-anchor="start" x="267.19" y="-1109.6" font-family="Arial" font-size="14.00">exFactoryDate </text>
<text text-anchor="start" x="362.11" y="-1109.6" font-family="Arial" font-size="14.00" fill="#666666">[datetime]</text>
<polygon fill="none" stroke="black" points="260.19,-1066.6 260.19,-1097.4 509.5,-1097.4 509.5,-1066.6 260.19,-1066.6"/>
<text text-anchor="start" x="267.19" y="-1078.8" font-family="Arial" font-size="14.00">updatedAt </text>
<text text-anchor="start" x="334.91" y="-1078.8" font-family="Arial" font-size="14.00" fill="#666666">[datetime]</text>
<polygon fill="none" stroke="black" points="260.19,-1035.8 260.19,-1066.6 509.5,-1066.6 509.5,-1035.8 260.19,-1035.8"/>
<text text-anchor="start" x="267.19" y="-1048" font-family="Arial" font-size="14.00">createdAt </text>
<text text-anchor="start" x="331" y="-1048" font-family="Arial" font-size="14.00" fill="#666666">[datetime]</text>
<polygon fill="none" stroke="black" points="260.19,-1005 260.19,-1035.8 509.5,-1035.8 509.5,-1005 260.19,-1005"/>
<text text-anchor="start" x="267.19" y="-1017.2" font-family="Arial" font-size="14.00">shipToID </text>
<text text-anchor="start" x="327.1" y="-1017.2" font-family="Arial" font-size="14.00" fill="#666666">[uuid]</text>
<polygon fill="none" stroke="black" points="260.19,-974.2 260.19,-1005 509.5,-1005 509.5,-974.2 260.19,-974.2"/>
<text text-anchor="start" x="267.19" y="-986.4" font-family="Arial" font-size="14.00">terms </text>
<text text-anchor="start" x="306.07" y="-986.4" font-family="Arial" font-size="14.00" fill="#666666">[string]</text>
<polygon fill="none" stroke="black" points="260.19,-943.4 260.19,-974.2 509.5,-974.2 509.5,-943.4 260.19,-943.4"/>
<text text-anchor="start" x="267.19" y="-955.6" font-family="Arial" font-size="14.00">notes </text>
<text text-anchor="start" x="305.32" y="-955.6" font-family="Arial" font-size="14.00" fill="#666666">[string]</text>
<polygon fill="none" stroke="black" points="260.19,-912.6 260.19,-943.4 509.5,-943.4 509.5,-912.6 260.19,-912.6"/>
<text text-anchor="start" x="267.19" y="-924.8" font-family="Arial" font-size="14.00">approvedBy </text>
<text text-anchor="start" x="345.79" y="-924.8" font-family="Arial" font-size="14.00" fill="#666666">[string]</text>
<polygon fill="none" stroke="black" points="260.19,-881.8 260.19,-912.6 509.5,-912.6 509.5,-881.8 260.19,-881.8"/>
<text text-anchor="start" x="267.19" y="-894" font-family="Arial" font-size="14.00">receivedBy </text>
<text text-anchor="start" x="340.33" y="-894" font-family="Arial" font-size="14.00" fill="#666666">[string]</text>
<polygon fill="none" stroke="black" points="260.19,-851 260.19,-881.8 509.5,-881.8 509.5,-851 260.19,-851"/>
<text text-anchor="start" x="267.19" y="-863.2" font-family="Arial" font-size="14.00">shippingContactPhone </text>
<text text-anchor="start" x="411.96" y="-863.2" font-family="Arial" font-size="14.00" fill="#666666">[string]</text>
<polygon fill="none" stroke="black" points="260.19,-820.2 260.19,-851 509.5,-851 509.5,-820.2 260.19,-820.2"/>
<text text-anchor="start" x="267.19" y="-832.4" font-family="Arial" font-size="14.00">shippingContactName </text>
<text text-anchor="start" x="408.82" y="-832.4" font-family="Arial" font-size="14.00" fill="#666666">[string]</text>
<polygon fill="none" stroke="black" stroke-width="3" points="258.69,-818.7 258.69,-1596.5 511,-1596.5 511,-818.7 258.69,-818.7"/>
</g>
<!-- Contact -->
<g id="node4" class="node">
<title>Contact</title>
<polygon fill="#efefef" stroke="none" points="285.67,-659.2 285.67,-694.8 484.02,-694.8 484.02,-659.2 285.67,-659.2"/>
<polygon fill="none" stroke="black" points="285.67,-659.2 285.67,-694.8 484.02,-694.8 484.02,-659.2 285.67,-659.2"/>
<text text-anchor="start" x="292.67" y="-672.6" font-family="Arial Bold" font-size="18.00">Contact</text>
<text text-anchor="start" x="348.66" y="-672.6" font-family="Arial" font-size="14.00">    </text>
<text text-anchor="start" x="379.77" y="-672.6" font-family="Arial" font-size="14.00" fill="#666666">[TailorDB.Type]</text>
<polygon fill="none" stroke="black" points="285.67,-628.4 285.67,-659.2 484.02,-659.2 484.02,-628.4 285.67,-628.4"/>
<text text-anchor="start" x="292.67" y="-640.6" font-family="Arial" font-size="14.00">id </text>
<text text-anchor="start" x="307.46" y="-640.6" font-family="Arial" font-size="14.00" fill="#666666">[uuid]</text>
<polygon fill="none" stroke="black" points="285.67,-597.6 285.67,-628.4 484.02,-628.4 484.02,-597.6 285.67,-597.6"/>
<text text-anchor="start" x="292.67" y="-609.8" font-family="Arial" font-size="14.00">createdAt </text>
<text text-anchor="start" x="356.48" y="-609.8" font-family="Arial" font-size="14.00" fill="#666666">[datetime]</text>
<polygon fill="none" stroke="black" points="285.67,-566.8 285.67,-597.6 484.02,-597.6 484.02,-566.8 285.67,-566.8"/>
<text text-anchor="start" x="292.67" y="-579" font-family="Arial" font-size="14.00">province </text>
<text text-anchor="start" x="349.48" y="-579" font-family="Arial" font-size="14.00" fill="#666666">[string]</text>
<polygon fill="none" stroke="black" points="285.67,-536 285.67,-566.8 484.02,-566.8 484.02,-536 285.67,-536"/>
<text text-anchor="start" x="292.67" y="-548.2" font-family="Arial" font-size="14.00">countryCode </text>
<text text-anchor="start" x="375.94" y="-548.2" font-family="Arial" font-size="14.00" fill="#666666">[string]</text>
<polygon fill="none" stroke="black" points="285.67,-505.2 285.67,-536 484.02,-536 484.02,-505.2 285.67,-505.2"/>
<text text-anchor="start" x="292.67" y="-517.4" font-family="Arial" font-size="14.00">active </text>
<text text-anchor="start" x="333.13" y="-517.4" font-family="Arial" font-size="14.00" fill="#666666">[boolean]</text>
<polygon fill="none" stroke="black" points="285.67,-474.4 285.67,-505.2 484.02,-505.2 484.02,-474.4 285.67,-474.4"/>
<text text-anchor="start" x="292.67" y="-486.6" font-family="Arial" font-size="14.00">address2 </text>
<text text-anchor="start" x="354.15" y="-486.6" font-family="Arial" font-size="14.00" fill="#666666">[string]</text>
<polygon fill="none" stroke="black" points="285.67,-443.6 285.67,-474.4 484.02,-474.4 484.02,-443.6 285.67,-443.6"/>
<text text-anchor="start" x="292.67" y="-455.8" font-family="Arial" font-size="14.00">city </text>
<text text-anchor="start" x="317.56" y="-455.8" font-family="Arial" font-size="14.00" fill="#666666">[string]</text>
<polygon fill="none" stroke="black" points="285.67,-412.8 285.67,-443.6 484.02,-443.6 484.02,-412.8 285.67,-412.8"/>
<text text-anchor="start" x="292.67" y="-425" font-family="Arial" font-size="14.00">provinceCode </text>
<text text-anchor="start" x="382.94" y="-425" font-family="Arial" font-size="14.00" fill="#666666">[string]</text>
<polygon fill="none" stroke="black" points="285.67,-382 285.67,-412.8 484.02,-412.8 484.02,-382 285.67,-382"/>
<text text-anchor="start" x="292.67" y="-394.2" font-family="Arial" font-size="14.00">creditLimit </text>
<text text-anchor="start" x="360.35" y="-394.2" font-family="Arial" font-size="14.00" fill="#666666">[float]</text>
<polygon fill="none" stroke="black" points="285.67,-351.2 285.67,-382 484.02,-382 484.02,-351.2 285.67,-351.2"/>
<text text-anchor="start" x="292.67" y="-363.4" font-family="Arial" font-size="14.00">name </text>
<text text-anchor="start" x="331.58" y="-363.4" font-family="Arial" font-size="14.00" fill="#666666">[string]</text>
<polygon fill="none" stroke="black" points="285.67,-320.4 285.67,-351.2 484.02,-351.2 484.02,-320.4 285.67,-320.4"/>
<text text-anchor="start" x="292.67" y="-332.6" font-family="Arial" font-size="14.00">address1 </text>
<text text-anchor="start" x="354.15" y="-332.6" font-family="Arial" font-size="14.00" fill="#666666">[string]</text>
<polygon fill="none" stroke="black" points="285.67,-289.6 285.67,-320.4 484.02,-320.4 484.02,-289.6 285.67,-289.6"/>
<text text-anchor="start" x="292.67" y="-301.8" font-family="Arial" font-size="14.00">country </text>
<text text-anchor="start" x="342.47" y="-301.8" font-family="Arial" font-size="14.00" fill="#666666">[string]</text>
<polygon fill="none" stroke="black" points="285.67,-258.8 285.67,-289.6 484.02,-289.6 484.02,-258.8 285.67,-258.8"/>
<text text-anchor="start" x="292.67" y="-271" font-family="Arial" font-size="14.00">zip </text>
<text text-anchor="start" x="314.46" y="-271" font-family="Arial" font-size="14.00" fill="#666666">[string]</text>
<polygon fill="none" stroke="black" points="285.67,-228 285.67,-258.8 484.02,-258.8 484.02,-228 285.67,-228"/>
<text text-anchor="start" x="292.67" y="-240.2" font-family="Arial" font-size="14.00">company </text>
<text text-anchor="start" x="353.37" y="-240.2" font-family="Arial" font-size="14.00" fill="#666666">[string]</text>
<polygon fill="none" stroke="black" points="285.67,-197.2 285.67,-228 484.02,-228 484.02,-197.2 285.67,-197.2"/>
<text text-anchor="start" x="292.67" y="-209.4" font-family="Arial" font-size="14.00">openBalance </text>
<text text-anchor="start" x="378.3" y="-209.4" font-family="Arial" font-size="14.00" fill="#666666">[float]</text>
<polygon fill="none" stroke="black" points="285.67,-166.4 285.67,-197.2 484.02,-197.2 484.02,-166.4 285.67,-166.4"/>
<text text-anchor="start" x="292.67" y="-178.6" font-family="Arial" font-size="14.00">email </text>
<text text-anchor="start" x="330.01" y="-178.6" font-family="Arial" font-size="14.00" fill="#666666">[string]</text>
<polygon fill="none" stroke="black" points="285.67,-135.6 285.67,-166.4 484.02,-166.4 484.02,-135.6 285.67,-135.6"/>
<text text-anchor="start" x="292.67" y="-147.8" font-family="Arial" font-size="14.00">phone </text>
<text text-anchor="start" x="335.49" y="-147.8" font-family="Arial" font-size="14.00" fill="#666666">[string]</text>
<polygon fill="none" stroke="black" points="285.67,-104.8 285.67,-135.6 484.02,-135.6 484.02,-104.8 285.67,-104.8"/>
<text text-anchor="start" x="292.67" y="-117" font-family="Arial" font-size="14.00">updatedAt </text>
<text text-anchor="start" x="360.39" y="-117" font-family="Arial" font-size="14.00" fill="#666666">[datetime]</text>
<polygon fill="none" stroke="black" points="285.67,-74 285.67,-104.8 484.02,-104.8 484.02,-74 285.67,-74"/>
<text text-anchor="start" x="292.67" y="-86.2" font-family="Arial" font-size="14.00">quickBookCustomerId </text>
<text text-anchor="start" x="433.51" y="-86.2" font-family="Arial" font-size="14.00" fill="#666666">[string]</text>
<polygon fill="none" stroke="black" points="285.67,-43.2 285.67,-74 484.02,-74 484.02,-43.2 285.67,-43.2"/>
<text text-anchor="start" x="292.67" y="-55.4" font-family="Arial" font-size="14.00">availableCredit </text>
<text text-anchor="start" x="389.17" y="-55.4" font-family="Arial" font-size="14.00" fill="#666666">[float]</text>
</g>
<!-- PurchaseOrder&#45;&gt;Contact -->
<g id="edge3" class="edge">
<title>PurchaseOrder:supplierID&#45;&gt;Contact:id</title>
<path fill="none" stroke="black" d="M520.52,-1420.58C855.5,-1405.7 827.17,-643.8 485.02,-643.8"/>
<polygon fill="black" stroke="black" points="520.84,-1420.57 510.74,-1416.29 515.5,-1420.69 511.17,-1420.79 511.17,-1420.79 511.17,-1420.79 515.5,-1420.69 510.94,-1425.29 520.84,-1420.57"/>
<text text-anchor="start" x="517.5" y="-1430.8" font-family="Arial" font-size="10.00">Source: Contact</text>
</g>
<!-- PurchaseOrder&#45;&gt;Contact -->
<g id="edge4" class="edge">
<title>PurchaseOrder:billToID&#45;&gt;Contact:id</title>
<path fill="none" stroke="black" d="M520.64,-1358.95C828.08,-1343.91 799.76,-643.8 485.02,-643.8"/>
<polygon fill="black" stroke="black" points="520.84,-1358.95 510.73,-1354.69 515.5,-1359.08 511.17,-1359.18 511.17,-1359.18 511.17,-1359.18 515.5,-1359.08 510.95,-1363.69 520.84,-1358.95"/>
<text text-anchor="start" x="517.5" y="-1369.2" font-family="Arial" font-size="10.00">Source: Contact</text>
</g>
<!-- PurchaseOrder&#45;&gt;Contact -->
<g id="edge5" class="edge">
<title>PurchaseOrder:shipToID&#45;&gt;Contact:id</title>
<path fill="none" stroke="black" d="M520.58,-1019.93C677.16,-1005.11 649.34,-643.8 485.02,-643.8"/>
<polygon fill="black" stroke="black" points="520.83,-1019.92 510.63,-1015.89 515.5,-1020.17 511.17,-1020.37 511.17,-1020.37 511.17,-1020.37 515.5,-1020.17 511.05,-1024.88 520.83,-1019.92"/>
<text text-anchor="start" x="517.5" y="-1030.4" font-family="Arial" font-size="10.00">Source: Contact</text>
</g>
<!-- PurchaseOrderLineItem -->
<g id="node2" class="node">
<title>PurchaseOrderLineItem</title>
<polygon fill="#efefef" stroke="none" points="43.2,-2059.2 43.2,-2094.8 358.49,-2094.8 358.49,-2059.2 43.2,-2059.2"/>
<polygon fill="none" stroke="black" points="43.2,-2059.2 43.2,-2094.8 358.49,-2094.8 358.49,-2059.2 43.2,-2059.2"/>
<text text-anchor="start" x="50.2" y="-2072.6" font-family="Arial Bold" font-size="18.00">PurchaseOrderLineItem</text>
<text text-anchor="start" x="223.12" y="-2072.6" font-family="Arial" font-size="14.00">    </text>
<text text-anchor="start" x="254.24" y="-2072.6" font-family="Arial" font-size="14.00" fill="#666666">[TailorDB.Type]</text>
<polygon fill="none" stroke="black" points="43.2,-2028.4 43.2,-2059.2 358.49,-2059.2 358.49,-2028.4 43.2,-2028.4"/>
<text text-anchor="start" x="50.2" y="-2040.6" font-family="Arial" font-size="14.00">id </text>
<text text-anchor="start" x="64.99" y="-2040.6" font-family="Arial" font-size="14.00" fill="#666666">[uuid]</text>
<polygon fill="none" stroke="black" points="43.2,-1997.6 43.2,-2028.4 358.49,-2028.4 358.49,-1997.6 43.2,-1997.6"/>
<text text-anchor="start" x="50.2" y="-2009.8" font-family="Arial" font-size="14.00">purchaseOrder </text>
<text text-anchor="start" x="147.47" y="-2009.8" font-family="Arial" font-size="14.00" fill="#666666">[PurchaseOrder]</text>
<polygon fill="none" stroke="black" points="43.2,-1966.8 43.2,-1997.6 358.49,-1997.6 358.49,-1966.8 43.2,-1966.8"/>
<text text-anchor="start" x="50.2" y="-1979" font-family="Arial" font-size="14.00">variantID </text>
<text text-anchor="start" x="110.11" y="-1979" font-family="Arial" font-size="14.00" fill="#666666">[uuid]</text>
<polygon fill="none" stroke="black" points="43.2,-1936 43.2,-1966.8 358.49,-1966.8 358.49,-1936 43.2,-1936"/>
<text text-anchor="start" x="50.2" y="-1948.2" font-family="Arial" font-size="14.00">variant </text>
<text text-anchor="start" x="96.11" y="-1948.2" font-family="Arial" font-size="14.00" fill="#666666">[ProductVariant]</text>
<polygon fill="none" stroke="black" points="43.2,-1905.2 43.2,-1936 358.49,-1936 358.49,-1905.2 43.2,-1905.2"/>
<text text-anchor="start" x="50.2" y="-1917.4" font-family="Arial" font-size="14.00">quantity </text>
<text text-anchor="start" x="103.12" y="-1917.4" font-family="Arial" font-size="14.00" fill="#666666">[float]</text>
<polygon fill="none" stroke="black" points="43.2,-1874.4 43.2,-1905.2 358.49,-1905.2 358.49,-1874.4 43.2,-1874.4"/>
<text text-anchor="start" x="50.2" y="-1886.6" font-family="Arial" font-size="14.00">unitCost </text>
<text text-anchor="start" x="105.45" y="-1886.6" font-family="Arial" font-size="14.00" fill="#666666">[float]</text>
<polygon fill="none" stroke="black" points="43.2,-1843.6 43.2,-1874.4 358.49,-1874.4 358.49,-1843.6 43.2,-1843.6"/>
<text text-anchor="start" x="50.2" y="-1855.8" font-family="Arial" font-size="14.00">subtotalCost </text>
<text text-anchor="start" x="131.91" y="-1855.8" font-family="Arial" font-size="14.00" fill="#666666">[float]</text>
<polygon fill="none" stroke="black" points="43.2,-1812.8 43.2,-1843.6 358.49,-1843.6 358.49,-1812.8 43.2,-1812.8"/>
<text text-anchor="start" x="50.2" y="-1825" font-family="Arial" font-size="14.00">createdAt </text>
<text text-anchor="start" x="114.01" y="-1825" font-family="Arial" font-size="14.00" fill="#666666">[datetime]</text>
<polygon fill="none" stroke="black" points="43.2,-1782 43.2,-1812.8 358.49,-1812.8 358.49,-1782 43.2,-1782"/>
<text text-anchor="start" x="50.2" y="-1794.2" font-family="Arial" font-size="14.00">purchaseOrderID </text>
<text text-anchor="start" x="161.47" y="-1794.2" font-family="Arial" font-size="14.00" fill="#666666">[uuid]</text>
<polygon fill="none" stroke="black" points="43.2,-1751.2 43.2,-1782 358.49,-1782 358.49,-1751.2 43.2,-1751.2"/>
<text text-anchor="start" x="50.2" y="-1763.4" font-family="Arial" font-size="14.00">updatedAt </text>
<text text-anchor="start" x="117.92" y="-1763.4" font-family="Arial" font-size="14.00" fill="#666666">[datetime]</text>
<polygon fill="none" stroke="black" points="43.2,-1720.4 43.2,-1751.2 358.49,-1751.2 358.49,-1720.4 43.2,-1720.4"/>
<text text-anchor="start" x="50.2" y="-1732.6" font-family="Arial" font-size="14.00">active </text>
<text text-anchor="start" x="90.66" y="-1732.6" font-family="Arial" font-size="14.00" fill="#666666">[boolean]</text>
</g>
<!-- PurchaseOrderLineItem&#45;&gt;PurchaseOrder -->
<g id="edge1" class="edge">
<title>PurchaseOrderLineItem:purchaseOrderID&#45;&gt;PurchaseOrder:id</title>
<path fill="none" stroke="black" d="M369.64,-1796.3C409.55,-1786.8 387.11,-1717.79 358.49,-1677.2 331.68,-1639.17 287.03,-1679.2 260.19,-1641.2 235.26,-1605.91 215.98,-1544 259.19,-1544"/>
<polygon fill="black" stroke="black" points="369.76,-1796.29 359.34,-1792.89 364.46,-1796.86 360.16,-1797.33 360.16,-1797.33 360.16,-1797.33 364.46,-1796.86 360.31,-1801.84 369.76,-1796.29"/>
<text text-anchor="start" x="366.49" y="-1807.4" font-family="Arial" font-size="10.00">Source: PurchaseOrder</text>
</g>
<!-- Receipt -->
<g id="node3" class="node">
<title>Receipt</title>
<polygon fill="#efefef" stroke="none" points="462.86,-2059.2 462.86,-2094.8 676.83,-2094.8 676.83,-2059.2 462.86,-2059.2"/>
<polygon fill="none" stroke="black" points="462.86,-2059.2 462.86,-2094.8 676.83,-2094.8 676.83,-2059.2 462.86,-2059.2"/>
<text text-anchor="start" x="478.17" y="-2072.6" font-family="Arial Bold" font-size="18.00">Receipt</text>
<text text-anchor="start" x="533.15" y="-2072.6" font-family="Arial" font-size="14.00">    </text>
<text text-anchor="start" x="564.27" y="-2072.6" font-family="Arial" font-size="14.00" fill="#666666">[TailorDB.Type]</text>
<polygon fill="none" stroke="black" points="462.86,-2028.4 462.86,-2059.2 676.83,-2059.2 676.83,-2028.4 462.86,-2028.4"/>
<text text-anchor="start" x="469.86" y="-2040.6" font-family="Arial" font-size="14.00">id </text>
<text text-anchor="start" x="484.64" y="-2040.6" font-family="Arial" font-size="14.00" fill="#666666">[uuid]</text>
<polygon fill="none" stroke="black" points="462.86,-1997.6 462.86,-2028.4 676.83,-2028.4 676.83,-1997.6 462.86,-1997.6"/>
<text text-anchor="start" x="469.86" y="-2009.8" font-family="Arial" font-size="14.00">supplierID </text>
<text text-anchor="start" x="536.77" y="-2009.8" font-family="Arial" font-size="14.00" fill="#666666">[uuid]</text>
<polygon fill="none" stroke="black" points="462.86,-1966.8 462.86,-1997.6 676.83,-1997.6 676.83,-1966.8 462.86,-1966.8"/>
<text text-anchor="start" x="469.86" y="-1979" font-family="Arial" font-size="14.00">purchaseOrder </text>
<text text-anchor="start" x="567.12" y="-1979" font-family="Arial" font-size="14.00" fill="#666666">[PurchaseOrder]</text>
<polygon fill="none" stroke="black" points="462.86,-1936 462.86,-1966.8 676.83,-1966.8 676.83,-1936 462.86,-1936"/>
<text text-anchor="start" x="469.86" y="-1948.2" font-family="Arial" font-size="14.00">date </text>
<text text-anchor="start" x="500.99" y="-1948.2" font-family="Arial" font-size="14.00" fill="#666666">[datetime]</text>
<polygon fill="none" stroke="black" points="462.86,-1905.2 462.86,-1936 676.83,-1936 676.83,-1905.2 462.86,-1905.2"/>
<text text-anchor="start" x="469.86" y="-1917.4" font-family="Arial" font-size="14.00">receiptStatus </text>
<text text-anchor="start" x="555.46" y="-1917.4" font-family="Arial" font-size="14.00" fill="#666666">[enum]</text>
<polygon fill="none" stroke="black" points="462.86,-1874.4 462.86,-1905.2 676.83,-1905.2 676.83,-1874.4 462.86,-1874.4"/>
<text text-anchor="start" x="469.86" y="-1886.6" font-family="Arial" font-size="14.00">active </text>
<text text-anchor="start" x="510.32" y="-1886.6" font-family="Arial" font-size="14.00" fill="#666666">[boolean]</text>
<polygon fill="none" stroke="black" points="462.86,-1843.6 462.86,-1874.4 676.83,-1874.4 676.83,-1843.6 462.86,-1843.6"/>
<text text-anchor="start" x="469.86" y="-1855.8" font-family="Arial" font-size="14.00">createdAt </text>
<text text-anchor="start" x="533.67" y="-1855.8" font-family="Arial" font-size="14.00" fill="#666666">[datetime]</text>
<polygon fill="none" stroke="black" points="462.86,-1812.8 462.86,-1843.6 676.83,-1843.6 676.83,-1812.8 462.86,-1812.8"/>
<text text-anchor="start" x="469.86" y="-1825" font-family="Arial" font-size="14.00">receiptNumber </text>
<text text-anchor="start" x="565.56" y="-1825" font-family="Arial" font-size="14.00" fill="#666666">[string]</text>
<polygon fill="none" stroke="black" points="462.86,-1782 462.86,-1812.8 676.83,-1812.8 676.83,-1782 462.86,-1782"/>
<text text-anchor="start" x="469.86" y="-1794.2" font-family="Arial" font-size="14.00">supplier </text>
<text text-anchor="start" x="522.77" y="-1794.2" font-family="Arial" font-size="14.00" fill="#666666">[Contact]</text>
<polygon fill="none" stroke="black" points="462.86,-1751.2 462.86,-1782 676.83,-1782 676.83,-1751.2 462.86,-1751.2"/>
<text text-anchor="start" x="469.86" y="-1763.4" font-family="Arial" font-size="14.00">purchaseOrderID </text>
<text text-anchor="start" x="581.12" y="-1763.4" font-family="Arial" font-size="14.00" fill="#666666">[uuid]</text>
<polygon fill="none" stroke="black" points="462.86,-1720.4 462.86,-1751.2 676.83,-1751.2 676.83,-1720.4 462.86,-1720.4"/>
<text text-anchor="start" x="469.86" y="-1732.6" font-family="Arial" font-size="14.00">updatedAt </text>
<text text-anchor="start" x="537.58" y="-1732.6" font-family="Arial" font-size="14.00" fill="#666666">[datetime]</text>
</g>
<!-- Receipt&#45;&gt;PurchaseOrder -->
<g id="edge2" class="edge">
<title>Receipt:purchaseOrderID&#45;&gt;PurchaseOrder:id</title>
<path fill="none" stroke="black" d="M451.62,-1765.01C426.74,-1755.85 446.93,-1709.15 462.86,-1677.2 474.54,-1653.76 497.83,-1664.64 509.5,-1641.2 528.76,-1602.53 553.71,-1544 510.5,-1544"/>
<polygon fill="black" stroke="black" points="451.64,-1765.01 460.83,-1771 456.92,-1765.83 461.19,-1766.5 461.19,-1766.5 461.19,-1766.5 456.92,-1765.83 462.22,-1762.1 451.64,-1765.01"/>
<text text-anchor="start" x="409.33" y="-1750.6" font-family="Arial" font-size="10.00">Source: PurchaseOrder</text>
</g>
</g>
</svg>
