<?xml version="1.0" encoding="UTF-8" standalone="no"?>
<!DOCTYPE svg PUBLIC "-//W3C//DTD SVG 1.1//EN"
 "http://www.w3.org/Graphics/SVG/1.1/DTD/svg11.dtd">
<!-- Generated by graphviz version 12.1.2 (20240928.0832)
 -->
<!-- Title: Receipt Pages: 1 -->
<svg width="646pt" height="2084pt"
 viewBox="0.00 0.00 646.24 2084.40" xmlns="http://www.w3.org/2000/svg" xmlns:xlink="http://www.w3.org/1999/xlink">
<g id="graph0" class="graph" transform="scale(1 1) rotate(0) translate(4 2080.4)">
<title>Receipt</title>
<polygon fill="white" stroke="none" points="-4,4 -4,-2080.4 642.24,-2080.4 642.24,4 -4,4"/>
<!-- Receipt -->
<g id="node1" class="node">
<title>Receipt</title>
<polygon fill="#efefef" stroke="none" points="199.39,-1282.2 199.39,-1317.8 413.37,-1317.8 413.37,-1282.2 199.39,-1282.2"/>
<polygon fill="none" stroke="black" points="199.39,-1282.2 199.39,-1317.8 413.37,-1317.8 413.37,-1282.2 199.39,-1282.2"/>
<text text-anchor="start" x="214.71" y="-1295.6" font-family="Arial Bold" font-size="18.00">Receipt</text>
<text text-anchor="start" x="269.68" y="-1295.6" font-family="Arial" font-size="14.00">    </text>
<text text-anchor="start" x="300.8" y="-1295.6" font-family="Arial" font-size="14.00" fill="#666666">[TailorDB.Type]</text>
<polygon fill="none" stroke="black" points="199.39,-1251.4 199.39,-1282.2 413.37,-1282.2 413.37,-1251.4 199.39,-1251.4"/>
<text text-anchor="start" x="206.39" y="-1263.6" font-family="Arial" font-size="14.00">id </text>
<text text-anchor="start" x="221.17" y="-1263.6" font-family="Arial" font-size="14.00" fill="#666666">[uuid]</text>
<polygon fill="none" stroke="black" points="199.39,-1220.6 199.39,-1251.4 413.37,-1251.4 413.37,-1220.6 199.39,-1220.6"/>
<text text-anchor="start" x="206.39" y="-1232.8" font-family="Arial" font-size="14.00">supplierID </text>
<text text-anchor="start" x="273.3" y="-1232.8" font-family="Arial" font-size="14.00" fill="#666666">[uuid]</text>
<polygon fill="none" stroke="black" points="199.39,-1189.8 199.39,-1220.6 413.37,-1220.6 413.37,-1189.8 199.39,-1189.8"/>
<text text-anchor="start" x="206.39" y="-1202" font-family="Arial" font-size="14.00">purchaseOrder </text>
<text text-anchor="start" x="303.66" y="-1202" font-family="Arial" font-size="14.00" fill="#666666">[PurchaseOrder]</text>
<polygon fill="none" stroke="black" points="199.39,-1159 199.39,-1189.8 413.37,-1189.8 413.37,-1159 199.39,-1159"/>
<text text-anchor="start" x="206.39" y="-1171.2" font-family="Arial" font-size="14.00">date </text>
<text text-anchor="start" x="237.52" y="-1171.2" font-family="Arial" font-size="14.00" fill="#666666">[datetime]</text>
<polygon fill="none" stroke="black" points="199.39,-1128.2 199.39,-1159 413.37,-1159 413.37,-1128.2 199.39,-1128.2"/>
<text text-anchor="start" x="206.39" y="-1140.4" font-family="Arial" font-size="14.00">receiptStatus </text>
<text text-anchor="start" x="291.99" y="-1140.4" font-family="Arial" font-size="14.00" fill="#666666">[enum]</text>
<polygon fill="none" stroke="black" points="199.39,-1097.4 199.39,-1128.2 413.37,-1128.2 413.37,-1097.4 199.39,-1097.4"/>
<text text-anchor="start" x="206.39" y="-1109.6" font-family="Arial" font-size="14.00">active </text>
<text text-anchor="start" x="246.85" y="-1109.6" font-family="Arial" font-size="14.00" fill="#666666">[boolean]</text>
<polygon fill="none" stroke="black" points="199.39,-1066.6 199.39,-1097.4 413.37,-1097.4 413.37,-1066.6 199.39,-1066.6"/>
<text text-anchor="start" x="206.39" y="-1078.8" font-family="Arial" font-size="14.00">createdAt </text>
<text text-anchor="start" x="270.2" y="-1078.8" font-family="Arial" font-size="14.00" fill="#666666">[datetime]</text>
<polygon fill="none" stroke="black" points="199.39,-1035.8 199.39,-1066.6 413.37,-1066.6 413.37,-1035.8 199.39,-1035.8"/>
<text text-anchor="start" x="206.39" y="-1048" font-family="Arial" font-size="14.00">receiptNumber </text>
<text text-anchor="start" x="302.09" y="-1048" font-family="Arial" font-size="14.00" fill="#666666">[string]</text>
<polygon fill="none" stroke="black" points="199.39,-1005 199.39,-1035.8 413.37,-1035.8 413.37,-1005 199.39,-1005"/>
<text text-anchor="start" x="206.39" y="-1017.2" font-family="Arial" font-size="14.00">supplier </text>
<text text-anchor="start" x="259.3" y="-1017.2" font-family="Arial" font-size="14.00" fill="#666666">[Contact]</text>
<polygon fill="none" stroke="black" points="199.39,-974.2 199.39,-1005 413.37,-1005 413.37,-974.2 199.39,-974.2"/>
<text text-anchor="start" x="206.39" y="-986.4" font-family="Arial" font-size="14.00">purchaseOrderID </text>
<text text-anchor="start" x="317.66" y="-986.4" font-family="Arial" font-size="14.00" fill="#666666">[uuid]</text>
<polygon fill="none" stroke="black" points="199.39,-943.4 199.39,-974.2 413.37,-974.2 413.37,-943.4 199.39,-943.4"/>
<text text-anchor="start" x="206.39" y="-955.6" font-family="Arial" font-size="14.00">updatedAt </text>
<text text-anchor="start" x="274.11" y="-955.6" font-family="Arial" font-size="14.00" fill="#666666">[datetime]</text>
<polygon fill="none" stroke="black" stroke-width="3" points="197.89,-941.9 197.89,-1319.3 414.87,-1319.3 414.87,-941.9 197.89,-941.9"/>
</g>
<!-- Contact -->
<g id="node3" class="node">
<title>Contact</title>
<polygon fill="#efefef" stroke="none" points="43.2,-720.8 43.2,-756.4 241.55,-756.4 241.55,-720.8 43.2,-720.8"/>
<polygon fill="none" stroke="black" points="43.2,-720.8 43.2,-756.4 241.55,-756.4 241.55,-720.8 43.2,-720.8"/>
<text text-anchor="start" x="50.2" y="-734.2" font-family="Arial Bold" font-size="18.00">Contact</text>
<text text-anchor="start" x="106.19" y="-734.2" font-family="Arial" font-size="14.00">    </text>
<text text-anchor="start" x="137.3" y="-734.2" font-family="Arial" font-size="14.00" fill="#666666">[TailorDB.Type]</text>
<polygon fill="none" stroke="black" points="43.2,-690 43.2,-720.8 241.55,-720.8 241.55,-690 43.2,-690"/>
<text text-anchor="start" x="50.2" y="-702.2" font-family="Arial" font-size="14.00">id </text>
<text text-anchor="start" x="64.99" y="-702.2" font-family="Arial" font-size="14.00" fill="#666666">[uuid]</text>
<polygon fill="none" stroke="black" points="43.2,-659.2 43.2,-690 241.55,-690 241.55,-659.2 43.2,-659.2"/>
<text text-anchor="start" x="50.2" y="-671.4" font-family="Arial" font-size="14.00">createdAt </text>
<text text-anchor="start" x="114.01" y="-671.4" font-family="Arial" font-size="14.00" fill="#666666">[datetime]</text>
<polygon fill="none" stroke="black" points="43.2,-628.4 43.2,-659.2 241.55,-659.2 241.55,-628.4 43.2,-628.4"/>
<text text-anchor="start" x="50.2" y="-640.6" font-family="Arial" font-size="14.00">province </text>
<text text-anchor="start" x="107.01" y="-640.6" font-family="Arial" font-size="14.00" fill="#666666">[string]</text>
<polygon fill="none" stroke="black" points="43.2,-597.6 43.2,-628.4 241.55,-628.4 241.55,-597.6 43.2,-597.6"/>
<text text-anchor="start" x="50.2" y="-609.8" font-family="Arial" font-size="14.00">countryCode </text>
<text text-anchor="start" x="133.47" y="-609.8" font-family="Arial" font-size="14.00" fill="#666666">[string]</text>
<polygon fill="none" stroke="black" points="43.2,-566.8 43.2,-597.6 241.55,-597.6 241.55,-566.8 43.2,-566.8"/>
<text text-anchor="start" x="50.2" y="-579" font-family="Arial" font-size="14.00">active </text>
<text text-anchor="start" x="90.66" y="-579" font-family="Arial" font-size="14.00" fill="#666666">[boolean]</text>
<polygon fill="none" stroke="black" points="43.2,-536 43.2,-566.8 241.55,-566.8 241.55,-536 43.2,-536"/>
<text text-anchor="start" x="50.2" y="-548.2" font-family="Arial" font-size="14.00">address2 </text>
<text text-anchor="start" x="111.68" y="-548.2" font-family="Arial" font-size="14.00" fill="#666666">[string]</text>
<polygon fill="none" stroke="black" points="43.2,-505.2 43.2,-536 241.55,-536 241.55,-505.2 43.2,-505.2"/>
<text text-anchor="start" x="50.2" y="-517.4" font-family="Arial" font-size="14.00">city </text>
<text text-anchor="start" x="75.09" y="-517.4" font-family="Arial" font-size="14.00" fill="#666666">[string]</text>
<polygon fill="none" stroke="black" points="43.2,-474.4 43.2,-505.2 241.55,-505.2 241.55,-474.4 43.2,-474.4"/>
<text text-anchor="start" x="50.2" y="-486.6" font-family="Arial" font-size="14.00">provinceCode </text>
<text text-anchor="start" x="140.48" y="-486.6" font-family="Arial" font-size="14.00" fill="#666666">[string]</text>
<polygon fill="none" stroke="black" points="43.2,-443.6 43.2,-474.4 241.55,-474.4 241.55,-443.6 43.2,-443.6"/>
<text text-anchor="start" x="50.2" y="-455.8" font-family="Arial" font-size="14.00">creditLimit </text>
<text text-anchor="start" x="117.88" y="-455.8" font-family="Arial" font-size="14.00" fill="#666666">[float]</text>
<polygon fill="none" stroke="black" points="43.2,-412.8 43.2,-443.6 241.55,-443.6 241.55,-412.8 43.2,-412.8"/>
<text text-anchor="start" x="50.2" y="-425" font-family="Arial" font-size="14.00">name </text>
<text text-anchor="start" x="89.11" y="-425" font-family="Arial" font-size="14.00" fill="#666666">[string]</text>
<polygon fill="none" stroke="black" points="43.2,-382 43.2,-412.8 241.55,-412.8 241.55,-382 43.2,-382"/>
<text text-anchor="start" x="50.2" y="-394.2" font-family="Arial" font-size="14.00">address1 </text>
<text text-anchor="start" x="111.68" y="-394.2" font-family="Arial" font-size="14.00" fill="#666666">[string]</text>
<polygon fill="none" stroke="black" points="43.2,-351.2 43.2,-382 241.55,-382 241.55,-351.2 43.2,-351.2"/>
<text text-anchor="start" x="50.2" y="-363.4" font-family="Arial" font-size="14.00">country </text>
<text text-anchor="start" x="100" y="-363.4" font-family="Arial" font-size="14.00" fill="#666666">[string]</text>
<polygon fill="none" stroke="black" points="43.2,-320.4 43.2,-351.2 241.55,-351.2 241.55,-320.4 43.2,-320.4"/>
<text text-anchor="start" x="50.2" y="-332.6" font-family="Arial" font-size="14.00">zip </text>
<text text-anchor="start" x="71.99" y="-332.6" font-family="Arial" font-size="14.00" fill="#666666">[string]</text>
<polygon fill="none" stroke="black" points="43.2,-289.6 43.2,-320.4 241.55,-320.4 241.55,-289.6 43.2,-289.6"/>
<text text-anchor="start" x="50.2" y="-301.8" font-family="Arial" font-size="14.00">company </text>
<text text-anchor="start" x="110.9" y="-301.8" font-family="Arial" font-size="14.00" fill="#666666">[string]</text>
<polygon fill="none" stroke="black" points="43.2,-258.8 43.2,-289.6 241.55,-289.6 241.55,-258.8 43.2,-258.8"/>
<text text-anchor="start" x="50.2" y="-271" font-family="Arial" font-size="14.00">openBalance </text>
<text text-anchor="start" x="135.83" y="-271" font-family="Arial" font-size="14.00" fill="#666666">[float]</text>
<polygon fill="none" stroke="black" points="43.2,-228 43.2,-258.8 241.55,-258.8 241.55,-228 43.2,-228"/>
<text text-anchor="start" x="50.2" y="-240.2" font-family="Arial" font-size="14.00">email </text>
<text text-anchor="start" x="87.54" y="-240.2" font-family="Arial" font-size="14.00" fill="#666666">[string]</text>
<polygon fill="none" stroke="black" points="43.2,-197.2 43.2,-228 241.55,-228 241.55,-197.2 43.2,-197.2"/>
<text text-anchor="start" x="50.2" y="-209.4" font-family="Arial" font-size="14.00">phone </text>
<text text-anchor="start" x="93.02" y="-209.4" font-family="Arial" font-size="14.00" fill="#666666">[string]</text>
<polygon fill="none" stroke="black" points="43.2,-166.4 43.2,-197.2 241.55,-197.2 241.55,-166.4 43.2,-166.4"/>
<text text-anchor="start" x="50.2" y="-178.6" font-family="Arial" font-size="14.00">updatedAt </text>
<text text-anchor="start" x="117.92" y="-178.6" font-family="Arial" font-size="14.00" fill="#666666">[datetime]</text>
<polygon fill="none" stroke="black" points="43.2,-135.6 43.2,-166.4 241.55,-166.4 241.55,-135.6 43.2,-135.6"/>
<text text-anchor="start" x="50.2" y="-147.8" font-family="Arial" font-size="14.00">quickBookCustomerId </text>
<text text-anchor="start" x="191.04" y="-147.8" font-family="Arial" font-size="14.00" fill="#666666">[string]</text>
<polygon fill="none" stroke="black" points="43.2,-104.8 43.2,-135.6 241.55,-135.6 241.55,-104.8 43.2,-104.8"/>
<text text-anchor="start" x="50.2" y="-117" font-family="Arial" font-size="14.00">availableCredit </text>
<text text-anchor="start" x="146.7" y="-117" font-family="Arial" font-size="14.00" fill="#666666">[float]</text>
</g>
<!-- Receipt&#45;&gt;Contact -->
<g id="edge2" class="edge">
<title>Receipt:supplierID&#45;&gt;Contact:id</title>
<path fill="none" stroke="black" d="M188.24,-1235.69C53.42,-1227.05 169.4,-1041.16 199.39,-897.2 209.02,-850.94 231.74,-845.82 241.55,-799.6 250.25,-758.64 284.42,-705.4 242.55,-705.4"/>
<polygon fill="black" stroke="black" points="188.06,-1235.68 197.91,-1240.49 193.39,-1235.85 197.72,-1235.98 197.72,-1235.98 197.72,-1235.98 193.39,-1235.85 198.19,-1231.49 188.06,-1235.68"/>
<text text-anchor="start" x="78" y="-1246" font-family="Arial" font-size="10.00">ForeignKeyType: Contact</text>
</g>
<!-- PurchaseOrder -->
<g id="node4" class="node">
<title>PurchaseOrder</title>
<polygon fill="#efefef" stroke="none" points="345.72,-782.4 345.72,-818 595.04,-818 595.04,-782.4 345.72,-782.4"/>
<polygon fill="none" stroke="black" points="345.72,-782.4 345.72,-818 595.04,-818 595.04,-782.4 345.72,-782.4"/>
<text text-anchor="start" x="352.72" y="-795.8" font-family="Arial Bold" font-size="18.00">PurchaseOrder</text>
<text text-anchor="start" x="459.67" y="-795.8" font-family="Arial" font-size="14.00">    </text>
<text text-anchor="start" x="490.79" y="-795.8" font-family="Arial" font-size="14.00" fill="#666666">[TailorDB.Type]</text>
<polygon fill="none" stroke="black" points="345.72,-751.6 345.72,-782.4 595.04,-782.4 595.04,-751.6 345.72,-751.6"/>
<text text-anchor="start" x="352.72" y="-763.8" font-family="Arial" font-size="14.00">id </text>
<text text-anchor="start" x="367.5" y="-763.8" font-family="Arial" font-size="14.00" fill="#666666">[uuid]</text>
<polygon fill="none" stroke="black" points="345.72,-720.8 345.72,-751.6 595.04,-751.6 595.04,-720.8 345.72,-720.8"/>
<text text-anchor="start" x="352.72" y="-733" font-family="Arial" font-size="14.00">dueDate </text>
<text text-anchor="start" x="409.54" y="-733" font-family="Arial" font-size="14.00" fill="#666666">[datetime]</text>
<polygon fill="none" stroke="black" points="345.72,-690 345.72,-720.8 595.04,-720.8 595.04,-690 345.72,-690"/>
<text text-anchor="start" x="352.72" y="-702.2" font-family="Arial" font-size="14.00">active </text>
<text text-anchor="start" x="393.18" y="-702.2" font-family="Arial" font-size="14.00" fill="#666666">[boolean]</text>
<polygon fill="none" stroke="black" points="345.72,-659.2 345.72,-690 595.04,-690 595.04,-659.2 345.72,-659.2"/>
<text text-anchor="start" x="352.72" y="-671.4" font-family="Arial" font-size="14.00">documentNumber </text>
<text text-anchor="start" x="467.88" y="-671.4" font-family="Arial" font-size="14.00" fill="#666666">[string]</text>
<polygon fill="none" stroke="black" points="345.72,-628.4 345.72,-659.2 595.04,-659.2 595.04,-628.4 345.72,-628.4"/>
<text text-anchor="start" x="352.72" y="-640.6" font-family="Arial" font-size="14.00">supplierID </text>
<text text-anchor="start" x="419.63" y="-640.6" font-family="Arial" font-size="14.00" fill="#666666">[uuid]</text>
<polygon fill="none" stroke="black" points="345.72,-597.6 345.72,-628.4 595.04,-628.4 595.04,-597.6 345.72,-597.6"/>
<text text-anchor="start" x="352.72" y="-609.8" font-family="Arial" font-size="14.00">date </text>
<text text-anchor="start" x="383.85" y="-609.8" font-family="Arial" font-size="14.00" fill="#666666">[datetime]</text>
<polygon fill="none" stroke="black" points="345.72,-566.8 345.72,-597.6 595.04,-597.6 595.04,-566.8 345.72,-566.8"/>
<text text-anchor="start" x="352.72" y="-579" font-family="Arial" font-size="14.00">billToID </text>
<text text-anchor="start" x="404.06" y="-579" font-family="Arial" font-size="14.00" fill="#666666">[uuid]</text>
<polygon fill="none" stroke="black" points="345.72,-536 345.72,-566.8 595.04,-566.8 595.04,-536 345.72,-536"/>
<text text-anchor="start" x="352.72" y="-548.2" font-family="Arial" font-size="14.00">shipTo </text>
<text text-anchor="start" x="398.63" y="-548.2" font-family="Arial" font-size="14.00" fill="#666666">[Contact]</text>
<polygon fill="none" stroke="black" points="345.72,-505.2 345.72,-536 595.04,-536 595.04,-505.2 345.72,-505.2"/>
<text text-anchor="start" x="352.72" y="-517.4" font-family="Arial" font-size="14.00">shipVia </text>
<text text-anchor="start" x="402.52" y="-517.4" font-family="Arial" font-size="14.00" fill="#666666">[string]</text>
<polygon fill="none" stroke="black" points="345.72,-474.4 345.72,-505.2 595.04,-505.2 595.04,-474.4 345.72,-474.4"/>
<text text-anchor="start" x="352.72" y="-486.6" font-family="Arial" font-size="14.00">shippingInstructions </text>
<text text-anchor="start" x="480.34" y="-486.6" font-family="Arial" font-size="14.00" fill="#666666">[string]</text>
<polygon fill="none" stroke="black" points="345.72,-443.6 345.72,-474.4 595.04,-474.4 595.04,-443.6 345.72,-443.6"/>
<text text-anchor="start" x="352.72" y="-455.8" font-family="Arial" font-size="14.00">pulledBy </text>
<text text-anchor="start" x="410.31" y="-455.8" font-family="Arial" font-size="14.00" fill="#666666">[string]</text>
<polygon fill="none" stroke="black" points="345.72,-412.8 345.72,-443.6 595.04,-443.6 595.04,-412.8 345.72,-412.8"/>
<text text-anchor="start" x="352.72" y="-425" font-family="Arial" font-size="14.00">supplier </text>
<text text-anchor="start" x="405.63" y="-425" font-family="Arial" font-size="14.00" fill="#666666">[Contact]</text>
<polygon fill="none" stroke="black" points="345.72,-382 345.72,-412.8 595.04,-412.8 595.04,-382 345.72,-382"/>
<text text-anchor="start" x="352.72" y="-394.2" font-family="Arial" font-size="14.00">billTo </text>
<text text-anchor="start" x="390.06" y="-394.2" font-family="Arial" font-size="14.00" fill="#666666">[Contact]</text>
<polygon fill="none" stroke="black" points="345.72,-351.2 345.72,-382 595.04,-382 595.04,-351.2 345.72,-351.2"/>
<text text-anchor="start" x="352.72" y="-363.4" font-family="Arial" font-size="14.00">trackingNumber </text>
<text text-anchor="start" x="455.42" y="-363.4" font-family="Arial" font-size="14.00" fill="#666666">[string]</text>
<polygon fill="none" stroke="black" points="345.72,-320.4 345.72,-351.2 595.04,-351.2 595.04,-320.4 345.72,-320.4"/>
<text text-anchor="start" x="352.72" y="-332.6" font-family="Arial" font-size="14.00">exFactoryDate </text>
<text text-anchor="start" x="447.64" y="-332.6" font-family="Arial" font-size="14.00" fill="#666666">[datetime]</text>
<polygon fill="none" stroke="black" points="345.72,-289.6 345.72,-320.4 595.04,-320.4 595.04,-289.6 345.72,-289.6"/>
<text text-anchor="start" x="352.72" y="-301.8" font-family="Arial" font-size="14.00">updatedAt </text>
<text text-anchor="start" x="420.44" y="-301.8" font-family="Arial" font-size="14.00" fill="#666666">[datetime]</text>
<polygon fill="none" stroke="black" points="345.72,-258.8 345.72,-289.6 595.04,-289.6 595.04,-258.8 345.72,-258.8"/>
<text text-anchor="start" x="352.72" y="-271" font-family="Arial" font-size="14.00">createdAt </text>
<text text-anchor="start" x="416.53" y="-271" font-family="Arial" font-size="14.00" fill="#666666">[datetime]</text>
<polygon fill="none" stroke="black" points="345.72,-228 345.72,-258.8 595.04,-258.8 595.04,-228 345.72,-228"/>
<text text-anchor="start" x="352.72" y="-240.2" font-family="Arial" font-size="14.00">shipToID </text>
<text text-anchor="start" x="412.63" y="-240.2" font-family="Arial" font-size="14.00" fill="#666666">[uuid]</text>
<polygon fill="none" stroke="black" points="345.72,-197.2 345.72,-228 595.04,-228 595.04,-197.2 345.72,-197.2"/>
<text text-anchor="start" x="352.72" y="-209.4" font-family="Arial" font-size="14.00">terms </text>
<text text-anchor="start" x="391.61" y="-209.4" font-family="Arial" font-size="14.00" fill="#666666">[string]</text>
<polygon fill="none" stroke="black" points="345.72,-166.4 345.72,-197.2 595.04,-197.2 595.04,-166.4 345.72,-166.4"/>
<text text-anchor="start" x="352.72" y="-178.6" font-family="Arial" font-size="14.00">notes </text>
<text text-anchor="start" x="390.85" y="-178.6" font-family="Arial" font-size="14.00" fill="#666666">[string]</text>
<polygon fill="none" stroke="black" points="345.72,-135.6 345.72,-166.4 595.04,-166.4 595.04,-135.6 345.72,-135.6"/>
<text text-anchor="start" x="352.72" y="-147.8" font-family="Arial" font-size="14.00">approvedBy </text>
<text text-anchor="start" x="431.32" y="-147.8" font-family="Arial" font-size="14.00" fill="#666666">[string]</text>
<polygon fill="none" stroke="black" points="345.72,-104.8 345.72,-135.6 595.04,-135.6 595.04,-104.8 345.72,-104.8"/>
<text text-anchor="start" x="352.72" y="-117" font-family="Arial" font-size="14.00">receivedBy </text>
<text text-anchor="start" x="425.86" y="-117" font-family="Arial" font-size="14.00" fill="#666666">[string]</text>
<polygon fill="none" stroke="black" points="345.72,-74 345.72,-104.8 595.04,-104.8 595.04,-74 345.72,-74"/>
<text text-anchor="start" x="352.72" y="-86.2" font-family="Arial" font-size="14.00">shippingContactPhone </text>
<text text-anchor="start" x="497.49" y="-86.2" font-family="Arial" font-size="14.00" fill="#666666">[string]</text>
<polygon fill="none" stroke="black" points="345.72,-43.2 345.72,-74 595.04,-74 595.04,-43.2 345.72,-43.2"/>
<text text-anchor="start" x="352.72" y="-55.4" font-family="Arial" font-size="14.00">shippingContactName </text>
<text text-anchor="start" x="494.35" y="-55.4" font-family="Arial" font-size="14.00" fill="#666666">[string]</text>
</g>
<!-- Receipt&#45;&gt;PurchaseOrder -->
<g id="edge3" class="edge">
<title>Receipt:purchaseOrderID&#45;&gt;PurchaseOrder:id</title>
<path fill="none" stroke="black" d="M424.69,-988.03C451.38,-978.62 432.62,-928.86 413.37,-897.2 395.67,-868.1 363.41,-890.3 345.72,-861.2 323.97,-825.42 302.85,-767 344.72,-767"/>
<polygon fill="black" stroke="black" points="424.58,-988.05 414.02,-985.1 419.31,-988.85 415.03,-989.5 415.03,-989.5 415.03,-989.5 419.31,-988.85 415.37,-994 424.58,-988.05"/>
<text text-anchor="start" x="421.37" y="-999.6" font-family="Arial" font-size="10.00">Source: PurchaseOrder</text>
</g>
<!-- ReceiptLineItem -->
<g id="node2" class="node">
<title>ReceiptLineItem</title>
<polygon fill="#efefef" stroke="none" points="174.72,-1997.6 174.72,-2033.2 438.03,-2033.2 438.03,-1997.6 174.72,-1997.6"/>
<polygon fill="none" stroke="black" points="174.72,-1997.6 174.72,-2033.2 438.03,-2033.2 438.03,-1997.6 174.72,-1997.6"/>
<text text-anchor="start" x="181.72" y="-2011" font-family="Arial Bold" font-size="18.00">ReceiptLineItem</text>
<text text-anchor="start" x="302.67" y="-2011" font-family="Arial" font-size="14.00">    </text>
<text text-anchor="start" x="333.78" y="-2011" font-family="Arial" font-size="14.00" fill="#666666">[TailorDB.Type]</text>
<polygon fill="none" stroke="black" points="174.72,-1966.8 174.72,-1997.6 438.03,-1997.6 438.03,-1966.8 174.72,-1966.8"/>
<text text-anchor="start" x="181.72" y="-1979" font-family="Arial" font-size="14.00">id </text>
<text text-anchor="start" x="196.51" y="-1979" font-family="Arial" font-size="14.00" fill="#666666">[uuid]</text>
<polygon fill="none" stroke="black" points="174.72,-1936 174.72,-1966.8 438.03,-1966.8 438.03,-1936 174.72,-1936"/>
<text text-anchor="start" x="181.72" y="-1948.2" font-family="Arial" font-size="14.00">receiptID </text>
<text text-anchor="start" x="241.63" y="-1948.2" font-family="Arial" font-size="14.00" fill="#666666">[uuid]</text>
<polygon fill="none" stroke="black" points="174.72,-1905.2 174.72,-1936 438.03,-1936 438.03,-1905.2 174.72,-1905.2"/>
<text text-anchor="start" x="181.72" y="-1917.4" font-family="Arial" font-size="14.00">variantID </text>
<text text-anchor="start" x="241.63" y="-1917.4" font-family="Arial" font-size="14.00" fill="#666666">[uuid]</text>
<polygon fill="none" stroke="black" points="174.72,-1874.4 174.72,-1905.2 438.03,-1905.2 438.03,-1874.4 174.72,-1874.4"/>
<text text-anchor="start" x="181.72" y="-1886.6" font-family="Arial" font-size="14.00">subtotalUnitCost </text>
<text text-anchor="start" x="288.33" y="-1886.6" font-family="Arial" font-size="14.00" fill="#666666">[float]</text>
<polygon fill="none" stroke="black" points="174.72,-1843.6 174.72,-1874.4 438.03,-1874.4 438.03,-1843.6 174.72,-1843.6"/>
<text text-anchor="start" x="181.72" y="-1855.8" font-family="Arial" font-size="14.00">unitCostPoolAllocation </text>
<text text-anchor="start" x="325.69" y="-1855.8" font-family="Arial" font-size="14.00" fill="#666666">[float]</text>
<polygon fill="none" stroke="black" points="174.72,-1812.8 174.72,-1843.6 438.03,-1843.6 438.03,-1812.8 174.72,-1812.8"/>
<text text-anchor="start" x="181.72" y="-1825" font-family="Arial" font-size="14.00">active </text>
<text text-anchor="start" x="222.18" y="-1825" font-family="Arial" font-size="14.00" fill="#666666">[boolean]</text>
<polygon fill="none" stroke="black" points="174.72,-1782 174.72,-1812.8 438.03,-1812.8 438.03,-1782 174.72,-1782"/>
<text text-anchor="start" x="181.72" y="-1794.2" font-family="Arial" font-size="14.00">receipt </text>
<text text-anchor="start" x="227.63" y="-1794.2" font-family="Arial" font-size="14.00" fill="#666666">[Receipt]</text>
<polygon fill="none" stroke="black" points="174.72,-1751.2 174.72,-1782 438.03,-1782 438.03,-1751.2 174.72,-1751.2"/>
<text text-anchor="start" x="181.72" y="-1763.4" font-family="Arial" font-size="14.00">variant </text>
<text text-anchor="start" x="227.63" y="-1763.4" font-family="Arial" font-size="14.00" fill="#666666">[ProductVariant]</text>
<polygon fill="none" stroke="black" points="174.72,-1720.4 174.72,-1751.2 438.03,-1751.2 438.03,-1720.4 174.72,-1720.4"/>
<text text-anchor="start" x="181.72" y="-1732.6" font-family="Arial" font-size="14.00">quantity </text>
<text text-anchor="start" x="234.64" y="-1732.6" font-family="Arial" font-size="14.00" fill="#666666">[float]</text>
<polygon fill="none" stroke="black" points="174.72,-1689.6 174.72,-1720.4 438.03,-1720.4 438.03,-1689.6 174.72,-1689.6"/>
<text text-anchor="start" x="181.72" y="-1701.8" font-family="Arial" font-size="14.00">subtotalCost </text>
<text text-anchor="start" x="263.43" y="-1701.8" font-family="Arial" font-size="14.00" fill="#666666">[float]</text>
<polygon fill="none" stroke="black" points="174.72,-1658.8 174.72,-1689.6 438.03,-1689.6 438.03,-1658.8 174.72,-1658.8"/>
<text text-anchor="start" x="181.72" y="-1671" font-family="Arial" font-size="14.00">totalUnitCost </text>
<text text-anchor="start" x="265.75" y="-1671" font-family="Arial" font-size="14.00" fill="#666666">[float]</text>
<polygon fill="none" stroke="black" points="174.72,-1628 174.72,-1658.8 438.03,-1658.8 438.03,-1628 174.72,-1628"/>
<text text-anchor="start" x="181.72" y="-1640.2" font-family="Arial" font-size="14.00">receivedAt </text>
<text text-anchor="start" x="251.75" y="-1640.2" font-family="Arial" font-size="14.00" fill="#666666">[datetime]</text>
<polygon fill="none" stroke="black" points="174.72,-1597.2 174.72,-1628 438.03,-1628 438.03,-1597.2 174.72,-1597.2"/>
<text text-anchor="start" x="181.72" y="-1609.4" font-family="Arial" font-size="14.00">createdAt </text>
<text text-anchor="start" x="245.53" y="-1609.4" font-family="Arial" font-size="14.00" fill="#666666">[datetime]</text>
<polygon fill="none" stroke="black" points="174.72,-1566.4 174.72,-1597.2 438.03,-1597.2 438.03,-1566.4 174.72,-1566.4"/>
<text text-anchor="start" x="181.72" y="-1578.6" font-family="Arial" font-size="14.00">updatedAt </text>
<text text-anchor="start" x="249.44" y="-1578.6" font-family="Arial" font-size="14.00" fill="#666666">[datetime]</text>
<polygon fill="none" stroke="black" points="174.72,-1535.6 174.72,-1566.4 438.03,-1566.4 438.03,-1535.6 174.72,-1535.6"/>
<text text-anchor="start" x="181.72" y="-1547.8" font-family="Arial" font-size="14.00">cubicMeters </text>
<text text-anchor="start" x="261.08" y="-1547.8" font-family="Arial" font-size="14.00" fill="#666666">[float]</text>
<polygon fill="none" stroke="black" points="174.72,-1504.8 174.72,-1535.6 438.03,-1535.6 438.03,-1504.8 174.72,-1504.8"/>
<text text-anchor="start" x="181.72" y="-1517" font-family="Arial" font-size="14.00">costPools </text>
<text text-anchor="start" x="246.31" y="-1517" font-family="Arial" font-size="14.00" fill="#666666">[Array\&lt;nested\&gt;]</text>
<polygon fill="none" stroke="black" points="174.72,-1474 174.72,-1504.8 438.03,-1504.8 438.03,-1474 174.72,-1474"/>
<text text-anchor="start" x="181.72" y="-1486.2" font-family="Arial" font-size="14.00">totalCostPoolAllocation </text>
<text text-anchor="start" x="329.58" y="-1486.2" font-family="Arial" font-size="14.00" fill="#666666">[float]</text>
<polygon fill="none" stroke="black" points="174.72,-1443.2 174.72,-1474 438.03,-1474 438.03,-1443.2 174.72,-1443.2"/>
<text text-anchor="start" x="181.72" y="-1455.4" font-family="Arial" font-size="14.00">receiptStatus </text>
<text text-anchor="start" x="267.32" y="-1455.4" font-family="Arial" font-size="14.00" fill="#666666">[enum]</text>
</g>
<!-- ReceiptLineItem&#45;&gt;Receipt -->
<g id="edge1" class="edge">
<title>ReceiptLineItem:receiptID&#45;&gt;Receipt:id</title>
<path fill="none" stroke="black" d="M449.02,-1950.38C590.09,-1920.99 563.18,-1266.8 414.37,-1266.8"/>
<polygon fill="black" stroke="black" points="449.31,-1950.35 438.91,-1946.89 444.01,-1950.89 439.7,-1951.33 439.7,-1951.33 439.7,-1951.33 444.01,-1950.89 439.82,-1955.84 449.31,-1950.35"/>
<text text-anchor="start" x="446.03" y="-1961.4" font-family="Arial" font-size="10.00">Source: Receipt</text>
</g>
</g>
</svg>
