<?xml version="1.0" encoding="UTF-8" standalone="no"?>
<!DOCTYPE svg PUBLIC "-//W3C//DTD SVG 1.1//EN"
 "http://www.w3.org/Graphics/SVG/1.1/DTD/svg11.dtd">
<!-- Generated by graphviz version 12.1.2 (20240928.0832)
 -->
<!-- Title: Receipt Pages: 1 -->
<svg width="646pt" height="2146pt"
 viewBox="0.00 0.00 646.24 2146.00" xmlns="http://www.w3.org/2000/svg" xmlns:xlink="http://www.w3.org/1999/xlink">
<g id="graph0" class="graph" transform="scale(1 1) rotate(0) translate(4 2142)">
<title>Receipt</title>
<polygon fill="white" stroke="none" points="-4,4 -4,-2142 642.24,-2142 642.24,4 -4,4"/>
<!-- Receipt -->
<g id="node1" class="node">
<title>Receipt</title>
<polygon fill="#efefef" stroke="none" points="224.87,-1282.2 224.87,-1317.8 438.85,-1317.8 438.85,-1282.2 224.87,-1282.2"/>
<polygon fill="none" stroke="black" points="224.87,-1282.2 224.87,-1317.8 438.85,-1317.8 438.85,-1282.2 224.87,-1282.2"/>
<text text-anchor="start" x="240.19" y="-1295.6" font-family="Arial Bold" font-size="18.00">Receipt</text>
<text text-anchor="start" x="295.16" y="-1295.6" font-family="Arial" font-size="14.00">    </text>
<text text-anchor="start" x="326.28" y="-1295.6" font-family="Arial" font-size="14.00" fill="#666666">[TailorDB.Type]</text>
<polygon fill="none" stroke="black" points="224.87,-1251.4 224.87,-1282.2 438.85,-1282.2 438.85,-1251.4 224.87,-1251.4"/>
<text text-anchor="start" x="231.87" y="-1263.6" font-family="Arial" font-size="14.00">id </text>
<text text-anchor="start" x="246.66" y="-1263.6" font-family="Arial" font-size="14.00" fill="#666666">[uuid]</text>
<polygon fill="none" stroke="black" points="224.87,-1220.6 224.87,-1251.4 438.85,-1251.4 438.85,-1220.6 224.87,-1220.6"/>
<text text-anchor="start" x="231.87" y="-1232.8" font-family="Arial" font-size="14.00">receiptNumber </text>
<text text-anchor="start" x="327.57" y="-1232.8" font-family="Arial" font-size="14.00" fill="#666666">[string]</text>
<polygon fill="none" stroke="black" points="224.87,-1189.8 224.87,-1220.6 438.85,-1220.6 438.85,-1189.8 224.87,-1189.8"/>
<text text-anchor="start" x="231.87" y="-1202" font-family="Arial" font-size="14.00">purchaseOrderID </text>
<text text-anchor="start" x="343.14" y="-1202" font-family="Arial" font-size="14.00" fill="#666666">[uuid]</text>
<polygon fill="none" stroke="black" points="224.87,-1159 224.87,-1189.8 438.85,-1189.8 438.85,-1159 224.87,-1159"/>
<text text-anchor="start" x="231.87" y="-1171.2" font-family="Arial" font-size="14.00">active </text>
<text text-anchor="start" x="272.33" y="-1171.2" font-family="Arial" font-size="14.00" fill="#666666">[boolean]</text>
<polygon fill="none" stroke="black" points="224.87,-1128.2 224.87,-1159 438.85,-1159 438.85,-1128.2 224.87,-1128.2"/>
<text text-anchor="start" x="231.87" y="-1140.4" font-family="Arial" font-size="14.00">createdAt </text>
<text text-anchor="start" x="295.68" y="-1140.4" font-family="Arial" font-size="14.00" fill="#666666">[datetime]</text>
<polygon fill="none" stroke="black" points="224.87,-1097.4 224.87,-1128.2 438.85,-1128.2 438.85,-1097.4 224.87,-1097.4"/>
<text text-anchor="start" x="231.87" y="-1109.6" font-family="Arial" font-size="14.00">purchaseOrder </text>
<text text-anchor="start" x="329.14" y="-1109.6" font-family="Arial" font-size="14.00" fill="#666666">[PurchaseOrder]</text>
<polygon fill="none" stroke="black" points="224.87,-1066.6 224.87,-1097.4 438.85,-1097.4 438.85,-1066.6 224.87,-1066.6"/>
<text text-anchor="start" x="231.87" y="-1078.8" font-family="Arial" font-size="14.00">date </text>
<text text-anchor="start" x="263.01" y="-1078.8" font-family="Arial" font-size="14.00" fill="#666666">[datetime]</text>
<polygon fill="none" stroke="black" points="224.87,-1035.8 224.87,-1066.6 438.85,-1066.6 438.85,-1035.8 224.87,-1035.8"/>
<text text-anchor="start" x="231.87" y="-1048" font-family="Arial" font-size="14.00">receiptStatus </text>
<text text-anchor="start" x="317.47" y="-1048" font-family="Arial" font-size="14.00" fill="#666666">[enum]</text>
<polygon fill="none" stroke="black" points="224.87,-1005 224.87,-1035.8 438.85,-1035.8 438.85,-1005 224.87,-1005"/>
<text text-anchor="start" x="231.87" y="-1017.2" font-family="Arial" font-size="14.00">updatedAt </text>
<text text-anchor="start" x="299.59" y="-1017.2" font-family="Arial" font-size="14.00" fill="#666666">[datetime]</text>
<polygon fill="none" stroke="black" points="224.87,-974.2 224.87,-1005 438.85,-1005 438.85,-974.2 224.87,-974.2"/>
<text text-anchor="start" x="231.87" y="-986.4" font-family="Arial" font-size="14.00">supplierID </text>
<text text-anchor="start" x="298.79" y="-986.4" font-family="Arial" font-size="14.00" fill="#666666">[uuid]</text>
<polygon fill="none" stroke="black" points="224.87,-943.4 224.87,-974.2 438.85,-974.2 438.85,-943.4 224.87,-943.4"/>
<text text-anchor="start" x="231.87" y="-955.6" font-family="Arial" font-size="14.00">supplier </text>
<text text-anchor="start" x="284.79" y="-955.6" font-family="Arial" font-size="14.00" fill="#666666">[Contact]</text>
<polygon fill="none" stroke="black" stroke-width="3" points="223.37,-941.9 223.37,-1319.3 440.35,-1319.3 440.35,-941.9 223.37,-941.9"/>
</g>
<!-- PurchaseOrder -->
<g id="node3" class="node">
<title>PurchaseOrder</title>
<polygon fill="#efefef" stroke="none" points="43.2,-782.4 43.2,-818 292.52,-818 292.52,-782.4 43.2,-782.4"/>
<polygon fill="none" stroke="black" points="43.2,-782.4 43.2,-818 292.52,-818 292.52,-782.4 43.2,-782.4"/>
<text text-anchor="start" x="50.2" y="-795.8" font-family="Arial Bold" font-size="18.00">PurchaseOrder</text>
<text text-anchor="start" x="157.15" y="-795.8" font-family="Arial" font-size="14.00">    </text>
<text text-anchor="start" x="188.27" y="-795.8" font-family="Arial" font-size="14.00" fill="#666666">[TailorDB.Type]</text>
<polygon fill="none" stroke="black" points="43.2,-751.6 43.2,-782.4 292.52,-782.4 292.52,-751.6 43.2,-751.6"/>
<text text-anchor="start" x="50.2" y="-763.8" font-family="Arial" font-size="14.00">id </text>
<text text-anchor="start" x="64.99" y="-763.8" font-family="Arial" font-size="14.00" fill="#666666">[uuid]</text>
<polygon fill="none" stroke="black" points="43.2,-720.8 43.2,-751.6 292.52,-751.6 292.52,-720.8 43.2,-720.8"/>
<text text-anchor="start" x="50.2" y="-733" font-family="Arial" font-size="14.00">approvedBy </text>
<text text-anchor="start" x="128.81" y="-733" font-family="Arial" font-size="14.00" fill="#666666">[string]</text>
<polygon fill="none" stroke="black" points="43.2,-690 43.2,-720.8 292.52,-720.8 292.52,-690 43.2,-690"/>
<text text-anchor="start" x="50.2" y="-702.2" font-family="Arial" font-size="14.00">exFactoryDate </text>
<text text-anchor="start" x="145.12" y="-702.2" font-family="Arial" font-size="14.00" fill="#666666">[datetime]</text>
<polygon fill="none" stroke="black" points="43.2,-659.2 43.2,-690 292.52,-690 292.52,-659.2 43.2,-659.2"/>
<text text-anchor="start" x="50.2" y="-671.4" font-family="Arial" font-size="14.00">terms </text>
<text text-anchor="start" x="89.09" y="-671.4" font-family="Arial" font-size="14.00" fill="#666666">[string]</text>
<polygon fill="none" stroke="black" points="43.2,-628.4 43.2,-659.2 292.52,-659.2 292.52,-628.4 43.2,-628.4"/>
<text text-anchor="start" x="50.2" y="-640.6" font-family="Arial" font-size="14.00">shippingInstructions </text>
<text text-anchor="start" x="177.83" y="-640.6" font-family="Arial" font-size="14.00" fill="#666666">[string]</text>
<polygon fill="none" stroke="black" points="43.2,-597.6 43.2,-628.4 292.52,-628.4 292.52,-597.6 43.2,-597.6"/>
<text text-anchor="start" x="50.2" y="-609.8" font-family="Arial" font-size="14.00">supplierID </text>
<text text-anchor="start" x="117.12" y="-609.8" font-family="Arial" font-size="14.00" fill="#666666">[uuid]</text>
<polygon fill="none" stroke="black" points="43.2,-566.8 43.2,-597.6 292.52,-597.6 292.52,-566.8 43.2,-566.8"/>
<text text-anchor="start" x="50.2" y="-579" font-family="Arial" font-size="14.00">supplier </text>
<text text-anchor="start" x="103.12" y="-579" font-family="Arial" font-size="14.00" fill="#666666">[Contact]</text>
<polygon fill="none" stroke="black" points="43.2,-536 43.2,-566.8 292.52,-566.8 292.52,-536 43.2,-536"/>
<text text-anchor="start" x="50.2" y="-548.2" font-family="Arial" font-size="14.00">date </text>
<text text-anchor="start" x="81.34" y="-548.2" font-family="Arial" font-size="14.00" fill="#666666">[datetime]</text>
<polygon fill="none" stroke="black" points="43.2,-505.2 43.2,-536 292.52,-536 292.52,-505.2 43.2,-505.2"/>
<text text-anchor="start" x="50.2" y="-517.4" font-family="Arial" font-size="14.00">shippingContactPhone </text>
<text text-anchor="start" x="194.97" y="-517.4" font-family="Arial" font-size="14.00" fill="#666666">[string]</text>
<polygon fill="none" stroke="black" points="43.2,-474.4 43.2,-505.2 292.52,-505.2 292.52,-474.4 43.2,-474.4"/>
<text text-anchor="start" x="50.2" y="-486.6" font-family="Arial" font-size="14.00">shipTo </text>
<text text-anchor="start" x="96.11" y="-486.6" font-family="Arial" font-size="14.00" fill="#666666">[Contact]</text>
<polygon fill="none" stroke="black" points="43.2,-443.6 43.2,-474.4 292.52,-474.4 292.52,-443.6 43.2,-443.6"/>
<text text-anchor="start" x="50.2" y="-455.8" font-family="Arial" font-size="14.00">pulledBy </text>
<text text-anchor="start" x="107.79" y="-455.8" font-family="Arial" font-size="14.00" fill="#666666">[string]</text>
<polygon fill="none" stroke="black" points="43.2,-412.8 43.2,-443.6 292.52,-443.6 292.52,-412.8 43.2,-412.8"/>
<text text-anchor="start" x="50.2" y="-425" font-family="Arial" font-size="14.00">receivedBy </text>
<text text-anchor="start" x="123.34" y="-425" font-family="Arial" font-size="14.00" fill="#666666">[string]</text>
<polygon fill="none" stroke="black" points="43.2,-382 43.2,-412.8 292.52,-412.8 292.52,-382 43.2,-382"/>
<text text-anchor="start" x="50.2" y="-394.2" font-family="Arial" font-size="14.00">active </text>
<text text-anchor="start" x="90.66" y="-394.2" font-family="Arial" font-size="14.00" fill="#666666">[boolean]</text>
<polygon fill="none" stroke="black" points="43.2,-351.2 43.2,-382 292.52,-382 292.52,-351.2 43.2,-351.2"/>
<text text-anchor="start" x="50.2" y="-363.4" font-family="Arial" font-size="14.00">billToID </text>
<text text-anchor="start" x="101.54" y="-363.4" font-family="Arial" font-size="14.00" fill="#666666">[uuid]</text>
<polygon fill="none" stroke="black" points="43.2,-320.4 43.2,-351.2 292.52,-351.2 292.52,-320.4 43.2,-320.4"/>
<text text-anchor="start" x="50.2" y="-332.6" font-family="Arial" font-size="14.00">billTo </text>
<text text-anchor="start" x="87.54" y="-332.6" font-family="Arial" font-size="14.00" fill="#666666">[Contact]</text>
<polygon fill="none" stroke="black" points="43.2,-289.6 43.2,-320.4 292.52,-320.4 292.52,-289.6 43.2,-289.6"/>
<text text-anchor="start" x="50.2" y="-301.8" font-family="Arial" font-size="14.00">shipToID </text>
<text text-anchor="start" x="110.11" y="-301.8" font-family="Arial" font-size="14.00" fill="#666666">[uuid]</text>
<polygon fill="none" stroke="black" points="43.2,-258.8 43.2,-289.6 292.52,-289.6 292.52,-258.8 43.2,-258.8"/>
<text text-anchor="start" x="50.2" y="-271" font-family="Arial" font-size="14.00">shippingContactName </text>
<text text-anchor="start" x="191.83" y="-271" font-family="Arial" font-size="14.00" fill="#666666">[string]</text>
<polygon fill="none" stroke="black" points="43.2,-228 43.2,-258.8 292.52,-258.8 292.52,-228 43.2,-228"/>
<text text-anchor="start" x="50.2" y="-240.2" font-family="Arial" font-size="14.00">dueDate </text>
<text text-anchor="start" x="107.02" y="-240.2" font-family="Arial" font-size="14.00" fill="#666666">[datetime]</text>
<polygon fill="none" stroke="black" points="43.2,-197.2 43.2,-228 292.52,-228 292.52,-197.2 43.2,-197.2"/>
<text text-anchor="start" x="50.2" y="-209.4" font-family="Arial" font-size="14.00">notes </text>
<text text-anchor="start" x="88.34" y="-209.4" font-family="Arial" font-size="14.00" fill="#666666">[string]</text>
<polygon fill="none" stroke="black" points="43.2,-166.4 43.2,-197.2 292.52,-197.2 292.52,-166.4 43.2,-166.4"/>
<text text-anchor="start" x="50.2" y="-178.6" font-family="Arial" font-size="14.00">updatedAt </text>
<text text-anchor="start" x="117.92" y="-178.6" font-family="Arial" font-size="14.00" fill="#666666">[datetime]</text>
<polygon fill="none" stroke="black" points="43.2,-135.6 43.2,-166.4 292.52,-166.4 292.52,-135.6 43.2,-135.6"/>
<text text-anchor="start" x="50.2" y="-147.8" font-family="Arial" font-size="14.00">createdAt </text>
<text text-anchor="start" x="114.01" y="-147.8" font-family="Arial" font-size="14.00" fill="#666666">[datetime]</text>
<polygon fill="none" stroke="black" points="43.2,-104.8 43.2,-135.6 292.52,-135.6 292.52,-104.8 43.2,-104.8"/>
<text text-anchor="start" x="50.2" y="-117" font-family="Arial" font-size="14.00">documentNumber </text>
<text text-anchor="start" x="165.37" y="-117" font-family="Arial" font-size="14.00" fill="#666666">[string]</text>
<polygon fill="none" stroke="black" points="43.2,-74 43.2,-104.8 292.52,-104.8 292.52,-74 43.2,-74"/>
<text text-anchor="start" x="50.2" y="-86.2" font-family="Arial" font-size="14.00">shipVia </text>
<text text-anchor="start" x="100.01" y="-86.2" font-family="Arial" font-size="14.00" fill="#666666">[string]</text>
<polygon fill="none" stroke="black" points="43.2,-43.2 43.2,-74 292.52,-74 292.52,-43.2 43.2,-43.2"/>
<text text-anchor="start" x="50.2" y="-55.4" font-family="Arial" font-size="14.00">trackingNumber </text>
<text text-anchor="start" x="152.9" y="-55.4" font-family="Arial" font-size="14.00" fill="#666666">[string]</text>
</g>
<!-- Receipt&#45;&gt;PurchaseOrder -->
<g id="edge2" class="edge">
<title>Receipt:purchaseOrderID&#45;&gt;PurchaseOrder:id</title>
<path fill="none" stroke="black" d="M213.46,-1204.81C90.53,-1195.19 156.06,-1011.34 224.87,-897.2 242.45,-868.03 274.83,-890.3 292.52,-861.2 314.27,-825.42 335.39,-767 293.52,-767"/>
<polygon fill="black" stroke="black" points="213.54,-1204.81 223.37,-1209.68 218.87,-1205.01 223.2,-1205.17 223.2,-1205.17 223.2,-1205.17 218.87,-1205.01 223.71,-1200.69 213.54,-1204.81"/>
<text text-anchor="start" x="111.82" y="-1215.2" font-family="Arial" font-size="10.00">Source: PurchaseOrder</text>
</g>
<!-- Contact -->
<g id="node4" class="node">
<title>Contact</title>
<polygon fill="#efefef" stroke="none" points="396.68,-720.8 396.68,-756.4 595.04,-756.4 595.04,-720.8 396.68,-720.8"/>
<polygon fill="none" stroke="black" points="396.68,-720.8 396.68,-756.4 595.04,-756.4 595.04,-720.8 396.68,-720.8"/>
<text text-anchor="start" x="403.68" y="-734.2" font-family="Arial Bold" font-size="18.00">Contact</text>
<text text-anchor="start" x="459.67" y="-734.2" font-family="Arial" font-size="14.00">    </text>
<text text-anchor="start" x="490.79" y="-734.2" font-family="Arial" font-size="14.00" fill="#666666">[TailorDB.Type]</text>
<polygon fill="none" stroke="black" points="396.68,-690 396.68,-720.8 595.04,-720.8 595.04,-690 396.68,-690"/>
<text text-anchor="start" x="403.68" y="-702.2" font-family="Arial" font-size="14.00">id </text>
<text text-anchor="start" x="418.47" y="-702.2" font-family="Arial" font-size="14.00" fill="#666666">[uuid]</text>
<polygon fill="none" stroke="black" points="396.68,-659.2 396.68,-690 595.04,-690 595.04,-659.2 396.68,-659.2"/>
<text text-anchor="start" x="403.68" y="-671.4" font-family="Arial" font-size="14.00">phone </text>
<text text-anchor="start" x="446.5" y="-671.4" font-family="Arial" font-size="14.00" fill="#666666">[string]</text>
<polygon fill="none" stroke="black" points="396.68,-628.4 396.68,-659.2 595.04,-659.2 595.04,-628.4 396.68,-628.4"/>
<text text-anchor="start" x="403.68" y="-640.6" font-family="Arial" font-size="14.00">address1 </text>
<text text-anchor="start" x="465.17" y="-640.6" font-family="Arial" font-size="14.00" fill="#666666">[string]</text>
<polygon fill="none" stroke="black" points="396.68,-597.6 396.68,-628.4 595.04,-628.4 595.04,-597.6 396.68,-597.6"/>
<text text-anchor="start" x="403.68" y="-609.8" font-family="Arial" font-size="14.00">city </text>
<text text-anchor="start" x="428.57" y="-609.8" font-family="Arial" font-size="14.00" fill="#666666">[string]</text>
<polygon fill="none" stroke="black" points="396.68,-566.8 396.68,-597.6 595.04,-597.6 595.04,-566.8 396.68,-566.8"/>
<text text-anchor="start" x="403.68" y="-579" font-family="Arial" font-size="14.00">province </text>
<text text-anchor="start" x="460.49" y="-579" font-family="Arial" font-size="14.00" fill="#666666">[string]</text>
<polygon fill="none" stroke="black" points="396.68,-536 396.68,-566.8 595.04,-566.8 595.04,-536 396.68,-536"/>
<text text-anchor="start" x="403.68" y="-548.2" font-family="Arial" font-size="14.00">createdAt </text>
<text text-anchor="start" x="467.5" y="-548.2" font-family="Arial" font-size="14.00" fill="#666666">[datetime]</text>
<polygon fill="none" stroke="black" points="396.68,-505.2 396.68,-536 595.04,-536 595.04,-505.2 396.68,-505.2"/>
<text text-anchor="start" x="403.68" y="-517.4" font-family="Arial" font-size="14.00">email </text>
<text text-anchor="start" x="441.03" y="-517.4" font-family="Arial" font-size="14.00" fill="#666666">[string]</text>
<polygon fill="none" stroke="black" points="396.68,-474.4 396.68,-505.2 595.04,-505.2 595.04,-474.4 396.68,-474.4"/>
<text text-anchor="start" x="403.68" y="-486.6" font-family="Arial" font-size="14.00">name </text>
<text text-anchor="start" x="442.59" y="-486.6" font-family="Arial" font-size="14.00" fill="#666666">[string]</text>
<polygon fill="none" stroke="black" points="396.68,-443.6 396.68,-474.4 595.04,-474.4 595.04,-443.6 396.68,-443.6"/>
<text text-anchor="start" x="403.68" y="-455.8" font-family="Arial" font-size="14.00">quickBookCustomerId </text>
<text text-anchor="start" x="544.52" y="-455.8" font-family="Arial" font-size="14.00" fill="#666666">[string]</text>
<polygon fill="none" stroke="black" points="396.68,-412.8 396.68,-443.6 595.04,-443.6 595.04,-412.8 396.68,-412.8"/>
<text text-anchor="start" x="403.68" y="-425" font-family="Arial" font-size="14.00">country </text>
<text text-anchor="start" x="453.48" y="-425" font-family="Arial" font-size="14.00" fill="#666666">[string]</text>
<polygon fill="none" stroke="black" points="396.68,-382 396.68,-412.8 595.04,-412.8 595.04,-382 396.68,-382"/>
<text text-anchor="start" x="403.68" y="-394.2" font-family="Arial" font-size="14.00">countryCode </text>
<text text-anchor="start" x="486.95" y="-394.2" font-family="Arial" font-size="14.00" fill="#666666">[string]</text>
<polygon fill="none" stroke="black" points="396.68,-351.2 396.68,-382 595.04,-382 595.04,-351.2 396.68,-351.2"/>
<text text-anchor="start" x="403.68" y="-363.4" font-family="Arial" font-size="14.00">provinceCode </text>
<text text-anchor="start" x="493.96" y="-363.4" font-family="Arial" font-size="14.00" fill="#666666">[string]</text>
<polygon fill="none" stroke="black" points="396.68,-320.4 396.68,-351.2 595.04,-351.2 595.04,-320.4 396.68,-320.4"/>
<text text-anchor="start" x="403.68" y="-332.6" font-family="Arial" font-size="14.00">openBalance </text>
<text text-anchor="start" x="489.31" y="-332.6" font-family="Arial" font-size="14.00" fill="#666666">[float]</text>
<polygon fill="none" stroke="black" points="396.68,-289.6 396.68,-320.4 595.04,-320.4 595.04,-289.6 396.68,-289.6"/>
<text text-anchor="start" x="403.68" y="-301.8" font-family="Arial" font-size="14.00">creditLimit </text>
<text text-anchor="start" x="471.37" y="-301.8" font-family="Arial" font-size="14.00" fill="#666666">[float]</text>
<polygon fill="none" stroke="black" points="396.68,-258.8 396.68,-289.6 595.04,-289.6 595.04,-258.8 396.68,-258.8"/>
<text text-anchor="start" x="403.68" y="-271" font-family="Arial" font-size="14.00">active </text>
<text text-anchor="start" x="444.15" y="-271" font-family="Arial" font-size="14.00" fill="#666666">[boolean]</text>
<polygon fill="none" stroke="black" points="396.68,-228 396.68,-258.8 595.04,-258.8 595.04,-228 396.68,-228"/>
<text text-anchor="start" x="403.68" y="-240.2" font-family="Arial" font-size="14.00">address2 </text>
<text text-anchor="start" x="465.17" y="-240.2" font-family="Arial" font-size="14.00" fill="#666666">[string]</text>
<polygon fill="none" stroke="black" points="396.68,-197.2 396.68,-228 595.04,-228 595.04,-197.2 396.68,-197.2"/>
<text text-anchor="start" x="403.68" y="-209.4" font-family="Arial" font-size="14.00">company </text>
<text text-anchor="start" x="464.38" y="-209.4" font-family="Arial" font-size="14.00" fill="#666666">[string]</text>
<polygon fill="none" stroke="black" points="396.68,-166.4 396.68,-197.2 595.04,-197.2 595.04,-166.4 396.68,-166.4"/>
<text text-anchor="start" x="403.68" y="-178.6" font-family="Arial" font-size="14.00">availableCredit </text>
<text text-anchor="start" x="500.18" y="-178.6" font-family="Arial" font-size="14.00" fill="#666666">[float]</text>
<polygon fill="none" stroke="black" points="396.68,-135.6 396.68,-166.4 595.04,-166.4 595.04,-135.6 396.68,-135.6"/>
<text text-anchor="start" x="403.68" y="-147.8" font-family="Arial" font-size="14.00">updatedAt </text>
<text text-anchor="start" x="471.41" y="-147.8" font-family="Arial" font-size="14.00" fill="#666666">[datetime]</text>
<polygon fill="none" stroke="black" points="396.68,-104.8 396.68,-135.6 595.04,-135.6 595.04,-104.8 396.68,-104.8"/>
<text text-anchor="start" x="403.68" y="-117" font-family="Arial" font-size="14.00">zip </text>
<text text-anchor="start" x="425.47" y="-117" font-family="Arial" font-size="14.00" fill="#666666">[string]</text>
</g>
<!-- Receipt&#45;&gt;Contact -->
<g id="edge3" class="edge">
<title>Receipt:supplierID&#45;&gt;Contact:id</title>
<path fill="none" stroke="black" d="M450,-988.88C550.48,-973.19 271.6,-705.4 395.68,-705.4"/>
<polygon fill="black" stroke="black" points="450.16,-988.87 439.87,-985.09 444.84,-989.25 440.52,-989.55 440.52,-989.55 440.52,-989.55 444.84,-989.25 440.5,-994.07 450.16,-988.87"/>
<text text-anchor="start" x="446.85" y="-999.6" font-family="Arial" font-size="10.00">ForeignKeyType: Contact</text>
</g>
<!-- ReceiptLineItem -->
<g id="node2" class="node">
<title>ReceiptLineItem</title>
<polygon fill="#efefef" stroke="none" points="200.2,-2059.2 200.2,-2094.8 463.52,-2094.8 463.52,-2059.2 200.2,-2059.2"/>
<polygon fill="none" stroke="black" points="200.2,-2059.2 200.2,-2094.8 463.52,-2094.8 463.52,-2059.2 200.2,-2059.2"/>
<text text-anchor="start" x="207.2" y="-2072.6" font-family="Arial Bold" font-size="18.00">ReceiptLineItem</text>
<text text-anchor="start" x="328.15" y="-2072.6" font-family="Arial" font-size="14.00">    </text>
<text text-anchor="start" x="359.27" y="-2072.6" font-family="Arial" font-size="14.00" fill="#666666">[TailorDB.Type]</text>
<polygon fill="none" stroke="black" points="200.2,-2028.4 200.2,-2059.2 463.52,-2059.2 463.52,-2028.4 200.2,-2028.4"/>
<text text-anchor="start" x="207.2" y="-2040.6" font-family="Arial" font-size="14.00">id </text>
<text text-anchor="start" x="221.99" y="-2040.6" font-family="Arial" font-size="14.00" fill="#666666">[uuid]</text>
<polygon fill="none" stroke="black" points="200.2,-1997.6 200.2,-2028.4 463.52,-2028.4 463.52,-1997.6 200.2,-1997.6"/>
<text text-anchor="start" x="207.2" y="-2009.8" font-family="Arial" font-size="14.00">active </text>
<text text-anchor="start" x="247.67" y="-2009.8" font-family="Arial" font-size="14.00" fill="#666666">[boolean]</text>
<polygon fill="none" stroke="black" points="200.2,-1966.8 200.2,-1997.6 463.52,-1997.6 463.52,-1966.8 200.2,-1966.8"/>
<text text-anchor="start" x="207.2" y="-1979" font-family="Arial" font-size="14.00">receiptID </text>
<text text-anchor="start" x="267.11" y="-1979" font-family="Arial" font-size="14.00" fill="#666666">[uuid]</text>
<polygon fill="none" stroke="black" points="200.2,-1936 200.2,-1966.8 463.52,-1966.8 463.52,-1936 200.2,-1936"/>
<text text-anchor="start" x="207.2" y="-1948.2" font-family="Arial" font-size="14.00">variant </text>
<text text-anchor="start" x="253.11" y="-1948.2" font-family="Arial" font-size="14.00" fill="#666666">[ProductVariant]</text>
<polygon fill="none" stroke="black" points="200.2,-1905.2 200.2,-1936 463.52,-1936 463.52,-1905.2 200.2,-1905.2"/>
<text text-anchor="start" x="207.2" y="-1917.4" font-family="Arial" font-size="14.00">costPools </text>
<text text-anchor="start" x="271.79" y="-1917.4" font-family="Arial" font-size="14.00" fill="#666666">[Array\&lt;nested\&gt;]</text>
<polygon fill="none" stroke="black" points="200.2,-1874.4 200.2,-1905.2 463.52,-1905.2 463.52,-1874.4 200.2,-1874.4"/>
<text text-anchor="start" x="207.2" y="-1886.6" font-family="Arial" font-size="14.00">costPools.costPoolID </text>
<text text-anchor="start" x="343.38" y="-1886.6" font-family="Arial" font-size="14.00" fill="#666666">[uuid]</text>
<polygon fill="none" stroke="black" points="200.2,-1843.6 200.2,-1874.4 463.52,-1874.4 463.52,-1843.6 200.2,-1843.6"/>
<text text-anchor="start" x="207.2" y="-1855.8" font-family="Arial" font-size="14.00">costPools.costPool </text>
<text text-anchor="start" x="329.38" y="-1855.8" font-family="Arial" font-size="14.00" fill="#666666">[CostPool]</text>
<polygon fill="none" stroke="black" points="200.2,-1812.8 200.2,-1843.6 463.52,-1843.6 463.52,-1812.8 200.2,-1812.8"/>
<text text-anchor="start" x="207.2" y="-1825" font-family="Arial" font-size="14.00">unitCostPoolAllocation </text>
<text text-anchor="start" x="351.18" y="-1825" font-family="Arial" font-size="14.00" fill="#666666">[float]</text>
<polygon fill="none" stroke="black" points="200.2,-1782 200.2,-1812.8 463.52,-1812.8 463.52,-1782 200.2,-1782"/>
<text text-anchor="start" x="207.2" y="-1794.2" font-family="Arial" font-size="14.00">receivedAt </text>
<text text-anchor="start" x="277.24" y="-1794.2" font-family="Arial" font-size="14.00" fill="#666666">[datetime]</text>
<polygon fill="none" stroke="black" points="200.2,-1751.2 200.2,-1782 463.52,-1782 463.52,-1751.2 200.2,-1751.2"/>
<text text-anchor="start" x="207.2" y="-1763.4" font-family="Arial" font-size="14.00">updatedAt </text>
<text text-anchor="start" x="274.93" y="-1763.4" font-family="Arial" font-size="14.00" fill="#666666">[datetime]</text>
<polygon fill="none" stroke="black" points="200.2,-1720.4 200.2,-1751.2 463.52,-1751.2 463.52,-1720.4 200.2,-1720.4"/>
<text text-anchor="start" x="207.2" y="-1732.6" font-family="Arial" font-size="14.00">subtotalUnitCost </text>
<text text-anchor="start" x="313.81" y="-1732.6" font-family="Arial" font-size="14.00" fill="#666666">[float]</text>
<polygon fill="none" stroke="black" points="200.2,-1689.6 200.2,-1720.4 463.52,-1720.4 463.52,-1689.6 200.2,-1689.6"/>
<text text-anchor="start" x="207.2" y="-1701.8" font-family="Arial" font-size="14.00">receipt </text>
<text text-anchor="start" x="253.11" y="-1701.8" font-family="Arial" font-size="14.00" fill="#666666">[Receipt]</text>
<polygon fill="none" stroke="black" points="200.2,-1658.8 200.2,-1689.6 463.52,-1689.6 463.52,-1658.8 200.2,-1658.8"/>
<text text-anchor="start" x="207.2" y="-1671" font-family="Arial" font-size="14.00">variantID </text>
<text text-anchor="start" x="267.11" y="-1671" font-family="Arial" font-size="14.00" fill="#666666">[uuid]</text>
<polygon fill="none" stroke="black" points="200.2,-1628 200.2,-1658.8 463.52,-1658.8 463.52,-1628 200.2,-1628"/>
<text text-anchor="start" x="207.2" y="-1640.2" font-family="Arial" font-size="14.00">subtotalCost </text>
<text text-anchor="start" x="288.91" y="-1640.2" font-family="Arial" font-size="14.00" fill="#666666">[float]</text>
<polygon fill="none" stroke="black" points="200.2,-1597.2 200.2,-1628 463.52,-1628 463.52,-1597.2 200.2,-1597.2"/>
<text text-anchor="start" x="207.2" y="-1609.4" font-family="Arial" font-size="14.00">totalCostPoolAllocation </text>
<text text-anchor="start" x="355.07" y="-1609.4" font-family="Arial" font-size="14.00" fill="#666666">[float]</text>
<polygon fill="none" stroke="black" points="200.2,-1566.4 200.2,-1597.2 463.52,-1597.2 463.52,-1566.4 200.2,-1566.4"/>
<text text-anchor="start" x="207.2" y="-1578.6" font-family="Arial" font-size="14.00">totalUnitCost </text>
<text text-anchor="start" x="291.24" y="-1578.6" font-family="Arial" font-size="14.00" fill="#666666">[float]</text>
<polygon fill="none" stroke="black" points="200.2,-1535.6 200.2,-1566.4 463.52,-1566.4 463.52,-1535.6 200.2,-1535.6"/>
<text text-anchor="start" x="207.2" y="-1547.8" font-family="Arial" font-size="14.00">receiptStatus </text>
<text text-anchor="start" x="292.8" y="-1547.8" font-family="Arial" font-size="14.00" fill="#666666">[enum]</text>
<polygon fill="none" stroke="black" points="200.2,-1504.8 200.2,-1535.6 463.52,-1535.6 463.52,-1504.8 200.2,-1504.8"/>
<text text-anchor="start" x="207.2" y="-1517" font-family="Arial" font-size="14.00">createdAt </text>
<text text-anchor="start" x="271.02" y="-1517" font-family="Arial" font-size="14.00" fill="#666666">[datetime]</text>
<polygon fill="none" stroke="black" points="200.2,-1474 200.2,-1504.8 463.52,-1504.8 463.52,-1474 200.2,-1474"/>
<text text-anchor="start" x="207.2" y="-1486.2" font-family="Arial" font-size="14.00">quantity </text>
<text text-anchor="start" x="260.13" y="-1486.2" font-family="Arial" font-size="14.00" fill="#666666">[float]</text>
<polygon fill="none" stroke="black" points="200.2,-1443.2 200.2,-1474 463.52,-1474 463.52,-1443.2 200.2,-1443.2"/>
<text text-anchor="start" x="207.2" y="-1455.4" font-family="Arial" font-size="14.00">cubicMeters </text>
<text text-anchor="start" x="286.56" y="-1455.4" font-family="Arial" font-size="14.00" fill="#666666">[float]</text>
</g>
<!-- ReceiptLineItem&#45;&gt;Receipt -->
<g id="edge1" class="edge">
<title>ReceiptLineItem:receiptID&#45;&gt;Receipt:id</title>
<path fill="none" stroke="black" d="M474.51,-1981.22C622.47,-1951.79 595.5,-1266.8 439.85,-1266.8"/>
<polygon fill="black" stroke="black" points="474.8,-1981.2 464.41,-1977.69 469.49,-1981.71 465.18,-1982.13 465.18,-1982.13 465.18,-1982.13 469.49,-1981.71 465.29,-1986.65 474.8,-1981.2"/>
<text text-anchor="start" x="471.52" y="-1992.2" font-family="Arial" font-size="10.00">Source: Receipt</text>
</g>
</g>
</svg>
