<?xml version="1.0" encoding="UTF-8" standalone="no"?>
<!DOCTYPE svg PUBLIC "-//W3C//DTD SVG 1.1//EN"
 "http://www.w3.org/Graphics/SVG/1.1/DTD/svg11.dtd">
<!-- Generated by graphviz version 12.1.2 (20240928.0832)
 -->
<!-- Title: SalesOrder Pages: 1 -->
<svg width="698pt" height="2146pt"
 viewBox="0.00 0.00 698.24 2146.00" xmlns="http://www.w3.org/2000/svg" xmlns:xlink="http://www.w3.org/1999/xlink">
<g id="graph0" class="graph" transform="scale(1 1) rotate(0) translate(4 2142)">
<title>SalesOrder</title>
<polygon fill="white" stroke="none" points="-4,4 -4,-2142 694.24,-2142 694.24,4 -4,4"/>
<!-- SalesOrder -->
<g id="node1" class="node">
<title>SalesOrder</title>
<polygon fill="#efefef" stroke="none" points="253.19,-1313 253.19,-1348.6 475.52,-1348.6 475.52,-1313 253.19,-1313"/>
<polygon fill="none" stroke="black" points="253.19,-1313 253.19,-1348.6 475.52,-1348.6 475.52,-1313 253.19,-1313"/>
<text text-anchor="start" x="260.19" y="-1326.4" font-family="Arial Bold" font-size="18.00">SalesOrder</text>
<text text-anchor="start" x="340.16" y="-1326.4" font-family="Arial" font-size="14.00">    </text>
<text text-anchor="start" x="371.27" y="-1326.4" font-family="Arial" font-size="14.00" fill="#666666">[TailorDB.Type]</text>
<polygon fill="none" stroke="black" points="253.19,-1282.2 253.19,-1313 475.52,-1313 475.52,-1282.2 253.19,-1282.2"/>
<text text-anchor="start" x="260.19" y="-1294.4" font-family="Arial" font-size="14.00">id </text>
<text text-anchor="start" x="274.97" y="-1294.4" font-family="Arial" font-size="14.00" fill="#666666">[uuid]</text>
<polygon fill="none" stroke="black" points="253.19,-1251.4 253.19,-1282.2 475.52,-1282.2 475.52,-1251.4 253.19,-1251.4"/>
<text text-anchor="start" x="260.19" y="-1263.6" font-family="Arial" font-size="14.00">customerEmail </text>
<text text-anchor="start" x="356.65" y="-1263.6" font-family="Arial" font-size="14.00" fill="#666666">[string]</text>
<polygon fill="none" stroke="black" points="253.19,-1220.6 253.19,-1251.4 475.52,-1251.4 475.52,-1220.6 253.19,-1220.6"/>
<text text-anchor="start" x="260.19" y="-1232.8" font-family="Arial" font-size="14.00">customerID </text>
<text text-anchor="start" x="335.65" y="-1232.8" font-family="Arial" font-size="14.00" fill="#666666">[uuid]</text>
<polygon fill="none" stroke="black" points="253.19,-1189.8 253.19,-1220.6 475.52,-1220.6 475.52,-1189.8 253.19,-1189.8"/>
<text text-anchor="start" x="260.19" y="-1202" font-family="Arial" font-size="14.00">shopifyID </text>
<text text-anchor="start" x="322.43" y="-1202" font-family="Arial" font-size="14.00" fill="#666666">[string]</text>
<polygon fill="none" stroke="black" points="253.19,-1159 253.19,-1189.8 475.52,-1189.8 475.52,-1159 253.19,-1159"/>
<text text-anchor="start" x="260.19" y="-1171.2" font-family="Arial" font-size="14.00">currentSubtotalPrice </text>
<text text-anchor="start" x="390.92" y="-1171.2" font-family="Arial" font-size="14.00" fill="#666666">[string]</text>
<polygon fill="none" stroke="black" points="253.19,-1128.2 253.19,-1159 475.52,-1159 475.52,-1128.2 253.19,-1128.2"/>
<text text-anchor="start" x="260.19" y="-1140.4" font-family="Arial" font-size="14.00">cancelledAt </text>
<text text-anchor="start" x="336.45" y="-1140.4" font-family="Arial" font-size="14.00" fill="#666666">[datetime]</text>
<polygon fill="none" stroke="black" points="253.19,-1097.4 253.19,-1128.2 475.52,-1128.2 475.52,-1097.4 253.19,-1097.4"/>
<text text-anchor="start" x="260.19" y="-1109.6" font-family="Arial" font-size="14.00">customerName </text>
<text text-anchor="start" x="358.99" y="-1109.6" font-family="Arial" font-size="14.00" fill="#666666">[string]</text>
<polygon fill="none" stroke="black" points="253.19,-1066.6 253.19,-1097.4 475.52,-1097.4 475.52,-1066.6 253.19,-1066.6"/>
<text text-anchor="start" x="260.19" y="-1078.8" font-family="Arial" font-size="14.00">createdAt </text>
<text text-anchor="start" x="324" y="-1078.8" font-family="Arial" font-size="14.00" fill="#666666">[datetime]</text>
<polygon fill="none" stroke="black" points="253.19,-1035.8 253.19,-1066.6 475.52,-1066.6 475.52,-1035.8 253.19,-1035.8"/>
<text text-anchor="start" x="260.19" y="-1048" font-family="Arial" font-size="14.00">shippedAt </text>
<text text-anchor="start" x="326.34" y="-1048" font-family="Arial" font-size="14.00" fill="#666666">[datetime]</text>
<polygon fill="none" stroke="black" points="253.19,-1005 253.19,-1035.8 475.52,-1035.8 475.52,-1005 253.19,-1005"/>
<text text-anchor="start" x="260.19" y="-1017.2" font-family="Arial" font-size="14.00">active </text>
<text text-anchor="start" x="300.65" y="-1017.2" font-family="Arial" font-size="14.00" fill="#666666">[boolean]</text>
<polygon fill="none" stroke="black" points="253.19,-974.2 253.19,-1005 475.52,-1005 475.52,-974.2 253.19,-974.2"/>
<text text-anchor="start" x="260.19" y="-986.4" font-family="Arial" font-size="14.00">orderNumber </text>
<text text-anchor="start" x="346.55" y="-986.4" font-family="Arial" font-size="14.00" fill="#666666">[integer]</text>
<polygon fill="none" stroke="black" points="253.19,-943.4 253.19,-974.2 475.52,-974.2 475.52,-943.4 253.19,-943.4"/>
<text text-anchor="start" x="260.19" y="-955.6" font-family="Arial" font-size="14.00">customer </text>
<text text-anchor="start" x="321.65" y="-955.6" font-family="Arial" font-size="14.00" fill="#666666">[Contact]</text>
<polygon fill="none" stroke="black" points="253.19,-912.6 253.19,-943.4 475.52,-943.4 475.52,-912.6 253.19,-912.6"/>
<text text-anchor="start" x="260.19" y="-924.8" font-family="Arial" font-size="14.00">updatedAt </text>
<text text-anchor="start" x="327.91" y="-924.8" font-family="Arial" font-size="14.00" fill="#666666">[datetime]</text>
<polygon fill="none" stroke="black" points="253.19,-881.8 253.19,-912.6 475.52,-912.6 475.52,-881.8 253.19,-881.8"/>
<text text-anchor="start" x="260.19" y="-894" font-family="Arial" font-size="14.00">cancelReason </text>
<text text-anchor="start" x="352.8" y="-894" font-family="Arial" font-size="14.00" fill="#666666">[string]</text>
<polygon fill="none" stroke="black" points="253.19,-851 253.19,-881.8 475.52,-881.8 475.52,-851 253.19,-851"/>
<text text-anchor="start" x="260.19" y="-863.2" font-family="Arial" font-size="14.00">currency </text>
<text text-anchor="start" x="317.76" y="-863.2" font-family="Arial" font-size="14.00" fill="#666666">[string]</text>
<polygon fill="none" stroke="black" points="253.19,-820.2 253.19,-851 475.52,-851 475.52,-820.2 253.19,-820.2"/>
<text text-anchor="start" x="260.19" y="-832.4" font-family="Arial" font-size="14.00">shipStationOrderStatus </text>
<text text-anchor="start" x="408.82" y="-832.4" font-family="Arial" font-size="14.00" fill="#666666">[enum]</text>
<polygon fill="none" stroke="black" stroke-width="3" points="251.69,-818.7 251.69,-1350.1 477.02,-1350.1 477.02,-818.7 251.69,-818.7"/>
</g>
<!-- Contact -->
<g id="node4" class="node">
<title>Contact</title>
<polygon fill="#efefef" stroke="none" points="265.18,-659.2 265.18,-694.8 463.53,-694.8 463.53,-659.2 265.18,-659.2"/>
<polygon fill="none" stroke="black" points="265.18,-659.2 265.18,-694.8 463.53,-694.8 463.53,-659.2 265.18,-659.2"/>
<text text-anchor="start" x="272.18" y="-672.6" font-family="Arial Bold" font-size="18.00">Contact</text>
<text text-anchor="start" x="328.16" y="-672.6" font-family="Arial" font-size="14.00">    </text>
<text text-anchor="start" x="359.28" y="-672.6" font-family="Arial" font-size="14.00" fill="#666666">[TailorDB.Type]</text>
<polygon fill="none" stroke="black" points="265.18,-628.4 265.18,-659.2 463.53,-659.2 463.53,-628.4 265.18,-628.4"/>
<text text-anchor="start" x="272.18" y="-640.6" font-family="Arial" font-size="14.00">id </text>
<text text-anchor="start" x="286.96" y="-640.6" font-family="Arial" font-size="14.00" fill="#666666">[uuid]</text>
<polygon fill="none" stroke="black" points="265.18,-597.6 265.18,-628.4 463.53,-628.4 463.53,-597.6 265.18,-597.6"/>
<text text-anchor="start" x="272.18" y="-609.8" font-family="Arial" font-size="14.00">openBalance </text>
<text text-anchor="start" x="357.8" y="-609.8" font-family="Arial" font-size="14.00" fill="#666666">[float]</text>
<polygon fill="none" stroke="black" points="265.18,-566.8 265.18,-597.6 463.53,-597.6 463.53,-566.8 265.18,-566.8"/>
<text text-anchor="start" x="272.18" y="-579" font-family="Arial" font-size="14.00">city </text>
<text text-anchor="start" x="297.07" y="-579" font-family="Arial" font-size="14.00" fill="#666666">[string]</text>
<polygon fill="none" stroke="black" points="265.18,-536 265.18,-566.8 463.53,-566.8 463.53,-536 265.18,-536"/>
<text text-anchor="start" x="272.18" y="-548.2" font-family="Arial" font-size="14.00">province </text>
<text text-anchor="start" x="328.98" y="-548.2" font-family="Arial" font-size="14.00" fill="#666666">[string]</text>
<polygon fill="none" stroke="black" points="265.18,-505.2 265.18,-536 463.53,-536 463.53,-505.2 265.18,-505.2"/>
<text text-anchor="start" x="272.18" y="-517.4" font-family="Arial" font-size="14.00">updatedAt </text>
<text text-anchor="start" x="339.9" y="-517.4" font-family="Arial" font-size="14.00" fill="#666666">[datetime]</text>
<polygon fill="none" stroke="black" points="265.18,-474.4 265.18,-505.2 463.53,-505.2 463.53,-474.4 265.18,-474.4"/>
<text text-anchor="start" x="272.18" y="-486.6" font-family="Arial" font-size="14.00">country </text>
<text text-anchor="start" x="321.98" y="-486.6" font-family="Arial" font-size="14.00" fill="#666666">[string]</text>
<polygon fill="none" stroke="black" points="265.18,-443.6 265.18,-474.4 463.53,-474.4 463.53,-443.6 265.18,-443.6"/>
<text text-anchor="start" x="272.18" y="-455.8" font-family="Arial" font-size="14.00">zip </text>
<text text-anchor="start" x="293.96" y="-455.8" font-family="Arial" font-size="14.00" fill="#666666">[string]</text>
<polygon fill="none" stroke="black" points="265.18,-412.8 265.18,-443.6 463.53,-443.6 463.53,-412.8 265.18,-412.8"/>
<text text-anchor="start" x="272.18" y="-425" font-family="Arial" font-size="14.00">provinceCode </text>
<text text-anchor="start" x="362.45" y="-425" font-family="Arial" font-size="14.00" fill="#666666">[string]</text>
<polygon fill="none" stroke="black" points="265.18,-382 265.18,-412.8 463.53,-412.8 463.53,-382 265.18,-382"/>
<text text-anchor="start" x="272.18" y="-394.2" font-family="Arial" font-size="14.00">creditLimit </text>
<text text-anchor="start" x="339.86" y="-394.2" font-family="Arial" font-size="14.00" fill="#666666">[float]</text>
<polygon fill="none" stroke="black" points="265.18,-351.2 265.18,-382 463.53,-382 463.53,-351.2 265.18,-351.2"/>
<text text-anchor="start" x="272.18" y="-363.4" font-family="Arial" font-size="14.00">active </text>
<text text-anchor="start" x="312.64" y="-363.4" font-family="Arial" font-size="14.00" fill="#666666">[boolean]</text>
<polygon fill="none" stroke="black" points="265.18,-320.4 265.18,-351.2 463.53,-351.2 463.53,-320.4 265.18,-320.4"/>
<text text-anchor="start" x="272.18" y="-332.6" font-family="Arial" font-size="14.00">name </text>
<text text-anchor="start" x="311.09" y="-332.6" font-family="Arial" font-size="14.00" fill="#666666">[string]</text>
<polygon fill="none" stroke="black" points="265.18,-289.6 265.18,-320.4 463.53,-320.4 463.53,-289.6 265.18,-289.6"/>
<text text-anchor="start" x="272.18" y="-301.8" font-family="Arial" font-size="14.00">email </text>
<text text-anchor="start" x="309.52" y="-301.8" font-family="Arial" font-size="14.00" fill="#666666">[string]</text>
<polygon fill="none" stroke="black" points="265.18,-258.8 265.18,-289.6 463.53,-289.6 463.53,-258.8 265.18,-258.8"/>
<text text-anchor="start" x="272.18" y="-271" font-family="Arial" font-size="14.00">countryCode </text>
<text text-anchor="start" x="355.45" y="-271" font-family="Arial" font-size="14.00" fill="#666666">[string]</text>
<polygon fill="none" stroke="black" points="265.18,-228 265.18,-258.8 463.53,-258.8 463.53,-228 265.18,-228"/>
<text text-anchor="start" x="272.18" y="-240.2" font-family="Arial" font-size="14.00">company </text>
<text text-anchor="start" x="332.87" y="-240.2" font-family="Arial" font-size="14.00" fill="#666666">[string]</text>
<polygon fill="none" stroke="black" points="265.18,-197.2 265.18,-228 463.53,-228 463.53,-197.2 265.18,-197.2"/>
<text text-anchor="start" x="272.18" y="-209.4" font-family="Arial" font-size="14.00">quickBookCustomerId </text>
<text text-anchor="start" x="413.02" y="-209.4" font-family="Arial" font-size="14.00" fill="#666666">[string]</text>
<polygon fill="none" stroke="black" points="265.18,-166.4 265.18,-197.2 463.53,-197.2 463.53,-166.4 265.18,-166.4"/>
<text text-anchor="start" x="272.18" y="-178.6" font-family="Arial" font-size="14.00">address2 </text>
<text text-anchor="start" x="333.66" y="-178.6" font-family="Arial" font-size="14.00" fill="#666666">[string]</text>
<polygon fill="none" stroke="black" points="265.18,-135.6 265.18,-166.4 463.53,-166.4 463.53,-135.6 265.18,-135.6"/>
<text text-anchor="start" x="272.18" y="-147.8" font-family="Arial" font-size="14.00">availableCredit </text>
<text text-anchor="start" x="368.67" y="-147.8" font-family="Arial" font-size="14.00" fill="#666666">[float]</text>
<polygon fill="none" stroke="black" points="265.18,-104.8 265.18,-135.6 463.53,-135.6 463.53,-104.8 265.18,-104.8"/>
<text text-anchor="start" x="272.18" y="-117" font-family="Arial" font-size="14.00">createdAt </text>
<text text-anchor="start" x="335.99" y="-117" font-family="Arial" font-size="14.00" fill="#666666">[datetime]</text>
<polygon fill="none" stroke="black" points="265.18,-74 265.18,-104.8 463.53,-104.8 463.53,-74 265.18,-74"/>
<text text-anchor="start" x="272.18" y="-86.2" font-family="Arial" font-size="14.00">phone </text>
<text text-anchor="start" x="315" y="-86.2" font-family="Arial" font-size="14.00" fill="#666666">[string]</text>
<polygon fill="none" stroke="black" points="265.18,-43.2 265.18,-74 463.53,-74 463.53,-43.2 265.18,-43.2"/>
<text text-anchor="start" x="272.18" y="-55.4" font-family="Arial" font-size="14.00">address1 </text>
<text text-anchor="start" x="333.66" y="-55.4" font-family="Arial" font-size="14.00" fill="#666666">[string]</text>
</g>
<!-- SalesOrder&#45;&gt;Contact -->
<g id="edge3" class="edge">
<title>SalesOrder:customerID&#45;&gt;Contact:id</title>
<path fill="none" stroke="black" d="M486.79,-1235.69C739.42,-1220.49 724.31,-643.8 464.53,-643.8"/>
<polygon fill="black" stroke="black" points="486.85,-1235.69 476.72,-1231.49 481.52,-1235.85 477.19,-1235.98 477.19,-1235.98 477.19,-1235.98 481.52,-1235.85 476.99,-1240.49 486.85,-1235.69"/>
<text text-anchor="start" x="483.52" y="-1246" font-family="Arial" font-size="10.00">ForeignKeyType: Contact</text>
</g>
<!-- SalesOrderLineItem -->
<g id="node2" class="node">
<title>SalesOrderLineItem</title>
<polygon fill="#efefef" stroke="none" points="43.2,-2059.2 43.2,-2094.8 331.51,-2094.8 331.51,-2059.2 43.2,-2059.2"/>
<polygon fill="none" stroke="black" points="43.2,-2059.2 43.2,-2094.8 331.51,-2094.8 331.51,-2059.2 43.2,-2059.2"/>
<text text-anchor="start" x="50.2" y="-2072.6" font-family="Arial Bold" font-size="18.00">SalesOrderLineItem</text>
<text text-anchor="start" x="196.14" y="-2072.6" font-family="Arial" font-size="14.00">    </text>
<text text-anchor="start" x="227.26" y="-2072.6" font-family="Arial" font-size="14.00" fill="#666666">[TailorDB.Type]</text>
<polygon fill="none" stroke="black" points="43.2,-2028.4 43.2,-2059.2 331.51,-2059.2 331.51,-2028.4 43.2,-2028.4"/>
<text text-anchor="start" x="50.2" y="-2040.6" font-family="Arial" font-size="14.00">id </text>
<text text-anchor="start" x="64.99" y="-2040.6" font-family="Arial" font-size="14.00" fill="#666666">[uuid]</text>
<polygon fill="none" stroke="black" points="43.2,-1997.6 43.2,-2028.4 331.51,-2028.4 331.51,-1997.6 43.2,-1997.6"/>
<text text-anchor="start" x="50.2" y="-2009.8" font-family="Arial" font-size="14.00">fulfillmentStatus </text>
<text text-anchor="start" x="152.91" y="-2009.8" font-family="Arial" font-size="14.00" fill="#666666">[enum]</text>
<polygon fill="none" stroke="black" points="43.2,-1966.8 43.2,-1997.6 331.51,-1997.6 331.51,-1966.8 43.2,-1966.8"/>
<text text-anchor="start" x="50.2" y="-1979" font-family="Arial" font-size="14.00">salesOrderID </text>
<text text-anchor="start" x="136.56" y="-1979" font-family="Arial" font-size="14.00" fill="#666666">[uuid]</text>
<polygon fill="none" stroke="black" points="43.2,-1936 43.2,-1966.8 331.51,-1966.8 331.51,-1936 43.2,-1936"/>
<text text-anchor="start" x="50.2" y="-1948.2" font-family="Arial" font-size="14.00">updatedAt </text>
<text text-anchor="start" x="117.92" y="-1948.2" font-family="Arial" font-size="14.00" fill="#666666">[datetime]</text>
<polygon fill="none" stroke="black" points="43.2,-1905.2 43.2,-1936 331.51,-1936 331.51,-1905.2 43.2,-1905.2"/>
<text text-anchor="start" x="50.2" y="-1917.4" font-family="Arial" font-size="14.00">variant </text>
<text text-anchor="start" x="96.11" y="-1917.4" font-family="Arial" font-size="14.00" fill="#666666">[ProductVariant]</text>
<polygon fill="none" stroke="black" points="43.2,-1874.4 43.2,-1905.2 331.51,-1905.2 331.51,-1874.4 43.2,-1874.4"/>
<text text-anchor="start" x="50.2" y="-1886.6" font-family="Arial" font-size="14.00">unitPrice </text>
<text text-anchor="start" x="108.56" y="-1886.6" font-family="Arial" font-size="14.00" fill="#666666">[float]</text>
<polygon fill="none" stroke="black" points="43.2,-1843.6 43.2,-1874.4 331.51,-1874.4 331.51,-1843.6 43.2,-1843.6"/>
<text text-anchor="start" x="50.2" y="-1855.8" font-family="Arial" font-size="14.00">sku </text>
<text text-anchor="start" x="75.88" y="-1855.8" font-family="Arial" font-size="14.00" fill="#666666">[string]</text>
<polygon fill="none" stroke="black" points="43.2,-1812.8 43.2,-1843.6 331.51,-1843.6 331.51,-1812.8 43.2,-1812.8"/>
<text text-anchor="start" x="50.2" y="-1825" font-family="Arial" font-size="14.00">taxable </text>
<text text-anchor="start" x="99.23" y="-1825" font-family="Arial" font-size="14.00" fill="#666666">[boolean]</text>
<polygon fill="none" stroke="black" points="43.2,-1782 43.2,-1812.8 331.51,-1812.8 331.51,-1782 43.2,-1782"/>
<text text-anchor="start" x="50.2" y="-1794.2" font-family="Arial" font-size="14.00">active </text>
<text text-anchor="start" x="90.66" y="-1794.2" font-family="Arial" font-size="14.00" fill="#666666">[boolean]</text>
<polygon fill="none" stroke="black" points="43.2,-1751.2 43.2,-1782 331.51,-1782 331.51,-1751.2 43.2,-1751.2"/>
<text text-anchor="start" x="50.2" y="-1763.4" font-family="Arial" font-size="14.00">createdAt </text>
<text text-anchor="start" x="114.01" y="-1763.4" font-family="Arial" font-size="14.00" fill="#666666">[datetime]</text>
<polygon fill="none" stroke="black" points="43.2,-1720.4 43.2,-1751.2 331.51,-1751.2 331.51,-1720.4 43.2,-1720.4"/>
<text text-anchor="start" x="50.2" y="-1732.6" font-family="Arial" font-size="14.00">variantID </text>
<text text-anchor="start" x="110.11" y="-1732.6" font-family="Arial" font-size="14.00" fill="#666666">[uuid]</text>
<polygon fill="none" stroke="black" points="43.2,-1689.6 43.2,-1720.4 331.51,-1720.4 331.51,-1689.6 43.2,-1689.6"/>
<text text-anchor="start" x="50.2" y="-1701.8" font-family="Arial" font-size="14.00">unitCompareAtPrice </text>
<text text-anchor="start" x="179.37" y="-1701.8" font-family="Arial" font-size="14.00" fill="#666666">[float]</text>
<polygon fill="none" stroke="black" points="43.2,-1658.8 43.2,-1689.6 331.51,-1689.6 331.51,-1658.8 43.2,-1658.8"/>
<text text-anchor="start" x="50.2" y="-1671" font-family="Arial" font-size="14.00">name </text>
<text text-anchor="start" x="89.11" y="-1671" font-family="Arial" font-size="14.00" fill="#666666">[string]</text>
<polygon fill="none" stroke="black" points="43.2,-1628 43.2,-1658.8 331.51,-1658.8 331.51,-1628 43.2,-1628"/>
<text text-anchor="start" x="50.2" y="-1640.2" font-family="Arial" font-size="14.00">shopifyID </text>
<text text-anchor="start" x="112.45" y="-1640.2" font-family="Arial" font-size="14.00" fill="#666666">[string]</text>
<polygon fill="none" stroke="black" points="43.2,-1597.2 43.2,-1628 331.51,-1628 331.51,-1597.2 43.2,-1597.2"/>
<text text-anchor="start" x="50.2" y="-1609.4" font-family="Arial" font-size="14.00">salesOrder </text>
<text text-anchor="start" x="122.56" y="-1609.4" font-family="Arial" font-size="14.00" fill="#666666">[SalesOrder]</text>
<polygon fill="none" stroke="black" points="43.2,-1566.4 43.2,-1597.2 331.51,-1597.2 331.51,-1566.4 43.2,-1566.4"/>
<text text-anchor="start" x="50.2" y="-1578.6" font-family="Arial" font-size="14.00">discount </text>
<text text-anchor="start" x="106.23" y="-1578.6" font-family="Arial" font-size="14.00" fill="#666666">[float]</text>
<polygon fill="none" stroke="black" points="43.2,-1535.6 43.2,-1566.4 331.51,-1566.4 331.51,-1535.6 43.2,-1535.6"/>
<text text-anchor="start" x="50.2" y="-1547.8" font-family="Arial" font-size="14.00">requiresShipping </text>
<text text-anchor="start" x="159.16" y="-1547.8" font-family="Arial" font-size="14.00" fill="#666666">[boolean]</text>
<polygon fill="none" stroke="black" points="43.2,-1504.8 43.2,-1535.6 331.51,-1535.6 331.51,-1504.8 43.2,-1504.8"/>
<text text-anchor="start" x="50.2" y="-1517" font-family="Arial" font-size="14.00">quantity </text>
<text text-anchor="start" x="103.12" y="-1517" font-family="Arial" font-size="14.00" fill="#666666">[float]</text>
<polygon fill="none" stroke="black" points="43.2,-1474 43.2,-1504.8 331.51,-1504.8 331.51,-1474 43.2,-1474"/>
<text text-anchor="start" x="50.2" y="-1486.2" font-family="Arial" font-size="14.00">subtotalPrice </text>
<text text-anchor="start" x="135.02" y="-1486.2" font-family="Arial" font-size="14.00" fill="#666666">[float]</text>
</g>
<!-- SalesOrderLineItem&#45;&gt;SalesOrder -->
<g id="edge1" class="edge">
<title>SalesOrderLineItem:salesOrderID&#45;&gt;SalesOrder:id</title>
<path fill="none" stroke="black" d="M341.76,-1977.87C390.57,-1928.87 362.8,-1479.53 331.51,-1430.8 310.81,-1398.56 274.02,-1426.95 253.19,-1394.8 229.69,-1358.55 208.98,-1297.6 252.19,-1297.6"/>
<polygon fill="black" stroke="black" points="341.87,-1977.82 330.9,-1977.98 337.04,-1980.08 333.11,-1981.92 333.11,-1981.92 333.11,-1981.92 337.04,-1980.08 334.72,-1986.13 341.87,-1977.82"/>
<text text-anchor="start" x="339.51" y="-1992.2" font-family="Arial" font-size="10.00">Source: SalesOrder</text>
</g>
<!-- Shipment -->
<g id="node3" class="node">
<title>Shipment</title>
<polygon fill="#efefef" stroke="none" points="435.67,-1920.6 435.67,-1956.2 647.04,-1956.2 647.04,-1920.6 435.67,-1920.6"/>
<polygon fill="none" stroke="black" points="435.67,-1920.6 435.67,-1956.2 647.04,-1956.2 647.04,-1920.6 435.67,-1920.6"/>
<text text-anchor="start" x="442.67" y="-1934" font-family="Arial Bold" font-size="18.00">Shipment</text>
<text text-anchor="start" x="511.67" y="-1934" font-family="Arial" font-size="14.00">    </text>
<text text-anchor="start" x="542.79" y="-1934" font-family="Arial" font-size="14.00" fill="#666666">[TailorDB.Type]</text>
<polygon fill="none" stroke="black" points="435.67,-1889.8 435.67,-1920.6 647.04,-1920.6 647.04,-1889.8 435.67,-1889.8"/>
<text text-anchor="start" x="442.67" y="-1902" font-family="Arial" font-size="14.00">id </text>
<text text-anchor="start" x="457.46" y="-1902" font-family="Arial" font-size="14.00" fill="#666666">[uuid]</text>
<polygon fill="none" stroke="black" points="435.67,-1859 435.67,-1889.8 647.04,-1889.8 647.04,-1859 435.67,-1859"/>
<text text-anchor="start" x="442.67" y="-1871.2" font-family="Arial" font-size="14.00">customerID </text>
<text text-anchor="start" x="518.13" y="-1871.2" font-family="Arial" font-size="14.00" fill="#666666">[uuid]</text>
<polygon fill="none" stroke="black" points="435.67,-1828.2 435.67,-1859 647.04,-1859 647.04,-1828.2 435.67,-1828.2"/>
<text text-anchor="start" x="442.67" y="-1840.4" font-family="Arial" font-size="14.00">customer </text>
<text text-anchor="start" x="504.13" y="-1840.4" font-family="Arial" font-size="14.00" fill="#666666">[Contact]</text>
<polygon fill="none" stroke="black" points="435.67,-1797.4 435.67,-1828.2 647.04,-1828.2 647.04,-1797.4 435.67,-1797.4"/>
<text text-anchor="start" x="442.67" y="-1809.6" font-family="Arial" font-size="14.00">updatedAt </text>
<text text-anchor="start" x="510.39" y="-1809.6" font-family="Arial" font-size="14.00" fill="#666666">[datetime]</text>
<polygon fill="none" stroke="black" points="435.67,-1766.6 435.67,-1797.4 647.04,-1797.4 647.04,-1766.6 435.67,-1766.6"/>
<text text-anchor="start" x="442.67" y="-1778.8" font-family="Arial" font-size="14.00">createdAt </text>
<text text-anchor="start" x="506.48" y="-1778.8" font-family="Arial" font-size="14.00" fill="#666666">[datetime]</text>
<polygon fill="none" stroke="black" points="435.67,-1735.8 435.67,-1766.6 647.04,-1766.6 647.04,-1735.8 435.67,-1735.8"/>
<text text-anchor="start" x="442.67" y="-1748" font-family="Arial" font-size="14.00">shipmentNumber </text>
<text text-anchor="start" x="553.16" y="-1748" font-family="Arial" font-size="14.00" fill="#666666">[string]</text>
<polygon fill="none" stroke="black" points="435.67,-1705 435.67,-1735.8 647.04,-1735.8 647.04,-1705 435.67,-1705"/>
<text text-anchor="start" x="442.67" y="-1717.2" font-family="Arial" font-size="14.00">salesOrderID </text>
<text text-anchor="start" x="529.03" y="-1717.2" font-family="Arial" font-size="14.00" fill="#666666">[uuid]</text>
<polygon fill="none" stroke="black" points="435.67,-1674.2 435.67,-1705 647.04,-1705 647.04,-1674.2 435.67,-1674.2"/>
<text text-anchor="start" x="442.67" y="-1686.4" font-family="Arial" font-size="14.00">salesOrder </text>
<text text-anchor="start" x="515.03" y="-1686.4" font-family="Arial" font-size="14.00" fill="#666666">[SalesOrder]</text>
<polygon fill="none" stroke="black" points="435.67,-1643.4 435.67,-1674.2 647.04,-1674.2 647.04,-1643.4 435.67,-1643.4"/>
<text text-anchor="start" x="442.67" y="-1655.6" font-family="Arial" font-size="14.00">date </text>
<text text-anchor="start" x="473.81" y="-1655.6" font-family="Arial" font-size="14.00" fill="#666666">[datetime]</text>
<polygon fill="none" stroke="black" points="435.67,-1612.6 435.67,-1643.4 647.04,-1643.4 647.04,-1612.6 435.67,-1612.6"/>
<text text-anchor="start" x="442.67" y="-1624.8" font-family="Arial" font-size="14.00">active </text>
<text text-anchor="start" x="483.13" y="-1624.8" font-family="Arial" font-size="14.00" fill="#666666">[boolean]</text>
</g>
<!-- Shipment&#45;&gt;SalesOrder -->
<g id="edge2" class="edge">
<title>Shipment:salesOrderID&#45;&gt;SalesOrder:id</title>
<path fill="none" stroke="black" d="M424.29,-1719.92C262,-1704.05 661.66,-1297.6 476.52,-1297.6"/>
<polygon fill="black" stroke="black" points="424.35,-1719.92 434.13,-1724.88 429.68,-1720.17 434,-1720.37 434,-1720.37 434,-1720.37 429.68,-1720.17 434.54,-1715.89 424.35,-1719.92"/>
<text text-anchor="start" x="339.85" y="-1730.4" font-family="Arial" font-size="10.00">Source: SalesOrder</text>
</g>
</g>
</svg>
