<?xml version="1.0" encoding="UTF-8" standalone="no"?>
<!DOCTYPE svg PUBLIC "-//W3C//DTD SVG 1.1//EN"
 "http://www.w3.org/Graphics/SVG/1.1/DTD/svg11.dtd">
<!-- Generated by graphviz version 12.1.2 (20240928.0832)
 -->
<!-- Title: Shipment Pages: 1 -->
<svg width="672pt" height="1807pt"
 viewBox="0.00 0.00 672.24 1807.20" xmlns="http://www.w3.org/2000/svg" xmlns:xlink="http://www.w3.org/1999/xlink">
<g id="graph0" class="graph" transform="scale(1 1) rotate(0) translate(4 1803.2)">
<title>Shipment</title>
<polygon fill="white" stroke="none" points="-4,4 -4,-1803.2 668.24,-1803.2 668.24,4 -4,4"/>
<!-- Shipment -->
<g id="node1" class="node">
<title>Shipment</title>
<polygon fill="#efefef" stroke="none" points="205.69,-1128.2 205.69,-1163.8 417.05,-1163.8 417.05,-1128.2 205.69,-1128.2"/>
<polygon fill="none" stroke="black" points="205.69,-1128.2 205.69,-1163.8 417.05,-1163.8 417.05,-1128.2 205.69,-1128.2"/>
<text text-anchor="start" x="212.69" y="-1141.6" font-family="Arial Bold" font-size="18.00">Shipment</text>
<text text-anchor="start" x="281.69" y="-1141.6" font-family="Arial" font-size="14.00">    </text>
<text text-anchor="start" x="312.81" y="-1141.6" font-family="Arial" font-size="14.00" fill="#666666">[TailorDB.Type]</text>
<polygon fill="none" stroke="black" points="205.69,-1097.4 205.69,-1128.2 417.05,-1128.2 417.05,-1097.4 205.69,-1097.4"/>
<text text-anchor="start" x="212.69" y="-1109.6" font-family="Arial" font-size="14.00">id </text>
<text text-anchor="start" x="227.47" y="-1109.6" font-family="Arial" font-size="14.00" fill="#666666">[uuid]</text>
<polygon fill="none" stroke="black" points="205.69,-1066.6 205.69,-1097.4 417.05,-1097.4 417.05,-1066.6 205.69,-1066.6"/>
<text text-anchor="start" x="212.69" y="-1078.8" font-family="Arial" font-size="14.00">date </text>
<text text-anchor="start" x="243.82" y="-1078.8" font-family="Arial" font-size="14.00" fill="#666666">[datetime]</text>
<polygon fill="none" stroke="black" points="205.69,-1035.8 205.69,-1066.6 417.05,-1066.6 417.05,-1035.8 205.69,-1035.8"/>
<text text-anchor="start" x="212.69" y="-1048" font-family="Arial" font-size="14.00">updatedAt </text>
<text text-anchor="start" x="280.41" y="-1048" font-family="Arial" font-size="14.00" fill="#666666">[datetime]</text>
<polygon fill="none" stroke="black" points="205.69,-1005 205.69,-1035.8 417.05,-1035.8 417.05,-1005 205.69,-1005"/>
<text text-anchor="start" x="212.69" y="-1017.2" font-family="Arial" font-size="14.00">createdAt </text>
<text text-anchor="start" x="276.5" y="-1017.2" font-family="Arial" font-size="14.00" fill="#666666">[datetime]</text>
<polygon fill="none" stroke="black" points="205.69,-974.2 205.69,-1005 417.05,-1005 417.05,-974.2 205.69,-974.2"/>
<text text-anchor="start" x="212.69" y="-986.4" font-family="Arial" font-size="14.00">shipmentNumber </text>
<text text-anchor="start" x="323.17" y="-986.4" font-family="Arial" font-size="14.00" fill="#666666">[string]</text>
<polygon fill="none" stroke="black" points="205.69,-943.4 205.69,-974.2 417.05,-974.2 417.05,-943.4 205.69,-943.4"/>
<text text-anchor="start" x="212.69" y="-955.6" font-family="Arial" font-size="14.00">salesOrderID </text>
<text text-anchor="start" x="299.04" y="-955.6" font-family="Arial" font-size="14.00" fill="#666666">[uuid]</text>
<polygon fill="none" stroke="black" points="205.69,-912.6 205.69,-943.4 417.05,-943.4 417.05,-912.6 205.69,-912.6"/>
<text text-anchor="start" x="212.69" y="-924.8" font-family="Arial" font-size="14.00">salesOrder </text>
<text text-anchor="start" x="285.04" y="-924.8" font-family="Arial" font-size="14.00" fill="#666666">[SalesOrder]</text>
<polygon fill="none" stroke="black" points="205.69,-881.8 205.69,-912.6 417.05,-912.6 417.05,-881.8 205.69,-881.8"/>
<text text-anchor="start" x="212.69" y="-894" font-family="Arial" font-size="14.00">active </text>
<text text-anchor="start" x="253.15" y="-894" font-family="Arial" font-size="14.00" fill="#666666">[boolean]</text>
<polygon fill="none" stroke="black" points="205.69,-851 205.69,-881.8 417.05,-881.8 417.05,-851 205.69,-851"/>
<text text-anchor="start" x="212.69" y="-863.2" font-family="Arial" font-size="14.00">customerID </text>
<text text-anchor="start" x="288.15" y="-863.2" font-family="Arial" font-size="14.00" fill="#666666">[uuid]</text>
<polygon fill="none" stroke="black" points="205.69,-820.2 205.69,-851 417.05,-851 417.05,-820.2 205.69,-820.2"/>
<text text-anchor="start" x="212.69" y="-832.4" font-family="Arial" font-size="14.00">customer </text>
<text text-anchor="start" x="274.15" y="-832.4" font-family="Arial" font-size="14.00" fill="#666666">[Contact]</text>
<polygon fill="none" stroke="black" stroke-width="3" points="204.19,-818.7 204.19,-1165.3 418.55,-1165.3 418.55,-818.7 204.19,-818.7"/>
</g>
<!-- SalesOrder -->
<g id="node4" class="node">
<title>SalesOrder</title>
<polygon fill="#efefef" stroke="none" points="43.2,-597.6 43.2,-633.2 265.54,-633.2 265.54,-597.6 43.2,-597.6"/>
<polygon fill="none" stroke="black" points="43.2,-597.6 43.2,-633.2 265.54,-633.2 265.54,-597.6 43.2,-597.6"/>
<text text-anchor="start" x="50.2" y="-611" font-family="Arial Bold" font-size="18.00">SalesOrder</text>
<text text-anchor="start" x="130.17" y="-611" font-family="Arial" font-size="14.00">    </text>
<text text-anchor="start" x="161.29" y="-611" font-family="Arial" font-size="14.00" fill="#666666">[TailorDB.Type]</text>
<polygon fill="none" stroke="black" points="43.2,-566.8 43.2,-597.6 265.54,-597.6 265.54,-566.8 43.2,-566.8"/>
<text text-anchor="start" x="50.2" y="-579" font-family="Arial" font-size="14.00">id </text>
<text text-anchor="start" x="64.99" y="-579" font-family="Arial" font-size="14.00" fill="#666666">[uuid]</text>
<polygon fill="none" stroke="black" points="43.2,-536 43.2,-566.8 265.54,-566.8 265.54,-536 43.2,-536"/>
<text text-anchor="start" x="50.2" y="-548.2" font-family="Arial" font-size="14.00">updatedAt </text>
<text text-anchor="start" x="117.92" y="-548.2" font-family="Arial" font-size="14.00" fill="#666666">[datetime]</text>
<polygon fill="none" stroke="black" points="43.2,-505.2 43.2,-536 265.54,-536 265.54,-505.2 43.2,-505.2"/>
<text text-anchor="start" x="50.2" y="-517.4" font-family="Arial" font-size="14.00">customerName </text>
<text text-anchor="start" x="149.01" y="-517.4" font-family="Arial" font-size="14.00" fill="#666666">[string]</text>
<polygon fill="none" stroke="black" points="43.2,-474.4 43.2,-505.2 265.54,-505.2 265.54,-474.4 43.2,-474.4"/>
<text text-anchor="start" x="50.2" y="-486.6" font-family="Arial" font-size="14.00">customerEmail </text>
<text text-anchor="start" x="146.67" y="-486.6" font-family="Arial" font-size="14.00" fill="#666666">[string]</text>
<polygon fill="none" stroke="black" points="43.2,-443.6 43.2,-474.4 265.54,-474.4 265.54,-443.6 43.2,-443.6"/>
<text text-anchor="start" x="50.2" y="-455.8" font-family="Arial" font-size="14.00">shipStationOrderStatus </text>
<text text-anchor="start" x="198.83" y="-455.8" font-family="Arial" font-size="14.00" fill="#666666">[enum]</text>
<polygon fill="none" stroke="black" points="43.2,-412.8 43.2,-443.6 265.54,-443.6 265.54,-412.8 43.2,-412.8"/>
<text text-anchor="start" x="50.2" y="-425" font-family="Arial" font-size="14.00">currency </text>
<text text-anchor="start" x="107.77" y="-425" font-family="Arial" font-size="14.00" fill="#666666">[string]</text>
<polygon fill="none" stroke="black" points="43.2,-382 43.2,-412.8 265.54,-412.8 265.54,-382 43.2,-382"/>
<text text-anchor="start" x="50.2" y="-394.2" font-family="Arial" font-size="14.00">currentSubtotalPrice </text>
<text text-anchor="start" x="180.93" y="-394.2" font-family="Arial" font-size="14.00" fill="#666666">[string]</text>
<polygon fill="none" stroke="black" points="43.2,-351.2 43.2,-382 265.54,-382 265.54,-351.2 43.2,-351.2"/>
<text text-anchor="start" x="50.2" y="-363.4" font-family="Arial" font-size="14.00">createdAt </text>
<text text-anchor="start" x="114.01" y="-363.4" font-family="Arial" font-size="14.00" fill="#666666">[datetime]</text>
<polygon fill="none" stroke="black" points="43.2,-320.4 43.2,-351.2 265.54,-351.2 265.54,-320.4 43.2,-320.4"/>
<text text-anchor="start" x="50.2" y="-332.6" font-family="Arial" font-size="14.00">shippedAt </text>
<text text-anchor="start" x="116.36" y="-332.6" font-family="Arial" font-size="14.00" fill="#666666">[datetime]</text>
<polygon fill="none" stroke="black" points="43.2,-289.6 43.2,-320.4 265.54,-320.4 265.54,-289.6 43.2,-289.6"/>
<text text-anchor="start" x="50.2" y="-301.8" font-family="Arial" font-size="14.00">orderNumber </text>
<text text-anchor="start" x="136.57" y="-301.8" font-family="Arial" font-size="14.00" fill="#666666">[integer]</text>
<polygon fill="none" stroke="black" points="43.2,-258.8 43.2,-289.6 265.54,-289.6 265.54,-258.8 43.2,-258.8"/>
<text text-anchor="start" x="50.2" y="-271" font-family="Arial" font-size="14.00">cancelReason </text>
<text text-anchor="start" x="142.81" y="-271" font-family="Arial" font-size="14.00" fill="#666666">[string]</text>
<polygon fill="none" stroke="black" points="43.2,-228 43.2,-258.8 265.54,-258.8 265.54,-228 43.2,-228"/>
<text text-anchor="start" x="50.2" y="-240.2" font-family="Arial" font-size="14.00">cancelledAt </text>
<text text-anchor="start" x="126.47" y="-240.2" font-family="Arial" font-size="14.00" fill="#666666">[datetime]</text>
<polygon fill="none" stroke="black" points="43.2,-197.2 43.2,-228 265.54,-228 265.54,-197.2 43.2,-197.2"/>
<text text-anchor="start" x="50.2" y="-209.4" font-family="Arial" font-size="14.00">customerID </text>
<text text-anchor="start" x="125.66" y="-209.4" font-family="Arial" font-size="14.00" fill="#666666">[uuid]</text>
<polygon fill="none" stroke="black" points="43.2,-166.4 43.2,-197.2 265.54,-197.2 265.54,-166.4 43.2,-166.4"/>
<text text-anchor="start" x="50.2" y="-178.6" font-family="Arial" font-size="14.00">shopifyID </text>
<text text-anchor="start" x="112.45" y="-178.6" font-family="Arial" font-size="14.00" fill="#666666">[string]</text>
<polygon fill="none" stroke="black" points="43.2,-135.6 43.2,-166.4 265.54,-166.4 265.54,-135.6 43.2,-135.6"/>
<text text-anchor="start" x="50.2" y="-147.8" font-family="Arial" font-size="14.00">active </text>
<text text-anchor="start" x="90.66" y="-147.8" font-family="Arial" font-size="14.00" fill="#666666">[boolean]</text>
<polygon fill="none" stroke="black" points="43.2,-104.8 43.2,-135.6 265.54,-135.6 265.54,-104.8 43.2,-104.8"/>
<text text-anchor="start" x="50.2" y="-117" font-family="Arial" font-size="14.00">customer </text>
<text text-anchor="start" x="111.66" y="-117" font-family="Arial" font-size="14.00" fill="#666666">[Contact]</text>
</g>
<!-- Shipment&#45;&gt;SalesOrder -->
<g id="edge3" class="edge">
<title>Shipment:salesOrderID&#45;&gt;SalesOrder:id</title>
<path fill="none" stroke="black" d="M194.46,-958.17C127.92,-949.35 184.18,-849.44 205.69,-774 219.64,-725.07 251.46,-725.3 265.54,-676.4 277.12,-636.17 308.41,-582.2 266.54,-582.2"/>
<polygon fill="black" stroke="black" points="194.37,-958.17 204.08,-963.27 199.69,-958.49 204.02,-958.76 204.02,-958.76 204.02,-958.76 199.69,-958.49 204.63,-954.29 194.37,-958.17"/>
<text text-anchor="start" x="109.87" y="-968.8" font-family="Arial" font-size="10.00">Source: SalesOrder</text>
</g>
<!-- Contact -->
<g id="node5" class="node">
<title>Contact</title>
<polygon fill="#efefef" stroke="none" points="370.19,-659.2 370.19,-694.8 568.55,-694.8 568.55,-659.2 370.19,-659.2"/>
<polygon fill="none" stroke="black" points="370.19,-659.2 370.19,-694.8 568.55,-694.8 568.55,-659.2 370.19,-659.2"/>
<text text-anchor="start" x="377.19" y="-672.6" font-family="Arial Bold" font-size="18.00">Contact</text>
<text text-anchor="start" x="433.18" y="-672.6" font-family="Arial" font-size="14.00">    </text>
<text text-anchor="start" x="464.3" y="-672.6" font-family="Arial" font-size="14.00" fill="#666666">[TailorDB.Type]</text>
<polygon fill="none" stroke="black" points="370.19,-628.4 370.19,-659.2 568.55,-659.2 568.55,-628.4 370.19,-628.4"/>
<text text-anchor="start" x="377.19" y="-640.6" font-family="Arial" font-size="14.00">id </text>
<text text-anchor="start" x="391.98" y="-640.6" font-family="Arial" font-size="14.00" fill="#666666">[uuid]</text>
<polygon fill="none" stroke="black" points="370.19,-597.6 370.19,-628.4 568.55,-628.4 568.55,-597.6 370.19,-597.6"/>
<text text-anchor="start" x="377.19" y="-609.8" font-family="Arial" font-size="14.00">createdAt </text>
<text text-anchor="start" x="441.01" y="-609.8" font-family="Arial" font-size="14.00" fill="#666666">[datetime]</text>
<polygon fill="none" stroke="black" points="370.19,-566.8 370.19,-597.6 568.55,-597.6 568.55,-566.8 370.19,-566.8"/>
<text text-anchor="start" x="377.19" y="-579" font-family="Arial" font-size="14.00">province </text>
<text text-anchor="start" x="434" y="-579" font-family="Arial" font-size="14.00" fill="#666666">[string]</text>
<polygon fill="none" stroke="black" points="370.19,-536 370.19,-566.8 568.55,-566.8 568.55,-536 370.19,-536"/>
<text text-anchor="start" x="377.19" y="-548.2" font-family="Arial" font-size="14.00">countryCode </text>
<text text-anchor="start" x="460.46" y="-548.2" font-family="Arial" font-size="14.00" fill="#666666">[string]</text>
<polygon fill="none" stroke="black" points="370.19,-505.2 370.19,-536 568.55,-536 568.55,-505.2 370.19,-505.2"/>
<text text-anchor="start" x="377.19" y="-517.4" font-family="Arial" font-size="14.00">active </text>
<text text-anchor="start" x="417.66" y="-517.4" font-family="Arial" font-size="14.00" fill="#666666">[boolean]</text>
<polygon fill="none" stroke="black" points="370.19,-474.4 370.19,-505.2 568.55,-505.2 568.55,-474.4 370.19,-474.4"/>
<text text-anchor="start" x="377.19" y="-486.6" font-family="Arial" font-size="14.00">address2 </text>
<text text-anchor="start" x="438.68" y="-486.6" font-family="Arial" font-size="14.00" fill="#666666">[string]</text>
<polygon fill="none" stroke="black" points="370.19,-443.6 370.19,-474.4 568.55,-474.4 568.55,-443.6 370.19,-443.6"/>
<text text-anchor="start" x="377.19" y="-455.8" font-family="Arial" font-size="14.00">city </text>
<text text-anchor="start" x="402.08" y="-455.8" font-family="Arial" font-size="14.00" fill="#666666">[string]</text>
<polygon fill="none" stroke="black" points="370.19,-412.8 370.19,-443.6 568.55,-443.6 568.55,-412.8 370.19,-412.8"/>
<text text-anchor="start" x="377.19" y="-425" font-family="Arial" font-size="14.00">provinceCode </text>
<text text-anchor="start" x="467.47" y="-425" font-family="Arial" font-size="14.00" fill="#666666">[string]</text>
<polygon fill="none" stroke="black" points="370.19,-382 370.19,-412.8 568.55,-412.8 568.55,-382 370.19,-382"/>
<text text-anchor="start" x="377.19" y="-394.2" font-family="Arial" font-size="14.00">creditLimit </text>
<text text-anchor="start" x="444.88" y="-394.2" font-family="Arial" font-size="14.00" fill="#666666">[float]</text>
<polygon fill="none" stroke="black" points="370.19,-351.2 370.19,-382 568.55,-382 568.55,-351.2 370.19,-351.2"/>
<text text-anchor="start" x="377.19" y="-363.4" font-family="Arial" font-size="14.00">name </text>
<text text-anchor="start" x="416.1" y="-363.4" font-family="Arial" font-size="14.00" fill="#666666">[string]</text>
<polygon fill="none" stroke="black" points="370.19,-320.4 370.19,-351.2 568.55,-351.2 568.55,-320.4 370.19,-320.4"/>
<text text-anchor="start" x="377.19" y="-332.6" font-family="Arial" font-size="14.00">address1 </text>
<text text-anchor="start" x="438.68" y="-332.6" font-family="Arial" font-size="14.00" fill="#666666">[string]</text>
<polygon fill="none" stroke="black" points="370.19,-289.6 370.19,-320.4 568.55,-320.4 568.55,-289.6 370.19,-289.6"/>
<text text-anchor="start" x="377.19" y="-301.8" font-family="Arial" font-size="14.00">country </text>
<text text-anchor="start" x="426.99" y="-301.8" font-family="Arial" font-size="14.00" fill="#666666">[string]</text>
<polygon fill="none" stroke="black" points="370.19,-258.8 370.19,-289.6 568.55,-289.6 568.55,-258.8 370.19,-258.8"/>
<text text-anchor="start" x="377.19" y="-271" font-family="Arial" font-size="14.00">zip </text>
<text text-anchor="start" x="398.98" y="-271" font-family="Arial" font-size="14.00" fill="#666666">[string]</text>
<polygon fill="none" stroke="black" points="370.19,-228 370.19,-258.8 568.55,-258.8 568.55,-228 370.19,-228"/>
<text text-anchor="start" x="377.19" y="-240.2" font-family="Arial" font-size="14.00">company </text>
<text text-anchor="start" x="437.89" y="-240.2" font-family="Arial" font-size="14.00" fill="#666666">[string]</text>
<polygon fill="none" stroke="black" points="370.19,-197.2 370.19,-228 568.55,-228 568.55,-197.2 370.19,-197.2"/>
<text text-anchor="start" x="377.19" y="-209.4" font-family="Arial" font-size="14.00">openBalance </text>
<text text-anchor="start" x="462.82" y="-209.4" font-family="Arial" font-size="14.00" fill="#666666">[float]</text>
<polygon fill="none" stroke="black" points="370.19,-166.4 370.19,-197.2 568.55,-197.2 568.55,-166.4 370.19,-166.4"/>
<text text-anchor="start" x="377.19" y="-178.6" font-family="Arial" font-size="14.00">email </text>
<text text-anchor="start" x="414.54" y="-178.6" font-family="Arial" font-size="14.00" fill="#666666">[string]</text>
<polygon fill="none" stroke="black" points="370.19,-135.6 370.19,-166.4 568.55,-166.4 568.55,-135.6 370.19,-135.6"/>
<text text-anchor="start" x="377.19" y="-147.8" font-family="Arial" font-size="14.00">phone </text>
<text text-anchor="start" x="420.01" y="-147.8" font-family="Arial" font-size="14.00" fill="#666666">[string]</text>
<polygon fill="none" stroke="black" points="370.19,-104.8 370.19,-135.6 568.55,-135.6 568.55,-104.8 370.19,-104.8"/>
<text text-anchor="start" x="377.19" y="-117" font-family="Arial" font-size="14.00">updatedAt </text>
<text text-anchor="start" x="444.92" y="-117" font-family="Arial" font-size="14.00" fill="#666666">[datetime]</text>
<polygon fill="none" stroke="black" points="370.19,-74 370.19,-104.8 568.55,-104.8 568.55,-74 370.19,-74"/>
<text text-anchor="start" x="377.19" y="-86.2" font-family="Arial" font-size="14.00">quickBookCustomerId </text>
<text text-anchor="start" x="518.03" y="-86.2" font-family="Arial" font-size="14.00" fill="#666666">[string]</text>
<polygon fill="none" stroke="black" points="370.19,-43.2 370.19,-74 568.55,-74 568.55,-43.2 370.19,-43.2"/>
<text text-anchor="start" x="377.19" y="-55.4" font-family="Arial" font-size="14.00">availableCredit </text>
<text text-anchor="start" x="473.69" y="-55.4" font-family="Arial" font-size="14.00" fill="#666666">[float]</text>
</g>
<!-- Shipment&#45;&gt;Contact -->
<g id="edge4" class="edge">
<title>Shipment:customerID&#45;&gt;Contact:id</title>
<path fill="none" stroke="black" d="M428.3,-864.88C454.54,-855.71 433.61,-807.15 417.05,-774 405.32,-750.51 381.93,-761.5 370.19,-738 351.49,-700.54 327.32,-643.8 369.19,-643.8"/>
<polygon fill="black" stroke="black" points="428.28,-864.88 417.72,-861.9 423,-865.66 418.72,-866.3 418.72,-866.3 418.72,-866.3 423,-865.66 419.05,-870.8 428.28,-864.88"/>
<text text-anchor="start" x="425.05" y="-876.4" font-family="Arial" font-size="10.00">ForeignKeyType: Contact</text>
</g>
<!-- Invoice -->
<g id="node2" class="node">
<title>Invoice</title>
<polygon fill="#efefef" stroke="none" points="43.2,-1705 43.2,-1740.6 239.54,-1740.6 239.54,-1705 43.2,-1705"/>
<polygon fill="none" stroke="black" points="43.2,-1705 43.2,-1740.6 239.54,-1740.6 239.54,-1705 43.2,-1705"/>
<text text-anchor="start" x="50.2" y="-1718.4" font-family="Arial Bold" font-size="18.00">Invoice</text>
<text text-anchor="start" x="104.17" y="-1718.4" font-family="Arial" font-size="14.00">    </text>
<text text-anchor="start" x="135.29" y="-1718.4" font-family="Arial" font-size="14.00" fill="#666666">[TailorDB.Type]</text>
<polygon fill="none" stroke="black" points="43.2,-1674.2 43.2,-1705 239.54,-1705 239.54,-1674.2 43.2,-1674.2"/>
<text text-anchor="start" x="50.2" y="-1686.4" font-family="Arial" font-size="14.00">id </text>
<text text-anchor="start" x="64.99" y="-1686.4" font-family="Arial" font-size="14.00" fill="#666666">[uuid]</text>
<polygon fill="none" stroke="black" points="43.2,-1643.4 43.2,-1674.2 239.54,-1674.2 239.54,-1643.4 43.2,-1643.4"/>
<text text-anchor="start" x="50.2" y="-1655.6" font-family="Arial" font-size="14.00">pushedToQBAt </text>
<text text-anchor="start" x="149.81" y="-1655.6" font-family="Arial" font-size="14.00" fill="#666666">[datetime]</text>
<polygon fill="none" stroke="black" points="43.2,-1612.6 43.2,-1643.4 239.54,-1643.4 239.54,-1612.6 43.2,-1612.6"/>
<text text-anchor="start" x="50.2" y="-1624.8" font-family="Arial" font-size="14.00">createdAt </text>
<text text-anchor="start" x="114.01" y="-1624.8" font-family="Arial" font-size="14.00" fill="#666666">[datetime]</text>
<polygon fill="none" stroke="black" points="43.2,-1581.8 43.2,-1612.6 239.54,-1612.6 239.54,-1581.8 43.2,-1581.8"/>
<text text-anchor="start" x="50.2" y="-1594" font-family="Arial" font-size="14.00">customer </text>
<text text-anchor="start" x="111.66" y="-1594" font-family="Arial" font-size="14.00" fill="#666666">[Contact]</text>
<polygon fill="none" stroke="black" points="43.2,-1551 43.2,-1581.8 239.54,-1581.8 239.54,-1551 43.2,-1551"/>
<text text-anchor="start" x="50.2" y="-1563.2" font-family="Arial" font-size="14.00">shipmentID </text>
<text text-anchor="start" x="124.9" y="-1563.2" font-family="Arial" font-size="14.00" fill="#666666">[uuid]</text>
<polygon fill="none" stroke="black" points="43.2,-1520.2 43.2,-1551 239.54,-1551 239.54,-1520.2 43.2,-1520.2"/>
<text text-anchor="start" x="50.2" y="-1532.4" font-family="Arial" font-size="14.00">shipment </text>
<text text-anchor="start" x="110.9" y="-1532.4" font-family="Arial" font-size="14.00" fill="#666666">[Shipment]</text>
<polygon fill="none" stroke="black" points="43.2,-1489.4 43.2,-1520.2 239.54,-1520.2 239.54,-1489.4 43.2,-1489.4"/>
<text text-anchor="start" x="50.2" y="-1501.6" font-family="Arial" font-size="14.00">date </text>
<text text-anchor="start" x="81.34" y="-1501.6" font-family="Arial" font-size="14.00" fill="#666666">[datetime]</text>
<polygon fill="none" stroke="black" points="43.2,-1458.6 43.2,-1489.4 239.54,-1489.4 239.54,-1458.6 43.2,-1458.6"/>
<text text-anchor="start" x="50.2" y="-1470.8" font-family="Arial" font-size="14.00">invoiceStatus </text>
<text text-anchor="start" x="137.36" y="-1470.8" font-family="Arial" font-size="14.00" fill="#666666">[enum]</text>
<polygon fill="none" stroke="black" points="43.2,-1427.8 43.2,-1458.6 239.54,-1458.6 239.54,-1427.8 43.2,-1427.8"/>
<text text-anchor="start" x="50.2" y="-1440" font-family="Arial" font-size="14.00">active </text>
<text text-anchor="start" x="90.66" y="-1440" font-family="Arial" font-size="14.00" fill="#666666">[boolean]</text>
<polygon fill="none" stroke="black" points="43.2,-1397 43.2,-1427.8 239.54,-1427.8 239.54,-1397 43.2,-1397"/>
<text text-anchor="start" x="50.2" y="-1409.2" font-family="Arial" font-size="14.00">invoiceNumber </text>
<text text-anchor="start" x="147.46" y="-1409.2" font-family="Arial" font-size="14.00" fill="#666666">[string]</text>
<polygon fill="none" stroke="black" points="43.2,-1366.2 43.2,-1397 239.54,-1397 239.54,-1366.2 43.2,-1366.2"/>
<text text-anchor="start" x="50.2" y="-1378.4" font-family="Arial" font-size="14.00">customerID </text>
<text text-anchor="start" x="125.66" y="-1378.4" font-family="Arial" font-size="14.00" fill="#666666">[uuid]</text>
<polygon fill="none" stroke="black" points="43.2,-1335.4 43.2,-1366.2 239.54,-1366.2 239.54,-1335.4 43.2,-1335.4"/>
<text text-anchor="start" x="50.2" y="-1347.6" font-family="Arial" font-size="14.00">quickbookInvoiceId </text>
<text text-anchor="start" x="173.16" y="-1347.6" font-family="Arial" font-size="14.00" fill="#666666">[string]</text>
<polygon fill="none" stroke="black" points="43.2,-1304.6 43.2,-1335.4 239.54,-1335.4 239.54,-1304.6 43.2,-1304.6"/>
<text text-anchor="start" x="50.2" y="-1316.8" font-family="Arial" font-size="14.00">updatedAt </text>
<text text-anchor="start" x="117.92" y="-1316.8" font-family="Arial" font-size="14.00" fill="#666666">[datetime]</text>
</g>
<!-- Invoice&#45;&gt;Shipment -->
<g id="edge1" class="edge">
<title>Invoice:shipmentID&#45;&gt;Shipment:id</title>
<path fill="none" stroke="black" d="M250.63,-1564.31C303.02,-1540.66 258.04,-1322.74 239.54,-1261.4 231.64,-1235.21 213.67,-1236.16 205.69,-1210 193.07,-1168.68 161.48,-1112.8 204.69,-1112.8"/>
<polygon fill="black" stroke="black" points="250.66,-1564.31 239.96,-1561.93 245.44,-1565.39 241.19,-1566.26 241.19,-1566.26 241.19,-1566.26 245.44,-1565.39 241.78,-1570.74 250.66,-1564.31"/>
<text text-anchor="start" x="247.54" y="-1576.4" font-family="Arial" font-size="10.00">Source: Shipment</text>
</g>
<!-- ShipmentLineItem -->
<g id="node3" class="node">
<title>ShipmentLineItem</title>
<polygon fill="#efefef" stroke="none" points="343.7,-1720.4 343.7,-1756 621.04,-1756 621.04,-1720.4 343.7,-1720.4"/>
<polygon fill="none" stroke="black" points="343.7,-1720.4 343.7,-1756 621.04,-1756 621.04,-1720.4 343.7,-1720.4"/>
<text text-anchor="start" x="350.7" y="-1733.8" font-family="Arial Bold" font-size="18.00">ShipmentLineItem</text>
<text text-anchor="start" x="485.67" y="-1733.8" font-family="Arial" font-size="14.00">    </text>
<text text-anchor="start" x="516.79" y="-1733.8" font-family="Arial" font-size="14.00" fill="#666666">[TailorDB.Type]</text>
<polygon fill="none" stroke="black" points="343.7,-1689.6 343.7,-1720.4 621.04,-1720.4 621.04,-1689.6 343.7,-1689.6"/>
<text text-anchor="start" x="350.7" y="-1701.8" font-family="Arial" font-size="14.00">id </text>
<text text-anchor="start" x="365.49" y="-1701.8" font-family="Arial" font-size="14.00" fill="#666666">[uuid]</text>
<polygon fill="none" stroke="black" points="343.7,-1658.8 343.7,-1689.6 621.04,-1689.6 621.04,-1658.8 343.7,-1658.8"/>
<text text-anchor="start" x="350.7" y="-1671" font-family="Arial" font-size="14.00">shipment </text>
<text text-anchor="start" x="411.4" y="-1671" font-family="Arial" font-size="14.00" fill="#666666">[Shipment]</text>
<polygon fill="none" stroke="black" points="343.7,-1628 343.7,-1658.8 621.04,-1658.8 621.04,-1628 343.7,-1628"/>
<text text-anchor="start" x="350.7" y="-1640.2" font-family="Arial" font-size="14.00">unitPrice </text>
<text text-anchor="start" x="409.06" y="-1640.2" font-family="Arial" font-size="14.00" fill="#666666">[float]</text>
<polygon fill="none" stroke="black" points="343.7,-1597.2 343.7,-1628 621.04,-1628 621.04,-1597.2 343.7,-1597.2"/>
<text text-anchor="start" x="350.7" y="-1609.4" font-family="Arial" font-size="14.00">updatedAt </text>
<text text-anchor="start" x="418.42" y="-1609.4" font-family="Arial" font-size="14.00" fill="#666666">[datetime]</text>
<polygon fill="none" stroke="black" points="343.7,-1566.4 343.7,-1597.2 621.04,-1597.2 621.04,-1566.4 343.7,-1566.4"/>
<text text-anchor="start" x="350.7" y="-1578.6" font-family="Arial" font-size="14.00">variantID </text>
<text text-anchor="start" x="410.61" y="-1578.6" font-family="Arial" font-size="14.00" fill="#666666">[uuid]</text>
<polygon fill="none" stroke="black" points="343.7,-1535.6 343.7,-1566.4 621.04,-1566.4 621.04,-1535.6 343.7,-1535.6"/>
<text text-anchor="start" x="350.7" y="-1547.8" font-family="Arial" font-size="14.00">variant </text>
<text text-anchor="start" x="396.61" y="-1547.8" font-family="Arial" font-size="14.00" fill="#666666">[ProductVariant]</text>
<polygon fill="none" stroke="black" points="343.7,-1504.8 343.7,-1535.6 621.04,-1535.6 621.04,-1504.8 343.7,-1504.8"/>
<text text-anchor="start" x="350.7" y="-1517" font-family="Arial" font-size="14.00">taxable </text>
<text text-anchor="start" x="399.73" y="-1517" font-family="Arial" font-size="14.00" fill="#666666">[boolean]</text>
<polygon fill="none" stroke="black" points="343.7,-1474 343.7,-1504.8 621.04,-1504.8 621.04,-1474 343.7,-1474"/>
<text text-anchor="start" x="350.7" y="-1486.2" font-family="Arial" font-size="14.00">shippedAt </text>
<text text-anchor="start" x="416.86" y="-1486.2" font-family="Arial" font-size="14.00" fill="#666666">[datetime]</text>
<polygon fill="none" stroke="black" points="343.7,-1443.2 343.7,-1474 621.04,-1474 621.04,-1443.2 343.7,-1443.2"/>
<text text-anchor="start" x="350.7" y="-1455.4" font-family="Arial" font-size="14.00">shipmentID </text>
<text text-anchor="start" x="425.4" y="-1455.4" font-family="Arial" font-size="14.00" fill="#666666">[uuid]</text>
<polygon fill="none" stroke="black" points="343.7,-1412.4 343.7,-1443.2 621.04,-1443.2 621.04,-1412.4 343.7,-1412.4"/>
<text text-anchor="start" x="350.7" y="-1424.6" font-family="Arial" font-size="14.00">createdAt </text>
<text text-anchor="start" x="414.51" y="-1424.6" font-family="Arial" font-size="14.00" fill="#666666">[datetime]</text>
<polygon fill="none" stroke="black" points="343.7,-1381.6 343.7,-1412.4 621.04,-1412.4 621.04,-1381.6 343.7,-1381.6"/>
<text text-anchor="start" x="350.7" y="-1393.8" font-family="Arial" font-size="14.00">unitCost </text>
<text text-anchor="start" x="405.95" y="-1393.8" font-family="Arial" font-size="14.00" fill="#666666">[float]</text>
<polygon fill="none" stroke="black" points="343.7,-1350.8 343.7,-1381.6 621.04,-1381.6 621.04,-1350.8 343.7,-1350.8"/>
<text text-anchor="start" x="350.7" y="-1363" font-family="Arial" font-size="14.00">quantity </text>
<text text-anchor="start" x="403.62" y="-1363" font-family="Arial" font-size="14.00" fill="#666666">[float]</text>
<polygon fill="none" stroke="black" points="343.7,-1320 343.7,-1350.8 621.04,-1350.8 621.04,-1320 343.7,-1320"/>
<text text-anchor="start" x="350.7" y="-1332.2" font-family="Arial" font-size="14.00">shipmentStatus </text>
<text text-anchor="start" x="451.09" y="-1332.2" font-family="Arial" font-size="14.00" fill="#666666">[enum]</text>
<polygon fill="none" stroke="black" points="343.7,-1289.2 343.7,-1320 621.04,-1320 621.04,-1289.2 343.7,-1289.2"/>
<text text-anchor="start" x="350.7" y="-1301.4" font-family="Arial" font-size="14.00">active </text>
<text text-anchor="start" x="391.16" y="-1301.4" font-family="Arial" font-size="14.00" fill="#666666">[boolean]</text>
</g>
<!-- ShipmentLineItem&#45;&gt;Shipment -->
<g id="edge2" class="edge">
<title>ShipmentLineItem:shipmentID&#45;&gt;Shipment:id</title>
<path fill="none" stroke="black" d="M332.88,-1455.59C299.09,-1432.45 320.58,-1282.91 343.7,-1246 362.98,-1215.22 397.69,-1240.72 417.05,-1210 440.09,-1173.45 461.26,-1112.8 418.05,-1112.8"/>
<polygon fill="black" stroke="black" points="332.82,-1455.57 341.06,-1462.8 337.92,-1457.13 342.06,-1458.4 342.06,-1458.4 342.06,-1458.4 337.92,-1457.13 343.7,-1454.2 332.82,-1455.57"/>
<text text-anchor="start" x="256.21" y="-1468.6" font-family="Arial" font-size="10.00">Source: Shipment</text>
</g>
</g>
</svg>
