<?xml version="1.0" encoding="UTF-8" standalone="no"?>
<!DOCTYPE svg PUBLIC "-//W3C//DTD SVG 1.1//EN"
 "http://www.w3.org/Graphics/SVG/1.1/DTD/svg11.dtd">
<!-- Generated by graphviz version 12.1.2 (20240928.0832)
 -->
<!-- Title: ShipmentLineItem Pages: 1 -->
<svg width="818pt" height="2208pt"
 viewBox="0.00 0.00 818.03 2207.60" xmlns="http://www.w3.org/2000/svg" xmlns:xlink="http://www.w3.org/1999/xlink">
<g id="graph0" class="graph" transform="scale(1 1) rotate(0) translate(4 2203.6)">
<title>ShipmentLineItem</title>
<polygon fill="white" stroke="none" points="-4,4 -4,-2203.6 814.03,-2203.6 814.03,4 -4,4"/>
<!-- ShipmentLineItem -->
<g id="node1" class="node">
<title>ShipmentLineItem</title>
<polygon fill="#efefef" stroke="none" points="266.01,-1313 266.01,-1348.6 543.34,-1348.6 543.34,-1313 266.01,-1313"/>
<polygon fill="none" stroke="black" points="266.01,-1313 266.01,-1348.6 543.34,-1348.6 543.34,-1313 266.01,-1313"/>
<text text-anchor="start" x="273.01" y="-1326.4" font-family="Arial Bold" font-size="18.00">ShipmentLineItem</text>
<text text-anchor="start" x="407.98" y="-1326.4" font-family="Arial" font-size="14.00">    </text>
<text text-anchor="start" x="439.1" y="-1326.4" font-family="Arial" font-size="14.00" fill="#666666">[TailorDB.Type]</text>
<polygon fill="none" stroke="black" points="266.01,-1282.2 266.01,-1313 543.34,-1313 543.34,-1282.2 266.01,-1282.2"/>
<text text-anchor="start" x="273.01" y="-1294.4" font-family="Arial" font-size="14.00">id </text>
<text text-anchor="start" x="287.79" y="-1294.4" font-family="Arial" font-size="14.00" fill="#666666">[uuid]</text>
<polygon fill="none" stroke="black" points="266.01,-1251.4 266.01,-1282.2 543.34,-1282.2 543.34,-1251.4 266.01,-1251.4"/>
<text text-anchor="start" x="273.01" y="-1263.6" font-family="Arial" font-size="14.00">variantID </text>
<text text-anchor="start" x="332.92" y="-1263.6" font-family="Arial" font-size="14.00" fill="#666666">[uuid]</text>
<polygon fill="none" stroke="black" points="266.01,-1220.6 266.01,-1251.4 543.34,-1251.4 543.34,-1220.6 266.01,-1220.6"/>
<text text-anchor="start" x="273.01" y="-1232.8" font-family="Arial" font-size="14.00">variant </text>
<text text-anchor="start" x="318.92" y="-1232.8" font-family="Arial" font-size="14.00" fill="#666666">[ProductVariant]</text>
<polygon fill="none" stroke="black" points="266.01,-1189.8 266.01,-1220.6 543.34,-1220.6 543.34,-1189.8 266.01,-1189.8"/>
<text text-anchor="start" x="273.01" y="-1202" font-family="Arial" font-size="14.00">quantity </text>
<text text-anchor="start" x="325.93" y="-1202" font-family="Arial" font-size="14.00" fill="#666666">[float]</text>
<polygon fill="none" stroke="black" points="266.01,-1159 266.01,-1189.8 543.34,-1189.8 543.34,-1159 266.01,-1159"/>
<text text-anchor="start" x="273.01" y="-1171.2" font-family="Arial" font-size="14.00">active </text>
<text text-anchor="start" x="313.47" y="-1171.2" font-family="Arial" font-size="14.00" fill="#666666">[boolean]</text>
<polygon fill="none" stroke="black" points="266.01,-1128.2 266.01,-1159 543.34,-1159 543.34,-1128.2 266.01,-1128.2"/>
<text text-anchor="start" x="273.01" y="-1140.4" font-family="Arial" font-size="14.00">shipment </text>
<text text-anchor="start" x="333.7" y="-1140.4" font-family="Arial" font-size="14.00" fill="#666666">[Shipment]</text>
<polygon fill="none" stroke="black" points="266.01,-1097.4 266.01,-1128.2 543.34,-1128.2 543.34,-1097.4 266.01,-1097.4"/>
<text text-anchor="start" x="273.01" y="-1109.6" font-family="Arial" font-size="14.00">unitCost </text>
<text text-anchor="start" x="328.25" y="-1109.6" font-family="Arial" font-size="14.00" fill="#666666">[float]</text>
<polygon fill="none" stroke="black" points="266.01,-1066.6 266.01,-1097.4 543.34,-1097.4 543.34,-1066.6 266.01,-1066.6"/>
<text text-anchor="start" x="273.01" y="-1078.8" font-family="Arial" font-size="14.00">unitPrice </text>
<text text-anchor="start" x="331.36" y="-1078.8" font-family="Arial" font-size="14.00" fill="#666666">[float]</text>
<polygon fill="none" stroke="black" points="266.01,-1035.8 266.01,-1066.6 543.34,-1066.6 543.34,-1035.8 266.01,-1035.8"/>
<text text-anchor="start" x="273.01" y="-1048" font-family="Arial" font-size="14.00">shipmentStatus </text>
<text text-anchor="start" x="373.39" y="-1048" font-family="Arial" font-size="14.00" fill="#666666">[enum]</text>
<polygon fill="none" stroke="black" points="266.01,-1005 266.01,-1035.8 543.34,-1035.8 543.34,-1005 266.01,-1005"/>
<text text-anchor="start" x="273.01" y="-1017.2" font-family="Arial" font-size="14.00">shippedAt </text>
<text text-anchor="start" x="339.16" y="-1017.2" font-family="Arial" font-size="14.00" fill="#666666">[datetime]</text>
<polygon fill="none" stroke="black" points="266.01,-974.2 266.01,-1005 543.34,-1005 543.34,-974.2 266.01,-974.2"/>
<text text-anchor="start" x="273.01" y="-986.4" font-family="Arial" font-size="14.00">createdAt </text>
<text text-anchor="start" x="336.82" y="-986.4" font-family="Arial" font-size="14.00" fill="#666666">[datetime]</text>
<polygon fill="none" stroke="black" points="266.01,-943.4 266.01,-974.2 543.34,-974.2 543.34,-943.4 266.01,-943.4"/>
<text text-anchor="start" x="273.01" y="-955.6" font-family="Arial" font-size="14.00">shipmentID </text>
<text text-anchor="start" x="347.7" y="-955.6" font-family="Arial" font-size="14.00" fill="#666666">[uuid]</text>
<polygon fill="none" stroke="black" points="266.01,-912.6 266.01,-943.4 543.34,-943.4 543.34,-912.6 266.01,-912.6"/>
<text text-anchor="start" x="273.01" y="-924.8" font-family="Arial" font-size="14.00">updatedAt </text>
<text text-anchor="start" x="340.73" y="-924.8" font-family="Arial" font-size="14.00" fill="#666666">[datetime]</text>
<polygon fill="none" stroke="black" points="266.01,-881.8 266.01,-912.6 543.34,-912.6 543.34,-881.8 266.01,-881.8"/>
<text text-anchor="start" x="273.01" y="-894" font-family="Arial" font-size="14.00">taxable </text>
<text text-anchor="start" x="322.04" y="-894" font-family="Arial" font-size="14.00" fill="#666666">[boolean]</text>
<polygon fill="none" stroke="black" stroke-width="3" points="264.51,-880.3 264.51,-1350.1 544.84,-1350.1 544.84,-880.3 264.51,-880.3"/>
</g>
<!-- ProductVariant -->
<g id="node4" class="node">
<title>ProductVariant</title>
<polygon fill="#efefef" stroke="none" points="110.51,-720.8 110.51,-756.4 362.84,-756.4 362.84,-720.8 110.51,-720.8"/>
<polygon fill="none" stroke="black" points="110.51,-720.8 110.51,-756.4 362.84,-756.4 362.84,-720.8 110.51,-720.8"/>
<text text-anchor="start" x="117.51" y="-734.2" font-family="Arial Bold" font-size="18.00">ProductVariant</text>
<text text-anchor="start" x="227.48" y="-734.2" font-family="Arial" font-size="14.00">    </text>
<text text-anchor="start" x="258.59" y="-734.2" font-family="Arial" font-size="14.00" fill="#666666">[TailorDB.Type]</text>
<polygon fill="none" stroke="black" points="110.51,-690 110.51,-720.8 362.84,-720.8 362.84,-690 110.51,-690"/>
<text text-anchor="start" x="117.51" y="-702.2" font-family="Arial" font-size="14.00">id </text>
<text text-anchor="start" x="132.29" y="-702.2" font-family="Arial" font-size="14.00" fill="#666666">[uuid]</text>
<polygon fill="none" stroke="black" points="110.51,-659.2 110.51,-690 362.84,-690 362.84,-659.2 110.51,-659.2"/>
<text text-anchor="start" x="117.51" y="-671.4" font-family="Arial" font-size="14.00">taxable </text>
<text text-anchor="start" x="166.54" y="-671.4" font-family="Arial" font-size="14.00" fill="#666666">[boolean]</text>
<polygon fill="none" stroke="black" points="110.51,-628.4 110.51,-659.2 362.84,-659.2 362.84,-628.4 110.51,-628.4"/>
<text text-anchor="start" x="117.51" y="-640.6" font-family="Arial" font-size="14.00">quickbookItemId </text>
<text text-anchor="start" x="223.34" y="-640.6" font-family="Arial" font-size="14.00" fill="#666666">[string]</text>
<polygon fill="none" stroke="black" points="110.51,-597.6 110.51,-628.4 362.84,-628.4 362.84,-597.6 110.51,-597.6"/>
<text text-anchor="start" x="117.51" y="-609.8" font-family="Arial" font-size="14.00">barcode </text>
<text text-anchor="start" x="171.99" y="-609.8" font-family="Arial" font-size="14.00" fill="#666666">[string]</text>
<polygon fill="none" stroke="black" points="110.51,-566.8 110.51,-597.6 362.84,-597.6 362.84,-566.8 110.51,-566.8"/>
<text text-anchor="start" x="117.51" y="-579" font-family="Arial" font-size="14.00">displayName </text>
<text text-anchor="start" x="202.32" y="-579" font-family="Arial" font-size="14.00" fill="#666666">[string]</text>
<polygon fill="none" stroke="black" points="110.51,-536 110.51,-566.8 362.84,-566.8 362.84,-536 110.51,-536"/>
<text text-anchor="start" x="117.51" y="-548.2" font-family="Arial" font-size="14.00">inventoryItemID </text>
<text text-anchor="start" x="219.43" y="-548.2" font-family="Arial" font-size="14.00" fill="#666666">[uuid]</text>
<polygon fill="none" stroke="black" points="110.51,-505.2 110.51,-536 362.84,-536 362.84,-505.2 110.51,-505.2"/>
<text text-anchor="start" x="117.51" y="-517.4" font-family="Arial" font-size="14.00">sku </text>
<text text-anchor="start" x="143.18" y="-517.4" font-family="Arial" font-size="14.00" fill="#666666">[string]</text>
<polygon fill="none" stroke="black" points="110.51,-474.4 110.51,-505.2 362.84,-505.2 362.84,-474.4 110.51,-474.4"/>
<text text-anchor="start" x="117.51" y="-486.6" font-family="Arial" font-size="14.00">image </text>
<text text-anchor="start" x="159.53" y="-486.6" font-family="Arial" font-size="14.00" fill="#666666">[ProductImage]</text>
<polygon fill="none" stroke="black" points="110.51,-443.6 110.51,-474.4 362.84,-474.4 362.84,-443.6 110.51,-443.6"/>
<text text-anchor="start" x="117.51" y="-455.8" font-family="Arial" font-size="14.00">createdAt </text>
<text text-anchor="start" x="181.32" y="-455.8" font-family="Arial" font-size="14.00" fill="#666666">[datetime]</text>
<polygon fill="none" stroke="black" points="110.51,-412.8 110.51,-443.6 362.84,-443.6 362.84,-412.8 110.51,-412.8"/>
<text text-anchor="start" x="117.51" y="-425" font-family="Arial" font-size="14.00">shopifyID </text>
<text text-anchor="start" x="179.76" y="-425" font-family="Arial" font-size="14.00" fill="#666666">[string]</text>
<polygon fill="none" stroke="black" points="110.51,-382 110.51,-412.8 362.84,-412.8 362.84,-382 110.51,-382"/>
<text text-anchor="start" x="117.51" y="-394.2" font-family="Arial" font-size="14.00">availableForSale </text>
<text text-anchor="start" x="225.68" y="-394.2" font-family="Arial" font-size="14.00" fill="#666666">[boolean]</text>
<polygon fill="none" stroke="black" points="110.51,-351.2 110.51,-382 362.84,-382 362.84,-351.2 110.51,-351.2"/>
<text text-anchor="start" x="117.51" y="-363.4" font-family="Arial" font-size="14.00">productID </text>
<text text-anchor="start" x="182.09" y="-363.4" font-family="Arial" font-size="14.00" fill="#666666">[uuid]</text>
<polygon fill="none" stroke="black" points="110.51,-320.4 110.51,-351.2 362.84,-351.2 362.84,-320.4 110.51,-320.4"/>
<text text-anchor="start" x="117.51" y="-332.6" font-family="Arial" font-size="14.00">inventoryType </text>
<text text-anchor="start" x="209.33" y="-332.6" font-family="Arial" font-size="14.00" fill="#666666">[enum]</text>
<polygon fill="none" stroke="black" points="110.51,-289.6 110.51,-320.4 362.84,-320.4 362.84,-289.6 110.51,-289.6"/>
<text text-anchor="start" x="117.51" y="-301.8" font-family="Arial" font-size="14.00">quickbookSyncToken </text>
<text text-anchor="start" x="254.47" y="-301.8" font-family="Arial" font-size="14.00" fill="#666666">[string]</text>
<polygon fill="none" stroke="black" points="110.51,-258.8 110.51,-289.6 362.84,-289.6 362.84,-258.8 110.51,-258.8"/>
<text text-anchor="start" x="117.51" y="-271" font-family="Arial" font-size="14.00">updatedAt </text>
<text text-anchor="start" x="185.23" y="-271" font-family="Arial" font-size="14.00" fill="#666666">[datetime]</text>
<polygon fill="none" stroke="black" points="110.51,-228 110.51,-258.8 362.84,-258.8 362.84,-228 110.51,-228"/>
<text text-anchor="start" x="117.51" y="-240.2" font-family="Arial" font-size="14.00">active </text>
<text text-anchor="start" x="157.97" y="-240.2" font-family="Arial" font-size="14.00" fill="#666666">[boolean]</text>
<polygon fill="none" stroke="black" points="110.51,-197.2 110.51,-228 362.84,-228 362.84,-197.2 110.51,-197.2"/>
<text text-anchor="start" x="117.51" y="-209.4" font-family="Arial" font-size="14.00">imageID </text>
<text text-anchor="start" x="173.53" y="-209.4" font-family="Arial" font-size="14.00" fill="#666666">[uuid]</text>
<polygon fill="none" stroke="black" points="110.51,-166.4 110.51,-197.2 362.84,-197.2 362.84,-166.4 110.51,-166.4"/>
<text text-anchor="start" x="117.51" y="-178.6" font-family="Arial" font-size="14.00">price </text>
<text text-anchor="start" x="151.74" y="-178.6" font-family="Arial" font-size="14.00" fill="#666666">[float]</text>
<polygon fill="none" stroke="black" points="110.51,-135.6 110.51,-166.4 362.84,-166.4 362.84,-135.6 110.51,-135.6"/>
<text text-anchor="start" x="117.51" y="-147.8" font-family="Arial" font-size="14.00">quickbookItemName </text>
<text text-anchor="start" x="249.01" y="-147.8" font-family="Arial" font-size="14.00" fill="#666666">[string]</text>
<polygon fill="none" stroke="black" points="110.51,-104.8 110.51,-135.6 362.84,-135.6 362.84,-104.8 110.51,-104.8"/>
<text text-anchor="start" x="117.51" y="-117" font-family="Arial" font-size="14.00">inventoryQuantity </text>
<text text-anchor="start" x="230.34" y="-117" font-family="Arial" font-size="14.00" fill="#666666">[integer]</text>
<polygon fill="none" stroke="black" points="110.51,-74 110.51,-104.8 362.84,-104.8 362.84,-74 110.51,-74"/>
<text text-anchor="start" x="117.51" y="-86.2" font-family="Arial" font-size="14.00">inventoryItem </text>
<text text-anchor="start" x="205.43" y="-86.2" font-family="Arial" font-size="14.00" fill="#666666">[InventoryItem]</text>
<polygon fill="none" stroke="black" points="110.51,-43.2 110.51,-74 362.84,-74 362.84,-43.2 110.51,-43.2"/>
<text text-anchor="start" x="117.51" y="-55.4" font-family="Arial" font-size="14.00">product </text>
<text text-anchor="start" x="168.09" y="-55.4" font-family="Arial" font-size="14.00" fill="#666666">[Product]</text>
</g>
<!-- ShipmentLineItem&#45;&gt;ProductVariant -->
<g id="edge3" class="edge">
<title>ShipmentLineItem:variantID&#45;&gt;ProductVariant:id</title>
<path fill="none" stroke="black" d="M254.62,-1266.52C76.45,-1256.67 158.47,-989.92 266.01,-835.6 292.26,-797.93 336.44,-837.16 362.84,-799.6 386.92,-765.35 405.71,-705.4 363.84,-705.4"/>
<polygon fill="black" stroke="black" points="254.67,-1266.52 264.55,-1271.29 260.01,-1266.66 264.34,-1266.78 264.34,-1266.78 264.34,-1266.78 260.01,-1266.66 264.79,-1262.29 254.67,-1266.52"/>
<text text-anchor="start" x="154.62" y="-1276.8" font-family="Arial" font-size="10.00">Source: ProductVariant</text>
</g>
<!-- Shipment -->
<g id="node5" class="node">
<title>Shipment</title>
<polygon fill="#efefef" stroke="none" points="466.99,-536 466.99,-571.6 678.36,-571.6 678.36,-536 466.99,-536"/>
<polygon fill="none" stroke="black" points="466.99,-536 466.99,-571.6 678.36,-571.6 678.36,-536 466.99,-536"/>
<text text-anchor="start" x="473.99" y="-549.4" font-family="Arial Bold" font-size="18.00">Shipment</text>
<text text-anchor="start" x="542.99" y="-549.4" font-family="Arial" font-size="14.00">    </text>
<text text-anchor="start" x="574.11" y="-549.4" font-family="Arial" font-size="14.00" fill="#666666">[TailorDB.Type]</text>
<polygon fill="none" stroke="black" points="466.99,-505.2 466.99,-536 678.36,-536 678.36,-505.2 466.99,-505.2"/>
<text text-anchor="start" x="473.99" y="-517.4" font-family="Arial" font-size="14.00">id </text>
<text text-anchor="start" x="488.78" y="-517.4" font-family="Arial" font-size="14.00" fill="#666666">[uuid]</text>
<polygon fill="none" stroke="black" points="466.99,-474.4 466.99,-505.2 678.36,-505.2 678.36,-474.4 466.99,-474.4"/>
<text text-anchor="start" x="473.99" y="-486.6" font-family="Arial" font-size="14.00">active </text>
<text text-anchor="start" x="514.45" y="-486.6" font-family="Arial" font-size="14.00" fill="#666666">[boolean]</text>
<polygon fill="none" stroke="black" points="466.99,-443.6 466.99,-474.4 678.36,-474.4 678.36,-443.6 466.99,-443.6"/>
<text text-anchor="start" x="473.99" y="-455.8" font-family="Arial" font-size="14.00">createdAt </text>
<text text-anchor="start" x="537.8" y="-455.8" font-family="Arial" font-size="14.00" fill="#666666">[datetime]</text>
<polygon fill="none" stroke="black" points="466.99,-412.8 466.99,-443.6 678.36,-443.6 678.36,-412.8 466.99,-412.8"/>
<text text-anchor="start" x="473.99" y="-425" font-family="Arial" font-size="14.00">customerID </text>
<text text-anchor="start" x="549.45" y="-425" font-family="Arial" font-size="14.00" fill="#666666">[uuid]</text>
<polygon fill="none" stroke="black" points="466.99,-382 466.99,-412.8 678.36,-412.8 678.36,-382 466.99,-382"/>
<text text-anchor="start" x="473.99" y="-394.2" font-family="Arial" font-size="14.00">salesOrderID </text>
<text text-anchor="start" x="560.35" y="-394.2" font-family="Arial" font-size="14.00" fill="#666666">[uuid]</text>
<polygon fill="none" stroke="black" points="466.99,-351.2 466.99,-382 678.36,-382 678.36,-351.2 466.99,-351.2"/>
<text text-anchor="start" x="473.99" y="-363.4" font-family="Arial" font-size="14.00">shipmentNumber </text>
<text text-anchor="start" x="584.48" y="-363.4" font-family="Arial" font-size="14.00" fill="#666666">[string]</text>
<polygon fill="none" stroke="black" points="466.99,-320.4 466.99,-351.2 678.36,-351.2 678.36,-320.4 466.99,-320.4"/>
<text text-anchor="start" x="473.99" y="-332.6" font-family="Arial" font-size="14.00">customer </text>
<text text-anchor="start" x="535.45" y="-332.6" font-family="Arial" font-size="14.00" fill="#666666">[Contact]</text>
<polygon fill="none" stroke="black" points="466.99,-289.6 466.99,-320.4 678.36,-320.4 678.36,-289.6 466.99,-289.6"/>
<text text-anchor="start" x="473.99" y="-301.8" font-family="Arial" font-size="14.00">salesOrder </text>
<text text-anchor="start" x="546.35" y="-301.8" font-family="Arial" font-size="14.00" fill="#666666">[SalesOrder]</text>
<polygon fill="none" stroke="black" points="466.99,-258.8 466.99,-289.6 678.36,-289.6 678.36,-258.8 466.99,-258.8"/>
<text text-anchor="start" x="473.99" y="-271" font-family="Arial" font-size="14.00">date </text>
<text text-anchor="start" x="505.13" y="-271" font-family="Arial" font-size="14.00" fill="#666666">[datetime]</text>
<polygon fill="none" stroke="black" points="466.99,-228 466.99,-258.8 678.36,-258.8 678.36,-228 466.99,-228"/>
<text text-anchor="start" x="473.99" y="-240.2" font-family="Arial" font-size="14.00">updatedAt </text>
<text text-anchor="start" x="541.71" y="-240.2" font-family="Arial" font-size="14.00" fill="#666666">[datetime]</text>
</g>
<!-- ShipmentLineItem&#45;&gt;Shipment -->
<g id="edge4" class="edge">
<title>ShipmentLineItem:shipmentID&#45;&gt;Shipment:id</title>
<path fill="none" stroke="black" d="M554.67,-958.35C724.83,-942.69 271.82,-520.6 465.99,-520.6"/>
<polygon fill="black" stroke="black" points="554.67,-958.35 544.48,-954.29 549.34,-958.58 545.01,-958.77 545.01,-958.77 545.01,-958.77 549.34,-958.58 544.87,-963.28 554.67,-958.35"/>
<text text-anchor="start" x="551.34" y="-968.8" font-family="Arial" font-size="10.00">Source: Shipment</text>
</g>
<!-- FinancialStockEvent -->
<g id="node2" class="node">
<title>FinancialStockEvent</title>
<polygon fill="#efefef" stroke="none" points="43.2,-2120.8 43.2,-2156.4 352.15,-2156.4 352.15,-2120.8 43.2,-2120.8"/>
<polygon fill="none" stroke="black" points="43.2,-2120.8 43.2,-2156.4 352.15,-2156.4 352.15,-2120.8 43.2,-2120.8"/>
<text text-anchor="start" x="58.51" y="-2134.2" font-family="Arial Bold" font-size="18.00">FinancialStockEvent</text>
<text text-anchor="start" x="208.48" y="-2134.2" font-family="Arial" font-size="14.00">    </text>
<text text-anchor="start" x="239.59" y="-2134.2" font-family="Arial" font-size="14.00" fill="#666666">[TailorDB.Type]</text>
<polygon fill="none" stroke="black" points="43.2,-2090 43.2,-2120.8 352.15,-2120.8 352.15,-2090 43.2,-2090"/>
<text text-anchor="start" x="50.2" y="-2102.2" font-family="Arial" font-size="14.00">id </text>
<text text-anchor="start" x="64.99" y="-2102.2" font-family="Arial" font-size="14.00" fill="#666666">[uuid]</text>
<polygon fill="none" stroke="black" points="43.2,-2059.2 43.2,-2090 352.15,-2090 352.15,-2059.2 43.2,-2059.2"/>
<text text-anchor="start" x="50.2" y="-2071.4" font-family="Arial" font-size="14.00">isOnHold </text>
<text text-anchor="start" x="111.67" y="-2071.4" font-family="Arial" font-size="14.00" fill="#666666">[boolean]</text>
<polygon fill="none" stroke="black" points="43.2,-2028.4 43.2,-2059.2 352.15,-2059.2 352.15,-2028.4 43.2,-2028.4"/>
<text text-anchor="start" x="50.2" y="-2040.6" font-family="Arial" font-size="14.00">inStockQuantity </text>
<text text-anchor="start" x="152.14" y="-2040.6" font-family="Arial" font-size="14.00" fill="#666666">[float]</text>
<polygon fill="none" stroke="black" points="43.2,-1997.6 43.2,-2028.4 352.15,-2028.4 352.15,-1997.6 43.2,-1997.6"/>
<text text-anchor="start" x="50.2" y="-2009.8" font-family="Arial" font-size="14.00">shipmentLineItem </text>
<text text-anchor="start" x="164.59" y="-2009.8" font-family="Arial" font-size="14.00" fill="#666666">[ShipmentLineItem]</text>
<polygon fill="none" stroke="black" points="43.2,-1966.8 43.2,-1997.6 352.15,-1997.6 352.15,-1966.8 43.2,-1966.8"/>
<text text-anchor="start" x="50.2" y="-1979" font-family="Arial" font-size="14.00">updatedAt </text>
<text text-anchor="start" x="117.92" y="-1979" font-family="Arial" font-size="14.00" fill="#666666">[datetime]</text>
<polygon fill="none" stroke="black" points="43.2,-1936 43.2,-1966.8 352.15,-1966.8 352.15,-1936 43.2,-1936"/>
<text text-anchor="start" x="50.2" y="-1948.2" font-family="Arial" font-size="14.00">variantID </text>
<text text-anchor="start" x="110.11" y="-1948.2" font-family="Arial" font-size="14.00" fill="#666666">[uuid]</text>
<polygon fill="none" stroke="black" points="43.2,-1905.2 43.2,-1936 352.15,-1936 352.15,-1905.2 43.2,-1905.2"/>
<text text-anchor="start" x="50.2" y="-1917.4" font-family="Arial" font-size="14.00">incrementalQuantity </text>
<text text-anchor="start" x="178.59" y="-1917.4" font-family="Arial" font-size="14.00" fill="#666666">[float]</text>
<polygon fill="none" stroke="black" points="43.2,-1874.4 43.2,-1905.2 352.15,-1905.2 352.15,-1874.4 43.2,-1874.4"/>
<text text-anchor="start" x="50.2" y="-1886.6" font-family="Arial" font-size="14.00">totalCost </text>
<text text-anchor="start" x="109.34" y="-1886.6" font-family="Arial" font-size="14.00" fill="#666666">[float]</text>
<polygon fill="none" stroke="black" points="43.2,-1843.6 43.2,-1874.4 352.15,-1874.4 352.15,-1843.6 43.2,-1843.6"/>
<text text-anchor="start" x="50.2" y="-1855.8" font-family="Arial" font-size="14.00">receiptLineItemID </text>
<text text-anchor="start" x="163.81" y="-1855.8" font-family="Arial" font-size="14.00" fill="#666666">[uuid]</text>
<polygon fill="none" stroke="black" points="43.2,-1812.8 43.2,-1843.6 352.15,-1843.6 352.15,-1812.8 43.2,-1812.8"/>
<text text-anchor="start" x="50.2" y="-1825" font-family="Arial" font-size="14.00">shipmentLineItemID </text>
<text text-anchor="start" x="178.59" y="-1825" font-family="Arial" font-size="14.00" fill="#666666">[uuid]</text>
<polygon fill="none" stroke="black" points="43.2,-1782 43.2,-1812.8 352.15,-1812.8 352.15,-1782 43.2,-1782"/>
<text text-anchor="start" x="50.2" y="-1794.2" font-family="Arial" font-size="14.00">operationalStockEvent </text>
<text text-anchor="start" x="194.18" y="-1794.2" font-family="Arial" font-size="14.00" fill="#666666">[OperationalStockEvent]</text>
<polygon fill="none" stroke="black" points="43.2,-1751.2 43.2,-1782 352.15,-1782 352.15,-1751.2 43.2,-1751.2"/>
<text text-anchor="start" x="50.2" y="-1763.4" font-family="Arial" font-size="14.00">variant </text>
<text text-anchor="start" x="96.11" y="-1763.4" font-family="Arial" font-size="14.00" fill="#666666">[ProductVariant]</text>
<polygon fill="none" stroke="black" points="43.2,-1720.4 43.2,-1751.2 352.15,-1751.2 352.15,-1720.4 43.2,-1720.4"/>
<text text-anchor="start" x="50.2" y="-1732.6" font-family="Arial" font-size="14.00">unitCost </text>
<text text-anchor="start" x="105.45" y="-1732.6" font-family="Arial" font-size="14.00" fill="#666666">[float]</text>
<polygon fill="none" stroke="black" points="43.2,-1689.6 43.2,-1720.4 352.15,-1720.4 352.15,-1689.6 43.2,-1689.6"/>
<text text-anchor="start" x="50.2" y="-1701.8" font-family="Arial" font-size="14.00">onHoldQuantity </text>
<text text-anchor="start" x="150.59" y="-1701.8" font-family="Arial" font-size="14.00" fill="#666666">[float]</text>
<polygon fill="none" stroke="black" points="43.2,-1658.8 43.2,-1689.6 352.15,-1689.6 352.15,-1658.8 43.2,-1658.8"/>
<text text-anchor="start" x="50.2" y="-1671" font-family="Arial" font-size="14.00">averageCost </text>
<text text-anchor="start" x="133.47" y="-1671" font-family="Arial" font-size="14.00" fill="#666666">[float]</text>
<polygon fill="none" stroke="black" points="43.2,-1628 43.2,-1658.8 352.15,-1658.8 352.15,-1628 43.2,-1628"/>
<text text-anchor="start" x="50.2" y="-1640.2" font-family="Arial" font-size="14.00">availableQuantity </text>
<text text-anchor="start" x="161.49" y="-1640.2" font-family="Arial" font-size="14.00" fill="#666666">[float]</text>
<polygon fill="none" stroke="black" points="43.2,-1597.2 43.2,-1628 352.15,-1628 352.15,-1597.2 43.2,-1597.2"/>
<text text-anchor="start" x="50.2" y="-1609.4" font-family="Arial" font-size="14.00">receiptLineItem </text>
<text text-anchor="start" x="149.81" y="-1609.4" font-family="Arial" font-size="14.00" fill="#666666">[ReceiptLineItem]</text>
<polygon fill="none" stroke="black" points="43.2,-1566.4 43.2,-1597.2 352.15,-1597.2 352.15,-1566.4 43.2,-1566.4"/>
<text text-anchor="start" x="50.2" y="-1578.6" font-family="Arial" font-size="14.00">operationalStockEventID </text>
<text text-anchor="start" x="208.18" y="-1578.6" font-family="Arial" font-size="14.00" fill="#666666">[uuid]</text>
<polygon fill="none" stroke="black" points="43.2,-1535.6 43.2,-1566.4 352.15,-1566.4 352.15,-1535.6 43.2,-1535.6"/>
<text text-anchor="start" x="50.2" y="-1547.8" font-family="Arial" font-size="14.00">active </text>
<text text-anchor="start" x="90.66" y="-1547.8" font-family="Arial" font-size="14.00" fill="#666666">[boolean]</text>
<polygon fill="none" stroke="black" points="43.2,-1504.8 43.2,-1535.6 352.15,-1535.6 352.15,-1504.8 43.2,-1504.8"/>
<text text-anchor="start" x="50.2" y="-1517" font-family="Arial" font-size="14.00">createdAt </text>
<text text-anchor="start" x="114.01" y="-1517" font-family="Arial" font-size="14.00" fill="#666666">[datetime]</text>
<polygon fill="none" stroke="black" points="43.2,-1474 43.2,-1504.8 352.15,-1504.8 352.15,-1474 43.2,-1474"/>
<text text-anchor="start" x="50.2" y="-1486.2" font-family="Arial" font-size="14.00">transactionTotalCost </text>
<text text-anchor="start" x="182.48" y="-1486.2" font-family="Arial" font-size="14.00" fill="#666666">[float]</text>
</g>
<!-- FinancialStockEvent&#45;&gt;ShipmentLineItem -->
<g id="edge1" class="edge">
<title>FinancialStockEvent:shipmentLineItemID&#45;&gt;ShipmentLineItem:id</title>
<path fill="none" stroke="black" d="M361.73,-1822.81C394.3,-1777.76 374.9,-1464.87 352.15,-1430.8 329.11,-1396.29 289.18,-1429.22 266.01,-1394.8 241.88,-1358.96 221.8,-1297.6 265.01,-1297.6"/>
<polygon fill="black" stroke="black" points="361.9,-1822.7 351.04,-1824.21 357.38,-1825.54 353.72,-1827.84 353.72,-1827.84 353.72,-1827.84 357.38,-1825.54 355.83,-1831.83 361.9,-1822.7"/>
<text text-anchor="start" x="360.15" y="-1838.2" font-family="Arial" font-size="10.00">ForeignKeyType: ShipmentLineItem</text>
</g>
<!-- OperationalStockEvent -->
<g id="node3" class="node">
<title>OperationalStockEvent</title>
<polygon fill="#efefef" stroke="none" points="456.52,-2120.8 456.52,-2156.4 766.83,-2156.4 766.83,-2120.8 456.52,-2120.8"/>
<polygon fill="none" stroke="black" points="456.52,-2120.8 456.52,-2156.4 766.83,-2156.4 766.83,-2120.8 456.52,-2120.8"/>
<text text-anchor="start" x="463.52" y="-2134.2" font-family="Arial Bold" font-size="18.00">OperationalStockEvent</text>
<text text-anchor="start" x="631.47" y="-2134.2" font-family="Arial" font-size="14.00">    </text>
<text text-anchor="start" x="662.58" y="-2134.2" font-family="Arial" font-size="14.00" fill="#666666">[TailorDB.Type]</text>
<polygon fill="none" stroke="black" points="456.52,-2090 456.52,-2120.8 766.83,-2120.8 766.83,-2090 456.52,-2090"/>
<text text-anchor="start" x="463.52" y="-2102.2" font-family="Arial" font-size="14.00">id </text>
<text text-anchor="start" x="478.3" y="-2102.2" font-family="Arial" font-size="14.00" fill="#666666">[uuid]</text>
<polygon fill="none" stroke="black" points="456.52,-2059.2 456.52,-2090 766.83,-2090 766.83,-2059.2 456.52,-2059.2"/>
<text text-anchor="start" x="463.52" y="-2071.4" font-family="Arial" font-size="14.00">availableQuantity </text>
<text text-anchor="start" x="574.81" y="-2071.4" font-family="Arial" font-size="14.00" fill="#666666">[float]</text>
<polygon fill="none" stroke="black" points="456.52,-2028.4 456.52,-2059.2 766.83,-2059.2 766.83,-2028.4 456.52,-2028.4"/>
<text text-anchor="start" x="463.52" y="-2040.6" font-family="Arial" font-size="14.00">shipmentLineItem </text>
<text text-anchor="start" x="577.91" y="-2040.6" font-family="Arial" font-size="14.00" fill="#666666">[ShipmentLineItem]</text>
<polygon fill="none" stroke="black" points="456.52,-1997.6 456.52,-2028.4 766.83,-2028.4 766.83,-1997.6 456.52,-1997.6"/>
<text text-anchor="start" x="463.52" y="-2009.8" font-family="Arial" font-size="14.00">copiedToFinancialLedger </text>
<text text-anchor="start" x="624.62" y="-2009.8" font-family="Arial" font-size="14.00" fill="#666666">[boolean]</text>
<polygon fill="none" stroke="black" points="456.52,-1966.8 456.52,-1997.6 766.83,-1997.6 766.83,-1966.8 456.52,-1966.8"/>
<text text-anchor="start" x="463.52" y="-1979" font-family="Arial" font-size="14.00">variant </text>
<text text-anchor="start" x="509.43" y="-1979" font-family="Arial" font-size="14.00" fill="#666666">[ProductVariant]</text>
<polygon fill="none" stroke="black" points="456.52,-1936 456.52,-1966.8 766.83,-1966.8 766.83,-1936 456.52,-1936"/>
<text text-anchor="start" x="463.52" y="-1948.2" font-family="Arial" font-size="14.00">incrementalQuantity </text>
<text text-anchor="start" x="591.91" y="-1948.2" font-family="Arial" font-size="14.00" fill="#666666">[float]</text>
<polygon fill="none" stroke="black" points="456.52,-1905.2 456.52,-1936 766.83,-1936 766.83,-1905.2 456.52,-1905.2"/>
<text text-anchor="start" x="463.52" y="-1917.4" font-family="Arial" font-size="14.00">transactionTotalCost </text>
<text text-anchor="start" x="595.8" y="-1917.4" font-family="Arial" font-size="14.00" fill="#666666">[float]</text>
<polygon fill="none" stroke="black" points="456.52,-1874.4 456.52,-1905.2 766.83,-1905.2 766.83,-1874.4 456.52,-1874.4"/>
<text text-anchor="start" x="463.52" y="-1886.6" font-family="Arial" font-size="14.00">isOnHold </text>
<text text-anchor="start" x="524.99" y="-1886.6" font-family="Arial" font-size="14.00" fill="#666666">[boolean]</text>
<polygon fill="none" stroke="black" points="456.52,-1843.6 456.52,-1874.4 766.83,-1874.4 766.83,-1843.6 456.52,-1843.6"/>
<text text-anchor="start" x="463.52" y="-1855.8" font-family="Arial" font-size="14.00">updatedAt </text>
<text text-anchor="start" x="531.24" y="-1855.8" font-family="Arial" font-size="14.00" fill="#666666">[datetime]</text>
<polygon fill="none" stroke="black" points="456.52,-1812.8 456.52,-1843.6 766.83,-1843.6 766.83,-1812.8 456.52,-1812.8"/>
<text text-anchor="start" x="463.52" y="-1825" font-family="Arial" font-size="14.00">onHoldQuantity </text>
<text text-anchor="start" x="563.91" y="-1825" font-family="Arial" font-size="14.00" fill="#666666">[float]</text>
<polygon fill="none" stroke="black" points="456.52,-1782 456.52,-1812.8 766.83,-1812.8 766.83,-1782 456.52,-1782"/>
<text text-anchor="start" x="463.52" y="-1794.2" font-family="Arial" font-size="14.00">averageCost </text>
<text text-anchor="start" x="546.79" y="-1794.2" font-family="Arial" font-size="14.00" fill="#666666">[float]</text>
<polygon fill="none" stroke="black" points="456.52,-1751.2 456.52,-1782 766.83,-1782 766.83,-1751.2 456.52,-1751.2"/>
<text text-anchor="start" x="463.52" y="-1763.4" font-family="Arial" font-size="14.00">receiptLineItemID </text>
<text text-anchor="start" x="577.12" y="-1763.4" font-family="Arial" font-size="14.00" fill="#666666">[uuid]</text>
<polygon fill="none" stroke="black" points="456.52,-1720.4 456.52,-1751.2 766.83,-1751.2 766.83,-1720.4 456.52,-1720.4"/>
<text text-anchor="start" x="463.52" y="-1732.6" font-family="Arial" font-size="14.00">receiptLineItem </text>
<text text-anchor="start" x="563.12" y="-1732.6" font-family="Arial" font-size="14.00" fill="#666666">[ReceiptLineItem]</text>
<polygon fill="none" stroke="black" points="456.52,-1689.6 456.52,-1720.4 766.83,-1720.4 766.83,-1689.6 456.52,-1689.6"/>
<text text-anchor="start" x="463.52" y="-1701.8" font-family="Arial" font-size="14.00">shipmentLineItemID </text>
<text text-anchor="start" x="591.91" y="-1701.8" font-family="Arial" font-size="14.00" fill="#666666">[uuid]</text>
<polygon fill="none" stroke="black" points="456.52,-1658.8 456.52,-1689.6 766.83,-1689.6 766.83,-1658.8 456.52,-1658.8"/>
<text text-anchor="start" x="463.52" y="-1671" font-family="Arial" font-size="14.00">sequence </text>
<text text-anchor="start" x="528.12" y="-1671" font-family="Arial" font-size="14.00" fill="#666666">[integer]</text>
<polygon fill="none" stroke="black" points="456.52,-1628 456.52,-1658.8 766.83,-1658.8 766.83,-1628 456.52,-1628"/>
<text text-anchor="start" x="463.52" y="-1640.2" font-family="Arial" font-size="14.00">active </text>
<text text-anchor="start" x="503.98" y="-1640.2" font-family="Arial" font-size="14.00" fill="#666666">[boolean]</text>
<polygon fill="none" stroke="black" points="456.52,-1597.2 456.52,-1628 766.83,-1628 766.83,-1597.2 456.52,-1597.2"/>
<text text-anchor="start" x="463.52" y="-1609.4" font-family="Arial" font-size="14.00">variantID </text>
<text text-anchor="start" x="523.43" y="-1609.4" font-family="Arial" font-size="14.00" fill="#666666">[uuid]</text>
<polygon fill="none" stroke="black" points="456.52,-1566.4 456.52,-1597.2 766.83,-1597.2 766.83,-1566.4 456.52,-1566.4"/>
<text text-anchor="start" x="463.52" y="-1578.6" font-family="Arial" font-size="14.00">unitCost </text>
<text text-anchor="start" x="518.77" y="-1578.6" font-family="Arial" font-size="14.00" fill="#666666">[float]</text>
<polygon fill="none" stroke="black" points="456.52,-1535.6 456.52,-1566.4 766.83,-1566.4 766.83,-1535.6 456.52,-1535.6"/>
<text text-anchor="start" x="463.52" y="-1547.8" font-family="Arial" font-size="14.00">inStockQuantity </text>
<text text-anchor="start" x="565.45" y="-1547.8" font-family="Arial" font-size="14.00" fill="#666666">[float]</text>
<polygon fill="none" stroke="black" points="456.52,-1504.8 456.52,-1535.6 766.83,-1535.6 766.83,-1504.8 456.52,-1504.8"/>
<text text-anchor="start" x="463.52" y="-1517" font-family="Arial" font-size="14.00">totalCost </text>
<text text-anchor="start" x="522.66" y="-1517" font-family="Arial" font-size="14.00" fill="#666666">[float]</text>
<polygon fill="none" stroke="black" points="456.52,-1474 456.52,-1504.8 766.83,-1504.8 766.83,-1474 456.52,-1474"/>
<text text-anchor="start" x="463.52" y="-1486.2" font-family="Arial" font-size="14.00">createdAt </text>
<text text-anchor="start" x="527.33" y="-1486.2" font-family="Arial" font-size="14.00" fill="#666666">[datetime]</text>
</g>
<!-- OperationalStockEvent&#45;&gt;ShipmentLineItem -->
<g id="edge2" class="edge">
<title>OperationalStockEvent:shipmentLineItemID&#45;&gt;ShipmentLineItem:id</title>
<path fill="none" stroke="black" d="M445.41,-1702.63C398,-1678.56 424.64,-1478.34 456.52,-1430.8 479.78,-1396.1 519.96,-1429.42 543.34,-1394.8 567.52,-1359 587.55,-1297.6 544.34,-1297.6"/>
<polygon fill="black" stroke="black" points="445.46,-1702.64 454.16,-1709.3 450.65,-1703.86 454.87,-1704.85 454.87,-1704.85 454.87,-1704.85 450.65,-1703.86 456.22,-1700.54 445.46,-1702.64"/>
<text text-anchor="start" x="419.14" y="-1689" font-family="Arial" font-size="10.00">ForeignKeyType: ShipmentLineItem</text>
</g>
</g>
</svg>
