<?xml version="1.0" encoding="UTF-8" standalone="no"?>
<!DOCTYPE svg PUBLIC "-//W3C//DTD SVG 1.1//EN"
 "http://www.w3.org/Graphics/SVG/1.1/DTD/svg11.dtd">
<!-- Generated by graphviz version 12.1.2 (20240928.0832)
 -->
<!-- Title: ShipmentLineItem Pages: 1 -->
<svg width="818pt" height="2208pt"
 viewBox="0.00 0.00 818.03 2207.60" xmlns="http://www.w3.org/2000/svg" xmlns:xlink="http://www.w3.org/1999/xlink">
<g id="graph0" class="graph" transform="scale(1 1) rotate(0) translate(4 2203.6)">
<title>ShipmentLineItem</title>
<polygon fill="white" stroke="none" points="-4,4 -4,-2203.6 814.03,-2203.6 814.03,4 -4,4"/>
<!-- ShipmentLineItem -->
<g id="node1" class="node">
<title>ShipmentLineItem</title>
<polygon fill="#efefef" stroke="none" points="266.01,-1313 266.01,-1348.6 543.34,-1348.6 543.34,-1313 266.01,-1313"/>
<polygon fill="none" stroke="black" points="266.01,-1313 266.01,-1348.6 543.34,-1348.6 543.34,-1313 266.01,-1313"/>
<text text-anchor="start" x="273.01" y="-1326.4" font-family="Arial Bold" font-size="18.00">ShipmentLineItem</text>
<text text-anchor="start" x="407.98" y="-1326.4" font-family="Arial" font-size="14.00">    </text>
<text text-anchor="start" x="439.1" y="-1326.4" font-family="Arial" font-size="14.00" fill="#666666">[TailorDB.Type]</text>
<polygon fill="none" stroke="black" points="266.01,-1282.2 266.01,-1313 543.34,-1313 543.34,-1282.2 266.01,-1282.2"/>
<text text-anchor="start" x="273.01" y="-1294.4" font-family="Arial" font-size="14.00">id </text>
<text text-anchor="start" x="287.79" y="-1294.4" font-family="Arial" font-size="14.00" fill="#666666">[uuid]</text>
<polygon fill="none" stroke="black" points="266.01,-1251.4 266.01,-1282.2 543.34,-1282.2 543.34,-1251.4 266.01,-1251.4"/>
<text text-anchor="start" x="273.01" y="-1263.6" font-family="Arial" font-size="14.00">shipment </text>
<text text-anchor="start" x="333.7" y="-1263.6" font-family="Arial" font-size="14.00" fill="#666666">[Shipment]</text>
<polygon fill="none" stroke="black" points="266.01,-1220.6 266.01,-1251.4 543.34,-1251.4 543.34,-1220.6 266.01,-1220.6"/>
<text text-anchor="start" x="273.01" y="-1232.8" font-family="Arial" font-size="14.00">unitPrice </text>
<text text-anchor="start" x="331.36" y="-1232.8" font-family="Arial" font-size="14.00" fill="#666666">[float]</text>
<polygon fill="none" stroke="black" points="266.01,-1189.8 266.01,-1220.6 543.34,-1220.6 543.34,-1189.8 266.01,-1189.8"/>
<text text-anchor="start" x="273.01" y="-1202" font-family="Arial" font-size="14.00">updatedAt </text>
<text text-anchor="start" x="340.73" y="-1202" font-family="Arial" font-size="14.00" fill="#666666">[datetime]</text>
<polygon fill="none" stroke="black" points="266.01,-1159 266.01,-1189.8 543.34,-1189.8 543.34,-1159 266.01,-1159"/>
<text text-anchor="start" x="273.01" y="-1171.2" font-family="Arial" font-size="14.00">variantID </text>
<text text-anchor="start" x="332.92" y="-1171.2" font-family="Arial" font-size="14.00" fill="#666666">[uuid]</text>
<polygon fill="none" stroke="black" points="266.01,-1128.2 266.01,-1159 543.34,-1159 543.34,-1128.2 266.01,-1128.2"/>
<text text-anchor="start" x="273.01" y="-1140.4" font-family="Arial" font-size="14.00">variant </text>
<text text-anchor="start" x="318.92" y="-1140.4" font-family="Arial" font-size="14.00" fill="#666666">[ProductVariant]</text>
<polygon fill="none" stroke="black" points="266.01,-1097.4 266.01,-1128.2 543.34,-1128.2 543.34,-1097.4 266.01,-1097.4"/>
<text text-anchor="start" x="273.01" y="-1109.6" font-family="Arial" font-size="14.00">taxable </text>
<text text-anchor="start" x="322.04" y="-1109.6" font-family="Arial" font-size="14.00" fill="#666666">[boolean]</text>
<polygon fill="none" stroke="black" points="266.01,-1066.6 266.01,-1097.4 543.34,-1097.4 543.34,-1066.6 266.01,-1066.6"/>
<text text-anchor="start" x="273.01" y="-1078.8" font-family="Arial" font-size="14.00">shippedAt </text>
<text text-anchor="start" x="339.16" y="-1078.8" font-family="Arial" font-size="14.00" fill="#666666">[datetime]</text>
<polygon fill="none" stroke="black" points="266.01,-1035.8 266.01,-1066.6 543.34,-1066.6 543.34,-1035.8 266.01,-1035.8"/>
<text text-anchor="start" x="273.01" y="-1048" font-family="Arial" font-size="14.00">shipmentID </text>
<text text-anchor="start" x="347.7" y="-1048" font-family="Arial" font-size="14.00" fill="#666666">[uuid]</text>
<polygon fill="none" stroke="black" points="266.01,-1005 266.01,-1035.8 543.34,-1035.8 543.34,-1005 266.01,-1005"/>
<text text-anchor="start" x="273.01" y="-1017.2" font-family="Arial" font-size="14.00">createdAt </text>
<text text-anchor="start" x="336.82" y="-1017.2" font-family="Arial" font-size="14.00" fill="#666666">[datetime]</text>
<polygon fill="none" stroke="black" points="266.01,-974.2 266.01,-1005 543.34,-1005 543.34,-974.2 266.01,-974.2"/>
<text text-anchor="start" x="273.01" y="-986.4" font-family="Arial" font-size="14.00">unitCost </text>
<text text-anchor="start" x="328.25" y="-986.4" font-family="Arial" font-size="14.00" fill="#666666">[float]</text>
<polygon fill="none" stroke="black" points="266.01,-943.4 266.01,-974.2 543.34,-974.2 543.34,-943.4 266.01,-943.4"/>
<text text-anchor="start" x="273.01" y="-955.6" font-family="Arial" font-size="14.00">quantity </text>
<text text-anchor="start" x="325.93" y="-955.6" font-family="Arial" font-size="14.00" fill="#666666">[float]</text>
<polygon fill="none" stroke="black" points="266.01,-912.6 266.01,-943.4 543.34,-943.4 543.34,-912.6 266.01,-912.6"/>
<text text-anchor="start" x="273.01" y="-924.8" font-family="Arial" font-size="14.00">shipmentStatus </text>
<text text-anchor="start" x="373.39" y="-924.8" font-family="Arial" font-size="14.00" fill="#666666">[enum]</text>
<polygon fill="none" stroke="black" points="266.01,-881.8 266.01,-912.6 543.34,-912.6 543.34,-881.8 266.01,-881.8"/>
<text text-anchor="start" x="273.01" y="-894" font-family="Arial" font-size="14.00">active </text>
<text text-anchor="start" x="313.47" y="-894" font-family="Arial" font-size="14.00" fill="#666666">[boolean]</text>
<polygon fill="none" stroke="black" stroke-width="3" points="264.51,-880.3 264.51,-1350.1 544.84,-1350.1 544.84,-880.3 264.51,-880.3"/>
</g>
<!-- Shipment -->
<g id="node4" class="node">
<title>Shipment</title>
<polygon fill="#efefef" stroke="none" points="130.99,-536 130.99,-571.6 342.36,-571.6 342.36,-536 130.99,-536"/>
<polygon fill="none" stroke="black" points="130.99,-536 130.99,-571.6 342.36,-571.6 342.36,-536 130.99,-536"/>
<text text-anchor="start" x="137.99" y="-549.4" font-family="Arial Bold" font-size="18.00">Shipment</text>
<text text-anchor="start" x="206.99" y="-549.4" font-family="Arial" font-size="14.00">    </text>
<text text-anchor="start" x="238.11" y="-549.4" font-family="Arial" font-size="14.00" fill="#666666">[TailorDB.Type]</text>
<polygon fill="none" stroke="black" points="130.99,-505.2 130.99,-536 342.36,-536 342.36,-505.2 130.99,-505.2"/>
<text text-anchor="start" x="137.99" y="-517.4" font-family="Arial" font-size="14.00">id </text>
<text text-anchor="start" x="152.78" y="-517.4" font-family="Arial" font-size="14.00" fill="#666666">[uuid]</text>
<polygon fill="none" stroke="black" points="130.99,-474.4 130.99,-505.2 342.36,-505.2 342.36,-474.4 130.99,-474.4"/>
<text text-anchor="start" x="137.99" y="-486.6" font-family="Arial" font-size="14.00">date </text>
<text text-anchor="start" x="169.13" y="-486.6" font-family="Arial" font-size="14.00" fill="#666666">[datetime]</text>
<polygon fill="none" stroke="black" points="130.99,-443.6 130.99,-474.4 342.36,-474.4 342.36,-443.6 130.99,-443.6"/>
<text text-anchor="start" x="137.99" y="-455.8" font-family="Arial" font-size="14.00">updatedAt </text>
<text text-anchor="start" x="205.71" y="-455.8" font-family="Arial" font-size="14.00" fill="#666666">[datetime]</text>
<polygon fill="none" stroke="black" points="130.99,-412.8 130.99,-443.6 342.36,-443.6 342.36,-412.8 130.99,-412.8"/>
<text text-anchor="start" x="137.99" y="-425" font-family="Arial" font-size="14.00">createdAt </text>
<text text-anchor="start" x="201.8" y="-425" font-family="Arial" font-size="14.00" fill="#666666">[datetime]</text>
<polygon fill="none" stroke="black" points="130.99,-382 130.99,-412.8 342.36,-412.8 342.36,-382 130.99,-382"/>
<text text-anchor="start" x="137.99" y="-394.2" font-family="Arial" font-size="14.00">shipmentNumber </text>
<text text-anchor="start" x="248.48" y="-394.2" font-family="Arial" font-size="14.00" fill="#666666">[string]</text>
<polygon fill="none" stroke="black" points="130.99,-351.2 130.99,-382 342.36,-382 342.36,-351.2 130.99,-351.2"/>
<text text-anchor="start" x="137.99" y="-363.4" font-family="Arial" font-size="14.00">salesOrderID </text>
<text text-anchor="start" x="224.35" y="-363.4" font-family="Arial" font-size="14.00" fill="#666666">[uuid]</text>
<polygon fill="none" stroke="black" points="130.99,-320.4 130.99,-351.2 342.36,-351.2 342.36,-320.4 130.99,-320.4"/>
<text text-anchor="start" x="137.99" y="-332.6" font-family="Arial" font-size="14.00">salesOrder </text>
<text text-anchor="start" x="210.35" y="-332.6" font-family="Arial" font-size="14.00" fill="#666666">[SalesOrder]</text>
<polygon fill="none" stroke="black" points="130.99,-289.6 130.99,-320.4 342.36,-320.4 342.36,-289.6 130.99,-289.6"/>
<text text-anchor="start" x="137.99" y="-301.8" font-family="Arial" font-size="14.00">active </text>
<text text-anchor="start" x="178.45" y="-301.8" font-family="Arial" font-size="14.00" fill="#666666">[boolean]</text>
<polygon fill="none" stroke="black" points="130.99,-258.8 130.99,-289.6 342.36,-289.6 342.36,-258.8 130.99,-258.8"/>
<text text-anchor="start" x="137.99" y="-271" font-family="Arial" font-size="14.00">customerID </text>
<text text-anchor="start" x="213.45" y="-271" font-family="Arial" font-size="14.00" fill="#666666">[uuid]</text>
<polygon fill="none" stroke="black" points="130.99,-228 130.99,-258.8 342.36,-258.8 342.36,-228 130.99,-228"/>
<text text-anchor="start" x="137.99" y="-240.2" font-family="Arial" font-size="14.00">customer </text>
<text text-anchor="start" x="199.45" y="-240.2" font-family="Arial" font-size="14.00" fill="#666666">[Contact]</text>
</g>
<!-- ShipmentLineItem&#45;&gt;Shipment -->
<g id="edge3" class="edge">
<title>ShipmentLineItem:shipmentID&#45;&gt;Shipment:id</title>
<path fill="none" stroke="black" d="M254.64,-1050.2C149.15,-1028.23 335.78,-652.71 342.36,-614.8 349.52,-573.55 385.23,-520.6 343.36,-520.6"/>
<polygon fill="black" stroke="black" points="254.72,-1050.2 264.24,-1055.65 260.03,-1050.72 264.34,-1051.14 264.34,-1051.14 264.34,-1051.14 260.03,-1050.72 265.11,-1046.69 254.72,-1050.2"/>
<text text-anchor="start" x="178.52" y="-1061.2" font-family="Arial" font-size="10.00">Source: Shipment</text>
</g>
<!-- ProductVariant -->
<g id="node5" class="node">
<title>ProductVariant</title>
<polygon fill="#efefef" stroke="none" points="446.51,-720.8 446.51,-756.4 698.84,-756.4 698.84,-720.8 446.51,-720.8"/>
<polygon fill="none" stroke="black" points="446.51,-720.8 446.51,-756.4 698.84,-756.4 698.84,-720.8 446.51,-720.8"/>
<text text-anchor="start" x="453.51" y="-734.2" font-family="Arial Bold" font-size="18.00">ProductVariant</text>
<text text-anchor="start" x="563.48" y="-734.2" font-family="Arial" font-size="14.00">    </text>
<text text-anchor="start" x="594.59" y="-734.2" font-family="Arial" font-size="14.00" fill="#666666">[TailorDB.Type]</text>
<polygon fill="none" stroke="black" points="446.51,-690 446.51,-720.8 698.84,-720.8 698.84,-690 446.51,-690"/>
<text text-anchor="start" x="453.51" y="-702.2" font-family="Arial" font-size="14.00">id </text>
<text text-anchor="start" x="468.29" y="-702.2" font-family="Arial" font-size="14.00" fill="#666666">[uuid]</text>
<polygon fill="none" stroke="black" points="446.51,-659.2 446.51,-690 698.84,-690 698.84,-659.2 446.51,-659.2"/>
<text text-anchor="start" x="453.51" y="-671.4" font-family="Arial" font-size="14.00">shopifyID </text>
<text text-anchor="start" x="515.76" y="-671.4" font-family="Arial" font-size="14.00" fill="#666666">[string]</text>
<polygon fill="none" stroke="black" points="446.51,-628.4 446.51,-659.2 698.84,-659.2 698.84,-628.4 446.51,-628.4"/>
<text text-anchor="start" x="453.51" y="-640.6" font-family="Arial" font-size="14.00">availableForSale </text>
<text text-anchor="start" x="561.68" y="-640.6" font-family="Arial" font-size="14.00" fill="#666666">[boolean]</text>
<polygon fill="none" stroke="black" points="446.51,-597.6 446.51,-628.4 698.84,-628.4 698.84,-597.6 446.51,-597.6"/>
<text text-anchor="start" x="453.51" y="-609.8" font-family="Arial" font-size="14.00">displayName </text>
<text text-anchor="start" x="538.32" y="-609.8" font-family="Arial" font-size="14.00" fill="#666666">[string]</text>
<polygon fill="none" stroke="black" points="446.51,-566.8 446.51,-597.6 698.84,-597.6 698.84,-566.8 446.51,-566.8"/>
<text text-anchor="start" x="453.51" y="-579" font-family="Arial" font-size="14.00">price </text>
<text text-anchor="start" x="487.74" y="-579" font-family="Arial" font-size="14.00" fill="#666666">[float]</text>
<polygon fill="none" stroke="black" points="446.51,-536 446.51,-566.8 698.84,-566.8 698.84,-536 446.51,-536"/>
<text text-anchor="start" x="453.51" y="-548.2" font-family="Arial" font-size="14.00">product </text>
<text text-anchor="start" x="504.09" y="-548.2" font-family="Arial" font-size="14.00" fill="#666666">[Product]</text>
<polygon fill="none" stroke="black" points="446.51,-505.2 446.51,-536 698.84,-536 698.84,-505.2 446.51,-505.2"/>
<text text-anchor="start" x="453.51" y="-517.4" font-family="Arial" font-size="14.00">updatedAt </text>
<text text-anchor="start" x="521.23" y="-517.4" font-family="Arial" font-size="14.00" fill="#666666">[datetime]</text>
<polygon fill="none" stroke="black" points="446.51,-474.4 446.51,-505.2 698.84,-505.2 698.84,-474.4 446.51,-474.4"/>
<text text-anchor="start" x="453.51" y="-486.6" font-family="Arial" font-size="14.00">sku </text>
<text text-anchor="start" x="479.18" y="-486.6" font-family="Arial" font-size="14.00" fill="#666666">[string]</text>
<polygon fill="none" stroke="black" points="446.51,-443.6 446.51,-474.4 698.84,-474.4 698.84,-443.6 446.51,-443.6"/>
<text text-anchor="start" x="453.51" y="-455.8" font-family="Arial" font-size="14.00">image </text>
<text text-anchor="start" x="495.53" y="-455.8" font-family="Arial" font-size="14.00" fill="#666666">[ProductImage]</text>
<polygon fill="none" stroke="black" points="446.51,-412.8 446.51,-443.6 698.84,-443.6 698.84,-412.8 446.51,-412.8"/>
<text text-anchor="start" x="453.51" y="-425" font-family="Arial" font-size="14.00">inventoryItem </text>
<text text-anchor="start" x="541.43" y="-425" font-family="Arial" font-size="14.00" fill="#666666">[InventoryItem]</text>
<polygon fill="none" stroke="black" points="446.51,-382 446.51,-412.8 698.84,-412.8 698.84,-382 446.51,-382"/>
<text text-anchor="start" x="453.51" y="-394.2" font-family="Arial" font-size="14.00">inventoryType </text>
<text text-anchor="start" x="545.33" y="-394.2" font-family="Arial" font-size="14.00" fill="#666666">[enum]</text>
<polygon fill="none" stroke="black" points="446.51,-351.2 446.51,-382 698.84,-382 698.84,-351.2 446.51,-351.2"/>
<text text-anchor="start" x="453.51" y="-363.4" font-family="Arial" font-size="14.00">quickbookSyncToken </text>
<text text-anchor="start" x="590.47" y="-363.4" font-family="Arial" font-size="14.00" fill="#666666">[string]</text>
<polygon fill="none" stroke="black" points="446.51,-320.4 446.51,-351.2 698.84,-351.2 698.84,-320.4 446.51,-320.4"/>
<text text-anchor="start" x="453.51" y="-332.6" font-family="Arial" font-size="14.00">taxable </text>
<text text-anchor="start" x="502.54" y="-332.6" font-family="Arial" font-size="14.00" fill="#666666">[boolean]</text>
<polygon fill="none" stroke="black" points="446.51,-289.6 446.51,-320.4 698.84,-320.4 698.84,-289.6 446.51,-289.6"/>
<text text-anchor="start" x="453.51" y="-301.8" font-family="Arial" font-size="14.00">quickbookItemId </text>
<text text-anchor="start" x="559.34" y="-301.8" font-family="Arial" font-size="14.00" fill="#666666">[string]</text>
<polygon fill="none" stroke="black" points="446.51,-258.8 446.51,-289.6 698.84,-289.6 698.84,-258.8 446.51,-258.8"/>
<text text-anchor="start" x="453.51" y="-271" font-family="Arial" font-size="14.00">createdAt </text>
<text text-anchor="start" x="517.32" y="-271" font-family="Arial" font-size="14.00" fill="#666666">[datetime]</text>
<polygon fill="none" stroke="black" points="446.51,-228 446.51,-258.8 698.84,-258.8 698.84,-228 446.51,-228"/>
<text text-anchor="start" x="453.51" y="-240.2" font-family="Arial" font-size="14.00">barcode </text>
<text text-anchor="start" x="507.99" y="-240.2" font-family="Arial" font-size="14.00" fill="#666666">[string]</text>
<polygon fill="none" stroke="black" points="446.51,-197.2 446.51,-228 698.84,-228 698.84,-197.2 446.51,-197.2"/>
<text text-anchor="start" x="453.51" y="-209.4" font-family="Arial" font-size="14.00">imageID </text>
<text text-anchor="start" x="509.53" y="-209.4" font-family="Arial" font-size="14.00" fill="#666666">[uuid]</text>
<polygon fill="none" stroke="black" points="446.51,-166.4 446.51,-197.2 698.84,-197.2 698.84,-166.4 446.51,-166.4"/>
<text text-anchor="start" x="453.51" y="-178.6" font-family="Arial" font-size="14.00">inventoryQuantity </text>
<text text-anchor="start" x="566.34" y="-178.6" font-family="Arial" font-size="14.00" fill="#666666">[integer]</text>
<polygon fill="none" stroke="black" points="446.51,-135.6 446.51,-166.4 698.84,-166.4 698.84,-135.6 446.51,-135.6"/>
<text text-anchor="start" x="453.51" y="-147.8" font-family="Arial" font-size="14.00">productID </text>
<text text-anchor="start" x="518.09" y="-147.8" font-family="Arial" font-size="14.00" fill="#666666">[uuid]</text>
<polygon fill="none" stroke="black" points="446.51,-104.8 446.51,-135.6 698.84,-135.6 698.84,-104.8 446.51,-104.8"/>
<text text-anchor="start" x="453.51" y="-117" font-family="Arial" font-size="14.00">active </text>
<text text-anchor="start" x="493.97" y="-117" font-family="Arial" font-size="14.00" fill="#666666">[boolean]</text>
<polygon fill="none" stroke="black" points="446.51,-74 446.51,-104.8 698.84,-104.8 698.84,-74 446.51,-74"/>
<text text-anchor="start" x="453.51" y="-86.2" font-family="Arial" font-size="14.00">inventoryItemID </text>
<text text-anchor="start" x="555.43" y="-86.2" font-family="Arial" font-size="14.00" fill="#666666">[uuid]</text>
<polygon fill="none" stroke="black" points="446.51,-43.2 446.51,-74 698.84,-74 698.84,-43.2 446.51,-43.2"/>
<text text-anchor="start" x="453.51" y="-55.4" font-family="Arial" font-size="14.00">quickbookItemName </text>
<text text-anchor="start" x="585.01" y="-55.4" font-family="Arial" font-size="14.00" fill="#666666">[string]</text>
</g>
<!-- ShipmentLineItem&#45;&gt;ProductVariant -->
<g id="edge4" class="edge">
<title>ShipmentLineItem:variantID&#45;&gt;ProductVariant:id</title>
<path fill="none" stroke="black" d="M554.58,-1174.05C691.84,-1164.36 627.45,-956.22 543.34,-835.6 517.08,-797.94 472.92,-837.16 446.51,-799.6 422.43,-765.35 403.64,-705.4 445.51,-705.4"/>
<polygon fill="black" stroke="black" points="554.67,-1174.05 544.52,-1169.89 549.34,-1174.23 545.01,-1174.38 545.01,-1174.38 545.01,-1174.38 549.34,-1174.23 544.83,-1178.89 554.67,-1174.05"/>
<text text-anchor="start" x="551.34" y="-1184.4" font-family="Arial" font-size="10.00">Source: ProductVariant</text>
</g>
<!-- FinancialStockEvent -->
<g id="node2" class="node">
<title>FinancialStockEvent</title>
<polygon fill="#efefef" stroke="none" points="43.2,-2120.8 43.2,-2156.4 352.15,-2156.4 352.15,-2120.8 43.2,-2120.8"/>
<polygon fill="none" stroke="black" points="43.2,-2120.8 43.2,-2156.4 352.15,-2156.4 352.15,-2120.8 43.2,-2120.8"/>
<text text-anchor="start" x="58.51" y="-2134.2" font-family="Arial Bold" font-size="18.00">FinancialStockEvent</text>
<text text-anchor="start" x="208.48" y="-2134.2" font-family="Arial" font-size="14.00">    </text>
<text text-anchor="start" x="239.59" y="-2134.2" font-family="Arial" font-size="14.00" fill="#666666">[TailorDB.Type]</text>
<polygon fill="none" stroke="black" points="43.2,-2090 43.2,-2120.8 352.15,-2120.8 352.15,-2090 43.2,-2090"/>
<text text-anchor="start" x="50.2" y="-2102.2" font-family="Arial" font-size="14.00">id </text>
<text text-anchor="start" x="64.99" y="-2102.2" font-family="Arial" font-size="14.00" fill="#666666">[uuid]</text>
<polygon fill="none" stroke="black" points="43.2,-2059.2 43.2,-2090 352.15,-2090 352.15,-2059.2 43.2,-2059.2"/>
<text text-anchor="start" x="50.2" y="-2071.4" font-family="Arial" font-size="14.00">onHoldQuantity </text>
<text text-anchor="start" x="150.59" y="-2071.4" font-family="Arial" font-size="14.00" fill="#666666">[float]</text>
<polygon fill="none" stroke="black" points="43.2,-2028.4 43.2,-2059.2 352.15,-2059.2 352.15,-2028.4 43.2,-2028.4"/>
<text text-anchor="start" x="50.2" y="-2040.6" font-family="Arial" font-size="14.00">totalCost </text>
<text text-anchor="start" x="109.34" y="-2040.6" font-family="Arial" font-size="14.00" fill="#666666">[float]</text>
<polygon fill="none" stroke="black" points="43.2,-1997.6 43.2,-2028.4 352.15,-2028.4 352.15,-1997.6 43.2,-1997.6"/>
<text text-anchor="start" x="50.2" y="-2009.8" font-family="Arial" font-size="14.00">receiptLineItem </text>
<text text-anchor="start" x="149.81" y="-2009.8" font-family="Arial" font-size="14.00" fill="#666666">[ReceiptLineItem]</text>
<polygon fill="none" stroke="black" points="43.2,-1966.8 43.2,-1997.6 352.15,-1997.6 352.15,-1966.8 43.2,-1966.8"/>
<text text-anchor="start" x="50.2" y="-1979" font-family="Arial" font-size="14.00">variantID </text>
<text text-anchor="start" x="110.11" y="-1979" font-family="Arial" font-size="14.00" fill="#666666">[uuid]</text>
<polygon fill="none" stroke="black" points="43.2,-1936 43.2,-1966.8 352.15,-1966.8 352.15,-1936 43.2,-1936"/>
<text text-anchor="start" x="50.2" y="-1948.2" font-family="Arial" font-size="14.00">isOnHold </text>
<text text-anchor="start" x="111.67" y="-1948.2" font-family="Arial" font-size="14.00" fill="#666666">[boolean]</text>
<polygon fill="none" stroke="black" points="43.2,-1905.2 43.2,-1936 352.15,-1936 352.15,-1905.2 43.2,-1905.2"/>
<text text-anchor="start" x="50.2" y="-1917.4" font-family="Arial" font-size="14.00">shipmentLineItemID </text>
<text text-anchor="start" x="178.59" y="-1917.4" font-family="Arial" font-size="14.00" fill="#666666">[uuid]</text>
<polygon fill="none" stroke="black" points="43.2,-1874.4 43.2,-1905.2 352.15,-1905.2 352.15,-1874.4 43.2,-1874.4"/>
<text text-anchor="start" x="50.2" y="-1886.6" font-family="Arial" font-size="14.00">operationalStockEventID </text>
<text text-anchor="start" x="208.18" y="-1886.6" font-family="Arial" font-size="14.00" fill="#666666">[uuid]</text>
<polygon fill="none" stroke="black" points="43.2,-1843.6 43.2,-1874.4 352.15,-1874.4 352.15,-1843.6 43.2,-1843.6"/>
<text text-anchor="start" x="50.2" y="-1855.8" font-family="Arial" font-size="14.00">unitCost </text>
<text text-anchor="start" x="105.45" y="-1855.8" font-family="Arial" font-size="14.00" fill="#666666">[float]</text>
<polygon fill="none" stroke="black" points="43.2,-1812.8 43.2,-1843.6 352.15,-1843.6 352.15,-1812.8 43.2,-1812.8"/>
<text text-anchor="start" x="50.2" y="-1825" font-family="Arial" font-size="14.00">availableQuantity </text>
<text text-anchor="start" x="161.49" y="-1825" font-family="Arial" font-size="14.00" fill="#666666">[float]</text>
<polygon fill="none" stroke="black" points="43.2,-1782 43.2,-1812.8 352.15,-1812.8 352.15,-1782 43.2,-1782"/>
<text text-anchor="start" x="50.2" y="-1794.2" font-family="Arial" font-size="14.00">inStockQuantity </text>
<text text-anchor="start" x="152.14" y="-1794.2" font-family="Arial" font-size="14.00" fill="#666666">[float]</text>
<polygon fill="none" stroke="black" points="43.2,-1751.2 43.2,-1782 352.15,-1782 352.15,-1751.2 43.2,-1751.2"/>
<text text-anchor="start" x="50.2" y="-1763.4" font-family="Arial" font-size="14.00">averageCost </text>
<text text-anchor="start" x="133.47" y="-1763.4" font-family="Arial" font-size="14.00" fill="#666666">[float]</text>
<polygon fill="none" stroke="black" points="43.2,-1720.4 43.2,-1751.2 352.15,-1751.2 352.15,-1720.4 43.2,-1720.4"/>
<text text-anchor="start" x="50.2" y="-1732.6" font-family="Arial" font-size="14.00">shipmentLineItem </text>
<text text-anchor="start" x="164.59" y="-1732.6" font-family="Arial" font-size="14.00" fill="#666666">[ShipmentLineItem]</text>
<polygon fill="none" stroke="black" points="43.2,-1689.6 43.2,-1720.4 352.15,-1720.4 352.15,-1689.6 43.2,-1689.6"/>
<text text-anchor="start" x="50.2" y="-1701.8" font-family="Arial" font-size="14.00">receiptLineItemID </text>
<text text-anchor="start" x="163.81" y="-1701.8" font-family="Arial" font-size="14.00" fill="#666666">[uuid]</text>
<polygon fill="none" stroke="black" points="43.2,-1658.8 43.2,-1689.6 352.15,-1689.6 352.15,-1658.8 43.2,-1658.8"/>
<text text-anchor="start" x="50.2" y="-1671" font-family="Arial" font-size="14.00">operationalStockEvent </text>
<text text-anchor="start" x="194.18" y="-1671" font-family="Arial" font-size="14.00" fill="#666666">[OperationalStockEvent]</text>
<polygon fill="none" stroke="black" points="43.2,-1628 43.2,-1658.8 352.15,-1658.8 352.15,-1628 43.2,-1628"/>
<text text-anchor="start" x="50.2" y="-1640.2" font-family="Arial" font-size="14.00">active </text>
<text text-anchor="start" x="90.66" y="-1640.2" font-family="Arial" font-size="14.00" fill="#666666">[boolean]</text>
<polygon fill="none" stroke="black" points="43.2,-1597.2 43.2,-1628 352.15,-1628 352.15,-1597.2 43.2,-1597.2"/>
<text text-anchor="start" x="50.2" y="-1609.4" font-family="Arial" font-size="14.00">createdAt </text>
<text text-anchor="start" x="114.01" y="-1609.4" font-family="Arial" font-size="14.00" fill="#666666">[datetime]</text>
<polygon fill="none" stroke="black" points="43.2,-1566.4 43.2,-1597.2 352.15,-1597.2 352.15,-1566.4 43.2,-1566.4"/>
<text text-anchor="start" x="50.2" y="-1578.6" font-family="Arial" font-size="14.00">updatedAt </text>
<text text-anchor="start" x="117.92" y="-1578.6" font-family="Arial" font-size="14.00" fill="#666666">[datetime]</text>
<polygon fill="none" stroke="black" points="43.2,-1535.6 43.2,-1566.4 352.15,-1566.4 352.15,-1535.6 43.2,-1535.6"/>
<text text-anchor="start" x="50.2" y="-1547.8" font-family="Arial" font-size="14.00">variant </text>
<text text-anchor="start" x="96.11" y="-1547.8" font-family="Arial" font-size="14.00" fill="#666666">[ProductVariant]</text>
<polygon fill="none" stroke="black" points="43.2,-1504.8 43.2,-1535.6 352.15,-1535.6 352.15,-1504.8 43.2,-1504.8"/>
<text text-anchor="start" x="50.2" y="-1517" font-family="Arial" font-size="14.00">incrementalQuantity </text>
<text text-anchor="start" x="178.59" y="-1517" font-family="Arial" font-size="14.00" fill="#666666">[float]</text>
<polygon fill="none" stroke="black" points="43.2,-1474 43.2,-1504.8 352.15,-1504.8 352.15,-1474 43.2,-1474"/>
<text text-anchor="start" x="50.2" y="-1486.2" font-family="Arial" font-size="14.00">transactionTotalCost </text>
<text text-anchor="start" x="182.48" y="-1486.2" font-family="Arial" font-size="14.00" fill="#666666">[float]</text>
</g>
<!-- FinancialStockEvent&#45;&gt;ShipmentLineItem -->
<g id="edge1" class="edge">
<title>FinancialStockEvent:shipmentLineItemID&#45;&gt;ShipmentLineItem:id</title>
<path fill="none" stroke="black" d="M362.18,-1915.9C404.5,-1868.23 380.53,-1473.33 352.15,-1430.8 329.12,-1396.29 289.18,-1429.22 266.01,-1394.8 241.88,-1358.96 221.8,-1297.6 265.01,-1297.6"/>
<polygon fill="black" stroke="black" points="362.32,-1915.83 351.37,-1916.45 357.58,-1918.29 353.74,-1920.29 353.74,-1920.29 353.74,-1920.29 357.58,-1918.29 355.53,-1924.44 362.32,-1915.83"/>
<text text-anchor="start" x="360.15" y="-1930.6" font-family="Arial" font-size="10.00">ForeignKeyType: ShipmentLineItem</text>
</g>
<!-- OperationalStockEvent -->
<g id="node3" class="node">
<title>OperationalStockEvent</title>
<polygon fill="#efefef" stroke="none" points="456.52,-2120.8 456.52,-2156.4 766.83,-2156.4 766.83,-2120.8 456.52,-2120.8"/>
<polygon fill="none" stroke="black" points="456.52,-2120.8 456.52,-2156.4 766.83,-2156.4 766.83,-2120.8 456.52,-2120.8"/>
<text text-anchor="start" x="463.52" y="-2134.2" font-family="Arial Bold" font-size="18.00">OperationalStockEvent</text>
<text text-anchor="start" x="631.47" y="-2134.2" font-family="Arial" font-size="14.00">    </text>
<text text-anchor="start" x="662.58" y="-2134.2" font-family="Arial" font-size="14.00" fill="#666666">[TailorDB.Type]</text>
<polygon fill="none" stroke="black" points="456.52,-2090 456.52,-2120.8 766.83,-2120.8 766.83,-2090 456.52,-2090"/>
<text text-anchor="start" x="463.52" y="-2102.2" font-family="Arial" font-size="14.00">id </text>
<text text-anchor="start" x="478.3" y="-2102.2" font-family="Arial" font-size="14.00" fill="#666666">[uuid]</text>
<polygon fill="none" stroke="black" points="456.52,-2059.2 456.52,-2090 766.83,-2090 766.83,-2059.2 456.52,-2059.2"/>
<text text-anchor="start" x="463.52" y="-2071.4" font-family="Arial" font-size="14.00">createdAt </text>
<text text-anchor="start" x="527.33" y="-2071.4" font-family="Arial" font-size="14.00" fill="#666666">[datetime]</text>
<polygon fill="none" stroke="black" points="456.52,-2028.4 456.52,-2059.2 766.83,-2059.2 766.83,-2028.4 456.52,-2028.4"/>
<text text-anchor="start" x="463.52" y="-2040.6" font-family="Arial" font-size="14.00">variantID </text>
<text text-anchor="start" x="523.43" y="-2040.6" font-family="Arial" font-size="14.00" fill="#666666">[uuid]</text>
<polygon fill="none" stroke="black" points="456.52,-1997.6 456.52,-2028.4 766.83,-2028.4 766.83,-1997.6 456.52,-1997.6"/>
<text text-anchor="start" x="463.52" y="-2009.8" font-family="Arial" font-size="14.00">variant </text>
<text text-anchor="start" x="509.43" y="-2009.8" font-family="Arial" font-size="14.00" fill="#666666">[ProductVariant]</text>
<polygon fill="none" stroke="black" points="456.52,-1966.8 456.52,-1997.6 766.83,-1997.6 766.83,-1966.8 456.52,-1966.8"/>
<text text-anchor="start" x="463.52" y="-1979" font-family="Arial" font-size="14.00">unitCost </text>
<text text-anchor="start" x="518.77" y="-1979" font-family="Arial" font-size="14.00" fill="#666666">[float]</text>
<polygon fill="none" stroke="black" points="456.52,-1936 456.52,-1966.8 766.83,-1966.8 766.83,-1936 456.52,-1936"/>
<text text-anchor="start" x="463.52" y="-1948.2" font-family="Arial" font-size="14.00">shipmentLineItem </text>
<text text-anchor="start" x="577.91" y="-1948.2" font-family="Arial" font-size="14.00" fill="#666666">[ShipmentLineItem]</text>
<polygon fill="none" stroke="black" points="456.52,-1905.2 456.52,-1936 766.83,-1936 766.83,-1905.2 456.52,-1905.2"/>
<text text-anchor="start" x="463.52" y="-1917.4" font-family="Arial" font-size="14.00">copiedToFinancialLedger </text>
<text text-anchor="start" x="624.62" y="-1917.4" font-family="Arial" font-size="14.00" fill="#666666">[boolean]</text>
<polygon fill="none" stroke="black" points="456.52,-1874.4 456.52,-1905.2 766.83,-1905.2 766.83,-1874.4 456.52,-1874.4"/>
<text text-anchor="start" x="463.52" y="-1886.6" font-family="Arial" font-size="14.00">active </text>
<text text-anchor="start" x="503.98" y="-1886.6" font-family="Arial" font-size="14.00" fill="#666666">[boolean]</text>
<polygon fill="none" stroke="black" points="456.52,-1843.6 456.52,-1874.4 766.83,-1874.4 766.83,-1843.6 456.52,-1843.6"/>
<text text-anchor="start" x="463.52" y="-1855.8" font-family="Arial" font-size="14.00">inStockQuantity </text>
<text text-anchor="start" x="565.45" y="-1855.8" font-family="Arial" font-size="14.00" fill="#666666">[float]</text>
<polygon fill="none" stroke="black" points="456.52,-1812.8 456.52,-1843.6 766.83,-1843.6 766.83,-1812.8 456.52,-1812.8"/>
<text text-anchor="start" x="463.52" y="-1825" font-family="Arial" font-size="14.00">receiptLineItem </text>
<text text-anchor="start" x="563.12" y="-1825" font-family="Arial" font-size="14.00" fill="#666666">[ReceiptLineItem]</text>
<polygon fill="none" stroke="black" points="456.52,-1782 456.52,-1812.8 766.83,-1812.8 766.83,-1782 456.52,-1782"/>
<text text-anchor="start" x="463.52" y="-1794.2" font-family="Arial" font-size="14.00">transactionTotalCost </text>
<text text-anchor="start" x="595.8" y="-1794.2" font-family="Arial" font-size="14.00" fill="#666666">[float]</text>
<polygon fill="none" stroke="black" points="456.52,-1751.2 456.52,-1782 766.83,-1782 766.83,-1751.2 456.52,-1751.2"/>
<text text-anchor="start" x="463.52" y="-1763.4" font-family="Arial" font-size="14.00">isOnHold </text>
<text text-anchor="start" x="524.99" y="-1763.4" font-family="Arial" font-size="14.00" fill="#666666">[boolean]</text>
<polygon fill="none" stroke="black" points="456.52,-1720.4 456.52,-1751.2 766.83,-1751.2 766.83,-1720.4 456.52,-1720.4"/>
<text text-anchor="start" x="463.52" y="-1732.6" font-family="Arial" font-size="14.00">onHoldQuantity </text>
<text text-anchor="start" x="563.91" y="-1732.6" font-family="Arial" font-size="14.00" fill="#666666">[float]</text>
<polygon fill="none" stroke="black" points="456.52,-1689.6 456.52,-1720.4 766.83,-1720.4 766.83,-1689.6 456.52,-1689.6"/>
<text text-anchor="start" x="463.52" y="-1701.8" font-family="Arial" font-size="14.00">availableQuantity </text>
<text text-anchor="start" x="574.81" y="-1701.8" font-family="Arial" font-size="14.00" fill="#666666">[float]</text>
<polygon fill="none" stroke="black" points="456.52,-1658.8 456.52,-1689.6 766.83,-1689.6 766.83,-1658.8 456.52,-1658.8"/>
<text text-anchor="start" x="463.52" y="-1671" font-family="Arial" font-size="14.00">receiptLineItemID </text>
<text text-anchor="start" x="577.12" y="-1671" font-family="Arial" font-size="14.00" fill="#666666">[uuid]</text>
<polygon fill="none" stroke="black" points="456.52,-1628 456.52,-1658.8 766.83,-1658.8 766.83,-1628 456.52,-1628"/>
<text text-anchor="start" x="463.52" y="-1640.2" font-family="Arial" font-size="14.00">updatedAt </text>
<text text-anchor="start" x="531.24" y="-1640.2" font-family="Arial" font-size="14.00" fill="#666666">[datetime]</text>
<polygon fill="none" stroke="black" points="456.52,-1597.2 456.52,-1628 766.83,-1628 766.83,-1597.2 456.52,-1597.2"/>
<text text-anchor="start" x="463.52" y="-1609.4" font-family="Arial" font-size="14.00">incrementalQuantity </text>
<text text-anchor="start" x="591.91" y="-1609.4" font-family="Arial" font-size="14.00" fill="#666666">[float]</text>
<polygon fill="none" stroke="black" points="456.52,-1566.4 456.52,-1597.2 766.83,-1597.2 766.83,-1566.4 456.52,-1566.4"/>
<text text-anchor="start" x="463.52" y="-1578.6" font-family="Arial" font-size="14.00">totalCost </text>
<text text-anchor="start" x="522.66" y="-1578.6" font-family="Arial" font-size="14.00" fill="#666666">[float]</text>
<polygon fill="none" stroke="black" points="456.52,-1535.6 456.52,-1566.4 766.83,-1566.4 766.83,-1535.6 456.52,-1535.6"/>
<text text-anchor="start" x="463.52" y="-1547.8" font-family="Arial" font-size="14.00">averageCost </text>
<text text-anchor="start" x="546.79" y="-1547.8" font-family="Arial" font-size="14.00" fill="#666666">[float]</text>
<polygon fill="none" stroke="black" points="456.52,-1504.8 456.52,-1535.6 766.83,-1535.6 766.83,-1504.8 456.52,-1504.8"/>
<text text-anchor="start" x="463.52" y="-1517" font-family="Arial" font-size="14.00">shipmentLineItemID </text>
<text text-anchor="start" x="591.91" y="-1517" font-family="Arial" font-size="14.00" fill="#666666">[uuid]</text>
<polygon fill="none" stroke="black" points="456.52,-1474 456.52,-1504.8 766.83,-1504.8 766.83,-1474 456.52,-1474"/>
<text text-anchor="start" x="463.52" y="-1486.2" font-family="Arial" font-size="14.00">sequence </text>
<text text-anchor="start" x="528.12" y="-1486.2" font-family="Arial" font-size="14.00" fill="#666666">[integer]</text>
</g>
<!-- OperationalStockEvent&#45;&gt;ShipmentLineItem -->
<g id="edge2" class="edge">
<title>OperationalStockEvent:shipmentLineItemID&#45;&gt;ShipmentLineItem:id</title>
<path fill="none" stroke="black" d="M445.49,-1518.66C419.43,-1509.39 436.44,-1460.5 456.52,-1430.8 479.91,-1396.19 519.96,-1429.42 543.34,-1394.8 567.52,-1359 587.55,-1297.6 544.34,-1297.6"/>
<polygon fill="black" stroke="black" points="445.3,-1518.63 454.5,-1524.6 450.58,-1519.44 454.86,-1520.1 454.86,-1520.1 454.86,-1520.1 450.58,-1519.44 455.87,-1515.7 445.3,-1518.63"/>
<text text-anchor="start" x="419.14" y="-1504.2" font-family="Arial" font-size="10.00">ForeignKeyType: ShipmentLineItem</text>
</g>
</g>
</svg>
