<?xml version="1.0" encoding="UTF-8" standalone="no"?>
<!DOCTYPE svg PUBLIC "-//W3C//DTD SVG 1.1//EN"
 "http://www.w3.org/Graphics/SVG/1.1/DTD/svg11.dtd">
<!-- Generated by graphviz version 12.1.2 (20240928.0832)
 -->
<!-- Title: TeamUser Pages: 1 -->
<svg width="558pt" height="725pt"
 viewBox="0.00 0.00 558.25 725.20" xmlns="http://www.w3.org/2000/svg" xmlns:xlink="http://www.w3.org/1999/xlink">
<g id="graph0" class="graph" transform="scale(1 1) rotate(0) translate(4 721.2)">
<title>TeamUser</title>
<polygon fill="white" stroke="none" points="-4,4 -4,-721.2 554.25,-721.2 554.25,4 -4,4"/>
<!-- TeamUser -->
<g id="node1" class="node">
<title>TeamUser</title>
<polygon fill="#efefef" stroke="none" points="164.71,-635.4 164.71,-671 382.04,-671 382.04,-635.4 164.71,-635.4"/>
<polygon fill="none" stroke="black" points="164.71,-635.4 164.71,-671 382.04,-671 382.04,-635.4 164.71,-635.4"/>
<text text-anchor="start" x="171.71" y="-648.8" font-family="Arial Bold" font-size="18.00">TeamUser</text>
<text text-anchor="start" x="246.67" y="-648.8" font-family="Arial" font-size="14.00">    </text>
<text text-anchor="start" x="277.79" y="-648.8" font-family="Arial" font-size="14.00" fill="#666666">[TailorDB.Type]</text>
<polygon fill="none" stroke="black" points="164.71,-604.6 164.71,-635.4 382.04,-635.4 382.04,-604.6 164.71,-604.6"/>
<text text-anchor="start" x="171.71" y="-616.8" font-family="Arial" font-size="14.00">id </text>
<text text-anchor="start" x="186.5" y="-616.8" font-family="Arial" font-size="14.00" fill="#666666">[uuid]</text>
<polygon fill="none" stroke="black" points="164.71,-573.8 164.71,-604.6 382.04,-604.6 382.04,-573.8 164.71,-573.8"/>
<text text-anchor="start" x="171.71" y="-586" font-family="Arial" font-size="14.00">userId </text>
<text text-anchor="start" x="214.51" y="-586" font-family="Arial" font-size="14.00" fill="#666666">[uuid]</text>
<polygon fill="none" stroke="black" points="164.71,-543 164.71,-573.8 382.04,-573.8 382.04,-543 164.71,-543"/>
<text text-anchor="start" x="171.71" y="-555.2" font-family="Arial" font-size="14.00">user </text>
<text text-anchor="start" x="202.84" y="-555.2" font-family="Arial" font-size="14.00" fill="#666666">[User]</text>
<polygon fill="none" stroke="black" points="164.71,-512.2 164.71,-543 382.04,-543 382.04,-512.2 164.71,-512.2"/>
<text text-anchor="start" x="171.71" y="-524.4" font-family="Arial" font-size="14.00">isSecondaryUser </text>
<text text-anchor="start" x="282.2" y="-524.4" font-family="Arial" font-size="14.00" fill="#666666">[boolean]</text>
<polygon fill="none" stroke="black" points="164.71,-481.4 164.71,-512.2 382.04,-512.2 382.04,-481.4 164.71,-481.4"/>
<text text-anchor="start" x="171.71" y="-493.6" font-family="Arial" font-size="14.00">createdAt </text>
<text text-anchor="start" x="235.53" y="-493.6" font-family="Arial" font-size="14.00" fill="#666666">[datetime]</text>
<polygon fill="none" stroke="black" points="164.71,-450.6 164.71,-481.4 382.04,-481.4 382.04,-450.6 164.71,-450.6"/>
<text text-anchor="start" x="171.71" y="-462.8" font-family="Arial" font-size="14.00">updatedAt </text>
<text text-anchor="start" x="239.44" y="-462.8" font-family="Arial" font-size="14.00" fill="#666666">[datetime]</text>
<polygon fill="none" stroke="black" points="164.71,-419.8 164.71,-450.6 382.04,-450.6 382.04,-419.8 164.71,-419.8"/>
<text text-anchor="start" x="171.71" y="-432" font-family="Arial" font-size="14.00">teamId </text>
<text text-anchor="start" x="218.4" y="-432" font-family="Arial" font-size="14.00" fill="#666666">[uuid]</text>
<polygon fill="none" stroke="black" points="164.71,-389 164.71,-419.8 382.04,-419.8 382.04,-389 164.71,-389"/>
<text text-anchor="start" x="171.71" y="-401.2" font-family="Arial" font-size="14.00">team </text>
<text text-anchor="start" x="206.73" y="-401.2" font-family="Arial" font-size="14.00" fill="#666666">[Team]</text>
<polygon fill="none" stroke="black" stroke-width="3" points="163.21,-387.5 163.21,-672.5 383.54,-672.5 383.54,-387.5 163.21,-387.5"/>
</g>
<!-- User -->
<g id="node2" class="node">
<title>User</title>
<polygon fill="#efefef" stroke="none" points="43.2,-228 43.2,-263.6 219.55,-263.6 219.55,-228 43.2,-228"/>
<polygon fill="none" stroke="black" points="43.2,-228 43.2,-263.6 219.55,-263.6 219.55,-228 43.2,-228"/>
<text text-anchor="start" x="50.2" y="-241.4" font-family="Arial Bold" font-size="18.00">User</text>
<text text-anchor="start" x="84.19" y="-241.4" font-family="Arial" font-size="14.00">    </text>
<text text-anchor="start" x="115.3" y="-241.4" font-family="Arial" font-size="14.00" fill="#666666">[TailorDB.Type]</text>
<polygon fill="none" stroke="black" points="43.2,-197.2 43.2,-228 219.55,-228 219.55,-197.2 43.2,-197.2"/>
<text text-anchor="start" x="50.2" y="-209.4" font-family="Arial" font-size="14.00">id </text>
<text text-anchor="start" x="64.99" y="-209.4" font-family="Arial" font-size="14.00" fill="#666666">[uuid]</text>
<polygon fill="none" stroke="black" points="43.2,-166.4 43.2,-197.2 219.55,-197.2 219.55,-166.4 43.2,-166.4"/>
<text text-anchor="start" x="50.2" y="-178.6" font-family="Arial" font-size="14.00">email </text>
<text text-anchor="start" x="87.54" y="-178.6" font-family="Arial" font-size="14.00" fill="#666666">[string]</text>
<polygon fill="none" stroke="black" points="43.2,-135.6 43.2,-166.4 219.55,-166.4 219.55,-135.6 43.2,-135.6"/>
<text text-anchor="start" x="50.2" y="-147.8" font-family="Arial" font-size="14.00">roles </text>
<text text-anchor="start" x="84.43" y="-147.8" font-family="Arial" font-size="14.00" fill="#666666">[uuid]</text>
<polygon fill="none" stroke="black" points="43.2,-104.8 43.2,-135.6 219.55,-135.6 219.55,-104.8 43.2,-104.8"/>
<text text-anchor="start" x="50.2" y="-117" font-family="Arial" font-size="14.00">createdAt </text>
<text text-anchor="start" x="114.01" y="-117" font-family="Arial" font-size="14.00" fill="#666666">[datetime]</text>
<polygon fill="none" stroke="black" points="43.2,-74 43.2,-104.8 219.55,-104.8 219.55,-74 43.2,-74"/>
<text text-anchor="start" x="50.2" y="-86.2" font-family="Arial" font-size="14.00">updatedAt </text>
<text text-anchor="start" x="117.92" y="-86.2" font-family="Arial" font-size="14.00" fill="#666666">[datetime]</text>
<polygon fill="none" stroke="black" points="43.2,-43.2 43.2,-74 219.55,-74 219.55,-43.2 43.2,-43.2"/>
<text text-anchor="start" x="50.2" y="-55.4" font-family="Arial" font-size="14.00">name </text>
<text text-anchor="start" x="89.11" y="-55.4" font-family="Arial" font-size="14.00" fill="#666666">[string]</text>
</g>
<!-- TeamUser&#45;&gt;User -->
<g id="edge1" class="edge">
<title>TeamUser:userId&#45;&gt;User:id</title>
<path fill="none" stroke="black" d="M153.35,-588.71C58.07,-579.29 114.23,-435.87 164.71,-342.8 178.61,-317.17 205.57,-332.38 219.55,-306.8 239.63,-270.06 262.42,-212.6 220.55,-212.6"/>
<polygon fill="black" stroke="black" points="153.39,-588.71 163.17,-593.68 158.72,-588.96 163.04,-589.17 163.04,-589.17 163.04,-589.17 158.72,-588.96 163.59,-584.69 153.39,-588.71"/>
<text text-anchor="start" x="56.67" y="-599.2" font-family="Arial" font-size="10.00">ForeignKeyType: User</text>
</g>
<!-- Team -->
<g id="node3" class="node">
<title>Team</title>
<polygon fill="#efefef" stroke="none" points="323.71,-212.6 323.71,-248.2 507.05,-248.2 507.05,-212.6 323.71,-212.6"/>
<polygon fill="none" stroke="black" points="323.71,-212.6 323.71,-248.2 507.05,-248.2 507.05,-212.6 323.71,-212.6"/>
<text text-anchor="start" x="330.71" y="-226" font-family="Arial Bold" font-size="18.00">Team</text>
<text text-anchor="start" x="371.68" y="-226" font-family="Arial" font-size="14.00">    </text>
<text text-anchor="start" x="402.8" y="-226" font-family="Arial" font-size="14.00" fill="#666666">[TailorDB.Type]</text>
<polygon fill="none" stroke="black" points="323.71,-181.8 323.71,-212.6 507.05,-212.6 507.05,-181.8 323.71,-181.8"/>
<text text-anchor="start" x="330.71" y="-194" font-family="Arial" font-size="14.00">id </text>
<text text-anchor="start" x="345.49" y="-194" font-family="Arial" font-size="14.00" fill="#666666">[uuid]</text>
<polygon fill="none" stroke="black" points="323.71,-151 323.71,-181.8 507.05,-181.8 507.05,-151 323.71,-151"/>
<text text-anchor="start" x="330.71" y="-163.2" font-family="Arial" font-size="14.00">isDeleted </text>
<text text-anchor="start" x="392.96" y="-163.2" font-family="Arial" font-size="14.00" fill="#666666">[boolean]</text>
<polygon fill="none" stroke="black" points="323.71,-120.2 323.71,-151 507.05,-151 507.05,-120.2 323.71,-120.2"/>
<text text-anchor="start" x="330.71" y="-132.4" font-family="Arial" font-size="14.00">createdAt </text>
<text text-anchor="start" x="394.52" y="-132.4" font-family="Arial" font-size="14.00" fill="#666666">[datetime]</text>
<polygon fill="none" stroke="black" points="323.71,-89.4 323.71,-120.2 507.05,-120.2 507.05,-89.4 323.71,-89.4"/>
<text text-anchor="start" x="330.71" y="-101.6" font-family="Arial" font-size="14.00">updatedAt </text>
<text text-anchor="start" x="398.43" y="-101.6" font-family="Arial" font-size="14.00" fill="#666666">[datetime]</text>
<polygon fill="none" stroke="black" points="323.71,-58.6 323.71,-89.4 507.05,-89.4 507.05,-58.6 323.71,-58.6"/>
<text text-anchor="start" x="330.71" y="-70.8" font-family="Arial" font-size="14.00">name </text>
<text text-anchor="start" x="369.62" y="-70.8" font-family="Arial" font-size="14.00" fill="#666666">[string]</text>
</g>
<!-- TeamUser&#45;&gt;Team -->
<g id="edge2" class="edge">
<title>TeamUser:teamId&#45;&gt;Team:id</title>
<path fill="none" stroke="black" d="M393.25,-433.69C419.31,-424.61 397.48,-376.49 382.04,-342.8 367.65,-311.39 338.1,-322.82 323.71,-291.4 306.27,-253.33 280.84,-197.2 322.71,-197.2"/>
<polygon fill="black" stroke="black" points="393.26,-433.69 382.71,-430.7 387.99,-434.47 383.7,-435.1 383.7,-435.1 383.7,-435.1 387.99,-434.47 384.03,-439.6 393.26,-433.69"/>
<text text-anchor="start" x="390.04" y="-445.2" font-family="Arial" font-size="10.00">ForeignKeyType: Team</text>
</g>
</g>
</svg>
