<?xml version="1.0" encoding="UTF-8" standalone="no"?>
<!DOCTYPE svg PUBLIC "-//W3C//DTD SVG 1.1//EN"
 "http://www.w3.org/Graphics/SVG/1.1/DTD/svg11.dtd">
<!-- Generated by graphviz version 12.1.2 (20240928.0832)
 -->
<!-- Title: TeamUser Pages: 1 -->
<svg width="558pt" height="725pt"
 viewBox="0.00 0.00 558.25 725.20" xmlns="http://www.w3.org/2000/svg" xmlns:xlink="http://www.w3.org/1999/xlink">
<g id="graph0" class="graph" transform="scale(1 1) rotate(0) translate(4 721.2)">
<title>TeamUser</title>
<polygon fill="white" stroke="none" points="-4,4 -4,-721.2 554.25,-721.2 554.25,4 -4,4"/>
<!-- TeamUser -->
<g id="node1" class="node">
<title>TeamUser</title>
<polygon fill="#efefef" stroke="none" points="168.21,-635.4 168.21,-671 385.53,-671 385.53,-635.4 168.21,-635.4"/>
<polygon fill="none" stroke="black" points="168.21,-635.4 168.21,-671 385.53,-671 385.53,-635.4 168.21,-635.4"/>
<text text-anchor="start" x="175.21" y="-648.8" font-family="Arial Bold" font-size="18.00">TeamUser</text>
<text text-anchor="start" x="250.17" y="-648.8" font-family="Arial" font-size="14.00">    </text>
<text text-anchor="start" x="281.29" y="-648.8" font-family="Arial" font-size="14.00" fill="#666666">[TailorDB.Type]</text>
<polygon fill="none" stroke="black" points="168.21,-604.6 168.21,-635.4 385.53,-635.4 385.53,-604.6 168.21,-604.6"/>
<text text-anchor="start" x="175.21" y="-616.8" font-family="Arial" font-size="14.00">id </text>
<text text-anchor="start" x="189.99" y="-616.8" font-family="Arial" font-size="14.00" fill="#666666">[uuid]</text>
<polygon fill="none" stroke="black" points="168.21,-573.8 168.21,-604.6 385.53,-604.6 385.53,-573.8 168.21,-573.8"/>
<text text-anchor="start" x="175.21" y="-586" font-family="Arial" font-size="14.00">createdAt </text>
<text text-anchor="start" x="239.02" y="-586" font-family="Arial" font-size="14.00" fill="#666666">[datetime]</text>
<polygon fill="none" stroke="black" points="168.21,-543 168.21,-573.8 385.53,-573.8 385.53,-543 168.21,-543"/>
<text text-anchor="start" x="175.21" y="-555.2" font-family="Arial" font-size="14.00">updatedAt </text>
<text text-anchor="start" x="242.93" y="-555.2" font-family="Arial" font-size="14.00" fill="#666666">[datetime]</text>
<polygon fill="none" stroke="black" points="168.21,-512.2 168.21,-543 385.53,-543 385.53,-512.2 168.21,-512.2"/>
<text text-anchor="start" x="175.21" y="-524.4" font-family="Arial" font-size="14.00">teamId </text>
<text text-anchor="start" x="221.9" y="-524.4" font-family="Arial" font-size="14.00" fill="#666666">[uuid]</text>
<polygon fill="none" stroke="black" points="168.21,-481.4 168.21,-512.2 385.53,-512.2 385.53,-481.4 168.21,-481.4"/>
<text text-anchor="start" x="175.21" y="-493.6" font-family="Arial" font-size="14.00">team </text>
<text text-anchor="start" x="210.22" y="-493.6" font-family="Arial" font-size="14.00" fill="#666666">[Team]</text>
<polygon fill="none" stroke="black" points="168.21,-450.6 168.21,-481.4 385.53,-481.4 385.53,-450.6 168.21,-450.6"/>
<text text-anchor="start" x="175.21" y="-462.8" font-family="Arial" font-size="14.00">userId </text>
<text text-anchor="start" x="218.01" y="-462.8" font-family="Arial" font-size="14.00" fill="#666666">[uuid]</text>
<polygon fill="none" stroke="black" points="168.21,-419.8 168.21,-450.6 385.53,-450.6 385.53,-419.8 168.21,-419.8"/>
<text text-anchor="start" x="175.21" y="-432" font-family="Arial" font-size="14.00">user </text>
<text text-anchor="start" x="206.33" y="-432" font-family="Arial" font-size="14.00" fill="#666666">[User]</text>
<polygon fill="none" stroke="black" points="168.21,-389 168.21,-419.8 385.53,-419.8 385.53,-389 168.21,-389"/>
<text text-anchor="start" x="175.21" y="-401.2" font-family="Arial" font-size="14.00">isSecondaryUser </text>
<text text-anchor="start" x="285.7" y="-401.2" font-family="Arial" font-size="14.00" fill="#666666">[boolean]</text>
<polygon fill="none" stroke="black" stroke-width="3" points="166.71,-387.5 166.71,-672.5 387.03,-672.5 387.03,-387.5 166.71,-387.5"/>
</g>
<!-- Team -->
<g id="node2" class="node">
<title>Team</title>
<polygon fill="#efefef" stroke="none" points="43.2,-212.6 43.2,-248.2 226.54,-248.2 226.54,-212.6 43.2,-212.6"/>
<polygon fill="none" stroke="black" points="43.2,-212.6 43.2,-248.2 226.54,-248.2 226.54,-212.6 43.2,-212.6"/>
<text text-anchor="start" x="50.2" y="-226" font-family="Arial Bold" font-size="18.00">Team</text>
<text text-anchor="start" x="91.17" y="-226" font-family="Arial" font-size="14.00">    </text>
<text text-anchor="start" x="122.29" y="-226" font-family="Arial" font-size="14.00" fill="#666666">[TailorDB.Type]</text>
<polygon fill="none" stroke="black" points="43.2,-181.8 43.2,-212.6 226.54,-212.6 226.54,-181.8 43.2,-181.8"/>
<text text-anchor="start" x="50.2" y="-194" font-family="Arial" font-size="14.00">id </text>
<text text-anchor="start" x="64.99" y="-194" font-family="Arial" font-size="14.00" fill="#666666">[uuid]</text>
<polygon fill="none" stroke="black" points="43.2,-151 43.2,-181.8 226.54,-181.8 226.54,-151 43.2,-151"/>
<text text-anchor="start" x="50.2" y="-163.2" font-family="Arial" font-size="14.00">name </text>
<text text-anchor="start" x="89.11" y="-163.2" font-family="Arial" font-size="14.00" fill="#666666">[string]</text>
<polygon fill="none" stroke="black" points="43.2,-120.2 43.2,-151 226.54,-151 226.54,-120.2 43.2,-120.2"/>
<text text-anchor="start" x="50.2" y="-132.4" font-family="Arial" font-size="14.00">isDeleted </text>
<text text-anchor="start" x="112.45" y="-132.4" font-family="Arial" font-size="14.00" fill="#666666">[boolean]</text>
<polygon fill="none" stroke="black" points="43.2,-89.4 43.2,-120.2 226.54,-120.2 226.54,-89.4 43.2,-89.4"/>
<text text-anchor="start" x="50.2" y="-101.6" font-family="Arial" font-size="14.00">createdAt </text>
<text text-anchor="start" x="114.01" y="-101.6" font-family="Arial" font-size="14.00" fill="#666666">[datetime]</text>
<polygon fill="none" stroke="black" points="43.2,-58.6 43.2,-89.4 226.54,-89.4 226.54,-58.6 43.2,-58.6"/>
<text text-anchor="start" x="50.2" y="-70.8" font-family="Arial" font-size="14.00">updatedAt </text>
<text text-anchor="start" x="117.92" y="-70.8" font-family="Arial" font-size="14.00" fill="#666666">[datetime]</text>
</g>
<!-- TeamUser&#45;&gt;Team -->
<g id="edge1" class="edge">
<title>TeamUser:teamId&#45;&gt;Team:id</title>
<path fill="none" stroke="black" d="M156.92,-526.95C89.45,-517.78 135.72,-414.2 168.21,-342.8 182.52,-311.35 212.15,-322.82 226.54,-291.4 243.98,-253.33 269.41,-197.2 227.54,-197.2"/>
<polygon fill="black" stroke="black" points="156.89,-526.95 166.59,-532.07 162.22,-527.28 166.54,-527.56 166.54,-527.56 166.54,-527.56 162.22,-527.28 167.16,-523.09 156.89,-526.95"/>
<text text-anchor="start" x="55.72" y="-537.6" font-family="Arial" font-size="10.00">ForeignKeyType: Team</text>
</g>
<!-- User -->
<g id="node3" class="node">
<title>User</title>
<polygon fill="#efefef" stroke="none" points="330.69,-228 330.69,-263.6 507.05,-263.6 507.05,-228 330.69,-228"/>
<polygon fill="none" stroke="black" points="330.69,-228 330.69,-263.6 507.05,-263.6 507.05,-228 330.69,-228"/>
<text text-anchor="start" x="337.69" y="-241.4" font-family="Arial Bold" font-size="18.00">User</text>
<text text-anchor="start" x="371.68" y="-241.4" font-family="Arial" font-size="14.00">    </text>
<text text-anchor="start" x="402.8" y="-241.4" font-family="Arial" font-size="14.00" fill="#666666">[TailorDB.Type]</text>
<polygon fill="none" stroke="black" points="330.69,-197.2 330.69,-228 507.05,-228 507.05,-197.2 330.69,-197.2"/>
<text text-anchor="start" x="337.69" y="-209.4" font-family="Arial" font-size="14.00">id </text>
<text text-anchor="start" x="352.48" y="-209.4" font-family="Arial" font-size="14.00" fill="#666666">[uuid]</text>
<polygon fill="none" stroke="black" points="330.69,-166.4 330.69,-197.2 507.05,-197.2 507.05,-166.4 330.69,-166.4"/>
<text text-anchor="start" x="337.69" y="-178.6" font-family="Arial" font-size="14.00">name </text>
<text text-anchor="start" x="376.6" y="-178.6" font-family="Arial" font-size="14.00" fill="#666666">[string]</text>
<polygon fill="none" stroke="black" points="330.69,-135.6 330.69,-166.4 507.05,-166.4 507.05,-135.6 330.69,-135.6"/>
<text text-anchor="start" x="337.69" y="-147.8" font-family="Arial" font-size="14.00">email </text>
<text text-anchor="start" x="375.04" y="-147.8" font-family="Arial" font-size="14.00" fill="#666666">[string]</text>
<polygon fill="none" stroke="black" points="330.69,-104.8 330.69,-135.6 507.05,-135.6 507.05,-104.8 330.69,-104.8"/>
<text text-anchor="start" x="337.69" y="-117" font-family="Arial" font-size="14.00">roles </text>
<text text-anchor="start" x="371.93" y="-117" font-family="Arial" font-size="14.00" fill="#666666">[uuid]</text>
<polygon fill="none" stroke="black" points="330.69,-74 330.69,-104.8 507.05,-104.8 507.05,-74 330.69,-74"/>
<text text-anchor="start" x="337.69" y="-86.2" font-family="Arial" font-size="14.00">createdAt </text>
<text text-anchor="start" x="401.51" y="-86.2" font-family="Arial" font-size="14.00" fill="#666666">[datetime]</text>
<polygon fill="none" stroke="black" points="330.69,-43.2 330.69,-74 507.05,-74 507.05,-43.2 330.69,-43.2"/>
<text text-anchor="start" x="337.69" y="-55.4" font-family="Arial" font-size="14.00">updatedAt </text>
<text text-anchor="start" x="405.42" y="-55.4" font-family="Arial" font-size="14.00" fill="#666666">[datetime]</text>
</g>
<!-- TeamUser&#45;&gt;User -->
<g id="edge2" class="edge">
<title>TeamUser:userId&#45;&gt;User:id</title>
<path fill="none" stroke="black" d="M396.86,-464.92C437.15,-455.57 409.9,-387.5 385.53,-342.8 371.58,-317.2 344.68,-332.38 330.69,-306.8 310.61,-270.06 287.82,-212.6 329.69,-212.6"/>
<polygon fill="black" stroke="black" points="396.81,-464.93 386.4,-461.49 391.51,-465.48 387.2,-465.93 387.2,-465.93 387.2,-465.93 391.51,-465.48 387.33,-470.44 396.81,-464.93"/>
<text text-anchor="start" x="393.53" y="-476" font-family="Arial" font-size="10.00">ForeignKeyType: User</text>
</g>
</g>
</svg>
