<?xml version="1.0" encoding="UTF-8" standalone="no"?>
<!DOCTYPE svg PUBLIC "-//W3C//DTD SVG 1.1//EN"
 "http://www.w3.org/Graphics/SVG/1.1/DTD/svg11.dtd">
<!-- Generated by graphviz version 12.1.2 (20240928.0832)
 -->
<!-- Title: User Pages: 1 -->
<svg width="929pt" height="941pt"
 viewBox="0.00 0.00 929.24 940.80" xmlns="http://www.w3.org/2000/svg" xmlns:xlink="http://www.w3.org/1999/xlink">
<g id="graph0" class="graph" transform="scale(1 1) rotate(0) translate(4 936.8)">
<title>User</title>
<polygon fill="white" stroke="none" points="-4,4 -4,-936.8 925.24,-936.8 925.24,4 -4,4"/>
<!-- User -->
<g id="node1" class="node">
<title>User</title>
<polygon fill="#efefef" stroke="none" points="352.2,-231 352.2,-266.6 528.55,-266.6 528.55,-231 352.2,-231"/>
<polygon fill="none" stroke="black" points="352.2,-231 352.2,-266.6 528.55,-266.6 528.55,-231 352.2,-231"/>
<text text-anchor="start" x="359.2" y="-244.4" font-family="Arial Bold" font-size="18.00">User</text>
<text text-anchor="start" x="393.18" y="-244.4" font-family="Arial" font-size="14.00">    </text>
<text text-anchor="start" x="424.3" y="-244.4" font-family="Arial" font-size="14.00" fill="#666666">[TailorDB.Type]</text>
<polygon fill="none" stroke="black" points="352.2,-200.2 352.2,-231 528.55,-231 528.55,-200.2 352.2,-200.2"/>
<text text-anchor="start" x="359.2" y="-212.4" font-family="Arial" font-size="14.00">id </text>
<text text-anchor="start" x="373.98" y="-212.4" font-family="Arial" font-size="14.00" fill="#666666">[uuid]</text>
<polygon fill="none" stroke="black" points="352.2,-169.4 352.2,-200.2 528.55,-200.2 528.55,-169.4 352.2,-169.4"/>
<text text-anchor="start" x="359.2" y="-181.6" font-family="Arial" font-size="14.00">name </text>
<text text-anchor="start" x="398.11" y="-181.6" font-family="Arial" font-size="14.00" fill="#666666">[string]</text>
<polygon fill="none" stroke="black" points="352.2,-138.6 352.2,-169.4 528.55,-169.4 528.55,-138.6 352.2,-138.6"/>
<text text-anchor="start" x="359.2" y="-150.8" font-family="Arial" font-size="14.00">email </text>
<text text-anchor="start" x="396.54" y="-150.8" font-family="Arial" font-size="14.00" fill="#666666">[string]</text>
<polygon fill="none" stroke="black" points="352.2,-107.8 352.2,-138.6 528.55,-138.6 528.55,-107.8 352.2,-107.8"/>
<text text-anchor="start" x="359.2" y="-120" font-family="Arial" font-size="14.00">roles </text>
<text text-anchor="start" x="393.43" y="-120" font-family="Arial" font-size="14.00" fill="#666666">[uuid]</text>
<polygon fill="none" stroke="black" points="352.2,-77 352.2,-107.8 528.55,-107.8 528.55,-77 352.2,-77"/>
<text text-anchor="start" x="359.2" y="-89.2" font-family="Arial" font-size="14.00">createdAt </text>
<text text-anchor="start" x="423.01" y="-89.2" font-family="Arial" font-size="14.00" fill="#666666">[datetime]</text>
<polygon fill="none" stroke="black" points="352.2,-46.2 352.2,-77 528.55,-77 528.55,-46.2 352.2,-46.2"/>
<text text-anchor="start" x="359.2" y="-58.4" font-family="Arial" font-size="14.00">updatedAt </text>
<text text-anchor="start" x="426.92" y="-58.4" font-family="Arial" font-size="14.00" fill="#666666">[datetime]</text>
<polygon fill="none" stroke="black" stroke-width="3" points="350.7,-44.7 350.7,-268.1 530.05,-268.1 530.05,-44.7 350.7,-44.7"/>
</g>
<!-- Deal -->
<g id="node2" class="node">
<title>Deal</title>
<polygon fill="#efefef" stroke="none" points="43.2,-854 43.2,-889.6 219.54,-889.6 219.54,-854 43.2,-854"/>
<polygon fill="none" stroke="black" points="43.2,-854 43.2,-889.6 219.54,-889.6 219.54,-854 43.2,-854"/>
<text text-anchor="start" x="50.2" y="-867.4" font-family="Arial Bold" font-size="18.00">Deal</text>
<text text-anchor="start" x="84.18" y="-867.4" font-family="Arial" font-size="14.00">    </text>
<text text-anchor="start" x="115.3" y="-867.4" font-family="Arial" font-size="14.00" fill="#666666">[TailorDB.Type]</text>
<polygon fill="none" stroke="black" points="43.2,-823.2 43.2,-854 219.54,-854 219.54,-823.2 43.2,-823.2"/>
<text text-anchor="start" x="50.2" y="-835.4" font-family="Arial" font-size="14.00">id </text>
<text text-anchor="start" x="64.99" y="-835.4" font-family="Arial" font-size="14.00" fill="#666666">[uuid]</text>
<polygon fill="none" stroke="black" points="43.2,-792.4 43.2,-823.2 219.54,-823.2 219.54,-792.4 43.2,-792.4"/>
<text text-anchor="start" x="50.2" y="-804.6" font-family="Arial" font-size="14.00">dealStage </text>
<text text-anchor="start" x="117.14" y="-804.6" font-family="Arial" font-size="14.00" fill="#666666">[DealStage]</text>
<polygon fill="none" stroke="black" points="43.2,-761.6 43.2,-792.4 219.54,-792.4 219.54,-761.6 43.2,-761.6"/>
<text text-anchor="start" x="50.2" y="-773.8" font-family="Arial" font-size="14.00">userId </text>
<text text-anchor="start" x="93" y="-773.8" font-family="Arial" font-size="14.00" fill="#666666">[uuid]</text>
<polygon fill="none" stroke="black" points="43.2,-730.8 43.2,-761.6 219.54,-761.6 219.54,-730.8 43.2,-730.8"/>
<text text-anchor="start" x="50.2" y="-743" font-family="Arial" font-size="14.00">user </text>
<text text-anchor="start" x="81.32" y="-743" font-family="Arial" font-size="14.00" fill="#666666">[User]</text>
<polygon fill="none" stroke="black" points="43.2,-700 43.2,-730.8 219.54,-730.8 219.54,-700 43.2,-700"/>
<text text-anchor="start" x="50.2" y="-712.2" font-family="Arial" font-size="14.00">company </text>
<text text-anchor="start" x="110.9" y="-712.2" font-family="Arial" font-size="14.00" fill="#666666">[Company]</text>
<polygon fill="none" stroke="black" points="43.2,-669.2 43.2,-700 219.54,-700 219.54,-669.2 43.2,-669.2"/>
<text text-anchor="start" x="50.2" y="-681.4" font-family="Arial" font-size="14.00">isDeleted </text>
<text text-anchor="start" x="112.45" y="-681.4" font-family="Arial" font-size="14.00" fill="#666666">[boolean]</text>
<polygon fill="none" stroke="black" points="43.2,-638.4 43.2,-669.2 219.54,-669.2 219.54,-638.4 43.2,-638.4"/>
<text text-anchor="start" x="50.2" y="-650.6" font-family="Arial" font-size="14.00">updatedAt </text>
<text text-anchor="start" x="117.92" y="-650.6" font-family="Arial" font-size="14.00" fill="#666666">[datetime]</text>
<polygon fill="none" stroke="black" points="43.2,-607.6 43.2,-638.4 219.54,-638.4 219.54,-607.6 43.2,-607.6"/>
<text text-anchor="start" x="50.2" y="-619.8" font-family="Arial" font-size="14.00">value </text>
<text text-anchor="start" x="87.56" y="-619.8" font-family="Arial" font-size="14.00" fill="#666666">[float]</text>
<polygon fill="none" stroke="black" points="43.2,-576.8 43.2,-607.6 219.54,-607.6 219.54,-576.8 43.2,-576.8"/>
<text text-anchor="start" x="50.2" y="-589" font-family="Arial" font-size="14.00">contactId </text>
<text text-anchor="start" x="110.9" y="-589" font-family="Arial" font-size="14.00" fill="#666666">[uuid]</text>
<polygon fill="none" stroke="black" points="43.2,-546 43.2,-576.8 219.54,-576.8 219.54,-546 43.2,-546"/>
<text text-anchor="start" x="50.2" y="-558.2" font-family="Arial" font-size="14.00">contact </text>
<text text-anchor="start" x="99.23" y="-558.2" font-family="Arial" font-size="14.00" fill="#666666">[Contact]</text>
<polygon fill="none" stroke="black" points="43.2,-515.2 43.2,-546 219.54,-546 219.54,-515.2 43.2,-515.2"/>
<text text-anchor="start" x="50.2" y="-527.4" font-family="Arial" font-size="14.00">createdAt </text>
<text text-anchor="start" x="114.01" y="-527.4" font-family="Arial" font-size="14.00" fill="#666666">[datetime]</text>
<polygon fill="none" stroke="black" points="43.2,-484.4 43.2,-515.2 219.54,-515.2 219.54,-484.4 43.2,-484.4"/>
<text text-anchor="start" x="50.2" y="-496.6" font-family="Arial" font-size="14.00">dealStageId </text>
<text text-anchor="start" x="128.82" y="-496.6" font-family="Arial" font-size="14.00" fill="#666666">[uuid]</text>
<polygon fill="none" stroke="black" points="43.2,-453.6 43.2,-484.4 219.54,-484.4 219.54,-453.6 43.2,-453.6"/>
<text text-anchor="start" x="50.2" y="-465.8" font-family="Arial" font-size="14.00">probability </text>
<text text-anchor="start" x="117.9" y="-465.8" font-family="Arial" font-size="14.00" fill="#666666">[float]</text>
<polygon fill="none" stroke="black" points="43.2,-422.8 43.2,-453.6 219.54,-453.6 219.54,-422.8 43.2,-422.8"/>
<text text-anchor="start" x="50.2" y="-435" font-family="Arial" font-size="14.00">companyId </text>
<text text-anchor="start" x="122.57" y="-435" font-family="Arial" font-size="14.00" fill="#666666">[uuid]</text>
<polygon fill="none" stroke="black" points="43.2,-392 43.2,-422.8 219.54,-422.8 219.54,-392 43.2,-392"/>
<text text-anchor="start" x="50.2" y="-404.2" font-family="Arial" font-size="14.00">amount </text>
<text text-anchor="start" x="100.79" y="-404.2" font-family="Arial" font-size="14.00" fill="#666666">[float]</text>
</g>
<!-- Deal&#45;&gt;User -->
<g id="edge1" class="edge">
<title>Deal:userId&#45;&gt;User:id</title>
<path fill="none" stroke="black" d="M230.52,-775.64C310.98,-752.3 242.69,-436.19 272.37,-348.8 294.49,-283.66 282.41,-215.6 351.2,-215.6"/>
<polygon fill="black" stroke="black" points="230.78,-775.6 220.27,-772.5 225.5,-776.32 221.21,-776.91 221.21,-776.91 221.21,-776.91 225.5,-776.32 221.48,-781.41 230.78,-775.6"/>
<text text-anchor="start" x="227.54" y="-787" font-family="Arial" font-size="10.00">ForeignKeyType: User</text>
</g>
<!-- Engagement -->
<g id="node3" class="node">
<title>Engagement</title>
<polygon fill="#efefef" stroke="none" points="324.21,-730.8 324.21,-766.4 556.54,-766.4 556.54,-730.8 324.21,-730.8"/>
<polygon fill="none" stroke="black" points="324.21,-730.8 324.21,-766.4 556.54,-766.4 556.54,-730.8 324.21,-730.8"/>
<text text-anchor="start" x="331.21" y="-744.2" font-family="Arial Bold" font-size="18.00">Engagement</text>
<text text-anchor="start" x="421.17" y="-744.2" font-family="Arial" font-size="14.00">    </text>
<text text-anchor="start" x="452.29" y="-744.2" font-family="Arial" font-size="14.00" fill="#666666">[TailorDB.Type]</text>
<polygon fill="none" stroke="black" points="324.21,-700 324.21,-730.8 556.54,-730.8 556.54,-700 324.21,-700"/>
<text text-anchor="start" x="331.21" y="-712.2" font-family="Arial" font-size="14.00">id </text>
<text text-anchor="start" x="345.99" y="-712.2" font-family="Arial" font-size="14.00" fill="#666666">[uuid]</text>
<polygon fill="none" stroke="black" points="324.21,-669.2 324.21,-700 556.54,-700 556.54,-669.2 324.21,-669.2"/>
<text text-anchor="start" x="331.21" y="-681.4" font-family="Arial" font-size="14.00">active </text>
<text text-anchor="start" x="371.67" y="-681.4" font-family="Arial" font-size="14.00" fill="#666666">[boolean]</text>
<polygon fill="none" stroke="black" points="324.21,-638.4 324.21,-669.2 556.54,-669.2 556.54,-638.4 324.21,-638.4"/>
<text text-anchor="start" x="331.21" y="-650.6" font-family="Arial" font-size="14.00">activityType </text>
<text text-anchor="start" x="409.01" y="-650.6" font-family="Arial" font-size="14.00" fill="#666666">[string]</text>
<polygon fill="none" stroke="black" points="324.21,-607.6 324.21,-638.4 556.54,-638.4 556.54,-607.6 324.21,-607.6"/>
<text text-anchor="start" x="331.21" y="-619.8" font-family="Arial" font-size="14.00">userId </text>
<text text-anchor="start" x="374.01" y="-619.8" font-family="Arial" font-size="14.00" fill="#666666">[uuid]</text>
<polygon fill="none" stroke="black" points="324.21,-576.8 324.21,-607.6 556.54,-607.6 556.54,-576.8 324.21,-576.8"/>
<text text-anchor="start" x="331.21" y="-589" font-family="Arial" font-size="14.00">type </text>
<text text-anchor="start" x="361.56" y="-589" font-family="Arial" font-size="14.00" fill="#666666">[string]</text>
<polygon fill="none" stroke="black" points="324.21,-546 324.21,-576.8 556.54,-576.8 556.54,-546 324.21,-546"/>
<text text-anchor="start" x="331.21" y="-558.2" font-family="Arial" font-size="14.00">createdAt </text>
<text text-anchor="start" x="395.02" y="-558.2" font-family="Arial" font-size="14.00" fill="#666666">[datetime]</text>
<polygon fill="none" stroke="black" points="324.21,-515.2 324.21,-546 556.54,-546 556.54,-515.2 324.21,-515.2"/>
<text text-anchor="start" x="331.21" y="-527.4" font-family="Arial" font-size="14.00">updatedAt </text>
<text text-anchor="start" x="398.93" y="-527.4" font-family="Arial" font-size="14.00" fill="#666666">[datetime]</text>
</g>
<!-- Engagement&#45;&gt;User -->
<g id="edge2" class="edge">
<title>Engagement:userId&#45;&gt;User:id</title>
<path fill="none" stroke="black" d="M566.04,-617.24C598.89,-567.72 571.73,-215.6 529.55,-215.6"/>
<polygon fill="black" stroke="black" points="566.09,-617.2 555.29,-619.09 561.68,-620.2 558.09,-622.62 558.09,-622.62 558.09,-622.62 561.68,-620.2 560.34,-626.54 566.09,-617.2"/>
<text text-anchor="start" x="536.03" y="-607" font-family="Arial" font-size="10.00">ForeignKeyType: User</text>
</g>
<!-- TeamUser -->
<g id="node4" class="node">
<title>TeamUser</title>
<polygon fill="#efefef" stroke="none" points="660.71,-746.2 660.71,-781.8 878.04,-781.8 878.04,-746.2 660.71,-746.2"/>
<polygon fill="none" stroke="black" points="660.71,-746.2 660.71,-781.8 878.04,-781.8 878.04,-746.2 660.71,-746.2"/>
<text text-anchor="start" x="667.71" y="-759.6" font-family="Arial Bold" font-size="18.00">TeamUser</text>
<text text-anchor="start" x="742.67" y="-759.6" font-family="Arial" font-size="14.00">    </text>
<text text-anchor="start" x="773.79" y="-759.6" font-family="Arial" font-size="14.00" fill="#666666">[TailorDB.Type]</text>
<polygon fill="none" stroke="black" points="660.71,-715.4 660.71,-746.2 878.04,-746.2 878.04,-715.4 660.71,-715.4"/>
<text text-anchor="start" x="667.71" y="-727.6" font-family="Arial" font-size="14.00">id </text>
<text text-anchor="start" x="682.49" y="-727.6" font-family="Arial" font-size="14.00" fill="#666666">[uuid]</text>
<polygon fill="none" stroke="black" points="660.71,-684.6 660.71,-715.4 878.04,-715.4 878.04,-684.6 660.71,-684.6"/>
<text text-anchor="start" x="667.71" y="-696.8" font-family="Arial" font-size="14.00">createdAt </text>
<text text-anchor="start" x="731.52" y="-696.8" font-family="Arial" font-size="14.00" fill="#666666">[datetime]</text>
<polygon fill="none" stroke="black" points="660.71,-653.8 660.71,-684.6 878.04,-684.6 878.04,-653.8 660.71,-653.8"/>
<text text-anchor="start" x="667.71" y="-666" font-family="Arial" font-size="14.00">updatedAt </text>
<text text-anchor="start" x="735.43" y="-666" font-family="Arial" font-size="14.00" fill="#666666">[datetime]</text>
<polygon fill="none" stroke="black" points="660.71,-623 660.71,-653.8 878.04,-653.8 878.04,-623 660.71,-623"/>
<text text-anchor="start" x="667.71" y="-635.2" font-family="Arial" font-size="14.00">teamId </text>
<text text-anchor="start" x="714.4" y="-635.2" font-family="Arial" font-size="14.00" fill="#666666">[uuid]</text>
<polygon fill="none" stroke="black" points="660.71,-592.2 660.71,-623 878.04,-623 878.04,-592.2 660.71,-592.2"/>
<text text-anchor="start" x="667.71" y="-604.4" font-family="Arial" font-size="14.00">team </text>
<text text-anchor="start" x="702.72" y="-604.4" font-family="Arial" font-size="14.00" fill="#666666">[Team]</text>
<polygon fill="none" stroke="black" points="660.71,-561.4 660.71,-592.2 878.04,-592.2 878.04,-561.4 660.71,-561.4"/>
<text text-anchor="start" x="667.71" y="-573.6" font-family="Arial" font-size="14.00">userId </text>
<text text-anchor="start" x="710.51" y="-573.6" font-family="Arial" font-size="14.00" fill="#666666">[uuid]</text>
<polygon fill="none" stroke="black" points="660.71,-530.6 660.71,-561.4 878.04,-561.4 878.04,-530.6 660.71,-530.6"/>
<text text-anchor="start" x="667.71" y="-542.8" font-family="Arial" font-size="14.00">user </text>
<text text-anchor="start" x="698.83" y="-542.8" font-family="Arial" font-size="14.00" fill="#666666">[User]</text>
<polygon fill="none" stroke="black" points="660.71,-499.8 660.71,-530.6 878.04,-530.6 878.04,-499.8 660.71,-499.8"/>
<text text-anchor="start" x="667.71" y="-512" font-family="Arial" font-size="14.00">isSecondaryUser </text>
<text text-anchor="start" x="778.2" y="-512" font-family="Arial" font-size="14.00" fill="#666666">[boolean]</text>
</g>
<!-- TeamUser&#45;&gt;User -->
<g id="edge3" class="edge">
<title>TeamUser:userId&#45;&gt;User:id</title>
<path fill="none" stroke="black" d="M649.78,-574.24C610.36,-552.18 626.19,-393.68 608.37,-348.8 582.99,-284.86 598.34,-215.6 529.55,-215.6"/>
<polygon fill="black" stroke="black" points="649.7,-574.22 658.26,-581.07 654.87,-575.55 659.06,-576.63 659.06,-576.63 659.06,-576.63 654.87,-575.55 660.51,-572.36 649.7,-574.22"/>
<text text-anchor="start" x="552.67" y="-560.8" font-family="Arial" font-size="10.00">ForeignKeyType: User</text>
</g>
</g>
</svg>
